  0
SECTION
  2
HEADER
  9
$ACADVER
  1
AC1015
  9
$ACADMAINTVER
 70
     6
  9
$DWGCODEPAGE
  3
ANSI_1252
  9
$INSBASE
 10
0.0
 20
0.0
 30
0.0
  9
$EXTMIN
 10
0.0
 20
0.0
 30
0.0
  9
$EXTMAX
 10
2440.0
 20
1220.0
 30
0.0
  9
$LIMMIN
 10
0.0
 20
0.0
  9
$LIMMAX
 10
2440.0
 20
1220.0
  9
$ORTHOMODE
 70
     0
  9
$REGENMODE
 70
     1
  9
$FILLMODE
 70
     1
  9
$QTEXTMODE
 70
     0
  9
$MIRRTEXT
 70
     1
  9
$LTSCALE
 40
1.0
  9
$ATTMODE
 70
     1
  9
$TEXTSIZE
 40
3.5
  9
$TRACEWID
 40
1.0
  9
$TEXTSTYLE
  7
Standard
  9
$CLAYER
  8
0
  9
$CELTYPE
  6
ByLayer
  9
$CECOLOR
 62
   256
  9
$CELTSCALE
 40
1.0
  9
$DISPSILH
 70
     0
  9
$DIMSCALE
 40
1.0
  9
$DIMASZ
 40
3.556
  9
$DIMEXO
 40
1.0
  9
$DIMDLI
 40
3.75
  9
$DIMRND
 40
0.0
  9
$DIMDLE
 40
0.0
  9
$DIMEXE
 40
1.0
  9
$DIMTP
 40
0.0
  9
$DIMTM
 40
0.0
  9
$DIMTXT
 40
3.5
  9
$DIMCEN
 40
2.5
  9
$DIMTSZ
 40
0.0
  9
$DIMTOL
 70
     0
  9
$DIMLIM
 70
     0
  9
$DIMTIH
 70
     1
  9
$DIMTOH
 70
     1
  9
$DIMSE1
 70
     0
  9
$DIMSE2
 70
     0
  9
$DIMTAD
 70
     1
  9
$DIMZIN
 70
     0
  9
$DIMBLK
  1

  9
$DIMASO
 70
     1
  9
$DIMSHO
 70
     1
  9
$DIMPOST
  1

  9
$DIMAPOST
  1

  9
$DIMALT
 70
     0
  9
$DIMALTD
 70
     3
  9
$DIMALTF
 40
0.0393700787
  9
$DIMLFAC
 40
1.0
  9
$DIMTOFL
 70
     1
  9
$DIMTVP
 40
0.0
  9
$DIMTIX
 70
     0
  9
$DIMSOXD
 70
     0
  9
$DIMSAH
 70
     0
  9
$DIMBLK1
  1

  9
$DIMBLK2
  1

  9
$DIMSTYLE
  2
ISO-25
  9
$DIMCLRD
 70
     0
  9
$DIMCLRE
 70
     0
  9
$DIMCLRT
 70
     0
  9
$DIMTFAC
 40
1.0
  9
$DIMGAP
 40
1.524
  9
$DIMJUST
 70
     0
  9
$DIMSD1
 70
     0
  9
$DIMSD2
 70
     0
  9
$DIMTOLJ
 70
     0
  9
$DIMTZIN
 70
     0
  9
$DIMALTZ
 70
     0
  9
$DIMALTTZ
 70
     0
  9
$DIMUPT
 70
     0
  9
$DIMDEC
 70
     2
  9
$DIMTDEC
 70
     2
  9
$DIMALTU
 70
     2
  9
$DIMALTTD
 70
     3
  9
$DIMTXSTY
  7
Standard
  9
$DIMAUNIT
 70
     0
  9
$DIMADEC
 70
     2
  9
$DIMALTRND
 40
0.0
  9
$DIMAZIN
 70
     0
  9
$DIMDSEP
 70
    44
  9
$DIMATFIT
 70
     3
  9
$DIMFRAC
 70
     0
  9
$DIMLDRBLK
  1

  9
$DIMLUNIT
 70
     2
  9
$DIMLWD
 70
    -2
  9
$DIMLWE
 70
    -2
  9
$DIMTMOVE
 70
     0
  9
$LUNITS
 70
     2
  9
$LUPREC
 70
     2
  9
$SKETCHINC
 40
1.0
  9
$FILLETRAD
 40
10.0
  9
$AUNITS
 70
     0
  9
$AUPREC
 70
     2
  9
$MENU
  1
.
  9
$ELEVATION
 40
0.0
  9
$PELEVATION
 40
0.0
  9
$THICKNESS
 40
0.0
  9
$LIMCHECK
 70
     0
  9
$CHAMFERA
 40
0.0
  9
$CHAMFERB
 40
0.0
  9
$CHAMFERC
 40
0.0
  9
$CHAMFERD
 40
0.0
  9
$SKPOLY
 70
     0
  9
$TDCREATE
 40
2457720.683056585
  9
$TDUCREATE
 40
2457720.974723252
  9
$TDUPDATE
 40
2457720.68305713
  9
$TDUUPDATE
 40
2457720.974723796
  9
$TDINDWG
 40
0.0000000116
  9
$TDUSRTIMER
 40
0.0000000116
  9
$USRTIMER
 70
     1
  9
$ANGBASE
 50
0.0
  9
$ANGDIR
 70
     0
  9
$PDMODE
 70
     0
  9
$PDSIZE
 40
-1.0
  9
$PLINEWID
 40
0.0
  9
$SPLFRAME
 70
     0
  9
$SPLINETYPE
 70
     6
  9
$SPLINESEGS
 70
     8
  9
$HANDSEED
  5
3F3
  9
$SURFTAB1
 70
     6
  9
$SURFTAB2
 70
     6
  9
$SURFTYPE
 70
     6
  9
$SURFU
 70
     6
  9
$SURFV
 70
     6
  9
$UCSBASE
  2

  9
$UCSNAME
  2

  9
$UCSORG
 10
0.0
 20
0.0
 30
0.0
  9
$UCSXDIR
 10
1.0
 20
0.0
 30
0.0
  9
$UCSYDIR
 10
0.0
 20
1.0
 30
0.0
  9
$UCSORTHOREF
  2

  9
$UCSORTHOVIEW
 70
     0
  9
$UCSORGTOP
 10
0.0
 20
0.0
 30
0.0
  9
$UCSORGBOTTOM
 10
0.0
 20
0.0
 30
0.0
  9
$UCSORGLEFT
 10
0.0
 20
0.0
 30
0.0
  9
$UCSORGRIGHT
 10
0.0
 20
0.0
 30
0.0
  9
$UCSORGFRONT
 10
0.0
 20
0.0
 30
0.0
  9
$UCSORGBACK
 10
0.0
 20
0.0
 30
0.0
  9
$PUCSBASE
  2

  9
$PUCSNAME
  2

  9
$PUCSORG
 10
0.0
 20
0.0
 30
0.0
  9
$PUCSXDIR
 10
1.0
 20
0.0
 30
0.0
  9
$PUCSYDIR
 10
0.0
 20
1.0
 30
0.0
  9
$PUCSORTHOREF
  2

  9
$PUCSORTHOVIEW
 70
     0
  9
$PUCSORGTOP
 10
0.0
 20
0.0
 30
0.0
  9
$PUCSORGBOTTOM
 10
0.0
 20
0.0
 30
0.0
  9
$PUCSORGLEFT
 10
0.0
 20
0.0
 30
0.0
  9
$PUCSORGRIGHT
 10
0.0
 20
0.0
 30
0.0
  9
$PUCSORGFRONT
 10
0.0
 20
0.0
 30
0.0
  9
$PUCSORGBACK
 10
0.0
 20
0.0
 30
0.0
  9
$USERI1
 70
     0
  9
$USERI2
 70
     0
  9
$USERI3
 70
     0
  9
$USERI4
 70
     0
  9
$USERI5
 70
     0
  9
$USERR1
 40
0.0
  9
$USERR2
 40
0.0
  9
$USERR3
 40
0.0
  9
$USERR4
 40
0.0
  9
$USERR5
 40
0.0
  9
$WORLDVIEW
 70
     1
  9
$SHADEDGE
 70
     3
  9
$SHADEDIF
 70
    70
  9
$TILEMODE
 70
     1
  9
$MAXACTVP
 70
    64
  9
$PINSBASE
 10
0.0
 20
0.0
 30
0.0
  9
$PLIMCHECK
 70
     0
  9
$PEXTMIN
 10
1.0000000000E+20
 20
1.0000000000E+20
 30
1.0000000000E+20
  9
$PEXTMAX
 10
-1.0000000000E+20
 20
-1.0000000000E+20
 30
-1.0000000000E+20
  9
$PLIMMIN
 10
0.0
 20
0.0
  9
$PLIMMAX
 10
420.0
 20
297.0
  9
$UNITMODE
 70
     0
  9
$VISRETAIN
 70
     1
  9
$PLINEGEN
 70
     0
  9
$PSLTSCALE
 70
     1
  9
$TREEDEPTH
 70
  3020
  9
$CMLSTYLE
  2
Standard
  9
$CMLJUST
 70
     0
  9
$CMLSCALE
 40
20.0
  9
$PROXYGRAPHICS
 70
     1
  9
$MEASUREMENT
 70
     1
  9
$CELWEIGHT
370
    -1
  9
$ENDCAPS
280
     0
  9
$JOINSTYLE
280
     0
  9
$LWDISPLAY
290
     1
  9
$INSUNITS
 70
     4
  9
$HYPERLINKBASE
  1

  9
$STYLESHEET
  1

  9
$XEDIT
290
     1
  9
$CEPSNTYPE
380
     0
  9
$PSTYLEMODE
290
     1
  9
$FINGERPRINTGUID
  2
{E2D6A6F4-7D8B-4903-956F-1EB67C522768}
  9
$VERSIONGUID
  2
{FAEB1C32-E019-11D5-929B-00C0DF256EC4}
  9
$EXTNAMES
290
     1
  9
$PSVPSCALE
 40
0.0
  9
$OLESTARTUP
290
     0
  0
ENDSEC
  0
SECTION
  2
CLASSES
  0
CLASS
  1
ACDBDICTIONARYWDFLT
  2
AcDbDictionaryWithDefault
  3
ObjectDBX Classes
 90
        0
280
     0
281
     0
  0
CLASS
  1
VISUALSTYLE
  2
AcDbVisualStyle
  3
ObjectDBX Classes
 90
     4095
280
     0
281
     0
  0
CLASS
  1
MATERIAL
  2
AcDbMaterial
  3
ObjectDBX Classes
 90
     1153
280
     0
281
     0
  0
CLASS
  1
SCALE
  2
AcDbScale
  3
ObjectDBX Classes
 90
     1153
280
     0
281
     0
  0
CLASS
  1
TABLESTYLE
  2
AcDbTableStyle
  3
ObjectDBX Classes
 90
     4095
280
     0
281
     0
  0
CLASS
  1
MLEADERSTYLE
  2
AcDbMLeaderStyle
  3
ACDB_MLEADERSTYLE_CLASS
 90
     4095
280
     0
281
     0
  0
CLASS
  1
SUN
  2
AcDbSun
  3
SCENEOE
 90
     1153
280
     0
281
     0
  0
CLASS
  1
ACDBPLACEHOLDER
  2
AcDbPlaceHolder
  3
ObjectDBX Classes
 90
        0
280
     0
281
     0
  0
CLASS
  1
LAYOUT
  2
AcDbLayout
  3
ObjectDBX Classes
 90
        0
280
     0
281
     0
  0
ENDSEC
  0
SECTION
  2
TABLES
  0
TABLE
  2
VPORT
  5
8
330
0
100
AcDbSymbolTable
 70
     1
  0
VPORT
  5
29
330
8
100
AcDbSymbolTableRecord
100
AcDbViewportTableRecord
  2
*Active
 70
     0
 10
0.0
 20
0.0
 11
1.0
 21
1.0
 12
1220.0
 22
610.0
 13
0.0
 23
0.0
 14
10.0
 24
10.0
 15
10.0
 25
10.0
 16
0.0
 26
0.0
 36
1.0
 17
0.0
 27
0.0
 37
0.0
 40
1220.0
 41
2.0
 42
50.0
 43
0.0
 44
0.0
 50
0.0
 51
0.0
 71
     0
 72
  2000
 73
     1
 74
     3
 75
     0
 76
     0
 77
     0
 78
     0
281
     0
 65
     1
110
0.0
120
0.0
130
0.0
111
1.0
121
0.0
131
0.0
112
0.0
122
1.0
132
0.0
 79
     0
146
0.0
  0
ENDTAB
  0
TABLE
  2
LTYPE
  5
5
330
0
100
AcDbSymbolTable
 70
     6
  0
LTYPE
  5
14
330
5
100
AcDbSymbolTableRecord
100
AcDbLinetypeTableRecord
  2
ByBlock
 70
     0
  3

 72
    65
 73
     0
 40
0.0
  0
LTYPE
  5
15
330
5
100
AcDbSymbolTableRecord
100
AcDbLinetypeTableRecord
  2
ByLayer
 70
     0
  3

 72
    65
 73
     0
 40
0.0
  0
LTYPE
  5
16
330
5
100
AcDbSymbolTableRecord
100
AcDbLinetypeTableRecord
  2
Continuous
 70
     0
  3
Solid line
 72
    65
 73
     0
 40
0.0
  0
LTYPE
  5
6E
330
5
100
AcDbSymbolTableRecord
100
AcDbLinetypeTableRecord
  2
HIDDEN
 70
     0
  3
Hidden __ __ __ __ __ __ __ __ __ __ __ __ __ __
 72
    65
 73
     2
 40
1.905
 49
1.27
 74
     0
 49
-0.635
 74
     0
  0
LTYPE
  5
6F
330
5
100
AcDbSymbolTableRecord
100
AcDbLinetypeTableRecord
  2
PHANTOM
 70
     0
  3
Phantom ______  __  __  ______  __  __  ______
 72
    65
 73
     6
 40
12.7
 49
6.35
 74
     0
 49
-1.27
 74
     0
 49
1.27
 74
     0
 49
-1.27
 74
     0
 49
1.27
 74
     0
 49
-1.27
 74
     0
  0
LTYPE
  5
70
330
5
100
AcDbSymbolTableRecord
100
AcDbLinetypeTableRecord
  2
CENTER
 70
     0
  3
Center ____ _ ____ _ ____ _ ____ _ ____ _ ____
 72
    65
 73
     4
 40
10.16
 49
6.35
 74
     0
 49
-1.27
 74
     0
 49
1.27
 74
     0
 49
-1.27
 74
     0
  0
LTYPE
  5
71
330
5
100
AcDbSymbolTableRecord
100
AcDbLinetypeTableRecord
  2
CENTERX2
 70
     0
  3
Center (2x) ________  __  ________  __  _____
 72
    65
 73
     4
 40
20.32
 49
12.7
 74
     0
 49
-2.54
 74
     0
 49
2.54
 74
     0
 49
-2.54
 74
     0
  0
LTYPE
  5
72
330
5
100
AcDbSymbolTableRecord
100
AcDbLinetypeTableRecord
  2
DOT2
 70
     0
  3
Dot (.5x) ........................................
 72
    65
 73
     2
 40
0.635
 49
0.0
 74
     0
 49
-0.635
 74
     0
  0
ENDTAB
  0
TABLE
  2
LAYER
  5
2
330
0
100
AcDbSymbolTable
 70
     1
  0
LAYER
  5
10
330
2
100
AcDbSymbolTableRecord
100
AcDbLayerTableRecord
  2
0
 70
     0
 62
     7
  6
Continuous
370
    -3
390
F
  0
ENDTAB
  0
TABLE
  2
STYLE
  5
3
330
0
100
AcDbSymbolTable
 70
     1
  0
STYLE
  5
11
330
3
100
AcDbSymbolTableRecord
100
AcDbTextStyleTableRecord
  2
Standard
 70
     0
 40
0.0
 41
1.0
 50
0.0
 71
     0
 42
3.5
  3
txt
  4

  0
ENDTAB
  0
TABLE
  2
VIEW
  5
6
330
0
100
AcDbSymbolTable
 70
     0
  0
ENDTAB
  0
TABLE
  2
UCS
  5
7
330
0
100
AcDbSymbolTable
 70
     0
  0
ENDTAB
  0
TABLE
  2
APPID
  5
9
330
0
100
AcDbSymbolTable
 70
     1
  0
APPID
  5
12
330
9
100
AcDbSymbolTableRecord
100
AcDbRegAppTableRecord
  2
ACAD
 70
     0
  0
ENDTAB
  0
TABLE
  2
DIMSTYLE
  5
A
330
0
100
AcDbSymbolTable
 70
     1
100
AcDbDimStyleTable
  0
DIMSTYLE
105
27
330
A
100
AcDbSymbolTableRecord
100
AcDbDimStyleTableRecord
  2
ISO-25
 70
     0
 41
2.5
 42
0.625
 43
3.75
 44
1.25
 73
     0
 74
     0
 77
     1
 78
     8
140
2.5
141
2.5
143
0.0393700787
147
0.625
171
     3
172
     1
178
     0
271
     2
272
     2
274
     3
278
    44
283
     0
284
     8
340
11
  0
ENDTAB
  0
TABLE
  2
BLOCK_RECORD
  5
1
330
0
100
AcDbSymbolTable
 70
     1
  0
BLOCK_RECORD
  5
1F
330
1
100
AcDbSymbolTableRecord
100
AcDbBlockTableRecord
  2
*Model_Space
340
22
  0
BLOCK_RECORD
  5
1B
330
1
100
AcDbSymbolTableRecord
100
AcDbBlockTableRecord
  2
*Paper_Space
340
1E
  0
BLOCK_RECORD
  5
23
330
1
100
AcDbSymbolTableRecord
100
AcDbBlockTableRecord
  2
*Paper_Space0
340
26
  0
ENDTAB
  0
ENDSEC
  0
SECTION
  2
BLOCKS
  0
BLOCK
  5
20
330
1F
100
AcDbEntity
  8
0
100
AcDbBlockBegin
  2
*Model_Space
 70
     0
 10
0.0
 20
0.0
 30
0.0
  3
*Model_Space
  1

  0
ENDBLK
  5
21
330
1F
100
AcDbEntity
  8
0
100
AcDbBlockEnd
  0
BLOCK
  5
1C
330
1B
100
AcDbEntity
 67
     1
  8
0
100
AcDbBlockBegin
  2
*Paper_Space
 70
     0
 10
0.0
 20
0.0
 30
0.0
  3
*Paper_Space
  1

  0
ENDBLK
  5
1D
330
1B
100
AcDbEntity
 67
     1
  8
0
100
AcDbBlockEnd
  0
BLOCK
  5
24
330
23
100
AcDbEntity
  8
0
100
AcDbBlockBegin
  2
*Paper_Space0
 70
     0
 10
0.0
 20
0.0
 30
0.0
  3
*Paper_Space0
  1

  0
ENDBLK
  5
25
330
23
100
AcDbEntity
  8
0
100
AcDbBlockEnd
  0
ENDSEC
  0
SECTION
  2
ENTITIES
  0
ARC
  5
73
330
1F
100
AcDbEntity
  8
0
  6
Continuous
 62
     7
370
    15
100
AcDbCircle
 10
1190.2091170062
 20
26.8315632228
 30
0.0
 40
7.0
100
AcDbArc
 50
270.0
 51
0.0
  0
LINE
  5
74
330
1F
100
AcDbEntity
  8
0
  6
Continuous
 62
     7
370
    15
100
AcDbLine
 10
1190.20913875
 20
19.8315641317
 30
0.0
 11
980.7740930308
 21
19.8315641317
 31
0.0
  0
ARC
  5
75
330
1F
100
AcDbEntity
  8
0
  6
Continuous
 62
     7
370
    15
100
AcDbCircle
 10
980.7741170062
 20
26.8315632228
 30
0.0
 40
7.0
100
AcDbArc
 50
180.0
 51
270.0
  0
LINE
  5
76
330
1F
100
AcDbEntity
  8
0
  6
Continuous
 62
     7
370
    15
100
AcDbLine
 10
973.7741235484
 20
26.8315634165
 30
0.0
 11
973.7741235484
 21
66.4603280309
 31
0.0
  0
ARC
  5
77
330
1F
100
AcDbEntity
  8
0
  6
Continuous
 62
     7
370
    15
100
AcDbCircle
 10
980.7741170062
 20
66.460326584
 30
0.0
 40
7.000000000000133
100
AcDbArc
 50
90.2359156769
 51
180.0
  0
LINE
  5
78
330
1F
100
AcDbEntity
  8
0
  6
Continuous
 62
     7
370
    15
100
AcDbLine
 10
1024.4709137668
 20
73.6403109912
 30
0.0
 11
980.7453039874
 21
73.460267711
 31
0.0
  0
ARC
  5
79
330
1F
100
AcDbEntity
  8
0
  6
Continuous
 62
     7
370
    15
100
AcDbCircle
 10
1027.2675948231
 20
76.0268354058
 30
0.0
 40
3.345000000000157
100
AcDbArc
 50
232.1026559738
 51
38.3312400867
  0
ARC
  5
7A
330
1F
100
AcDbEntity
  8
0
  6
Continuous
 62
     7
370
    15
100
AcDbCircle
 10
1030.8328670062
 20
78.8456754617
 30
0.0
 40
1.200000000000273
100
AcDbArc
 50
180.0
 51
218.3312400867
  0
LINE
  5
7B
330
1F
100
AcDbEntity
  8
0
  6
Continuous
 62
     7
370
    15
100
AcDbLine
 10
1029.6329144229
 20
80.8174478296
 30
0.0
 11
1029.6329144229
 21
78.8456740264
 31
0.0
  0
ARC
  5
7C
330
1F
100
AcDbEntity
  8
0
  6
Continuous
 62
     7
370
    15
100
AcDbCircle
 10
1030.8328670062
 20
80.8174509838
 30
0.0
 40
1.200000000000273
100
AcDbArc
 50
141.6687599133
 51
180.0
  0
ARC
  5
7D
330
1F
100
AcDbEntity
  8
0
  6
Continuous
 62
     7
370
    15
100
AcDbCircle
 10
1027.2675948231
 20
83.6362910397
 30
0.0
 40
3.345000000000157
100
AcDbArc
 50
321.6687599133
 51
127.8973440262
  0
ARC
  5
7E
330
1F
100
AcDbEntity
  8
0
  6
Continuous
 62
     7
370
    15
100
AcDbCircle
 10
1024.4758348404
 20
87.2228076225
 30
0.0
 40
1.20000000000007
100
AcDbArc
 50
269.7640843231
 51
307.8973440262
  0
LINE
  5
7F
330
1F
100
AcDbEntity
  8
0
  6
Continuous
 62
     7
370
    15
100
AcDbLine
 10
980.7453039874
 20
86.2028615955
 30
0.0
 11
1024.4709137668
 21
86.0228183154
 31
0.0
  0
ARC
  5
80
330
1F
100
AcDbEntity
  8
0
  6
Continuous
 62
     7
370
    15
100
AcDbCircle
 10
980.7741170062
 20
93.2027998615
 30
0.0
 40
7.0
100
AcDbArc
 50
180.0
 51
269.7640843231
  0
LINE
  5
81
330
1F
100
AcDbEntity
  8
0
  6
Continuous
 62
     7
370
    15
100
AcDbLine
 10
973.7741235484
 20
1126.9603016261
 30
0.0
 11
973.7741235484
 21
93.2028012756
 31
0.0
  0
LINE
  5
82
330
1F
100
AcDbEntity
  8
0
  6
Continuous
 62
     7
370
    15
100
AcDbLine
 10
980.7453039874
 20
1133.9602711085
 30
0.0
 11
1024.4709137668
 21
1134.1402771357
 31
0.0
  0
ARC
  5
83
330
1F
100
AcDbEntity
  8
0
  6
Continuous
 62
     7
370
    15
100
AcDbCircle
 10
1024.4758348404
 20
1132.940318823
 30
0.0
 40
1.20000000000025
100
AcDbArc
 50
52.1026559738
 51
90.2359156769
  0
ARC
  5
84
330
1F
100
AcDbEntity
  8
0
  6
Continuous
 62
     7
370
    15
100
AcDbCircle
 10
1024.4758348404
 20
1147.7228076225
 30
0.0
 40
1.199999999999891
100
AcDbArc
 50
269.7640843231
 51
307.8973440262
  0
LINE
  5
85
330
1F
100
AcDbEntity
  8
0
  6
Continuous
 62
     7
370
    15
100
AcDbLine
 10
1024.4709137668
 20
1146.5227844599
 30
0.0
 11
980.7453039874
 21
1146.7029096964
 31
0.0
  0
ARC
  5
86
330
1F
100
AcDbEntity
  8
0
  6
Continuous
 62
     7
370
    15
100
AcDbCircle
 10
980.7741170062
 20
1153.7027998615
 30
0.0
 40
7.000000000000446
100
AcDbArc
 50
180.0
 51
269.7640843231
  0
LINE
  5
87
330
1F
100
AcDbEntity
  8
0
  6
Continuous
 62
     7
370
    15
100
AcDbLine
 10
973.7741235484
 20
1193.3315040949
 30
0.0
 11
973.7741235484
 21
1153.7027599696
 31
0.0
  0
ARC
  5
88
330
1F
100
AcDbEntity
  8
0
  6
Continuous
 62
     7
370
    15
100
AcDbCircle
 10
980.7741170062
 20
1193.3315632228
 30
0.0
 40
7.0
100
AcDbArc
 50
90.0
 51
180.0
  0
LINE
  5
89
330
1F
100
AcDbEntity
  8
0
  6
Continuous
 62
     7
370
    15
100
AcDbLine
 10
1197.2091082324
 20
26.8315634165
 30
0.0
 11
1197.2091082324
 21
1193.3315040949
 31
0.0
  0
ARC
  5
8A
330
1F
100
AcDbEntity
  8
0
  6
Continuous
 62
     7
370
    15
100
AcDbCircle
 10
1030.8328670062
 20
1139.3456754617
 30
0.0
 40
1.200000000000273
100
AcDbArc
 50
180.0
 51
218.3312400867
  0
LINE
  5
8B
330
1F
100
AcDbEntity
  8
0
  6
Continuous
 62
     7
370
    15
100
AcDbLine
 10
1029.6329144229
 20
1139.3456699732
 30
0.0
 11
1029.6329144229
 21
1141.3173916224
 31
0.0
  0
ARC
  5
8C
330
1F
100
AcDbEntity
  8
0
  6
Continuous
 62
     7
370
    15
100
AcDbCircle
 10
1027.2675948231
 20
1136.5268354058
 30
0.0
 40
3.345000000000146
100
AcDbArc
 50
232.1026559738
 51
38.3312400867
  0
ARC
  5
8D
330
1F
100
AcDbEntity
  8
0
  6
Continuous
 62
     7
370
    15
100
AcDbCircle
 10
1027.2675948231
 20
1144.1362910397
 30
0.0
 40
3.345000000000146
100
AcDbArc
 50
321.6687599133
 51
127.8973440262
  0
ARC
  5
8E
330
1F
100
AcDbEntity
  8
0
  6
Continuous
 62
     7
370
    15
100
AcDbCircle
 10
980.7741170062
 20
1126.960326584
 30
0.0
 40
7.0
100
AcDbArc
 50
90.2359156769
 51
180.0
  0
ARC
  5
8F
330
1F
100
AcDbEntity
  8
0
  6
Continuous
 62
     7
370
    15
100
AcDbCircle
 10
1030.8328670062
 20
1141.3174509838
 30
0.0
 40
1.200000000000273
100
AcDbArc
 50
141.6687599133
 51
180.0
  0
LINE
  5
90
330
1F
100
AcDbEntity
  8
0
  6
Continuous
 62
     7
370
    15
100
AcDbLine
 10
1190.20913875
 20
1200.3315927867
 30
0.0
 11
980.7740930308
 21
1200.3315927867
 31
0.0
  0
ARC
  5
91
330
1F
100
AcDbEntity
  8
0
  6
Continuous
 62
     7
370
    15
100
AcDbCircle
 10
1024.4758348404
 20
72.440318823
 30
0.0
 40
1.199999999999857
100
AcDbArc
 50
52.1026559738
 51
90.2359156769
  0
ARC
  5
92
330
1F
100
AcDbEntity
  8
0
  6
Continuous
 62
     7
370
    15
100
AcDbCircle
 10
1190.2091170062
 20
1193.3315632228
 30
0.0
 40
7.0
100
AcDbArc
 50
0.0
 51
90.0
  0
ARC
  5
93
330
1F
100
AcDbEntity
  8
0
  6
Continuous
 62
     7
370
    15
100
AcDbCircle
 10
578.6216170062
 20
1193.3315632228
 30
0.0
 40
7.0
100
AcDbArc
 50
0.0
 51
90.0
  0
ARC
  5
94
330
1F
100
AcDbEntity
  8
0
  6
Continuous
 62
     7
370
    15
100
AcDbCircle
 10
578.6216170062
 20
26.8315632228
 30
0.0
 40
7.0
100
AcDbArc
 50
270.0
 51
0.0
  0
LINE
  5
95
330
1F
100
AcDbEntity
  8
0
  6
Continuous
 62
     7
370
    15
100
AcDbLine
 10
578.6216143359
 20
19.8315641317
 30
0.0
 11
369.1866282214
 21
19.8315641317
 31
0.0
  0
ARC
  5
96
330
1F
100
AcDbEntity
  8
0
  6
Continuous
 62
     7
370
    15
100
AcDbCircle
 10
369.1866170062
 20
26.8315632228
 30
0.0
 40
7.0
100
AcDbArc
 50
180.0
 51
270.0
  0
LINE
  5
97
330
1F
100
AcDbEntity
  8
0
  6
Continuous
 62
     7
370
    15
100
AcDbLine
 10
362.1866289367
 20
26.8315634165
 30
0.0
 11
362.1866289367
 21
66.4603280309
 31
0.0
  0
ARC
  5
98
330
1F
100
AcDbEntity
  8
0
  6
Continuous
 62
     7
370
    15
100
AcDbCircle
 10
369.1866170062
 20
66.460326584
 30
0.0
 40
7.000000000000133
100
AcDbArc
 50
90.2359156769
 51
180.0
  0
LINE
  5
99
330
1F
100
AcDbEntity
  8
0
  6
Continuous
 62
     7
370
    15
100
AcDbLine
 10
412.8833893527
 20
73.6403109912
 30
0.0
 11
369.1578093757
 21
73.460267711
 31
0.0
  0
ARC
  5
9A
330
1F
100
AcDbEntity
  8
0
  6
Continuous
 62
     7
370
    15
100
AcDbCircle
 10
412.8883348404
 20
72.440318823
 30
0.0
 40
1.199999999999905
100
AcDbArc
 50
52.1026559738
 51
90.2359156769
  0
ARC
  5
9B
330
1F
100
AcDbEntity
  8
0
  6
Continuous
 62
     7
370
    15
100
AcDbCircle
 10
415.6800948231
 20
76.0268354058
 30
0.0
 40
3.345000000000052
100
AcDbArc
 50
232.1026559738
 51
38.3312400867
  0
ARC
  5
9C
330
1F
100
AcDbEntity
  8
0
  6
Continuous
 62
     7
370
    15
100
AcDbCircle
 10
419.2453670062
 20
78.8456754617
 30
0.0
 40
1.200000000000043
100
AcDbArc
 50
180.0
 51
218.3312400867
  0
ARC
  5
9D
330
1F
100
AcDbEntity
  8
0
  6
Continuous
 62
     7
370
    15
100
AcDbCircle
 10
419.2453670062
 20
80.8174509838
 30
0.0
 40
1.200000000000043
100
AcDbArc
 50
141.6687599133
 51
180.0
  0
ARC
  5
9E
330
1F
100
AcDbEntity
  8
0
  6
Continuous
 62
     7
370
    15
100
AcDbCircle
 10
415.6800948231
 20
83.6362910397
 30
0.0
 40
3.345000000000052
100
AcDbArc
 50
321.6687599133
 51
127.8973440262
  0
ARC
  5
9F
330
1F
100
AcDbEntity
  8
0
  6
Continuous
 62
     7
370
    15
100
AcDbCircle
 10
412.8883348404
 20
87.2228076225
 30
0.0
 40
1.200000000000073
100
AcDbArc
 50
269.7640843231
 51
307.8973440262
  0
LINE
  5
A0
330
1F
100
AcDbEntity
  8
0
  6
Continuous
 62
     7
370
    15
100
AcDbLine
 10
369.1578093757
 20
86.2028615955
 30
0.0
 11
412.8833893527
 21
86.0228183154
 31
0.0
  0
ARC
  5
A1
330
1F
100
AcDbEntity
  8
0
  6
Continuous
 62
     7
370
    15
100
AcDbCircle
 10
369.1866170062
 20
93.2027998615
 30
0.0
 40
7.0
100
AcDbArc
 50
180.0
 51
269.7640843231
  0
LINE
  5
A2
330
1F
100
AcDbEntity
  8
0
  6
Continuous
 62
     7
370
    15
100
AcDbLine
 10
362.1866289367
 20
1126.9603016261
 30
0.0
 11
362.1866289367
 21
93.2028012756
 31
0.0
  0
ARC
  5
A3
330
1F
100
AcDbEntity
  8
0
  6
Continuous
 62
     7
370
    15
100
AcDbCircle
 10
369.1866170062
 20
1126.960326584
 30
0.0
 40
7.0
100
AcDbArc
 50
90.2359156769
 51
180.0
  0
LINE
  5
A4
330
1F
100
AcDbEntity
  8
0
  6
Continuous
 62
     7
370
    15
100
AcDbLine
 10
369.1578093757
 20
1133.9602711085
 30
0.0
 11
412.8833893527
 21
1134.1402771357
 31
0.0
  0
ARC
  5
A5
330
1F
100
AcDbEntity
  8
0
  6
Continuous
 62
     7
370
    15
100
AcDbCircle
 10
412.8883348404
 20
1132.940318823
 30
0.0
 40
1.20000000000032
100
AcDbArc
 50
52.1026559738
 51
90.2359156769
  0
ARC
  5
A6
330
1F
100
AcDbEntity
  8
0
  6
Continuous
 62
     7
370
    15
100
AcDbCircle
 10
415.6800948231
 20
1136.5268354058
 30
0.0
 40
3.344999999999971
100
AcDbArc
 50
232.1026559738
 51
38.3312400867
  0
ARC
  5
A7
330
1F
100
AcDbEntity
  8
0
  6
Continuous
 62
     7
370
    15
100
AcDbCircle
 10
419.2453670062
 20
1139.3456754617
 30
0.0
 40
1.200000000000183
100
AcDbArc
 50
180.0
 51
218.3312400867
  0
LINE
  5
A8
330
1F
100
AcDbEntity
  8
0
  6
Continuous
 62
     7
370
    15
100
AcDbLine
 10
418.0453602065
 20
1139.3456699732
 30
0.0
 11
418.0453602065
 21
1141.3173916224
 31
0.0
  0
ARC
  5
A9
330
1F
100
AcDbEntity
  8
0
  6
Continuous
 62
     7
370
    15
100
AcDbCircle
 10
419.2453670062
 20
1141.3174509838
 30
0.0
 40
1.199999999999875
100
AcDbArc
 50
141.6687599133
 51
180.0
  0
ARC
  5
AA
330
1F
100
AcDbEntity
  8
0
  6
Continuous
 62
     7
370
    15
100
AcDbCircle
 10
415.6800948231
 20
1144.1362910397
 30
0.0
 40
3.345000000000157
100
AcDbArc
 50
321.6687599133
 51
127.8973440262
  0
ARC
  5
AB
330
1F
100
AcDbEntity
  8
0
  6
Continuous
 62
     7
370
    15
100
AcDbCircle
 10
412.8883348404
 20
1147.7228076225
 30
0.0
 40
1.199999999999961
100
AcDbArc
 50
269.7640843231
 51
307.8973440262
  0
LINE
  5
AC
330
1F
100
AcDbEntity
  8
0
  6
Continuous
 62
     7
370
    15
100
AcDbLine
 10
412.8833893527
 20
1146.5227844599
 30
0.0
 11
369.1578093757
 21
1146.7029096964
 31
0.0
  0
ARC
  5
AD
330
1F
100
AcDbEntity
  8
0
  6
Continuous
 62
     7
370
    15
100
AcDbCircle
 10
369.1866170062
 20
1153.7027998615
 30
0.0
 40
7.000000000000446
100
AcDbArc
 50
180.0
 51
269.7640843231
  0
LINE
  5
AE
330
1F
100
AcDbEntity
  8
0
  6
Continuous
 62
     7
370
    15
100
AcDbLine
 10
362.1866289367
 20
1193.3315040949
 30
0.0
 11
362.1866289367
 21
1153.7027599696
 31
0.0
  0
ARC
  5
AF
330
1F
100
AcDbEntity
  8
0
  6
Continuous
 62
     7
370
    15
100
AcDbCircle
 10
369.1866170062
 20
1193.3315632228
 30
0.0
 40
7.0
100
AcDbArc
 50
90.0
 51
180.0
  0
LINE
  5
B0
330
1F
100
AcDbEntity
  8
0
  6
Continuous
 62
     7
370
    15
100
AcDbLine
 10
578.6216143359
 20
1200.3315927867
 30
0.0
 11
369.1866282214
 21
1200.3315927867
 31
0.0
  0
LINE
  5
B1
330
1F
100
AcDbEntity
  8
0
  6
Continuous
 62
     7
370
    15
100
AcDbLine
 10
585.621643423
 20
26.8315634165
 30
0.0
 11
585.621643423
 21
1193.3315040949
 31
0.0
  0
LINE
  5
B2
330
1F
100
AcDbEntity
  8
0
  6
Continuous
 62
     7
370
    15
100
AcDbLine
 10
418.0453602065
 20
80.8174478296
 30
0.0
 11
418.0453602065
 21
78.8456740264
 31
0.0
  0
LINE
  5
B3
330
1F
100
AcDbEntity
  8
0
  6
Continuous
 62
     7
370
    15
100
AcDbLine
 10
1466.4940718402
 20
547.7028133753
 30
0.0
 11
1466.4940718402
 21
672.4603416804
 31
0.0
  0
ARC
  5
B4
330
1F
100
AcDbEntity
  8
0
  6
Continuous
 62
     7
370
    15
100
AcDbCircle
 10
1415.792399172
 20
223.940318823
 30
0.0
 40
1.199999999999981
100
AcDbArc
 50
89.7640843231
 51
127.8973440262
  0
LINE
  5
B5
330
1F
100
AcDbEntity
  8
0
  6
Continuous
 62
     7
370
    15
100
AcDbLine
 10
1415.7973412265
 20
225.1403125409
 30
0.0
 11
1459.5229510058
 21
224.9602618102
 31
0.0
  0
LINE
  5
B6
330
1F
100
AcDbEntity
  8
0
  6
Continuous
 62
     7
370
    15
100
AcDbLine
 10
1459.5229510058
 20
86.2028615955
 30
0.0
 11
1415.7973412265
 21
86.0228183154
 31
0.0
  0
ARC
  5
B7
330
1F
100
AcDbEntity
  8
0
  6
Continuous
 62
     7
370
    15
100
AcDbCircle
 10
1415.792399172
 20
87.2228076225
 30
0.0
 40
1.200000000000003
100
AcDbArc
 50
232.1026559738
 51
270.2359156769
  0
ARC
  5
B8
330
1F
100
AcDbEntity
  8
0
  6
Continuous
 62
     7
370
    15
100
AcDbCircle
 10
1413.0006391893
 20
83.6362910397
 30
0.0
 40
3.345000000000095
100
AcDbArc
 50
52.1026559738
 51
218.3312400867
  0
ARC
  5
B9
330
1F
100
AcDbEntity
  8
0
  6
Continuous
 62
     7
370
    15
100
AcDbCircle
 10
1409.4353670062
 20
80.8174509838
 30
0.0
 40
1.200000000000045
100
AcDbArc
 50
0.0
 51
38.3312400867
  0
LINE
  5
BA
330
1F
100
AcDbEntity
  8
0
  6
Continuous
 62
     7
370
    15
100
AcDbLine
 10
1410.6353405704
 20
80.8174478296
 30
0.0
 11
1410.6353405704
 21
78.8456740264
 31
0.0
  0
ARC
  5
BB
330
1F
100
AcDbEntity
  8
0
  6
Continuous
 62
     7
370
    15
100
AcDbCircle
 10
1409.4353670062
 20
78.8456754617
 30
0.0
 40
1.200000000000045
100
AcDbArc
 50
321.6687599133
 51
0.0
  0
ARC
  5
BC
330
1F
100
AcDbEntity
  8
0
  6
Continuous
 62
     7
370
    15
100
AcDbCircle
 10
1413.0006391893
 20
76.0268354058
 30
0.0
 40
3.345000000000104
100
AcDbArc
 50
141.6687599133
 51
307.8973440262
  0
LINE
  5
BD
330
1F
100
AcDbEntity
  8
0
  6
Continuous
 62
     7
370
    15
100
AcDbLine
 10
1415.7973412265
 20
73.6403109912
 30
0.0
 11
1459.5229510058
 21
73.460267711
 31
0.0
  0
LINE
  5
BE
330
1F
100
AcDbEntity
  8
0
  6
Continuous
 62
     7
370
    15
100
AcDbLine
 10
1466.4940718402
 20
26.8315634165
 30
0.0
 11
1466.4940718402
 21
66.4603280309
 31
0.0
  0
LINE
  5
BF
330
1F
100
AcDbEntity
  8
0
  6
Continuous
 62
     7
370
    15
100
AcDbLine
 10
1250.0591162433
 20
19.8315641317
 30
0.0
 11
1459.4941023578
 21
19.8315641317
 31
0.0
  0
LINE
  5
C0
330
1F
100
AcDbEntity
  8
0
  6
Continuous
 62
     7
370
    15
100
AcDbLine
 10
1293.7558773746
 20
73.6403109912
 30
0.0
 11
1250.0302675952
 21
73.460267711
 31
0.0
  0
ARC
  5
C1
330
1F
100
AcDbEntity
  8
0
  6
Continuous
 62
     7
370
    15
100
AcDbCircle
 10
1293.7608348404
 20
72.440318823
 30
0.0
 40
1.200000000000154
100
AcDbArc
 50
52.1026559738
 51
90.2359156769
  0
ARC
  5
C2
330
1F
100
AcDbEntity
  8
0
  6
Continuous
 62
     7
370
    15
100
AcDbCircle
 10
1300.1178670062
 20
78.8456754617
 30
0.0
 40
1.199999999999954
100
AcDbArc
 50
180.0
 51
218.3312400867
  0
LINE
  5
C3
330
1F
100
AcDbEntity
  8
0
  6
Continuous
 62
     7
370
    15
100
AcDbLine
 10
1298.9178780307
 20
80.8174478296
 30
0.0
 11
1298.9178780307
 21
78.8456740264
 31
0.0
  0
ARC
  5
C4
330
1F
100
AcDbEntity
  8
0
  6
Continuous
 62
     7
370
    15
100
AcDbCircle
 10
1300.1178670062
 20
80.8174509838
 30
0.0
 40
1.199999999999963
100
AcDbArc
 50
141.6687599133
 51
180.0
  0
ARC
  5
C5
330
1F
100
AcDbEntity
  8
0
  6
Continuous
 62
     7
370
    15
100
AcDbCircle
 10
1293.7608348404
 20
87.2228076225
 30
0.0
 40
1.200000000000143
100
AcDbArc
 50
269.7640843231
 51
307.8973440262
  0
LINE
  5
C6
330
1F
100
AcDbEntity
  8
0
  6
Continuous
 62
     7
370
    15
100
AcDbLine
 10
1243.0591467609
 20
66.4603280309
 30
0.0
 11
1243.0591467609
 21
26.8315634165
 31
0.0
  0
LINE
  5
C7
330
1F
100
AcDbEntity
  8
0
  6
Continuous
 62
     7
370
    15
100
AcDbLine
 10
1243.0591467609
 20
1126.9603016261
 30
0.0
 11
1243.0591467609
 21
93.2028012756
 31
0.0
  0
ARC
  5
C8
330
1F
100
AcDbEntity
  8
0
  6
Continuous
 62
     7
370
    15
100
AcDbCircle
 10
1413.0006391893
 20
227.5268354058
 30
0.0
 40
3.345000000000034
100
AcDbArc
 50
141.6687599133
 51
307.8973440262
  0
LINE
  5
C9
330
1F
100
AcDbEntity
  8
0
  6
Continuous
 62
     7
370
    15
100
AcDbLine
 10
1466.4940718402
 20
244.7027953747
 30
0.0
 11
1466.4940718402
 21
369.460338581
 31
0.0
  0
LINE
  5
CA
330
1F
100
AcDbEntity
  8
0
  6
Continuous
 62
     7
370
    15
100
AcDbLine
 10
1466.4940718402
 20
396.2027969245
 30
0.0
 11
1466.4940718402
 21
520.9603550318
 31
0.0
  0
LINE
  5
CB
330
1F
100
AcDbEntity
  8
0
  6
Continuous
 62
     7
370
    15
100
AcDbLine
 10
1250.0302675952
 20
86.2028615955
 30
0.0
 11
1293.7558773746
 21
86.0228183154
 31
0.0
  0
ARC
  5
CC
330
1F
100
AcDbEntity
  8
0
  6
Continuous
 62
     7
370
    15
100
AcDbCircle
 10
1296.5525948231
 20
76.0268354058
 30
0.0
 40
3.345000000000104
100
AcDbArc
 50
232.1026559738
 51
38.3312400867
  0
ARC
  5
CD
330
1F
100
AcDbEntity
  8
0
  6
Continuous
 62
     7
370
    15
100
AcDbCircle
 10
1415.792399172
 20
72.440318823
 30
0.0
 40
1.200000000000071
100
AcDbArc
 50
89.7640843231
 51
127.8973440262
  0
LINE
  5
CE
330
1F
100
AcDbEntity
  8
0
  6
Continuous
 62
     7
370
    15
100
AcDbLine
 10
1466.4940718402
 20
93.2028012756
 30
0.0
 11
1466.4940718402
 21
217.9603221301
 31
0.0
  0
ARC
  5
CF
330
1F
100
AcDbEntity
  8
0
  6
Continuous
 62
     7
370
    15
100
AcDbCircle
 10
1296.5525948231
 20
83.6362910397
 30
0.0
 40
3.345000000000095
100
AcDbArc
 50
321.6687599133
 51
127.8973440262
  0
LINE
  5
D0
330
1F
100
AcDbEntity
  8
0
  6
Continuous
 62
     7
370
    15
100
AcDbLine
 10
1459.5229510058
 20
1133.9602711085
 30
0.0
 11
1415.7973412265
 21
1134.1402771357
 31
0.0
  0
ARC
  5
D1
330
1F
100
AcDbEntity
  8
0
  6
Continuous
 62
     7
370
    15
100
AcDbCircle
 10
1415.792399172
 20
1132.940318823
 30
0.0
 40
1.20000000000025
100
AcDbArc
 50
89.7640843231
 51
127.8973440262
  0
ARC
  5
D2
330
1F
100
AcDbEntity
  8
0
  6
Continuous
 62
     7
370
    15
100
AcDbCircle
 10
1413.0006391893
 20
1136.5268354058
 30
0.0
 40
3.345000000000006
100
AcDbArc
 50
141.6687599133
 51
307.8973440262
  0
ARC
  5
D3
330
1F
100
AcDbEntity
  8
0
  6
Continuous
 62
     7
370
    15
100
AcDbCircle
 10
1409.4353670062
 20
1139.3456754617
 30
0.0
 40
1.200000000000183
100
AcDbArc
 50
321.6687599133
 51
0.0
  0
LINE
  5
D4
330
1F
100
AcDbEntity
  8
0
  6
Continuous
 62
     7
370
    15
100
AcDbLine
 10
1410.6353405704
 20
1139.3456699732
 30
0.0
 11
1410.6353405704
 21
1141.3173916224
 31
0.0
  0
ARC
  5
D5
330
1F
100
AcDbEntity
  8
0
  6
Continuous
 62
     7
370
    15
100
AcDbCircle
 10
1409.4353670062
 20
1141.3174509838
 30
0.0
 40
1.200000000000045
100
AcDbArc
 50
0.0
 51
38.3312400867
  0
ARC
  5
D6
330
1F
100
AcDbEntity
  8
0
  6
Continuous
 62
     7
370
    15
100
AcDbCircle
 10
1413.0006391893
 20
1144.1362910397
 30
0.0
 40
3.345000000000157
100
AcDbArc
 50
52.1026559738
 51
218.3312400867
  0
ARC
  5
D7
330
1F
100
AcDbEntity
  8
0
  6
Continuous
 62
     7
370
    15
100
AcDbCircle
 10
1415.792399172
 20
1147.7228076225
 30
0.0
 40
1.199999999999891
100
AcDbArc
 50
232.1026559738
 51
270.2359156769
  0
LINE
  5
D8
330
1F
100
AcDbEntity
  8
0
  6
Continuous
 62
     7
370
    15
100
AcDbLine
 10
1415.7973412265
 20
1146.5227844599
 30
0.0
 11
1459.5229510058
 21
1146.7029096964
 31
0.0
  0
LINE
  5
D9
330
1F
100
AcDbEntity
  8
0
  6
Continuous
 62
     7
370
    15
100
AcDbLine
 10
1250.0591162433
 20
1200.3315927867
 30
0.0
 11
1459.4941023578
 21
1200.3315927867
 31
0.0
  0
LINE
  5
DA
330
1F
100
AcDbEntity
  8
0
  6
Continuous
 62
     7
370
    15
100
AcDbLine
 10
1466.4940718402
 20
1193.3315040949
 30
0.0
 11
1466.4940718402
 21
1153.7027599696
 31
0.0
  0
LINE
  5
DB
330
1F
100
AcDbEntity
  8
0
  6
Continuous
 62
     7
370
    15
100
AcDbLine
 10
1466.4940718402
 20
1126.9603016261
 30
0.0
 11
1466.4940718402
 21
1002.202773321
 31
0.0
  0
LINE
  5
DC
330
1F
100
AcDbEntity
  8
0
  6
Continuous
 62
     7
370
    15
100
AcDbLine
 10
1466.4940718402
 20
975.4603149775
 30
0.0
 11
1466.4940718402
 21
850.7027866725
 31
0.0
  0
LINE
  5
DD
330
1F
100
AcDbEntity
  8
0
  6
Continuous
 62
     7
370
    15
100
AcDbLine
 10
1466.4940718402
 20
823.960328329
 30
0.0
 11
1466.4940718402
 21
699.2028000239
 31
0.0
  0
ARC
  5
DE
330
1F
100
AcDbEntity
  8
0
  6
Continuous
 62
     7
370
    15
100
AcDbCircle
 10
1459.4941170062
 20
26.8315632228
 30
0.0
 40
7.000000000000007
100
AcDbArc
 50
270.0
 51
0.0
  0
ARC
  5
DF
330
1F
100
AcDbEntity
  8
0
  6
Continuous
 62
     7
370
    15
100
AcDbCircle
 10
1459.4941170062
 20
66.460326584
 30
0.0
 40
7.00000000000002
100
AcDbArc
 50
0.0
 51
89.7640843231
  0
LINE
  5
E0
330
1F
100
AcDbEntity
  8
0
  6
Continuous
 62
     7
370
    15
100
AcDbLine
 10
1459.5229510058
 20
540.7028438929
 30
0.0
 11
1415.7973412265
 21
540.5228378657
 31
0.0
  0
ARC
  5
E1
330
1F
100
AcDbEntity
  8
0
  6
Continuous
 62
     7
370
    15
100
AcDbCircle
 10
1415.792399172
 20
541.7228076225
 30
0.0
 40
1.200000000000028
100
AcDbArc
 50
232.1026559738
 51
270.2359156769
  0
ARC
  5
E2
330
1F
100
AcDbEntity
  8
0
  6
Continuous
 62
     7
370
    15
100
AcDbCircle
 10
1413.0006391893
 20
538.1362910397
 30
0.0
 40
3.345000000000016
100
AcDbArc
 50
52.1026559738
 51
218.3312400867
  0
ARC
  5
E3
330
1F
100
AcDbEntity
  8
0
  6
Continuous
 62
     7
370
    15
100
AcDbCircle
 10
1409.4353670062
 20
535.3174509838
 30
0.0
 40
1.200000000000045
100
AcDbArc
 50
0.0
 51
38.3312400867
  0
LINE
  5
E4
330
1F
100
AcDbEntity
  8
0
  6
Continuous
 62
     7
370
    15
100
AcDbLine
 10
1410.6353405704
 20
535.3174450282
 30
0.0
 11
1410.6353405704
 21
533.3456637744
 31
0.0
  0
ARC
  5
E5
330
1F
100
AcDbEntity
  8
0
  6
Continuous
 62
     7
370
    15
100
AcDbCircle
 10
1409.4353670062
 20
533.3456754617
 30
0.0
 40
1.200000000000045
100
AcDbArc
 50
321.6687599133
 51
0.0
  0
ARC
  5
E6
330
1F
100
AcDbEntity
  8
0
  6
Continuous
 62
     7
370
    15
100
AcDbCircle
 10
1413.0006391893
 20
530.5268354058
 30
0.0
 40
3.345000000000016
100
AcDbArc
 50
141.6687599133
 51
307.8973440262
  0
ARC
  5
E7
330
1F
100
AcDbEntity
  8
0
  6
Continuous
 62
     7
370
    15
100
AcDbCircle
 10
1415.792399172
 20
526.940318823
 30
0.0
 40
1.200000000000028
100
AcDbArc
 50
89.7640843231
 51
127.8973440262
  0
LINE
  5
E8
330
1F
100
AcDbEntity
  8
0
  6
Continuous
 62
     7
370
    15
100
AcDbLine
 10
1415.7973412265
 20
528.1403305415
 30
0.0
 11
1459.5229510058
 21
527.9602649096
 31
0.0
  0
LINE
  5
E9
330
1F
100
AcDbEntity
  8
0
  6
Continuous
 62
     7
370
    15
100
AcDbLine
 10
1459.5229510058
 20
389.2028572444
 30
0.0
 11
1415.7973412265
 21
389.0228214148
 31
0.0
  0
ARC
  5
EA
330
1F
100
AcDbEntity
  8
0
  6
Continuous
 62
     7
370
    15
100
AcDbCircle
 10
1415.792399172
 20
390.2228076225
 30
0.0
 40
1.200000000000028
100
AcDbArc
 50
232.1026559738
 51
270.2359156769
  0
ARC
  5
EB
330
1F
100
AcDbEntity
  8
0
  6
Continuous
 62
     7
370
    15
100
AcDbCircle
 10
1413.0006391893
 20
386.6362910397
 30
0.0
 40
3.345000000000121
100
AcDbArc
 50
52.1026559738
 51
218.3312400867
  0
ARC
  5
EC
330
1F
100
AcDbEntity
  8
0
  6
Continuous
 62
     7
370
    15
100
AcDbCircle
 10
1409.4353670062
 20
383.8174509838
 30
0.0
 40
1.200000000000045
100
AcDbArc
 50
0.0
 51
38.3312400867
  0
LINE
  5
ED
330
1F
100
AcDbEntity
  8
0
  6
Continuous
 62
     7
370
    15
100
AcDbLine
 10
1410.6353405704
 20
383.8174583796
 30
0.0
 11
1410.6353405704
 21
381.8456771258
 31
0.0
  0
ARC
  5
EE
330
1F
100
AcDbEntity
  8
0
  6
Continuous
 62
     7
370
    15
100
AcDbCircle
 10
1409.4353670062
 20
381.8456754617
 30
0.0
 40
1.200000000000045
100
AcDbArc
 50
321.6687599133
 51
0.0
  0
ARC
  5
EF
330
1F
100
AcDbEntity
  8
0
  6
Continuous
 62
     7
370
    15
100
AcDbCircle
 10
1413.0006391893
 20
379.0268354058
 30
0.0
 40
3.345000000000086
100
AcDbArc
 50
141.6687599133
 51
307.8973440262
  0
ARC
  5
F0
330
1F
100
AcDbEntity
  8
0
  6
Continuous
 62
     7
370
    15
100
AcDbCircle
 10
1415.792399172
 20
375.440318823
 30
0.0
 40
1.200000000000028
100
AcDbArc
 50
89.7640843231
 51
127.8973440262
  0
LINE
  5
F1
330
1F
100
AcDbEntity
  8
0
  6
Continuous
 62
     7
370
    15
100
AcDbLine
 10
1415.7973412265
 20
376.6403140906
 30
0.0
 11
1459.5229510058
 21
376.460278261
 31
0.0
  0
LINE
  5
F2
330
1F
100
AcDbEntity
  8
0
  6
Continuous
 62
     7
370
    15
100
AcDbLine
 10
1459.5229510058
 20
237.7028556946
 30
0.0
 11
1415.7973412265
 21
237.5228198651
 31
0.0
  0
ARC
  5
F3
330
1F
100
AcDbEntity
  8
0
  6
Continuous
 62
     7
370
    15
100
AcDbCircle
 10
1415.792399172
 20
238.7228076225
 30
0.0
 40
1.200000000000028
100
AcDbArc
 50
232.1026559738
 51
270.2359156769
  0
ARC
  5
F4
330
1F
100
AcDbEntity
  8
0
  6
Continuous
 62
     7
370
    15
100
AcDbCircle
 10
1413.0006391893
 20
235.1362910397
 30
0.0
 40
3.345000000000104
100
AcDbArc
 50
52.1026559738
 51
218.3312400867
  0
ARC
  5
F5
330
1F
100
AcDbEntity
  8
0
  6
Continuous
 62
     7
370
    15
100
AcDbCircle
 10
1409.4353670062
 20
232.3174509838
 30
0.0
 40
1.200000000000045
100
AcDbArc
 50
0.0
 51
38.3312400867
  0
LINE
  5
F6
330
1F
100
AcDbEntity
  8
0
  6
Continuous
 62
     7
370
    15
100
AcDbLine
 10
1410.6353405704
 20
232.3174568299
 30
0.0
 11
1410.6353405704
 21
230.3456755761
 31
0.0
  0
ARC
  5
F7
330
1F
100
AcDbEntity
  8
0
  6
Continuous
 62
     7
370
    15
100
AcDbCircle
 10
1409.4353670062
 20
230.3456754617
 30
0.0
 40
1.200000000000045
100
AcDbArc
 50
321.6687599133
 51
0.0
  0
ARC
  5
F8
330
1F
100
AcDbEntity
  8
0
  6
Continuous
 62
     7
370
    15
100
AcDbCircle
 10
1296.5525948231
 20
1144.1362910397
 30
0.0
 40
3.345000000000157
100
AcDbArc
 50
321.6687599133
 51
127.8973440262
  0
ARC
  5
F9
330
1F
100
AcDbEntity
  8
0
  6
Continuous
 62
     7
370
    15
100
AcDbCircle
 10
1300.1178670062
 20
1141.3174509838
 30
0.0
 40
1.199999999999818
100
AcDbArc
 50
141.6687599133
 51
180.0
  0
LINE
  5
FA
330
1F
100
AcDbEntity
  8
0
  6
Continuous
 62
     7
370
    15
100
AcDbLine
 10
1298.9178780307
 20
1139.3456699732
 30
0.0
 11
1298.9178780307
 21
1141.3173916224
 31
0.0
  0
ARC
  5
FB
330
1F
100
AcDbEntity
  8
0
  6
Continuous
 62
     7
370
    15
100
AcDbCircle
 10
1300.1178670062
 20
1139.3456754617
 30
0.0
 40
1.200000000000183
100
AcDbArc
 50
180.0
 51
218.3312400867
  0
ARC
  5
FC
330
1F
100
AcDbEntity
  8
0
  6
Continuous
 62
     7
370
    15
100
AcDbCircle
 10
1296.5525948231
 20
1136.5268354058
 30
0.0
 40
3.344999999999867
100
AcDbArc
 50
232.1026559738
 51
38.3312400867
  0
ARC
  5
FD
330
1F
100
AcDbEntity
  8
0
  6
Continuous
 62
     7
370
    15
100
AcDbCircle
 10
1293.7608348404
 20
1132.940318823
 30
0.0
 40
1.20000000000039
100
AcDbArc
 50
52.1026559738
 51
90.2359156769
  0
LINE
  5
FE
330
1F
100
AcDbEntity
  8
0
  6
Continuous
 62
     7
370
    15
100
AcDbLine
 10
1250.0302675952
 20
1133.9602711085
 30
0.0
 11
1293.7558773746
 21
1134.1402771357
 31
0.0
  0
ARC
  5
FF
330
1F
100
AcDbEntity
  8
0
  6
Continuous
 62
     7
370
    15
100
AcDbCircle
 10
1415.792399172
 20
693.2228076225
 30
0.0
 40
1.199999999999914
100
AcDbArc
 50
232.1026559738
 51
270.2359156769
  0
LINE
  5
100
330
1F
100
AcDbEntity
  8
0
  6
Continuous
 62
     7
370
    15
100
AcDbLine
 10
1415.7973412265
 20
692.0228245143
 30
0.0
 11
1459.5229510058
 21
692.2028305415
 31
0.0
  0
ARC
  5
101
330
1F
100
AcDbEntity
  8
0
  6
Continuous
 62
     7
370
    15
100
AcDbCircle
 10
1415.792399172
 20
829.940318823
 30
0.0
 40
1.199999999999981
100
AcDbArc
 50
89.7640843231
 51
127.8973440262
  0
ARC
  5
102
330
1F
100
AcDbEntity
  8
0
  6
Continuous
 62
     7
370
    15
100
AcDbCircle
 10
1413.0006391893
 20
833.5268354058
 30
0.0
 40
3.345000000000086
100
AcDbArc
 50
141.6687599133
 51
307.8973440262
  0
ARC
  5
103
330
1F
100
AcDbEntity
  8
0
  6
Continuous
 62
     7
370
    15
100
AcDbCircle
 10
1409.4353670062
 20
836.3456754617
 30
0.0
 40
1.200000000000045
100
AcDbArc
 50
321.6687599133
 51
0.0
  0
LINE
  5
104
330
1F
100
AcDbEntity
  8
0
  6
Continuous
 62
     7
370
    15
100
AcDbLine
 10
1410.6353405704
 20
836.3456966761
 30
0.0
 11
1410.6353405704
 21
838.3174779299
 31
0.0
  0
ARC
  5
105
330
1F
100
AcDbEntity
  8
0
  6
Continuous
 62
     7
370
    15
100
AcDbCircle
 10
1409.4353670062
 20
838.3174509838
 30
0.0
 40
1.200000000000045
100
AcDbArc
 50
0.0
 51
38.3312400867
  0
ARC
  5
106
330
1F
100
AcDbEntity
  8
0
  6
Continuous
 62
     7
370
    15
100
AcDbCircle
 10
1413.0006391893
 20
841.1362910397
 30
0.0
 40
3.345000000000157
100
AcDbArc
 50
52.1026559738
 51
218.3312400867
  0
ARC
  5
107
330
1F
100
AcDbEntity
  8
0
  6
Continuous
 62
     7
370
    15
100
AcDbCircle
 10
1459.4941170062
 20
1193.3315632228
 30
0.0
 40
7.0
100
AcDbArc
 50
0.0
 51
90.0
  0
ARC
  5
108
330
1F
100
AcDbEntity
  8
0
  6
Continuous
 62
     7
370
    15
100
AcDbCircle
 10
1459.4941170062
 20
1153.7027998615
 30
0.0
 40
7.000000000000446
100
AcDbArc
 50
270.2359156769
 51
0.0
  0
ARC
  5
109
330
1F
100
AcDbEntity
  8
0
  6
Continuous
 62
     7
370
    15
100
AcDbCircle
 10
1459.4941170062
 20
1002.2027998615
 30
0.0
 40
7.0
100
AcDbArc
 50
270.2359156769
 51
0.0
  0
ARC
  5
10A
330
1F
100
AcDbEntity
  8
0
  6
Continuous
 62
     7
370
    15
100
AcDbCircle
 10
1459.4941170062
 20
850.7027998615
 30
0.0
 40
7.0
100
AcDbArc
 50
270.2359156769
 51
0.0
  0
ARC
  5
10B
330
1F
100
AcDbEntity
  8
0
  6
Continuous
 62
     7
370
    15
100
AcDbCircle
 10
1459.4941170062
 20
699.2027998615
 30
0.0
 40
7.0
100
AcDbArc
 50
270.2359156769
 51
0.0
  0
ARC
  5
10C
330
1F
100
AcDbEntity
  8
0
  6
Continuous
 62
     7
370
    15
100
AcDbCircle
 10
1250.0591170062
 20
1153.7027998615
 30
0.0
 40
7.000000000000447
100
AcDbArc
 50
180.0
 51
269.7640843231
  0
ARC
  5
10D
330
1F
100
AcDbEntity
  8
0
  6
Continuous
 62
     7
370
    15
100
AcDbCircle
 10
1250.0591170062
 20
1193.3315632228
 30
0.0
 40
7.000000000000227
100
AcDbArc
 50
90.0
 51
180.0
  0
ARC
  5
10E
330
1F
100
AcDbEntity
  8
0
  6
Continuous
 62
     7
370
    15
100
AcDbCircle
 10
1459.4941170062
 20
975.460326584
 30
0.0
 40
7.0
100
AcDbArc
 50
0.0
 51
89.7640843231
  0
ARC
  5
10F
330
1F
100
AcDbEntity
  8
0
  6
Continuous
 62
     7
370
    15
100
AcDbCircle
 10
1459.4941170062
 20
823.960326584
 30
0.0
 40
7.000000000000218
100
AcDbArc
 50
0.0
 51
89.7640843231
  0
ARC
  5
110
330
1F
100
AcDbEntity
  8
0
  6
Continuous
 62
     7
370
    15
100
AcDbCircle
 10
1459.4941170062
 20
672.460326584
 30
0.0
 40
7.0
100
AcDbArc
 50
0.0
 51
89.7640843231
  0
ARC
  5
111
330
1F
100
AcDbEntity
  8
0
  6
Continuous
 62
     7
370
    15
100
AcDbCircle
 10
1459.4941170062
 20
1126.960326584
 30
0.0
 40
7.0
100
AcDbArc
 50
0.0
 51
89.7640843231
  0
ARC
  5
112
330
1F
100
AcDbEntity
  8
0
  6
Continuous
 62
     7
370
    15
100
AcDbCircle
 10
1250.0591170062
 20
1126.960326584
 30
0.0
 40
7.000000000000227
100
AcDbArc
 50
90.2359156769
 51
180.0
  0
LINE
  5
113
330
1F
100
AcDbEntity
  8
0
  6
Continuous
 62
     7
370
    15
100
AcDbLine
 10
1459.5229510058
 20
679.4602515582
 30
0.0
 11
1415.7973412265
 21
679.64031719
 31
0.0
  0
ARC
  5
114
330
1F
100
AcDbEntity
  8
0
  6
Continuous
 62
     7
370
    15
100
AcDbCircle
 10
1415.792399172
 20
678.440318823
 30
0.0
 40
1.199999999999914
100
AcDbArc
 50
89.7640843231
 51
127.8973440262
  0
ARC
  5
115
330
1F
100
AcDbEntity
  8
0
  6
Continuous
 62
     7
370
    15
100
AcDbCircle
 10
1413.0006391893
 20
682.0268354058
 30
0.0
 40
3.345000000000086
100
AcDbArc
 50
141.6687599133
 51
307.8973440262
  0
ARC
  5
116
330
1F
100
AcDbEntity
  8
0
  6
Continuous
 62
     7
370
    15
100
AcDbCircle
 10
1409.4353670062
 20
684.8456754617
 30
0.0
 40
1.200000000000045
100
AcDbArc
 50
321.6687599133
 51
0.0
  0
LINE
  5
117
330
1F
100
AcDbEntity
  8
0
  6
Continuous
 62
     7
370
    15
100
AcDbLine
 10
1410.6353405704
 20
684.8456504229
 30
0.0
 11
1410.6353405704
 21
686.8174316767
 31
0.0
  0
ARC
  5
118
330
1F
100
AcDbEntity
  8
0
  6
Continuous
 62
     7
370
    15
100
AcDbCircle
 10
1409.4353670062
 20
686.8174509838
 30
0.0
 40
1.200000000000045
100
AcDbArc
 50
0.0
 51
38.3312400867
  0
ARC
  5
119
330
1F
100
AcDbEntity
  8
0
  6
Continuous
 62
     7
370
    15
100
AcDbCircle
 10
1413.0006391893
 20
689.6362910397
 30
0.0
 40
3.345000000000016
100
AcDbArc
 50
52.1026559738
 51
218.3312400867
  0
ARC
  5
11A
330
1F
100
AcDbEntity
  8
0
  6
Continuous
 62
     7
370
    15
100
AcDbCircle
 10
1409.4353670062
 20
987.8456754617
 30
0.0
 40
1.200000000000045
100
AcDbArc
 50
321.6687599133
 51
0.0
  0
LINE
  5
11B
330
1F
100
AcDbEntity
  8
0
  6
Continuous
 62
     7
370
    15
100
AcDbLine
 10
1410.6353405704
 20
987.8456833247
 30
0.0
 11
1410.6353405704
 21
989.8174645785
 31
0.0
  0
LINE
  5
11C
330
1F
100
AcDbEntity
  8
0
  6
Continuous
 62
     7
370
    15
100
AcDbLine
 10
1459.5229510058
 20
830.9602382067
 30
0.0
 11
1415.7973412265
 21
831.1403038386
 31
0.0
  0
ARC
  5
11D
330
1F
100
AcDbEntity
  8
0
  6
Continuous
 62
     7
370
    15
100
AcDbCircle
 10
1413.0006391893
 20
992.6362910397
 30
0.0
 40
3.345000000000016
100
AcDbArc
 50
52.1026559738
 51
218.3312400867
  0
ARC
  5
11E
330
1F
100
AcDbEntity
  8
0
  6
Continuous
 62
     7
370
    15
100
AcDbCircle
 10
1415.792399172
 20
996.2228076225
 30
0.0
 40
1.200000000000071
100
AcDbArc
 50
232.1026559738
 51
270.2359156769
  0
LINE
  5
11F
330
1F
100
AcDbEntity
  8
0
  6
Continuous
 62
     7
370
    15
100
AcDbLine
 10
1293.7558773746
 20
1146.5227844599
 30
0.0
 11
1250.0302675952
 21
1146.7029096964
 31
0.0
  0
ARC
  5
120
330
1F
100
AcDbEntity
  8
0
  6
Continuous
 62
     7
370
    15
100
AcDbCircle
 10
1293.7608348404
 20
1147.7228076225
 30
0.0
 40
1.200000000000031
100
AcDbArc
 50
269.7640843231
 51
307.8973440262
  0
ARC
  5
121
330
1F
100
AcDbEntity
  8
0
  6
Continuous
 62
     7
370
    15
100
AcDbCircle
 10
1250.0591170062
 20
26.8315632228
 30
0.0
 40
7.000000000000227
100
AcDbArc
 50
180.0
 51
270.0
  0
ARC
  5
122
330
1F
100
AcDbEntity
  8
0
  6
Continuous
 62
     7
370
    15
100
AcDbCircle
 10
1415.792399172
 20
844.7228076225
 30
0.0
 40
1.200000000000028
100
AcDbArc
 50
232.1026559738
 51
270.2359156769
  0
LINE
  5
123
330
1F
100
AcDbEntity
  8
0
  6
Continuous
 62
     7
370
    15
100
AcDbLine
 10
1415.7973412265
 20
843.5228111628
 30
0.0
 11
1459.5229510058
 21
843.7028767947
 31
0.0
  0
LINE
  5
124
330
1F
100
AcDbEntity
  8
0
  6
Continuous
 62
     7
370
    15
100
AcDbLine
 10
1459.5229510058
 20
982.4602844599
 30
0.0
 11
1415.7973412265
 21
982.6402904872
 31
0.0
  0
ARC
  5
125
330
1F
100
AcDbEntity
  8
0
  6
Continuous
 62
     7
370
    15
100
AcDbCircle
 10
1415.792399172
 20
981.440318823
 30
0.0
 40
1.200000000000071
100
AcDbArc
 50
89.7640843231
 51
127.8973440262
  0
ARC
  5
126
330
1F
100
AcDbEntity
  8
0
  6
Continuous
 62
     7
370
    15
100
AcDbCircle
 10
1413.0006391893
 20
985.0268354058
 30
0.0
 40
3.345000000000086
100
AcDbArc
 50
141.6687599133
 51
307.8973440262
  0
ARC
  5
127
330
1F
100
AcDbEntity
  8
0
  6
Continuous
 62
     7
370
    15
100
AcDbCircle
 10
1250.0591170062
 20
66.460326584
 30
0.0
 40
7.000000000000227
100
AcDbArc
 50
90.2359156769
 51
180.0
  0
ARC
  5
128
330
1F
100
AcDbEntity
  8
0
  6
Continuous
 62
     7
370
    15
100
AcDbCircle
 10
1459.4941170062
 20
217.960326584
 30
0.0
 40
7.0
100
AcDbArc
 50
0.0
 51
89.7640843231
  0
ARC
  5
129
330
1F
100
AcDbEntity
  8
0
  6
Continuous
 62
     7
370
    15
100
AcDbCircle
 10
1409.4353670062
 20
989.8174509838
 30
0.0
 40
1.200000000000045
100
AcDbArc
 50
0.0
 51
38.3312400867
  0
ARC
  5
12A
330
1F
100
AcDbEntity
  8
0
  6
Continuous
 62
     7
370
    15
100
AcDbCircle
 10
1459.4941170062
 20
396.2027998615
 30
0.0
 40
7.0
100
AcDbArc
 50
270.2359156769
 51
0.0
  0
ARC
  5
12B
330
1F
100
AcDbEntity
  8
0
  6
Continuous
 62
     7
370
    15
100
AcDbCircle
 10
1250.0591170062
 20
93.2027998615
 30
0.0
 40
7.000000000000227
100
AcDbArc
 50
180.0
 51
269.7640843231
  0
LINE
  5
12C
330
1F
100
AcDbEntity
  8
0
  6
Continuous
 62
     7
370
    15
100
AcDbLine
 10
1415.7973412265
 20
995.0227978114
 30
0.0
 11
1459.5229510058
 21
995.2028634432
 31
0.0
  0
ARC
  5
12D
330
1F
100
AcDbEntity
  8
0
  6
Continuous
 62
     7
370
    15
100
AcDbCircle
 10
1459.4941170062
 20
520.960326584
 30
0.0
 40
7.0
100
AcDbArc
 50
0.0
 51
89.7640843231
  0
ARC
  5
12E
330
1F
100
AcDbEntity
  8
0
  6
Continuous
 62
     7
370
    15
100
AcDbCircle
 10
1459.4941170062
 20
369.460326584
 30
0.0
 40
7.000000000000048
100
AcDbArc
 50
0.0
 51
89.7640843231
  0
ARC
  5
12F
330
1F
100
AcDbEntity
  8
0
  6
Continuous
 62
     7
370
    15
100
AcDbCircle
 10
1459.4941170062
 20
547.7027998615
 30
0.0
 40
7.0
100
AcDbArc
 50
270.2359156769
 51
0.0
  0
ARC
  5
130
330
1F
100
AcDbEntity
  8
0
  6
Continuous
 62
     7
370
    15
100
AcDbCircle
 10
1459.4941170062
 20
244.7027998615
 30
0.0
 40
7.0
100
AcDbArc
 50
270.2359156769
 51
0.0
  0
LINE
  5
131
330
1F
100
AcDbEntity
  8
0
  6
Continuous
 62
     7
370
    15
100
AcDbLine
 10
1243.0591467609
 20
1153.7027599696
 30
0.0
 11
1243.0591467609
 21
1193.3315040949
 31
0.0
  0
ARC
  5
132
330
1F
100
AcDbEntity
  8
0
  6
Continuous
 62
     7
370
    15
100
AcDbCircle
 10
1459.4941170062
 20
93.2027998615
 30
0.0
 40
7.000000000000034
100
AcDbArc
 50
270.2359156769
 51
0.0
  0
ARC
  5
133
330
1F
100
AcDbEntity
  8
0
  6
Continuous
 62
     7
370
    15
100
AcDbCircle
 10
1801.7966170062
 20
93.2027998615
 30
0.0
 40
6.99999999999992
100
AcDbArc
 50
270.2359156769
 51
0.0
  0
ARC
  5
134
330
1F
100
AcDbEntity
  8
0
  6
Continuous
 62
     7
370
    15
100
AcDbCircle
 10
1801.7966170062
 20
66.460326584
 30
0.0
 40
7.000000000000133
100
AcDbArc
 50
0.0
 51
89.7640843231
  0
ARC
  5
135
330
1F
100
AcDbEntity
  8
0
  6
Continuous
 62
     7
370
    15
100
AcDbCircle
 10
1801.7966170062
 20
26.8315632228
 30
0.0
 40
6.999999999999897
100
AcDbArc
 50
270.0
 51
0.0
  0
ARC
  5
136
330
1F
100
AcDbEntity
  8
0
  6
Continuous
 62
     7
370
    15
100
AcDbCircle
 10
1592.3616170062
 20
26.8315632228
 30
0.0
 40
6.999999999999897
100
AcDbArc
 50
180.0
 51
270.0
  0
ARC
  5
137
330
1F
100
AcDbEntity
  8
0
  6
Continuous
 62
     7
370
    15
100
AcDbCircle
 10
1592.3616170062
 20
66.460326584
 30
0.0
 40
7.000000000000133
100
AcDbArc
 50
90.2359156769
 51
180.0
  0
ARC
  5
138
330
1F
100
AcDbEntity
  8
0
  6
Continuous
 62
     7
370
    15
100
AcDbCircle
 10
1592.3616170062
 20
93.2027998615
 30
0.0
 40
6.99999999999992
100
AcDbArc
 50
180.0
 51
269.7640843231
  0
ARC
  5
139
330
1F
100
AcDbEntity
  8
0
  6
Continuous
 62
     7
370
    15
100
AcDbCircle
 10
1592.3616170062
 20
217.960326584
 30
0.0
 40
6.999999999999906
100
AcDbArc
 50
90.2359156769
 51
180.0
  0
ARC
  5
13A
330
1F
100
AcDbEntity
  8
0
  6
Continuous
 62
     7
370
    15
100
AcDbCircle
 10
1592.3616170062
 20
244.7027998615
 30
0.0
 40
6.999999999999906
100
AcDbArc
 50
180.0
 51
269.7640843231
  0
ARC
  5
13B
330
1F
100
AcDbEntity
  8
0
  6
Continuous
 62
     7
370
    15
100
AcDbCircle
 10
1592.3616170062
 20
369.460326584
 30
0.0
 40
7.000000000000048
100
AcDbArc
 50
90.2359156769
 51
180.0
  0
ARC
  5
13C
330
1F
100
AcDbEntity
  8
0
  6
Continuous
 62
     7
370
    15
100
AcDbCircle
 10
1592.3616170062
 20
396.2027998615
 30
0.0
 40
7.000000000000105
100
AcDbArc
 50
180.0
 51
269.7640843231
  0
ARC
  5
13D
330
1F
100
AcDbEntity
  8
0
  6
Continuous
 62
     7
370
    15
100
AcDbCircle
 10
1592.3616170062
 20
520.960326584
 30
0.0
 40
6.999999999999877
100
AcDbArc
 50
90.2359156769
 51
180.0
  0
ARC
  5
13E
330
1F
100
AcDbEntity
  8
0
  6
Continuous
 62
     7
370
    15
100
AcDbCircle
 10
1642.4203670062
 20
535.3174509838
 30
0.0
 40
1.199999999999972
100
AcDbArc
 50
141.6687599133
 51
180.0
  0
ARC
  5
13F
330
1F
100
AcDbEntity
  8
0
  6
Continuous
 62
     7
370
    15
100
AcDbCircle
 10
1638.8550948231
 20
538.1362910397
 30
0.0
 40
3.345000000000016
100
AcDbArc
 50
321.6687599133
 51
127.8973440262
  0
ARC
  5
140
330
1F
100
AcDbEntity
  8
0
  6
Continuous
 62
     7
370
    15
100
AcDbCircle
 10
1636.0633348404
 20
541.7228076225
 30
0.0
 40
1.200000000000028
100
AcDbArc
 50
269.7640843231
 51
307.8973440262
  0
LINE
  5
141
330
1F
100
AcDbEntity
  8
0
  6
Continuous
 62
     7
370
    15
100
AcDbLine
 10
1592.3328284015
 20
540.7028438929
 30
0.0
 11
1636.0584381808
 21
540.5228378657
 31
0.0
  0
ARC
  5
142
330
1F
100
AcDbEntity
  8
0
  6
Continuous
 62
     7
370
    15
100
AcDbCircle
 10
1592.3616170062
 20
547.7027998615
 30
0.0
 40
6.999999999999991
100
AcDbArc
 50
180.0
 51
269.7640843231
  0
LINE
  5
143
330
1F
100
AcDbEntity
  8
0
  6
Continuous
 62
     7
370
    15
100
AcDbLine
 10
1585.3615883578
 20
672.4603416804
 30
0.0
 11
1585.3615883578
 21
547.7028133753
 31
0.0
  0
ARC
  5
144
330
1F
100
AcDbEntity
  8
0
  6
Continuous
 62
     7
370
    15
100
AcDbCircle
 10
1638.8550948231
 20
992.6362910397
 30
0.0
 40
3.345000000000016
100
AcDbArc
 50
321.6687599133
 51
127.8973440262
  0
ARC
  5
145
330
1F
100
AcDbEntity
  8
0
  6
Continuous
 62
     7
370
    15
100
AcDbCircle
 10
1636.0633348404
 20
996.2228076225
 30
0.0
 40
1.200000000000071
100
AcDbArc
 50
269.7640843231
 51
307.8973440262
  0
LINE
  5
146
330
1F
100
AcDbEntity
  8
0
  6
Continuous
 62
     7
370
    15
100
AcDbLine
 10
1636.0584381808
 20
995.0227978114
 30
0.0
 11
1592.3328284015
 21
995.2028634432
 31
0.0
  0
LINE
  5
147
330
1F
100
AcDbEntity
  8
0
  6
Continuous
 62
     7
370
    15
100
AcDbLine
 10
1585.3615883578
 20
1193.3315040949
 30
0.0
 11
1585.3615883578
 21
1153.7027599696
 31
0.0
  0
LINE
  5
148
330
1F
100
AcDbEntity
  8
0
  6
Continuous
 62
     7
370
    15
100
AcDbLine
 10
1801.7966631641
 20
1200.3315927867
 30
0.0
 11
1592.3615578403
 21
1200.3315927867
 31
0.0
  0
LINE
  5
149
330
1F
100
AcDbEntity
  8
0
  6
Continuous
 62
     7
370
    15
100
AcDbLine
 10
1758.0997828235
 20
1146.5227844599
 30
0.0
 11
1801.8253926028
 21
1146.7029096964
 31
0.0
  0
ARC
  5
14A
330
1F
100
AcDbEntity
  8
0
  6
Continuous
 62
     7
370
    15
100
AcDbCircle
 10
1758.094899172
 20
1147.7228076225
 30
0.0
 40
1.199999999999891
100
AcDbArc
 50
232.1026559738
 51
270.2359156769
  0
ARC
  5
14B
330
1F
100
AcDbEntity
  8
0
  6
Continuous
 62
     7
370
    15
100
AcDbCircle
 10
1755.3031391893
 20
1144.1362910397
 30
0.0
 40
3.345000000000157
100
AcDbArc
 50
52.1026559738
 51
218.3312400867
  0
LINE
  5
14C
330
1F
100
AcDbEntity
  8
0
  6
Continuous
 62
     7
370
    15
100
AcDbLine
 10
1752.9379013766
 20
1139.3456699732
 30
0.0
 11
1752.9379013766
 21
1141.3173916224
 31
0.0
  0
ARC
  5
14D
330
1F
100
AcDbEntity
  8
0
  6
Continuous
 62
     7
370
    15
100
AcDbCircle
 10
1751.7378670062
 20
1139.3456754617
 30
0.0
 40
1.200000000000183
100
AcDbArc
 50
321.6687599133
 51
0.0
  0
ARC
  5
14E
330
1F
100
AcDbEntity
  8
0
  6
Continuous
 62
     7
370
    15
100
AcDbCircle
 10
1755.3031391893
 20
1136.5268354058
 30
0.0
 40
3.345000000000006
100
AcDbArc
 50
141.6687599133
 51
307.8973440262
  0
ARC
  5
14F
330
1F
100
AcDbEntity
  8
0
  6
Continuous
 62
     7
370
    15
100
AcDbCircle
 10
1758.094899172
 20
1132.940318823
 30
0.0
 40
1.20000000000025
100
AcDbArc
 50
89.7640843231
 51
127.8973440262
  0
LINE
  5
150
330
1F
100
AcDbEntity
  8
0
  6
Continuous
 62
     7
370
    15
100
AcDbLine
 10
1801.8253926028
 20
1133.9602711085
 30
0.0
 11
1758.0997828235
 21
1134.1402771357
 31
0.0
  0
LINE
  5
151
330
1F
100
AcDbEntity
  8
0
  6
Continuous
 62
     7
370
    15
100
AcDbLine
 10
1808.7966326465
 20
1153.7027599696
 30
0.0
 11
1808.7966326465
 21
1193.3315040949
 31
0.0
  0
LINE
  5
152
330
1F
100
AcDbEntity
  8
0
  6
Continuous
 62
     7
370
    15
100
AcDbLine
 10
1808.7966326465
 20
93.2028012756
 30
0.0
 11
1808.7966326465
 21
1126.9603016261
 31
0.0
  0
LINE
  5
153
330
1F
100
AcDbEntity
  8
0
  6
Continuous
 62
     7
370
    15
100
AcDbLine
 10
1585.3615883578
 20
1126.9603016261
 30
0.0
 11
1585.3615883578
 21
1002.202773321
 31
0.0
  0
LINE
  5
154
330
1F
100
AcDbEntity
  8
0
  6
Continuous
 62
     7
370
    15
100
AcDbLine
 10
1585.3615883578
 20
975.4603149775
 30
0.0
 11
1585.3615883578
 21
850.7027866725
 31
0.0
  0
LINE
  5
155
330
1F
100
AcDbEntity
  8
0
  6
Continuous
 62
     7
370
    15
100
AcDbLine
 10
1585.3615883578
 20
823.960328329
 30
0.0
 11
1585.3615883578
 21
699.2028000239
 31
0.0
  0
LINE
  5
156
330
1F
100
AcDbEntity
  8
0
  6
Continuous
 62
     7
370
    15
100
AcDbLine
 10
1641.2203196277
 20
535.3174450282
 30
0.0
 11
1641.2203196277
 21
533.3456637744
 31
0.0
  0
ARC
  5
157
330
1F
100
AcDbEntity
  8
0
  6
Continuous
 62
     7
370
    15
100
AcDbCircle
 10
1642.4203670062
 20
533.3456754617
 30
0.0
 40
1.199999999999972
100
AcDbArc
 50
180.0
 51
218.3312400867
  0
ARC
  5
158
330
1F
100
AcDbEntity
  8
0
  6
Continuous
 62
     7
370
    15
100
AcDbCircle
 10
1638.8550948231
 20
530.5268354058
 30
0.0
 40
3.345000000000016
100
AcDbArc
 50
232.1026559738
 51
38.3312400867
  0
ARC
  5
159
330
1F
100
AcDbEntity
  8
0
  6
Continuous
 62
     7
370
    15
100
AcDbCircle
 10
1751.7378670062
 20
1141.3174509838
 30
0.0
 40
1.199999999999818
100
AcDbArc
 50
0.0
 51
38.3312400867
  0
LINE
  5
15A
330
1F
100
AcDbEntity
  8
0
  6
Continuous
 62
     7
370
    15
100
AcDbLine
 10
1636.0584381808
 20
528.1403305415
 30
0.0
 11
1592.3328284015
 21
527.9602649096
 31
0.0
  0
LINE
  5
15B
330
1F
100
AcDbEntity
  8
0
  6
Continuous
 62
     7
370
    15
100
AcDbLine
 10
1592.3328284015
 20
389.2028572444
 30
0.0
 11
1636.0584381808
 21
389.0228214148
 31
0.0
  0
ARC
  5
15C
330
1F
100
AcDbEntity
  8
0
  6
Continuous
 62
     7
370
    15
100
AcDbCircle
 10
1638.8550948231
 20
386.6362910397
 30
0.0
 40
3.345000000000121
100
AcDbArc
 50
321.6687599133
 51
127.8973440262
  0
ARC
  5
15D
330
1F
100
AcDbEntity
  8
0
  6
Continuous
 62
     7
370
    15
100
AcDbCircle
 10
1642.4203670062
 20
383.8174509838
 30
0.0
 40
1.199999999999936
100
AcDbArc
 50
141.6687599133
 51
180.0
  0
LINE
  5
15E
330
1F
100
AcDbEntity
  8
0
  6
Continuous
 62
     7
370
    15
100
AcDbLine
 10
1592.3328284015
 20
1133.9602711085
 30
0.0
 11
1636.0584381808
 21
1134.1402771357
 31
0.0
  0
ARC
  5
15F
330
1F
100
AcDbEntity
  8
0
  6
Continuous
 62
     7
370
    15
100
AcDbCircle
 10
1636.0633348404
 20
1132.940318823
 30
0.0
 40
1.20000000000025
100
AcDbArc
 50
52.1026559738
 51
90.2359156769
  0
ARC
  5
160
330
1F
100
AcDbEntity
  8
0
  6
Continuous
 62
     7
370
    15
100
AcDbCircle
 10
1638.8550948231
 20
1136.5268354058
 30
0.0
 40
3.345000000000006
100
AcDbArc
 50
232.1026559738
 51
38.3312400867
  0
ARC
  5
161
330
1F
100
AcDbEntity
  8
0
  6
Continuous
 62
     7
370
    15
100
AcDbCircle
 10
1642.4203670062
 20
1139.3456754617
 30
0.0
 40
1.200000000000183
100
AcDbArc
 50
180.0
 51
218.3312400867
  0
LINE
  5
162
330
1F
100
AcDbEntity
  8
0
  6
Continuous
 62
     7
370
    15
100
AcDbLine
 10
1641.2203196277
 20
1139.3456699732
 30
0.0
 11
1641.2203196277
 21
1141.3173916224
 31
0.0
  0
ARC
  5
163
330
1F
100
AcDbEntity
  8
0
  6
Continuous
 62
     7
370
    15
100
AcDbCircle
 10
1642.4203670062
 20
1141.3174509838
 30
0.0
 40
1.199999999999818
100
AcDbArc
 50
141.6687599133
 51
180.0
  0
ARC
  5
164
330
1F
100
AcDbEntity
  8
0
  6
Continuous
 62
     7
370
    15
100
AcDbCircle
 10
1638.8550948231
 20
1144.1362910397
 30
0.0
 40
3.345000000000157
100
AcDbArc
 50
321.6687599133
 51
127.8973440262
  0
ARC
  5
165
330
1F
100
AcDbEntity
  8
0
  6
Continuous
 62
     7
370
    15
100
AcDbCircle
 10
1636.0633348404
 20
1147.7228076225
 30
0.0
 40
1.199999999999891
100
AcDbArc
 50
269.7640843231
 51
307.8973440262
  0
LINE
  5
166
330
1F
100
AcDbEntity
  8
0
  6
Continuous
 62
     7
370
    15
100
AcDbLine
 10
1636.0584381808
 20
1146.5227844599
 30
0.0
 11
1592.3328284015
 21
1146.7029096964
 31
0.0
  0
LINE
  5
167
330
1F
100
AcDbEntity
  8
0
  6
Continuous
 62
     7
370
    15
100
AcDbLine
 10
1641.2203196277
 20
232.3174568299
 30
0.0
 11
1641.2203196277
 21
230.3456755761
 31
0.0
  0
ARC
  5
168
330
1F
100
AcDbEntity
  8
0
  6
Continuous
 62
     7
370
    15
100
AcDbCircle
 10
1642.4203670062
 20
230.3456754617
 30
0.0
 40
1.199999999999972
100
AcDbArc
 50
180.0
 51
218.3312400867
  0
ARC
  5
169
330
1F
100
AcDbEntity
  8
0
  6
Continuous
 62
     7
370
    15
100
AcDbCircle
 10
1638.8550948231
 20
227.5268354058
 30
0.0
 40
3.345000000000034
100
AcDbArc
 50
232.1026559738
 51
38.3312400867
  0
ARC
  5
16A
330
1F
100
AcDbEntity
  8
0
  6
Continuous
 62
     7
370
    15
100
AcDbCircle
 10
1636.0633348404
 20
223.940318823
 30
0.0
 40
1.200000000000025
100
AcDbArc
 50
52.1026559738
 51
90.2359156769
  0
LINE
  5
16B
330
1F
100
AcDbEntity
  8
0
  6
Continuous
 62
     7
370
    15
100
AcDbLine
 10
1636.0584381808
 20
225.1403125409
 30
0.0
 11
1592.3328284015
 21
224.9602618102
 31
0.0
  0
LINE
  5
16C
330
1F
100
AcDbEntity
  8
0
  6
Continuous
 62
     7
370
    15
100
AcDbLine
 10
1758.0997828235
 20
73.6403109912
 30
0.0
 11
1801.8253926028
 21
73.460267711
 31
0.0
  0
ARC
  5
16D
330
1F
100
AcDbEntity
  8
0
  6
Continuous
 62
     7
370
    15
100
AcDbCircle
 10
1758.094899172
 20
72.440318823
 30
0.0
 40
1.199999999999858
100
AcDbArc
 50
89.7640843231
 51
127.8973440262
  0
ARC
  5
16E
330
1F
100
AcDbEntity
  8
0
  6
Continuous
 62
     7
370
    15
100
AcDbCircle
 10
1755.3031391893
 20
76.0268354058
 30
0.0
 40
3.345000000000104
100
AcDbArc
 50
141.6687599133
 51
307.8973440262
  0
ARC
  5
16F
330
1F
100
AcDbEntity
  8
0
  6
Continuous
 62
     7
370
    15
100
AcDbCircle
 10
1751.7378670062
 20
78.8456754617
 30
0.0
 40
1.199999999999954
100
AcDbArc
 50
321.6687599133
 51
0.0
  0
LINE
  5
170
330
1F
100
AcDbEntity
  8
0
  6
Continuous
 62
     7
370
    15
100
AcDbLine
 10
1752.9379013766
 20
80.8174478296
 30
0.0
 11
1752.9379013766
 21
78.8456740264
 31
0.0
  0
ARC
  5
171
330
1F
100
AcDbEntity
  8
0
  6
Continuous
 62
     7
370
    15
100
AcDbCircle
 10
1751.7378670062
 20
80.8174509838
 30
0.0
 40
1.199999999999954
100
AcDbArc
 50
0.0
 51
38.3312400867
  0
ARC
  5
172
330
1F
100
AcDbEntity
  8
0
  6
Continuous
 62
     7
370
    15
100
AcDbCircle
 10
1755.3031391893
 20
83.6362910397
 30
0.0
 40
3.345000000000018
100
AcDbArc
 50
52.1026559738
 51
218.3312400867
  0
ARC
  5
173
330
1F
100
AcDbEntity
  8
0
  6
Continuous
 62
     7
370
    15
100
AcDbCircle
 10
1758.094899172
 20
87.2228076225
 30
0.0
 40
1.200000000000071
100
AcDbArc
 50
232.1026559738
 51
270.2359156769
  0
LINE
  5
174
330
1F
100
AcDbEntity
  8
0
  6
Continuous
 62
     7
370
    15
100
AcDbLine
 10
1801.8253926028
 20
86.2028615955
 30
0.0
 11
1758.0997828235
 21
86.0228183154
 31
0.0
  0
LINE
  5
175
330
1F
100
AcDbEntity
  8
0
  6
Continuous
 62
     7
370
    15
100
AcDbLine
 10
1592.3328284015
 20
86.2028615955
 30
0.0
 11
1636.0584381808
 21
86.0228183154
 31
0.0
  0
ARC
  5
176
330
1F
100
AcDbEntity
  8
0
  6
Continuous
 62
     7
370
    15
100
AcDbCircle
 10
1636.0633348404
 20
87.2228076225
 30
0.0
 40
1.200000000000071
100
AcDbArc
 50
269.7640843231
 51
307.8973440262
  0
ARC
  5
177
330
1F
100
AcDbEntity
  8
0
  6
Continuous
 62
     7
370
    15
100
AcDbCircle
 10
1638.8550948231
 20
83.6362910397
 30
0.0
 40
3.345000000000018
100
AcDbArc
 50
321.6687599133
 51
127.8973440262
  0
ARC
  5
178
330
1F
100
AcDbEntity
  8
0
  6
Continuous
 62
     7
370
    15
100
AcDbCircle
 10
1642.4203670062
 20
80.8174509838
 30
0.0
 40
1.199999999999954
100
AcDbArc
 50
141.6687599133
 51
180.0
  0
LINE
  5
179
330
1F
100
AcDbEntity
  8
0
  6
Continuous
 62
     7
370
    15
100
AcDbLine
 10
1641.2203196277
 20
80.8174478296
 30
0.0
 11
1641.2203196277
 21
78.8456740264
 31
0.0
  0
ARC
  5
17A
330
1F
100
AcDbEntity
  8
0
  6
Continuous
 62
     7
370
    15
100
AcDbCircle
 10
1642.4203670062
 20
78.8456754617
 30
0.0
 40
1.199999999999954
100
AcDbArc
 50
180.0
 51
218.3312400867
  0
ARC
  5
17B
330
1F
100
AcDbEntity
  8
0
  6
Continuous
 62
     7
370
    15
100
AcDbCircle
 10
1638.8550948231
 20
76.0268354058
 30
0.0
 40
3.345000000000104
100
AcDbArc
 50
232.1026559738
 51
38.3312400867
  0
ARC
  5
17C
330
1F
100
AcDbEntity
  8
0
  6
Continuous
 62
     7
370
    15
100
AcDbCircle
 10
1636.0633348404
 20
72.440318823
 30
0.0
 40
1.199999999999858
100
AcDbArc
 50
52.1026559738
 51
90.2359156769
  0
LINE
  5
17D
330
1F
100
AcDbEntity
  8
0
  6
Continuous
 62
     7
370
    15
100
AcDbLine
 10
1636.0584381808
 20
73.6403109912
 30
0.0
 11
1592.3328284015
 21
73.460267711
 31
0.0
  0
LINE
  5
17E
330
1F
100
AcDbEntity
  8
0
  6
Continuous
 62
     7
370
    15
100
AcDbLine
 10
1801.7966631641
 20
19.8315641317
 30
0.0
 11
1592.3615578403
 21
19.8315641317
 31
0.0
  0
LINE
  5
17F
330
1F
100
AcDbEntity
  8
0
  6
Continuous
 62
     7
370
    15
100
AcDbLine
 10
1585.3615883578
 20
26.8315634165
 30
0.0
 11
1585.3615883578
 21
66.4603280309
 31
0.0
  0
LINE
  5
180
330
1F
100
AcDbEntity
  8
0
  6
Continuous
 62
     7
370
    15
100
AcDbLine
 10
1808.7966326465
 20
66.4603280309
 30
0.0
 11
1808.7966326465
 21
26.8315634165
 31
0.0
  0
LINE
  5
181
330
1F
100
AcDbEntity
  8
0
  6
Continuous
 62
     7
370
    15
100
AcDbLine
 10
1585.3615883578
 20
93.2028012756
 30
0.0
 11
1585.3615883578
 21
217.9603221301
 31
0.0
  0
LINE
  5
182
330
1F
100
AcDbEntity
  8
0
  6
Continuous
 62
     7
370
    15
100
AcDbLine
 10
1585.3615883578
 20
244.7027953747
 30
0.0
 11
1585.3615883578
 21
369.460338581
 31
0.0
  0
LINE
  5
183
330
1F
100
AcDbEntity
  8
0
  6
Continuous
 62
     7
370
    15
100
AcDbLine
 10
1585.3615883578
 20
396.2027969245
 30
0.0
 11
1585.3615883578
 21
520.9603550318
 31
0.0
  0
ARC
  5
184
330
1F
100
AcDbEntity
  8
0
  6
Continuous
 62
     7
370
    15
100
AcDbCircle
 10
1592.3616170062
 20
1193.3315632228
 30
0.0
 40
7.0
100
AcDbArc
 50
90.0
 51
180.0
  0
ARC
  5
185
330
1F
100
AcDbEntity
  8
0
  6
Continuous
 62
     7
370
    15
100
AcDbCircle
 10
1592.3616170062
 20
1153.7027998615
 30
0.0
 40
7.000000000000446
100
AcDbArc
 50
180.0
 51
269.7640843231
  0
ARC
  5
186
330
1F
100
AcDbEntity
  8
0
  6
Continuous
 62
     7
370
    15
100
AcDbCircle
 10
1592.3616170062
 20
1002.2027998615
 30
0.0
 40
6.999999999999773
100
AcDbArc
 50
180.0
 51
269.7640843231
  0
ARC
  5
187
330
1F
100
AcDbEntity
  8
0
  6
Continuous
 62
     7
370
    15
100
AcDbCircle
 10
1592.3616170062
 20
850.7027998615
 30
0.0
 40
6.999999999999991
100
AcDbArc
 50
180.0
 51
269.7640843231
  0
ARC
  5
188
330
1F
100
AcDbEntity
  8
0
  6
Continuous
 62
     7
370
    15
100
AcDbCircle
 10
1592.3616170062
 20
699.2027998615
 30
0.0
 40
6.999999999999991
100
AcDbArc
 50
180.0
 51
269.7640843231
  0
ARC
  5
189
330
1F
100
AcDbEntity
  8
0
  6
Continuous
 62
     7
370
    15
100
AcDbCircle
 10
1801.7966170062
 20
1153.7027998615
 30
0.0
 40
7.000000000000446
100
AcDbArc
 50
270.2359156769
 51
0.0
  0
ARC
  5
18A
330
1F
100
AcDbEntity
  8
0
  6
Continuous
 62
     7
370
    15
100
AcDbCircle
 10
1801.7966170062
 20
1193.3315632228
 30
0.0
 40
7.0
100
AcDbArc
 50
0.0
 51
90.0
  0
ARC
  5
18B
330
1F
100
AcDbEntity
  8
0
  6
Continuous
 62
     7
370
    15
100
AcDbCircle
 10
1592.3616170062
 20
975.460326584
 30
0.0
 40
6.999999999999877
100
AcDbArc
 50
90.2359156769
 51
180.0
  0
ARC
  5
18C
330
1F
100
AcDbEntity
  8
0
  6
Continuous
 62
     7
370
    15
100
AcDbCircle
 10
1592.3616170062
 20
823.960326584
 30
0.0
 40
7.000000000000218
100
AcDbArc
 50
90.2359156769
 51
180.0
  0
ARC
  5
18D
330
1F
100
AcDbEntity
  8
0
  6
Continuous
 62
     7
370
    15
100
AcDbCircle
 10
1592.3616170062
 20
672.460326584
 30
0.0
 40
6.999999999999991
100
AcDbArc
 50
90.2359156769
 51
180.0
  0
ARC
  5
18E
330
1F
100
AcDbEntity
  8
0
  6
Continuous
 62
     7
370
    15
100
AcDbCircle
 10
1592.3616170062
 20
1126.960326584
 30
0.0
 40
6.999999999999991
100
AcDbArc
 50
90.2359156769
 51
180.0
  0
ARC
  5
18F
330
1F
100
AcDbEntity
  8
0
  6
Continuous
 62
     7
370
    15
100
AcDbCircle
 10
1801.7966170062
 20
1126.960326584
 30
0.0
 40
6.999999999999991
100
AcDbArc
 50
0.0
 51
89.7640843231
  0
LINE
  5
190
330
1F
100
AcDbEntity
  8
0
  6
Continuous
 62
     7
370
    15
100
AcDbLine
 10
1592.3328284015
 20
679.4602515582
 30
0.0
 11
1636.0584381808
 21
679.64031719
 31
0.0
  0
ARC
  5
191
330
1F
100
AcDbEntity
  8
0
  6
Continuous
 62
     7
370
    15
100
AcDbCircle
 10
1636.0633348404
 20
526.940318823
 30
0.0
 40
1.200000000000028
100
AcDbArc
 50
52.1026559738
 51
90.2359156769
  0
ARC
  5
192
330
1F
100
AcDbEntity
  8
0
  6
Continuous
 62
     7
370
    15
100
AcDbCircle
 10
1638.8550948231
 20
682.0268354058
 30
0.0
 40
3.345000000000086
100
AcDbArc
 50
232.1026559738
 51
38.3312400867
  0
ARC
  5
193
330
1F
100
AcDbEntity
  8
0
  6
Continuous
 62
     7
370
    15
100
AcDbCircle
 10
1642.4203670062
 20
684.8456754617
 30
0.0
 40
1.199999999999972
100
AcDbArc
 50
180.0
 51
218.3312400867
  0
LINE
  5
194
330
1F
100
AcDbEntity
  8
0
  6
Continuous
 62
     7
370
    15
100
AcDbLine
 10
1641.2203196277
 20
684.8456504229
 30
0.0
 11
1641.2203196277
 21
686.8174316767
 31
0.0
  0
ARC
  5
195
330
1F
100
AcDbEntity
  8
0
  6
Continuous
 62
     7
370
    15
100
AcDbCircle
 10
1642.4203670062
 20
686.8174509838
 30
0.0
 40
1.199999999999972
100
AcDbArc
 50
141.6687599133
 51
180.0
  0
ARC
  5
196
330
1F
100
AcDbEntity
  8
0
  6
Continuous
 62
     7
370
    15
100
AcDbCircle
 10
1638.8550948231
 20
689.6362910397
 30
0.0
 40
3.345000000000016
100
AcDbArc
 50
321.6687599133
 51
127.8973440262
  0
LINE
  5
197
330
1F
100
AcDbEntity
  8
0
  6
Continuous
 62
     7
370
    15
100
AcDbLine
 10
1641.2203196277
 20
383.8174583796
 30
0.0
 11
1641.2203196277
 21
381.8456771258
 31
0.0
  0
ARC
  5
198
330
1F
100
AcDbEntity
  8
0
  6
Continuous
 62
     7
370
    15
100
AcDbCircle
 10
1642.4203670062
 20
381.8456754617
 30
0.0
 40
1.199999999999972
100
AcDbArc
 50
180.0
 51
218.3312400867
  0
ARC
  5
199
330
1F
100
AcDbEntity
  8
0
  6
Continuous
 62
     7
370
    15
100
AcDbCircle
 10
1638.8550948231
 20
379.0268354058
 30
0.0
 40
3.345000000000086
100
AcDbArc
 50
232.1026559738
 51
38.3312400867
  0
ARC
  5
19A
330
1F
100
AcDbEntity
  8
0
  6
Continuous
 62
     7
370
    15
100
AcDbCircle
 10
1636.0633348404
 20
375.440318823
 30
0.0
 40
1.200000000000085
100
AcDbArc
 50
52.1026559738
 51
90.2359156769
  0
LINE
  5
19B
330
1F
100
AcDbEntity
  8
0
  6
Continuous
 62
     7
370
    15
100
AcDbLine
 10
1636.0584381808
 20
376.6403140906
 30
0.0
 11
1592.3328284015
 21
376.460278261
 31
0.0
  0
LINE
  5
19C
330
1F
100
AcDbEntity
  8
0
  6
Continuous
 62
     7
370
    15
100
AcDbLine
 10
1592.3328284015
 20
237.7028556946
 30
0.0
 11
1636.0584381808
 21
237.5228198651
 31
0.0
  0
ARC
  5
19D
330
1F
100
AcDbEntity
  8
0
  6
Continuous
 62
     7
370
    15
100
AcDbCircle
 10
1636.0633348404
 20
238.7228076225
 30
0.0
 40
1.200000000000003
100
AcDbArc
 50
269.7640843231
 51
307.8973440262
  0
ARC
  5
19E
330
1F
100
AcDbEntity
  8
0
  6
Continuous
 62
     7
370
    15
100
AcDbCircle
 10
1638.8550948231
 20
235.1362910397
 30
0.0
 40
3.345000000000104
100
AcDbArc
 50
321.6687599133
 51
127.8973440262
  0
ARC
  5
19F
330
1F
100
AcDbEntity
  8
0
  6
Continuous
 62
     7
370
    15
100
AcDbCircle
 10
1642.4203670062
 20
232.3174509838
 30
0.0
 40
1.199999999999954
100
AcDbArc
 50
141.6687599133
 51
180.0
  0
ARC
  5
1A0
330
1F
100
AcDbEntity
  8
0
  6
Continuous
 62
     7
370
    15
100
AcDbCircle
 10
1636.0633348404
 20
844.7228076225
 30
0.0
 40
1.200000000000028
100
AcDbArc
 50
269.7640843231
 51
307.8973440262
  0
LINE
  5
1A1
330
1F
100
AcDbEntity
  8
0
  6
Continuous
 62
     7
370
    15
100
AcDbLine
 10
1636.0584381808
 20
843.5228111628
 30
0.0
 11
1592.3328284015
 21
843.7028767947
 31
0.0
  0
LINE
  5
1A2
330
1F
100
AcDbEntity
  8
0
  6
Continuous
 62
     7
370
    15
100
AcDbLine
 10
1592.3328284015
 20
982.4602844599
 30
0.0
 11
1636.0584381808
 21
982.6402904872
 31
0.0
  0
ARC
  5
1A3
330
1F
100
AcDbEntity
  8
0
  6
Continuous
 62
     7
370
    15
100
AcDbCircle
 10
1636.0633348404
 20
981.440318823
 30
0.0
 40
1.200000000000071
100
AcDbArc
 50
52.1026559738
 51
90.2359156769
  0
ARC
  5
1A4
330
1F
100
AcDbEntity
  8
0
  6
Continuous
 62
     7
370
    15
100
AcDbCircle
 10
1642.4203670062
 20
987.8456754617
 30
0.0
 40
1.199999999999972
100
AcDbArc
 50
180.0
 51
218.3312400867
  0
LINE
  5
1A5
330
1F
100
AcDbEntity
  8
0
  6
Continuous
 62
     7
370
    15
100
AcDbLine
 10
1641.2203196277
 20
987.8456833247
 30
0.0
 11
1641.2203196277
 21
989.8174645785
 31
0.0
  0
ARC
  5
1A6
330
1F
100
AcDbEntity
  8
0
  6
Continuous
 62
     7
370
    15
100
AcDbCircle
 10
1642.4203670062
 20
989.8174509838
 30
0.0
 40
1.199999999999972
100
AcDbArc
 50
141.6687599133
 51
180.0
  0
LINE
  5
1A7
330
1F
100
AcDbEntity
  8
0
  6
Continuous
 62
     7
370
    15
100
AcDbLine
 10
1592.3328284015
 20
830.9602382067
 30
0.0
 11
1636.0584381808
 21
831.1403038386
 31
0.0
  0
ARC
  5
1A8
330
1F
100
AcDbEntity
  8
0
  6
Continuous
 62
     7
370
    15
100
AcDbCircle
 10
1636.0633348404
 20
829.940318823
 30
0.0
 40
1.199999999999981
100
AcDbArc
 50
52.1026559738
 51
90.2359156769
  0
ARC
  5
1A9
330
1F
100
AcDbEntity
  8
0
  6
Continuous
 62
     7
370
    15
100
AcDbCircle
 10
1638.8550948231
 20
833.5268354058
 30
0.0
 40
3.345000000000086
100
AcDbArc
 50
232.1026559738
 51
38.3312400867
  0
ARC
  5
1AA
330
1F
100
AcDbEntity
  8
0
  6
Continuous
 62
     7
370
    15
100
AcDbCircle
 10
1642.4203670062
 20
836.3456754617
 30
0.0
 40
1.199999999999972
100
AcDbArc
 50
180.0
 51
218.3312400867
  0
LINE
  5
1AB
330
1F
100
AcDbEntity
  8
0
  6
Continuous
 62
     7
370
    15
100
AcDbLine
 10
1641.2203196277
 20
836.3456966761
 30
0.0
 11
1641.2203196277
 21
838.3174779299
 31
0.0
  0
ARC
  5
1AC
330
1F
100
AcDbEntity
  8
0
  6
Continuous
 62
     7
370
    15
100
AcDbCircle
 10
1642.4203670062
 20
838.3174509838
 30
0.0
 40
1.199999999999901
100
AcDbArc
 50
141.6687599133
 51
180.0
  0
ARC
  5
1AD
330
1F
100
AcDbEntity
  8
0
  6
Continuous
 62
     7
370
    15
100
AcDbCircle
 10
1636.0633348404
 20
678.440318823
 30
0.0
 40
1.199999999999914
100
AcDbArc
 50
52.1026559738
 51
90.2359156769
  0
LINE
  5
1AE
330
1F
100
AcDbEntity
  8
0
  6
Continuous
 62
     7
370
    15
100
AcDbLine
 10
1636.0584381808
 20
692.0228245143
 30
0.0
 11
1592.3328284015
 21
692.2028305415
 31
0.0
  0
ARC
  5
1AF
330
1F
100
AcDbEntity
  8
0
  6
Continuous
 62
     7
370
    15
100
AcDbCircle
 10
1638.8550948231
 20
985.0268354058
 30
0.0
 40
3.345000000000086
100
AcDbArc
 50
232.1026559738
 51
38.3312400867
  0
ARC
  5
1B0
330
1F
100
AcDbEntity
  8
0
  6
Continuous
 62
     7
370
    15
100
AcDbCircle
 10
1636.0633348404
 20
390.2228076225
 30
0.0
 40
1.200000000000025
100
AcDbArc
 50
269.7640843231
 51
307.8973440262
  0
ARC
  5
1B1
330
1F
100
AcDbEntity
  8
0
  6
Continuous
 62
     7
370
    15
100
AcDbCircle
 10
1638.8550948231
 20
841.1362910397
 30
0.0
 40
3.345000000000157
100
AcDbArc
 50
321.6687599133
 51
127.8973440262
  0
ARC
  5
1B2
330
1F
100
AcDbEntity
  8
0
  6
Continuous
 62
     7
370
    15
100
AcDbCircle
 10
1636.0633348404
 20
693.2228076225
 30
0.0
 40
1.199999999999914
100
AcDbArc
 50
269.7640843231
 51
307.8973440262
  0
ARC
  5
1B3
330
1F
100
AcDbEntity
  8
0
  6
Continuous
 62
     7
370
    15
100
AcDbCircle
 10
348.0366170062
 20
446.7027998615
 30
0.0
 40
7.0
100
AcDbArc
 50
270.2359156769
 51
0.0
  0
LINE
  5
1B4
330
1F
100
AcDbEntity
  8
0
  6
Continuous
 62
     7
370
    15
100
AcDbLine
 10
304.339844345
 20
439.5228268984
 30
0.0
 11
348.0654541244
 21
439.702862728
 31
0.0
  0
ARC
  5
1B5
330
1F
100
AcDbEntity
  8
0
  6
Continuous
 62
     7
370
    15
100
AcDbCircle
 10
304.334899172
 20
440.7228076225
 30
0.0
 40
1.199999999999981
100
AcDbArc
 50
232.1026559738
 51
270.2359156769
  0
ARC
  5
1B6
330
1F
100
AcDbEntity
  8
0
  6
Continuous
 62
     7
370
    15
100
AcDbCircle
 10
301.5431391893
 20
437.1362910397
 30
0.0
 40
3.345000000000051
100
AcDbArc
 50
52.1026559738
 51
218.3312400867
  0
ARC
  5
1B7
330
1F
100
AcDbEntity
  8
0
  6
Continuous
 62
     7
370
    15
100
AcDbCircle
 10
297.9778670062
 20
434.3174509838
 30
0.0
 40
1.199999999999989
100
AcDbArc
 50
0.0
 51
38.3312400867
  0
LINE
  5
1B8
330
1F
100
AcDbEntity
  8
0
  6
Continuous
 62
     7
370
    15
100
AcDbLine
 10
299.1778734912
 20
432.3456826094
 30
0.0
 11
299.1778734912
 21
434.3174638632
 31
0.0
  0
ARC
  5
1B9
330
1F
100
AcDbEntity
  8
0
  6
Continuous
 62
     7
370
    15
100
AcDbCircle
 10
297.9778670062
 20
432.3456754617
 30
0.0
 40
1.199999999999989
100
AcDbArc
 50
321.6687599133
 51
0.0
  0
ARC
  5
1BA
330
1F
100
AcDbEntity
  8
0
  6
Continuous
 62
     7
370
    15
100
AcDbCircle
 10
301.5431391893
 20
429.5268354058
 30
0.0
 40
3.345000000000066
100
AcDbArc
 50
141.6687599133
 51
307.8973440262
  0
ARC
  5
1BB
330
1F
100
AcDbEntity
  8
0
  6
Continuous
 62
     7
370
    15
100
AcDbCircle
 10
304.334899172
 20
425.940318823
 30
0.0
 40
1.199999999999981
100
AcDbArc
 50
89.7640843231
 51
127.8973440262
  0
LINE
  5
1BC
330
1F
100
AcDbEntity
  8
0
  6
Continuous
 62
     7
370
    15
100
AcDbLine
 10
348.0654541244
 20
426.9602539424
 30
0.0
 11
304.339844345
 21
427.1403195742
 31
0.0
  0
ARC
  5
1BD
330
1F
100
AcDbEntity
  8
0
  6
Continuous
 62
     7
370
    15
100
AcDbCircle
 10
348.0366170062
 20
419.960326584
 30
0.0
 40
7.000000000000048
100
AcDbArc
 50
0.0
 51
89.7640843231
  0
LINE
  5
1BE
330
1F
100
AcDbEntity
  8
0
  6
Continuous
 62
     7
370
    15
100
AcDbLine
 10
355.036604761
 20
419.9603142623
 30
0.0
 11
355.036604761
 21
328.8694562796
 31
0.0
  0
ARC
  5
1BF
330
1F
100
AcDbEntity
  8
0
  6
Continuous
 62
     7
370
    15
100
AcDbCircle
 10
348.0366170062
 20
328.8694665282
 30
0.0
 40
7.000000000000048
100
AcDbArc
 50
270.2359156769
 51
0.0
  0
LINE
  5
1C0
330
1F
100
AcDbEntity
  8
0
  6
Continuous
 62
     7
370
    15
100
AcDbLine
 10
304.339844345
 20
321.68948077
 30
0.0
 11
348.0654541244
 21
321.8695165995
 31
0.0
  0
ARC
  5
1C1
330
1F
100
AcDbEntity
  8
0
  6
Continuous
 62
     7
370
    15
100
AcDbCircle
 10
304.334899172
 20
322.8894742892
 30
0.0
 40
1.199999999999971
100
AcDbArc
 50
232.1026559738
 51
270.2359156769
  0
ARC
  5
1C2
330
1F
100
AcDbEntity
  8
0
  6
Continuous
 62
     7
370
    15
100
AcDbCircle
 10
301.5431391893
 20
319.3029577063
 30
0.0
 40
3.345000000000111
100
AcDbArc
 50
52.1026559738
 51
218.3312400867
  0
ARC
  5
1C3
330
1F
100
AcDbEntity
  8
0
  6
Continuous
 62
     7
370
    15
100
AcDbCircle
 10
297.9778670062
 20
316.4841176505
 30
0.0
 40
1.199999999999989
100
AcDbArc
 50
0.0
 51
38.3312400867
  0
LINE
  5
1C4
330
1F
100
AcDbEntity
  8
0
  6
Continuous
 62
     7
370
    15
100
AcDbLine
 10
299.1778734912
 20
314.512336481
 30
0.0
 11
299.1778734912
 21
316.4841177348
 31
0.0
  0
ARC
  5
1C5
330
1F
100
AcDbEntity
  8
0
  6
Continuous
 62
     7
370
    15
100
AcDbCircle
 10
297.9778670062
 20
314.5123421284
 30
0.0
 40
1.199999999999989
100
AcDbArc
 50
321.6687599133
 51
0.0
  0
ARC
  5
1C6
330
1F
100
AcDbEntity
  8
0
  6
Continuous
 62
     7
370
    15
100
AcDbCircle
 10
301.5431391893
 20
311.6935020725
 30
0.0
 40
3.345000000000051
100
AcDbArc
 50
141.6687599133
 51
307.8973440262
  0
ARC
  5
1C7
330
1F
100
AcDbEntity
  8
0
  6
Continuous
 62
     7
370
    15
100
AcDbCircle
 10
304.334899172
 20
308.1069854897
 30
0.0
 40
1.199999999999981
100
AcDbArc
 50
89.7640843231
 51
127.8973440262
  0
LINE
  5
1C8
330
1F
100
AcDbEntity
  8
0
  6
Continuous
 62
     7
370
    15
100
AcDbLine
 10
348.0654541244
 20
309.1269376162
 30
0.0
 11
304.339844345
 21
309.3069734458
 31
0.0
  0
ARC
  5
1C9
330
1F
100
AcDbEntity
  8
0
  6
Continuous
 62
     7
370
    15
100
AcDbCircle
 10
348.0366170062
 20
302.1269932506
 30
0.0
 40
7.0
100
AcDbArc
 50
0.0
 51
89.7640843231
  0
LINE
  5
1CA
330
1F
100
AcDbEntity
  8
0
  6
Continuous
 62
     7
370
    15
100
AcDbLine
 10
355.036604761
 20
302.1269979361
 30
0.0
 11
355.036604761
 21
211.0361399535
 31
0.0
  0
ARC
  5
1CB
330
1F
100
AcDbEntity
  8
0
  6
Continuous
 62
     7
370
    15
100
AcDbCircle
 10
348.0366170062
 20
211.0361331949
 30
0.0
 40
7.000000000000114
100
AcDbArc
 50
270.2359156769
 51
0.0
  0
LINE
  5
1CC
330
1F
100
AcDbEntity
  8
0
  6
Continuous
 62
     7
370
    15
100
AcDbLine
 10
304.339844345
 20
203.8561495427
 30
0.0
 11
348.0654541244
 21
204.0361853722
 31
0.0
  0
ARC
  5
1CD
330
1F
100
AcDbEntity
  8
0
  6
Continuous
 62
     7
370
    15
100
AcDbCircle
 10
304.334899172
 20
205.0561409558
 30
0.0
 40
1.200000000000073
100
AcDbArc
 50
232.1026559738
 51
270.2359156769
  0
ARC
  5
1CE
330
1F
100
AcDbEntity
  8
0
  6
Continuous
 62
     7
370
    15
100
AcDbCircle
 10
301.5431391893
 20
201.469624373
 30
0.0
 40
3.345000000000034
100
AcDbArc
 50
52.1026559738
 51
218.3312400867
  0
ARC
  5
1CF
330
1F
100
AcDbEntity
  8
0
  6
Continuous
 62
     7
370
    15
100
AcDbCircle
 10
297.9778670062
 20
198.6507843171
 30
0.0
 40
1.200000000000102
100
AcDbArc
 50
0.0
 51
38.3312400867
  0
LINE
  5
1D0
330
1F
100
AcDbEntity
  8
0
  6
Continuous
 62
     7
370
    15
100
AcDbLine
 10
299.1778734912
 20
196.6790052537
 30
0.0
 11
299.1778734912
 21
198.6507865075
 31
0.0
  0
ARC
  5
1D1
330
1F
100
AcDbEntity
  8
0
  6
Continuous
 62
     7
370
    15
100
AcDbCircle
 10
297.9778670062
 20
196.679008795
 30
0.0
 40
1.200000000000102
100
AcDbArc
 50
321.6687599133
 51
0.0
  0
ARC
  5
1D2
330
1F
100
AcDbEntity
  8
0
  6
Continuous
 62
     7
370
    15
100
AcDbCircle
 10
301.5431391893
 20
193.8601687392
 30
0.0
 40
3.344999999999998
100
AcDbArc
 50
141.6687599133
 51
307.8973440262
  0
ARC
  5
1D3
330
1F
100
AcDbEntity
  8
0
  6
Continuous
 62
     7
370
    15
100
AcDbCircle
 10
304.334899172
 20
190.2736521563
 30
0.0
 40
1.200000000000028
100
AcDbArc
 50
89.7640843231
 51
127.8973440262
  0
LINE
  5
1D4
330
1F
100
AcDbEntity
  8
0
  6
Continuous
 62
     7
370
    15
100
AcDbLine
 10
348.0654541244
 20
191.2936063889
 30
0.0
 11
304.339844345
 21
191.4736422185
 31
0.0
  0
ARC
  5
1D5
330
1F
100
AcDbEntity
  8
0
  6
Continuous
 62
     7
370
    15
100
AcDbCircle
 10
348.0366170062
 20
184.2936599173
 30
0.0
 40
7.000000000000114
100
AcDbArc
 50
0.0
 51
89.7640843231
  0
LINE
  5
1D6
330
1F
100
AcDbEntity
  8
0
  6
Continuous
 62
     7
370
    15
100
AcDbLine
 10
355.036604761
 20
184.2936667088
 30
0.0
 11
355.036604761
 21
93.2028012756
 31
0.0
  0
ARC
  5
1D7
330
1F
100
AcDbEntity
  8
0
  6
Continuous
 62
     7
370
    15
100
AcDbCircle
 10
348.0366170062
 20
93.2027998615
 30
0.0
 40
7.000000000000114
100
AcDbArc
 50
270.2359156769
 51
0.0
  0
LINE
  5
1D8
330
1F
100
AcDbEntity
  8
0
  6
Continuous
 62
     7
370
    15
100
AcDbLine
 10
304.339844345
 20
86.0228183154
 30
0.0
 11
348.0654541244
 21
86.2028615955
 31
0.0
  0
ARC
  5
1D9
330
1F
100
AcDbEntity
  8
0
  6
Continuous
 62
     7
370
    15
100
AcDbCircle
 10
304.334899172
 20
87.2228076225
 30
0.0
 40
1.200000000000073
100
AcDbArc
 50
232.1026559738
 51
270.2359156769
  0
ARC
  5
1DA
330
1F
100
AcDbEntity
  8
0
  6
Continuous
 62
     7
370
    15
100
AcDbCircle
 10
301.5431391893
 20
83.6362910397
 30
0.0
 40
3.345000000000034
100
AcDbArc
 50
52.1026559738
 51
218.3312400867
  0
ARC
  5
1DB
330
1F
100
AcDbEntity
  8
0
  6
Continuous
 62
     7
370
    15
100
AcDbCircle
 10
297.9778670062
 20
80.8174509838
 30
0.0
 40
1.200000000000102
100
AcDbArc
 50
0.0
 51
38.3312400867
  0
LINE
  5
1DC
330
1F
100
AcDbEntity
  8
0
  6
Continuous
 62
     7
370
    15
100
AcDbLine
 10
299.1778734912
 20
78.8456740264
 30
0.0
 11
299.1778734912
 21
80.8174478296
 31
0.0
  0
ARC
  5
1DD
330
1F
100
AcDbEntity
  8
0
  6
Continuous
 62
     7
370
    15
100
AcDbCircle
 10
297.9778670062
 20
78.8456754617
 30
0.0
 40
1.200000000000102
100
AcDbArc
 50
321.6687599133
 51
0.0
  0
ARC
  5
1DE
330
1F
100
AcDbEntity
  8
0
  6
Continuous
 62
     7
370
    15
100
AcDbCircle
 10
301.5431391893
 20
76.0268354058
 30
0.0
 40
3.345000000000034
100
AcDbArc
 50
141.6687599133
 51
307.8973440262
  0
ARC
  5
1DF
330
1F
100
AcDbEntity
  8
0
  6
Continuous
 62
     7
370
    15
100
AcDbCircle
 10
304.334899172
 20
72.440318823
 30
0.0
 40
1.200000000000073
100
AcDbArc
 50
89.7640843231
 51
127.8973440262
  0
LINE
  5
1E0
330
1F
100
AcDbEntity
  8
0
  6
Continuous
 62
     7
370
    15
100
AcDbLine
 10
348.0654541244
 20
73.460267711
 30
0.0
 11
304.339844345
 21
73.6403109912
 31
0.0
  0
ARC
  5
1E1
330
1F
100
AcDbEntity
  8
0
  6
Continuous
 62
     7
370
    15
100
AcDbCircle
 10
348.0366170062
 20
66.460326584
 30
0.0
 40
7.000000000000114
100
AcDbArc
 50
0.0
 51
89.7640843231
  0
LINE
  5
1E2
330
1F
100
AcDbEntity
  8
0
  6
Continuous
 62
     7
370
    15
100
AcDbLine
 10
355.036604761
 20
66.4603280309
 30
0.0
 11
355.036604761
 21
26.8315634165
 31
0.0
  0
ARC
  5
1E3
330
1F
100
AcDbEntity
  8
0
  6
Continuous
 62
     7
370
    15
100
AcDbCircle
 10
348.0366170062
 20
26.8315632228
 30
0.0
 40
7.000000000000114
100
AcDbArc
 50
270.0
 51
0.0
  0
LINE
  5
1E4
330
1F
100
AcDbEntity
  8
0
  6
Continuous
 62
     7
370
    15
100
AcDbLine
 10
348.0366054763
 20
19.8315641317
 30
0.0
 11
26.8841177066
 21
19.8315641317
 31
0.0
  0
ARC
  5
1E5
330
1F
100
AcDbEntity
  8
0
  6
Continuous
 62
     7
370
    15
100
AcDbCircle
 10
26.8841170062
 20
26.8315632228
 30
0.0
 40
7.000000000000007
100
AcDbArc
 50
180.0
 51
270.0
  0
LINE
  5
1E6
330
1F
100
AcDbEntity
  8
0
  6
Continuous
 62
     7
370
    15
100
AcDbLine
 10
19.8841165592
 20
26.8315634165
 30
0.0
 11
19.8841165592
 21
66.4411651376
 31
0.0
  0
ARC
  5
1E7
330
1F
100
AcDbEntity
  8
0
  6
Continuous
 62
     7
370
    15
100
AcDbCircle
 10
26.8841170062
 20
66.4411641962
 30
0.0
 40
6.999999999999939
100
AcDbArc
 50
90.078638954
 51
180.0
  0
LINE
  5
1E8
330
1F
100
AcDbEntity
  8
0
  6
Continuous
 62
     7
370
    15
100
AcDbLine
 10
182.2836134423
 20
73.6544596437
 30
0.0
 11
26.8745101829
 21
73.4411569718
 31
0.0
  0
ARC
  5
1E9
330
1F
100
AcDbEntity
  8
0
  6
Continuous
 62
     7
370
    15
100
AcDbCircle
 10
182.2852632732
 20
72.4544592133
 30
0.0
 40
1.200000000000116
100
AcDbArc
 50
51.8133871262
 51
90.078638954
  0
ARC
  5
1EA
330
1F
100
AcDbEntity
  8
0
  6
Continuous
 62
     7
370
    15
100
AcDbCircle
 10
185.0950948231
 20
76.0268354058
 30
0.0
 40
3.345000000000011
100
AcDbArc
 50
231.8133871262
 51
38.3312400867
  0
ARC
  5
1EB
330
1F
100
AcDbEntity
  8
0
  6
Continuous
 62
     7
370
    15
100
AcDbCircle
 10
188.6603670062
 20
78.8456754617
 30
0.0
 40
1.200000000000002
100
AcDbArc
 50
180.0
 51
218.3312400867
  0
LINE
  5
1EC
330
1F
100
AcDbEntity
  8
0
  6
Continuous
 62
     7
370
    15
100
AcDbLine
 10
187.460366248
 20
80.8174478296
 30
0.0
 11
187.460366248
 21
78.8456740264
 31
0.0
  0
ARC
  5
1ED
330
1F
100
AcDbEntity
  8
0
  6
Continuous
 62
     7
370
    15
100
AcDbCircle
 10
188.6603670062
 20
80.8174509838
 30
0.0
 40
1.19999999999994
100
AcDbArc
 50
141.6687599133
 51
180.0
  0
ARC
  5
1EE
330
1F
100
AcDbEntity
  8
0
  6
Continuous
 62
     7
370
    15
100
AcDbCircle
 10
185.0950948231
 20
83.6362910397
 30
0.0
 40
3.345000000000073
100
AcDbArc
 50
321.6687599133
 51
128.1866128738
  0
ARC
  5
1EF
330
1F
100
AcDbEntity
  8
0
  6
Continuous
 62
     7
370
    15
100
AcDbCircle
 10
182.2852632732
 20
87.2086672322
 30
0.0
 40
1.200000000000116
100
AcDbArc
 50
269.921361046
 51
308.1866128738
  0
LINE
  5
1F0
330
1F
100
AcDbEntity
  8
0
  6
Continuous
 62
     7
370
    15
100
AcDbLine
 10
26.8745101829
 20
86.2219723347
 30
0.0
 11
182.2836134423
 21
86.0086696628
 31
0.0
  0
ARC
  5
1F1
330
1F
100
AcDbEntity
  8
0
  6
Continuous
 62
     7
370
    15
100
AcDbCircle
 10
26.8841170062
 20
93.2219622493
 30
0.0
 40
7.000000000000038
100
AcDbArc
 50
180.0
 51
269.921361046
  0
LINE
  5
1F2
330
1F
100
AcDbEntity
  8
0
  6
Continuous
 62
     7
370
    15
100
AcDbLine
 10
19.8841165592
 20
93.2219641689
 30
0.0
 11
19.8841165592
 21
1126.9411089305
 31
0.0
  0
ARC
  5
1F3
330
1F
100
AcDbEntity
  8
0
  6
Continuous
 62
     7
370
    15
100
AcDbCircle
 10
26.8841170062
 20
1126.9411641962
 30
0.0
 40
7.000000000000114
100
AcDbArc
 50
90.078638954
 51
180.0
  0
LINE
  5
1F4
330
1F
100
AcDbEntity
  8
0
  6
Continuous
 62
     7
370
    15
100
AcDbLine
 10
26.8745101829
 20
1133.9411976222
 30
0.0
 11
182.2836134423
 21
1134.1544630412
 31
0.0
  0
ARC
  5
1F5
330
1F
100
AcDbEntity
  8
0
  6
Continuous
 62
     7
370
    15
100
AcDbCircle
 10
182.2852632732
 20
1132.9544592133
 30
0.0
 40
1.200000000000401
100
AcDbArc
 50
51.8133871262
 51
90.078638954
  0
ARC
  5
1F6
330
1F
100
AcDbEntity
  8
0
  6
Continuous
 62
     7
370
    15
100
AcDbCircle
 10
185.0950948231
 20
1136.5268354058
 30
0.0
 40
3.345000000000075
100
AcDbArc
 50
231.8133871262
 51
38.3312400867
  0
ARC
  5
1F7
330
1F
100
AcDbEntity
  8
0
  6
Continuous
 62
     7
370
    15
100
AcDbCircle
 10
188.6603670062
 20
1139.3456754617
 30
0.0
 40
1.200000000000161
100
AcDbArc
 50
180.0
 51
218.3312400867
  0
LINE
  5
1F8
330
1F
100
AcDbEntity
  8
0
  6
Continuous
 62
     7
370
    15
100
AcDbLine
 10
187.460366248
 20
1139.3456699732
 30
0.0
 11
187.460366248
 21
1141.3173916224
 31
0.0
  0
ARC
  5
1F9
330
1F
100
AcDbEntity
  8
0
  6
Continuous
 62
     7
370
    15
100
AcDbCircle
 10
188.6603670062
 20
1141.3174509838
 30
0.0
 40
1.200000000000074
100
AcDbArc
 50
141.6687599133
 51
180.0
  0
ARC
  5
1FA
330
1F
100
AcDbEntity
  8
0
  6
Continuous
 62
     7
370
    15
100
AcDbCircle
 10
185.0950948231
 20
1144.1362910397
 30
0.0
 40
3.345000000000134
100
AcDbArc
 50
321.6687599133
 51
128.1866128738
  0
ARC
  5
1FB
330
1F
100
AcDbEntity
  8
0
  6
Continuous
 62
     7
370
    15
100
AcDbCircle
 10
182.2852632732
 20
1147.7086672322
 30
0.0
 40
1.199999999999947
100
AcDbArc
 50
269.921361046
 51
308.1866128738
  0
LINE
  5
1FC
330
1F
100
AcDbEntity
  8
0
  6
Continuous
 62
     7
370
    15
100
AcDbLine
 10
182.2836134423
 20
1146.5087177638
 30
0.0
 11
26.8745101829
 21
1146.7219831828
 31
0.0
  0
ARC
  5
1FD
330
1F
100
AcDbEntity
  8
0
  6
Continuous
 62
     7
370
    15
100
AcDbCircle
 10
26.8841170062
 20
1153.7219622493
 30
0.0
 40
7.000000000000294
100
AcDbArc
 50
180.0
 51
269.921361046
  0
LINE
  5
1FE
330
1F
100
AcDbEntity
  8
0
  6
Continuous
 62
     7
370
    15
100
AcDbLine
 10
19.8841165592
 20
1193.3315040949
 30
0.0
 11
19.8841165592
 21
1153.7219526652
 31
0.0
  0
ARC
  5
1FF
330
1F
100
AcDbEntity
  8
0
  6
Continuous
 62
     7
370
    15
100
AcDbCircle
 10
26.8841170062
 20
1193.3315632228
 30
0.0
 40
7.0
100
AcDbArc
 50
90.0
 51
180.0
  0
LINE
  5
200
330
1F
100
AcDbEntity
  8
0
  6
Continuous
 62
     7
370
    15
100
AcDbLine
 10
348.0366054763
 20
1200.3315927867
 30
0.0
 11
26.8841177066
 21
1200.3315927867
 31
0.0
  0
ARC
  5
201
330
1F
100
AcDbEntity
  8
0
  6
Continuous
 62
     7
370
    15
100
AcDbCircle
 10
348.0366170062
 20
1193.3315632228
 30
0.0
 40
7.0
100
AcDbArc
 50
0.0
 51
90.0
  0
LINE
  5
202
330
1F
100
AcDbEntity
  8
0
  6
Continuous
 62
     7
370
    15
100
AcDbLine
 10
355.036604761
 20
1153.7027599696
 30
0.0
 11
355.036604761
 21
1193.3315040949
 31
0.0
  0
ARC
  5
203
330
1F
100
AcDbEntity
  8
0
  6
Continuous
 62
     7
370
    15
100
AcDbCircle
 10
348.0366170062
 20
1153.7027998615
 30
0.0
 40
6.999999999999991
100
AcDbArc
 50
270.2359156769
 51
0.0
  0
LINE
  5
204
330
1F
100
AcDbEntity
  8
0
  6
Continuous
 62
     7
370
    15
100
AcDbLine
 10
348.0654541244
 20
1146.7029096964
 30
0.0
 11
304.339844345
 21
1146.5227844599
 31
0.0
  0
ARC
  5
205
330
1F
100
AcDbEntity
  8
0
  6
Continuous
 62
     7
370
    15
100
AcDbCircle
 10
304.334899172
 20
1147.7228076225
 30
0.0
 40
1.199999999999821
100
AcDbArc
 50
232.1026559738
 51
270.2359156769
  0
ARC
  5
206
330
1F
100
AcDbEntity
  8
0
  6
Continuous
 62
     7
370
    15
100
AcDbCircle
 10
301.5431391893
 20
1144.1362910397
 30
0.0
 40
3.345000000000157
100
AcDbArc
 50
52.1026559738
 51
218.3312400867
  0
ARC
  5
207
330
1F
100
AcDbEntity
  8
0
  6
Continuous
 62
     7
370
    15
100
AcDbCircle
 10
297.9778670062
 20
1141.3174509838
 30
0.0
 40
1.199999999999875
100
AcDbArc
 50
0.0
 51
38.3312400867
  0
LINE
  5
208
330
1F
100
AcDbEntity
  8
0
  6
Continuous
 62
     7
370
    15
100
AcDbLine
 10
299.1778734912
 20
1141.3173916224
 30
0.0
 11
299.1778734912
 21
1139.3456699732
 31
0.0
  0
ARC
  5
209
330
1F
100
AcDbEntity
  8
0
  6
Continuous
 62
     7
370
    15
100
AcDbCircle
 10
297.9778670062
 20
1139.3456754617
 30
0.0
 40
1.200000000000139
100
AcDbArc
 50
321.6687599133
 51
0.0
  0
ARC
  5
20A
330
1F
100
AcDbEntity
  8
0
  6
Continuous
 62
     7
370
    15
100
AcDbCircle
 10
301.5431391893
 20
1136.5268354058
 30
0.0
 40
3.345000000000111
100
AcDbArc
 50
141.6687599133
 51
307.8973440262
  0
ARC
  5
20B
330
1F
100
AcDbEntity
  8
0
  6
Continuous
 62
     7
370
    15
100
AcDbCircle
 10
304.334899172
 20
1132.940318823
 30
0.0
 40
1.20000000000018
100
AcDbArc
 50
89.7640843231
 51
127.8973440262
  0
LINE
  5
20C
330
1F
100
AcDbEntity
  8
0
  6
Continuous
 62
     7
370
    15
100
AcDbLine
 10
304.339844345
 20
1134.1402771357
 30
0.0
 11
348.0654541244
 21
1133.9602711085
 31
0.0
  0
ARC
  5
20D
330
1F
100
AcDbEntity
  8
0
  6
Continuous
 62
     7
370
    15
100
AcDbCircle
 10
348.0366170062
 20
1126.960326584
 30
0.0
 40
6.999999999999991
100
AcDbArc
 50
0.0
 51
89.7640843231
  0
LINE
  5
20E
330
1F
100
AcDbEntity
  8
0
  6
Continuous
 62
     7
370
    15
100
AcDbLine
 10
355.036604761
 20
1035.8695032481
 30
0.0
 11
355.036604761
 21
1126.9603016261
 31
0.0
  0
ARC
  5
20F
330
1F
100
AcDbEntity
  8
0
  6
Continuous
 62
     7
370
    15
100
AcDbCircle
 10
348.0366170062
 20
1035.8694665282
 30
0.0
 40
6.999999999999991
100
AcDbArc
 50
270.2359156769
 51
0.0
  0
LINE
  5
210
330
1F
100
AcDbEntity
  8
0
  6
Continuous
 62
     7
370
    15
100
AcDbLine
 10
348.0654541244
 20
1028.8695337657
 30
0.0
 11
304.339844345
 21
1028.6895277384
 31
0.0
  0
ARC
  5
211
330
1F
100
AcDbEntity
  8
0
  6
Continuous
 62
     7
370
    15
100
AcDbCircle
 10
304.334899172
 20
1029.8894742892
 30
0.0
 40
1.20000000000018
100
AcDbArc
 50
232.1026559738
 51
270.2359156769
  0
ARC
  5
212
330
1F
100
AcDbEntity
  8
0
  6
Continuous
 62
     7
370
    15
100
AcDbCircle
 10
301.5431391893
 20
1026.3029577063
 30
0.0
 40
3.345000000000111
100
AcDbArc
 50
52.1026559738
 51
218.3312400867
  0
ARC
  5
213
330
1F
100
AcDbEntity
  8
0
  6
Continuous
 62
     7
370
    15
100
AcDbCircle
 10
297.9778670062
 20
1023.4841176505
 30
0.0
 40
1.199999999999998
100
AcDbArc
 50
0.0
 51
38.3312400867
  0
LINE
  5
214
330
1F
100
AcDbEntity
  8
0
  6
Continuous
 62
     7
370
    15
100
AcDbLine
 10
299.1778734912
 20
1023.4841349009
 30
0.0
 11
299.1778734912
 21
1021.5122940425
 31
0.0
  0
ARC
  5
215
330
1F
100
AcDbEntity
  8
0
  6
Continuous
 62
     7
370
    15
100
AcDbCircle
 10
297.9778670062
 20
1021.5123421284
 30
0.0
 40
1.199999999999875
100
AcDbArc
 50
321.6687599133
 51
0.0
  0
ARC
  5
216
330
1F
100
AcDbEntity
  8
0
  6
Continuous
 62
     7
370
    15
100
AcDbCircle
 10
301.5431391893
 20
1018.6935020725
 30
0.0
 40
3.345000000000111
100
AcDbArc
 50
141.6687599133
 51
307.8973440262
  0
ARC
  5
217
330
1F
100
AcDbEntity
  8
0
  6
Continuous
 62
     7
370
    15
100
AcDbCircle
 10
304.334899172
 20
1015.1069854897
 30
0.0
 40
1.199999999999821
100
AcDbArc
 50
89.7640843231
 51
127.8973440262
  0
LINE
  5
218
330
1F
100
AcDbEntity
  8
0
  6
Continuous
 62
     7
370
    15
100
AcDbLine
 10
304.339844345
 20
1016.3070204142
 30
0.0
 11
348.0654541244
 21
1016.1268951777
 31
0.0
  0
ARC
  5
219
330
1F
100
AcDbEntity
  8
0
  6
Continuous
 62
     7
370
    15
100
AcDbCircle
 10
348.0366170062
 20
1009.1269932506
 30
0.0
 40
6.999999999999886
100
AcDbArc
 50
0.0
 51
89.7640843231
  0
LINE
  5
21A
330
1F
100
AcDbEntity
  8
0
  6
Continuous
 62
     7
370
    15
100
AcDbLine
 10
355.036604761
 20
918.0361273173
 30
0.0
 11
355.036604761
 21
1009.1270449046
 31
0.0
  0
ARC
  5
21B
330
1F
100
AcDbEntity
  8
0
  6
Continuous
 62
     7
370
    15
100
AcDbCircle
 10
348.0366170062
 20
918.0361331949
 30
0.0
 40
7.000000000000105
100
AcDbArc
 50
270.2359156769
 51
0.0
  0
LINE
  5
21C
330
1F
100
AcDbEntity
  8
0
  6
Continuous
 62
     7
370
    15
100
AcDbLine
 10
348.0654541244
 20
911.0362174395
 30
0.0
 11
304.339844345
 21
910.8561518077
 31
0.0
  0
ARC
  5
21D
330
1F
100
AcDbEntity
  8
0
  6
Continuous
 62
     7
370
    15
100
AcDbCircle
 10
304.334899172
 20
912.0561409558
 30
0.0
 40
1.199999999999821
100
AcDbArc
 50
232.1026559738
 51
270.2359156769
  0
ARC
  5
21E
330
1F
100
AcDbEntity
  8
0
  6
Continuous
 62
     7
370
    15
100
AcDbCircle
 10
301.5431391893
 20
908.469624373
 30
0.0
 40
3.345000000000111
100
AcDbArc
 50
52.1026559738
 51
218.3312400867
  0
ARC
  5
21F
330
1F
100
AcDbEntity
  8
0
  6
Continuous
 62
     7
370
    15
100
AcDbCircle
 10
297.9778670062
 20
905.6507843171
 30
0.0
 40
1.199999999999927
100
AcDbArc
 50
0.0
 51
38.3312400867
  0
LINE
  5
220
330
1F
100
AcDbEntity
  8
0
  6
Continuous
 62
     7
370
    15
100
AcDbLine
 10
299.1778734912
 20
905.6507589701
 30
0.0
 11
299.1778734912
 21
903.679037321
 31
0.0
  0
ARC
  5
221
330
1F
100
AcDbEntity
  8
0
  6
Continuous
 62
     7
370
    15
100
AcDbCircle
 10
297.9778670062
 20
903.679008795
 30
0.0
 40
1.199999999999927
100
AcDbArc
 50
321.6687599133
 51
0.0
  0
ARC
  5
222
330
1F
100
AcDbEntity
  8
0
  6
Continuous
 62
     7
370
    15
100
AcDbCircle
 10
301.5431391893
 20
900.8601687392
 30
0.0
 40
3.345000000000111
100
AcDbArc
 50
141.6687599133
 51
307.8973440262
  0
ARC
  5
223
330
1F
100
AcDbEntity
  8
0
  6
Continuous
 62
     7
370
    15
100
AcDbCircle
 10
304.334899172
 20
897.2736521563
 30
0.0
 40
1.200000000000028
100
AcDbArc
 50
89.7640843231
 51
127.8973440262
  0
LINE
  5
224
330
1F
100
AcDbEntity
  8
0
  6
Continuous
 62
     7
370
    15
100
AcDbLine
 10
304.339844345
 20
898.4736444834
 30
0.0
 11
348.0654541244
 21
898.2935788516
 31
0.0
  0
ARC
  5
225
330
1F
100
AcDbEntity
  8
0
  6
Continuous
 62
     7
370
    15
100
AcDbCircle
 10
348.0366170062
 20
891.2936599173
 30
0.0
 40
6.999999999999991
100
AcDbArc
 50
0.0
 51
89.7640843231
  0
LINE
  5
226
330
1F
100
AcDbEntity
  8
0
  6
Continuous
 62
     7
370
    15
100
AcDbLine
 10
355.036604761
 20
800.2028109912
 30
0.0
 11
355.036604761
 21
891.2936689738
 31
0.0
  0
ARC
  5
227
330
1F
100
AcDbEntity
  8
0
  6
Continuous
 62
     7
370
    15
100
AcDbCircle
 10
348.0366170062
 20
800.2027998615
 30
0.0
 40
6.999999999999991
100
AcDbArc
 50
270.2359156769
 51
0.0
  0
LINE
  5
228
330
1F
100
AcDbEntity
  8
0
  6
Continuous
 62
     7
370
    15
100
AcDbLine
 10
348.0654541244
 20
793.2028415087
 30
0.0
 11
304.339844345
 21
793.0228354815
 31
0.0
  0
ARC
  5
229
330
1F
100
AcDbEntity
  8
0
  6
Continuous
 62
     7
370
    15
100
AcDbCircle
 10
304.334899172
 20
794.2228076225
 30
0.0
 40
1.199999999999914
100
AcDbArc
 50
232.1026559738
 51
270.2359156769
  0
ARC
  5
22A
330
1F
100
AcDbEntity
  8
0
  6
Continuous
 62
     7
370
    15
100
AcDbCircle
 10
301.5431391893
 20
790.6362910397
 30
0.0
 40
3.345000000000086
100
AcDbArc
 50
52.1026559738
 51
218.3312400867
  0
ARC
  5
22B
330
1F
100
AcDbEntity
  8
0
  6
Continuous
 62
     7
370
    15
100
AcDbCircle
 10
297.9778670062
 20
787.8174509838
 30
0.0
 40
1.199999999999875
100
AcDbArc
 50
0.0
 51
38.3312400867
  0
LINE
  5
22C
330
1F
100
AcDbEntity
  8
0
  6
Continuous
 62
     7
370
    15
100
AcDbLine
 10
299.1778734912
 20
787.817442644
 30
0.0
 11
299.1778734912
 21
785.8456613902
 31
0.0
  0
ARC
  5
22D
330
1F
100
AcDbEntity
  8
0
  6
Continuous
 62
     7
370
    15
100
AcDbCircle
 10
297.9778670062
 20
785.8456754617
 30
0.0
 40
1.199999999999927
100
AcDbArc
 50
321.6687599133
 51
0.0
  0
ARC
  5
22E
330
1F
100
AcDbEntity
  8
0
  6
Continuous
 62
     7
370
    15
100
AcDbCircle
 10
301.5431391893
 20
783.0268354058
 30
0.0
 40
3.345000000000086
100
AcDbArc
 50
141.6687599133
 51
307.8973440262
  0
ARC
  5
22F
330
1F
100
AcDbEntity
  8
0
  6
Continuous
 62
     7
370
    15
100
AcDbCircle
 10
304.334899172
 20
779.440318823
 30
0.0
 40
1.199999999999914
100
AcDbArc
 50
89.7640843231
 51
127.8973440262
  0
LINE
  5
230
330
1F
100
AcDbEntity
  8
0
  6
Continuous
 62
     7
370
    15
100
AcDbLine
 10
304.339844345
 20
780.6403281573
 30
0.0
 11
348.0654541244
 21
780.4602625254
 31
0.0
  0
ARC
  5
231
330
1F
100
AcDbEntity
  8
0
  6
Continuous
 62
     7
370
    15
100
AcDbCircle
 10
348.0366170062
 20
773.460326584
 30
0.0
 40
7.000000000000105
100
AcDbArc
 50
0.0
 51
89.7640843231
  0
LINE
  5
232
330
1F
100
AcDbEntity
  8
0
  6
Continuous
 62
     7
370
    15
100
AcDbLine
 10
355.036604761
 20
682.369494665
 30
0.0
 11
355.036604761
 21
773.4603526476
 31
0.0
  0
ARC
  5
233
330
1F
100
AcDbEntity
  8
0
  6
Continuous
 62
     7
370
    15
100
AcDbCircle
 10
348.0366170062
 20
682.3694665282
 30
0.0
 40
7.000000000000105
100
AcDbArc
 50
270.2359156769
 51
0.0
  0
LINE
  5
234
330
1F
100
AcDbEntity
  8
0
  6
Continuous
 62
     7
370
    15
100
AcDbLine
 10
348.0654541244
 20
675.3695251826
 30
0.0
 11
304.339844345
 21
675.1894595507
 31
0.0
  0
ARC
  5
235
330
1F
100
AcDbEntity
  8
0
  6
Continuous
 62
     7
370
    15
100
AcDbCircle
 10
304.334899172
 20
676.3894742892
 30
0.0
 40
1.199999999999981
100
AcDbArc
 50
232.1026559738
 51
270.2359156769
  0
ARC
  5
236
330
1F
100
AcDbEntity
  8
0
  6
Continuous
 62
     7
370
    15
100
AcDbCircle
 10
301.5431391893
 20
672.8029577063
 30
0.0
 40
3.345000000000022
100
AcDbArc
 50
52.1026559738
 51
218.3312400867
  0
ARC
  5
237
330
1F
100
AcDbEntity
  8
0
  6
Continuous
 62
     7
370
    15
100
AcDbCircle
 10
297.9778670062
 20
669.9841176505
 30
0.0
 40
1.199999999999989
100
AcDbArc
 50
0.0
 51
38.3312400867
  0
LINE
  5
238
330
1F
100
AcDbEntity
  8
0
  6
Continuous
 62
     7
370
    15
100
AcDbLine
 10
299.1778734912
 20
669.9841263178
 30
0.0
 11
299.1778734912
 21
668.012345064
 31
0.0
  0
ARC
  5
239
330
1F
100
AcDbEntity
  8
0
  6
Continuous
 62
     7
370
    15
100
AcDbCircle
 10
297.9778670062
 20
668.0123421284
 30
0.0
 40
1.199999999999989
100
AcDbArc
 50
321.6687599133
 51
0.0
  0
ARC
  5
23A
330
1F
100
AcDbEntity
  8
0
  6
Continuous
 62
     7
370
    15
100
AcDbCircle
 10
301.5431391893
 20
665.1935020725
 30
0.0
 40
3.345000000000111
100
AcDbArc
 50
141.6687599133
 51
307.8973440262
  0
ARC
  5
23B
330
1F
100
AcDbEntity
  8
0
  6
Continuous
 62
     7
370
    15
100
AcDbCircle
 10
304.334899172
 20
661.6069854897
 30
0.0
 40
1.199999999999914
100
AcDbArc
 50
89.7640843231
 51
127.8973440262
  0
LINE
  5
23C
330
1F
100
AcDbEntity
  8
0
  6
Continuous
 62
     7
370
    15
100
AcDbLine
 10
304.339844345
 20
662.8069522265
 30
0.0
 11
348.0654541244
 21
662.6269461993
 31
0.0
  0
ARC
  5
23D
330
1F
100
AcDbEntity
  8
0
  6
Continuous
 62
     7
370
    15
100
AcDbCircle
 10
348.0366170062
 20
655.6269932506
 30
0.0
 40
7.0
100
AcDbArc
 50
0.0
 51
89.7640843231
  0
LINE
  5
23E
330
1F
100
AcDbEntity
  8
0
  6
Continuous
 62
     7
370
    15
100
AcDbLine
 10
355.036604761
 20
655.6269767169
 30
0.0
 11
355.036604761
 21
564.5361187342
 31
0.0
  0
ARC
  5
23F
330
1F
100
AcDbEntity
  8
0
  6
Continuous
 62
     7
370
    15
100
AcDbCircle
 10
348.0366170062
 20
564.5361331949
 30
0.0
 40
7.0
100
AcDbArc
 50
270.2359156769
 51
0.0
  0
LINE
  5
240
330
1F
100
AcDbEntity
  8
0
  6
Continuous
 62
     7
370
    15
100
AcDbLine
 10
304.339844345
 20
557.3561432246
 30
0.0
 11
348.0654541244
 21
557.5362088564
 31
0.0
  0
ARC
  5
241
330
1F
100
AcDbEntity
  8
0
  6
Continuous
 62
     7
370
    15
100
AcDbCircle
 10
304.334899172
 20
558.5561409558
 30
0.0
 40
1.200000000000028
100
AcDbArc
 50
232.1026559738
 51
270.2359156769
  0
ARC
  5
242
330
1F
100
AcDbEntity
  8
0
  6
Continuous
 62
     7
370
    15
100
AcDbCircle
 10
301.5431391893
 20
554.969624373
 30
0.0
 40
3.345000000000111
100
AcDbArc
 50
52.1026559738
 51
218.3312400867
  0
ARC
  5
243
330
1F
100
AcDbEntity
  8
0
  6
Continuous
 62
     7
370
    15
100
AcDbCircle
 10
297.9778670062
 20
552.1507843171
 30
0.0
 40
1.199999999999989
100
AcDbArc
 50
0.0
 51
38.3312400867
  0
LINE
  5
244
330
1F
100
AcDbEntity
  8
0
  6
Continuous
 62
     7
370
    15
100
AcDbLine
 10
299.1778734912
 20
550.1790287379
 30
0.0
 11
299.1778734912
 21
552.1508099917
 31
0.0
  0
ARC
  5
245
330
1F
100
AcDbEntity
  8
0
  6
Continuous
 62
     7
370
    15
100
AcDbCircle
 10
297.9778670062
 20
550.179008795
 30
0.0
 40
1.199999999999989
100
AcDbArc
 50
321.6687599133
 51
0.0
  0
ARC
  5
246
330
1F
100
AcDbEntity
  8
0
  6
Continuous
 62
     7
370
    15
100
AcDbCircle
 10
301.5431391893
 20
547.3601687392
 30
0.0
 40
3.345000000000022
100
AcDbArc
 50
141.6687599133
 51
307.8973440262
  0
ARC
  5
247
330
1F
100
AcDbEntity
  8
0
  6
Continuous
 62
     7
370
    15
100
AcDbCircle
 10
304.334899172
 20
543.7736521563
 30
0.0
 40
1.200000000000071
100
AcDbArc
 50
89.7640843231
 51
127.8973440262
  0
LINE
  5
248
330
1F
100
AcDbEntity
  8
0
  6
Continuous
 62
     7
370
    15
100
AcDbLine
 10
348.0654541244
 20
544.7936298731
 30
0.0
 11
304.339844345
 21
544.9736359004
 31
0.0
  0
ARC
  5
249
330
1F
100
AcDbEntity
  8
0
  6
Continuous
 62
     7
370
    15
100
AcDbCircle
 10
348.0366170062
 20
537.7936599173
 30
0.0
 40
7.0
100
AcDbArc
 50
0.0
 51
89.7640843231
  0
LINE
  5
24A
330
1F
100
AcDbEntity
  8
0
  6
Continuous
 62
     7
370
    15
100
AcDbLine
 10
355.036604761
 20
537.7936603907
 30
0.0
 11
355.036604761
 21
446.7028024081
 31
0.0
  0
ARC
  5
24B
330
1F
100
AcDbEntity
  8
0
  6
Continuous
 62
     7
370
    15
100
AcDbCircle
 10
959.6241170062
 20
446.7027998615
 30
0.0
 40
7.0
100
AcDbArc
 50
270.2359156769
 51
0.0
  0
ARC
  5
24C
330
1F
100
AcDbEntity
  8
0
  6
Continuous
 62
     7
370
    15
100
AcDbCircle
 10
915.922399172
 20
440.7228076225
 30
0.0
 40
1.199999999999981
100
AcDbArc
 50
232.1026559738
 51
270.2359156769
  0
ARC
  5
24D
330
1F
100
AcDbEntity
  8
0
  6
Continuous
 62
     7
370
    15
100
AcDbCircle
 10
913.1306391893
 20
437.1362910397
 30
0.0
 40
3.345000000000056
100
AcDbArc
 50
52.1026559738
 51
218.3312400867
  0
ARC
  5
24E
330
1F
100
AcDbEntity
  8
0
  6
Continuous
 62
     7
370
    15
100
AcDbCircle
 10
909.5653670062
 20
434.3174509838
 30
0.0
 40
1.199999999999932
100
AcDbArc
 50
0.0
 51
38.3312400867
  0
LINE
  5
24F
330
1F
100
AcDbEntity
  8
0
  6
Continuous
 62
     7
370
    15
100
AcDbLine
 10
910.7653383006
 20
432.3456826094
 30
0.0
 11
910.7653383006
 21
434.3174638632
 31
0.0
  0
ARC
  5
250
330
1F
100
AcDbEntity
  8
0
  6
Continuous
 62
     7
370
    15
100
AcDbCircle
 10
909.5653670062
 20
432.3456754617
 30
0.0
 40
1.199999999999932
100
AcDbArc
 50
321.6687599133
 51
0.0
  0
ARC
  5
251
330
1F
100
AcDbEntity
  8
0
  6
Continuous
 62
     7
370
    15
100
AcDbCircle
 10
913.1306391893
 20
429.5268354058
 30
0.0
 40
3.345000000000101
100
AcDbArc
 50
141.6687599133
 51
307.8973440262
  0
ARC
  5
252
330
1F
100
AcDbEntity
  8
0
  6
Continuous
 62
     7
370
    15
100
AcDbCircle
 10
915.922399172
 20
425.940318823
 30
0.0
 40
1.199999999999981
100
AcDbArc
 50
89.7640843231
 51
127.8973440262
  0
LINE
  5
253
330
1F
100
AcDbEntity
  8
0
  6
Continuous
 62
     7
370
    15
100
AcDbLine
 10
959.6529487361
 20
426.9602539424
 30
0.0
 11
915.9273389567
 21
427.1403195742
 31
0.0
  0
ARC
  5
254
330
1F
100
AcDbEntity
  8
0
  6
Continuous
 62
     7
370
    15
100
AcDbCircle
 10
959.6241170062
 20
419.960326584
 30
0.0
 40
7.000000000000048
100
AcDbArc
 50
0.0
 51
89.7640843231
  0
LINE
  5
255
330
1F
100
AcDbEntity
  8
0
  6
Continuous
 62
     7
370
    15
100
AcDbLine
 10
966.6241291751
 20
419.9603142623
 30
0.0
 11
966.6241291751
 21
328.8694562796
 31
0.0
  0
ARC
  5
256
330
1F
100
AcDbEntity
  8
0
  6
Continuous
 62
     7
370
    15
100
AcDbCircle
 10
959.6241170062
 20
328.8694665282
 30
0.0
 40
7.000000000000048
100
AcDbArc
 50
270.2359156769
 51
0.0
  0
LINE
  5
257
330
1F
100
AcDbEntity
  8
0
  6
Continuous
 62
     7
370
    15
100
AcDbLine
 10
915.9273389567
 20
321.68948077
 30
0.0
 11
959.6529487361
 21
321.8695165995
 31
0.0
  0
ARC
  5
258
330
1F
100
AcDbEntity
  8
0
  6
Continuous
 62
     7
370
    15
100
AcDbCircle
 10
915.922399172
 20
322.8894742892
 30
0.0
 40
1.199999999999971
100
AcDbArc
 50
232.1026559738
 51
270.2359156769
  0
LINE
  5
259
330
1F
100
AcDbEntity
  8
0
  6
Continuous
 62
     7
370
    15
100
AcDbLine
 10
910.7653383006
 20
314.512336481
 30
0.0
 11
910.7653383006
 21
316.4841177348
 31
0.0
  0
ARC
  5
25A
330
1F
100
AcDbEntity
  8
0
  6
Continuous
 62
     7
370
    15
100
AcDbCircle
 10
909.5653670062
 20
314.5123421284
 30
0.0
 40
1.199999999999932
100
AcDbArc
 50
321.6687599133
 51
0.0
  0
ARC
  5
25B
330
1F
100
AcDbEntity
  8
0
  6
Continuous
 62
     7
370
    15
100
AcDbCircle
 10
915.922399172
 20
308.1069854897
 30
0.0
 40
1.199999999999981
100
AcDbArc
 50
89.7640843231
 51
127.8973440262
  0
LINE
  5
25C
330
1F
100
AcDbEntity
  8
0
  6
Continuous
 62
     7
370
    15
100
AcDbLine
 10
959.6529487361
 20
309.1269376162
 30
0.0
 11
915.9273389567
 21
309.3069734458
 31
0.0
  0
ARC
  5
25D
330
1F
100
AcDbEntity
  8
0
  6
Continuous
 62
     7
370
    15
100
AcDbCircle
 10
959.6241170062
 20
302.1269932506
 30
0.0
 40
7.0
100
AcDbArc
 50
0.0
 51
89.7640843231
  0
LINE
  5
25E
330
1F
100
AcDbEntity
  8
0
  6
Continuous
 62
     7
370
    15
100
AcDbLine
 10
966.6241291751
 20
302.1269979361
 30
0.0
 11
966.6241291751
 21
211.0361399535
 31
0.0
  0
ARC
  5
25F
330
1F
100
AcDbEntity
  8
0
  6
Continuous
 62
     7
370
    15
100
AcDbCircle
 10
959.6241170062
 20
211.0361331949
 30
0.0
 40
7.000000000000114
100
AcDbArc
 50
270.2359156769
 51
0.0
  0
LINE
  5
260
330
1F
100
AcDbEntity
  8
0
  6
Continuous
 62
     7
370
    15
100
AcDbLine
 10
915.9273389567
 20
203.8561495427
 30
0.0
 11
959.6529487361
 21
204.0361853722
 31
0.0
  0
ARC
  5
261
330
1F
100
AcDbEntity
  8
0
  6
Continuous
 62
     7
370
    15
100
AcDbCircle
 10
915.922399172
 20
205.0561409558
 30
0.0
 40
1.200000000000073
100
AcDbArc
 50
232.1026559738
 51
270.2359156769
  0
ARC
  5
262
330
1F
100
AcDbEntity
  8
0
  6
Continuous
 62
     7
370
    15
100
AcDbCircle
 10
913.1306391893
 20
201.469624373
 30
0.0
 40
3.345000000000034
100
AcDbArc
 50
52.1026559738
 51
218.3312400867
  0
ARC
  5
263
330
1F
100
AcDbEntity
  8
0
  6
Continuous
 62
     7
370
    15
100
AcDbCircle
 10
909.5653670062
 20
198.6507843171
 30
0.0
 40
1.200000000000045
100
AcDbArc
 50
0.0
 51
38.3312400867
  0
LINE
  5
264
330
1F
100
AcDbEntity
  8
0
  6
Continuous
 62
     7
370
    15
100
AcDbLine
 10
959.6529487361
 20
191.2936063889
 30
0.0
 11
915.9273389567
 21
191.4736422185
 31
0.0
  0
ARC
  5
265
330
1F
100
AcDbEntity
  8
0
  6
Continuous
 62
     7
370
    15
100
AcDbCircle
 10
959.6241170062
 20
184.2936599173
 30
0.0
 40
7.000000000000114
100
AcDbArc
 50
0.0
 51
89.7640843231
  0
LINE
  5
266
330
1F
100
AcDbEntity
  8
0
  6
Continuous
 62
     7
370
    15
100
AcDbLine
 10
966.6241291751
 20
184.2936667088
 30
0.0
 11
966.6241291751
 21
93.2028012756
 31
0.0
  0
ARC
  5
267
330
1F
100
AcDbEntity
  8
0
  6
Continuous
 62
     7
370
    15
100
AcDbCircle
 10
959.6241170062
 20
93.2027998615
 30
0.0
 40
7.000000000000114
100
AcDbArc
 50
270.2359156769
 51
0.0
  0
LINE
  5
268
330
1F
100
AcDbEntity
  8
0
  6
Continuous
 62
     7
370
    15
100
AcDbLine
 10
915.9273389567
 20
86.0228183154
 30
0.0
 11
959.6529487361
 21
86.2028615955
 31
0.0
  0
ARC
  5
269
330
1F
100
AcDbEntity
  8
0
  6
Continuous
 62
     7
370
    15
100
AcDbCircle
 10
915.922399172
 20
87.2228076225
 30
0.0
 40
1.200000000000073
100
AcDbArc
 50
232.1026559738
 51
270.2359156769
  0
ARC
  5
26A
330
1F
100
AcDbEntity
  8
0
  6
Continuous
 62
     7
370
    15
100
AcDbCircle
 10
909.5653670062
 20
80.8174509838
 30
0.0
 40
1.200000000000045
100
AcDbArc
 50
0.0
 51
38.3312400867
  0
LINE
  5
26B
330
1F
100
AcDbEntity
  8
0
  6
Continuous
 62
     7
370
    15
100
AcDbLine
 10
910.7653383006
 20
78.8456740264
 30
0.0
 11
910.7653383006
 21
80.8174478296
 31
0.0
  0
ARC
  5
26C
330
1F
100
AcDbEntity
  8
0
  6
Continuous
 62
     7
370
    15
100
AcDbCircle
 10
909.5653670062
 20
78.8456754617
 30
0.0
 40
1.200000000000045
100
AcDbArc
 50
321.6687599133
 51
0.0
  0
ARC
  5
26D
330
1F
100
AcDbEntity
  8
0
  6
Continuous
 62
     7
370
    15
100
AcDbCircle
 10
913.1306391893
 20
76.0268354058
 30
0.0
 40
3.345000000000034
100
AcDbArc
 50
141.6687599133
 51
307.8973440262
  0
ARC
  5
26E
330
1F
100
AcDbEntity
  8
0
  6
Continuous
 62
     7
370
    15
100
AcDbCircle
 10
915.922399172
 20
72.440318823
 30
0.0
 40
1.200000000000073
100
AcDbArc
 50
89.7640843231
 51
127.8973440262
  0
LINE
  5
26F
330
1F
100
AcDbEntity
  8
0
  6
Continuous
 62
     7
370
    15
100
AcDbLine
 10
959.6529487361
 20
73.460267711
 30
0.0
 11
915.9273389567
 21
73.6403109912
 31
0.0
  0
ARC
  5
270
330
1F
100
AcDbEntity
  8
0
  6
Continuous
 62
     7
370
    15
100
AcDbCircle
 10
959.6241170062
 20
66.460326584
 30
0.0
 40
7.000000000000114
100
AcDbArc
 50
0.0
 51
89.7640843231
  0
LINE
  5
271
330
1F
100
AcDbEntity
  8
0
  6
Continuous
 62
     7
370
    15
100
AcDbLine
 10
966.6241291751
 20
66.4603280309
 30
0.0
 11
966.6241291751
 21
26.8315634165
 31
0.0
  0
ARC
  5
272
330
1F
100
AcDbEntity
  8
0
  6
Continuous
 62
     7
370
    15
100
AcDbCircle
 10
959.6241170062
 20
26.8315632228
 30
0.0
 40
7.000000000000114
100
AcDbArc
 50
270.0
 51
0.0
  0
ARC
  5
273
330
1F
100
AcDbEntity
  8
0
  6
Continuous
 62
     7
370
    15
100
AcDbCircle
 10
638.4716170062
 20
26.8315632228
 30
0.0
 40
7.000000000000007
100
AcDbArc
 50
180.0
 51
270.0
  0
LINE
  5
274
330
1F
100
AcDbEntity
  8
0
  6
Continuous
 62
     7
370
    15
100
AcDbLine
 10
631.4716223468
 20
26.8315634165
 30
0.0
 11
631.4716223468
 21
66.4411651376
 31
0.0
  0
ARC
  5
275
330
1F
100
AcDbEntity
  8
0
  6
Continuous
 62
     7
370
    15
100
AcDbCircle
 10
638.4716170062
 20
66.4411641962
 30
0.0
 40
7.0
100
AcDbArc
 50
90.078638954
 51
180.0
  0
LINE
  5
276
330
1F
100
AcDbEntity
  8
0
  6
Continuous
 62
     7
370
    15
100
AcDbLine
 10
793.8710931529
 20
73.6544596437
 30
0.0
 11
638.4619954814
 21
73.4411569718
 31
0.0
  0
ARC
  5
277
330
1F
100
AcDbEntity
  8
0
  6
Continuous
 62
     7
370
    15
100
AcDbCircle
 10
796.6825948231
 20
76.0268354058
 30
0.0
 40
3.345000000000034
100
AcDbArc
 50
231.8133871262
 51
38.3312400867
  0
ARC
  5
278
330
1F
100
AcDbEntity
  8
0
  6
Continuous
 62
     7
370
    15
100
AcDbCircle
 10
800.2478670062
 20
78.8456754617
 30
0.0
 40
1.200000000000024
100
AcDbArc
 50
180.0
 51
218.3312400867
  0
LINE
  5
279
330
1F
100
AcDbEntity
  8
0
  6
Continuous
 62
     7
370
    15
100
AcDbLine
 10
799.0478757609
 20
80.8174478296
 30
0.0
 11
799.0478757609
 21
78.8456740264
 31
0.0
  0
ARC
  5
27A
330
1F
100
AcDbEntity
  8
0
  6
Continuous
 62
     7
370
    15
100
AcDbCircle
 10
800.2478670062
 20
80.8174509838
 30
0.0
 40
1.199999999999963
100
AcDbArc
 50
141.6687599133
 51
180.0
  0
ARC
  5
27B
330
1F
100
AcDbEntity
  8
0
  6
Continuous
 62
     7
370
    15
100
AcDbCircle
 10
796.6825948231
 20
83.6362910397
 30
0.0
 40
3.345000000000095
100
AcDbArc
 50
321.6687599133
 51
128.1866128738
  0
ARC
  5
27C
330
1F
100
AcDbEntity
  8
0
  6
Continuous
 62
     7
370
    15
100
AcDbCircle
 10
793.8727632732
 20
87.2086672322
 30
0.0
 40
1.200000000000063
100
AcDbArc
 50
269.921361046
 51
308.1866128738
  0
ARC
  5
27D
330
1F
100
AcDbEntity
  8
0
  6
Continuous
 62
     7
370
    15
100
AcDbCircle
 10
638.4716170062
 20
93.2219622493
 30
0.0
 40
7.000000000000038
100
AcDbArc
 50
180.0
 51
269.921361046
  0
LINE
  5
27E
330
1F
100
AcDbEntity
  8
0
  6
Continuous
 62
     7
370
    15
100
AcDbLine
 10
631.4716223468
 20
93.2219641689
 30
0.0
 11
631.4716223468
 21
1126.9411089305
 31
0.0
  0
ARC
  5
27F
330
1F
100
AcDbEntity
  8
0
  6
Continuous
 62
     7
370
    15
100
AcDbCircle
 10
638.4716170062
 20
1126.9411641962
 30
0.0
 40
7.000000000000067
100
AcDbArc
 50
90.078638954
 51
180.0
  0
LINE
  5
280
330
1F
100
AcDbEntity
  8
0
  6
Continuous
 62
     7
370
    15
100
AcDbLine
 10
638.4619954814
 20
1133.9411976222
 30
0.0
 11
793.8710931529
 21
1134.1544630412
 31
0.0
  0
ARC
  5
281
330
1F
100
AcDbEntity
  8
0
  6
Continuous
 62
     7
370
    15
100
AcDbCircle
 10
793.8727632732
 20
1132.9544592133
 30
0.0
 40
1.200000000000401
100
AcDbArc
 50
51.8133871262
 51
90.078638954
  0
ARC
  5
282
330
1F
100
AcDbEntity
  8
0
  6
Continuous
 62
     7
370
    15
100
AcDbCircle
 10
800.2478670062
 20
1139.3456754617
 30
0.0
 40
1.200000000000183
100
AcDbArc
 50
180.0
 51
218.3312400867
  0
LINE
  5
283
330
1F
100
AcDbEntity
  8
0
  6
Continuous
 62
     7
370
    15
100
AcDbLine
 10
799.0478757609
 20
1139.3456699732
 30
0.0
 11
799.0478757609
 21
1141.3173916224
 31
0.0
  0
ARC
  5
284
330
1F
100
AcDbEntity
  8
0
  6
Continuous
 62
     7
370
    15
100
AcDbCircle
 10
800.2478670062
 20
1141.3174509838
 30
0.0
 40
1.199999999999932
100
AcDbArc
 50
141.6687599133
 51
180.0
  0
ARC
  5
285
330
1F
100
AcDbEntity
  8
0
  6
Continuous
 62
     7
370
    15
100
AcDbCircle
 10
796.6825948231
 20
1144.1362910397
 30
0.0
 40
3.345000000000075
100
AcDbArc
 50
321.6687599133
 51
128.1866128738
  0
ARC
  5
286
330
1F
100
AcDbEntity
  8
0
  6
Continuous
 62
     7
370
    15
100
AcDbCircle
 10
793.8727632732
 20
1147.7086672322
 30
0.0
 40
1.199999999999947
100
AcDbArc
 50
269.921361046
 51
308.1866128738
  0
LINE
  5
287
330
1F
100
AcDbEntity
  8
0
  6
Continuous
 62
     7
370
    15
100
AcDbLine
 10
793.8710931529
 20
1146.5087177638
 30
0.0
 11
638.4619954814
 21
1146.7219831828
 31
0.0
  0
ARC
  5
288
330
1F
100
AcDbEntity
  8
0
  6
Continuous
 62
     7
370
    15
100
AcDbCircle
 10
638.4716170062
 20
1153.7219622493
 30
0.0
 40
7.000000000000294
100
AcDbArc
 50
180.0
 51
269.921361046
  0
LINE
  5
289
330
1F
100
AcDbEntity
  8
0
  6
Continuous
 62
     7
370
    15
100
AcDbLine
 10
631.4716223468
 20
1193.3315040949
 30
0.0
 11
631.4716223468
 21
1153.7219526652
 31
0.0
  0
ARC
  5
28A
330
1F
100
AcDbEntity
  8
0
  6
Continuous
 62
     7
370
    15
100
AcDbCircle
 10
638.4716170062
 20
1193.3315632228
 30
0.0
 40
7.0
100
AcDbArc
 50
90.0
 51
180.0
  0
LINE
  5
28B
330
1F
100
AcDbEntity
  8
0
  6
Continuous
 62
     7
370
    15
100
AcDbLine
 10
959.624100088
 20
1200.3315927867
 30
0.0
 11
638.4715918292
 21
1200.3315927867
 31
0.0
  0
ARC
  5
28C
330
1F
100
AcDbEntity
  8
0
  6
Continuous
 62
     7
370
    15
100
AcDbCircle
 10
959.6241170062
 20
1193.3315632228
 30
0.0
 40
7.0
100
AcDbArc
 50
0.0
 51
90.0
  0
LINE
  5
28D
330
1F
100
AcDbEntity
  8
0
  6
Continuous
 62
     7
370
    15
100
AcDbLine
 10
966.6241291751
 20
1153.7027599696
 30
0.0
 11
966.6241291751
 21
1193.3315040949
 31
0.0
  0
ARC
  5
28E
330
1F
100
AcDbEntity
  8
0
  6
Continuous
 62
     7
370
    15
100
AcDbCircle
 10
959.6241170062
 20
1153.7027998615
 30
0.0
 40
6.999999999999991
100
AcDbArc
 50
270.2359156769
 51
0.0
  0
LINE
  5
28F
330
1F
100
AcDbEntity
  8
0
  6
Continuous
 62
     7
370
    15
100
AcDbLine
 10
959.6529487361
 20
1146.7029096964
 30
0.0
 11
915.9273389567
 21
1146.5227844599
 31
0.0
  0
ARC
  5
290
330
1F
100
AcDbEntity
  8
0
  6
Continuous
 62
     7
370
    15
100
AcDbCircle
 10
915.922399172
 20
1147.7228076225
 30
0.0
 40
1.199999999999821
100
AcDbArc
 50
232.1026559738
 51
270.2359156769
  0
ARC
  5
291
330
1F
100
AcDbEntity
  8
0
  6
Continuous
 62
     7
370
    15
100
AcDbCircle
 10
913.1306391893
 20
1144.1362910397
 30
0.0
 40
3.345000000000157
100
AcDbArc
 50
52.1026559738
 51
218.3312400867
  0
ARC
  5
292
330
1F
100
AcDbEntity
  8
0
  6
Continuous
 62
     7
370
    15
100
AcDbCircle
 10
909.5653670062
 20
1141.3174509838
 30
0.0
 40
1.199999999999818
100
AcDbArc
 50
0.0
 51
38.3312400867
  0
LINE
  5
293
330
1F
100
AcDbEntity
  8
0
  6
Continuous
 62
     7
370
    15
100
AcDbLine
 10
910.7653383006
 20
1141.3173916224
 30
0.0
 11
910.7653383006
 21
1139.3456699732
 31
0.0
  0
ARC
  5
294
330
1F
100
AcDbEntity
  8
0
  6
Continuous
 62
     7
370
    15
100
AcDbCircle
 10
909.5653670062
 20
1139.3456754617
 30
0.0
 40
1.200000000000094
100
AcDbArc
 50
321.6687599133
 51
0.0
  0
ARC
  5
295
330
1F
100
AcDbEntity
  8
0
  6
Continuous
 62
     7
370
    15
100
AcDbCircle
 10
913.1306391893
 20
1136.5268354058
 30
0.0
 40
3.345000000000146
100
AcDbArc
 50
141.6687599133
 51
307.8973440262
  0
ARC
  5
296
330
1F
100
AcDbEntity
  8
0
  6
Continuous
 62
     7
370
    15
100
AcDbCircle
 10
915.922399172
 20
1132.940318823
 30
0.0
 40
1.20000000000018
100
AcDbArc
 50
89.7640843231
 51
127.8973440262
  0
LINE
  5
297
330
1F
100
AcDbEntity
  8
0
  6
Continuous
 62
     7
370
    15
100
AcDbLine
 10
915.9273389567
 20
1134.1402771357
 30
0.0
 11
959.6529487361
 21
1133.9602711085
 31
0.0
  0
ARC
  5
298
330
1F
100
AcDbEntity
  8
0
  6
Continuous
 62
     7
370
    15
100
AcDbCircle
 10
959.6241170062
 20
1126.960326584
 30
0.0
 40
6.999999999999991
100
AcDbArc
 50
0.0
 51
89.7640843231
  0
LINE
  5
299
330
1F
100
AcDbEntity
  8
0
  6
Continuous
 62
     7
370
    15
100
AcDbLine
 10
966.6241291751
 20
1035.8695032481
 30
0.0
 11
966.6241291751
 21
1126.9603016261
 31
0.0
  0
ARC
  5
29A
330
1F
100
AcDbEntity
  8
0
  6
Continuous
 62
     7
370
    15
100
AcDbCircle
 10
959.6241170062
 20
1035.8694665282
 30
0.0
 40
6.999999999999991
100
AcDbArc
 50
270.2359156769
 51
0.0
  0
LINE
  5
29B
330
1F
100
AcDbEntity
  8
0
  6
Continuous
 62
     7
370
    15
100
AcDbLine
 10
959.6529487361
 20
1028.8695337657
 30
0.0
 11
915.9273389567
 21
1028.6895277384
 31
0.0
  0
ARC
  5
29C
330
1F
100
AcDbEntity
  8
0
  6
Continuous
 62
     7
370
    15
100
AcDbCircle
 10
915.922399172
 20
1029.8894742892
 30
0.0
 40
1.20000000000018
100
AcDbArc
 50
232.1026559738
 51
270.2359156769
  0
ARC
  5
29D
330
1F
100
AcDbEntity
  8
0
  6
Continuous
 62
     7
370
    15
100
AcDbCircle
 10
913.1306391893
 20
1026.3029577063
 30
0.0
 40
3.345000000000146
100
AcDbArc
 50
52.1026559738
 51
218.3312400867
  0
ARC
  5
29E
330
1F
100
AcDbEntity
  8
0
  6
Continuous
 62
     7
370
    15
100
AcDbCircle
 10
909.5653670062
 20
1023.4841176505
 30
0.0
 40
1.199999999999953
100
AcDbArc
 50
0.0
 51
38.3312400867
  0
ARC
  5
29F
330
1F
100
AcDbEntity
  8
0
  6
Continuous
 62
     7
370
    15
100
AcDbCircle
 10
913.1306391893
 20
1018.6935020725
 30
0.0
 40
3.345000000000146
100
AcDbArc
 50
141.6687599133
 51
307.8973440262
  0
ARC
  5
2A0
330
1F
100
AcDbEntity
  8
0
  6
Continuous
 62
     7
370
    15
100
AcDbCircle
 10
915.922399172
 20
1015.1069854897
 30
0.0
 40
1.199999999999821
100
AcDbArc
 50
89.7640843231
 51
127.8973440262
  0
LINE
  5
2A1
330
1F
100
AcDbEntity
  8
0
  6
Continuous
 62
     7
370
    15
100
AcDbLine
 10
915.9273389567
 20
1016.3070204142
 30
0.0
 11
959.6529487361
 21
1016.1268951777
 31
0.0
  0
ARC
  5
2A2
330
1F
100
AcDbEntity
  8
0
  6
Continuous
 62
     7
370
    15
100
AcDbCircle
 10
959.6241170062
 20
1009.1269932506
 30
0.0
 40
6.999999999999886
100
AcDbArc
 50
0.0
 51
89.7640843231
  0
LINE
  5
2A3
330
1F
100
AcDbEntity
  8
0
  6
Continuous
 62
     7
370
    15
100
AcDbLine
 10
966.6241291751
 20
918.0361273173
 30
0.0
 11
966.6241291751
 21
1009.1270449046
 31
0.0
  0
ARC
  5
2A4
330
1F
100
AcDbEntity
  8
0
  6
Continuous
 62
     7
370
    15
100
AcDbCircle
 10
959.6241170062
 20
918.0361331949
 30
0.0
 40
7.000000000000105
100
AcDbArc
 50
270.2359156769
 51
0.0
  0
LINE
  5
2A5
330
1F
100
AcDbEntity
  8
0
  6
Continuous
 62
     7
370
    15
100
AcDbLine
 10
959.6529487361
 20
911.0362174395
 30
0.0
 11
915.9273389567
 21
910.8561518077
 31
0.0
  0
ARC
  5
2A6
330
1F
100
AcDbEntity
  8
0
  6
Continuous
 62
     7
370
    15
100
AcDbCircle
 10
915.922399172
 20
912.0561409558
 30
0.0
 40
1.199999999999821
100
AcDbArc
 50
232.1026559738
 51
270.2359156769
  0
ARC
  5
2A7
330
1F
100
AcDbEntity
  8
0
  6
Continuous
 62
     7
370
    15
100
AcDbCircle
 10
913.1306391893
 20
908.469624373
 30
0.0
 40
3.345000000000146
100
AcDbArc
 50
52.1026559738
 51
218.3312400867
  0
ARC
  5
2A8
330
1F
100
AcDbEntity
  8
0
  6
Continuous
 62
     7
370
    15
100
AcDbCircle
 10
909.5653670062
 20
905.6507843171
 30
0.0
 40
1.199999999999882
100
AcDbArc
 50
0.0
 51
38.3312400867
  0
LINE
  5
2A9
330
1F
100
AcDbEntity
  8
0
  6
Continuous
 62
     7
370
    15
100
AcDbLine
 10
910.7653383006
 20
905.6507589701
 30
0.0
 11
910.7653383006
 21
903.679037321
 31
0.0
  0
ARC
  5
2AA
330
1F
100
AcDbEntity
  8
0
  6
Continuous
 62
     7
370
    15
100
AcDbCircle
 10
909.5653670062
 20
903.679008795
 30
0.0
 40
1.199999999999882
100
AcDbArc
 50
321.6687599133
 51
0.0
  0
ARC
  5
2AB
330
1F
100
AcDbEntity
  8
0
  6
Continuous
 62
     7
370
    15
100
AcDbCircle
 10
913.1306391893
 20
900.8601687392
 30
0.0
 40
3.345000000000146
100
AcDbArc
 50
141.6687599133
 51
307.8973440262
  0
ARC
  5
2AC
330
1F
100
AcDbEntity
  8
0
  6
Continuous
 62
     7
370
    15
100
AcDbCircle
 10
915.922399172
 20
897.2736521563
 30
0.0
 40
1.200000000000028
100
AcDbArc
 50
89.7640843231
 51
127.8973440262
  0
ARC
  5
2AD
330
1F
100
AcDbEntity
  8
0
  6
Continuous
 62
     7
370
    15
100
AcDbCircle
 10
959.6241170062
 20
891.2936599173
 30
0.0
 40
6.999999999999991
100
AcDbArc
 50
0.0
 51
89.7640843231
  0
LINE
  5
2AE
330
1F
100
AcDbEntity
  8
0
  6
Continuous
 62
     7
370
    15
100
AcDbLine
 10
966.6241291751
 20
800.2028109912
 30
0.0
 11
966.6241291751
 21
891.2936689738
 31
0.0
  0
ARC
  5
2AF
330
1F
100
AcDbEntity
  8
0
  6
Continuous
 62
     7
370
    15
100
AcDbCircle
 10
959.6241170062
 20
800.2027998615
 30
0.0
 40
6.999999999999991
100
AcDbArc
 50
270.2359156769
 51
0.0
  0
LINE
  5
2B0
330
1F
100
AcDbEntity
  8
0
  6
Continuous
 62
     7
370
    15
100
AcDbLine
 10
959.6529487361
 20
793.2028415087
 30
0.0
 11
915.9273389567
 21
793.0228354815
 31
0.0
  0
ARC
  5
2B1
330
1F
100
AcDbEntity
  8
0
  6
Continuous
 62
     7
370
    15
100
AcDbCircle
 10
915.922399172
 20
794.2228076225
 30
0.0
 40
1.199999999999914
100
AcDbArc
 50
232.1026559738
 51
270.2359156769
  0
ARC
  5
2B2
330
1F
100
AcDbEntity
  8
0
  6
Continuous
 62
     7
370
    15
100
AcDbCircle
 10
913.1306391893
 20
790.6362910397
 30
0.0
 40
3.345000000000086
100
AcDbArc
 50
52.1026559738
 51
218.3312400867
  0
ARC
  5
2B3
330
1F
100
AcDbEntity
  8
0
  6
Continuous
 62
     7
370
    15
100
AcDbCircle
 10
909.5653670062
 20
787.8174509838
 30
0.0
 40
1.199999999999818
100
AcDbArc
 50
0.0
 51
38.3312400867
  0
LINE
  5
2B4
330
1F
100
AcDbEntity
  8
0
  6
Continuous
 62
     7
370
    15
100
AcDbLine
 10
910.7653383006
 20
787.817442644
 30
0.0
 11
910.7653383006
 21
785.8456613902
 31
0.0
  0
ARC
  5
2B5
330
1F
100
AcDbEntity
  8
0
  6
Continuous
 62
     7
370
    15
100
AcDbCircle
 10
909.5653670062
 20
785.8456754617
 30
0.0
 40
1.199999999999882
100
AcDbArc
 50
321.6687599133
 51
0.0
  0
ARC
  5
2B6
330
1F
100
AcDbEntity
  8
0
  6
Continuous
 62
     7
370
    15
100
AcDbCircle
 10
913.1306391893
 20
783.0268354058
 30
0.0
 40
3.345000000000086
100
AcDbArc
 50
141.6687599133
 51
307.8973440262
  0
ARC
  5
2B7
330
1F
100
AcDbEntity
  8
0
  6
Continuous
 62
     7
370
    15
100
AcDbCircle
 10
915.922399172
 20
779.440318823
 30
0.0
 40
1.199999999999914
100
AcDbArc
 50
89.7640843231
 51
127.8973440262
  0
LINE
  5
2B8
330
1F
100
AcDbEntity
  8
0
  6
Continuous
 62
     7
370
    15
100
AcDbLine
 10
915.9273389567
 20
780.6403281573
 30
0.0
 11
959.6529487361
 21
780.4602625254
 31
0.0
  0
ARC
  5
2B9
330
1F
100
AcDbEntity
  8
0
  6
Continuous
 62
     7
370
    15
100
AcDbCircle
 10
959.6241170062
 20
773.460326584
 30
0.0
 40
7.000000000000105
100
AcDbArc
 50
0.0
 51
89.7640843231
  0
LINE
  5
2BA
330
1F
100
AcDbEntity
  8
0
  6
Continuous
 62
     7
370
    15
100
AcDbLine
 10
966.6241291751
 20
682.369494665
 30
0.0
 11
966.6241291751
 21
773.4603526476
 31
0.0
  0
ARC
  5
2BB
330
1F
100
AcDbEntity
  8
0
  6
Continuous
 62
     7
370
    15
100
AcDbCircle
 10
959.6241170062
 20
682.3694665282
 30
0.0
 40
7.000000000000105
100
AcDbArc
 50
270.2359156769
 51
0.0
  0
LINE
  5
2BC
330
1F
100
AcDbEntity
  8
0
  6
Continuous
 62
     7
370
    15
100
AcDbLine
 10
959.6529487361
 20
675.3695251826
 30
0.0
 11
915.9273389567
 21
675.1894595507
 31
0.0
  0
ARC
  5
2BD
330
1F
100
AcDbEntity
  8
0
  6
Continuous
 62
     7
370
    15
100
AcDbCircle
 10
915.922399172
 20
676.3894742892
 30
0.0
 40
1.199999999999981
100
AcDbArc
 50
232.1026559738
 51
270.2359156769
  0
ARC
  5
2BE
330
1F
100
AcDbEntity
  8
0
  6
Continuous
 62
     7
370
    15
100
AcDbCircle
 10
913.1306391893
 20
672.8029577063
 30
0.0
 40
3.345000000000056
100
AcDbArc
 50
52.1026559738
 51
218.3312400867
  0
ARC
  5
2BF
330
1F
100
AcDbEntity
  8
0
  6
Continuous
 62
     7
370
    15
100
AcDbCircle
 10
909.5653670062
 20
669.9841176505
 30
0.0
 40
1.199999999999932
100
AcDbArc
 50
0.0
 51
38.3312400867
  0
LINE
  5
2C0
330
1F
100
AcDbEntity
  8
0
  6
Continuous
 62
     7
370
    15
100
AcDbLine
 10
910.7653383006
 20
669.9841263178
 30
0.0
 11
910.7653383006
 21
668.012345064
 31
0.0
  0
ARC
  5
2C1
330
1F
100
AcDbEntity
  8
0
  6
Continuous
 62
     7
370
    15
100
AcDbCircle
 10
909.5653670062
 20
668.0123421284
 30
0.0
 40
1.199999999999932
100
AcDbArc
 50
321.6687599133
 51
0.0
  0
ARC
  5
2C2
330
1F
100
AcDbEntity
  8
0
  6
Continuous
 62
     7
370
    15
100
AcDbCircle
 10
913.1306391893
 20
665.1935020725
 30
0.0
 40
3.345000000000146
100
AcDbArc
 50
141.6687599133
 51
307.8973440262
  0
ARC
  5
2C3
330
1F
100
AcDbEntity
  8
0
  6
Continuous
 62
     7
370
    15
100
AcDbCircle
 10
915.922399172
 20
661.6069854897
 30
0.0
 40
1.199999999999914
100
AcDbArc
 50
89.7640843231
 51
127.8973440262
  0
LINE
  5
2C4
330
1F
100
AcDbEntity
  8
0
  6
Continuous
 62
     7
370
    15
100
AcDbLine
 10
915.9273389567
 20
662.8069522265
 30
0.0
 11
959.6529487361
 21
662.6269461993
 31
0.0
  0
ARC
  5
2C5
330
1F
100
AcDbEntity
  8
0
  6
Continuous
 62
     7
370
    15
100
AcDbCircle
 10
959.6241170062
 20
655.6269932506
 30
0.0
 40
7.0
100
AcDbArc
 50
0.0
 51
89.7640843231
  0
ARC
  5
2C6
330
1F
100
AcDbEntity
  8
0
  6
Continuous
 62
     7
370
    15
100
AcDbCircle
 10
959.6241170062
 20
564.5361331949
 30
0.0
 40
7.0
100
AcDbArc
 50
270.2359156769
 51
0.0
  0
LINE
  5
2C7
330
1F
100
AcDbEntity
  8
0
  6
Continuous
 62
     7
370
    15
100
AcDbLine
 10
915.9273389567
 20
557.3561432246
 30
0.0
 11
959.6529487361
 21
557.5362088564
 31
0.0
  0
ARC
  5
2C8
330
1F
100
AcDbEntity
  8
0
  6
Continuous
 62
     7
370
    15
100
AcDbCircle
 10
915.922399172
 20
558.5561409558
 30
0.0
 40
1.200000000000028
100
AcDbArc
 50
232.1026559738
 51
270.2359156769
  0
ARC
  5
2C9
330
1F
100
AcDbEntity
  8
0
  6
Continuous
 62
     7
370
    15
100
AcDbCircle
 10
913.1306391893
 20
554.969624373
 30
0.0
 40
3.345000000000146
100
AcDbArc
 50
52.1026559738
 51
218.3312400867
  0
ARC
  5
2CA
330
1F
100
AcDbEntity
  8
0
  6
Continuous
 62
     7
370
    15
100
AcDbCircle
 10
909.5653670062
 20
552.1507843171
 30
0.0
 40
1.199999999999932
100
AcDbArc
 50
0.0
 51
38.3312400867
  0
LINE
  5
2CB
330
1F
100
AcDbEntity
  8
0
  6
Continuous
 62
     7
370
    15
100
AcDbLine
 10
910.7653383006
 20
550.1790287379
 30
0.0
 11
910.7653383006
 21
552.1508099917
 31
0.0
  0
ARC
  5
2CC
330
1F
100
AcDbEntity
  8
0
  6
Continuous
 62
     7
370
    15
100
AcDbCircle
 10
909.5653670062
 20
550.179008795
 30
0.0
 40
1.199999999999932
100
AcDbArc
 50
321.6687599133
 51
0.0
  0
ARC
  5
2CD
330
1F
100
AcDbEntity
  8
0
  6
Continuous
 62
     7
370
    15
100
AcDbCircle
 10
913.1306391893
 20
547.3601687392
 30
0.0
 40
3.345000000000056
100
AcDbArc
 50
141.6687599133
 51
307.8973440262
  0
ARC
  5
2CE
330
1F
100
AcDbEntity
  8
0
  6
Continuous
 62
     7
370
    15
100
AcDbCircle
 10
915.922399172
 20
543.7736521563
 30
0.0
 40
1.200000000000071
100
AcDbArc
 50
89.7640843231
 51
127.8973440262
  0
LINE
  5
2CF
330
1F
100
AcDbEntity
  8
0
  6
Continuous
 62
     7
370
    15
100
AcDbLine
 10
959.6529487361
 20
544.7936298731
 30
0.0
 11
915.9273389567
 21
544.9736359004
 31
0.0
  0
ARC
  5
2D0
330
1F
100
AcDbEntity
  8
0
  6
Continuous
 62
     7
370
    15
100
AcDbCircle
 10
959.6241170062
 20
537.7936599173
 30
0.0
 40
7.0
100
AcDbArc
 50
0.0
 51
89.7640843231
  0
LINE
  5
2D1
330
1F
100
AcDbEntity
  8
0
  6
Continuous
 62
     7
370
    15
100
AcDbLine
 10
915.9273389567
 20
898.4736444834
 30
0.0
 11
959.6529487361
 21
898.2935788516
 31
0.0
  0
LINE
  5
2D2
330
1F
100
AcDbEntity
  8
0
  6
Continuous
 62
     7
370
    15
100
AcDbLine
 10
966.6241291751
 20
537.7936603907
 30
0.0
 11
966.6241291751
 21
446.7028024081
 31
0.0
  0
LINE
  5
2D3
330
1F
100
AcDbEntity
  8
0
  6
Continuous
 62
     7
370
    15
100
AcDbLine
 10
966.6241291751
 20
655.6269767169
 30
0.0
 11
966.6241291751
 21
564.5361187342
 31
0.0
  0
LINE
  5
2D4
330
1F
100
AcDbEntity
  8
0
  6
Continuous
 62
     7
370
    15
100
AcDbLine
 10
915.9273389567
 20
439.5228268984
 30
0.0
 11
959.6529487361
 21
439.702862728
 31
0.0
  0
LINE
  5
2D5
330
1F
100
AcDbEntity
  8
0
  6
Continuous
 62
     7
370
    15
100
AcDbLine
 10
910.7653383006
 20
1023.4841349009
 30
0.0
 11
910.7653383006
 21
1021.5122940425
 31
0.0
  0
LINE
  5
2D6
330
1F
100
AcDbEntity
  8
0
  6
Continuous
 62
     7
370
    15
100
AcDbLine
 10
638.4619954814
 20
86.2219723347
 30
0.0
 11
793.8710931529
 21
86.0086696628
 31
0.0
  0
ARC
  5
2D7
330
1F
100
AcDbEntity
  8
0
  6
Continuous
 62
     7
370
    15
100
AcDbCircle
 10
913.1306391893
 20
319.3029577063
 30
0.0
 40
3.345000000000146
100
AcDbArc
 50
52.1026559738
 51
218.3312400867
  0
ARC
  5
2D8
330
1F
100
AcDbEntity
  8
0
  6
Continuous
 62
     7
370
    15
100
AcDbCircle
 10
909.5653670062
 20
316.4841176505
 30
0.0
 40
1.199999999999932
100
AcDbArc
 50
0.0
 51
38.3312400867
  0
LINE
  5
2D9
330
1F
100
AcDbEntity
  8
0
  6
Continuous
 62
     7
370
    15
100
AcDbLine
 10
910.7653383006
 20
196.6790052537
 30
0.0
 11
910.7653383006
 21
198.6507865075
 31
0.0
  0
ARC
  5
2DA
330
1F
100
AcDbEntity
  8
0
  6
Continuous
 62
     7
370
    15
100
AcDbCircle
 10
909.5653670062
 20
196.679008795
 30
0.0
 40
1.200000000000045
100
AcDbArc
 50
321.6687599133
 51
0.0
  0
ARC
  5
2DB
330
1F
100
AcDbEntity
  8
0
  6
Continuous
 62
     7
370
    15
100
AcDbCircle
 10
913.1306391893
 20
193.8601687392
 30
0.0
 40
3.345000000000031
100
AcDbArc
 50
141.6687599133
 51
307.8973440262
  0
ARC
  5
2DC
330
1F
100
AcDbEntity
  8
0
  6
Continuous
 62
     7
370
    15
100
AcDbCircle
 10
915.922399172
 20
190.2736521563
 30
0.0
 40
1.200000000000028
100
AcDbArc
 50
89.7640843231
 51
127.8973440262
  0
ARC
  5
2DD
330
1F
100
AcDbEntity
  8
0
  6
Continuous
 62
     7
370
    15
100
AcDbCircle
 10
913.1306391893
 20
311.6935020725
 30
0.0
 40
3.345000000000056
100
AcDbArc
 50
141.6687599133
 51
307.8973440262
  0
ARC
  5
2DE
330
1F
100
AcDbEntity
  8
0
  6
Continuous
 62
     7
370
    15
100
AcDbCircle
 10
909.5653670062
 20
1021.5123421284
 30
0.0
 40
1.199999999999818
100
AcDbArc
 50
321.6687599133
 51
0.0
  0
ARC
  5
2DF
330
1F
100
AcDbEntity
  8
0
  6
Continuous
 62
     7
370
    15
100
AcDbCircle
 10
913.1306391893
 20
83.6362910397
 30
0.0
 40
3.345000000000034
100
AcDbArc
 50
52.1026559738
 51
218.3312400867
  0
ARC
  5
2E0
330
1F
100
AcDbEntity
  8
0
  6
Continuous
 62
     7
370
    15
100
AcDbCircle
 10
796.6825948231
 20
1136.5268354058
 30
0.0
 40
3.345000000000075
100
AcDbArc
 50
231.8133871262
 51
38.3312400867
  0
LINE
  5
2E1
330
1F
100
AcDbEntity
  8
0
  6
Continuous
 62
     7
370
    15
100
AcDbLine
 10
959.624100088
 20
19.8315641317
 30
0.0
 11
638.4715918292
 21
19.8315641317
 31
0.0
  0
ARC
  5
2E2
330
1F
100
AcDbEntity
  8
0
  6
Continuous
 62
     7
370
    15
100
AcDbCircle
 10
793.8727632732
 20
72.4544592133
 30
0.0
 40
1.200000000000063
100
AcDbArc
 50
51.8133871262
 51
90.078638954
  0
ARC
  5
2E3
330
1F
100
AcDbEntity
  8
0
  6
Continuous
 62
     7
370
    15
100
AcDbCircle
 10
2345.7753803674
 20
236.2665632228
 30
0.0
 40
7.0
100
AcDbArc
 50
0.2359156769
 51
90.0
  0
ARC
  5
2E4
330
1F
100
AcDbEntity
  8
0
  6
Continuous
 62
     7
370
    15
100
AcDbCircle
 10
2351.7553726065
 20
192.5648453885
 30
0.0
 40
1.200000000000071
100
AcDbArc
 50
322.1026559738
 51
0.2359156769
  0
ARC
  5
2E5
330
1F
100
AcDbEntity
  8
0
  6
Continuous
 62
     7
370
    15
100
AcDbCircle
 10
2355.3418891893
 20
189.7730854058
 30
0.0
 40
3.34500000000009
100
AcDbArc
 50
142.1026559738
 51
308.3312400867
  0
LINE
  5
2E6
330
1F
100
AcDbEntity
  8
0
  6
Continuous
 62
     7
370
    15
100
AcDbLine
 10
2358.1607226123
 20
187.4078156832
 30
0.0
 11
2360.1324442615
 21
187.4078156832
 31
0.0
  0
ARC
  5
2E7
330
1F
100
AcDbEntity
  8
0
  6
Continuous
 62
     7
370
    15
100
AcDbCircle
 10
2360.1325047673
 20
186.2078132228
 30
0.0
 40
1.200000000000017
100
AcDbArc
 50
51.6687599133
 51
90.0
  0
ARC
  5
2E8
330
1F
100
AcDbEntity
  8
0
  6
Continuous
 62
     7
370
    15
100
AcDbCircle
 10
2362.9513448231
 20
189.7730854058
 30
0.0
 40
3.345000000000256
100
AcDbArc
 50
231.6687599133
 51
37.8973440262
  0
ARC
  5
2E9
330
1F
100
AcDbEntity
  8
0
  6
Continuous
 62
     7
370
    15
100
AcDbCircle
 10
2366.537861406
 20
192.5648453885
 30
0.0
 40
1.200000000000141
100
AcDbArc
 50
179.7640843231
 51
217.8973440262
  0
LINE
  5
2EA
330
1F
100
AcDbEntity
  8
0
  6
Continuous
 62
     7
370
    15
100
AcDbLine
 10
2365.337837099
 20
192.569786537
 30
0.0
 11
2365.5178431262
 21
236.2953814152
 31
0.0
  0
ARC
  5
2EB
330
1F
100
AcDbEntity
  8
0
  6
Continuous
 62
     7
370
    15
100
AcDbCircle
 10
2372.517853645
 20
236.2665632228
 30
0.0
 40
7.000000000000673
100
AcDbArc
 50
90.0
 51
179.7640843231
  0
LINE
  5
2EC
330
1F
100
AcDbEntity
  8
0
  6
Continuous
 62
     7
370
    15
100
AcDbLine
 10
2402.1465662707
 20
243.2665618542
 30
0.0
 11
2372.5178126086
 21
243.2665618542
 31
0.0
  0
ARC
  5
2ED
330
1F
100
AcDbEntity
  8
0
  6
Continuous
 62
     7
370
    15
100
AcDbCircle
 10
2402.1466170062
 20
236.2665632228
 30
0.0
 40
7.0
100
AcDbArc
 50
0.0
 51
90.0
  0
LINE
  5
2EE
330
1F
100
AcDbEntity
  8
0
  6
Continuous
 62
     7
370
    15
100
AcDbLine
 10
2409.1465357532
 20
26.8315634165
 30
0.0
 11
2409.1465357532
 21
236.2665625695
 31
0.0
  0
ARC
  5
2EF
330
1F
100
AcDbEntity
  8
0
  6
Continuous
 62
     7
370
    15
100
AcDbCircle
 10
2402.1466170062
 20
26.8315632228
 30
0.0
 40
7.0
100
AcDbArc
 50
270.0
 51
0.0
  0
ARC
  5
2F0
330
1F
100
AcDbEntity
  8
0
  6
Continuous
 62
     7
370
    15
100
AcDbCircle
 10
1861.6466170062
 20
26.8315632228
 30
0.0
 40
7.0
100
AcDbArc
 50
180.0
 51
270.0
  0
ARC
  5
2F1
330
1F
100
AcDbEntity
  8
0
  6
Continuous
 62
     7
370
    15
100
AcDbCircle
 10
1861.6466170062
 20
236.2665632228
 30
0.0
 40
7.0
100
AcDbArc
 50
90.0
 51
180.0
  0
ARC
  5
2F2
330
1F
100
AcDbEntity
  8
0
  6
Continuous
 62
     7
370
    15
100
AcDbCircle
 10
1891.2753803674
 20
236.2665632228
 30
0.0
 40
7.0
100
AcDbArc
 50
0.2359156769
 51
90.0
  0
LINE
  5
2F3
330
1F
100
AcDbEntity
  8
0
  6
Continuous
 62
     7
370
    15
100
AcDbLine
 10
1898.4553698291
 20
192.569786537
 30
0.0
 11
1898.2753638019
 21
236.2953814152
 31
0.0
  0
ARC
  5
2F4
330
1F
100
AcDbEntity
  8
0
  6
Continuous
 62
     7
370
    15
100
AcDbCircle
 10
1897.2553726065
 20
192.5648453885
 30
0.0
 40
1.199999999999891
100
AcDbArc
 50
322.1026559738
 51
0.2359156769
  0
ARC
  5
2F5
330
1F
100
AcDbEntity
  8
0
  6
Continuous
 62
     7
370
    15
100
AcDbCircle
 10
1900.8418891893
 20
189.7730854058
 30
0.0
 40
3.345000000000076
100
AcDbArc
 50
142.1026559738
 51
308.3312400867
  0
ARC
  5
2F6
330
1F
100
AcDbEntity
  8
0
  6
Continuous
 62
     7
370
    15
100
AcDbCircle
 10
1903.6607292452
 20
186.2078132228
 30
0.0
 40
1.200000000000064
100
AcDbArc
 50
90.0
 51
128.3312400867
  0
ARC
  5
2F7
330
1F
100
AcDbEntity
  8
0
  6
Continuous
 62
     7
370
    15
100
AcDbCircle
 10
1905.6325047673
 20
186.2078132228
 30
0.0
 40
1.200000000000017
100
AcDbArc
 50
51.6687599133
 51
90.0
  0
ARC
  5
2F8
330
1F
100
AcDbEntity
  8
0
  6
Continuous
 62
     7
370
    15
100
AcDbCircle
 10
1908.4513448231
 20
189.7730854058
 30
0.0
 40
3.345000000000076
100
AcDbArc
 50
231.6687599133
 51
37.8973440262
  0
ARC
  5
2F9
330
1F
100
AcDbEntity
  8
0
  6
Continuous
 62
     7
370
    15
100
AcDbCircle
 10
1912.037861406
 20
192.5648453885
 30
0.0
 40
1.199999999999914
100
AcDbArc
 50
179.7640843231
 51
217.8973440262
  0
LINE
  5
2FA
330
1F
100
AcDbEntity
  8
0
  6
Continuous
 62
     7
370
    15
100
AcDbLine
 10
1911.0178831805
 20
236.2953814152
 30
0.0
 11
1910.8378771533
 21
192.569786537
 31
0.0
  0
ARC
  5
2FB
330
1F
100
AcDbEntity
  8
0
  6
Continuous
 62
     7
370
    15
100
AcDbCircle
 10
1918.017853645
 20
236.2665632228
 30
0.0
 40
7.0
100
AcDbArc
 50
90.0
 51
179.7640843231
  0
LINE
  5
2FC
330
1F
100
AcDbEntity
  8
0
  6
Continuous
 62
     7
370
    15
100
AcDbLine
 10
2402.1465662707
 20
19.8315641317
 30
0.0
 11
1861.6466406573
 21
19.8315641317
 31
0.0
  0
LINE
  5
2FD
330
1F
100
AcDbEntity
  8
0
  6
Continuous
 62
     7
370
    15
100
AcDbLine
 10
1918.017852663
 20
243.2665618542
 30
0.0
 11
2345.7753542651
 21
243.2665618542
 31
0.0
  0
LINE
  5
2FE
330
1F
100
AcDbEntity
  8
0
  6
Continuous
 62
     7
370
    15
100
AcDbLine
 10
1854.6466711749
 20
26.8315634165
 30
0.0
 11
1854.6466711749
 21
236.2665625695
 31
0.0
  0
LINE
  5
2FF
330
1F
100
AcDbEntity
  8
0
  6
Continuous
 62
     7
370
    15
100
AcDbLine
 10
1861.6466406573
 20
243.2665618542
 30
0.0
 11
1891.2753943194
 21
243.2665618542
 31
0.0
  0
LINE
  5
300
330
1F
100
AcDbEntity
  8
0
  6
Continuous
 62
     7
370
    15
100
AcDbLine
 10
2352.7753237475
 20
236.2953814152
 30
0.0
 11
2352.9553297748
 21
192.569786537
 31
0.0
  0
ARC
  5
301
330
1F
100
AcDbEntity
  8
0
  6
Continuous
 62
     7
370
    15
100
AcDbCircle
 10
2358.1607292452
 20
186.2078132228
 30
0.0
 40
1.200000000000017
100
AcDbArc
 50
90.0
 51
128.3312400867
  0
LINE
  5
302
330
1F
100
AcDbEntity
  8
0
  6
Continuous
 62
     7
370
    15
100
AcDbLine
 10
1905.6324843158
 20
187.4078156832
 30
0.0
 11
1903.6607626666
 21
187.4078156832
 31
0.0
  0
LINE
  5
303
330
1F
100
AcDbEntity
  8
0
  6
Continuous
 62
     7
370
    15
100
AcDbLine
 10
1854.6466711749
 20
257.0165636424
 30
0.0
 11
1854.6466711749
 21
466.4515497569
 31
0.0
  0
LINE
  5
304
330
1F
100
AcDbEntity
  8
0
  6
Continuous
 62
     7
370
    15
100
AcDbLine
 10
1861.6466406573
 20
473.4515490416
 30
0.0
 11
1891.2753943194
 21
473.4515490416
 31
0.0
  0
ARC
  5
305
330
1F
100
AcDbEntity
  8
0
  6
Continuous
 62
     7
370
    15
100
AcDbCircle
 10
1891.2753803674
 20
466.4515632228
 30
0.0
 40
7.0
100
AcDbArc
 50
0.2359156769
 51
90.0
  0
LINE
  5
306
330
1F
100
AcDbEntity
  8
0
  6
Continuous
 62
     7
370
    15
100
AcDbLine
 10
1898.4553698291
 20
422.7547886256
 30
0.0
 11
1898.2753638019
 21
466.4803984049
 31
0.0
  0
ARC
  5
307
330
1F
100
AcDbEntity
  8
0
  6
Continuous
 62
     7
370
    15
100
AcDbCircle
 10
1897.2553726065
 20
422.7498453885
 30
0.0
 40
1.199999999999891
100
AcDbArc
 50
322.1026559738
 51
0.2359156769
  0
ARC
  5
308
330
1F
100
AcDbEntity
  8
0
  6
Continuous
 62
     7
370
    15
100
AcDbCircle
 10
1900.8418891893
 20
419.9580854058
 30
0.0
 40
3.345000000000041
100
AcDbArc
 50
142.1026559738
 51
308.3312400867
  0
LINE
  5
309
330
1F
100
AcDbEntity
  8
0
  6
Continuous
 62
     7
370
    15
100
AcDbLine
 10
1905.6324843158
 20
417.5928177718
 30
0.0
 11
1903.6607626666
 21
417.5928177718
 31
0.0
  0
ARC
  5
30A
330
1F
100
AcDbEntity
  8
0
  6
Continuous
 62
     7
370
    15
100
AcDbCircle
 10
1905.6325047673
 20
416.3928132228
 30
0.0
 40
1.199999999999989
100
AcDbArc
 50
51.6687599133
 51
90.0
  0
ARC
  5
30B
330
1F
100
AcDbEntity
  8
0
  6
Continuous
 62
     7
370
    15
100
AcDbCircle
 10
1908.4513448231
 20
419.9580854058
 30
0.0
 40
3.345000000000041
100
AcDbArc
 50
231.6687599133
 51
37.8973440262
  0
ARC
  5
30C
330
1F
100
AcDbEntity
  8
0
  6
Continuous
 62
     7
370
    15
100
AcDbCircle
 10
1912.037861406
 20
422.7498453885
 30
0.0
 40
1.199999999999914
100
AcDbArc
 50
179.7640843231
 51
217.8973440262
  0
LINE
  5
30D
330
1F
100
AcDbEntity
  8
0
  6
Continuous
 62
     7
370
    15
100
AcDbLine
 10
1911.0178831805
 20
466.4803984049
 30
0.0
 11
1910.8378771533
 21
422.7547886256
 31
0.0
  0
ARC
  5
30E
330
1F
100
AcDbEntity
  8
0
  6
Continuous
 62
     7
370
    15
100
AcDbCircle
 10
1918.017853645
 20
466.4515632228
 30
0.0
 40
7.0
100
AcDbArc
 50
90.0
 51
179.7640843231
  0
LINE
  5
30F
330
1F
100
AcDbEntity
  8
0
  6
Continuous
 62
     7
370
    15
100
AcDbLine
 10
1918.017852663
 20
473.4515490416
 30
0.0
 11
2345.7753542651
 21
473.4515490416
 31
0.0
  0
LINE
  5
310
330
1F
100
AcDbEntity
  8
0
  6
Continuous
 62
     7
370
    15
100
AcDbLine
 10
2402.1465662707
 20
250.0165643576
 30
0.0
 11
1861.6466406573
 21
250.0165643576
 31
0.0
  0
ARC
  5
311
330
1F
100
AcDbEntity
  8
0
  6
Continuous
 62
     7
370
    15
100
AcDbCircle
 10
1903.6607292452
 20
416.3928132228
 30
0.0
 40
1.200000000000042
100
AcDbArc
 50
90.0
 51
128.3312400867
  0
ARC
  5
312
330
1F
100
AcDbEntity
  8
0
  6
Continuous
 62
     7
370
    15
100
AcDbCircle
 10
2402.1466170062
 20
257.0165632228
 30
0.0
 40
7.0
100
AcDbArc
 50
270.0
 51
0.0
  0
ARC
  5
313
330
1F
100
AcDbEntity
  8
0
  6
Continuous
 62
     7
370
    15
100
AcDbCircle
 10
2402.1466170062
 20
466.4515632228
 30
0.0
 40
7.0
100
AcDbArc
 50
0.0
 51
90.0
  0
ARC
  5
314
330
1F
100
AcDbEntity
  8
0
  6
Continuous
 62
     7
370
    15
100
AcDbCircle
 10
2372.517853645
 20
466.4515632228
 30
0.0
 40
7.000000000000673
100
AcDbArc
 50
90.0
 51
179.7640843231
  0
LINE
  5
315
330
1F
100
AcDbEntity
  8
0
  6
Continuous
 62
     7
370
    15
100
AcDbLine
 10
2352.7753237475
 20
466.4803984049
 30
0.0
 11
2352.9553297748
 21
422.7547886256
 31
0.0
  0
ARC
  5
316
330
1F
100
AcDbEntity
  8
0
  6
Continuous
 62
     7
370
    15
100
AcDbCircle
 10
2351.7553726065
 20
422.7498453885
 30
0.0
 40
1.200000000000071
100
AcDbArc
 50
322.1026559738
 51
0.2359156769
  0
ARC
  5
317
330
1F
100
AcDbEntity
  8
0
  6
Continuous
 62
     7
370
    15
100
AcDbCircle
 10
2355.3418891893
 20
419.9580854058
 30
0.0
 40
3.345000000000112
100
AcDbArc
 50
142.1026559738
 51
308.3312400867
  0
ARC
  5
318
330
1F
100
AcDbEntity
  8
0
  6
Continuous
 62
     7
370
    15
100
AcDbCircle
 10
2358.1607292452
 20
416.3928132228
 30
0.0
 40
1.199999999999989
100
AcDbArc
 50
90.0
 51
128.3312400867
  0
LINE
  5
319
330
1F
100
AcDbEntity
  8
0
  6
Continuous
 62
     7
370
    15
100
AcDbLine
 10
2358.1607226123
 20
417.5928177718
 30
0.0
 11
2360.1324442615
 21
417.5928177718
 31
0.0
  0
ARC
  5
31A
330
1F
100
AcDbEntity
  8
0
  6
Continuous
 62
     7
370
    15
100
AcDbCircle
 10
2360.1325047673
 20
416.3928132228
 30
0.0
 40
1.199999999999989
100
AcDbArc
 50
51.6687599133
 51
90.0
  0
ARC
  5
31B
330
1F
100
AcDbEntity
  8
0
  6
Continuous
 62
     7
370
    15
100
AcDbCircle
 10
2362.9513448231
 20
419.9580854058
 30
0.0
 40
3.34500000000022
100
AcDbArc
 50
231.6687599133
 51
37.8973440262
  0
ARC
  5
31C
330
1F
100
AcDbEntity
  8
0
  6
Continuous
 62
     7
370
    15
100
AcDbCircle
 10
2366.537861406
 20
422.7498453885
 30
0.0
 40
1.200000000000142
100
AcDbArc
 50
179.7640843231
 51
217.8973440262
  0
LINE
  5
31D
330
1F
100
AcDbEntity
  8
0
  6
Continuous
 62
     7
370
    15
100
AcDbLine
 10
2365.337837099
 20
422.7547886256
 30
0.0
 11
2365.5178431262
 21
466.4803984049
 31
0.0
  0
LINE
  5
31E
330
1F
100
AcDbEntity
  8
0
  6
Continuous
 62
     7
370
    15
100
AcDbLine
 10
2409.1465357532
 20
257.0165636424
 30
0.0
 11
2409.1465357532
 21
466.4515497569
 31
0.0
  0
ARC
  5
31F
330
1F
100
AcDbEntity
  8
0
  6
Continuous
 62
     7
370
    15
100
AcDbCircle
 10
1861.6466170062
 20
257.0165632228
 30
0.0
 40
7.0
100
AcDbArc
 50
180.0
 51
270.0
  0
ARC
  5
320
330
1F
100
AcDbEntity
  8
0
  6
Continuous
 62
     7
370
    15
100
AcDbCircle
 10
1861.6466170062
 20
466.4515632228
 30
0.0
 40
7.0
100
AcDbArc
 50
90.0
 51
180.0
  0
ARC
  5
321
330
1F
100
AcDbEntity
  8
0
  6
Continuous
 62
     7
370
    15
100
AcDbCircle
 10
2345.7753803674
 20
466.4515632228
 30
0.0
 40
7.0
100
AcDbArc
 50
0.2359156769
 51
90.0
  0
LINE
  5
322
330
1F
100
AcDbEntity
  8
0
  6
Continuous
 62
     7
370
    15
100
AcDbLine
 10
2402.1465662707
 20
473.4515490416
 30
0.0
 11
2372.5178126086
 21
473.4515490416
 31
0.0
  0
ARC
  5
323
330
1F
100
AcDbEntity
  8
0
  6
Continuous
 62
     7
370
    15
100
AcDbCircle
 10
2247.6508348404
 20
897.2736521563
 30
0.0
 40
1.200000000000121
100
AcDbArc
 50
52.1026559738
 51
90.2359156769
  0
ARC
  5
324
330
1F
100
AcDbEntity
  8
0
  6
Continuous
 62
     7
370
    15
100
AcDbCircle
 10
2250.4425948231
 20
900.8601687392
 30
0.0
 40
3.345000000000286
100
AcDbArc
 50
232.1026559738
 51
38.3312400867
  0
ARC
  5
325
330
1F
100
AcDbEntity
  8
0
  6
Continuous
 62
     7
370
    15
100
AcDbCircle
 10
2254.0078670062
 20
903.679008795
 30
0.0
 40
1.20000000000015
100
AcDbArc
 50
180.0
 51
218.3312400867
  0
LINE
  5
326
330
1F
100
AcDbEntity
  8
0
  6
Continuous
 62
     7
370
    15
100
AcDbLine
 10
2252.8078440417
 20
903.679037321
 30
0.0
 11
2252.8078440417
 21
905.6507589701
 31
0.0
  0
ARC
  5
327
330
1F
100
AcDbEntity
  8
0
  6
Continuous
 62
     7
370
    15
100
AcDbCircle
 10
2254.0078670062
 20
905.6507843171
 30
0.0
 40
1.20000000000015
100
AcDbArc
 50
141.6687599133
 51
180.0
  0
ARC
  5
328
330
1F
100
AcDbEntity
  8
0
  6
Continuous
 62
     7
370
    15
100
AcDbCircle
 10
2250.4425948231
 20
908.469624373
 30
0.0
 40
3.345000000000375
100
AcDbArc
 50
321.6687599133
 51
127.8973440262
  0
ARC
  5
329
330
1F
100
AcDbEntity
  8
0
  6
Continuous
 62
     7
370
    15
100
AcDbCircle
 10
2247.6508348404
 20
912.0561409558
 30
0.0
 40
1.200000000000031
100
AcDbArc
 50
269.7640843231
 51
307.8973440262
  0
LINE
  5
32A
330
1F
100
AcDbEntity
  8
0
  6
Continuous
 62
     7
370
    15
100
AcDbLine
 10
2247.6458433856
 20
910.8561518077
 30
0.0
 11
2203.9203528155
 21
911.0362174395
 31
0.0
  0
ARC
  5
32B
330
1F
100
AcDbEntity
  8
0
  6
Continuous
 62
     7
370
    15
100
AcDbCircle
 10
2203.9491170062
 20
918.0361331949
 30
0.0
 40
7.000000000000455
100
AcDbArc
 50
180.0
 51
269.7640843231
  0
LINE
  5
32C
330
1F
100
AcDbEntity
  8
0
  6
Continuous
 62
     7
370
    15
100
AcDbLine
 10
2196.9492319812
 20
1009.1270449046
 30
0.0
 11
2196.9492319812
 21
918.0361273173
 31
0.0
  0
ARC
  5
32D
330
1F
100
AcDbEntity
  8
0
  6
Continuous
 62
     7
370
    15
100
AcDbCircle
 10
2203.9491170062
 20
1009.1269932506
 30
0.0
 40
7.000000000000455
100
AcDbArc
 50
90.2359156769
 51
180.0
  0
LINE
  5
32E
330
1F
100
AcDbEntity
  8
0
  6
Continuous
 62
     7
370
    15
100
AcDbLine
 10
2203.9203528155
 20
1016.1268951777
 30
0.0
 11
2247.6458433856
 21
1016.3070204142
 31
0.0
  0
ARC
  5
32F
330
1F
100
AcDbEntity
  8
0
  6
Continuous
 62
     7
370
    15
100
AcDbCircle
 10
2247.6508348404
 20
1015.1069854897
 30
0.0
 40
1.200000000000031
100
AcDbArc
 50
52.1026559738
 51
90.2359156769
  0
ARC
  5
330
330
1F
100
AcDbEntity
  8
0
  6
Continuous
 62
     7
370
    15
100
AcDbCircle
 10
2250.4425948231
 20
1018.6935020725
 30
0.0
 40
3.345000000000286
100
AcDbArc
 50
232.1026559738
 51
38.3312400867
  0
ARC
  5
331
330
1F
100
AcDbEntity
  8
0
  6
Continuous
 62
     7
370
    15
100
AcDbCircle
 10
2254.0078670062
 20
1021.5123421284
 30
0.0
 40
1.200000000000009
100
AcDbArc
 50
180.0
 51
218.3312400867
  0
LINE
  5
332
330
1F
100
AcDbEntity
  8
0
  6
Continuous
 62
     7
370
    15
100
AcDbLine
 10
2252.8078440417
 20
1021.5122940425
 30
0.0
 11
2252.8078440417
 21
1023.4841349009
 31
0.0
  0
ARC
  5
333
330
1F
100
AcDbEntity
  8
0
  6
Continuous
 62
     7
370
    15
100
AcDbCircle
 10
2254.0078670062
 20
1023.4841176505
 30
0.0
 40
1.20000000000022
100
AcDbArc
 50
141.6687599133
 51
180.0
  0
ARC
  5
334
330
1F
100
AcDbEntity
  8
0
  6
Continuous
 62
     7
370
    15
100
AcDbCircle
 10
2250.4425948231
 20
1026.3029577063
 30
0.0
 40
3.344999999999927
100
AcDbArc
 50
321.6687599133
 51
127.8973440262
  0
ARC
  5
335
330
1F
100
AcDbEntity
  8
0
  6
Continuous
 62
     7
370
    15
100
AcDbCircle
 10
2247.6508348404
 20
1029.8894742892
 30
0.0
 40
1.20000000000039
100
AcDbArc
 50
269.7640843231
 51
307.8973440262
  0
LINE
  5
336
330
1F
100
AcDbEntity
  8
0
  6
Continuous
 62
     7
370
    15
100
AcDbLine
 10
2247.6458433856
 20
1028.6895277384
 30
0.0
 11
2203.9203528155
 21
1028.8695337657
 31
0.0
  0
ARC
  5
337
330
1F
100
AcDbEntity
  8
0
  6
Continuous
 62
     7
370
    15
100
AcDbCircle
 10
2203.9491170062
 20
1035.8694665282
 30
0.0
 40
7.000000000000455
100
AcDbArc
 50
180.0
 51
269.7640843231
  0
LINE
  5
338
330
1F
100
AcDbEntity
  8
0
  6
Continuous
 62
     7
370
    15
100
AcDbLine
 10
2196.9492319812
 20
1126.9603016261
 30
0.0
 11
2196.9492319812
 21
1035.8695032481
 31
0.0
  0
ARC
  5
339
330
1F
100
AcDbEntity
  8
0
  6
Continuous
 62
     7
370
    15
100
AcDbCircle
 10
2203.9491170062
 20
1126.960326584
 30
0.0
 40
7.000000000000455
100
AcDbArc
 50
90.2359156769
 51
180.0
  0
LINE
  5
33A
330
1F
100
AcDbEntity
  8
0
  6
Continuous
 62
     7
370
    15
100
AcDbLine
 10
2203.9203528155
 20
1133.9602711085
 30
0.0
 11
2247.6458433856
 21
1134.1402771357
 31
0.0
  0
ARC
  5
33B
330
1F
100
AcDbEntity
  8
0
  6
Continuous
 62
     7
370
    15
100
AcDbCircle
 10
2247.6508348404
 20
1132.940318823
 30
0.0
 40
1.20000000000039
100
AcDbArc
 50
52.1026559738
 51
90.2359156769
  0
ARC
  5
33C
330
1F
100
AcDbEntity
  8
0
  6
Continuous
 62
     7
370
    15
100
AcDbCircle
 10
2250.4425948231
 20
1136.5268354058
 30
0.0
 40
3.345000000000286
100
AcDbArc
 50
232.1026559738
 51
38.3312400867
  0
ARC
  5
33D
330
1F
100
AcDbEntity
  8
0
  6
Continuous
 62
     7
370
    15
100
AcDbCircle
 10
2254.0078670062
 20
1139.3456754617
 30
0.0
 40
1.200000000000361
100
AcDbArc
 50
180.0
 51
218.3312400867
  0
LINE
  5
33E
330
1F
100
AcDbEntity
  8
0
  6
Continuous
 62
     7
370
    15
100
AcDbLine
 10
2252.8078440417
 20
1139.3456699732
 30
0.0
 11
2252.8078440417
 21
1141.3173916224
 31
0.0
  0
ARC
  5
33F
330
1F
100
AcDbEntity
  8
0
  6
Continuous
 62
     7
370
    15
100
AcDbCircle
 10
2254.0078670062
 20
1141.3174509838
 30
0.0
 40
1.199999999999938
100
AcDbArc
 50
141.6687599133
 51
180.0
  0
ARC
  5
340
330
1F
100
AcDbEntity
  8
0
  6
Continuous
 62
     7
370
    15
100
AcDbCircle
 10
2250.4425948231
 20
1144.1362910397
 30
0.0
 40
3.345000000000286
100
AcDbArc
 50
321.6687599133
 51
127.8973440262
  0
ARC
  5
341
330
1F
100
AcDbEntity
  8
0
  6
Continuous
 62
     7
370
    15
100
AcDbCircle
 10
2247.6508348404
 20
1147.7228076225
 30
0.0
 40
1.200000000000031
100
AcDbArc
 50
269.7640843231
 51
307.8973440262
  0
LINE
  5
342
330
1F
100
AcDbEntity
  8
0
  6
Continuous
 62
     7
370
    15
100
AcDbLine
 10
2247.6458433856
 20
1146.5227844599
 30
0.0
 11
2203.9203528155
 21
1146.7029096964
 31
0.0
  0
ARC
  5
343
330
1F
100
AcDbEntity
  8
0
  6
Continuous
 62
     7
370
    15
100
AcDbCircle
 10
2203.9491170062
 20
1153.7027998615
 30
0.0
 40
7.000000000000455
100
AcDbArc
 50
180.0
 51
269.7640843231
  0
LINE
  5
344
330
1F
100
AcDbEntity
  8
0
  6
Continuous
 62
     7
370
    15
100
AcDbLine
 10
2196.9492319812
 20
1193.3315040949
 30
0.0
 11
2196.9492319812
 21
1153.7027599696
 31
0.0
  0
LINE
  5
345
330
1F
100
AcDbEntity
  8
0
  6
Continuous
 62
     7
370
    15
100
AcDbLine
 10
2413.3841875781
 20
1200.3315927867
 30
0.0
 11
2203.9492014636
 21
1200.3315927867
 31
0.0
  0
ARC
  5
346
330
1F
100
AcDbEntity
  8
0
  6
Continuous
 62
     7
370
    15
100
AcDbCircle
 10
2413.3841170062
 20
1193.3315632228
 30
0.0
 40
7.0
100
AcDbArc
 50
0.0
 51
90.0
  0
LINE
  5
347
330
1F
100
AcDbEntity
  8
0
  6
Continuous
 62
     7
370
    15
100
AcDbLine
 10
2420.3841570605
 20
1153.7027599696
 30
0.0
 11
2420.3841570605
 21
1193.3315040949
 31
0.0
  0
ARC
  5
348
330
1F
100
AcDbEntity
  8
0
  6
Continuous
 62
     7
370
    15
100
AcDbCircle
 10
2413.3841170062
 20
1153.7027998615
 30
0.0
 40
7.000000000000446
100
AcDbArc
 50
270.2359156769
 51
0.0
  0
LINE
  5
349
330
1F
100
AcDbEntity
  8
0
  6
Continuous
 62
     7
370
    15
100
AcDbLine
 10
2369.6873072375
 20
1146.5227844599
 30
0.0
 11
2413.4130362262
 21
1146.7029096964
 31
0.0
  0
ARC
  5
34A
330
1F
100
AcDbEntity
  8
0
  6
Continuous
 62
     7
370
    15
100
AcDbCircle
 10
2369.682399172
 20
1147.7228076225
 30
0.0
 40
1.20000000000039
100
AcDbArc
 50
232.1026559738
 51
270.2359156769
  0
ARC
  5
34B
330
1F
100
AcDbEntity
  8
0
  6
Continuous
 62
     7
370
    15
100
AcDbCircle
 10
2366.8906391893
 20
1144.1362910397
 30
0.0
 40
3.345000000000286
100
AcDbArc
 50
52.1026559738
 51
218.3312400867
  0
ARC
  5
34C
330
1F
100
AcDbEntity
  8
0
  6
Continuous
 62
     7
370
    15
100
AcDbCircle
 10
2363.3253670062
 20
1141.3174509838
 30
0.0
 40
1.200000000000728
100
AcDbArc
 50
0.0
 51
38.3312400867
  0
LINE
  5
34D
330
1F
100
AcDbEntity
  8
0
  6
Continuous
 62
     7
370
    15
100
AcDbLine
 10
2364.5253065814
 20
1139.3456699732
 30
0.0
 11
2364.5253065814
 21
1141.3173916224
 31
0.0
  0
ARC
  5
34E
330
1F
100
AcDbEntity
  8
0
  6
Continuous
 62
     7
370
    15
100
AcDbCircle
 10
2363.3253670062
 20
1139.3456754617
 30
0.0
 40
1.200000000000728
100
AcDbArc
 50
321.6687599133
 51
0.0
  0
ARC
  5
34F
330
1F
100
AcDbEntity
  8
0
  6
Continuous
 62
     7
370
    15
100
AcDbCircle
 10
2366.8906391893
 20
1136.5268354058
 30
0.0
 40
3.345000000000286
100
AcDbArc
 50
141.6687599133
 51
307.8973440262
  0
ARC
  5
350
330
1F
100
AcDbEntity
  8
0
  6
Continuous
 62
     7
370
    15
100
AcDbCircle
 10
2369.682399172
 20
1132.940318823
 30
0.0
 40
1.20000000000039
100
AcDbArc
 50
89.7640843231
 51
127.8973440262
  0
LINE
  5
351
330
1F
100
AcDbEntity
  8
0
  6
Continuous
 62
     7
370
    15
100
AcDbLine
 10
2413.4130362262
 20
1133.9602711085
 30
0.0
 11
2369.6873072375
 21
1134.1402771357
 31
0.0
  0
ARC
  5
352
330
1F
100
AcDbEntity
  8
0
  6
Continuous
 62
     7
370
    15
100
AcDbCircle
 10
2413.3841170062
 20
1126.960326584
 30
0.0
 40
6.999999999999991
100
AcDbArc
 50
0.0
 51
89.7640843231
  0
LINE
  5
353
330
1F
100
AcDbEntity
  8
0
  6
Continuous
 62
     7
370
    15
100
AcDbLine
 10
2420.3841570605
 20
564.5361187342
 30
0.0
 11
2420.3841570605
 21
1126.9603016261
 31
0.0
  0
ARC
  5
354
330
1F
100
AcDbEntity
  8
0
  6
Continuous
 62
     7
370
    15
100
AcDbCircle
 10
2413.3841170062
 20
564.5361331949
 30
0.0
 40
6.999999999999991
100
AcDbArc
 50
270.2359156769
 51
0.0
  0
LINE
  5
355
330
1F
100
AcDbEntity
  8
0
  6
Continuous
 62
     7
370
    15
100
AcDbLine
 10
2413.4130362262
 20
557.5362088564
 30
0.0
 11
2369.6873072375
 21
557.3561432246
 31
0.0
  0
ARC
  5
356
330
1F
100
AcDbEntity
  8
0
  6
Continuous
 62
     7
370
    15
100
AcDbCircle
 10
2369.682399172
 20
558.5561409558
 30
0.0
 40
1.20000000000021
100
AcDbArc
 50
232.1026559738
 51
270.2359156769
  0
ARC
  5
357
330
1F
100
AcDbEntity
  8
0
  6
Continuous
 62
     7
370
    15
100
AcDbCircle
 10
2366.8906391893
 20
554.969624373
 30
0.0
 40
3.345000000000196
100
AcDbArc
 50
52.1026559738
 51
218.3312400867
  0
ARC
  5
358
330
1F
100
AcDbEntity
  8
0
  6
Continuous
 62
     7
370
    15
100
AcDbCircle
 10
2363.3253670062
 20
552.1507843171
 30
0.0
 40
1.199999999999818
100
AcDbArc
 50
0.0
 51
38.3312400868
  0
LINE
  5
359
330
1F
100
AcDbEntity
  8
0
  6
Continuous
 62
     7
370
    15
100
AcDbLine
 10
2364.5253065814
 20
552.1508099917
 30
0.0
 11
2364.5253065814
 21
550.1790287379
 31
0.0
  0
ARC
  5
35A
330
1F
100
AcDbEntity
  8
0
  6
Continuous
 62
     7
370
    15
100
AcDbCircle
 10
2363.3253670062
 20
550.179008795
 30
0.0
 40
1.199999999999818
100
AcDbArc
 50
321.6687599132
 51
0.0
  0
ARC
  5
35B
330
1F
100
AcDbEntity
  8
0
  6
Continuous
 62
     7
370
    15
100
AcDbCircle
 10
2366.8906391893
 20
547.3601687392
 30
0.0
 40
3.345000000000196
100
AcDbArc
 50
141.6687599133
 51
307.8973440262
  0
ARC
  5
35C
330
1F
100
AcDbEntity
  8
0
  6
Continuous
 62
     7
370
    15
100
AcDbCircle
 10
2369.682399172
 20
543.7736521563
 30
0.0
 40
1.20000000000021
100
AcDbArc
 50
89.7640843231
 51
127.8973440262
  0
LINE
  5
35D
330
1F
100
AcDbEntity
  8
0
  6
Continuous
 62
     7
370
    15
100
AcDbLine
 10
2369.6873072375
 20
544.9736359004
 30
0.0
 11
2413.4130362262
 21
544.7936298731
 31
0.0
  0
ARC
  5
35E
330
1F
100
AcDbEntity
  8
0
  6
Continuous
 62
     7
370
    15
100
AcDbCircle
 10
2413.3841170062
 20
537.7936599173
 30
0.0
 40
6.999999999999991
100
AcDbArc
 50
0.0
 51
89.7640843231
  0
LINE
  5
35F
330
1F
100
AcDbEntity
  8
0
  6
Continuous
 62
     7
370
    15
100
AcDbLine
 10
2420.3841570605
 20
537.7936603907
 30
0.0
 11
2420.3841570605
 21
498.164886463
 31
0.0
  0
ARC
  5
360
330
1F
100
AcDbEntity
  8
0
  6
Continuous
 62
     7
370
    15
100
AcDbCircle
 10
2413.3841170062
 20
498.1648965561
 30
0.0
 40
7.0
100
AcDbArc
 50
270.0
 51
0.0
  0
LINE
  5
361
330
1F
100
AcDbEntity
  8
0
  6
Continuous
 62
     7
370
    15
100
AcDbLine
 10
2413.3841875781
 20
491.1648871783
 30
0.0
 11
2203.9492014636
 21
491.1648871783
 31
0.0
  0
ARC
  5
362
330
1F
100
AcDbEntity
  8
0
  6
Continuous
 62
     7
370
    15
100
AcDbCircle
 10
2203.9491170062
 20
498.1648965561
 30
0.0
 40
7.000000000000455
100
AcDbArc
 50
180.0
 51
270.0
  0
LINE
  5
363
330
1F
100
AcDbEntity
  8
0
  6
Continuous
 62
     7
370
    15
100
AcDbLine
 10
2196.9492319812
 20
498.164886463
 30
0.0
 11
2196.9492319812
 21
537.7936603907
 31
0.0
  0
ARC
  5
364
330
1F
100
AcDbEntity
  8
0
  6
Continuous
 62
     7
370
    15
100
AcDbCircle
 10
2203.9491170062
 20
537.7936599173
 30
0.0
 40
7.000000000000455
100
AcDbArc
 50
90.2359156769
 51
180.0
  0
LINE
  5
365
330
1F
100
AcDbEntity
  8
0
  6
Continuous
 62
     7
370
    15
100
AcDbLine
 10
2247.6458433856
 20
544.9736359004
 30
0.0
 11
2203.9203528155
 21
544.7936298731
 31
0.0
  0
ARC
  5
366
330
1F
100
AcDbEntity
  8
0
  6
Continuous
 62
     7
370
    15
100
AcDbCircle
 10
2247.6508348404
 20
543.7736521563
 30
0.0
 40
1.20000000000021
100
AcDbArc
 50
52.1026559738
 51
90.2359156769
  0
ARC
  5
367
330
1F
100
AcDbEntity
  8
0
  6
Continuous
 62
     7
370
    15
100
AcDbCircle
 10
2250.4425948231
 20
547.3601687392
 30
0.0
 40
3.345000000000196
100
AcDbArc
 50
232.1026559738
 51
38.3312400867
  0
ARC
  5
368
330
1F
100
AcDbEntity
  8
0
  6
Continuous
 62
     7
370
    15
100
AcDbCircle
 10
2254.0078670062
 20
550.179008795
 30
0.0
 40
1.20000000000015
100
AcDbArc
 50
180.0
 51
218.3312400867
  0
LINE
  5
369
330
1F
100
AcDbEntity
  8
0
  6
Continuous
 62
     7
370
    15
100
AcDbLine
 10
2252.8078440417
 20
552.1508099917
 30
0.0
 11
2252.8078440417
 21
550.1790287379
 31
0.0
  0
ARC
  5
36A
330
1F
100
AcDbEntity
  8
0
  6
Continuous
 62
     7
370
    15
100
AcDbCircle
 10
2254.0078670062
 20
552.1507843171
 30
0.0
 40
1.20000000000015
100
AcDbArc
 50
141.6687599133
 51
180.0
  0
ARC
  5
36B
330
1F
100
AcDbEntity
  8
0
  6
Continuous
 62
     7
370
    15
100
AcDbCircle
 10
2250.4425948231
 20
554.969624373
 30
0.0
 40
3.345000000000196
100
AcDbArc
 50
321.6687599133
 51
127.8973440262
  0
ARC
  5
36C
330
1F
100
AcDbEntity
  8
0
  6
Continuous
 62
     7
370
    15
100
AcDbCircle
 10
2247.6508348404
 20
558.5561409558
 30
0.0
 40
1.20000000000021
100
AcDbArc
 50
269.7640843231
 51
307.8973440262
  0
LINE
  5
36D
330
1F
100
AcDbEntity
  8
0
  6
Continuous
 62
     7
370
    15
100
AcDbLine
 10
2203.9203528155
 20
557.5362088564
 30
0.0
 11
2247.6458433856
 21
557.3561432246
 31
0.0
  0
ARC
  5
36E
330
1F
100
AcDbEntity
  8
0
  6
Continuous
 62
     7
370
    15
100
AcDbCircle
 10
2203.9491170062
 20
564.5361331949
 30
0.0
 40
7.000000000000455
100
AcDbArc
 50
180.0
 51
269.7640843231
  0
LINE
  5
36F
330
1F
100
AcDbEntity
  8
0
  6
Continuous
 62
     7
370
    15
100
AcDbLine
 10
2196.9492319812
 20
564.5361187342
 30
0.0
 11
2196.9492319812
 21
655.6269767169
 31
0.0
  0
ARC
  5
370
330
1F
100
AcDbEntity
  8
0
  6
Continuous
 62
     7
370
    15
100
AcDbCircle
 10
2203.9491170062
 20
655.6269932506
 30
0.0
 40
7.000000000000455
100
AcDbArc
 50
90.2359156769
 51
180.0
  0
LINE
  5
371
330
1F
100
AcDbEntity
  8
0
  6
Continuous
 62
     7
370
    15
100
AcDbLine
 10
2247.6458433856
 20
662.8069522265
 30
0.0
 11
2203.9203528155
 21
662.6269461993
 31
0.0
  0
ARC
  5
372
330
1F
100
AcDbEntity
  8
0
  6
Continuous
 62
     7
370
    15
100
AcDbCircle
 10
2247.6508348404
 20
661.6069854897
 30
0.0
 40
1.200000000000121
100
AcDbArc
 50
52.1026559738
 51
90.2359156769
  0
ARC
  5
373
330
1F
100
AcDbEntity
  8
0
  6
Continuous
 62
     7
370
    15
100
AcDbCircle
 10
2250.4425948231
 20
665.1935020725
 30
0.0
 40
3.345000000000196
100
AcDbArc
 50
232.1026559738
 51
38.3312400867
  0
ARC
  5
374
330
1F
100
AcDbEntity
  8
0
  6
Continuous
 62
     7
370
    15
100
AcDbCircle
 10
2254.0078670062
 20
668.0123421284
 30
0.0
 40
1.20000000000015
100
AcDbArc
 50
180.0
 51
218.3312400867
  0
LINE
  5
375
330
1F
100
AcDbEntity
  8
0
  6
Continuous
 62
     7
370
    15
100
AcDbLine
 10
2252.8078440417
 20
669.9841263178
 30
0.0
 11
2252.8078440417
 21
668.012345064
 31
0.0
  0
ARC
  5
376
330
1F
100
AcDbEntity
  8
0
  6
Continuous
 62
     7
370
    15
100
AcDbCircle
 10
2254.0078670062
 20
669.9841176505
 30
0.0
 40
1.20000000000015
100
AcDbArc
 50
141.6687599133
 51
180.0
  0
ARC
  5
377
330
1F
100
AcDbEntity
  8
0
  6
Continuous
 62
     7
370
    15
100
AcDbCircle
 10
2250.4425948231
 20
672.8029577063
 30
0.0
 40
3.345000000000196
100
AcDbArc
 50
321.6687599133
 51
127.8973440262
  0
ARC
  5
378
330
1F
100
AcDbEntity
  8
0
  6
Continuous
 62
     7
370
    15
100
AcDbCircle
 10
2247.6508348404
 20
676.3894742892
 30
0.0
 40
1.200000000000121
100
AcDbArc
 50
269.7640843231
 51
307.8973440262
  0
LINE
  5
379
330
1F
100
AcDbEntity
  8
0
  6
Continuous
 62
     7
370
    15
100
AcDbLine
 10
2203.9203528155
 20
675.3695251826
 30
0.0
 11
2247.6458433856
 21
675.1894595507
 31
0.0
  0
ARC
  5
37A
330
1F
100
AcDbEntity
  8
0
  6
Continuous
 62
     7
370
    15
100
AcDbCircle
 10
2203.9491170062
 20
682.3694665282
 30
0.0
 40
7.000000000000455
100
AcDbArc
 50
180.0
 51
269.7640843231
  0
LINE
  5
37B
330
1F
100
AcDbEntity
  8
0
  6
Continuous
 62
     7
370
    15
100
AcDbLine
 10
2196.9492319812
 20
682.369494665
 30
0.0
 11
2196.9492319812
 21
773.4603526476
 31
0.0
  0
ARC
  5
37C
330
1F
100
AcDbEntity
  8
0
  6
Continuous
 62
     7
370
    15
100
AcDbCircle
 10
2203.9491170062
 20
773.460326584
 30
0.0
 40
7.000000000000455
100
AcDbArc
 50
90.2359156769
 51
180.0
  0
LINE
  5
37D
330
1F
100
AcDbEntity
  8
0
  6
Continuous
 62
     7
370
    15
100
AcDbLine
 10
2247.6458433856
 20
780.6403281573
 30
0.0
 11
2203.9203528155
 21
780.4602625254
 31
0.0
  0
ARC
  5
37E
330
1F
100
AcDbEntity
  8
0
  6
Continuous
 62
     7
370
    15
100
AcDbCircle
 10
2247.6508348404
 20
779.440318823
 30
0.0
 40
1.200000000000121
100
AcDbArc
 50
52.1026559738
 51
90.2359156769
  0
ARC
  5
37F
330
1F
100
AcDbEntity
  8
0
  6
Continuous
 62
     7
370
    15
100
AcDbCircle
 10
2250.4425948231
 20
783.0268354058
 30
0.0
 40
3.345000000000196
100
AcDbArc
 50
232.1026559738
 51
38.3312400867
  0
ARC
  5
380
330
1F
100
AcDbEntity
  8
0
  6
Continuous
 62
     7
370
    15
100
AcDbCircle
 10
2254.0078670062
 20
785.8456754617
 30
0.0
 40
1.20000000000015
100
AcDbArc
 50
180.0
 51
218.3312400867
  0
LINE
  5
381
330
1F
100
AcDbEntity
  8
0
  6
Continuous
 62
     7
370
    15
100
AcDbLine
 10
2252.8078440417
 20
787.817442644
 30
0.0
 11
2252.8078440417
 21
785.8456613902
 31
0.0
  0
ARC
  5
382
330
1F
100
AcDbEntity
  8
0
  6
Continuous
 62
     7
370
    15
100
AcDbCircle
 10
2254.0078670062
 20
787.8174509838
 30
0.0
 40
1.200000000000079
100
AcDbArc
 50
141.6687599133
 51
180.0
  0
ARC
  5
383
330
1F
100
AcDbEntity
  8
0
  6
Continuous
 62
     7
370
    15
100
AcDbCircle
 10
2250.4425948231
 20
790.6362910397
 30
0.0
 40
3.345000000000196
100
AcDbArc
 50
321.6687599133
 51
127.8973440262
  0
ARC
  5
384
330
1F
100
AcDbEntity
  8
0
  6
Continuous
 62
     7
370
    15
100
AcDbCircle
 10
2247.6508348404
 20
794.2228076225
 30
0.0
 40
1.200000000000031
100
AcDbArc
 50
269.7640843231
 51
307.8973440262
  0
LINE
  5
385
330
1F
100
AcDbEntity
  8
0
  6
Continuous
 62
     7
370
    15
100
AcDbLine
 10
2203.9203528155
 20
793.2028415087
 30
0.0
 11
2247.6458433856
 21
793.0228354815
 31
0.0
  0
ARC
  5
386
330
1F
100
AcDbEntity
  8
0
  6
Continuous
 62
     7
370
    15
100
AcDbCircle
 10
2203.9491170062
 20
800.2027998615
 30
0.0
 40
7.000000000000455
100
AcDbArc
 50
180.0
 51
269.7640843231
  0
LINE
  5
387
330
1F
100
AcDbEntity
  8
0
  6
Continuous
 62
     7
370
    15
100
AcDbLine
 10
2196.9492319812
 20
891.2936689738
 30
0.0
 11
2196.9492319812
 21
800.2028109912
 31
0.0
  0
ARC
  5
388
330
1F
100
AcDbEntity
  8
0
  6
Continuous
 62
     7
370
    15
100
AcDbCircle
 10
2203.9491170062
 20
891.2936599173
 30
0.0
 40
7.000000000000455
100
AcDbArc
 50
90.2359156769
 51
180.0
  0
LINE
  5
389
330
1F
100
AcDbEntity
  8
0
  6
Continuous
 62
     7
370
    15
100
AcDbLine
 10
2203.9203528155
 20
898.2935788516
 30
0.0
 11
2247.6458433856
 21
898.4736444834
 31
0.0
  0
ARC
  5
38A
330
1F
100
AcDbEntity
  8
0
  6
Continuous
 62
     7
370
    15
100
AcDbCircle
 10
2203.9491170062
 20
1193.3315632228
 30
0.0
 40
7.000000000000455
100
AcDbArc
 50
90.0
 51
180.0
  0
ARC
  5
38B
330
1F
100
AcDbEntity
  8
0
  6
Continuous
 62
     7
370
    15
100
AcDbCircle
 10
2027.379899172
 20
794.2228076225
 30
0.0
 40
1.200000000000031
100
AcDbArc
 50
232.1026559738
 51
270.2359156769
  0
ARC
  5
38C
330
1F
100
AcDbEntity
  8
0
  6
Continuous
 62
     7
370
    15
100
AcDbCircle
 10
2024.5881391893
 20
790.6362910397
 30
0.0
 40
3.345000000000056
100
AcDbArc
 50
52.1026559738
 51
218.3312400867
  0
ARC
  5
38D
330
1F
100
AcDbEntity
  8
0
  6
Continuous
 62
     7
370
    15
100
AcDbCircle
 10
2021.0228670062
 20
787.8174509838
 30
0.0
 40
1.200000000000079
100
AcDbArc
 50
0.0
 51
38.3312400867
  0
LINE
  5
38E
330
1F
100
AcDbEntity
  8
0
  6
Continuous
 62
     7
370
    15
100
AcDbLine
 10
2022.2229841937
 20
787.817442644
 30
0.0
 11
2022.2229841937
 21
785.8456613902
 31
0.0
  0
ARC
  5
38F
330
1F
100
AcDbEntity
  8
0
  6
Continuous
 62
     7
370
    15
100
AcDbCircle
 10
2021.0228670062
 20
785.8456754617
 30
0.0
 40
1.20000000000015
100
AcDbArc
 50
321.6687599133
 51
0.0
  0
ARC
  5
390
330
1F
100
AcDbEntity
  8
0
  6
Continuous
 62
     7
370
    15
100
AcDbCircle
 10
2024.5881391893
 20
783.0268354058
 30
0.0
 40
3.345000000000056
100
AcDbArc
 50
141.6687599133
 51
307.8973440262
  0
ARC
  5
391
330
1F
100
AcDbEntity
  8
0
  6
Continuous
 62
     7
370
    15
100
AcDbCircle
 10
2027.379899172
 20
779.440318823
 30
0.0
 40
1.200000000000121
100
AcDbArc
 50
89.7640843231
 51
127.8973440262
  0
LINE
  5
392
330
1F
100
AcDbEntity
  8
0
  6
Continuous
 62
     7
370
    15
100
AcDbLine
 10
2027.3847464313
 20
780.6403281573
 30
0.0
 11
2071.1104754199
 21
780.4602625254
 31
0.0
  0
ARC
  5
393
330
1F
100
AcDbEntity
  8
0
  6
Continuous
 62
     7
370
    15
100
AcDbCircle
 10
2071.0816170062
 20
773.460326584
 30
0.0
 40
7.000000000000455
100
AcDbArc
 50
0.0
 51
89.7640843231
  0
ARC
  5
394
330
1F
100
AcDbEntity
  8
0
  6
Continuous
 62
     7
370
    15
100
AcDbCircle
 10
2071.0816170062
 20
682.3694665282
 30
0.0
 40
7.000000000000455
100
AcDbArc
 50
270.2359156769
 51
0.0
  0
LINE
  5
395
330
1F
100
AcDbEntity
  8
0
  6
Continuous
 62
     7
370
    15
100
AcDbLine
 10
2071.1104754199
 20
675.3695251826
 30
0.0
 11
2027.3847464313
 21
675.1894595507
 31
0.0
  0
ARC
  5
396
330
1F
100
AcDbEntity
  8
0
  6
Continuous
 62
     7
370
    15
100
AcDbCircle
 10
2027.379899172
 20
676.3894742892
 30
0.0
 40
1.200000000000121
100
AcDbArc
 50
232.1026559738
 51
270.2359156769
  0
ARC
  5
397
330
1F
100
AcDbEntity
  8
0
  6
Continuous
 62
     7
370
    15
100
AcDbCircle
 10
2024.5881391893
 20
672.8029577063
 30
0.0
 40
3.345000000000056
100
AcDbArc
 50
52.1026559738
 51
218.3312400867
  0
ARC
  5
398
330
1F
100
AcDbEntity
  8
0
  6
Continuous
 62
     7
370
    15
100
AcDbCircle
 10
2021.0228670062
 20
669.9841176505
 30
0.0
 40
1.20000000000015
100
AcDbArc
 50
0.0
 51
38.3312400867
  0
LINE
  5
399
330
1F
100
AcDbEntity
  8
0
  6
Continuous
 62
     7
370
    15
100
AcDbLine
 10
2022.2229841937
 20
669.9841263178
 30
0.0
 11
2022.2229841937
 21
668.012345064
 31
0.0
  0
ARC
  5
39A
330
1F
100
AcDbEntity
  8
0
  6
Continuous
 62
     7
370
    15
100
AcDbCircle
 10
2021.0228670062
 20
668.0123421284
 30
0.0
 40
1.20000000000015
100
AcDbArc
 50
321.6687599133
 51
0.0
  0
ARC
  5
39B
330
1F
100
AcDbEntity
  8
0
  6
Continuous
 62
     7
370
    15
100
AcDbCircle
 10
2024.5881391893
 20
665.1935020725
 30
0.0
 40
3.345000000000056
100
AcDbArc
 50
141.6687599133
 51
307.8973440262
  0
ARC
  5
39C
330
1F
100
AcDbEntity
  8
0
  6
Continuous
 62
     7
370
    15
100
AcDbCircle
 10
2027.379899172
 20
661.6069854897
 30
0.0
 40
1.200000000000121
100
AcDbArc
 50
89.7640843231
 51
127.8973440262
  0
LINE
  5
39D
330
1F
100
AcDbEntity
  8
0
  6
Continuous
 62
     7
370
    15
100
AcDbLine
 10
2027.3847464313
 20
662.8069522265
 30
0.0
 11
2071.1104754199
 21
662.6269461993
 31
0.0
  0
ARC
  5
39E
330
1F
100
AcDbEntity
  8
0
  6
Continuous
 62
     7
370
    15
100
AcDbCircle
 10
2071.0816170062
 20
655.6269932506
 30
0.0
 40
7.000000000000455
100
AcDbArc
 50
0.0
 51
89.7640843231
  0
ARC
  5
39F
330
1F
100
AcDbEntity
  8
0
  6
Continuous
 62
     7
370
    15
100
AcDbCircle
 10
2071.0816170062
 20
564.5361331949
 30
0.0
 40
7.000000000000455
100
AcDbArc
 50
270.2359156769
 51
0.0
  0
LINE
  5
3A0
330
1F
100
AcDbEntity
  8
0
  6
Continuous
 62
     7
370
    15
100
AcDbLine
 10
2071.1104754199
 20
557.5362088564
 30
0.0
 11
2027.3847464313
 21
557.3561432246
 31
0.0
  0
ARC
  5
3A1
330
1F
100
AcDbEntity
  8
0
  6
Continuous
 62
     7
370
    15
100
AcDbCircle
 10
2027.379899172
 20
558.5561409558
 30
0.0
 40
1.20000000000021
100
AcDbArc
 50
232.1026559738
 51
270.2359156769
  0
ARC
  5
3A2
330
1F
100
AcDbEntity
  8
0
  6
Continuous
 62
     7
370
    15
100
AcDbCircle
 10
2024.5881391893
 20
554.969624373
 30
0.0
 40
3.345000000000056
100
AcDbArc
 50
52.1026559738
 51
218.3312400867
  0
ARC
  5
3A3
330
1F
100
AcDbEntity
  8
0
  6
Continuous
 62
     7
370
    15
100
AcDbCircle
 10
2021.0228670062
 20
552.1507843171
 30
0.0
 40
1.20000000000015
100
AcDbArc
 50
0.0
 51
38.3312400867
  0
LINE
  5
3A4
330
1F
100
AcDbEntity
  8
0
  6
Continuous
 62
     7
370
    15
100
AcDbLine
 10
2022.2229841937
 20
552.1508099917
 30
0.0
 11
2022.2229841937
 21
550.1790287379
 31
0.0
  0
ARC
  5
3A5
330
1F
100
AcDbEntity
  8
0
  6
Continuous
 62
     7
370
    15
100
AcDbCircle
 10
2021.0228670062
 20
550.179008795
 30
0.0
 40
1.20000000000015
100
AcDbArc
 50
321.6687599133
 51
0.0
  0
ARC
  5
3A6
330
1F
100
AcDbEntity
  8
0
  6
Continuous
 62
     7
370
    15
100
AcDbCircle
 10
2024.5881391893
 20
547.3601687392
 30
0.0
 40
3.345000000000056
100
AcDbArc
 50
141.6687599133
 51
307.8973440262
  0
ARC
  5
3A7
330
1F
100
AcDbEntity
  8
0
  6
Continuous
 62
     7
370
    15
100
AcDbCircle
 10
2027.379899172
 20
543.7736521563
 30
0.0
 40
1.20000000000021
100
AcDbArc
 50
89.7640843231
 51
127.8973440262
  0
LINE
  5
3A8
330
1F
100
AcDbEntity
  8
0
  6
Continuous
 62
     7
370
    15
100
AcDbLine
 10
2027.3847464313
 20
544.9736359004
 30
0.0
 11
2071.1104754199
 21
544.7936298731
 31
0.0
  0
ARC
  5
3A9
330
1F
100
AcDbEntity
  8
0
  6
Continuous
 62
     7
370
    15
100
AcDbCircle
 10
2071.0816170062
 20
537.7936599173
 30
0.0
 40
7.000000000000455
100
AcDbArc
 50
0.0
 51
89.7640843231
  0
LINE
  5
3AA
330
1F
100
AcDbEntity
  8
0
  6
Continuous
 62
     7
370
    15
100
AcDbLine
 10
2078.0815962543
 20
498.164886463
 30
0.0
 11
2078.0815962543
 21
537.7936603907
 31
0.0
  0
ARC
  5
3AB
330
1F
100
AcDbEntity
  8
0
  6
Continuous
 62
     7
370
    15
100
AcDbCircle
 10
2071.0816170062
 20
498.1648965561
 30
0.0
 40
7.000000000000455
100
AcDbArc
 50
270.0
 51
0.0
  0
LINE
  5
3AC
330
1F
100
AcDbEntity
  8
0
  6
Continuous
 62
     7
370
    15
100
AcDbLine
 10
1861.6466406573
 20
491.1648871783
 30
0.0
 11
2071.0816267718
 21
491.1648871783
 31
0.0
  0
ARC
  5
3AD
330
1F
100
AcDbEntity
  8
0
  6
Continuous
 62
     7
370
    15
100
AcDbCircle
 10
1861.6466170062
 20
498.1648965561
 30
0.0
 40
7.000000000000227
100
AcDbArc
 50
180.0
 51
270.0
  0
ARC
  5
3AE
330
1F
100
AcDbEntity
  8
0
  6
Continuous
 62
     7
370
    15
100
AcDbCircle
 10
1861.6466170062
 20
537.7936599173
 30
0.0
 40
7.000000000000227
100
AcDbArc
 50
90.2359156769
 51
180.0
  0
LINE
  5
3AF
330
1F
100
AcDbEntity
  8
0
  6
Continuous
 62
     7
370
    15
100
AcDbLine
 10
1905.3434017886
 20
544.9736359004
 30
0.0
 11
1861.6177920093
 21
544.7936298731
 31
0.0
  0
ARC
  5
3B0
330
1F
100
AcDbEntity
  8
0
  6
Continuous
 62
     7
370
    15
100
AcDbCircle
 10
1905.3483348404
 20
543.7736521563
 30
0.0
 40
1.20000000000021
100
AcDbArc
 50
52.1026559738
 51
90.2359156769
  0
ARC
  5
3B1
330
1F
100
AcDbEntity
  8
0
  6
Continuous
 62
     7
370
    15
100
AcDbCircle
 10
1908.1400948231
 20
547.3601687392
 30
0.0
 40
3.345000000000056
100
AcDbArc
 50
232.1026559738
 51
38.3312400867
  0
ARC
  5
3B2
330
1F
100
AcDbEntity
  8
0
  6
Continuous
 62
     7
370
    15
100
AcDbCircle
 10
1911.7053670062
 20
550.179008795
 30
0.0
 40
1.200000000000045
100
AcDbArc
 50
180.0
 51
218.3312400867
  0
LINE
  5
3B3
330
1F
100
AcDbEntity
  8
0
  6
Continuous
 62
     7
370
    15
100
AcDbLine
 10
1910.5054024448
 20
552.1508099917
 30
0.0
 11
1910.5054024448
 21
550.1790287379
 31
0.0
  0
ARC
  5
3B4
330
1F
100
AcDbEntity
  8
0
  6
Continuous
 62
     7
370
    15
100
AcDbCircle
 10
1911.7053670062
 20
552.1507843171
 30
0.0
 40
1.200000000000045
100
AcDbArc
 50
141.6687599133
 51
180.0
  0
ARC
  5
3B5
330
1F
100
AcDbEntity
  8
0
  6
Continuous
 62
     7
370
    15
100
AcDbCircle
 10
1908.1400948231
 20
554.969624373
 30
0.0
 40
3.345000000000056
100
AcDbArc
 50
321.6687599133
 51
127.8973440262
  0
ARC
  5
3B6
330
1F
100
AcDbEntity
  8
0
  6
Continuous
 62
     7
370
    15
100
AcDbCircle
 10
1905.3483348404
 20
558.5561409558
 30
0.0
 40
1.20000000000021
100
AcDbArc
 50
269.7640843231
 51
307.8973440262
  0
LINE
  5
3B7
330
1F
100
AcDbEntity
  8
0
  6
Continuous
 62
     7
370
    15
100
AcDbLine
 10
1861.6177920093
 20
557.5362088564
 30
0.0
 11
1905.3434017886
 21
557.3561432246
 31
0.0
  0
ARC
  5
3B8
330
1F
100
AcDbEntity
  8
0
  6
Continuous
 62
     7
370
    15
100
AcDbCircle
 10
1861.6466170062
 20
564.5361331949
 30
0.0
 40
7.000000000000227
100
AcDbArc
 50
180.0
 51
269.7640843231
  0
ARC
  5
3B9
330
1F
100
AcDbEntity
  8
0
  6
Continuous
 62
     7
370
    15
100
AcDbCircle
 10
1861.6466170062
 20
1126.960326584
 30
0.0
 40
7.000000000000446
100
AcDbArc
 50
90.2359156769
 51
180.0
  0
LINE
  5
3BA
330
1F
100
AcDbEntity
  8
0
  6
Continuous
 62
     7
370
    15
100
AcDbLine
 10
1861.6177920093
 20
1133.9602711085
 30
0.0
 11
1905.3434017886
 21
1134.1402771357
 31
0.0
  0
ARC
  5
3BB
330
1F
100
AcDbEntity
  8
0
  6
Continuous
 62
     7
370
    15
100
AcDbCircle
 10
1905.3483348404
 20
1132.940318823
 30
0.0
 40
1.20000000000025
100
AcDbArc
 50
52.1026559738
 51
90.2359156769
  0
ARC
  5
3BC
330
1F
100
AcDbEntity
  8
0
  6
Continuous
 62
     7
370
    15
100
AcDbCircle
 10
1908.1400948231
 20
1136.5268354058
 30
0.0
 40
3.345000000000146
100
AcDbArc
 50
232.1026559738
 51
38.3312400867
  0
ARC
  5
3BD
330
1F
100
AcDbEntity
  8
0
  6
Continuous
 62
     7
370
    15
100
AcDbCircle
 10
1911.7053670062
 20
1139.3456754617
 30
0.0
 40
1.200000000000273
100
AcDbArc
 50
180.0
 51
218.3312400867
  0
LINE
  5
3BE
330
1F
100
AcDbEntity
  8
0
  6
Continuous
 62
     7
370
    15
100
AcDbLine
 10
1910.5054024448
 20
1139.3456699732
 30
0.0
 11
1910.5054024448
 21
1141.3173916224
 31
0.0
  0
ARC
  5
3BF
330
1F
100
AcDbEntity
  8
0
  6
Continuous
 62
     7
370
    15
100
AcDbCircle
 10
1911.7053670062
 20
1141.3174509838
 30
0.0
 40
1.200000000000273
100
AcDbArc
 50
141.6687599133
 51
180.0
  0
ARC
  5
3C0
330
1F
100
AcDbEntity
  8
0
  6
Continuous
 62
     7
370
    15
100
AcDbCircle
 10
1908.1400948231
 20
1144.1362910397
 30
0.0
 40
3.345000000000157
100
AcDbArc
 50
321.6687599133
 51
127.8973440262
  0
ARC
  5
3C1
330
1F
100
AcDbEntity
  8
0
  6
Continuous
 62
     7
370
    15
100
AcDbCircle
 10
1905.3483348404
 20
1147.7228076225
 30
0.0
 40
1.20000000000025
100
AcDbArc
 50
269.7640843231
 51
307.8973440262
  0
LINE
  5
3C2
330
1F
100
AcDbEntity
  8
0
  6
Continuous
 62
     7
370
    15
100
AcDbLine
 10
1905.3434017886
 20
1146.5227844599
 30
0.0
 11
1861.6177920093
 21
1146.7029096964
 31
0.0
  0
ARC
  5
3C3
330
1F
100
AcDbEntity
  8
0
  6
Continuous
 62
     7
370
    15
100
AcDbCircle
 10
1861.6466170062
 20
1153.7027998615
 30
0.0
 40
7.000000000000446
100
AcDbArc
 50
180.0
 51
269.7640843231
  0
LINE
  5
3C4
330
1F
100
AcDbEntity
  8
0
  6
Continuous
 62
     7
370
    15
100
AcDbLine
 10
1854.6466711749
 20
1153.7027599696
 30
0.0
 11
1854.6466711749
 21
1193.3315040949
 31
0.0
  0
ARC
  5
3C5
330
1F
100
AcDbEntity
  8
0
  6
Continuous
 62
     7
370
    15
100
AcDbCircle
 10
1861.6466170062
 20
1193.3315632228
 30
0.0
 40
7.0
100
AcDbArc
 50
90.0
 51
180.0
  0
LINE
  5
3C6
330
1F
100
AcDbEntity
  8
0
  6
Continuous
 62
     7
370
    15
100
AcDbLine
 10
1861.6466406573
 20
1200.3315927867
 30
0.0
 11
2071.0816267718
 21
1200.3315927867
 31
0.0
  0
ARC
  5
3C7
330
1F
100
AcDbEntity
  8
0
  6
Continuous
 62
     7
370
    15
100
AcDbCircle
 10
2071.0816170062
 20
1193.3315632228
 30
0.0
 40
7.000000000000455
100
AcDbArc
 50
0.0
 51
90.0
  0
LINE
  5
3C8
330
1F
100
AcDbEntity
  8
0
  6
Continuous
 62
     7
370
    15
100
AcDbLine
 10
2078.0815962543
 20
1193.3315040949
 30
0.0
 11
2078.0815962543
 21
1153.7027599696
 31
0.0
  0
ARC
  5
3C9
330
1F
100
AcDbEntity
  8
0
  6
Continuous
 62
     7
370
    15
100
AcDbCircle
 10
2071.0816170062
 20
1153.7027998615
 30
0.0
 40
7.000000000000455
100
AcDbArc
 50
270.2359156769
 51
0.0
  0
LINE
  5
3CA
330
1F
100
AcDbEntity
  8
0
  6
Continuous
 62
     7
370
    15
100
AcDbLine
 10
2027.3847464313
 20
1146.5227844599
 30
0.0
 11
2071.1104754199
 21
1146.7029096964
 31
0.0
  0
ARC
  5
3CB
330
1F
100
AcDbEntity
  8
0
  6
Continuous
 62
     7
370
    15
100
AcDbCircle
 10
2027.379899172
 20
1147.7228076225
 30
0.0
 40
1.20000000000039
100
AcDbArc
 50
232.1026559738
 51
270.2359156769
  0
ARC
  5
3CC
330
1F
100
AcDbEntity
  8
0
  6
Continuous
 62
     7
370
    15
100
AcDbCircle
 10
2024.5881391893
 20
1144.1362910397
 30
0.0
 40
3.345000000000146
100
AcDbArc
 50
52.1026559738
 51
218.3312400867
  0
ARC
  5
3CD
330
1F
100
AcDbEntity
  8
0
  6
Continuous
 62
     7
370
    15
100
AcDbCircle
 10
2021.0228670062
 20
1141.3174509838
 30
0.0
 40
1.199999999999938
100
AcDbArc
 50
0.0
 51
38.3312400867
  0
LINE
  5
3CE
330
1F
100
AcDbEntity
  8
0
  6
Continuous
 62
     7
370
    15
100
AcDbLine
 10
2022.2229841937
 20
1139.3456699732
 30
0.0
 11
2022.2229841937
 21
1141.3173916224
 31
0.0
  0
ARC
  5
3CF
330
1F
100
AcDbEntity
  8
0
  6
Continuous
 62
     7
370
    15
100
AcDbCircle
 10
2021.0228670062
 20
1139.3456754617
 30
0.0
 40
1.200000000000079
100
AcDbArc
 50
321.6687599133
 51
0.0
  0
ARC
  5
3D0
330
1F
100
AcDbEntity
  8
0
  6
Continuous
 62
     7
370
    15
100
AcDbCircle
 10
2024.5881391893
 20
1136.5268354058
 30
0.0
 40
3.345000000000146
100
AcDbArc
 50
141.6687599133
 51
307.8973440262
  0
ARC
  5
3D1
330
1F
100
AcDbEntity
  8
0
  6
Continuous
 62
     7
370
    15
100
AcDbCircle
 10
2027.379899172
 20
1132.940318823
 30
0.0
 40
1.20000000000039
100
AcDbArc
 50
89.7640843231
 51
127.8973440262
  0
LINE
  5
3D2
330
1F
100
AcDbEntity
  8
0
  6
Continuous
 62
     7
370
    15
100
AcDbLine
 10
2071.1104754199
 20
1133.9602711085
 30
0.0
 11
2027.3847464313
 21
1134.1402771357
 31
0.0
  0
ARC
  5
3D3
330
1F
100
AcDbEntity
  8
0
  6
Continuous
 62
     7
370
    15
100
AcDbCircle
 10
2071.0816170062
 20
1126.960326584
 30
0.0
 40
7.000000000000455
100
AcDbArc
 50
0.0
 51
89.7640843231
  0
LINE
  5
3D4
330
1F
100
AcDbEntity
  8
0
  6
Continuous
 62
     7
370
    15
100
AcDbLine
 10
2078.0815962543
 20
1126.9603016261
 30
0.0
 11
2078.0815962543
 21
1035.8695032481
 31
0.0
  0
ARC
  5
3D5
330
1F
100
AcDbEntity
  8
0
  6
Continuous
 62
     7
370
    15
100
AcDbCircle
 10
2071.0816170062
 20
1035.8694665282
 30
0.0
 40
7.000000000000455
100
AcDbArc
 50
270.2359156769
 51
0.0
  0
LINE
  5
3D6
330
1F
100
AcDbEntity
  8
0
  6
Continuous
 62
     7
370
    15
100
AcDbLine
 10
2027.3847464313
 20
1028.6895277384
 30
0.0
 11
2071.1104754199
 21
1028.8695337657
 31
0.0
  0
ARC
  5
3D7
330
1F
100
AcDbEntity
  8
0
  6
Continuous
 62
     7
370
    15
100
AcDbCircle
 10
2027.379899172
 20
1029.8894742892
 30
0.0
 40
1.20000000000039
100
AcDbArc
 50
232.1026559738
 51
270.2359156769
  0
ARC
  5
3D8
330
1F
100
AcDbEntity
  8
0
  6
Continuous
 62
     7
370
    15
100
AcDbCircle
 10
2024.5881391893
 20
1026.3029577063
 30
0.0
 40
3.344999999999978
100
AcDbArc
 50
52.1026559738
 51
218.3312400867
  0
LINE
  5
3D9
330
1F
100
AcDbEntity
  8
0
  6
Continuous
 62
     7
370
    15
100
AcDbLine
 10
2022.2229841937
 20
1021.5122940425
 30
0.0
 11
2022.2229841937
 21
1023.4841349009
 31
0.0
  0
ARC
  5
3DA
330
1F
100
AcDbEntity
  8
0
  6
Continuous
 62
     7
370
    15
100
AcDbCircle
 10
2021.0228670062
 20
1021.5123421284
 30
0.0
 40
1.200000000000009
100
AcDbArc
 50
321.6687599133
 51
0.0
  0
ARC
  5
3DB
330
1F
100
AcDbEntity
  8
0
  6
Continuous
 62
     7
370
    15
100
AcDbCircle
 10
2024.5881391893
 20
1018.6935020725
 30
0.0
 40
3.345000000000146
100
AcDbArc
 50
141.6687599133
 51
307.8973440262
  0
ARC
  5
3DC
330
1F
100
AcDbEntity
  8
0
  6
Continuous
 62
     7
370
    15
100
AcDbCircle
 10
2027.379899172
 20
1015.1069854897
 30
0.0
 40
1.200000000000141
100
AcDbArc
 50
89.7640843231
 51
127.8973440262
  0
LINE
  5
3DD
330
1F
100
AcDbEntity
  8
0
  6
Continuous
 62
     7
370
    15
100
AcDbLine
 10
2071.1104754199
 20
1016.1268951777
 30
0.0
 11
2027.3847464313
 21
1016.3070204142
 31
0.0
  0
ARC
  5
3DE
330
1F
100
AcDbEntity
  8
0
  6
Continuous
 62
     7
370
    15
100
AcDbCircle
 10
2071.0816170062
 20
1009.1269932506
 30
0.0
 40
7.000000000000455
100
AcDbArc
 50
0.0
 51
89.7640843231
  0
LINE
  5
3DF
330
1F
100
AcDbEntity
  8
0
  6
Continuous
 62
     7
370
    15
100
AcDbLine
 10
2078.0815962543
 20
1009.1270449046
 30
0.0
 11
2078.0815962543
 21
918.0361273173
 31
0.0
  0
ARC
  5
3E0
330
1F
100
AcDbEntity
  8
0
  6
Continuous
 62
     7
370
    15
100
AcDbCircle
 10
2071.0816170062
 20
918.0361331949
 30
0.0
 40
7.000000000000455
100
AcDbArc
 50
270.2359156769
 51
0.0
  0
LINE
  5
3E1
330
1F
100
AcDbEntity
  8
0
  6
Continuous
 62
     7
370
    15
100
AcDbLine
 10
2027.3847464313
 20
910.8561518077
 30
0.0
 11
2071.1104754199
 21
911.0362174395
 31
0.0
  0
ARC
  5
3E2
330
1F
100
AcDbEntity
  8
0
  6
Continuous
 62
     7
370
    15
100
AcDbCircle
 10
2027.379899172
 20
912.0561409558
 30
0.0
 40
1.200000000000031
100
AcDbArc
 50
232.1026559738
 51
270.2359156769
  0
ARC
  5
3E3
330
1F
100
AcDbEntity
  8
0
  6
Continuous
 62
     7
370
    15
100
AcDbCircle
 10
2024.5881391893
 20
908.469624373
 30
0.0
 40
3.345000000000236
100
AcDbArc
 50
52.1026559738
 51
218.3312400867
  0
ARC
  5
3E4
330
1F
100
AcDbEntity
  8
0
  6
Continuous
 62
     7
370
    15
100
AcDbCircle
 10
2021.0228670062
 20
905.6507843171
 30
0.0
 40
1.20000000000015
100
AcDbArc
 50
0.0
 51
38.3312400867
  0
LINE
  5
3E5
330
1F
100
AcDbEntity
  8
0
  6
Continuous
 62
     7
370
    15
100
AcDbLine
 10
2022.2229841937
 20
903.679037321
 30
0.0
 11
2022.2229841937
 21
905.6507589701
 31
0.0
  0
ARC
  5
3E6
330
1F
100
AcDbEntity
  8
0
  6
Continuous
 62
     7
370
    15
100
AcDbCircle
 10
2021.0228670062
 20
903.679008795
 30
0.0
 40
1.20000000000015
100
AcDbArc
 50
321.6687599133
 51
0.0
  0
ARC
  5
3E7
330
1F
100
AcDbEntity
  8
0
  6
Continuous
 62
     7
370
    15
100
AcDbCircle
 10
2024.5881391893
 20
900.8601687392
 30
0.0
 40
3.345000000000146
100
AcDbArc
 50
141.6687599133
 51
307.8973440262
  0
ARC
  5
3E8
330
1F
100
AcDbEntity
  8
0
  6
Continuous
 62
     7
370
    15
100
AcDbCircle
 10
2027.379899172
 20
897.2736521563
 30
0.0
 40
1.200000000000121
100
AcDbArc
 50
89.7640843231
 51
127.8973440262
  0
LINE
  5
3E9
330
1F
100
AcDbEntity
  8
0
  6
Continuous
 62
     7
370
    15
100
AcDbLine
 10
2071.1104754199
 20
898.2935788516
 30
0.0
 11
2027.3847464313
 21
898.4736444834
 31
0.0
  0
ARC
  5
3EA
330
1F
100
AcDbEntity
  8
0
  6
Continuous
 62
     7
370
    15
100
AcDbCircle
 10
2071.0816170062
 20
891.2936599173
 30
0.0
 40
7.000000000000455
100
AcDbArc
 50
0.0
 51
89.7640843231
  0
LINE
  5
3EB
330
1F
100
AcDbEntity
  8
0
  6
Continuous
 62
     7
370
    15
100
AcDbLine
 10
2078.0815962543
 20
800.2028109912
 30
0.0
 11
2078.0815962543
 21
891.2936689738
 31
0.0
  0
ARC
  5
3EC
330
1F
100
AcDbEntity
  8
0
  6
Continuous
 62
     7
370
    15
100
AcDbCircle
 10
2071.0816170062
 20
800.2027998615
 30
0.0
 40
7.000000000000455
100
AcDbArc
 50
270.2359156769
 51
0.0
  0
LINE
  5
3ED
330
1F
100
AcDbEntity
  8
0
  6
Continuous
 62
     7
370
    15
100
AcDbLine
 10
2071.1104754199
 20
793.2028415087
 30
0.0
 11
2027.3847464313
 21
793.0228354815
 31
0.0
  0
LINE
  5
3EE
330
1F
100
AcDbEntity
  8
0
  6
Continuous
 62
     7
370
    15
100
AcDbLine
 10
1854.6466711749
 20
537.7936603907
 30
0.0
 11
1854.6466711749
 21
498.164886463
 31
0.0
  0
LINE
  5
3EF
330
1F
100
AcDbEntity
  8
0
  6
Continuous
 62
     7
370
    15
100
AcDbLine
 10
1854.6466711749
 20
1126.9603016261
 30
0.0
 11
1854.6466711749
 21
564.5361187342
 31
0.0
  0
LINE
  5
3F0
330
1F
100
AcDbEntity
  8
0
  6
Continuous
 62
     7
370
    15
100
AcDbLine
 10
2078.0815962543
 20
564.5361187342
 30
0.0
 11
2078.0815962543
 21
655.6269767169
 31
0.0
  0
LINE
  5
3F1
330
1F
100
AcDbEntity
  8
0
  6
Continuous
 62
     7
370
    15
100
AcDbLine
 10
2078.0815962543
 20
682.369494665
 30
0.0
 11
2078.0815962543
 21
773.4603526476
 31
0.0
  0
ARC
  5
3F2
330
1F
100
AcDbEntity
  8
0
  6
Continuous
 62
     7
370
    15
100
AcDbCircle
 10
2021.0228670062
 20
1023.4841176505
 30
0.0
 40
1.20000000000022
100
AcDbArc
 50
0.0
 51
38.3312400867
  0
ENDSEC
  0
SECTION
  2
OBJECTS
  0
DICTIONARY
  5
C
330
0
100
AcDbDictionary
281
     1
  3
ACAD_GROUP
350
D
  3
ACAD_LAYOUT
350
1A
  3
ACAD_MLINESTYLE
350
17
  3
ACAD_PLOTSETTINGS
350
19
  3
ACAD_PLOTSTYLENAME
350
E
  3
ACAD_SCALELIST
350
47
  0
DICTIONARY
  5
D
102
{ACAD_REACTORS
330
C
102
}
330
C
100
AcDbDictionary
281
     1
  0
DICTIONARY
  5
1A
102
{ACAD_REACTORS
330
C
102
}
330
C
100
AcDbDictionary
281
     1
  3
Layout1
350
1E
  3
Layout2
350
26
  3
Model
350
22
  0
DICTIONARY
  5
17
102
{ACAD_REACTORS
330
C
102
}
330
C
100
AcDbDictionary
281
     1
  3
Standard
350
18
  0
DICTIONARY
  5
19
102
{ACAD_REACTORS
330
C
102
}
330
C
100
AcDbDictionary
281
     1
  0
ACDBDICTIONARYWDFLT
  5
E
102
{ACAD_REACTORS
330
C
102
}
330
C
100
AcDbDictionary
281
     1
  3
Normal
350
F
100
AcDbDictionaryWithDefault
340
F
  0
DICTIONARY
  5
47
102
{ACAD_REACTORS
330
C
102
}
330
C
100
AcDbDictionary
281
     1
  3
A0
350
48
  3
A1
350
49
  3
A2
350
4A
  3
A3
350
4B
  3
A4
350
4C
  3
A5
350
4D
  3
A6
350
4E
  3
A7
350
4F
  3
A8
350
50
  3
A9
350
51
  3
B0
350
52
  3
B1
350
53
  3
B2
350
54
  3
B3
350
55
  3
B4
350
56
  3
B5
350
57
  3
B6
350
58
  3
B7
350
59
  3
B8
350
5A
  3
B9
350
5B
  3
C0
350
5C
  3
C1
350
5D
  3
C2
350
5E
  3
C3
350
5F
  3
C4
350
60
  3
C5
350
61
  3
C6
350
62
  3
C7
350
63
  3
C8
350
64
  3
C9
350
65
  3
D0
350
66
  3
D1
350
67
  3
D2
350
68
  0
LAYOUT
  5
1E
102
{ACAD_REACTORS
330
1A
102
}
330
1A
100
AcDbPlotSettings
  1

  2
none_device
  4

  6

 40
0.0
 41
0.0
 42
0.0
 43
0.0
 44
0.0
 45
0.0
 46
0.0
 47
0.0
 48
0.0
 49
0.0
140
0.0
141
0.0
142
1.0
143
1.0
 70
   688
 72
     1
 73
     0
 74
     5
  7

 75
    16
147
1.0
148
0.0
149
0.0
100
AcDbLayout
  1
Layout1
 70
     1
 71
     1
 10
0.0
 20
0.0
 11
420.0
 21
297.0
 12
0.0
 22
0.0
 32
0.0
 14
1.0000000000E+20
 24
1.0000000000E+20
 34
1.0000000000E+20
 15
-1.0000000000E+20
 25
-1.0000000000E+20
 35
-1.0000000000E+20
146
0.0
 13
0.0
 23
0.0
 33
0.0
 16
1.0
 26
0.0
 36
0.0
 17
0.0
 27
1.0
 37
0.0
 76
     0
330
1B
  0
LAYOUT
  5
26
102
{ACAD_REACTORS
330
1A
102
}
330
1A
100
AcDbPlotSettings
  1

  2
none_device
  4

  6

 40
0.0
 41
0.0
 42
0.0
 43
0.0
 44
0.0
 45
0.0
 46
0.0
 47
0.0
 48
0.0
 49
0.0
140
0.0
141
0.0
142
1.0
143
1.0
 70
   688
 72
     1
 73
     0
 74
     5
  7

 75
    16
147
1.0
148
0.0
149
0.0
100
AcDbLayout
  1
Layout2
 70
     1
 71
     2
 10
0.0
 20
0.0
 11
0.0
 21
0.0
 12
0.0
 22
0.0
 32
0.0
 14
0.0
 24
0.0
 34
0.0
 15
0.0
 25
0.0
 35
0.0
146
0.0
 13
0.0
 23
0.0
 33
0.0
 16
1.0
 26
0.0
 36
0.0
 17
0.0
 27
1.0
 37
0.0
 76
     0
330
23
  0
LAYOUT
  5
22
102
{ACAD_REACTORS
330
1A
102
}
330
1A
100
AcDbPlotSettings
  1

  2
none_device
  4
Letter_(8.50_x_11.00_Inches)
  6

 40
6.35
 41
6.35
 42
6.35000508
 43
6.35000508
 44
215.9
 45
279.4
 46
0.0
 47
0.0
 48
0.0
 49
0.0
140
0.0
141
0.0
142
1.0
143
1.0
 70
  1712
 72
     1
 73
     0
 74
     0
  7

 75
     0
147
1.0
148
0.0
149
0.0
100
AcDbLayout
  1
Model
 70
     1
 71
     0
 10
0.0
 20
0.0
 11
2440.0
 21
1220.0
 12
0.0
 22
0.0
 32
0.0
 14
0.0
 24
0.0
 34
0.0
 15
2440.0
 25
1220.0
 35
0.0
146
0.0
 13
0.0
 23
0.0
 33
0.0
 16
1.0
 26
0.0
 36
0.0
 17
0.0
 27
1.0
 37
0.0
 76
     0
330
1F
331
29
  0
MLINESTYLE
  5
18
102
{ACAD_REACTORS
330
17
102
}
330
17
100
AcDbMlineStyle
  2
Standard
 70
     0
  3

 62
   256
 51
90.0
 52
90.0
 71
     2
 49
0.5
 62
   256
  6
BYLAYER
 49
-0.5
 62
   256
  6
BYLAYER
  0
ACDBPLACEHOLDER
  5
F
102
{ACAD_REACTORS
330
E
102
}
330
E
  0
SCALE
  5
48
102
{ACAD_REACTORS
330
47
102
}
330
47
100
AcDbScale
 70
     0
300
1:1
140
1.0
141
1.0
290
     1
  0
SCALE
  5
49
102
{ACAD_REACTORS
330
47
102
}
330
47
100
AcDbScale
 70
     0
300
1:2
140
1.0
141
2.0
290
     0
  0
SCALE
  5
4A
102
{ACAD_REACTORS
330
47
102
}
330
47
100
AcDbScale
 70
     0
300
1:4
140
1.0
141
4.0
290
     0
  0
SCALE
  5
4B
102
{ACAD_REACTORS
330
47
102
}
330
47
100
AcDbScale
 70
     0
300
1:5
140
1.0
141
5.0
290
     0
  0
SCALE
  5
4C
102
{ACAD_REACTORS
330
47
102
}
330
47
100
AcDbScale
 70
     0
300
1:8
140
1.0
141
8.0
290
     0
  0
SCALE
  5
4D
102
{ACAD_REACTORS
330
47
102
}
330
47
100
AcDbScale
 70
     0
300
1:10
140
1.0
141
10.0
290
     0
  0
SCALE
  5
4E
102
{ACAD_REACTORS
330
47
102
}
330
47
100
AcDbScale
 70
     0
300
1:16
140
1.0
141
16.0
290
     0
  0
SCALE
  5
4F
102
{ACAD_REACTORS
330
47
102
}
330
47
100
AcDbScale
 70
     0
300
1:20
140
1.0
141
20.0
290
     0
  0
SCALE
  5
50
102
{ACAD_REACTORS
330
47
102
}
330
47
100
AcDbScale
 70
     0
300
1:30
140
1.0
141
30.0
290
     0
  0
SCALE
  5
51
102
{ACAD_REACTORS
330
47
102
}
330
47
100
AcDbScale
 70
     0
300
1:40
140
1.0
141
40.0
290
     0
  0
SCALE
  5
52
102
{ACAD_REACTORS
330
47
102
}
330
47
100
AcDbScale
 70
     0
300
1:50
140
1.0
141
50.0
290
     0
  0
SCALE
  5
53
102
{ACAD_REACTORS
330
47
102
}
330
47
100
AcDbScale
 70
     0
300
1:100
140
1.0
141
100.0
290
     0
  0
SCALE
  5
54
102
{ACAD_REACTORS
330
47
102
}
330
47
100
AcDbScale
 70
     0
300
2:1
140
2.0
141
1.0
290
     0
  0
SCALE
  5
55
102
{ACAD_REACTORS
330
47
102
}
330
47
100
AcDbScale
 70
     0
300
4:1
140
4.0
141
1.0
290
     0
  0
SCALE
  5
56
102
{ACAD_REACTORS
330
47
102
}
330
47
100
AcDbScale
 70
     0
300
8:1
140
8.0
141
1.0
290
     0
  0
SCALE
  5
57
102
{ACAD_REACTORS
330
47
102
}
330
47
100
AcDbScale
 70
     0
300
10:1
140
10.0
141
1.0
290
     0
  0
SCALE
  5
58
102
{ACAD_REACTORS
330
47
102
}
330
47
100
AcDbScale
 70
     0
300
100:1
140
100.0
141
1.0
290
     0
  0
SCALE
  5
59
102
{ACAD_REACTORS
330
47
102
}
330
47
100
AcDbScale
 70
     0
300
1/128" = 1'-0"
140
0.0078125
141
12.0
290
     0
  0
SCALE
  5
5A
102
{ACAD_REACTORS
330
47
102
}
330
47
100
AcDbScale
 70
     0
300
1/64" = 1'-0"
140
0.015625
141
12.0
290
     0
  0
SCALE
  5
5B
102
{ACAD_REACTORS
330
47
102
}
330
47
100
AcDbScale
 70
     0
300
1/32" = 1'-0"
140
0.03125
141
12.0
290
     0
  0
SCALE
  5
5C
102
{ACAD_REACTORS
330
47
102
}
330
47
100
AcDbScale
 70
     0
300
1/16" = 1'-0"
140
0.0625
141
12.0
290
     0
  0
SCALE
  5
5D
102
{ACAD_REACTORS
330
47
102
}
330
47
100
AcDbScale
 70
     0
300
3/32" = 1'-0"
140
0.09375
141
12.0
290
     0
  0
SCALE
  5
5E
102
{ACAD_REACTORS
330
47
102
}
330
47
100
AcDbScale
 70
     0
300
1/8" = 1'-0"
140
0.125
141
12.0
290
     0
  0
SCALE
  5
5F
102
{ACAD_REACTORS
330
47
102
}
330
47
100
AcDbScale
 70
     0
300
3/16" = 1'-0"
140
0.1875
141
12.0
290
     0
  0
SCALE
  5
60
102
{ACAD_REACTORS
330
47
102
}
330
47
100
AcDbScale
 70
     0
300
1/4" = 1'-0"
140
0.25
141
12.0
290
     0
  0
SCALE
  5
61
102
{ACAD_REACTORS
330
47
102
}
330
47
100
AcDbScale
 70
     0
300
3/8" = 1'-0"
140
0.375
141
12.0
290
     0
  0
SCALE
  5
62
102
{ACAD_REACTORS
330
47
102
}
330
47
100
AcDbScale
 70
     0
300
1/2" = 1'-0"
140
0.5
141
12.0
290
     0
  0
SCALE
  5
63
102
{ACAD_REACTORS
330
47
102
}
330
47
100
AcDbScale
 70
     0
300
3/4" = 1'-0"
140
0.75
141
12.0
290
     0
  0
SCALE
  5
64
102
{ACAD_REACTORS
330
47
102
}
330
47
100
AcDbScale
 70
     0
300
1" = 1'-0"
140
1.0
141
12.0
290
     0
  0
SCALE
  5
65
102
{ACAD_REACTORS
330
47
102
}
330
47
100
AcDbScale
 70
     0
300
1-1/2" = 1'-0"
140
1.5
141
12.0
290
     0
  0
SCALE
  5
66
102
{ACAD_REACTORS
330
47
102
}
330
47
100
AcDbScale
 70
     0
300
3" = 1'-0"
140
3.0
141
12.0
290
     0
  0
SCALE
  5
67
102
{ACAD_REACTORS
330
47
102
}
330
47
100
AcDbScale
 70
     0
300
6" = 1'-0"
140
6.0
141
12.0
290
     0
  0
SCALE
  5
68
102
{ACAD_REACTORS
330
47
102
}
330
47
100
AcDbScale
 70
     0
300
1'-0" = 1'-0"
140
12.0
141
12.0
290
     0
  0
ENDSEC
  0
EOF
