  0
SECTION
  2
HEADER
  9
$ACADVER
  1
AC1015
  9
$ACADMAINTVER
 70
     6
  9
$DWGCODEPAGE
  3
ANSI_1252
  9
$INSBASE
 10
0.0
 20
0.0
 30
0.0
  9
$EXTMIN
 10
0.0
 20
0.0
 30
0.0
  9
$EXTMAX
 10
2440.0
 20
1220.0
 30
0.0
  9
$LIMMIN
 10
0.0
 20
0.0
  9
$LIMMAX
 10
2440.0
 20
1220.0
  9
$ORTHOMODE
 70
     0
  9
$REGENMODE
 70
     1
  9
$FILLMODE
 70
     1
  9
$QTEXTMODE
 70
     0
  9
$MIRRTEXT
 70
     1
  9
$LTSCALE
 40
1.0
  9
$ATTMODE
 70
     1
  9
$TEXTSIZE
 40
3.5
  9
$TRACEWID
 40
1.0
  9
$TEXTSTYLE
  7
Standard
  9
$CLAYER
  8
0
  9
$CELTYPE
  6
ByLayer
  9
$CECOLOR
 62
   256
  9
$CELTSCALE
 40
1.0
  9
$DISPSILH
 70
     0
  9
$DIMSCALE
 40
1.0
  9
$DIMASZ
 40
3.556
  9
$DIMEXO
 40
1.0
  9
$DIMDLI
 40
3.75
  9
$DIMRND
 40
0.0
  9
$DIMDLE
 40
0.0
  9
$DIMEXE
 40
1.0
  9
$DIMTP
 40
0.0
  9
$DIMTM
 40
0.0
  9
$DIMTXT
 40
3.5
  9
$DIMCEN
 40
2.5
  9
$DIMTSZ
 40
0.0
  9
$DIMTOL
 70
     0
  9
$DIMLIM
 70
     0
  9
$DIMTIH
 70
     1
  9
$DIMTOH
 70
     1
  9
$DIMSE1
 70
     0
  9
$DIMSE2
 70
     0
  9
$DIMTAD
 70
     1
  9
$DIMZIN
 70
     0
  9
$DIMBLK
  1

  9
$DIMASO
 70
     1
  9
$DIMSHO
 70
     1
  9
$DIMPOST
  1

  9
$DIMAPOST
  1

  9
$DIMALT
 70
     0
  9
$DIMALTD
 70
     3
  9
$DIMALTF
 40
0.0393700787
  9
$DIMLFAC
 40
1.0
  9
$DIMTOFL
 70
     1
  9
$DIMTVP
 40
0.0
  9
$DIMTIX
 70
     0
  9
$DIMSOXD
 70
     0
  9
$DIMSAH
 70
     0
  9
$DIMBLK1
  1

  9
$DIMBLK2
  1

  9
$DIMSTYLE
  2
ISO-25
  9
$DIMCLRD
 70
     0
  9
$DIMCLRE
 70
     0
  9
$DIMCLRT
 70
     0
  9
$DIMTFAC
 40
1.0
  9
$DIMGAP
 40
1.524
  9
$DIMJUST
 70
     0
  9
$DIMSD1
 70
     0
  9
$DIMSD2
 70
     0
  9
$DIMTOLJ
 70
     0
  9
$DIMTZIN
 70
     0
  9
$DIMALTZ
 70
     0
  9
$DIMALTTZ
 70
     0
  9
$DIMUPT
 70
     0
  9
$DIMDEC
 70
     2
  9
$DIMTDEC
 70
     2
  9
$DIMALTU
 70
     2
  9
$DIMALTTD
 70
     3
  9
$DIMTXSTY
  7
Standard
  9
$DIMAUNIT
 70
     0
  9
$DIMADEC
 70
     2
  9
$DIMALTRND
 40
0.0
  9
$DIMAZIN
 70
     0
  9
$DIMDSEP
 70
    44
  9
$DIMATFIT
 70
     3
  9
$DIMFRAC
 70
     0
  9
$DIMLDRBLK
  1

  9
$DIMLUNIT
 70
     2
  9
$DIMLWD
 70
    -2
  9
$DIMLWE
 70
    -2
  9
$DIMTMOVE
 70
     0
  9
$LUNITS
 70
     2
  9
$LUPREC
 70
     2
  9
$SKETCHINC
 40
1.0
  9
$FILLETRAD
 40
10.0
  9
$AUNITS
 70
     0
  9
$AUPREC
 70
     2
  9
$MENU
  1
.
  9
$ELEVATION
 40
0.0
  9
$PELEVATION
 40
0.0
  9
$THICKNESS
 40
0.0
  9
$LIMCHECK
 70
     0
  9
$CHAMFERA
 40
0.0
  9
$CHAMFERB
 40
0.0
  9
$CHAMFERC
 40
0.0
  9
$CHAMFERD
 40
0.0
  9
$SKPOLY
 70
     0
  9
$TDCREATE
 40
2457720.683419283
  9
$TDUCREATE
 40
2457720.975085949
  9
$TDUPDATE
 40
2457720.683419884
  9
$TDUUPDATE
 40
2457720.975086551
  9
$TDINDWG
 40
0.0000000116
  9
$TDUSRTIMER
 40
0.0000000116
  9
$USRTIMER
 70
     1
  9
$ANGBASE
 50
0.0
  9
$ANGDIR
 70
     0
  9
$PDMODE
 70
     0
  9
$PDSIZE
 40
-1.0
  9
$PLINEWID
 40
0.0
  9
$SPLFRAME
 70
     0
  9
$SPLINETYPE
 70
     6
  9
$SPLINESEGS
 70
     8
  9
$HANDSEED
  5
3F3
  9
$SURFTAB1
 70
     6
  9
$SURFTAB2
 70
     6
  9
$SURFTYPE
 70
     6
  9
$SURFU
 70
     6
  9
$SURFV
 70
     6
  9
$UCSBASE
  2

  9
$UCSNAME
  2

  9
$UCSORG
 10
0.0
 20
0.0
 30
0.0
  9
$UCSXDIR
 10
1.0
 20
0.0
 30
0.0
  9
$UCSYDIR
 10
0.0
 20
1.0
 30
0.0
  9
$UCSORTHOREF
  2

  9
$UCSORTHOVIEW
 70
     0
  9
$UCSORGTOP
 10
0.0
 20
0.0
 30
0.0
  9
$UCSORGBOTTOM
 10
0.0
 20
0.0
 30
0.0
  9
$UCSORGLEFT
 10
0.0
 20
0.0
 30
0.0
  9
$UCSORGRIGHT
 10
0.0
 20
0.0
 30
0.0
  9
$UCSORGFRONT
 10
0.0
 20
0.0
 30
0.0
  9
$UCSORGBACK
 10
0.0
 20
0.0
 30
0.0
  9
$PUCSBASE
  2

  9
$PUCSNAME
  2

  9
$PUCSORG
 10
0.0
 20
0.0
 30
0.0
  9
$PUCSXDIR
 10
1.0
 20
0.0
 30
0.0
  9
$PUCSYDIR
 10
0.0
 20
1.0
 30
0.0
  9
$PUCSORTHOREF
  2

  9
$PUCSORTHOVIEW
 70
     0
  9
$PUCSORGTOP
 10
0.0
 20
0.0
 30
0.0
  9
$PUCSORGBOTTOM
 10
0.0
 20
0.0
 30
0.0
  9
$PUCSORGLEFT
 10
0.0
 20
0.0
 30
0.0
  9
$PUCSORGRIGHT
 10
0.0
 20
0.0
 30
0.0
  9
$PUCSORGFRONT
 10
0.0
 20
0.0
 30
0.0
  9
$PUCSORGBACK
 10
0.0
 20
0.0
 30
0.0
  9
$USERI1
 70
     0
  9
$USERI2
 70
     0
  9
$USERI3
 70
     0
  9
$USERI4
 70
     0
  9
$USERI5
 70
     0
  9
$USERR1
 40
0.0
  9
$USERR2
 40
0.0
  9
$USERR3
 40
0.0
  9
$USERR4
 40
0.0
  9
$USERR5
 40
0.0
  9
$WORLDVIEW
 70
     1
  9
$SHADEDGE
 70
     3
  9
$SHADEDIF
 70
    70
  9
$TILEMODE
 70
     1
  9
$MAXACTVP
 70
    64
  9
$PINSBASE
 10
0.0
 20
0.0
 30
0.0
  9
$PLIMCHECK
 70
     0
  9
$PEXTMIN
 10
1.0000000000E+20
 20
1.0000000000E+20
 30
1.0000000000E+20
  9
$PEXTMAX
 10
-1.0000000000E+20
 20
-1.0000000000E+20
 30
-1.0000000000E+20
  9
$PLIMMIN
 10
0.0
 20
0.0
  9
$PLIMMAX
 10
420.0
 20
297.0
  9
$UNITMODE
 70
     0
  9
$VISRETAIN
 70
     1
  9
$PLINEGEN
 70
     0
  9
$PSLTSCALE
 70
     1
  9
$TREEDEPTH
 70
  3020
  9
$CMLSTYLE
  2
Standard
  9
$CMLJUST
 70
     0
  9
$CMLSCALE
 40
20.0
  9
$PROXYGRAPHICS
 70
     1
  9
$MEASUREMENT
 70
     1
  9
$CELWEIGHT
370
    -1
  9
$ENDCAPS
280
     0
  9
$JOINSTYLE
280
     0
  9
$LWDISPLAY
290
     1
  9
$INSUNITS
 70
     4
  9
$HYPERLINKBASE
  1

  9
$STYLESHEET
  1

  9
$XEDIT
290
     1
  9
$CEPSNTYPE
380
     0
  9
$PSTYLEMODE
290
     1
  9
$FINGERPRINTGUID
  2
{3AFFA299-A894-4C30-9D3C-C18C3EB0403B}
  9
$VERSIONGUID
  2
{FAEB1C32-E019-11D5-929B-00C0DF256EC4}
  9
$EXTNAMES
290
     1
  9
$PSVPSCALE
 40
0.0
  9
$OLESTARTUP
290
     0
  0
ENDSEC
  0
SECTION
  2
CLASSES
  0
CLASS
  1
ACDBDICTIONARYWDFLT
  2
AcDbDictionaryWithDefault
  3
ObjectDBX Classes
 90
        0
280
     0
281
     0
  0
CLASS
  1
VISUALSTYLE
  2
AcDbVisualStyle
  3
ObjectDBX Classes
 90
     4095
280
     0
281
     0
  0
CLASS
  1
MATERIAL
  2
AcDbMaterial
  3
ObjectDBX Classes
 90
     1153
280
     0
281
     0
  0
CLASS
  1
SCALE
  2
AcDbScale
  3
ObjectDBX Classes
 90
     1153
280
     0
281
     0
  0
CLASS
  1
TABLESTYLE
  2
AcDbTableStyle
  3
ObjectDBX Classes
 90
     4095
280
     0
281
     0
  0
CLASS
  1
MLEADERSTYLE
  2
AcDbMLeaderStyle
  3
ACDB_MLEADERSTYLE_CLASS
 90
     4095
280
     0
281
     0
  0
CLASS
  1
SUN
  2
AcDbSun
  3
SCENEOE
 90
     1153
280
     0
281
     0
  0
CLASS
  1
ACDBPLACEHOLDER
  2
AcDbPlaceHolder
  3
ObjectDBX Classes
 90
        0
280
     0
281
     0
  0
CLASS
  1
LAYOUT
  2
AcDbLayout
  3
ObjectDBX Classes
 90
        0
280
     0
281
     0
  0
ENDSEC
  0
SECTION
  2
TABLES
  0
TABLE
  2
VPORT
  5
8
330
0
100
AcDbSymbolTable
 70
     1
  0
VPORT
  5
29
330
8
100
AcDbSymbolTableRecord
100
AcDbViewportTableRecord
  2
*Active
 70
     0
 10
0.0
 20
0.0
 11
1.0
 21
1.0
 12
1220.0
 22
610.0
 13
0.0
 23
0.0
 14
10.0
 24
10.0
 15
10.0
 25
10.0
 16
0.0
 26
0.0
 36
1.0
 17
0.0
 27
0.0
 37
0.0
 40
1220.0
 41
2.0
 42
50.0
 43
0.0
 44
0.0
 50
0.0
 51
0.0
 71
     0
 72
  2000
 73
     1
 74
     3
 75
     0
 76
     0
 77
     0
 78
     0
281
     0
 65
     1
110
0.0
120
0.0
130
0.0
111
1.0
121
0.0
131
0.0
112
0.0
122
1.0
132
0.0
 79
     0
146
0.0
  0
ENDTAB
  0
TABLE
  2
LTYPE
  5
5
330
0
100
AcDbSymbolTable
 70
     6
  0
LTYPE
  5
14
330
5
100
AcDbSymbolTableRecord
100
AcDbLinetypeTableRecord
  2
ByBlock
 70
     0
  3

 72
    65
 73
     0
 40
0.0
  0
LTYPE
  5
15
330
5
100
AcDbSymbolTableRecord
100
AcDbLinetypeTableRecord
  2
ByLayer
 70
     0
  3

 72
    65
 73
     0
 40
0.0
  0
LTYPE
  5
16
330
5
100
AcDbSymbolTableRecord
100
AcDbLinetypeTableRecord
  2
Continuous
 70
     0
  3
Solid line
 72
    65
 73
     0
 40
0.0
  0
LTYPE
  5
6E
330
5
100
AcDbSymbolTableRecord
100
AcDbLinetypeTableRecord
  2
HIDDEN
 70
     0
  3
Hidden __ __ __ __ __ __ __ __ __ __ __ __ __ __
 72
    65
 73
     2
 40
1.905
 49
1.27
 74
     0
 49
-0.635
 74
     0
  0
LTYPE
  5
6F
330
5
100
AcDbSymbolTableRecord
100
AcDbLinetypeTableRecord
  2
PHANTOM
 70
     0
  3
Phantom ______  __  __  ______  __  __  ______
 72
    65
 73
     6
 40
12.7
 49
6.35
 74
     0
 49
-1.27
 74
     0
 49
1.27
 74
     0
 49
-1.27
 74
     0
 49
1.27
 74
     0
 49
-1.27
 74
     0
  0
LTYPE
  5
70
330
5
100
AcDbSymbolTableRecord
100
AcDbLinetypeTableRecord
  2
CENTER
 70
     0
  3
Center ____ _ ____ _ ____ _ ____ _ ____ _ ____
 72
    65
 73
     4
 40
10.16
 49
6.35
 74
     0
 49
-1.27
 74
     0
 49
1.27
 74
     0
 49
-1.27
 74
     0
  0
LTYPE
  5
71
330
5
100
AcDbSymbolTableRecord
100
AcDbLinetypeTableRecord
  2
CENTERX2
 70
     0
  3
Center (2x) ________  __  ________  __  _____
 72
    65
 73
     4
 40
20.32
 49
12.7
 74
     0
 49
-2.54
 74
     0
 49
2.54
 74
     0
 49
-2.54
 74
     0
  0
LTYPE
  5
72
330
5
100
AcDbSymbolTableRecord
100
AcDbLinetypeTableRecord
  2
DOT2
 70
     0
  3
Dot (.5x) ........................................
 72
    65
 73
     2
 40
0.635
 49
0.0
 74
     0
 49
-0.635
 74
     0
  0
ENDTAB
  0
TABLE
  2
LAYER
  5
2
330
0
100
AcDbSymbolTable
 70
     1
  0
LAYER
  5
10
330
2
100
AcDbSymbolTableRecord
100
AcDbLayerTableRecord
  2
0
 70
     0
 62
     7
  6
Continuous
370
    -3
390
F
  0
ENDTAB
  0
TABLE
  2
STYLE
  5
3
330
0
100
AcDbSymbolTable
 70
     1
  0
STYLE
  5
11
330
3
100
AcDbSymbolTableRecord
100
AcDbTextStyleTableRecord
  2
Standard
 70
     0
 40
0.0
 41
1.0
 50
0.0
 71
     0
 42
3.5
  3
txt
  4

  0
ENDTAB
  0
TABLE
  2
VIEW
  5
6
330
0
100
AcDbSymbolTable
 70
     0
  0
ENDTAB
  0
TABLE
  2
UCS
  5
7
330
0
100
AcDbSymbolTable
 70
     0
  0
ENDTAB
  0
TABLE
  2
APPID
  5
9
330
0
100
AcDbSymbolTable
 70
     1
  0
APPID
  5
12
330
9
100
AcDbSymbolTableRecord
100
AcDbRegAppTableRecord
  2
ACAD
 70
     0
  0
ENDTAB
  0
TABLE
  2
DIMSTYLE
  5
A
330
0
100
AcDbSymbolTable
 70
     1
100
AcDbDimStyleTable
  0
DIMSTYLE
105
27
330
A
100
AcDbSymbolTableRecord
100
AcDbDimStyleTableRecord
  2
ISO-25
 70
     0
 41
2.5
 42
0.625
 43
3.75
 44
1.25
 73
     0
 74
     0
 77
     1
 78
     8
140
2.5
141
2.5
143
0.0393700787
147
0.625
171
     3
172
     1
178
     0
271
     2
272
     2
274
     3
278
    44
283
     0
284
     8
340
11
  0
ENDTAB
  0
TABLE
  2
BLOCK_RECORD
  5
1
330
0
100
AcDbSymbolTable
 70
     1
  0
BLOCK_RECORD
  5
1F
330
1
100
AcDbSymbolTableRecord
100
AcDbBlockTableRecord
  2
*Model_Space
340
22
  0
BLOCK_RECORD
  5
1B
330
1
100
AcDbSymbolTableRecord
100
AcDbBlockTableRecord
  2
*Paper_Space
340
1E
  0
BLOCK_RECORD
  5
23
330
1
100
AcDbSymbolTableRecord
100
AcDbBlockTableRecord
  2
*Paper_Space0
340
26
  0
ENDTAB
  0
ENDSEC
  0
SECTION
  2
BLOCKS
  0
BLOCK
  5
20
330
1F
100
AcDbEntity
  8
0
100
AcDbBlockBegin
  2
*Model_Space
 70
     0
 10
0.0
 20
0.0
 30
0.0
  3
*Model_Space
  1

  0
ENDBLK
  5
21
330
1F
100
AcDbEntity
  8
0
100
AcDbBlockEnd
  0
BLOCK
  5
1C
330
1B
100
AcDbEntity
 67
     1
  8
0
100
AcDbBlockBegin
  2
*Paper_Space
 70
     0
 10
0.0
 20
0.0
 30
0.0
  3
*Paper_Space
  1

  0
ENDBLK
  5
1D
330
1B
100
AcDbEntity
 67
     1
  8
0
100
AcDbBlockEnd
  0
BLOCK
  5
24
330
23
100
AcDbEntity
  8
0
100
AcDbBlockBegin
  2
*Paper_Space0
 70
     0
 10
0.0
 20
0.0
 30
0.0
  3
*Paper_Space0
  1

  0
ENDBLK
  5
25
330
23
100
AcDbEntity
  8
0
100
AcDbBlockEnd
  0
ENDSEC
  0
SECTION
  2
ENTITIES
  0
ARC
  5
73
330
1F
100
AcDbEntity
  8
0
  6
Continuous
 62
     7
370
    15
100
AcDbCircle
 10
1190.2091170062
 20
1193.3315632228
 30
0.0
 40
7.0
100
AcDbArc
 50
0.0
 51
90.0
  0
ARC
  5
74
330
1F
100
AcDbEntity
  8
0
  6
Continuous
 62
     7
370
    15
100
AcDbCircle
 10
1190.2091170062
 20
26.8315632228
 30
0.0
 40
7.0
100
AcDbArc
 50
270.0
 51
0.0
  0
LINE
  5
75
330
1F
100
AcDbEntity
  8
0
  6
Continuous
 62
     7
370
    15
100
AcDbLine
 10
1190.20913875
 20
19.8315641317
 30
0.0
 11
980.7740930308
 21
19.8315641317
 31
0.0
  0
ARC
  5
76
330
1F
100
AcDbEntity
  8
0
  6
Continuous
 62
     7
370
    15
100
AcDbCircle
 10
980.7741170062
 20
26.8315632228
 30
0.0
 40
7.0
100
AcDbArc
 50
180.0
 51
270.0
  0
LINE
  5
77
330
1F
100
AcDbEntity
  8
0
  6
Continuous
 62
     7
370
    15
100
AcDbLine
 10
973.7741235484
 20
26.8315634165
 30
0.0
 11
973.7741235484
 21
63.4603294018
 31
0.0
  0
ARC
  5
78
330
1F
100
AcDbEntity
  8
0
  6
Continuous
 62
     7
370
    15
100
AcDbCircle
 10
980.7741170062
 20
63.460326584
 30
0.0
 40
7.0
100
AcDbArc
 50
90.2359156769
 51
180.0
  0
LINE
  5
79
330
1F
100
AcDbEntity
  8
0
  6
Continuous
 62
     7
370
    15
100
AcDbLine
 10
1024.2706421603
 20
70.6394853476
 30
0.0
 11
980.7453039874
 21
70.4602690819
 31
0.0
  0
ARC
  5
7A
330
1F
100
AcDbEntity
  8
0
  6
Continuous
 62
     7
370
    15
100
AcDbCircle
 10
1024.2780726948
 20
68.8394994455
 30
0.0
 40
1.800000000000113
100
AcDbArc
 50
54.4753000235
 51
90.2359156769
  0
ARC
  5
7B
330
1F
100
AcDbEntity
  8
0
  6
Continuous
 62
     7
370
    15
100
AcDbCircle
 10
1027.2675948231
 20
73.0268354058
 30
0.0
 40
3.345000000000099
100
AcDbArc
 50
234.4753000235
 51
35.9454043733
  0
ARC
  5
7C
330
1F
100
AcDbEntity
  8
0
  6
Continuous
 62
     7
370
    15
100
AcDbCircle
 10
1031.4328670062
 20
76.0470229233
 30
0.0
 40
1.800000000000182
100
AcDbArc
 50
180.0
 51
215.9454043733
  0
LINE
  5
7D
330
1F
100
AcDbEntity
  8
0
  6
Continuous
 62
     7
370
    15
100
AcDbLine
 10
1029.6329144229
 20
83.6161019686
 30
0.0
 11
1029.6329144229
 21
76.0470198873
 31
0.0
  0
ARC
  5
7E
330
1F
100
AcDbEntity
  8
0
  6
Continuous
 62
     7
370
    15
100
AcDbCircle
 10
1031.4328670062
 20
83.6161035222
 30
0.0
 40
1.800000000000182
100
AcDbArc
 50
144.0545956267
 51
180.0
  0
ARC
  5
7F
330
1F
100
AcDbEntity
  8
0
  6
Continuous
 62
     7
370
    15
100
AcDbCircle
 10
1027.2675948231
 20
86.6362910397
 30
0.0
 40
3.345000000000088
100
AcDbArc
 50
324.0545956267
 51
125.5246999765
  0
ARC
  5
80
330
1F
100
AcDbEntity
  8
0
  6
Continuous
 62
     7
370
    15
100
AcDbCircle
 10
1024.2780726948
 20
90.823627
 30
0.0
 40
1.799999999999885
100
AcDbArc
 50
269.7640843231
 51
305.5246999765
  0
LINE
  5
81
330
1F
100
AcDbEntity
  8
0
  6
Continuous
 62
     7
370
    15
100
AcDbLine
 10
980.7453039874
 20
89.2028602246
 30
0.0
 11
1024.2706421603
 21
89.0236439589
 31
0.0
  0
ARC
  5
82
330
1F
100
AcDbEntity
  8
0
  6
Continuous
 62
     7
370
    15
100
AcDbCircle
 10
980.7741170062
 20
96.2027998615
 30
0.0
 40
7.000000000000133
100
AcDbArc
 50
180.0
 51
269.7640843231
  0
LINE
  5
83
330
1F
100
AcDbEntity
  8
0
  6
Continuous
 62
     7
370
    15
100
AcDbLine
 10
973.7741235484
 20
1123.9602806452
 30
0.0
 11
973.7741235484
 21
96.2027999047
 31
0.0
  0
ARC
  5
84
330
1F
100
AcDbEntity
  8
0
  6
Continuous
 62
     7
370
    15
100
AcDbCircle
 10
980.7741170062
 20
1123.960326584
 30
0.0
 40
7.000000000000446
100
AcDbArc
 50
90.2359156769
 51
180.0
  0
LINE
  5
85
330
1F
100
AcDbEntity
  8
0
  6
Continuous
 62
     7
370
    15
100
AcDbLine
 10
980.7453039874
 20
1130.9602501277
 30
0.0
 11
1024.2706421603
 21
1131.1395408991
 31
0.0
  0
ARC
  5
86
330
1F
100
AcDbEntity
  8
0
  6
Continuous
 62
     7
370
    15
100
AcDbCircle
 10
1024.2780726948
 20
1129.3394994455
 30
0.0
 40
1.799999999999866
100
AcDbArc
 50
54.4753000235
 51
90.2359156769
  0
ARC
  5
87
330
1F
100
AcDbEntity
  8
0
  6
Continuous
 62
     7
370
    15
100
AcDbCircle
 10
1027.2675948231
 20
1133.5268354058
 30
0.0
 40
3.345000000000157
100
AcDbArc
 50
234.4753000235
 51
35.9454043733
  0
ARC
  5
88
330
1F
100
AcDbEntity
  8
0
  6
Continuous
 62
     7
370
    15
100
AcDbCircle
 10
1031.4328670062
 20
1136.5470229233
 30
0.0
 40
1.800000000000182
100
AcDbArc
 50
180.0
 51
215.9454043733
  0
LINE
  5
89
330
1F
100
AcDbEntity
  8
0
  6
Continuous
 62
     7
370
    15
100
AcDbLine
 10
1029.6329144229
 20
1136.5469934825
 30
0.0
 11
1029.6329144229
 21
1144.1160681132
 31
0.0
  0
ARC
  5
8A
330
1F
100
AcDbEntity
  8
0
  6
Continuous
 62
     7
370
    15
100
AcDbCircle
 10
1031.4328670062
 20
1144.1161035222
 30
0.0
 40
1.800000000000182
100
AcDbArc
 50
144.0545956267
 51
180.0
  0
ARC
  5
8B
330
1F
100
AcDbEntity
  8
0
  6
Continuous
 62
     7
370
    15
100
AcDbCircle
 10
1027.2675948231
 20
1147.1362910397
 30
0.0
 40
3.344999999999901
100
AcDbArc
 50
324.0545956267
 51
125.5246999765
  0
ARC
  5
8C
330
1F
100
AcDbEntity
  8
0
  6
Continuous
 62
     7
370
    15
100
AcDbCircle
 10
1024.2780726948
 20
1151.323627
 30
0.0
 40
1.800000000000237
100
AcDbArc
 50
269.7640843231
 51
305.5246999765
  0
LINE
  5
8D
330
1F
100
AcDbEntity
  8
0
  6
Continuous
 62
     7
370
    15
100
AcDbLine
 10
1024.2706421603
 20
1149.5236399058
 30
0.0
 11
980.7453039874
 21
1149.702811468
 31
0.0
  0
ARC
  5
8E
330
1F
100
AcDbEntity
  8
0
  6
Continuous
 62
     7
370
    15
100
AcDbCircle
 10
980.7741170062
 20
1156.7027998615
 30
0.0
 40
7.0
100
AcDbArc
 50
180.0
 51
269.7640843231
  0
LINE
  5
8F
330
1F
100
AcDbEntity
  8
0
  6
Continuous
 62
     7
370
    15
100
AcDbLine
 10
973.7741235484
 20
1193.3315040949
 30
0.0
 11
973.7741235484
 21
1156.7027809504
 31
0.0
  0
ARC
  5
90
330
1F
100
AcDbEntity
  8
0
  6
Continuous
 62
     7
370
    15
100
AcDbCircle
 10
980.7741170062
 20
1193.3315632228
 30
0.0
 40
7.0
100
AcDbArc
 50
90.0
 51
180.0
  0
LINE
  5
91
330
1F
100
AcDbEntity
  8
0
  6
Continuous
 62
     7
370
    15
100
AcDbLine
 10
1190.20913875
 20
1200.3315927867
 30
0.0
 11
980.7740930308
 21
1200.3315927867
 31
0.0
  0
LINE
  5
92
330
1F
100
AcDbEntity
  8
0
  6
Continuous
 62
     7
370
    15
100
AcDbLine
 10
1197.2091082324
 20
26.8315634165
 30
0.0
 11
1197.2091082324
 21
1193.3315040949
 31
0.0
  0
LINE
  5
93
330
1F
100
AcDbEntity
  8
0
  6
Continuous
 62
     7
370
    15
100
AcDbLine
 10
362.1866289367
 20
1123.9602806452
 30
0.0
 11
362.1866289367
 21
96.2027999047
 31
0.0
  0
ARC
  5
94
330
1F
100
AcDbEntity
  8
0
  6
Continuous
 62
     7
370
    15
100
AcDbCircle
 10
412.6905726948
 20
1151.323627
 30
0.0
 40
1.800000000000269
100
AcDbArc
 50
269.7640843231
 51
305.5246999765
  0
LINE
  5
95
330
1F
100
AcDbEntity
  8
0
  6
Continuous
 62
     7
370
    15
100
AcDbLine
 10
412.6831475486
 20
1149.5236399058
 30
0.0
 11
369.1578093757
 21
1149.702811468
 31
0.0
  0
LINE
  5
96
330
1F
100
AcDbEntity
  8
0
  6
Continuous
 62
     7
370
    15
100
AcDbLine
 10
362.1866289367
 20
1193.3315040949
 30
0.0
 11
362.1866289367
 21
1156.7027809504
 31
0.0
  0
LINE
  5
97
330
1F
100
AcDbEntity
  8
0
  6
Continuous
 62
     7
370
    15
100
AcDbLine
 10
578.6216143359
 20
1200.3315927867
 30
0.0
 11
369.1866282214
 21
1200.3315927867
 31
0.0
  0
LINE
  5
98
330
1F
100
AcDbEntity
  8
0
  6
Continuous
 62
     7
370
    15
100
AcDbLine
 10
585.621643423
 20
26.8315634165
 30
0.0
 11
585.621643423
 21
1193.3315040949
 31
0.0
  0
ARC
  5
99
330
1F
100
AcDbEntity
  8
0
  6
Continuous
 62
     7
370
    15
100
AcDbCircle
 10
412.6905726948
 20
90.823627
 30
0.0
 40
1.799999999999886
100
AcDbArc
 50
269.7640843231
 51
305.5246999765
  0
ARC
  5
9A
330
1F
100
AcDbEntity
  8
0
  6
Continuous
 62
     7
370
    15
100
AcDbCircle
 10
419.8453670062
 20
83.6161035222
 30
0.0
 40
1.8000000000001
100
AcDbArc
 50
144.0545956267
 51
180.0
  0
LINE
  5
9B
330
1F
100
AcDbEntity
  8
0
  6
Continuous
 62
     7
370
    15
100
AcDbLine
 10
418.0453602065
 20
83.6161019686
 30
0.0
 11
418.0453602065
 21
76.0470198873
 31
0.0
  0
ARC
  5
9C
330
1F
100
AcDbEntity
  8
0
  6
Continuous
 62
     7
370
    15
100
AcDbCircle
 10
419.8453670062
 20
76.0470229233
 30
0.0
 40
1.8000000000001
100
AcDbArc
 50
180.0
 51
215.9454043733
  0
ARC
  5
9D
330
1F
100
AcDbEntity
  8
0
  6
Continuous
 62
     7
370
    15
100
AcDbCircle
 10
415.6800948231
 20
73.0268354058
 30
0.0
 40
3.345000000000066
100
AcDbArc
 50
234.4753000235
 51
35.9454043733
  0
ARC
  5
9E
330
1F
100
AcDbEntity
  8
0
  6
Continuous
 62
     7
370
    15
100
AcDbCircle
 10
412.6905726948
 20
68.8394994455
 30
0.0
 40
1.800000000000113
100
AcDbArc
 50
54.4753000235
 51
90.2359156769
  0
LINE
  5
9F
330
1F
100
AcDbEntity
  8
0
  6
Continuous
 62
     7
370
    15
100
AcDbLine
 10
578.6216143359
 20
19.8315641317
 30
0.0
 11
369.1866282214
 21
19.8315641317
 31
0.0
  0
LINE
  5
A0
330
1F
100
AcDbEntity
  8
0
  6
Continuous
 62
     7
370
    15
100
AcDbLine
 10
362.1866289367
 20
26.8315634165
 30
0.0
 11
362.1866289367
 21
63.4603294018
 31
0.0
  0
ARC
  5
A1
330
1F
100
AcDbEntity
  8
0
  6
Continuous
 62
     7
370
    15
100
AcDbCircle
 10
369.1866170062
 20
26.8315632228
 30
0.0
 40
7.0
100
AcDbArc
 50
180.0
 51
270.0
  0
ARC
  5
A2
330
1F
100
AcDbEntity
  8
0
  6
Continuous
 62
     7
370
    15
100
AcDbCircle
 10
369.1866170062
 20
63.460326584
 30
0.0
 40
7.0
100
AcDbArc
 50
90.2359156769
 51
180.0
  0
ARC
  5
A3
330
1F
100
AcDbEntity
  8
0
  6
Continuous
 62
     7
370
    15
100
AcDbCircle
 10
578.6216170062
 20
26.8315632228
 30
0.0
 40
7.0
100
AcDbArc
 50
270.0
 51
0.0
  0
ARC
  5
A4
330
1F
100
AcDbEntity
  8
0
  6
Continuous
 62
     7
370
    15
100
AcDbCircle
 10
369.1866170062
 20
96.2027998615
 30
0.0
 40
7.000000000000133
100
AcDbArc
 50
180.0
 51
269.7640843231
  0
LINE
  5
A5
330
1F
100
AcDbEntity
  8
0
  6
Continuous
 62
     7
370
    15
100
AcDbLine
 10
369.1578093757
 20
89.2028602246
 30
0.0
 11
412.6831475486
 21
89.0236439589
 31
0.0
  0
ARC
  5
A6
330
1F
100
AcDbEntity
  8
0
  6
Continuous
 62
     7
370
    15
100
AcDbCircle
 10
415.6800948231
 20
86.6362910397
 30
0.0
 40
3.345000000000054
100
AcDbArc
 50
324.0545956267
 51
125.5246999765
  0
LINE
  5
A7
330
1F
100
AcDbEntity
  8
0
  6
Continuous
 62
     7
370
    15
100
AcDbLine
 10
412.6831475486
 20
70.6394853476
 30
0.0
 11
369.1578093757
 21
70.4602690819
 31
0.0
  0
ARC
  5
A8
330
1F
100
AcDbEntity
  8
0
  6
Continuous
 62
     7
370
    15
100
AcDbCircle
 10
412.6905726948
 20
1129.3394994455
 30
0.0
 40
1.799999999999899
100
AcDbArc
 50
54.4753000235
 51
90.2359156769
  0
ARC
  5
A9
330
1F
100
AcDbEntity
  8
0
  6
Continuous
 62
     7
370
    15
100
AcDbCircle
 10
415.6800948231
 20
1133.5268354058
 30
0.0
 40
3.345000000000058
100
AcDbArc
 50
234.4753000235
 51
35.9454043733
  0
ARC
  5
AA
330
1F
100
AcDbEntity
  8
0
  6
Continuous
 62
     7
370
    15
100
AcDbCircle
 10
369.1866170062
 20
1193.3315632228
 30
0.0
 40
7.0
100
AcDbArc
 50
90.0
 51
180.0
  0
ARC
  5
AB
330
1F
100
AcDbEntity
  8
0
  6
Continuous
 62
     7
370
    15
100
AcDbCircle
 10
369.1866170062
 20
1156.7027998615
 30
0.0
 40
7.0
100
AcDbArc
 50
180.0
 51
269.7640843231
  0
ARC
  5
AC
330
1F
100
AcDbEntity
  8
0
  6
Continuous
 62
     7
370
    15
100
AcDbCircle
 10
578.6216170062
 20
1193.3315632228
 30
0.0
 40
7.0
100
AcDbArc
 50
0.0
 51
90.0
  0
ARC
  5
AD
330
1F
100
AcDbEntity
  8
0
  6
Continuous
 62
     7
370
    15
100
AcDbCircle
 10
369.1866170062
 20
1123.960326584
 30
0.0
 40
7.000000000000446
100
AcDbArc
 50
90.2359156769
 51
180.0
  0
LINE
  5
AE
330
1F
100
AcDbEntity
  8
0
  6
Continuous
 62
     7
370
    15
100
AcDbLine
 10
369.1578093757
 20
1130.9602501277
 30
0.0
 11
412.6831475486
 21
1131.1395408991
 31
0.0
  0
ARC
  5
AF
330
1F
100
AcDbEntity
  8
0
  6
Continuous
 62
     7
370
    15
100
AcDbCircle
 10
419.8453670062
 20
1144.1161035222
 30
0.0
 40
1.800000000000108
100
AcDbArc
 50
144.0545956267
 51
180.0
  0
ARC
  5
B0
330
1F
100
AcDbEntity
  8
0
  6
Continuous
 62
     7
370
    15
100
AcDbCircle
 10
419.8453670062
 20
1136.5470229233
 30
0.0
 40
1.799999999999974
100
AcDbArc
 50
180.0
 51
215.9454043733
  0
LINE
  5
B1
330
1F
100
AcDbEntity
  8
0
  6
Continuous
 62
     7
370
    15
100
AcDbLine
 10
418.0453602065
 20
1136.5469934825
 30
0.0
 11
418.0453602065
 21
1144.1160681132
 31
0.0
  0
ARC
  5
B2
330
1F
100
AcDbEntity
  8
0
  6
Continuous
 62
     7
370
    15
100
AcDbCircle
 10
415.6800948231
 20
1147.1362910397
 30
0.0
 40
3.345000000000038
100
AcDbArc
 50
324.0545956267
 51
125.5246999765
  0
ARC
  5
B3
330
1F
100
AcDbEntity
  8
0
  6
Continuous
 62
     7
370
    15
100
AcDbCircle
 10
1250.0591170062
 20
1123.960326584
 30
0.0
 40
7.000000000000447
100
AcDbArc
 50
90.2359156769
 51
180.0
  0
ARC
  5
B4
330
1F
100
AcDbEntity
  8
0
  6
Continuous
 62
     7
370
    15
100
AcDbCircle
 10
1250.0591170062
 20
1156.7027998615
 30
0.0
 40
7.000000000000227
100
AcDbArc
 50
180.0
 51
269.7640843231
  0
ARC
  5
B5
330
1F
100
AcDbEntity
  8
0
  6
Continuous
 62
     7
370
    15
100
AcDbCircle
 10
1250.0591170062
 20
1193.3315632228
 30
0.0
 40
7.000000000000227
100
AcDbArc
 50
90.0
 51
180.0
  0
ARC
  5
B6
330
1F
100
AcDbEntity
  8
0
  6
Continuous
 62
     7
370
    15
100
AcDbCircle
 10
1459.4941170062
 20
1193.3315632228
 30
0.0
 40
7.0
100
AcDbArc
 50
0.0
 51
90.0
  0
ARC
  5
B7
330
1F
100
AcDbEntity
  8
0
  6
Continuous
 62
     7
370
    15
100
AcDbCircle
 10
1459.4941170062
 20
1156.7027998615
 30
0.0
 40
7.0
100
AcDbArc
 50
270.2359156769
 51
0.0
  0
ARC
  5
B8
330
1F
100
AcDbEntity
  8
0
  6
Continuous
 62
     7
370
    15
100
AcDbCircle
 10
1459.4941170062
 20
1123.960326584
 30
0.0
 40
7.000000000000446
100
AcDbArc
 50
0.0
 51
89.7640843231
  0
ARC
  5
B9
330
1F
100
AcDbEntity
  8
0
  6
Continuous
 62
     7
370
    15
100
AcDbCircle
 10
1459.4941170062
 20
1005.2027998615
 30
0.0
 40
7.0
100
AcDbArc
 50
270.2359156769
 51
0.0
  0
ARC
  5
BA
330
1F
100
AcDbEntity
  8
0
  6
Continuous
 62
     7
370
    15
100
AcDbCircle
 10
1459.4941170062
 20
972.460326584
 30
0.0
 40
7.0
100
AcDbArc
 50
0.0
 51
89.7640843231
  0
ARC
  5
BB
330
1F
100
AcDbEntity
  8
0
  6
Continuous
 62
     7
370
    15
100
AcDbCircle
 10
1459.4941170062
 20
853.7027998615
 30
0.0
 40
7.000000000000105
100
AcDbArc
 50
270.2359156769
 51
0.0
  0
ARC
  5
BC
330
1F
100
AcDbEntity
  8
0
  6
Continuous
 62
     7
370
    15
100
AcDbCircle
 10
1459.4941170062
 20
820.960326584
 30
0.0
 40
7.0
100
AcDbArc
 50
0.0
 51
89.7640843231
  0
ARC
  5
BD
330
1F
100
AcDbEntity
  8
0
  6
Continuous
 62
     7
370
    15
100
AcDbCircle
 10
1459.4941170062
 20
702.2027998615
 30
0.0
 40
7.000000000000105
100
AcDbArc
 50
270.2359156769
 51
0.0
  0
ARC
  5
BE
330
1F
100
AcDbEntity
  8
0
  6
Continuous
 62
     7
370
    15
100
AcDbCircle
 10
1415.9901613176
 20
696.823627
 30
0.0
 40
1.799999999999985
100
AcDbArc
 50
234.4753000235
 51
270.2359156769
  0
ARC
  5
BF
330
1F
100
AcDbEntity
  8
0
  6
Continuous
 62
     7
370
    15
100
AcDbCircle
 10
1413.0006391893
 20
692.6362910397
 30
0.0
 40
3.345000000000065
100
AcDbArc
 50
54.4753000235
 51
215.9454043733
  0
ARC
  5
C0
330
1F
100
AcDbEntity
  8
0
  6
Continuous
 62
     7
370
    15
100
AcDbCircle
 10
1408.8353670062
 20
689.6161035222
 30
0.0
 40
1.800000000000204
100
AcDbArc
 50
0.0
 51
35.9454043733
  0
LINE
  5
C1
330
1F
100
AcDbEntity
  8
0
  6
Continuous
 62
     7
370
    15
100
AcDbLine
 10
1410.6353405704
 20
682.0470335368
 30
0.0
 11
1410.6353405704
 21
689.6161081675
 31
0.0
  0
ARC
  5
C2
330
1F
100
AcDbEntity
  8
0
  6
Continuous
 62
     7
370
    15
100
AcDbCircle
 10
1413.0006391893
 20
679.0268354058
 30
0.0
 40
3.345000000000065
100
AcDbArc
 50
144.0545956267
 51
305.5246999765
  0
ARC
  5
C3
330
1F
100
AcDbEntity
  8
0
  6
Continuous
 62
     7
370
    15
100
AcDbCircle
 10
1415.9901613176
 20
674.8394994455
 30
0.0
 40
1.799999999999985
100
AcDbArc
 50
89.7640843231
 51
125.5246999765
  0
LINE
  5
C4
330
1F
100
AcDbEntity
  8
0
  6
Continuous
 62
     7
370
    15
100
AcDbLine
 10
1459.5229510058
 20
676.460290182
 30
0.0
 11
1415.9976128329
 21
676.6394617442
 31
0.0
  0
ARC
  5
C5
330
1F
100
AcDbEntity
  8
0
  6
Continuous
 62
     7
370
    15
100
AcDbCircle
 10
1459.4941170062
 20
669.460326584
 30
0.0
 40
7.0
100
AcDbArc
 50
0.0
 51
89.7640843231
  0
LINE
  5
C6
330
1F
100
AcDbEntity
  8
0
  6
Continuous
 62
     7
370
    15
100
AcDbLine
 10
1466.4940718402
 20
550.7027747515
 30
0.0
 11
1466.4940718402
 21
669.4603206996
 31
0.0
  0
ARC
  5
C7
330
1F
100
AcDbEntity
  8
0
  6
Continuous
 62
     7
370
    15
100
AcDbCircle
 10
1413.0006391893
 20
224.5268354058
 30
0.0
 40
3.345000000000088
100
AcDbArc
 50
144.0545956267
 51
305.5246999765
  0
ARC
  5
C8
330
1F
100
AcDbEntity
  8
0
  6
Continuous
 62
     7
370
    15
100
AcDbCircle
 10
1415.9901613176
 20
220.3394994455
 30
0.0
 40
1.799999999999985
100
AcDbArc
 50
89.7640843231
 51
125.5246999765
  0
LINE
  5
C9
330
1F
100
AcDbEntity
  8
0
  6
Continuous
 62
     7
370
    15
100
AcDbLine
 10
1415.9976128329
 20
222.1394868973
 30
0.0
 11
1459.5229510058
 21
221.9602706317
 31
0.0
  0
LINE
  5
CA
330
1F
100
AcDbEntity
  8
0
  6
Continuous
 62
     7
370
    15
100
AcDbLine
 10
1459.5229510058
 20
89.2028602246
 30
0.0
 11
1415.9976128329
 21
89.0236439589
 31
0.0
  0
ARC
  5
CB
330
1F
100
AcDbEntity
  8
0
  6
Continuous
 62
     7
370
    15
100
AcDbCircle
 10
1415.9901613176
 20
90.823627
 30
0.0
 40
1.800000000000028
100
AcDbArc
 50
234.4753000235
 51
270.2359156769
  0
ARC
  5
CC
330
1F
100
AcDbEntity
  8
0
  6
Continuous
 62
     7
370
    15
100
AcDbCircle
 10
1413.0006391893
 20
86.6362910397
 30
0.0
 40
3.344999999999995
100
AcDbArc
 50
54.4753000235
 51
215.9454043733
  0
ARC
  5
CD
330
1F
100
AcDbEntity
  8
0
  6
Continuous
 62
     7
370
    15
100
AcDbCircle
 10
1408.8353670062
 20
83.6161035222
 30
0.0
 40
1.800000000000238
100
AcDbArc
 50
0.0
 51
35.9454043733
  0
LINE
  5
CE
330
1F
100
AcDbEntity
  8
0
  6
Continuous
 62
     7
370
    15
100
AcDbLine
 10
1410.6353405704
 20
83.6161019686
 30
0.0
 11
1410.6353405704
 21
76.0470198873
 31
0.0
  0
ARC
  5
CF
330
1F
100
AcDbEntity
  8
0
  6
Continuous
 62
     7
370
    15
100
AcDbCircle
 10
1408.8353670062
 20
76.0470229233
 30
0.0
 40
1.800000000000304
100
AcDbArc
 50
324.0545956267
 51
0.0
  0
ARC
  5
D0
330
1F
100
AcDbEntity
  8
0
  6
Continuous
 62
     7
370
    15
100
AcDbCircle
 10
1413.0006391893
 20
73.0268354058
 30
0.0
 40
3.345000000000006
100
AcDbArc
 50
144.0545956267
 51
305.5246999765
  0
ARC
  5
D1
330
1F
100
AcDbEntity
  8
0
  6
Continuous
 62
     7
370
    15
100
AcDbCircle
 10
1415.9901613176
 20
68.8394994455
 30
0.0
 40
1.800000000000028
100
AcDbArc
 50
89.7640843231
 51
125.5246999765
  0
LINE
  5
D2
330
1F
100
AcDbEntity
  8
0
  6
Continuous
 62
     7
370
    15
100
AcDbLine
 10
1415.9976128329
 20
70.6394853476
 30
0.0
 11
1459.5229510058
 21
70.4602690819
 31
0.0
  0
LINE
  5
D3
330
1F
100
AcDbEntity
  8
0
  6
Continuous
 62
     7
370
    15
100
AcDbLine
 10
1466.4940718402
 20
26.8315634165
 30
0.0
 11
1466.4940718402
 21
63.4603294018
 31
0.0
  0
LINE
  5
D4
330
1F
100
AcDbEntity
  8
0
  6
Continuous
 62
     7
370
    15
100
AcDbLine
 10
1250.0591162433
 20
19.8315641317
 30
0.0
 11
1459.4941023578
 21
19.8315641317
 31
0.0
  0
LINE
  5
D5
330
1F
100
AcDbEntity
  8
0
  6
Continuous
 62
     7
370
    15
100
AcDbLine
 10
1293.5556057681
 20
70.6394853476
 30
0.0
 11
1250.0302675952
 21
70.4602690819
 31
0.0
  0
ARC
  5
D6
330
1F
100
AcDbEntity
  8
0
  6
Continuous
 62
     7
370
    15
100
AcDbCircle
 10
1293.5630726949
 20
68.8394994455
 30
0.0
 40
1.799999999999936
100
AcDbArc
 50
54.4753000235
 51
90.2359156769
  0
ARC
  5
D7
330
1F
100
AcDbEntity
  8
0
  6
Continuous
 62
     7
370
    15
100
AcDbCircle
 10
1296.5525948231
 20
73.0268354058
 30
0.0
 40
3.345000000000134
100
AcDbArc
 50
234.4753000235
 51
35.9454043733
  0
ARC
  5
D8
330
1F
100
AcDbEntity
  8
0
  6
Continuous
 62
     7
370
    15
100
AcDbCircle
 10
1300.7178670062
 20
76.0470229233
 30
0.0
 40
1.800000000000054
100
AcDbArc
 50
180.0
 51
215.9454043733
  0
LINE
  5
D9
330
1F
100
AcDbEntity
  8
0
  6
Continuous
 62
     7
370
    15
100
AcDbLine
 10
1298.9178780307
 20
83.6161019686
 30
0.0
 11
1298.9178780307
 21
76.0470198873
 31
0.0
  0
ARC
  5
DA
330
1F
100
AcDbEntity
  8
0
  6
Continuous
 62
     7
370
    15
100
AcDbCircle
 10
1300.7178670062
 20
83.6161035222
 30
0.0
 40
1.80000000000012
100
AcDbArc
 50
144.0545956267
 51
180.0
  0
ARC
  5
DB
330
1F
100
AcDbEntity
  8
0
  6
Continuous
 62
     7
370
    15
100
AcDbCircle
 10
1296.5525948231
 20
86.6362910397
 30
0.0
 40
3.345000000000076
100
AcDbArc
 50
324.0545956267
 51
125.5246999765
  0
ARC
  5
DC
330
1F
100
AcDbEntity
  8
0
  6
Continuous
 62
     7
370
    15
100
AcDbCircle
 10
1293.5630726949
 20
90.823627
 30
0.0
 40
1.800000000000028
100
AcDbArc
 50
269.7640843231
 51
305.5246999765
  0
LINE
  5
DD
330
1F
100
AcDbEntity
  8
0
  6
Continuous
 62
     7
370
    15
100
AcDbLine
 10
1250.0302675952
 20
89.2028602246
 30
0.0
 11
1293.5556057681
 21
89.0236439589
 31
0.0
  0
LINE
  5
DE
330
1F
100
AcDbEntity
  8
0
  6
Continuous
 62
     7
370
    15
100
AcDbLine
 10
1243.0591467609
 20
63.4603294018
 30
0.0
 11
1243.0591467609
 21
26.8315634165
 31
0.0
  0
LINE
  5
DF
330
1F
100
AcDbEntity
  8
0
  6
Continuous
 62
     7
370
    15
100
AcDbLine
 10
1243.0591467609
 20
1123.9602806452
 30
0.0
 11
1243.0591467609
 21
96.2027999047
 31
0.0
  0
LINE
  5
E0
330
1F
100
AcDbEntity
  8
0
  6
Continuous
 62
     7
370
    15
100
AcDbLine
 10
1466.4940718402
 20
96.2027999047
 30
0.0
 11
1466.4940718402
 21
214.9603309516
 31
0.0
  0
LINE
  5
E1
330
1F
100
AcDbEntity
  8
0
  6
Continuous
 62
     7
370
    15
100
AcDbLine
 10
1466.4940718402
 20
247.7028014544
 30
0.0
 11
1466.4940718402
 21
366.4603176001
 31
0.0
  0
LINE
  5
E2
330
1F
100
AcDbEntity
  8
0
  6
Continuous
 62
     7
370
    15
100
AcDbLine
 10
1466.4940718402
 20
399.202788103
 30
0.0
 11
1466.4940718402
 21
517.960334051
 31
0.0
  0
ARC
  5
E3
330
1F
100
AcDbEntity
  8
0
  6
Continuous
 62
     7
370
    15
100
AcDbCircle
 10
1300.7178670062
 20
1144.1161035222
 30
0.0
 40
1.800000000000154
100
AcDbArc
 50
144.0545956267
 51
180.0
  0
LINE
  5
E4
330
1F
100
AcDbEntity
  8
0
  6
Continuous
 62
     7
370
    15
100
AcDbLine
 10
1298.9178780307
 20
1136.5469934825
 30
0.0
 11
1298.9178780307
 21
1144.1160681132
 31
0.0
  0
ARC
  5
E5
330
1F
100
AcDbEntity
  8
0
  6
Continuous
 62
     7
370
    15
100
AcDbCircle
 10
1300.7178670062
 20
1136.5470229233
 30
0.0
 40
1.80000000000002
100
AcDbArc
 50
180.0
 51
215.9454043733
  0
ARC
  5
E6
330
1F
100
AcDbEntity
  8
0
  6
Continuous
 62
     7
370
    15
100
AcDbCircle
 10
1296.5525948231
 20
1133.5268354058
 30
0.0
 40
3.345000000000085
100
AcDbArc
 50
234.4753000235
 51
35.9454043733
  0
ARC
  5
E7
330
1F
100
AcDbEntity
  8
0
  6
Continuous
 62
     7
370
    15
100
AcDbCircle
 10
1293.5630726949
 20
1129.3394994455
 30
0.0
 40
1.799999999999866
100
AcDbArc
 50
54.4753000235
 51
90.2359156769
  0
LINE
  5
E8
330
1F
100
AcDbEntity
  8
0
  6
Continuous
 62
     7
370
    15
100
AcDbLine
 10
1250.0302675952
 20
1130.9602501277
 30
0.0
 11
1293.5556057681
 21
1131.1395408991
 31
0.0
  0
LINE
  5
E9
330
1F
100
AcDbEntity
  8
0
  6
Continuous
 62
     7
370
    15
100
AcDbLine
 10
1459.5229510058
 20
1130.9602501277
 30
0.0
 11
1415.9976128329
 21
1131.1395408991
 31
0.0
  0
ARC
  5
EA
330
1F
100
AcDbEntity
  8
0
  6
Continuous
 62
     7
370
    15
100
AcDbCircle
 10
1413.0006391893
 20
1133.5268354058
 30
0.0
 40
3.345000000000157
100
AcDbArc
 50
144.0545956267
 51
305.5246999765
  0
ARC
  5
EB
330
1F
100
AcDbEntity
  8
0
  6
Continuous
 62
     7
370
    15
100
AcDbCircle
 10
1408.8353670062
 20
1136.5470229233
 30
0.0
 40
1.800000000000204
100
AcDbArc
 50
324.0545956267
 51
0.0
  0
LINE
  5
EC
330
1F
100
AcDbEntity
  8
0
  6
Continuous
 62
     7
370
    15
100
AcDbLine
 10
1410.6353405704
 20
1136.5469934825
 30
0.0
 11
1410.6353405704
 21
1144.1160681132
 31
0.0
  0
ARC
  5
ED
330
1F
100
AcDbEntity
  8
0
  6
Continuous
 62
     7
370
    15
100
AcDbCircle
 10
1408.8353670062
 20
1144.1161035222
 30
0.0
 40
1.800000000000338
100
AcDbArc
 50
0.0
 51
35.9454043733
  0
ARC
  5
EE
330
1F
100
AcDbEntity
  8
0
  6
Continuous
 62
     7
370
    15
100
AcDbCircle
 10
1413.0006391893
 20
1147.1362910397
 30
0.0
 40
3.344999999999901
100
AcDbArc
 50
54.4753000235
 51
215.9454043733
  0
ARC
  5
EF
330
1F
100
AcDbEntity
  8
0
  6
Continuous
 62
     7
370
    15
100
AcDbCircle
 10
1415.9901613176
 20
1151.323627
 30
0.0
 40
1.800000000000237
100
AcDbArc
 50
234.4753000235
 51
270.2359156769
  0
LINE
  5
F0
330
1F
100
AcDbEntity
  8
0
  6
Continuous
 62
     7
370
    15
100
AcDbLine
 10
1459.5229510058
 20
543.7028648738
 30
0.0
 11
1415.9976128329
 21
543.5236337069
 31
0.0
  0
ARC
  5
F1
330
1F
100
AcDbEntity
  8
0
  6
Continuous
 62
     7
370
    15
100
AcDbCircle
 10
1415.9901613176
 20
545.323627
 30
0.0
 40
1.799999999999985
100
AcDbArc
 50
234.4753000235
 51
270.2359156769
  0
ARC
  5
F2
330
1F
100
AcDbEntity
  8
0
  6
Continuous
 62
     7
370
    15
100
AcDbCircle
 10
1413.0006391893
 20
541.1362910397
 30
0.0
 40
3.345000000000065
100
AcDbArc
 50
54.4753000235
 51
215.9454043733
  0
ARC
  5
F3
330
1F
100
AcDbEntity
  8
0
  6
Continuous
 62
     7
370
    15
100
AcDbCircle
 10
1408.8353670062
 20
538.1161035222
 30
0.0
 40
1.800000000000204
100
AcDbArc
 50
0.0
 51
35.9454043733
  0
LINE
  5
F4
330
1F
100
AcDbEntity
  8
0
  6
Continuous
 62
     7
370
    15
100
AcDbLine
 10
1410.6353405704
 20
538.116121519
 30
0.0
 11
1410.6353405704
 21
530.5470468882
 31
0.0
  0
ARC
  5
F5
330
1F
100
AcDbEntity
  8
0
  6
Continuous
 62
     7
370
    15
100
AcDbCircle
 10
1408.8353670062
 20
530.5470229233
 30
0.0
 40
1.800000000000204
100
AcDbArc
 50
324.0545956267
 51
0.0
  0
ARC
  5
F6
330
1F
100
AcDbEntity
  8
0
  6
Continuous
 62
     7
370
    15
100
AcDbCircle
 10
1413.0006391893
 20
527.5268354058
 30
0.0
 40
3.345000000000157
100
AcDbArc
 50
144.0545956267
 51
305.5246999765
  0
ARC
  5
F7
330
1F
100
AcDbEntity
  8
0
  6
Continuous
 62
     7
370
    15
100
AcDbCircle
 10
1415.9901613176
 20
523.3394994455
 30
0.0
 40
1.799999999999985
100
AcDbArc
 50
89.7640843231
 51
125.5246999765
  0
LINE
  5
F8
330
1F
100
AcDbEntity
  8
0
  6
Continuous
 62
     7
370
    15
100
AcDbLine
 10
1415.9976128329
 20
525.1394750956
 30
0.0
 11
1459.5229510058
 21
524.9602439288
 31
0.0
  0
LINE
  5
F9
330
1F
100
AcDbEntity
  8
0
  6
Continuous
 62
     7
370
    15
100
AcDbLine
 10
1459.5229510058
 20
392.2028484229
 30
0.0
 11
1415.9976128329
 21
392.0236470584
 31
0.0
  0
ARC
  5
FA
330
1F
100
AcDbEntity
  8
0
  6
Continuous
 62
     7
370
    15
100
AcDbCircle
 10
1415.9901613176
 20
393.823627
 30
0.0
 40
1.800000000000005
100
AcDbArc
 50
234.4753000235
 51
270.2359156769
  0
ARC
  5
FB
330
1F
100
AcDbEntity
  8
0
  6
Continuous
 62
     7
370
    15
100
AcDbCircle
 10
1413.0006391893
 20
389.6362910397
 30
0.0
 40
3.345000000000018
100
AcDbArc
 50
54.4753000235
 51
215.9454043733
  0
ARC
  5
FC
330
1F
100
AcDbEntity
  8
0
  6
Continuous
 62
     7
370
    15
100
AcDbCircle
 10
1408.8353670062
 20
386.6161035222
 30
0.0
 40
1.800000000000238
100
AcDbArc
 50
0.0
 51
35.9454043733
  0
LINE
  5
FD
330
1F
100
AcDbEntity
  8
0
  6
Continuous
 62
     7
370
    15
100
AcDbLine
 10
1410.6353405704
 20
386.6161050681
 30
0.0
 11
1410.6353405704
 21
379.0470304373
 31
0.0
  0
ARC
  5
FE
330
1F
100
AcDbEntity
  8
0
  6
Continuous
 62
     7
370
    15
100
AcDbCircle
 10
1408.8353670062
 20
379.0470229233
 30
0.0
 40
1.800000000000238
100
AcDbArc
 50
324.0545956267
 51
0.0
  0
ARC
  5
FF
330
1F
100
AcDbEntity
  8
0
  6
Continuous
 62
     7
370
    15
100
AcDbCircle
 10
1413.0006391893
 20
376.0268354058
 30
0.0
 40
3.345000000000065
100
AcDbArc
 50
144.0545956267
 51
305.5246999765
  0
ARC
  5
100
330
1F
100
AcDbEntity
  8
0
  6
Continuous
 62
     7
370
    15
100
AcDbCircle
 10
1415.9901613176
 20
371.8394994455
 30
0.0
 40
1.800000000000005
100
AcDbArc
 50
89.7640843231
 51
125.5246999765
  0
LINE
  5
101
330
1F
100
AcDbEntity
  8
0
  6
Continuous
 62
     7
370
    15
100
AcDbLine
 10
1415.9976128329
 20
373.6394884471
 30
0.0
 11
1459.5229510058
 21
373.4602572802
 31
0.0
  0
LINE
  5
102
330
1F
100
AcDbEntity
  8
0
  6
Continuous
 62
     7
370
    15
100
AcDbLine
 10
1459.5229510058
 20
240.7028617743
 30
0.0
 11
1415.9976128329
 21
240.5236455086
 31
0.0
  0
ARC
  5
103
330
1F
100
AcDbEntity
  8
0
  6
Continuous
 62
     7
370
    15
100
AcDbCircle
 10
1415.9901613176
 20
242.323627
 30
0.0
 40
1.800000000000013
100
AcDbArc
 50
234.4753000235
 51
270.2359156769
  0
ARC
  5
104
330
1F
100
AcDbEntity
  8
0
  6
Continuous
 62
     7
370
    15
100
AcDbCircle
 10
1413.0006391893
 20
238.1362910397
 30
0.0
 40
3.345000000000088
100
AcDbArc
 50
54.4753000235
 51
215.9454043733
  0
ARC
  5
105
330
1F
100
AcDbEntity
  8
0
  6
Continuous
 62
     7
370
    15
100
AcDbCircle
 10
1408.8353670062
 20
235.1161035222
 30
0.0
 40
1.800000000000238
100
AcDbArc
 50
0.0
 51
35.9454043733
  0
LINE
  5
106
330
1F
100
AcDbEntity
  8
0
  6
Continuous
 62
     7
370
    15
100
AcDbLine
 10
1410.6353405704
 20
235.1161035184
 30
0.0
 11
1410.6353405704
 21
227.5470288876
 31
0.0
  0
ARC
  5
107
330
1F
100
AcDbEntity
  8
0
  6
Continuous
 62
     7
370
    15
100
AcDbCircle
 10
1408.8353670062
 20
227.5470229233
 30
0.0
 40
1.800000000000238
100
AcDbArc
 50
324.0545956267
 51
0.0
  0
ARC
  5
108
330
1F
100
AcDbEntity
  8
0
  6
Continuous
 62
     7
370
    15
100
AcDbCircle
 10
1296.5525948231
 20
1147.1362910397
 30
0.0
 40
3.345000000000085
100
AcDbArc
 50
324.0545956267
 51
125.5246999765
  0
ARC
  5
109
330
1F
100
AcDbEntity
  8
0
  6
Continuous
 62
     7
370
    15
100
AcDbCircle
 10
1408.8353670062
 20
682.0470229233
 30
0.0
 40
1.800000000000271
100
AcDbArc
 50
324.0545956267
 51
0.0
  0
ARC
  5
10A
330
1F
100
AcDbEntity
  8
0
  6
Continuous
 62
     7
370
    15
100
AcDbCircle
 10
1415.9901613176
 20
1129.3394994455
 30
0.0
 40
1.799999999999866
100
AcDbArc
 50
89.7640843231
 51
125.5246999765
  0
LINE
  5
10B
330
1F
100
AcDbEntity
  8
0
  6
Continuous
 62
     7
370
    15
100
AcDbLine
 10
1459.5229510058
 20
827.9602768305
 30
0.0
 11
1415.9976128329
 21
828.1395079974
 31
0.0
  0
ARC
  5
10C
330
1F
100
AcDbEntity
  8
0
  6
Continuous
 62
     7
370
    15
100
AcDbCircle
 10
1415.9901613176
 20
826.3394994455
 30
0.0
 40
1.800000000000051
100
AcDbArc
 50
89.7640843231
 51
125.5246999765
  0
ARC
  5
10D
330
1F
100
AcDbEntity
  8
0
  6
Continuous
 62
     7
370
    15
100
AcDbCircle
 10
1413.0006391893
 20
830.5268354058
 30
0.0
 40
3.344999999999972
100
AcDbArc
 50
144.0545956267
 51
305.5246999765
  0
ARC
  5
10E
330
1F
100
AcDbEntity
  8
0
  6
Continuous
 62
     7
370
    15
100
AcDbCircle
 10
1408.8353670062
 20
833.5470229233
 30
0.0
 40
1.800000000000204
100
AcDbArc
 50
324.0545956267
 51
0.0
  0
LINE
  5
10F
330
1F
100
AcDbEntity
  8
0
  6
Continuous
 62
     7
370
    15
100
AcDbLine
 10
1410.6353405704
 20
833.5470201853
 30
0.0
 11
1410.6353405704
 21
841.1160948161
 31
0.0
  0
ARC
  5
110
330
1F
100
AcDbEntity
  8
0
  6
Continuous
 62
     7
370
    15
100
AcDbCircle
 10
1408.8353670062
 20
841.1161035222
 30
0.0
 40
1.800000000000271
100
AcDbArc
 50
0.0
 51
35.9454043733
  0
LINE
  5
111
330
1F
100
AcDbEntity
  8
0
  6
Continuous
 62
     7
370
    15
100
AcDbLine
 10
1415.9976128329
 20
1149.5236399058
 30
0.0
 11
1459.5229510058
 21
1149.702811468
 31
0.0
  0
LINE
  5
112
330
1F
100
AcDbEntity
  8
0
  6
Continuous
 62
     7
370
    15
100
AcDbLine
 10
1250.0591162433
 20
1200.3315927867
 30
0.0
 11
1459.4941023578
 21
1200.3315927867
 31
0.0
  0
LINE
  5
113
330
1F
100
AcDbEntity
  8
0
  6
Continuous
 62
     7
370
    15
100
AcDbLine
 10
1466.4940718402
 20
1193.3315040949
 30
0.0
 11
1466.4940718402
 21
1156.7027809504
 31
0.0
  0
LINE
  5
114
330
1F
100
AcDbEntity
  8
0
  6
Continuous
 62
     7
370
    15
100
AcDbLine
 10
1243.0591467609
 20
1156.7027809504
 30
0.0
 11
1243.0591467609
 21
1193.3315040949
 31
0.0
  0
LINE
  5
115
330
1F
100
AcDbEntity
  8
0
  6
Continuous
 62
     7
370
    15
100
AcDbLine
 10
1466.4940718402
 20
972.4603536013
 30
0.0
 11
1466.4940718402
 21
853.7028076533
 31
0.0
  0
LINE
  5
116
330
1F
100
AcDbEntity
  8
0
  6
Continuous
 62
     7
370
    15
100
AcDbLine
 10
1466.4940718402
 20
820.9603073481
 30
0.0
 11
1466.4940718402
 21
702.2028210047
 31
0.0
  0
ARC
  5
117
330
1F
100
AcDbEntity
  8
0
  6
Continuous
 62
     7
370
    15
100
AcDbCircle
 10
1459.4941170062
 20
26.8315632228
 30
0.0
 40
7.000000000000007
100
AcDbArc
 50
270.0
 51
0.0
  0
ARC
  5
118
330
1F
100
AcDbEntity
  8
0
  6
Continuous
 62
     7
370
    15
100
AcDbCircle
 10
1459.4941170062
 20
63.460326584
 30
0.0
 40
7.000000000000027
100
AcDbArc
 50
0.0
 51
89.7640843231
  0
ARC
  5
119
330
1F
100
AcDbEntity
  8
0
  6
Continuous
 62
     7
370
    15
100
AcDbCircle
 10
1459.4941170062
 20
214.960326584
 30
0.0
 40
7.0
100
AcDbArc
 50
0.0
 51
89.7640843231
  0
ARC
  5
11A
330
1F
100
AcDbEntity
  8
0
  6
Continuous
 62
     7
370
    15
100
AcDbCircle
 10
1250.0591170062
 20
26.8315632228
 30
0.0
 40
7.000000000000227
100
AcDbArc
 50
180.0
 51
270.0
  0
ARC
  5
11B
330
1F
100
AcDbEntity
  8
0
  6
Continuous
 62
     7
370
    15
100
AcDbCircle
 10
1459.4941170062
 20
247.7027998615
 30
0.0
 40
7.0
100
AcDbArc
 50
270.2359156769
 51
0.0
  0
ARC
  5
11C
330
1F
100
AcDbEntity
  8
0
  6
Continuous
 62
     7
370
    15
100
AcDbCircle
 10
1459.4941170062
 20
399.2027998615
 30
0.0
 40
7.000000000000048
100
AcDbArc
 50
270.2359156769
 51
0.0
  0
ARC
  5
11D
330
1F
100
AcDbEntity
  8
0
  6
Continuous
 62
     7
370
    15
100
AcDbCircle
 10
1459.4941170062
 20
96.2027998615
 30
0.0
 40
7.00000000000002
100
AcDbArc
 50
270.2359156769
 51
0.0
  0
ARC
  5
11E
330
1F
100
AcDbEntity
  8
0
  6
Continuous
 62
     7
370
    15
100
AcDbCircle
 10
1250.0591170062
 20
96.2027998615
 30
0.0
 40
7.000000000000227
100
AcDbArc
 50
180.0
 51
269.7640843231
  0
ARC
  5
11F
330
1F
100
AcDbEntity
  8
0
  6
Continuous
 62
     7
370
    15
100
AcDbCircle
 10
1408.8353670062
 20
985.0470229233
 30
0.0
 40
1.800000000000204
100
AcDbArc
 50
324.0545956267
 51
0.0
  0
LINE
  5
120
330
1F
100
AcDbEntity
  8
0
  6
Continuous
 62
     7
370
    15
100
AcDbLine
 10
1415.9976128329
 20
695.0236203555
 30
0.0
 11
1459.5229510058
 21
695.2028515223
 31
0.0
  0
ARC
  5
121
330
1F
100
AcDbEntity
  8
0
  6
Continuous
 62
     7
370
    15
100
AcDbCircle
 10
1413.0006391893
 20
844.1362910397
 30
0.0
 40
3.344999999999972
100
AcDbArc
 50
54.4753000235
 51
215.9454043733
  0
ARC
  5
122
330
1F
100
AcDbEntity
  8
0
  6
Continuous
 62
     7
370
    15
100
AcDbCircle
 10
1415.9901613176
 20
848.323627
 30
0.0
 40
1.800000000000051
100
AcDbArc
 50
234.4753000235
 51
270.2359156769
  0
LINE
  5
123
330
1F
100
AcDbEntity
  8
0
  6
Continuous
 62
     7
370
    15
100
AcDbLine
 10
1415.9976128329
 20
846.5236666087
 30
0.0
 11
1459.5229510058
 21
846.7028381709
 31
0.0
  0
LINE
  5
124
330
1F
100
AcDbEntity
  8
0
  6
Continuous
 62
     7
370
    15
100
AcDbLine
 10
1459.5229510058
 20
979.4602634791
 30
0.0
 11
1415.9976128329
 21
979.6394946459
 31
0.0
  0
ARC
  5
125
330
1F
100
AcDbEntity
  8
0
  6
Continuous
 62
     7
370
    15
100
AcDbCircle
 10
1415.9901613176
 20
977.8394994455
 30
0.0
 40
1.799999999999985
100
AcDbArc
 50
89.7640843231
 51
125.5246999765
  0
ARC
  5
126
330
1F
100
AcDbEntity
  8
0
  6
Continuous
 62
     7
370
    15
100
AcDbCircle
 10
1413.0006391893
 20
982.0268354058
 30
0.0
 40
3.345000000000065
100
AcDbArc
 50
144.0545956267
 51
305.5246999765
  0
ARC
  5
127
330
1F
100
AcDbEntity
  8
0
  6
Continuous
 62
     7
370
    15
100
AcDbCircle
 10
1293.5630726949
 20
1151.323627
 30
0.0
 40
1.800000000000237
100
AcDbArc
 50
269.7640843231
 51
305.5246999765
  0
LINE
  5
128
330
1F
100
AcDbEntity
  8
0
  6
Continuous
 62
     7
370
    15
100
AcDbLine
 10
1410.6353405704
 20
985.0470068339
 30
0.0
 11
1410.6353405704
 21
992.6160814646
 31
0.0
  0
ARC
  5
129
330
1F
100
AcDbEntity
  8
0
  6
Continuous
 62
     7
370
    15
100
AcDbCircle
 10
1408.8353670062
 20
992.6161035222
 30
0.0
 40
1.800000000000271
100
AcDbArc
 50
0.0
 51
35.9454043733
  0
ARC
  5
12A
330
1F
100
AcDbEntity
  8
0
  6
Continuous
 62
     7
370
    15
100
AcDbCircle
 10
1413.0006391893
 20
995.6362910397
 30
0.0
 40
3.345000000000157
100
AcDbArc
 50
54.4753000235
 51
215.9454043733
  0
ARC
  5
12B
330
1F
100
AcDbEntity
  8
0
  6
Continuous
 62
     7
370
    15
100
AcDbCircle
 10
1415.9901613176
 20
999.823627
 30
0.0
 40
1.799999999999985
100
AcDbArc
 50
234.4753000235
 51
270.2359156769
  0
LINE
  5
12C
330
1F
100
AcDbEntity
  8
0
  6
Continuous
 62
     7
370
    15
100
AcDbLine
 10
1415.9976128329
 20
998.0236532572
 30
0.0
 11
1459.5229510058
 21
998.2028844241
 31
0.0
  0
LINE
  5
12D
330
1F
100
AcDbEntity
  8
0
  6
Continuous
 62
     7
370
    15
100
AcDbLine
 10
1293.5556057681
 20
1149.5236399058
 30
0.0
 11
1250.0302675952
 21
1149.702811468
 31
0.0
  0
ARC
  5
12E
330
1F
100
AcDbEntity
  8
0
  6
Continuous
 62
     7
370
    15
100
AcDbCircle
 10
1250.0591170062
 20
63.460326584
 30
0.0
 40
7.000000000000227
100
AcDbArc
 50
90.2359156769
 51
180.0
  0
ARC
  5
12F
330
1F
100
AcDbEntity
  8
0
  6
Continuous
 62
     7
370
    15
100
AcDbCircle
 10
1459.4941170062
 20
517.960326584
 30
0.0
 40
7.0
100
AcDbArc
 50
0.0
 51
89.7640843231
  0
ARC
  5
130
330
1F
100
AcDbEntity
  8
0
  6
Continuous
 62
     7
370
    15
100
AcDbCircle
 10
1459.4941170062
 20
550.7027998615
 30
0.0
 40
7.0
100
AcDbArc
 50
270.2359156769
 51
0.0
  0
LINE
  5
131
330
1F
100
AcDbEntity
  8
0
  6
Continuous
 62
     7
370
    15
100
AcDbLine
 10
1466.4940718402
 20
1123.9602806452
 30
0.0
 11
1466.4940718402
 21
1005.2027943019
 31
0.0
  0
ARC
  5
132
330
1F
100
AcDbEntity
  8
0
  6
Continuous
 62
     7
370
    15
100
AcDbCircle
 10
1459.4941170062
 20
366.460326584
 30
0.0
 40
7.000000000000048
100
AcDbArc
 50
0.0
 51
89.7640843231
  0
ARC
  5
133
330
1F
100
AcDbEntity
  8
0
  6
Continuous
 62
     7
370
    15
100
AcDbCircle
 10
1801.7966170062
 20
96.2027998615
 30
0.0
 40
7.000000000000133
100
AcDbArc
 50
270.2359156769
 51
0.0
  0
ARC
  5
134
330
1F
100
AcDbEntity
  8
0
  6
Continuous
 62
     7
370
    15
100
AcDbCircle
 10
1801.7966170062
 20
63.460326584
 30
0.0
 40
6.999999999999913
100
AcDbArc
 50
0.0
 51
89.7640843231
  0
ARC
  5
135
330
1F
100
AcDbEntity
  8
0
  6
Continuous
 62
     7
370
    15
100
AcDbCircle
 10
1801.7966170062
 20
26.8315632228
 30
0.0
 40
6.999999999999897
100
AcDbArc
 50
270.0
 51
0.0
  0
ARC
  5
136
330
1F
100
AcDbEntity
  8
0
  6
Continuous
 62
     7
370
    15
100
AcDbCircle
 10
1592.3616170062
 20
26.8315632228
 30
0.0
 40
6.999999999999897
100
AcDbArc
 50
180.0
 51
270.0
  0
ARC
  5
137
330
1F
100
AcDbEntity
  8
0
  6
Continuous
 62
     7
370
    15
100
AcDbCircle
 10
1592.3616170062
 20
63.460326584
 30
0.0
 40
6.999999999999913
100
AcDbArc
 50
90.2359156769
 51
180.0
  0
ARC
  5
138
330
1F
100
AcDbEntity
  8
0
  6
Continuous
 62
     7
370
    15
100
AcDbCircle
 10
1592.3616170062
 20
96.2027998615
 30
0.0
 40
7.000000000000133
100
AcDbArc
 50
180.0
 51
269.7640843231
  0
ARC
  5
139
330
1F
100
AcDbEntity
  8
0
  6
Continuous
 62
     7
370
    15
100
AcDbCircle
 10
1592.3616170062
 20
214.960326584
 30
0.0
 40
7.00000000000002
100
AcDbArc
 50
90.2359156769
 51
180.0
  0
ARC
  5
13A
330
1F
100
AcDbEntity
  8
0
  6
Continuous
 62
     7
370
    15
100
AcDbCircle
 10
1643.0203670062
 20
227.5470229233
 30
0.0
 40
1.800000000000054
100
AcDbArc
 50
180.0
 51
215.9454043733
  0
LINE
  5
13B
330
1F
100
AcDbEntity
  8
0
  6
Continuous
 62
     7
370
    15
100
AcDbLine
 10
1641.2203196277
 20
235.1161035184
 30
0.0
 11
1641.2203196277
 21
227.5470288876
 31
0.0
  0
ARC
  5
13C
330
1F
100
AcDbEntity
  8
0
  6
Continuous
 62
     7
370
    15
100
AcDbCircle
 10
1592.3616170062
 20
247.7027998615
 30
0.0
 40
7.00000000000002
100
AcDbArc
 50
180.0
 51
269.7640843231
  0
ARC
  5
13D
330
1F
100
AcDbEntity
  8
0
  6
Continuous
 62
     7
370
    15
100
AcDbCircle
 10
1592.3616170062
 20
366.460326584
 30
0.0
 40
7.000000000000162
100
AcDbArc
 50
90.2359156769
 51
180.0
  0
ARC
  5
13E
330
1F
100
AcDbEntity
  8
0
  6
Continuous
 62
     7
370
    15
100
AcDbCircle
 10
1643.0203670062
 20
386.6161035222
 30
0.0
 40
1.800000000000054
100
AcDbArc
 50
144.0545956267
 51
180.0
  0
ARC
  5
13F
330
1F
100
AcDbEntity
  8
0
  6
Continuous
 62
     7
370
    15
100
AcDbCircle
 10
1638.8550948231
 20
389.6362910397
 30
0.0
 40
3.345000000000151
100
AcDbArc
 50
324.0545956267
 51
125.5246999765
  0
LINE
  5
140
330
1F
100
AcDbEntity
  8
0
  6
Continuous
 62
     7
370
    15
100
AcDbLine
 10
1592.3328284015
 20
392.2028484229
 30
0.0
 11
1635.8581665744
 21
392.0236470584
 31
0.0
  0
ARC
  5
141
330
1F
100
AcDbEntity
  8
0
  6
Continuous
 62
     7
370
    15
100
AcDbCircle
 10
1592.3616170062
 20
399.2027998615
 30
0.0
 40
6.999999999999934
100
AcDbArc
 50
180.0
 51
269.7640843231
  0
ARC
  5
142
330
1F
100
AcDbEntity
  8
0
  6
Continuous
 62
     7
370
    15
100
AcDbCircle
 10
1592.3616170062
 20
517.960326584
 30
0.0
 40
6.999999999999991
100
AcDbArc
 50
90.2359156769
 51
180.0
  0
LINE
  5
143
330
1F
100
AcDbEntity
  8
0
  6
Continuous
 62
     7
370
    15
100
AcDbLine
 10
1635.8581665744
 20
525.1394750956
 30
0.0
 11
1592.3328284015
 21
524.9602439288
 31
0.0
  0
ARC
  5
144
330
1F
100
AcDbEntity
  8
0
  6
Continuous
 62
     7
370
    15
100
AcDbCircle
 10
1638.8550948231
 20
527.5268354058
 30
0.0
 40
3.345000000000085
100
AcDbArc
 50
234.4753000235
 51
35.9454043733
  0
ARC
  5
145
330
1F
100
AcDbEntity
  8
0
  6
Continuous
 62
     7
370
    15
100
AcDbCircle
 10
1643.0203670062
 20
530.5470229233
 30
0.0
 40
1.80000000000002
100
AcDbArc
 50
180.0
 51
215.9454043733
  0
LINE
  5
146
330
1F
100
AcDbEntity
  8
0
  6
Continuous
 62
     7
370
    15
100
AcDbLine
 10
1641.2203196277
 20
538.116121519
 30
0.0
 11
1641.2203196277
 21
530.5470468882
 31
0.0
  0
ARC
  5
147
330
1F
100
AcDbEntity
  8
0
  6
Continuous
 62
     7
370
    15
100
AcDbCircle
 10
1643.0203670062
 20
538.1161035222
 30
0.0
 40
1.80000000000002
100
AcDbArc
 50
144.0545956267
 51
180.0
  0
ARC
  5
148
330
1F
100
AcDbEntity
  8
0
  6
Continuous
 62
     7
370
    15
100
AcDbCircle
 10
1638.8550948231
 20
541.1362910397
 30
0.0
 40
3.345000000000085
100
AcDbArc
 50
324.0545956267
 51
125.5246999765
  0
ARC
  5
149
330
1F
100
AcDbEntity
  8
0
  6
Continuous
 62
     7
370
    15
100
AcDbCircle
 10
1635.8655726948
 20
545.323627
 30
0.0
 40
1.800000000000091
100
AcDbArc
 50
269.7640843231
 51
305.5246999765
  0
LINE
  5
14A
330
1F
100
AcDbEntity
  8
0
  6
Continuous
 62
     7
370
    15
100
AcDbLine
 10
1592.3328284015
 20
543.7028648738
 30
0.0
 11
1635.8581665744
 21
543.5236337069
 31
0.0
  0
ARC
  5
14B
330
1F
100
AcDbEntity
  8
0
  6
Continuous
 62
     7
370
    15
100
AcDbCircle
 10
1592.3616170062
 20
550.7027998615
 30
0.0
 40
6.999999999999991
100
AcDbArc
 50
180.0
 51
269.7640843231
  0
LINE
  5
14C
330
1F
100
AcDbEntity
  8
0
  6
Continuous
 62
     7
370
    15
100
AcDbLine
 10
1585.3615883578
 20
669.4603206996
 30
0.0
 11
1585.3615883578
 21
550.7027747515
 31
0.0
  0
ARC
  5
14D
330
1F
100
AcDbEntity
  8
0
  6
Continuous
 62
     7
370
    15
100
AcDbCircle
 10
1638.8550948231
 20
995.6362910397
 30
0.0
 40
3.345000000000025
100
AcDbArc
 50
324.0545956267
 51
125.5246999765
  0
ARC
  5
14E
330
1F
100
AcDbEntity
  8
0
  6
Continuous
 62
     7
370
    15
100
AcDbCircle
 10
1635.8655726948
 20
999.823627
 30
0.0
 40
1.799999999999998
100
AcDbArc
 50
269.7640843231
 51
305.5246999765
  0
LINE
  5
14F
330
1F
100
AcDbEntity
  8
0
  6
Continuous
 62
     7
370
    15
100
AcDbLine
 10
1635.8581665744
 20
998.0236532572
 30
0.0
 11
1592.3328284015
 21
998.2028844241
 31
0.0
  0
LINE
  5
150
330
1F
100
AcDbEntity
  8
0
  6
Continuous
 62
     7
370
    15
100
AcDbLine
 10
1592.3328284015
 20
1130.9602501277
 30
0.0
 11
1635.8581665744
 21
1131.1395408991
 31
0.0
  0
ARC
  5
151
330
1F
100
AcDbEntity
  8
0
  6
Continuous
 62
     7
370
    15
100
AcDbCircle
 10
1635.8655726948
 20
1129.3394994455
 30
0.0
 40
1.799999999999998
100
AcDbArc
 50
54.4753000235
 51
90.2359156769
  0
ARC
  5
152
330
1F
100
AcDbEntity
  8
0
  6
Continuous
 62
     7
370
    15
100
AcDbCircle
 10
1638.8550948231
 20
1133.5268354058
 30
0.0
 40
3.345000000000085
100
AcDbArc
 50
234.4753000235
 51
35.9454043733
  0
ARC
  5
153
330
1F
100
AcDbEntity
  8
0
  6
Continuous
 62
     7
370
    15
100
AcDbCircle
 10
1643.0203670062
 20
1136.5470229233
 30
0.0
 40
1.80000000000002
100
AcDbArc
 50
180.0
 51
215.9454043733
  0
LINE
  5
154
330
1F
100
AcDbEntity
  8
0
  6
Continuous
 62
     7
370
    15
100
AcDbLine
 10
1641.2203196277
 20
1136.5469934825
 30
0.0
 11
1641.2203196277
 21
1144.1160681132
 31
0.0
  0
ARC
  5
155
330
1F
100
AcDbEntity
  8
0
  6
Continuous
 62
     7
370
    15
100
AcDbCircle
 10
1643.0203670062
 20
1144.1161035222
 30
0.0
 40
1.800000000000154
100
AcDbArc
 50
144.0545956267
 51
180.0
  0
ARC
  5
156
330
1F
100
AcDbEntity
  8
0
  6
Continuous
 62
     7
370
    15
100
AcDbCircle
 10
1635.8655726948
 20
1151.323627
 30
0.0
 40
1.800000000000369
100
AcDbArc
 50
269.7640843231
 51
305.5246999765
  0
LINE
  5
157
330
1F
100
AcDbEntity
  8
0
  6
Continuous
 62
     7
370
    15
100
AcDbLine
 10
1635.8581665744
 20
1149.5236399058
 30
0.0
 11
1592.3328284015
 21
1149.702811468
 31
0.0
  0
LINE
  5
158
330
1F
100
AcDbEntity
  8
0
  6
Continuous
 62
     7
370
    15
100
AcDbLine
 10
1585.3615883578
 20
1193.3315040949
 30
0.0
 11
1585.3615883578
 21
1156.7027809504
 31
0.0
  0
LINE
  5
159
330
1F
100
AcDbEntity
  8
0
  6
Continuous
 62
     7
370
    15
100
AcDbLine
 10
1801.7966631641
 20
1200.3315927867
 30
0.0
 11
1592.3615578403
 21
1200.3315927867
 31
0.0
  0
LINE
  5
15A
330
1F
100
AcDbEntity
  8
0
  6
Continuous
 62
     7
370
    15
100
AcDbLine
 10
1758.3000544299
 20
1149.5236399058
 30
0.0
 11
1801.8253926028
 21
1149.702811468
 31
0.0
  0
ARC
  5
15B
330
1F
100
AcDbEntity
  8
0
  6
Continuous
 62
     7
370
    15
100
AcDbCircle
 10
1758.2926613176
 20
1151.323627
 30
0.0
 40
1.800000000000369
100
AcDbArc
 50
234.4753000235
 51
270.2359156769
  0
ARC
  5
15C
330
1F
100
AcDbEntity
  8
0
  6
Continuous
 62
     7
370
    15
100
AcDbCircle
 10
1755.3031391893
 20
1147.1362910397
 30
0.0
 40
3.345000000000085
100
AcDbArc
 50
54.4753000235
 51
215.9454043733
  0
ARC
  5
15D
330
1F
100
AcDbEntity
  8
0
  6
Continuous
 62
     7
370
    15
100
AcDbCircle
 10
1751.1378670062
 20
1144.1161035222
 30
0.0
 40
1.800000000000154
100
AcDbArc
 50
0.0
 51
35.9454043733
  0
LINE
  5
15E
330
1F
100
AcDbEntity
  8
0
  6
Continuous
 62
     7
370
    15
100
AcDbLine
 10
1752.9379013766
 20
1136.5469934825
 30
0.0
 11
1752.9379013766
 21
1144.1160681132
 31
0.0
  0
ARC
  5
15F
330
1F
100
AcDbEntity
  8
0
  6
Continuous
 62
     7
370
    15
100
AcDbCircle
 10
1751.1378670062
 20
1136.5470229233
 30
0.0
 40
1.80000000000002
100
AcDbArc
 50
324.0545956267
 51
0.0
  0
ARC
  5
160
330
1F
100
AcDbEntity
  8
0
  6
Continuous
 62
     7
370
    15
100
AcDbCircle
 10
1755.3031391893
 20
1133.5268354058
 30
0.0
 40
3.345000000000085
100
AcDbArc
 50
144.0545956267
 51
305.5246999765
  0
ARC
  5
161
330
1F
100
AcDbEntity
  8
0
  6
Continuous
 62
     7
370
    15
100
AcDbCircle
 10
1758.2926613176
 20
1129.3394994455
 30
0.0
 40
1.799999999999998
100
AcDbArc
 50
89.7640843231
 51
125.5246999765
  0
LINE
  5
162
330
1F
100
AcDbEntity
  8
0
  6
Continuous
 62
     7
370
    15
100
AcDbLine
 10
1801.8253926028
 20
1130.9602501277
 30
0.0
 11
1758.3000544299
 21
1131.1395408991
 31
0.0
  0
LINE
  5
163
330
1F
100
AcDbEntity
  8
0
  6
Continuous
 62
     7
370
    15
100
AcDbLine
 10
1808.7966326465
 20
1156.7027809504
 30
0.0
 11
1808.7966326465
 21
1193.3315040949
 31
0.0
  0
LINE
  5
164
330
1F
100
AcDbEntity
  8
0
  6
Continuous
 62
     7
370
    15
100
AcDbLine
 10
1808.7966326465
 20
96.2027999047
 30
0.0
 11
1808.7966326465
 21
1123.9602806452
 31
0.0
  0
LINE
  5
165
330
1F
100
AcDbEntity
  8
0
  6
Continuous
 62
     7
370
    15
100
AcDbLine
 10
1585.3615883578
 20
1123.9602806452
 30
0.0
 11
1585.3615883578
 21
1005.2027943019
 31
0.0
  0
LINE
  5
166
330
1F
100
AcDbEntity
  8
0
  6
Continuous
 62
     7
370
    15
100
AcDbLine
 10
1585.3615883578
 20
972.4603536013
 30
0.0
 11
1585.3615883578
 21
853.7028076533
 31
0.0
  0
LINE
  5
167
330
1F
100
AcDbEntity
  8
0
  6
Continuous
 62
     7
370
    15
100
AcDbLine
 10
1585.3615883578
 20
820.9603073481
 30
0.0
 11
1585.3615883578
 21
702.2028210047
 31
0.0
  0
ARC
  5
168
330
1F
100
AcDbEntity
  8
0
  6
Continuous
 62
     7
370
    15
100
AcDbCircle
 10
1635.8655726948
 20
523.3394994455
 30
0.0
 40
1.799999999999998
100
AcDbArc
 50
54.4753000235
 51
90.2359156769
  0
LINE
  5
169
330
1F
100
AcDbEntity
  8
0
  6
Continuous
 62
     7
370
    15
100
AcDbLine
 10
1641.2203196277
 20
386.6161050681
 30
0.0
 11
1641.2203196277
 21
379.0470304373
 31
0.0
  0
ARC
  5
16A
330
1F
100
AcDbEntity
  8
0
  6
Continuous
 62
     7
370
    15
100
AcDbCircle
 10
1643.0203670062
 20
379.0470229233
 30
0.0
 40
1.800000000000054
100
AcDbArc
 50
180.0
 51
215.9454043733
  0
ARC
  5
16B
330
1F
100
AcDbEntity
  8
0
  6
Continuous
 62
     7
370
    15
100
AcDbCircle
 10
1638.8550948231
 20
376.0268354058
 30
0.0
 40
3.345000000000085
100
AcDbArc
 50
234.4753000235
 51
35.9454043733
  0
ARC
  5
16C
330
1F
100
AcDbEntity
  8
0
  6
Continuous
 62
     7
370
    15
100
AcDbCircle
 10
1635.8655726948
 20
371.8394994455
 30
0.0
 40
1.800000000000137
100
AcDbArc
 50
54.4753000235
 51
90.2359156769
  0
LINE
  5
16D
330
1F
100
AcDbEntity
  8
0
  6
Continuous
 62
     7
370
    15
100
AcDbLine
 10
1635.8581665744
 20
373.6394884471
 30
0.0
 11
1592.3328284015
 21
373.4602572802
 31
0.0
  0
LINE
  5
16E
330
1F
100
AcDbEntity
  8
0
  6
Continuous
 62
     7
370
    15
100
AcDbLine
 10
1592.3328284015
 20
240.7028617743
 30
0.0
 11
1635.8581665744
 21
240.5236455086
 31
0.0
  0
ARC
  5
16F
330
1F
100
AcDbEntity
  8
0
  6
Continuous
 62
     7
370
    15
100
AcDbCircle
 10
1638.8550948231
 20
1147.1362910397
 30
0.0
 40
3.345000000000085
100
AcDbArc
 50
324.0545956267
 51
125.5246999765
  0
ARC
  5
170
330
1F
100
AcDbEntity
  8
0
  6
Continuous
 62
     7
370
    15
100
AcDbCircle
 10
1638.8550948231
 20
238.1362910397
 30
0.0
 40
3.345000000000068
100
AcDbArc
 50
324.0545956267
 51
125.5246999765
  0
ARC
  5
171
330
1F
100
AcDbEntity
  8
0
  6
Continuous
 62
     7
370
    15
100
AcDbCircle
 10
1643.0203670062
 20
235.1161035222
 30
0.0
 40
1.800000000000054
100
AcDbArc
 50
144.0545956267
 51
180.0
  0
ARC
  5
172
330
1F
100
AcDbEntity
  8
0
  6
Continuous
 62
     7
370
    15
100
AcDbCircle
 10
1638.8550948231
 20
224.5268354058
 30
0.0
 40
3.345000000000068
100
AcDbArc
 50
234.4753000235
 51
35.9454043733
  0
ARC
  5
173
330
1F
100
AcDbEntity
  8
0
  6
Continuous
 62
     7
370
    15
100
AcDbCircle
 10
1635.8655726948
 20
220.3394994455
 30
0.0
 40
1.800000000000068
100
AcDbArc
 50
54.4753000235
 51
90.2359156769
  0
LINE
  5
174
330
1F
100
AcDbEntity
  8
0
  6
Continuous
 62
     7
370
    15
100
AcDbLine
 10
1635.8581665744
 20
222.1394868973
 30
0.0
 11
1592.3328284015
 21
221.9602706317
 31
0.0
  0
LINE
  5
175
330
1F
100
AcDbEntity
  8
0
  6
Continuous
 62
     7
370
    15
100
AcDbLine
 10
1758.3000544299
 20
70.6394853476
 30
0.0
 11
1801.8253926028
 21
70.4602690819
 31
0.0
  0
ARC
  5
176
330
1F
100
AcDbEntity
  8
0
  6
Continuous
 62
     7
370
    15
100
AcDbCircle
 10
1758.2926613176
 20
68.8394994455
 30
0.0
 40
1.80000000000016
100
AcDbArc
 50
89.7640843231
 51
125.5246999765
  0
ARC
  5
177
330
1F
100
AcDbEntity
  8
0
  6
Continuous
 62
     7
370
    15
100
AcDbCircle
 10
1755.3031391893
 20
73.0268354058
 30
0.0
 40
3.345000000000068
100
AcDbArc
 50
144.0545956267
 51
305.5246999765
  0
ARC
  5
178
330
1F
100
AcDbEntity
  8
0
  6
Continuous
 62
     7
370
    15
100
AcDbCircle
 10
1751.1378670062
 20
76.0470229233
 30
0.0
 40
1.800000000000054
100
AcDbArc
 50
324.0545956267
 51
0.0
  0
LINE
  5
179
330
1F
100
AcDbEntity
  8
0
  6
Continuous
 62
     7
370
    15
100
AcDbLine
 10
1752.9379013766
 20
83.6161019686
 30
0.0
 11
1752.9379013766
 21
76.0470198873
 31
0.0
  0
ARC
  5
17A
330
1F
100
AcDbEntity
  8
0
  6
Continuous
 62
     7
370
    15
100
AcDbCircle
 10
1751.1378670062
 20
83.6161035222
 30
0.0
 40
1.800000000000054
100
AcDbArc
 50
0.0
 51
35.9454043733
  0
ARC
  5
17B
330
1F
100
AcDbEntity
  8
0
  6
Continuous
 62
     7
370
    15
100
AcDbCircle
 10
1755.3031391893
 20
86.6362910397
 30
0.0
 40
3.345000000000076
100
AcDbArc
 50
54.4753000235
 51
215.9454043733
  0
ARC
  5
17C
330
1F
100
AcDbEntity
  8
0
  6
Continuous
 62
     7
370
    15
100
AcDbCircle
 10
1758.2926613176
 20
90.823627
 30
0.0
 40
1.799999999999975
100
AcDbArc
 50
234.4753000235
 51
270.2359156769
  0
LINE
  5
17D
330
1F
100
AcDbEntity
  8
0
  6
Continuous
 62
     7
370
    15
100
AcDbLine
 10
1801.8253926028
 20
89.2028602246
 30
0.0
 11
1758.3000544299
 21
89.0236439589
 31
0.0
  0
LINE
  5
17E
330
1F
100
AcDbEntity
  8
0
  6
Continuous
 62
     7
370
    15
100
AcDbLine
 10
1592.3328284015
 20
89.2028602246
 30
0.0
 11
1635.8581665744
 21
89.0236439589
 31
0.0
  0
ARC
  5
17F
330
1F
100
AcDbEntity
  8
0
  6
Continuous
 62
     7
370
    15
100
AcDbCircle
 10
1635.8655726948
 20
90.823627
 30
0.0
 40
1.799999999999975
100
AcDbArc
 50
269.7640843231
 51
305.5246999765
  0
ARC
  5
180
330
1F
100
AcDbEntity
  8
0
  6
Continuous
 62
     7
370
    15
100
AcDbCircle
 10
1638.8550948231
 20
86.6362910397
 30
0.0
 40
3.345000000000076
100
AcDbArc
 50
324.0545956267
 51
125.5246999765
  0
ARC
  5
181
330
1F
100
AcDbEntity
  8
0
  6
Continuous
 62
     7
370
    15
100
AcDbCircle
 10
1643.0203670062
 20
83.6161035222
 30
0.0
 40
1.800000000000054
100
AcDbArc
 50
144.0545956267
 51
180.0
  0
LINE
  5
182
330
1F
100
AcDbEntity
  8
0
  6
Continuous
 62
     7
370
    15
100
AcDbLine
 10
1641.2203196277
 20
83.6161019686
 30
0.0
 11
1641.2203196277
 21
76.0470198873
 31
0.0
  0
ARC
  5
183
330
1F
100
AcDbEntity
  8
0
  6
Continuous
 62
     7
370
    15
100
AcDbCircle
 10
1643.0203670062
 20
76.0470229233
 30
0.0
 40
1.800000000000054
100
AcDbArc
 50
180.0
 51
215.9454043733
  0
ARC
  5
184
330
1F
100
AcDbEntity
  8
0
  6
Continuous
 62
     7
370
    15
100
AcDbCircle
 10
1638.8550948231
 20
73.0268354058
 30
0.0
 40
3.345000000000068
100
AcDbArc
 50
234.4753000235
 51
35.9454043733
  0
ARC
  5
185
330
1F
100
AcDbEntity
  8
0
  6
Continuous
 62
     7
370
    15
100
AcDbCircle
 10
1635.8655726948
 20
68.8394994455
 30
0.0
 40
1.80000000000016
100
AcDbArc
 50
54.4753000235
 51
90.2359156769
  0
LINE
  5
186
330
1F
100
AcDbEntity
  8
0
  6
Continuous
 62
     7
370
    15
100
AcDbLine
 10
1635.8581665744
 20
70.6394853476
 30
0.0
 11
1592.3328284015
 21
70.4602690819
 31
0.0
  0
LINE
  5
187
330
1F
100
AcDbEntity
  8
0
  6
Continuous
 62
     7
370
    15
100
AcDbLine
 10
1801.7966631641
 20
19.8315641317
 30
0.0
 11
1592.3615578403
 21
19.8315641317
 31
0.0
  0
LINE
  5
188
330
1F
100
AcDbEntity
  8
0
  6
Continuous
 62
     7
370
    15
100
AcDbLine
 10
1585.3615883578
 20
26.8315634165
 30
0.0
 11
1585.3615883578
 21
63.4603294018
 31
0.0
  0
LINE
  5
189
330
1F
100
AcDbEntity
  8
0
  6
Continuous
 62
     7
370
    15
100
AcDbLine
 10
1808.7966326465
 20
63.4603294018
 30
0.0
 11
1808.7966326465
 21
26.8315634165
 31
0.0
  0
LINE
  5
18A
330
1F
100
AcDbEntity
  8
0
  6
Continuous
 62
     7
370
    15
100
AcDbLine
 10
1585.3615883578
 20
96.2027999047
 30
0.0
 11
1585.3615883578
 21
214.9603309516
 31
0.0
  0
LINE
  5
18B
330
1F
100
AcDbEntity
  8
0
  6
Continuous
 62
     7
370
    15
100
AcDbLine
 10
1585.3615883578
 20
247.7028014544
 30
0.0
 11
1585.3615883578
 21
366.4603176001
 31
0.0
  0
LINE
  5
18C
330
1F
100
AcDbEntity
  8
0
  6
Continuous
 62
     7
370
    15
100
AcDbLine
 10
1585.3615883578
 20
399.202788103
 30
0.0
 11
1585.3615883578
 21
517.960334051
 31
0.0
  0
ARC
  5
18D
330
1F
100
AcDbEntity
  8
0
  6
Continuous
 62
     7
370
    15
100
AcDbCircle
 10
1592.3616170062
 20
1193.3315632228
 30
0.0
 40
7.0
100
AcDbArc
 50
90.0
 51
180.0
  0
ARC
  5
18E
330
1F
100
AcDbEntity
  8
0
  6
Continuous
 62
     7
370
    15
100
AcDbCircle
 10
1592.3616170062
 20
1156.7027998615
 30
0.0
 40
6.999999999999773
100
AcDbArc
 50
180.0
 51
269.7640843231
  0
ARC
  5
18F
330
1F
100
AcDbEntity
  8
0
  6
Continuous
 62
     7
370
    15
100
AcDbCircle
 10
1592.3616170062
 20
1005.2027998615
 30
0.0
 40
6.999999999999877
100
AcDbArc
 50
180.0
 51
269.7640843231
  0
ARC
  5
190
330
1F
100
AcDbEntity
  8
0
  6
Continuous
 62
     7
370
    15
100
AcDbCircle
 10
1592.3616170062
 20
853.7027998615
 30
0.0
 40
7.000000000000105
100
AcDbArc
 50
180.0
 51
269.7640843231
  0
ARC
  5
191
330
1F
100
AcDbEntity
  8
0
  6
Continuous
 62
     7
370
    15
100
AcDbCircle
 10
1592.3616170062
 20
702.2027998615
 30
0.0
 40
7.000000000000105
100
AcDbArc
 50
180.0
 51
269.7640843231
  0
ARC
  5
192
330
1F
100
AcDbEntity
  8
0
  6
Continuous
 62
     7
370
    15
100
AcDbCircle
 10
1801.7966170062
 20
1156.7027998615
 30
0.0
 40
6.999999999999773
100
AcDbArc
 50
270.2359156769
 51
0.0
  0
ARC
  5
193
330
1F
100
AcDbEntity
  8
0
  6
Continuous
 62
     7
370
    15
100
AcDbCircle
 10
1801.7966170062
 20
1193.3315632228
 30
0.0
 40
7.0
100
AcDbArc
 50
0.0
 51
90.0
  0
ARC
  5
194
330
1F
100
AcDbEntity
  8
0
  6
Continuous
 62
     7
370
    15
100
AcDbCircle
 10
1592.3616170062
 20
972.460326584
 30
0.0
 40
6.999999999999991
100
AcDbArc
 50
90.2359156769
 51
180.0
  0
ARC
  5
195
330
1F
100
AcDbEntity
  8
0
  6
Continuous
 62
     7
370
    15
100
AcDbCircle
 10
1592.3616170062
 20
820.960326584
 30
0.0
 40
6.999999999999991
100
AcDbArc
 50
90.2359156769
 51
180.0
  0
ARC
  5
196
330
1F
100
AcDbEntity
  8
0
  6
Continuous
 62
     7
370
    15
100
AcDbCircle
 10
1592.3616170062
 20
669.460326584
 30
0.0
 40
6.999999999999991
100
AcDbArc
 50
90.2359156769
 51
180.0
  0
ARC
  5
197
330
1F
100
AcDbEntity
  8
0
  6
Continuous
 62
     7
370
    15
100
AcDbCircle
 10
1592.3616170062
 20
1123.960326584
 30
0.0
 40
7.000000000000446
100
AcDbArc
 50
90.2359156769
 51
180.0
  0
ARC
  5
198
330
1F
100
AcDbEntity
  8
0
  6
Continuous
 62
     7
370
    15
100
AcDbCircle
 10
1801.7966170062
 20
1123.960326584
 30
0.0
 40
7.000000000000446
100
AcDbArc
 50
0.0
 51
89.7640843231
  0
LINE
  5
199
330
1F
100
AcDbEntity
  8
0
  6
Continuous
 62
     7
370
    15
100
AcDbLine
 10
1592.3328284015
 20
676.460290182
 30
0.0
 11
1635.8581665744
 21
676.6394617442
 31
0.0
  0
ARC
  5
19A
330
1F
100
AcDbEntity
  8
0
  6
Continuous
 62
     7
370
    15
100
AcDbCircle
 10
1638.8550948231
 20
679.0268354058
 30
0.0
 40
3.345000000000085
100
AcDbArc
 50
234.4753000235
 51
35.9454043733
  0
ARC
  5
19B
330
1F
100
AcDbEntity
  8
0
  6
Continuous
 62
     7
370
    15
100
AcDbCircle
 10
1643.0203670062
 20
682.0470229233
 30
0.0
 40
1.800000000000087
100
AcDbArc
 50
180.0
 51
215.9454043733
  0
LINE
  5
19C
330
1F
100
AcDbEntity
  8
0
  6
Continuous
 62
     7
370
    15
100
AcDbLine
 10
1641.2203196277
 20
682.0470335368
 30
0.0
 11
1641.2203196277
 21
689.6161081675
 31
0.0
  0
ARC
  5
19D
330
1F
100
AcDbEntity
  8
0
  6
Continuous
 62
     7
370
    15
100
AcDbCircle
 10
1643.0203670062
 20
689.6161035222
 30
0.0
 40
1.80000000000002
100
AcDbArc
 50
144.0545956267
 51
180.0
  0
ARC
  5
19E
330
1F
100
AcDbEntity
  8
0
  6
Continuous
 62
     7
370
    15
100
AcDbCircle
 10
1638.8550948231
 20
692.6362910397
 30
0.0
 40
3.345000000000085
100
AcDbArc
 50
324.0545956267
 51
125.5246999765
  0
ARC
  5
19F
330
1F
100
AcDbEntity
  8
0
  6
Continuous
 62
     7
370
    15
100
AcDbCircle
 10
1635.8655726948
 20
242.323627
 30
0.0
 40
1.800000000000091
100
AcDbArc
 50
269.7640843231
 51
305.5246999765
  0
ARC
  5
1A0
330
1F
100
AcDbEntity
  8
0
  6
Continuous
 62
     7
370
    15
100
AcDbCircle
 10
1638.8550948231
 20
844.1362910397
 30
0.0
 40
3.345000000000085
100
AcDbArc
 50
324.0545956267
 51
125.5246999765
  0
ARC
  5
1A1
330
1F
100
AcDbEntity
  8
0
  6
Continuous
 62
     7
370
    15
100
AcDbCircle
 10
1635.8655726948
 20
848.323627
 30
0.0
 40
1.800000000000184
100
AcDbArc
 50
269.7640843231
 51
305.5246999765
  0
LINE
  5
1A2
330
1F
100
AcDbEntity
  8
0
  6
Continuous
 62
     7
370
    15
100
AcDbLine
 10
1635.8581665744
 20
846.5236666087
 30
0.0
 11
1592.3328284015
 21
846.7028381709
 31
0.0
  0
LINE
  5
1A3
330
1F
100
AcDbEntity
  8
0
  6
Continuous
 62
     7
370
    15
100
AcDbLine
 10
1592.3328284015
 20
979.4602634791
 30
0.0
 11
1635.8581665744
 21
979.6394946459
 31
0.0
  0
ARC
  5
1A4
330
1F
100
AcDbEntity
  8
0
  6
Continuous
 62
     7
370
    15
100
AcDbCircle
 10
1635.8655726948
 20
977.8394994455
 30
0.0
 40
1.800000000000091
100
AcDbArc
 50
54.4753000235
 51
90.2359156769
  0
ARC
  5
1A5
330
1F
100
AcDbEntity
  8
0
  6
Continuous
 62
     7
370
    15
100
AcDbCircle
 10
1638.8550948231
 20
982.0268354058
 30
0.0
 40
3.345000000000085
100
AcDbArc
 50
234.4753000235
 51
35.9454043733
  0
ARC
  5
1A6
330
1F
100
AcDbEntity
  8
0
  6
Continuous
 62
     7
370
    15
100
AcDbCircle
 10
1643.0203670062
 20
985.0470229233
 30
0.0
 40
1.80000000000002
100
AcDbArc
 50
180.0
 51
215.9454043733
  0
LINE
  5
1A7
330
1F
100
AcDbEntity
  8
0
  6
Continuous
 62
     7
370
    15
100
AcDbLine
 10
1641.2203196277
 20
985.0470068339
 30
0.0
 11
1641.2203196277
 21
992.6160814646
 31
0.0
  0
ARC
  5
1A8
330
1F
100
AcDbEntity
  8
0
  6
Continuous
 62
     7
370
    15
100
AcDbCircle
 10
1643.0203670062
 20
992.6161035222
 30
0.0
 40
1.800000000000087
100
AcDbArc
 50
144.0545956267
 51
180.0
  0
LINE
  5
1A9
330
1F
100
AcDbEntity
  8
0
  6
Continuous
 62
     7
370
    15
100
AcDbLine
 10
1592.3328284015
 20
827.9602768305
 30
0.0
 11
1635.8581665744
 21
828.1395079974
 31
0.0
  0
ARC
  5
1AA
330
1F
100
AcDbEntity
  8
0
  6
Continuous
 62
     7
370
    15
100
AcDbCircle
 10
1635.8655726948
 20
826.3394994455
 30
0.0
 40
1.800000000000184
100
AcDbArc
 50
54.4753000235
 51
90.2359156769
  0
ARC
  5
1AB
330
1F
100
AcDbEntity
  8
0
  6
Continuous
 62
     7
370
    15
100
AcDbCircle
 10
1638.8550948231
 20
830.5268354058
 30
0.0
 40
3.345000000000151
100
AcDbArc
 50
234.4753000235
 51
35.9454043733
  0
ARC
  5
1AC
330
1F
100
AcDbEntity
  8
0
  6
Continuous
 62
     7
370
    15
100
AcDbCircle
 10
1643.0203670062
 20
833.5470229233
 30
0.0
 40
1.80000000000002
100
AcDbArc
 50
180.0
 51
215.9454043733
  0
LINE
  5
1AD
330
1F
100
AcDbEntity
  8
0
  6
Continuous
 62
     7
370
    15
100
AcDbLine
 10
1641.2203196277
 20
833.5470201853
 30
0.0
 11
1641.2203196277
 21
841.1160948161
 31
0.0
  0
ARC
  5
1AE
330
1F
100
AcDbEntity
  8
0
  6
Continuous
 62
     7
370
    15
100
AcDbCircle
 10
1643.0203670062
 20
841.1161035222
 30
0.0
 40
1.800000000000087
100
AcDbArc
 50
144.0545956267
 51
180.0
  0
ARC
  5
1AF
330
1F
100
AcDbEntity
  8
0
  6
Continuous
 62
     7
370
    15
100
AcDbCircle
 10
1635.8655726948
 20
674.8394994455
 30
0.0
 40
1.800000000000091
100
AcDbArc
 50
54.4753000235
 51
90.2359156769
  0
LINE
  5
1B0
330
1F
100
AcDbEntity
  8
0
  6
Continuous
 62
     7
370
    15
100
AcDbLine
 10
1635.8581665744
 20
695.0236203555
 30
0.0
 11
1592.3328284015
 21
695.2028515223
 31
0.0
  0
ARC
  5
1B1
330
1F
100
AcDbEntity
  8
0
  6
Continuous
 62
     7
370
    15
100
AcDbCircle
 10
1635.8655726948
 20
393.823627
 30
0.0
 40
1.800000000000137
100
AcDbArc
 50
269.7640843231
 51
305.5246999765
  0
ARC
  5
1B2
330
1F
100
AcDbEntity
  8
0
  6
Continuous
 62
     7
370
    15
100
AcDbCircle
 10
1635.8655726948
 20
696.823627
 30
0.0
 40
1.800000000000091
100
AcDbArc
 50
269.7640843231
 51
305.5246999765
  0
ARC
  5
1B3
330
1F
100
AcDbEntity
  8
0
  6
Continuous
 62
     7
370
    15
100
AcDbCircle
 10
348.0366170062
 20
449.7027998615
 30
0.0
 40
7.0
100
AcDbArc
 50
270.2359156769
 51
0.0
  0
LINE
  5
1B4
330
1F
100
AcDbEntity
  8
0
  6
Continuous
 62
     7
370
    15
100
AcDbLine
 10
304.5400861491
 20
442.523652542
 30
0.0
 11
348.0654541244
 21
442.7028539065
 31
0.0
  0
ARC
  5
1B5
330
1F
100
AcDbEntity
  8
0
  6
Continuous
 62
     7
370
    15
100
AcDbCircle
 10
304.5326613176
 20
444.323627
 30
0.0
 40
1.799999999999985
100
AcDbArc
 50
234.4753000235
 51
270.2359156769
  0
ARC
  5
1B6
330
1F
100
AcDbEntity
  8
0
  6
Continuous
 62
     7
370
    15
100
AcDbCircle
 10
301.5431391893
 20
440.1362910397
 30
0.0
 40
3.345000000000018
100
AcDbArc
 50
54.4753000235
 51
215.9454043733
  0
ARC
  5
1B7
330
1F
100
AcDbEntity
  8
0
  6
Continuous
 62
     7
370
    15
100
AcDbCircle
 10
297.3778670062
 20
437.1161035222
 30
0.0
 40
1.800000000000182
100
AcDbArc
 50
0.0
 51
35.9454043733
  0
LINE
  5
1B8
330
1F
100
AcDbEntity
  8
0
  6
Continuous
 62
     7
370
    15
100
AcDbLine
 10
299.1778734912
 20
429.547035921
 30
0.0
 11
299.1778734912
 21
437.1161105517
 31
0.0
  0
ARC
  5
1B9
330
1F
100
AcDbEntity
  8
0
  6
Continuous
 62
     7
370
    15
100
AcDbCircle
 10
297.3778670062
 20
429.5470229233
 30
0.0
 40
1.800000000000182
100
AcDbArc
 50
324.0545956267
 51
0.0
  0
ARC
  5
1BA
330
1F
100
AcDbEntity
  8
0
  6
Continuous
 62
     7
370
    15
100
AcDbCircle
 10
301.5431391893
 20
426.5268354058
 30
0.0
 40
3.345000000000065
100
AcDbArc
 50
144.0545956267
 51
305.5246999765
  0
ARC
  5
1BB
330
1F
100
AcDbEntity
  8
0
  6
Continuous
 62
     7
370
    15
100
AcDbCircle
 10
304.5326613176
 20
422.3394994455
 30
0.0
 40
1.799999999999985
100
AcDbArc
 50
89.7640843231
 51
125.5246999765
  0
ARC
  5
1BC
330
1F
100
AcDbEntity
  8
0
  6
Continuous
 62
     7
370
    15
100
AcDbCircle
 10
348.0366170062
 20
416.960326584
 30
0.0
 40
7.000000000000048
100
AcDbArc
 50
0.0
 51
89.7640843231
  0
LINE
  5
1BD
330
1F
100
AcDbEntity
  8
0
  6
Continuous
 62
     7
370
    15
100
AcDbLine
 10
355.036604761
 20
416.9603230837
 30
0.0
 11
355.036604761
 21
331.8694772605
 31
0.0
  0
ARC
  5
1BE
330
1F
100
AcDbEntity
  8
0
  6
Continuous
 62
     7
370
    15
100
AcDbCircle
 10
348.0366170062
 20
331.8694665282
 30
0.0
 40
7.000000000000048
100
AcDbArc
 50
270.2359156769
 51
0.0
  0
ARC
  5
1BF
330
1F
100
AcDbEntity
  8
0
  6
Continuous
 62
     7
370
    15
100
AcDbCircle
 10
304.5326613176
 20
326.4902936666
 30
0.0
 40
1.799999999999928
100
AcDbArc
 50
234.4753000235
 51
270.2359156769
  0
ARC
  5
1C0
330
1F
100
AcDbEntity
  8
0
  6
Continuous
 62
     7
370
    15
100
AcDbCircle
 10
301.5431391893
 20
322.3029577063
 30
0.0
 40
3.345000000000018
100
AcDbArc
 50
54.4753000235
 51
215.9454043733
  0
ARC
  5
1C1
330
1F
100
AcDbEntity
  8
0
  6
Continuous
 62
     7
370
    15
100
AcDbCircle
 10
297.3778670062
 20
319.2827701888
 30
0.0
 40
1.800000000000182
100
AcDbArc
 50
0.0
 51
35.9454043733
  0
LINE
  5
1C2
330
1F
100
AcDbEntity
  8
0
  6
Continuous
 62
     7
370
    15
100
AcDbLine
 10
299.1778734912
 20
311.7136897925
 30
0.0
 11
299.1778734912
 21
319.2827644232
 31
0.0
  0
ARC
  5
1C3
330
1F
100
AcDbEntity
  8
0
  6
Continuous
 62
     7
370
    15
100
AcDbCircle
 10
297.3778670062
 20
311.71368959
 30
0.0
 40
1.800000000000182
100
AcDbArc
 50
324.0545956267
 51
0.0
  0
ARC
  5
1C4
330
1F
100
AcDbEntity
  8
0
  6
Continuous
 62
     7
370
    15
100
AcDbCircle
 10
301.5431391893
 20
308.6935020725
 30
0.0
 40
3.345000000000005
100
AcDbArc
 50
144.0545956267
 51
305.5246999765
  0
ARC
  5
1C5
330
1F
100
AcDbEntity
  8
0
  6
Continuous
 62
     7
370
    15
100
AcDbCircle
 10
304.5326613176
 20
304.5061661122
 30
0.0
 40
1.800000000000018
100
AcDbArc
 50
89.7640843231
 51
125.5246999765
  0
LINE
  5
1C6
330
1F
100
AcDbEntity
  8
0
  6
Continuous
 62
     7
370
    15
100
AcDbLine
 10
348.0654541244
 20
306.1269464377
 30
0.0
 11
304.5400861491
 21
306.3061478022
 31
0.0
  0
ARC
  5
1C7
330
1F
100
AcDbEntity
  8
0
  6
Continuous
 62
     7
370
    15
100
AcDbCircle
 10
348.0366170062
 20
299.1269932506
 30
0.0
 40
7.0
100
AcDbArc
 50
0.0
 51
89.7640843231
  0
LINE
  5
1C8
330
1F
100
AcDbEntity
  8
0
  6
Continuous
 62
     7
370
    15
100
AcDbLine
 10
355.036604761
 20
299.1270067576
 30
0.0
 11
355.036604761
 21
214.036131132
 31
0.0
  0
ARC
  5
1C9
330
1F
100
AcDbEntity
  8
0
  6
Continuous
 62
     7
370
    15
100
AcDbCircle
 10
348.0366170062
 20
214.0361331949
 30
0.0
 40
7.000000000000114
100
AcDbArc
 50
270.2359156769
 51
0.0
  0
LINE
  5
1CA
330
1F
100
AcDbEntity
  8
0
  6
Continuous
 62
     7
370
    15
100
AcDbLine
 10
304.5400861491
 20
206.8569751862
 30
0.0
 11
348.0654541244
 21
207.0361914519
 31
0.0
  0
ARC
  5
1CB
330
1F
100
AcDbEntity
  8
0
  6
Continuous
 62
     7
370
    15
100
AcDbCircle
 10
304.5326613176
 20
208.6569603333
 30
0.0
 40
1.800000000000013
100
AcDbArc
 50
234.4753000235
 51
270.2359156769
  0
ARC
  5
1CC
330
1F
100
AcDbEntity
  8
0
  6
Continuous
 62
     7
370
    15
100
AcDbCircle
 10
301.5431391893
 20
204.469624373
 30
0.0
 40
3.345000000000088
100
AcDbArc
 50
54.4753000235
 51
215.9454043733
  0
ARC
  5
1CD
330
1F
100
AcDbEntity
  8
0
  6
Continuous
 62
     7
370
    15
100
AcDbCircle
 10
297.3778670062
 20
193.8803562567
 30
0.0
 40
1.800000000000068
100
AcDbArc
 50
324.0545956267
 51
0.0
  0
ARC
  5
1CE
330
1F
100
AcDbEntity
  8
0
  6
Continuous
 62
     7
370
    15
100
AcDbCircle
 10
301.5431391893
 20
190.8601687392
 30
0.0
 40
3.345000000000041
100
AcDbArc
 50
144.0545956267
 51
305.5246999765
  0
ARC
  5
1CF
330
1F
100
AcDbEntity
  8
0
  6
Continuous
 62
     7
370
    15
100
AcDbCircle
 10
304.5326613176
 20
186.6728327789
 30
0.0
 40
1.800000000000013
100
AcDbArc
 50
89.7640843231
 51
125.5246999765
  0
LINE
  5
1D0
330
1F
100
AcDbEntity
  8
0
  6
Continuous
 62
     7
370
    15
100
AcDbLine
 10
348.0654541244
 20
188.2936003092
 30
0.0
 11
304.5400861491
 21
188.4728165749
 31
0.0
  0
ARC
  5
1D1
330
1F
100
AcDbEntity
  8
0
  6
Continuous
 62
     7
370
    15
100
AcDbCircle
 10
348.0366170062
 20
181.2936599173
 30
0.0
 40
7.000000000000114
100
AcDbArc
 50
0.0
 51
89.7640843231
  0
LINE
  5
1D2
330
1F
100
AcDbEntity
  8
0
  6
Continuous
 62
     7
370
    15
100
AcDbLine
 10
355.036604761
 20
181.2936606291
 30
0.0
 11
355.036604761
 21
96.2027999047
 31
0.0
  0
ARC
  5
1D3
330
1F
100
AcDbEntity
  8
0
  6
Continuous
 62
     7
370
    15
100
AcDbCircle
 10
348.0366170062
 20
96.2027998615
 30
0.0
 40
7.000000000000114
100
AcDbArc
 50
270.2359156769
 51
0.0
  0
LINE
  5
1D4
330
1F
100
AcDbEntity
  8
0
  6
Continuous
 62
     7
370
    15
100
AcDbLine
 10
304.5400861491
 20
89.0236439589
 30
0.0
 11
348.0654541244
 21
89.2028602246
 31
0.0
  0
ARC
  5
1D5
330
1F
100
AcDbEntity
  8
0
  6
Continuous
 62
     7
370
    15
100
AcDbCircle
 10
304.5326613176
 20
90.823627
 30
0.0
 40
1.799999999999999
100
AcDbArc
 50
234.4753000235
 51
270.2359156769
  0
ARC
  5
1D6
330
1F
100
AcDbEntity
  8
0
  6
Continuous
 62
     7
370
    15
100
AcDbCircle
 10
301.5431391893
 20
86.6362910397
 30
0.0
 40
3.345000000000088
100
AcDbArc
 50
54.4753000235
 51
215.9454043733
  0
ARC
  5
1D7
330
1F
100
AcDbEntity
  8
0
  6
Continuous
 62
     7
370
    15
100
AcDbCircle
 10
297.3778670062
 20
83.6161035222
 30
0.0
 40
1.800000000000068
100
AcDbArc
 50
0.0
 51
35.9454043733
  0
LINE
  5
1D8
330
1F
100
AcDbEntity
  8
0
  6
Continuous
 62
     7
370
    15
100
AcDbLine
 10
299.1778734912
 20
76.0470198873
 30
0.0
 11
299.1778734912
 21
83.6161019686
 31
0.0
  0
ARC
  5
1D9
330
1F
100
AcDbEntity
  8
0
  6
Continuous
 62
     7
370
    15
100
AcDbCircle
 10
297.3778670062
 20
76.0470229233
 30
0.0
 40
1.800000000000068
100
AcDbArc
 50
324.0545956267
 51
0.0
  0
ARC
  5
1DA
330
1F
100
AcDbEntity
  8
0
  6
Continuous
 62
     7
370
    15
100
AcDbCircle
 10
301.5431391893
 20
73.0268354058
 30
0.0
 40
3.345000000000099
100
AcDbArc
 50
144.0545956267
 51
305.5246999765
  0
ARC
  5
1DB
330
1F
100
AcDbEntity
  8
0
  6
Continuous
 62
     7
370
    15
100
AcDbCircle
 10
304.5326613176
 20
68.8394994455
 30
0.0
 40
1.799999999999999
100
AcDbArc
 50
89.7640843231
 51
125.5246999765
  0
LINE
  5
1DC
330
1F
100
AcDbEntity
  8
0
  6
Continuous
 62
     7
370
    15
100
AcDbLine
 10
348.0654541244
 20
70.4602690819
 30
0.0
 11
304.5400861491
 21
70.6394853476
 31
0.0
  0
ARC
  5
1DD
330
1F
100
AcDbEntity
  8
0
  6
Continuous
 62
     7
370
    15
100
AcDbCircle
 10
348.0366170062
 20
63.460326584
 30
0.0
 40
7.000000000000114
100
AcDbArc
 50
0.0
 51
89.7640843231
  0
LINE
  5
1DE
330
1F
100
AcDbEntity
  8
0
  6
Continuous
 62
     7
370
    15
100
AcDbLine
 10
355.036604761
 20
63.4603294018
 30
0.0
 11
355.036604761
 21
26.8315634165
 31
0.0
  0
ARC
  5
1DF
330
1F
100
AcDbEntity
  8
0
  6
Continuous
 62
     7
370
    15
100
AcDbCircle
 10
348.0366170062
 20
26.8315632228
 30
0.0
 40
7.000000000000114
100
AcDbArc
 50
270.0
 51
0.0
  0
LINE
  5
1E0
330
1F
100
AcDbEntity
  8
0
  6
Continuous
 62
     7
370
    15
100
AcDbLine
 10
348.0366054763
 20
19.8315641317
 30
0.0
 11
26.8841177066
 21
19.8315641317
 31
0.0
  0
ARC
  5
1E1
330
1F
100
AcDbEntity
  8
0
  6
Continuous
 62
     7
370
    15
100
AcDbCircle
 10
26.8841170062
 20
26.8315632228
 30
0.0
 40
7.000000000000007
100
AcDbArc
 50
180.0
 51
270.0
  0
LINE
  5
1E2
330
1F
100
AcDbEntity
  8
0
  6
Continuous
 62
     7
370
    15
100
AcDbLine
 10
19.8841165592
 20
26.8315634165
 30
0.0
 11
19.8841165592
 21
63.4411665085
 31
0.0
  0
ARC
  5
1E3
330
1F
100
AcDbEntity
  8
0
  6
Continuous
 62
     7
370
    15
100
AcDbCircle
 10
26.8841170062
 20
63.4411641962
 30
0.0
 40
7.000000000000038
100
AcDbArc
 50
90.078638954
 51
180.0
  0
LINE
  5
1E4
330
1F
100
AcDbEntity
  8
0
  6
Continuous
 62
     7
370
    15
100
AcDbLine
 10
182.0826414813
 20
70.6541853431
 30
0.0
 11
26.8745101829
 21
70.4411583427
 31
0.0
  0
ARC
  5
1E5
330
1F
100
AcDbEntity
  8
0
  6
Continuous
 62
     7
370
    15
100
AcDbCircle
 10
182.0851106508
 20
68.8541839368
 30
0.0
 40
1.800000000000032
100
AcDbArc
 50
54.1948243806
 51
90.078638954
  0
ARC
  5
1E6
330
1F
100
AcDbEntity
  8
0
  6
Continuous
 62
     7
370
    15
100
AcDbCircle
 10
185.0950948231
 20
73.0268354058
 30
0.0
 40
3.344999999999999
100
AcDbArc
 50
234.1948243806
 51
35.9454043733
  0
ARC
  5
1E7
330
1F
100
AcDbEntity
  8
0
  6
Continuous
 62
     7
370
    15
100
AcDbCircle
 10
189.2603670062
 20
76.0470229233
 30
0.0
 40
1.8000000000001
100
AcDbArc
 50
180.0
 51
215.9454043733
  0
LINE
  5
1E8
330
1F
100
AcDbEntity
  8
0
  6
Continuous
 62
     7
370
    15
100
AcDbLine
 10
187.460366248
 20
83.6161019686
 30
0.0
 11
187.460366248
 21
76.0470198873
 31
0.0
  0
ARC
  5
1E9
330
1F
100
AcDbEntity
  8
0
  6
Continuous
 62
     7
370
    15
100
AcDbCircle
 10
189.2603670062
 20
83.6161035222
 30
0.0
 40
1.800000000000166
100
AcDbArc
 50
144.0545956267
 51
180.0
  0
ARC
  5
1EA
330
1F
100
AcDbEntity
  8
0
  6
Continuous
 62
     7
370
    15
100
AcDbCircle
 10
182.0851106508
 20
90.8089425087
 30
0.0
 40
1.800000000000032
100
AcDbArc
 50
269.921361046
 51
305.8051756194
  0
LINE
  5
1EB
330
1F
100
AcDbEntity
  8
0
  6
Continuous
 62
     7
370
    15
100
AcDbLine
 10
26.8745101829
 20
89.2219709638
 30
0.0
 11
182.0826414813
 21
89.0089439634
 31
0.0
  0
ARC
  5
1EC
330
1F
100
AcDbEntity
  8
0
  6
Continuous
 62
     7
370
    15
100
AcDbCircle
 10
26.8841170062
 20
96.2219622493
 30
0.0
 40
7.000000000000038
100
AcDbArc
 50
180.0
 51
269.921361046
  0
LINE
  5
1ED
330
1F
100
AcDbEntity
  8
0
  6
Continuous
 62
     7
370
    15
100
AcDbLine
 10
19.8841165592
 20
96.221962798
 30
0.0
 11
19.8841165592
 21
1123.9412071589
 31
0.0
  0
LINE
  5
1EE
330
1F
100
AcDbEntity
  8
0
  6
Continuous
 62
     7
370
    15
100
AcDbLine
 10
26.8745101829
 20
1130.9411766413
 30
0.0
 11
182.0826414813
 21
1131.1542036418
 31
0.0
  0
ARC
  5
1EF
330
1F
100
AcDbEntity
  8
0
  6
Continuous
 62
     7
370
    15
100
AcDbCircle
 10
182.0851106508
 20
1129.3541839368
 30
0.0
 40
1.799999999999963
100
AcDbArc
 50
54.1948243806
 51
90.078638954
  0
ARC
  5
1F0
330
1F
100
AcDbEntity
  8
0
  6
Continuous
 62
     7
370
    15
100
AcDbCircle
 10
185.0950948231
 20
1133.5268354058
 30
0.0
 40
3.345000000000016
100
AcDbArc
 50
234.1948243806
 51
35.9454043733
  0
ARC
  5
1F1
330
1F
100
AcDbEntity
  8
0
  6
Continuous
 62
     7
370
    15
100
AcDbCircle
 10
189.2603670062
 20
1136.5470229233
 30
0.0
 40
1.800000000000011
100
AcDbArc
 50
180.0
 51
215.9454043733
  0
LINE
  5
1F2
330
1F
100
AcDbEntity
  8
0
  6
Continuous
 62
     7
370
    15
100
AcDbLine
 10
187.460366248
 20
1136.5469934825
 30
0.0
 11
187.460366248
 21
1144.1160681132
 31
0.0
  0
ARC
  5
1F3
330
1F
100
AcDbEntity
  8
0
  6
Continuous
 62
     7
370
    15
100
AcDbCircle
 10
185.0950948231
 20
1147.1362910397
 30
0.0
 40
3.344999999999831
100
AcDbArc
 50
324.0545956267
 51
125.8051756194
  0
ARC
  5
1F4
330
1F
100
AcDbEntity
  8
0
  6
Continuous
 62
     7
370
    15
100
AcDbCircle
 10
182.0851106508
 20
1151.3089425087
 30
0.0
 40
1.800000000000331
100
AcDbArc
 50
269.921361046
 51
305.8051756194
  0
LINE
  5
1F5
330
1F
100
AcDbEntity
  8
0
  6
Continuous
 62
     7
370
    15
100
AcDbLine
 10
182.0826414813
 20
1149.5089771632
 30
0.0
 11
26.8745101829
 21
1149.7220041636
 31
0.0
  0
LINE
  5
1F6
330
1F
100
AcDbEntity
  8
0
  6
Continuous
 62
     7
370
    15
100
AcDbLine
 10
19.8841165592
 20
1193.3315040949
 30
0.0
 11
19.8841165592
 21
1156.721973646
 31
0.0
  0
LINE
  5
1F7
330
1F
100
AcDbEntity
  8
0
  6
Continuous
 62
     7
370
    15
100
AcDbLine
 10
348.0366054763
 20
1200.3315927867
 30
0.0
 11
26.8841177066
 21
1200.3315927867
 31
0.0
  0
LINE
  5
1F8
330
1F
100
AcDbEntity
  8
0
  6
Continuous
 62
     7
370
    15
100
AcDbLine
 10
348.0654541244
 20
1149.702811468
 30
0.0
 11
304.5400861491
 21
1149.5236399058
 31
0.0
  0
ARC
  5
1F9
330
1F
100
AcDbEntity
  8
0
  6
Continuous
 62
     7
370
    15
100
AcDbCircle
 10
304.5326613176
 20
1151.323627
 30
0.0
 40
1.800000000000269
100
AcDbArc
 50
234.4753000235
 51
270.2359156769
  0
ARC
  5
1FA
330
1F
100
AcDbEntity
  8
0
  6
Continuous
 62
     7
370
    15
100
AcDbCircle
 10
301.5431391893
 20
1147.1362910397
 30
0.0
 40
3.345000000000038
100
AcDbArc
 50
54.4753000235
 51
215.9454043733
  0
ARC
  5
1FB
330
1F
100
AcDbEntity
  8
0
  6
Continuous
 62
     7
370
    15
100
AcDbCircle
 10
297.3778670062
 20
1144.1161035222
 30
0.0
 40
1.800000000000154
100
AcDbArc
 50
0.0
 51
35.9454043733
  0
LINE
  5
1FC
330
1F
100
AcDbEntity
  8
0
  6
Continuous
 62
     7
370
    15
100
AcDbLine
 10
299.1778734912
 20
1144.1160681132
 30
0.0
 11
299.1778734912
 21
1136.5469934825
 31
0.0
  0
ARC
  5
1FD
330
1F
100
AcDbEntity
  8
0
  6
Continuous
 62
     7
370
    15
100
AcDbCircle
 10
297.3778670062
 20
1136.5470229233
 30
0.0
 40
1.800000000000239
100
AcDbArc
 50
324.0545956267
 51
0.0
  0
ARC
  5
1FE
330
1F
100
AcDbEntity
  8
0
  6
Continuous
 62
     7
370
    15
100
AcDbCircle
 10
301.5431391893
 20
1133.5268354058
 30
0.0
 40
3.345000000000091
100
AcDbArc
 50
144.0545956267
 51
305.5246999765
  0
ARC
  5
1FF
330
1F
100
AcDbEntity
  8
0
  6
Continuous
 62
     7
370
    15
100
AcDbCircle
 10
304.5326613176
 20
1129.3394994455
 30
0.0
 40
1.799999999999899
100
AcDbArc
 50
89.7640843231
 51
125.5246999765
  0
LINE
  5
200
330
1F
100
AcDbEntity
  8
0
  6
Continuous
 62
     7
370
    15
100
AcDbLine
 10
304.5400861491
 20
1131.1395408991
 30
0.0
 11
348.0654541244
 21
1130.9602501277
 31
0.0
  0
LINE
  5
201
330
1F
100
AcDbEntity
  8
0
  6
Continuous
 62
     7
370
    15
100
AcDbLine
 10
355.036604761
 20
1038.8695242289
 30
0.0
 11
355.036604761
 21
1123.9602806452
 31
0.0
  0
LINE
  5
202
330
1F
100
AcDbEntity
  8
0
  6
Continuous
 62
     7
370
    15
100
AcDbLine
 10
348.0654541244
 20
1031.8695547465
 30
0.0
 11
304.5400861491
 21
1031.690263975
 31
0.0
  0
ARC
  5
203
330
1F
100
AcDbEntity
  8
0
  6
Continuous
 62
     7
370
    15
100
AcDbCircle
 10
304.5326613176
 20
1033.4902936666
 30
0.0
 40
1.800000000000269
100
AcDbArc
 50
234.4753000235
 51
270.2359156769
  0
ARC
  5
204
330
1F
100
AcDbEntity
  8
0
  6
Continuous
 62
     7
370
    15
100
AcDbCircle
 10
301.5431391893
 20
1029.3029577063
 30
0.0
 40
3.345000000000038
100
AcDbArc
 50
54.4753000235
 51
215.9454043733
  0
ARC
  5
205
330
1F
100
AcDbEntity
  8
0
  6
Continuous
 62
     7
370
    15
100
AcDbCircle
 10
297.3778670062
 20
1026.2827701888
 30
0.0
 40
1.800000000000154
100
AcDbArc
 50
0.0
 51
35.9454043733
  0
LINE
  5
206
330
1F
100
AcDbEntity
  8
0
  6
Continuous
 62
     7
370
    15
100
AcDbLine
 10
299.1778734912
 20
1026.2828113917
 30
0.0
 11
299.1778734912
 21
1018.713736761
 31
0.0
  0
ARC
  5
207
330
1F
100
AcDbEntity
  8
0
  6
Continuous
 62
     7
370
    15
100
AcDbCircle
 10
297.3778670062
 20
1018.71368959
 30
0.0
 40
1.800000000000239
100
AcDbArc
 50
324.0545956267
 51
0.0
  0
ARC
  5
208
330
1F
100
AcDbEntity
  8
0
  6
Continuous
 62
     7
370
    15
100
AcDbCircle
 10
304.5326613176
 20
1011.5061661122
 30
0.0
 40
1.800000000000326
100
AcDbArc
 50
89.7640843231
 51
125.5246999765
  0
LINE
  5
209
330
1F
100
AcDbEntity
  8
0
  6
Continuous
 62
     7
370
    15
100
AcDbLine
 10
304.5400861491
 20
1013.3061649684
 30
0.0
 11
348.0654541244
 21
1013.1269934062
 31
0.0
  0
LINE
  5
20A
330
1F
100
AcDbEntity
  8
0
  6
Continuous
 62
     7
370
    15
100
AcDbLine
 10
355.036604761
 20
921.0361482981
 30
0.0
 11
355.036604761
 21
1006.1270239237
 31
0.0
  0
ARC
  5
20B
330
1F
100
AcDbEntity
  8
0
  6
Continuous
 62
     7
370
    15
100
AcDbCircle
 10
304.5326613176
 20
915.6569603333
 30
0.0
 40
1.800000000000098
100
AcDbArc
 50
234.4753000235
 51
270.2359156769
  0
ARC
  5
20C
330
1F
100
AcDbEntity
  8
0
  6
Continuous
 62
     7
370
    15
100
AcDbCircle
 10
301.5431391893
 20
911.469624373
 30
0.0
 40
3.344999999999998
100
AcDbArc
 50
54.4753000235
 51
215.9454043733
  0
ARC
  5
20D
330
1F
100
AcDbEntity
  8
0
  6
Continuous
 62
     7
370
    15
100
AcDbCircle
 10
297.3778670062
 20
908.4494368555
 30
0.0
 40
1.800000000000125
100
AcDbArc
 50
0.0
 51
35.9454043733
  0
LINE
  5
20E
330
1F
100
AcDbEntity
  8
0
  6
Continuous
 62
     7
370
    15
100
AcDbLine
 10
299.1778734912
 20
908.4494354609
 30
0.0
 11
299.1778734912
 21
900.8803608302
 31
0.0
  0
ARC
  5
20F
330
1F
100
AcDbEntity
  8
0
  6
Continuous
 62
     7
370
    15
100
AcDbCircle
 10
297.3778670062
 20
900.8803562567
 30
0.0
 40
1.800000000000239
100
AcDbArc
 50
324.0545956267
 51
0.0
  0
ARC
  5
210
330
1F
100
AcDbEntity
  8
0
  6
Continuous
 62
     7
370
    15
100
AcDbCircle
 10
301.5431391893
 20
897.8601687392
 30
0.0
 40
3.345000000000038
100
AcDbArc
 50
144.0545956267
 51
305.5246999765
  0
ARC
  5
211
330
1F
100
AcDbEntity
  8
0
  6
Continuous
 62
     7
370
    15
100
AcDbCircle
 10
304.5326613176
 20
893.6728327789
 30
0.0
 40
1.799999999999992
100
AcDbArc
 50
89.7640843231
 51
125.5246999765
  0
LINE
  5
212
330
1F
100
AcDbEntity
  8
0
  6
Continuous
 62
     7
370
    15
100
AcDbLine
 10
355.036604761
 20
803.2027723673
 30
0.0
 11
355.036604761
 21
888.293647993
 31
0.0
  0
LINE
  5
213
330
1F
100
AcDbEntity
  8
0
  6
Continuous
 62
     7
370
    15
100
AcDbLine
 10
348.0654541244
 20
796.2028624896
 30
0.0
 11
304.5400861491
 21
796.0236313227
 31
0.0
  0
ARC
  5
214
330
1F
100
AcDbEntity
  8
0
  6
Continuous
 62
     7
370
    15
100
AcDbCircle
 10
304.5326613176
 20
797.823627
 30
0.0
 40
1.799999999999992
100
AcDbArc
 50
234.4753000235
 51
270.2359156769
  0
ARC
  5
215
330
1F
100
AcDbEntity
  8
0
  6
Continuous
 62
     7
370
    15
100
AcDbCircle
 10
301.5431391893
 20
793.6362910397
 30
0.0
 40
3.345000000000038
100
AcDbArc
 50
54.4753000235
 51
215.9454043733
  0
ARC
  5
216
330
1F
100
AcDbEntity
  8
0
  6
Continuous
 62
     7
370
    15
100
AcDbCircle
 10
297.3778670062
 20
790.6161035222
 30
0.0
 40
1.800000000000125
100
AcDbArc
 50
0.0
 51
35.9454043733
  0
ARC
  5
217
330
1F
100
AcDbEntity
  8
0
  6
Continuous
 62
     7
370
    15
100
AcDbCircle
 10
297.3778670062
 20
783.0470229233
 30
0.0
 40
1.800000000000239
100
AcDbArc
 50
324.0545956267
 51
0.0
  0
ARC
  5
218
330
1F
100
AcDbEntity
  8
0
  6
Continuous
 62
     7
370
    15
100
AcDbCircle
 10
301.5431391893
 20
780.0268354058
 30
0.0
 40
3.344999999999998
100
AcDbArc
 50
144.0545956267
 51
305.5246999765
  0
ARC
  5
219
330
1F
100
AcDbEntity
  8
0
  6
Continuous
 62
     7
370
    15
100
AcDbCircle
 10
304.5326613176
 20
775.8394994455
 30
0.0
 40
1.800000000000098
100
AcDbArc
 50
89.7640843231
 51
125.5246999765
  0
LINE
  5
21A
330
1F
100
AcDbEntity
  8
0
  6
Continuous
 62
     7
370
    15
100
AcDbLine
 10
304.5400861491
 20
777.6394727114
 30
0.0
 11
348.0654541244
 21
777.4602415446
 31
0.0
  0
LINE
  5
21B
330
1F
100
AcDbEntity
  8
0
  6
Continuous
 62
     7
370
    15
100
AcDbLine
 10
355.036604761
 20
685.3694560412
 30
0.0
 11
355.036604761
 21
770.4603316668
 31
0.0
  0
ARC
  5
21C
330
1F
100
AcDbEntity
  8
0
  6
Continuous
 62
     7
370
    15
100
AcDbCircle
 10
348.0366170062
 20
567.5361331949
 30
0.0
 40
7.0
100
AcDbArc
 50
270.2359156769
 51
0.0
  0
LINE
  5
21D
330
1F
100
AcDbEntity
  8
0
  6
Continuous
 62
     7
370
    15
100
AcDbLine
 10
304.5400861491
 20
560.3569986704
 30
0.0
 11
348.0654541244
 21
560.5361702326
 31
0.0
  0
ARC
  5
21E
330
1F
100
AcDbEntity
  8
0
  6
Continuous
 62
     7
370
    15
100
AcDbCircle
 10
304.5326613176
 20
562.1569603333
 30
0.0
 40
1.799999999999926
100
AcDbArc
 50
234.4753000235
 51
270.2359156769
  0
ARC
  5
21F
330
1F
100
AcDbEntity
  8
0
  6
Continuous
 62
     7
370
    15
100
AcDbCircle
 10
301.5431391893
 20
557.969624373
 30
0.0
 40
3.345000000000038
100
AcDbArc
 50
54.4753000235
 51
215.9454043733
  0
ARC
  5
220
330
1F
100
AcDbEntity
  8
0
  6
Continuous
 62
     7
370
    15
100
AcDbCircle
 10
297.3778670062
 20
554.9494368555
 30
0.0
 40
1.800000000000182
100
AcDbArc
 50
0.0
 51
35.9454043733
  0
LINE
  5
221
330
1F
100
AcDbEntity
  8
0
  6
Continuous
 62
     7
370
    15
100
AcDbLine
 10
299.1778734912
 20
547.3803522471
 30
0.0
 11
299.1778734912
 21
554.9494268778
 31
0.0
  0
ARC
  5
222
330
1F
100
AcDbEntity
  8
0
  6
Continuous
 62
     7
370
    15
100
AcDbCircle
 10
297.3778670062
 20
547.3803562567
 30
0.0
 40
1.800000000000182
100
AcDbArc
 50
324.0545956267
 51
0.0
  0
ARC
  5
223
330
1F
100
AcDbEntity
  8
0
  6
Continuous
 62
     7
370
    15
100
AcDbCircle
 10
301.5431391893
 20
544.3601687392
 30
0.0
 40
3.345000000000065
100
AcDbArc
 50
144.0545956267
 51
305.5246999765
  0
ARC
  5
224
330
1F
100
AcDbEntity
  8
0
  6
Continuous
 62
     7
370
    15
100
AcDbCircle
 10
304.5326613176
 20
540.1728327789
 30
0.0
 40
1.799999999999985
100
AcDbArc
 50
89.7640843231
 51
125.5246999765
  0
LINE
  5
225
330
1F
100
AcDbEntity
  8
0
  6
Continuous
 62
     7
370
    15
100
AcDbLine
 10
348.0654541244
 20
541.7936088923
 30
0.0
 11
304.5400861491
 21
541.9728400591
 31
0.0
  0
ARC
  5
226
330
1F
100
AcDbEntity
  8
0
  6
Continuous
 62
     7
370
    15
100
AcDbCircle
 10
348.0366170062
 20
534.7936599173
 30
0.0
 40
7.0
100
AcDbArc
 50
0.0
 51
89.7640843231
  0
LINE
  5
227
330
1F
100
AcDbEntity
  8
0
  6
Continuous
 62
     7
370
    15
100
AcDbLine
 10
304.5400861491
 20
895.4727890376
 30
0.0
 11
348.0654541244
 21
895.2936174754
 31
0.0
  0
LINE
  5
228
330
1F
100
AcDbEntity
  8
0
  6
Continuous
 62
     7
370
    15
100
AcDbLine
 10
355.036604761
 20
534.7936394099
 30
0.0
 11
355.036604761
 21
449.7027935866
 31
0.0
  0
LINE
  5
229
330
1F
100
AcDbEntity
  8
0
  6
Continuous
 62
     7
370
    15
100
AcDbLine
 10
355.036604761
 20
652.6270153407
 30
0.0
 11
355.036604761
 21
567.5361397151
 31
0.0
  0
LINE
  5
22A
330
1F
100
AcDbEntity
  8
0
  6
Continuous
 62
     7
370
    15
100
AcDbLine
 10
348.0654541244
 20
423.9602627638
 30
0.0
 11
304.5400861491
 21
424.1394939307
 31
0.0
  0
ARC
  5
22B
330
1F
100
AcDbEntity
  8
0
  6
Continuous
 62
     7
370
    15
100
AcDbCircle
 10
301.5431391893
 20
1015.6935020725
 30
0.0
 40
3.345000000000038
100
AcDbArc
 50
144.0545956267
 51
305.5246999765
  0
LINE
  5
22C
330
1F
100
AcDbEntity
  8
0
  6
Continuous
 62
     7
370
    15
100
AcDbLine
 10
304.5400861491
 20
324.6903064135
 30
0.0
 11
348.0654541244
 21
324.8695375804
 31
0.0
  0
ARC
  5
22D
330
1F
100
AcDbEntity
  8
0
  6
Continuous
 62
     7
370
    15
100
AcDbCircle
 10
348.0366170062
 20
1193.3315632228
 30
0.0
 40
7.0
100
AcDbArc
 50
0.0
 51
90.0
  0
LINE
  5
22E
330
1F
100
AcDbEntity
  8
0
  6
Continuous
 62
     7
370
    15
100
AcDbLine
 10
299.1778734912
 20
193.8803585652
 30
0.0
 11
299.1778734912
 21
201.4494331959
 31
0.0
  0
ARC
  5
22F
330
1F
100
AcDbEntity
  8
0
  6
Continuous
 62
     7
370
    15
100
AcDbCircle
 10
348.0366170062
 20
1006.1269932506
 30
0.0
 40
6.999999999999886
100
AcDbArc
 50
0.0
 51
89.7640843231
  0
ARC
  5
230
330
1F
100
AcDbEntity
  8
0
  6
Continuous
 62
     7
370
    15
100
AcDbCircle
 10
348.0366170062
 20
888.2936599173
 30
0.0
 40
7.000000000000105
100
AcDbArc
 50
0.0
 51
89.7640843231
  0
ARC
  5
231
330
1F
100
AcDbEntity
  8
0
  6
Continuous
 62
     7
370
    15
100
AcDbCircle
 10
348.0366170062
 20
770.460326584
 30
0.0
 40
7.000000000000105
100
AcDbArc
 50
0.0
 51
89.7640843231
  0
ARC
  5
232
330
1F
100
AcDbEntity
  8
0
  6
Continuous
 62
     7
370
    15
100
AcDbCircle
 10
348.0366170062
 20
652.6269932506
 30
0.0
 40
7.0
100
AcDbArc
 50
0.0
 51
89.7640843231
  0
ARC
  5
233
330
1F
100
AcDbEntity
  8
0
  6
Continuous
 62
     7
370
    15
100
AcDbCircle
 10
189.2603670062
 20
1144.1161035222
 30
0.0
 40
1.8000000000002
100
AcDbArc
 50
144.0545956267
 51
180.0
  0
ARC
  5
234
330
1F
100
AcDbEntity
  8
0
  6
Continuous
 62
     7
370
    15
100
AcDbCircle
 10
26.8841170062
 20
1123.9411641962
 30
0.0
 40
7.000000000000114
100
AcDbArc
 50
90.078638954
 51
180.0
  0
ARC
  5
235
330
1F
100
AcDbEntity
  8
0
  6
Continuous
 62
     7
370
    15
100
AcDbCircle
 10
26.8841170062
 20
1156.7219622493
 30
0.0
 40
6.999999999999893
100
AcDbArc
 50
180.0
 51
269.921361046
  0
ARC
  5
236
330
1F
100
AcDbEntity
  8
0
  6
Continuous
 62
     7
370
    15
100
AcDbCircle
 10
348.0366170062
 20
1156.7027998615
 30
0.0
 40
6.999999999999886
100
AcDbArc
 50
270.2359156769
 51
0.0
  0
ARC
  5
237
330
1F
100
AcDbEntity
  8
0
  6
Continuous
 62
     7
370
    15
100
AcDbCircle
 10
348.0366170062
 20
1038.8694665282
 30
0.0
 40
6.999999999999991
100
AcDbArc
 50
270.2359156769
 51
0.0
  0
ARC
  5
238
330
1F
100
AcDbEntity
  8
0
  6
Continuous
 62
     7
370
    15
100
AcDbCircle
 10
348.0366170062
 20
921.0361331949
 30
0.0
 40
6.999999999999886
100
AcDbArc
 50
270.2359156769
 51
0.0
  0
ARC
  5
239
330
1F
100
AcDbEntity
  8
0
  6
Continuous
 62
     7
370
    15
100
AcDbCircle
 10
348.0366170062
 20
803.2027998615
 30
0.0
 40
7.000000000000105
100
AcDbArc
 50
270.2359156769
 51
0.0
  0
ARC
  5
23A
330
1F
100
AcDbEntity
  8
0
  6
Continuous
 62
     7
370
    15
100
AcDbCircle
 10
304.5326613176
 20
679.9902936666
 30
0.0
 40
1.800000000000018
100
AcDbArc
 50
234.4753000235
 51
270.2359156769
  0
LINE
  5
23B
330
1F
100
AcDbEntity
  8
0
  6
Continuous
 62
     7
370
    15
100
AcDbLine
 10
304.5400861491
 20
659.8061563853
 30
0.0
 11
348.0654541244
 21
659.6269252184
 31
0.0
  0
ARC
  5
23C
330
1F
100
AcDbEntity
  8
0
  6
Continuous
 62
     7
370
    15
100
AcDbCircle
 10
304.5326613176
 20
658.0061661122
 30
0.0
 40
1.799999999999985
100
AcDbArc
 50
89.7640843231
 51
125.5246999765
  0
ARC
  5
23D
330
1F
100
AcDbEntity
  8
0
  6
Continuous
 62
     7
370
    15
100
AcDbCircle
 10
185.0950948231
 20
86.6362910397
 30
0.0
 40
3.345000000000007
100
AcDbArc
 50
324.0545956267
 51
125.8051756194
  0
ARC
  5
23E
330
1F
100
AcDbEntity
  8
0
  6
Continuous
 62
     7
370
    15
100
AcDbCircle
 10
297.3778670062
 20
665.21368959
 30
0.0
 40
1.800000000000182
100
AcDbArc
 50
324.0545956267
 51
0.0
  0
LINE
  5
23F
330
1F
100
AcDbEntity
  8
0
  6
Continuous
 62
     7
370
    15
100
AcDbLine
 10
299.1778734912
 20
790.6161191348
 30
0.0
 11
299.1778734912
 21
783.047044504
 31
0.0
  0
LINE
  5
240
330
1F
100
AcDbEntity
  8
0
  6
Continuous
 62
     7
370
    15
100
AcDbLine
 10
348.0654541244
 20
678.3695461634
 30
0.0
 11
304.5400861491
 21
678.1903149966
 31
0.0
  0
LINE
  5
241
330
1F
100
AcDbEntity
  8
0
  6
Continuous
 62
     7
370
    15
100
AcDbLine
 10
299.1778734912
 20
672.782743204
 30
0.0
 11
299.1778734912
 21
665.2136685732
 31
0.0
  0
ARC
  5
242
330
1F
100
AcDbEntity
  8
0
  6
Continuous
 62
     7
370
    15
100
AcDbCircle
 10
297.3778670062
 20
201.4494368555
 30
0.0
 40
1.800000000000068
100
AcDbArc
 50
0.0
 51
35.9454043733
  0
ARC
  5
243
330
1F
100
AcDbEntity
  8
0
  6
Continuous
 62
     7
370
    15
100
AcDbCircle
 10
26.8841170062
 20
1193.3315632228
 30
0.0
 40
7.0
100
AcDbArc
 50
90.0
 51
180.0
  0
ARC
  5
244
330
1F
100
AcDbEntity
  8
0
  6
Continuous
 62
     7
370
    15
100
AcDbCircle
 10
297.3778670062
 20
672.7827701888
 30
0.0
 40
1.800000000000182
100
AcDbArc
 50
0.0
 51
35.9454043733
  0
ARC
  5
245
330
1F
100
AcDbEntity
  8
0
  6
Continuous
 62
     7
370
    15
100
AcDbCircle
 10
348.0366170062
 20
685.3694665282
 30
0.0
 40
7.000000000000105
100
AcDbArc
 50
270.2359156769
 51
0.0
  0
ARC
  5
246
330
1F
100
AcDbEntity
  8
0
  6
Continuous
 62
     7
370
    15
100
AcDbCircle
 10
301.5431391893
 20
662.1935020725
 30
0.0
 40
3.345000000000038
100
AcDbArc
 50
144.0545956267
 51
305.5246999765
  0
LINE
  5
247
330
1F
100
AcDbEntity
  8
0
  6
Continuous
 62
     7
370
    15
100
AcDbLine
 10
355.036604761
 20
1156.7027809504
 30
0.0
 11
355.036604761
 21
1193.3315040949
 31
0.0
  0
ARC
  5
248
330
1F
100
AcDbEntity
  8
0
  6
Continuous
 62
     7
370
    15
100
AcDbCircle
 10
301.5431391893
 20
675.8029577063
 30
0.0
 40
3.344999999999972
100
AcDbArc
 50
54.4753000235
 51
215.9454043733
  0
ARC
  5
249
330
1F
100
AcDbEntity
  8
0
  6
Continuous
 62
     7
370
    15
100
AcDbCircle
 10
348.0366170062
 20
1123.960326584
 30
0.0
 40
7.000000000000446
100
AcDbArc
 50
0.0
 51
89.7640843231
  0
LINE
  5
24A
330
1F
100
AcDbEntity
  8
0
  6
Continuous
 62
     7
370
    15
100
AcDbLine
 10
348.0654541244
 20
914.0361788157
 30
0.0
 11
304.5400861491
 21
913.8569476489
 31
0.0
  0
ARC
  5
24B
330
1F
100
AcDbEntity
  8
0
  6
Continuous
 62
     7
370
    15
100
AcDbCircle
 10
959.6241170062
 20
416.960326584
 30
0.0
 40
7.000000000000048
100
AcDbArc
 50
0.0
 51
89.7640843231
  0
ARC
  5
24C
330
1F
100
AcDbEntity
  8
0
  6
Continuous
 62
     7
370
    15
100
AcDbCircle
 10
638.4716170062
 20
26.8315632228
 30
0.0
 40
7.000000000000007
100
AcDbArc
 50
180.0
 51
270.0
  0
ARC
  5
24D
330
1F
100
AcDbEntity
  8
0
  6
Continuous
 62
     7
370
    15
100
AcDbCircle
 10
959.6241170062
 20
567.5361331949
 30
0.0
 40
7.0
100
AcDbArc
 50
270.2359156769
 51
0.0
  0
LINE
  5
24E
330
1F
100
AcDbEntity
  8
0
  6
Continuous
 62
     7
370
    15
100
AcDbLine
 10
916.1275509585
 20
560.3569986704
 30
0.0
 11
959.6529487361
 21
560.5361702326
 31
0.0
  0
ARC
  5
24F
330
1F
100
AcDbEntity
  8
0
  6
Continuous
 62
     7
370
    15
100
AcDbCircle
 10
916.1201613176
 20
562.1569603333
 30
0.0
 40
1.800000000000025
100
AcDbArc
 50
234.4753000235
 51
270.2359156769
  0
ARC
  5
250
330
1F
100
AcDbEntity
  8
0
  6
Continuous
 62
     7
370
    15
100
AcDbCircle
 10
913.1306391893
 20
557.969624373
 30
0.0
 40
3.344999999999993
100
AcDbArc
 50
54.4753000235
 51
215.9454043733
  0
LINE
  5
251
330
1F
100
AcDbEntity
  8
0
  6
Continuous
 62
     7
370
    15
100
AcDbLine
 10
910.7653383006
 20
547.3803522471
 30
0.0
 11
910.7653383006
 21
554.9494268778
 31
0.0
  0
LINE
  5
252
330
1F
100
AcDbEntity
  8
0
  6
Continuous
 62
     7
370
    15
100
AcDbLine
 10
966.6241291751
 20
534.7936394099
 30
0.0
 11
966.6241291751
 21
449.7027935866
 31
0.0
  0
ARC
  5
253
330
1F
100
AcDbEntity
  8
0
  6
Continuous
 62
     7
370
    15
100
AcDbCircle
 10
913.1306391893
 20
544.3601687392
 30
0.0
 40
3.344999999999998
100
AcDbArc
 50
144.0545956267
 51
305.5246999765
  0
LINE
  5
254
330
1F
100
AcDbEntity
  8
0
  6
Continuous
 62
     7
370
    15
100
AcDbLine
 10
910.7653383006
 20
429.547035921
 30
0.0
 11
910.7653383006
 21
437.1161105517
 31
0.0
  0
LINE
  5
255
330
1F
100
AcDbEntity
  8
0
  6
Continuous
 62
     7
370
    15
100
AcDbLine
 10
966.6241291751
 20
652.6270153407
 30
0.0
 11
966.6241291751
 21
567.5361397151
 31
0.0
  0
ARC
  5
256
330
1F
100
AcDbEntity
  8
0
  6
Continuous
 62
     7
370
    15
100
AcDbCircle
 10
913.1306391893
 20
426.5268354058
 30
0.0
 40
3.344999999999998
100
AcDbArc
 50
144.0545956267
 51
305.5246999765
  0
ARC
  5
257
330
1F
100
AcDbEntity
  8
0
  6
Continuous
 62
     7
370
    15
100
AcDbCircle
 10
916.1201613176
 20
422.3394994455
 30
0.0
 40
1.800000000000025
100
AcDbArc
 50
89.7640843231
 51
125.5246999765
  0
LINE
  5
258
330
1F
100
AcDbEntity
  8
0
  6
Continuous
 62
     7
370
    15
100
AcDbLine
 10
959.6529487361
 20
423.9602627638
 30
0.0
 11
916.1275509585
 21
424.1394939307
 31
0.0
  0
ARC
  5
259
330
1F
100
AcDbEntity
  8
0
  6
Continuous
 62
     7
370
    15
100
AcDbCircle
 10
908.9653670062
 20
547.3803562567
 30
0.0
 40
1.800000000000112
100
AcDbArc
 50
324.0545956267
 51
0.0
  0
ARC
  5
25A
330
1F
100
AcDbEntity
  8
0
  6
Continuous
 62
     7
370
    15
100
AcDbCircle
 10
916.1201613176
 20
444.323627
 30
0.0
 40
1.800000000000071
100
AcDbArc
 50
234.4753000235
 51
270.2359156769
  0
ARC
  5
25B
330
1F
100
AcDbEntity
  8
0
  6
Continuous
 62
     7
370
    15
100
AcDbCircle
 10
916.1201613176
 20
540.1728327789
 30
0.0
 40
1.800000000000025
100
AcDbArc
 50
89.7640843231
 51
125.5246999765
  0
ARC
  5
25C
330
1F
100
AcDbEntity
  8
0
  6
Continuous
 62
     7
370
    15
100
AcDbCircle
 10
908.9653670062
 20
437.1161035222
 30
0.0
 40
1.800000000000182
100
AcDbArc
 50
0.0
 51
35.9454043733
  0
ARC
  5
25D
330
1F
100
AcDbEntity
  8
0
  6
Continuous
 62
     7
370
    15
100
AcDbCircle
 10
959.6241170062
 20
449.7027998615
 30
0.0
 40
7.0
100
AcDbArc
 50
270.2359156769
 51
0.0
  0
ARC
  5
25E
330
1F
100
AcDbEntity
  8
0
  6
Continuous
 62
     7
370
    15
100
AcDbCircle
 10
908.9653670062
 20
311.71368959
 30
0.0
 40
1.800000000000146
100
AcDbArc
 50
324.0545956267
 51
0.0
  0
ARC
  5
25F
330
1F
100
AcDbEntity
  8
0
  6
Continuous
 62
     7
370
    15
100
AcDbCircle
 10
913.1306391893
 20
308.6935020725
 30
0.0
 40
3.344999999999959
100
AcDbArc
 50
144.0545956267
 51
305.5246999765
  0
ARC
  5
260
330
1F
100
AcDbEntity
  8
0
  6
Continuous
 62
     7
370
    15
100
AcDbCircle
 10
638.4716170062
 20
96.2219622493
 30
0.0
 40
7.000000000000038
100
AcDbArc
 50
180.0
 51
269.921361046
  0
ARC
  5
261
330
1F
100
AcDbEntity
  8
0
  6
Continuous
 62
     7
370
    15
100
AcDbCircle
 10
908.9653670062
 20
554.9494368555
 30
0.0
 40
1.800000000000182
100
AcDbArc
 50
0.0
 51
35.9454043733
  0
ARC
  5
262
330
1F
100
AcDbEntity
  8
0
  6
Continuous
 62
     7
370
    15
100
AcDbCircle
 10
959.6241170062
 20
63.460326584
 30
0.0
 40
7.000000000000027
100
AcDbArc
 50
0.0
 51
89.7640843231
  0
ARC
  5
263
330
1F
100
AcDbEntity
  8
0
  6
Continuous
 62
     7
370
    15
100
AcDbCircle
 10
959.6241170062
 20
181.2936599173
 30
0.0
 40
7.00000000000002
100
AcDbArc
 50
0.0
 51
89.7640843231
  0
ARC
  5
264
330
1F
100
AcDbEntity
  8
0
  6
Continuous
 62
     7
370
    15
100
AcDbCircle
 10
959.6241170062
 20
299.1269932506
 30
0.0
 40
7.0
100
AcDbArc
 50
0.0
 51
89.7640843231
  0
LINE
  5
265
330
1F
100
AcDbEntity
  8
0
  6
Continuous
 62
     7
370
    15
100
AcDbLine
 10
959.624100088
 20
19.8315641317
 30
0.0
 11
638.4715918292
 21
19.8315641317
 31
0.0
  0
LINE
  5
266
330
1F
100
AcDbEntity
  8
0
  6
Continuous
 62
     7
370
    15
100
AcDbLine
 10
631.4716223468
 20
26.8315634165
 30
0.0
 11
631.4716223468
 21
63.4411665085
 31
0.0
  0
LINE
  5
267
330
1F
100
AcDbEntity
  8
0
  6
Continuous
 62
     7
370
    15
100
AcDbLine
 10
966.6241291751
 20
63.4603294018
 30
0.0
 11
966.6241291751
 21
26.8315634165
 31
0.0
  0
LINE
  5
268
330
1F
100
AcDbEntity
  8
0
  6
Continuous
 62
     7
370
    15
100
AcDbLine
 10
966.6241291751
 20
181.2936606291
 30
0.0
 11
966.6241291751
 21
96.2027999047
 31
0.0
  0
LINE
  5
269
330
1F
100
AcDbEntity
  8
0
  6
Continuous
 62
     7
370
    15
100
AcDbLine
 10
966.6241291751
 20
299.1270067576
 30
0.0
 11
966.6241291751
 21
214.036131132
 31
0.0
  0
LINE
  5
26A
330
1F
100
AcDbEntity
  8
0
  6
Continuous
 62
     7
370
    15
100
AcDbLine
 10
959.6529487361
 20
541.7936088923
 30
0.0
 11
916.1275509585
 21
541.9728400591
 31
0.0
  0
ARC
  5
26B
330
1F
100
AcDbEntity
  8
0
  6
Continuous
 62
     7
370
    15
100
AcDbCircle
 10
913.1306391893
 20
440.1362910397
 30
0.0
 40
3.344999999999959
100
AcDbArc
 50
54.4753000235
 51
215.9454043733
  0
ARC
  5
26C
330
1F
100
AcDbEntity
  8
0
  6
Continuous
 62
     7
370
    15
100
AcDbCircle
 10
638.4716170062
 20
63.4411641962
 30
0.0
 40
7.000000000000038
100
AcDbArc
 50
90.078638954
 51
180.0
  0
ARC
  5
26D
330
1F
100
AcDbEntity
  8
0
  6
Continuous
 62
     7
370
    15
100
AcDbCircle
 10
959.6241170062
 20
534.7936599173
 30
0.0
 40
7.0
100
AcDbArc
 50
0.0
 51
89.7640843231
  0
LINE
  5
26E
330
1F
100
AcDbEntity
  8
0
  6
Continuous
 62
     7
370
    15
100
AcDbLine
 10
966.6241291751
 20
416.9603230837
 30
0.0
 11
966.6241291751
 21
331.8694772605
 31
0.0
  0
ARC
  5
26F
330
1F
100
AcDbEntity
  8
0
  6
Continuous
 62
     7
370
    15
100
AcDbCircle
 10
908.9653670062
 20
429.5470229233
 30
0.0
 40
1.800000000000112
100
AcDbArc
 50
324.0545956267
 51
0.0
  0
LINE
  5
270
330
1F
100
AcDbEntity
  8
0
  6
Continuous
 62
     7
370
    15
100
AcDbLine
 10
910.7653383006
 20
311.7136897925
 30
0.0
 11
910.7653383006
 21
319.2827644232
 31
0.0
  0
ARC
  5
271
330
1F
100
AcDbEntity
  8
0
  6
Continuous
 62
     7
370
    15
100
AcDbCircle
 10
959.6241170062
 20
1193.3315632228
 30
0.0
 40
7.000000000000114
100
AcDbArc
 50
0.0
 51
90.0
  0
ARC
  5
272
330
1F
100
AcDbEntity
  8
0
  6
Continuous
 62
     7
370
    15
100
AcDbCircle
 10
959.6241170062
 20
1123.960326584
 30
0.0
 40
7.000000000000446
100
AcDbArc
 50
0.0
 51
89.7640843231
  0
ARC
  5
273
330
1F
100
AcDbEntity
  8
0
  6
Continuous
 62
     7
370
    15
100
AcDbCircle
 10
959.6241170062
 20
1006.1269932506
 30
0.0
 40
7.000000000000114
100
AcDbArc
 50
0.0
 51
89.7640843231
  0
ARC
  5
274
330
1F
100
AcDbEntity
  8
0
  6
Continuous
 62
     7
370
    15
100
AcDbCircle
 10
959.6241170062
 20
888.2936599173
 30
0.0
 40
7.000000000000114
100
AcDbArc
 50
0.0
 51
89.7640843231
  0
ARC
  5
275
330
1F
100
AcDbEntity
  8
0
  6
Continuous
 62
     7
370
    15
100
AcDbCircle
 10
959.6241170062
 20
652.6269932506
 30
0.0
 40
7.0
100
AcDbArc
 50
0.0
 51
89.7640843231
  0
ARC
  5
276
330
1F
100
AcDbEntity
  8
0
  6
Continuous
 62
     7
370
    15
100
AcDbCircle
 10
638.4716170062
 20
1193.3315632228
 30
0.0
 40
7.0
100
AcDbArc
 50
90.0
 51
180.0
  0
ARC
  5
277
330
1F
100
AcDbEntity
  8
0
  6
Continuous
 62
     7
370
    15
100
AcDbCircle
 10
638.4716170062
 20
1123.9411641962
 30
0.0
 40
7.000000000000067
100
AcDbArc
 50
90.078638954
 51
180.0
  0
ARC
  5
278
330
1F
100
AcDbEntity
  8
0
  6
Continuous
 62
     7
370
    15
100
AcDbCircle
 10
638.4716170062
 20
1156.7219622493
 30
0.0
 40
7.0
100
AcDbArc
 50
180.0
 51
269.921361046
  0
ARC
  5
279
330
1F
100
AcDbEntity
  8
0
  6
Continuous
 62
     7
370
    15
100
AcDbCircle
 10
959.6241170062
 20
1156.7027998615
 30
0.0
 40
7.000000000000114
100
AcDbArc
 50
270.2359156769
 51
0.0
  0
ARC
  5
27A
330
1F
100
AcDbEntity
  8
0
  6
Continuous
 62
     7
370
    15
100
AcDbCircle
 10
959.6241170062
 20
1038.8694665282
 30
0.0
 40
7.000000000000114
100
AcDbArc
 50
270.2359156769
 51
0.0
  0
ARC
  5
27B
330
1F
100
AcDbEntity
  8
0
  6
Continuous
 62
     7
370
    15
100
AcDbCircle
 10
959.6241170062
 20
921.0361331949
 30
0.0
 40
7.000000000000114
100
AcDbArc
 50
270.2359156769
 51
0.0
  0
ARC
  5
27C
330
1F
100
AcDbEntity
  8
0
  6
Continuous
 62
     7
370
    15
100
AcDbCircle
 10
959.6241170062
 20
803.2027998615
 30
0.0
 40
7.000000000000114
100
AcDbArc
 50
270.2359156769
 51
0.0
  0
ARC
  5
27D
330
1F
100
AcDbEntity
  8
0
  6
Continuous
 62
     7
370
    15
100
AcDbCircle
 10
959.6241170062
 20
685.3694665282
 30
0.0
 40
7.000000000000105
100
AcDbArc
 50
270.2359156769
 51
0.0
  0
LINE
  5
27E
330
1F
100
AcDbEntity
  8
0
  6
Continuous
 62
     7
370
    15
100
AcDbLine
 10
910.7653383006
 20
672.782743204
 30
0.0
 11
910.7653383006
 21
665.2136685732
 31
0.0
  0
ARC
  5
27F
330
1F
100
AcDbEntity
  8
0
  6
Continuous
 62
     7
370
    15
100
AcDbCircle
 10
908.9653670062
 20
672.7827701888
 30
0.0
 40
1.800000000000112
100
AcDbArc
 50
0.0
 51
35.9454043733
  0
ARC
  5
280
330
1F
100
AcDbEntity
  8
0
  6
Continuous
 62
     7
370
    15
100
AcDbCircle
 10
913.1306391893
 20
675.8029577063
 30
0.0
 40
3.344999999999926
100
AcDbArc
 50
54.4753000235
 51
215.9454043733
  0
ARC
  5
281
330
1F
100
AcDbEntity
  8
0
  6
Continuous
 62
     7
370
    15
100
AcDbCircle
 10
916.1201613176
 20
679.9902936666
 30
0.0
 40
1.800000000000118
100
AcDbArc
 50
234.4753000235
 51
270.2359156769
  0
LINE
  5
282
330
1F
100
AcDbEntity
  8
0
  6
Continuous
 62
     7
370
    15
100
AcDbLine
 10
959.6529487361
 20
678.3695461634
 30
0.0
 11
916.1275509585
 21
678.1903149966
 31
0.0
  0
LINE
  5
283
330
1F
100
AcDbEntity
  8
0
  6
Continuous
 62
     7
370
    15
100
AcDbLine
 10
916.1275509585
 20
659.8061563853
 30
0.0
 11
959.6529487361
 21
659.6269252184
 31
0.0
  0
ARC
  5
284
330
1F
100
AcDbEntity
  8
0
  6
Continuous
 62
     7
370
    15
100
AcDbCircle
 10
916.1201613176
 20
658.0061661122
 30
0.0
 40
1.800000000000025
100
AcDbArc
 50
89.7640843231
 51
125.5246999765
  0
ARC
  5
285
330
1F
100
AcDbEntity
  8
0
  6
Continuous
 62
     7
370
    15
100
AcDbCircle
 10
913.1306391893
 20
662.1935020725
 30
0.0
 40
3.344999999999993
100
AcDbArc
 50
144.0545956267
 51
305.5246999765
  0
ARC
  5
286
330
1F
100
AcDbEntity
  8
0
  6
Continuous
 62
     7
370
    15
100
AcDbCircle
 10
908.9653670062
 20
665.21368959
 30
0.0
 40
1.800000000000182
100
AcDbArc
 50
324.0545956267
 51
0.0
  0
LINE
  5
287
330
1F
100
AcDbEntity
  8
0
  6
Continuous
 62
     7
370
    15
100
AcDbLine
 10
910.7653383006
 20
790.6161191348
 30
0.0
 11
910.7653383006
 21
783.047044504
 31
0.0
  0
ARC
  5
288
330
1F
100
AcDbEntity
  8
0
  6
Continuous
 62
     7
370
    15
100
AcDbCircle
 10
908.9653670062
 20
790.6161035222
 30
0.0
 40
1.800000000000068
100
AcDbArc
 50
0.0
 51
35.9454043733
  0
ARC
  5
289
330
1F
100
AcDbEntity
  8
0
  6
Continuous
 62
     7
370
    15
100
AcDbCircle
 10
913.1306391893
 20
793.6362910397
 30
0.0
 40
3.345000000000065
100
AcDbArc
 50
54.4753000235
 51
215.9454043733
  0
ARC
  5
28A
330
1F
100
AcDbEntity
  8
0
  6
Continuous
 62
     7
370
    15
100
AcDbCircle
 10
916.1201613176
 20
797.823627
 30
0.0
 40
1.799999999999984
100
AcDbArc
 50
234.4753000235
 51
270.2359156769
  0
LINE
  5
28B
330
1F
100
AcDbEntity
  8
0
  6
Continuous
 62
     7
370
    15
100
AcDbLine
 10
959.6529487361
 20
796.2028624896
 30
0.0
 11
916.1275509585
 21
796.0236313227
 31
0.0
  0
LINE
  5
28C
330
1F
100
AcDbEntity
  8
0
  6
Continuous
 62
     7
370
    15
100
AcDbLine
 10
916.1275509585
 20
777.6394727114
 30
0.0
 11
959.6529487361
 21
777.4602415446
 31
0.0
  0
ARC
  5
28D
330
1F
100
AcDbEntity
  8
0
  6
Continuous
 62
     7
370
    15
100
AcDbCircle
 10
916.1201613176
 20
775.8394994455
 30
0.0
 40
1.800000000000098
100
AcDbArc
 50
89.7640843231
 51
125.5246999765
  0
ARC
  5
28E
330
1F
100
AcDbEntity
  8
0
  6
Continuous
 62
     7
370
    15
100
AcDbCircle
 10
913.1306391893
 20
780.0268354058
 30
0.0
 40
3.345000000000065
100
AcDbArc
 50
144.0545956267
 51
305.5246999765
  0
ARC
  5
28F
330
1F
100
AcDbEntity
  8
0
  6
Continuous
 62
     7
370
    15
100
AcDbCircle
 10
908.9653670062
 20
783.0470229233
 30
0.0
 40
1.800000000000087
100
AcDbArc
 50
324.0545956267
 51
0.0
  0
LINE
  5
290
330
1F
100
AcDbEntity
  8
0
  6
Continuous
 62
     7
370
    15
100
AcDbLine
 10
910.7653383006
 20
908.4494354609
 30
0.0
 11
910.7653383006
 21
900.8803608302
 31
0.0
  0
ARC
  5
291
330
1F
100
AcDbEntity
  8
0
  6
Continuous
 62
     7
370
    15
100
AcDbCircle
 10
908.9653670062
 20
908.4494368555
 30
0.0
 40
1.800000000000087
100
AcDbArc
 50
0.0
 51
35.9454043733
  0
ARC
  5
292
330
1F
100
AcDbEntity
  8
0
  6
Continuous
 62
     7
370
    15
100
AcDbCircle
 10
913.1306391893
 20
911.469624373
 30
0.0
 40
3.345000000000065
100
AcDbArc
 50
54.4753000235
 51
215.9454043733
  0
ARC
  5
293
330
1F
100
AcDbEntity
  8
0
  6
Continuous
 62
     7
370
    15
100
AcDbCircle
 10
916.1201613176
 20
915.6569603333
 30
0.0
 40
1.800000000000098
100
AcDbArc
 50
234.4753000235
 51
270.2359156769
  0
LINE
  5
294
330
1F
100
AcDbEntity
  8
0
  6
Continuous
 62
     7
370
    15
100
AcDbLine
 10
959.6529487361
 20
914.0361788157
 30
0.0
 11
916.1275509585
 21
913.8569476489
 31
0.0
  0
LINE
  5
295
330
1F
100
AcDbEntity
  8
0
  6
Continuous
 62
     7
370
    15
100
AcDbLine
 10
916.1275509585
 20
895.4727890376
 30
0.0
 11
959.6529487361
 21
895.2936174754
 31
0.0
  0
ARC
  5
296
330
1F
100
AcDbEntity
  8
0
  6
Continuous
 62
     7
370
    15
100
AcDbCircle
 10
916.1201613176
 20
893.6728327789
 30
0.0
 40
1.799999999999959
100
AcDbArc
 50
89.7640843231
 51
125.5246999765
  0
ARC
  5
297
330
1F
100
AcDbEntity
  8
0
  6
Continuous
 62
     7
370
    15
100
AcDbCircle
 10
913.1306391893
 20
897.8601687392
 30
0.0
 40
3.344999999999993
100
AcDbArc
 50
144.0545956267
 51
305.5246999765
  0
ARC
  5
298
330
1F
100
AcDbEntity
  8
0
  6
Continuous
 62
     7
370
    15
100
AcDbCircle
 10
908.9653670062
 20
900.8803562567
 30
0.0
 40
1.800000000000068
100
AcDbArc
 50
324.0545956267
 51
0.0
  0
ARC
  5
299
330
1F
100
AcDbEntity
  8
0
  6
Continuous
 62
     7
370
    15
100
AcDbCircle
 10
908.9653670062
 20
1026.2827701888
 30
0.0
 40
1.800000000000154
100
AcDbArc
 50
0.0
 51
35.9454043733
  0
ARC
  5
29A
330
1F
100
AcDbEntity
  8
0
  6
Continuous
 62
     7
370
    15
100
AcDbCircle
 10
913.1306391893
 20
1029.3029577063
 30
0.0
 40
3.344999999999993
100
AcDbArc
 50
54.4753000235
 51
215.9454043733
  0
ARC
  5
29B
330
1F
100
AcDbEntity
  8
0
  6
Continuous
 62
     7
370
    15
100
AcDbCircle
 10
916.1201613176
 20
1033.4902936666
 30
0.0
 40
1.800000000000237
100
AcDbArc
 50
234.4753000235
 51
270.2359156769
  0
LINE
  5
29C
330
1F
100
AcDbEntity
  8
0
  6
Continuous
 62
     7
370
    15
100
AcDbLine
 10
959.6529487361
 20
1031.8695547465
 30
0.0
 11
916.1275509585
 21
1031.690263975
 31
0.0
  0
LINE
  5
29D
330
1F
100
AcDbEntity
  8
0
  6
Continuous
 62
     7
370
    15
100
AcDbLine
 10
916.1275509585
 20
1013.3061649684
 30
0.0
 11
959.6529487361
 21
1013.1269934062
 31
0.0
  0
ARC
  5
29E
330
1F
100
AcDbEntity
  8
0
  6
Continuous
 62
     7
370
    15
100
AcDbCircle
 10
916.1201613176
 20
1011.5061661122
 30
0.0
 40
1.800000000000325
100
AcDbArc
 50
89.7640843231
 51
125.5246999765
  0
ARC
  5
29F
330
1F
100
AcDbEntity
  8
0
  6
Continuous
 62
     7
370
    15
100
AcDbCircle
 10
913.1306391893
 20
1015.6935020725
 30
0.0
 40
3.344999999999993
100
AcDbArc
 50
144.0545956267
 51
305.5246999765
  0
LINE
  5
2A0
330
1F
100
AcDbEntity
  8
0
  6
Continuous
 62
     7
370
    15
100
AcDbLine
 10
910.7653383006
 20
1144.1160681132
 30
0.0
 11
910.7653383006
 21
1136.5469934825
 31
0.0
  0
ARC
  5
2A1
330
1F
100
AcDbEntity
  8
0
  6
Continuous
 62
     7
370
    15
100
AcDbCircle
 10
908.9653670062
 20
1144.1161035222
 30
0.0
 40
1.800000000000154
100
AcDbArc
 50
0.0
 51
35.9454043733
  0
ARC
  5
2A2
330
1F
100
AcDbEntity
  8
0
  6
Continuous
 62
     7
370
    15
100
AcDbCircle
 10
913.1306391893
 20
1147.1362910397
 30
0.0
 40
3.344999999999993
100
AcDbArc
 50
54.4753000235
 51
215.9454043733
  0
ARC
  5
2A3
330
1F
100
AcDbEntity
  8
0
  6
Continuous
 62
     7
370
    15
100
AcDbCircle
 10
916.1201613176
 20
1151.323627
 30
0.0
 40
1.800000000000237
100
AcDbArc
 50
234.4753000235
 51
270.2359156769
  0
LINE
  5
2A4
330
1F
100
AcDbEntity
  8
0
  6
Continuous
 62
     7
370
    15
100
AcDbLine
 10
959.6529487361
 20
1149.702811468
 30
0.0
 11
916.1275509585
 21
1149.5236399058
 31
0.0
  0
LINE
  5
2A5
330
1F
100
AcDbEntity
  8
0
  6
Continuous
 62
     7
370
    15
100
AcDbLine
 10
916.1275509585
 20
1131.1395408991
 30
0.0
 11
959.6529487361
 21
1130.9602501277
 31
0.0
  0
ARC
  5
2A6
330
1F
100
AcDbEntity
  8
0
  6
Continuous
 62
     7
370
    15
100
AcDbCircle
 10
916.1201613176
 20
1129.3394994455
 30
0.0
 40
1.799999999999866
100
AcDbArc
 50
89.7640843231
 51
125.5246999765
  0
ARC
  5
2A7
330
1F
100
AcDbEntity
  8
0
  6
Continuous
 62
     7
370
    15
100
AcDbCircle
 10
913.1306391893
 20
1133.5268354058
 30
0.0
 40
3.345000000000157
100
AcDbArc
 50
144.0545956267
 51
305.5246999765
  0
ARC
  5
2A8
330
1F
100
AcDbEntity
  8
0
  6
Continuous
 62
     7
370
    15
100
AcDbCircle
 10
908.9653670062
 20
1136.5470229233
 30
0.0
 40
1.800000000000068
100
AcDbArc
 50
324.0545956267
 51
0.0
  0
LINE
  5
2A9
330
1F
100
AcDbEntity
  8
0
  6
Continuous
 62
     7
370
    15
100
AcDbLine
 10
638.4619954814
 20
1130.9411766413
 30
0.0
 11
793.6701658954
 21
1131.1542036418
 31
0.0
  0
ARC
  5
2AA
330
1F
100
AcDbEntity
  8
0
  6
Continuous
 62
     7
370
    15
100
AcDbCircle
 10
793.6726106508
 20
1129.3541839368
 30
0.0
 40
1.79999999999992
100
AcDbArc
 50
54.1948243806
 51
90.078638954
  0
ARC
  5
2AB
330
1F
100
AcDbEntity
  8
0
  6
Continuous
 62
     7
370
    15
100
AcDbCircle
 10
959.6241170062
 20
770.460326584
 30
0.0
 40
7.000000000000114
100
AcDbArc
 50
0.0
 51
89.7640843231
  0
ARC
  5
2AC
330
1F
100
AcDbEntity
  8
0
  6
Continuous
 62
     7
370
    15
100
AcDbCircle
 10
800.8478670062
 20
1136.5470229233
 30
0.0
 40
1.799999999999955
100
AcDbArc
 50
180.0
 51
215.9454043733
  0
LINE
  5
2AD
330
1F
100
AcDbEntity
  8
0
  6
Continuous
 62
     7
370
    15
100
AcDbLine
 10
799.0478757609
 20
1136.5469934825
 30
0.0
 11
799.0478757609
 21
1144.1160681132
 31
0.0
  0
ARC
  5
2AE
330
1F
100
AcDbEntity
  8
0
  6
Continuous
 62
     7
370
    15
100
AcDbCircle
 10
800.8478670062
 20
1144.1161035222
 30
0.0
 40
1.800000000000062
100
AcDbArc
 50
144.0545956267
 51
180.0
  0
ARC
  5
2AF
330
1F
100
AcDbEntity
  8
0
  6
Continuous
 62
     7
370
    15
100
AcDbCircle
 10
796.6825948231
 20
1147.1362910397
 30
0.0
 40
3.345000000000085
100
AcDbArc
 50
324.0545956267
 51
125.8051756194
  0
ARC
  5
2B0
330
1F
100
AcDbEntity
  8
0
  6
Continuous
 62
     7
370
    15
100
AcDbCircle
 10
793.6726106508
 20
1151.3089425087
 30
0.0
 40
1.800000000000165
100
AcDbArc
 50
269.921361046
 51
305.8051756193
  0
LINE
  5
2B1
330
1F
100
AcDbEntity
  8
0
  6
Continuous
 62
     7
370
    15
100
AcDbLine
 10
793.6701658954
 20
1149.5089771632
 30
0.0
 11
638.4619954814
 21
1149.7220041636
 31
0.0
  0
LINE
  5
2B2
330
1F
100
AcDbEntity
  8
0
  6
Continuous
 62
     7
370
    15
100
AcDbLine
 10
959.624100088
 20
1200.3315927867
 30
0.0
 11
638.4715918292
 21
1200.3315927867
 31
0.0
  0
LINE
  5
2B3
330
1F
100
AcDbEntity
  8
0
  6
Continuous
 62
     7
370
    15
100
AcDbLine
 10
631.4716223468
 20
1193.3315040949
 30
0.0
 11
631.4716223468
 21
1156.721973646
 31
0.0
  0
LINE
  5
2B4
330
1F
100
AcDbEntity
  8
0
  6
Continuous
 62
     7
370
    15
100
AcDbLine
 10
966.6241291751
 20
1156.7027809504
 30
0.0
 11
966.6241291751
 21
1193.3315040949
 31
0.0
  0
LINE
  5
2B5
330
1F
100
AcDbEntity
  8
0
  6
Continuous
 62
     7
370
    15
100
AcDbLine
 10
966.6241291751
 20
1038.8695242289
 30
0.0
 11
966.6241291751
 21
1123.9602806452
 31
0.0
  0
LINE
  5
2B6
330
1F
100
AcDbEntity
  8
0
  6
Continuous
 62
     7
370
    15
100
AcDbLine
 10
966.6241291751
 20
921.0361482981
 30
0.0
 11
966.6241291751
 21
1006.1270239237
 31
0.0
  0
LINE
  5
2B7
330
1F
100
AcDbEntity
  8
0
  6
Continuous
 62
     7
370
    15
100
AcDbLine
 10
966.6241291751
 20
803.2027723673
 30
0.0
 11
966.6241291751
 21
888.293647993
 31
0.0
  0
LINE
  5
2B8
330
1F
100
AcDbEntity
  8
0
  6
Continuous
 62
     7
370
    15
100
AcDbLine
 10
966.6241291751
 20
685.3694560412
 30
0.0
 11
966.6241291751
 21
770.4603316668
 31
0.0
  0
ARC
  5
2B9
330
1F
100
AcDbEntity
  8
0
  6
Continuous
 62
     7
370
    15
100
AcDbCircle
 10
959.6241170062
 20
26.8315632228
 30
0.0
 40
7.000000000000007
100
AcDbArc
 50
270.0
 51
0.0
  0
ARC
  5
2BA
330
1F
100
AcDbEntity
  8
0
  6
Continuous
 62
     7
370
    15
100
AcDbCircle
 10
959.6241170062
 20
96.2027998615
 30
0.0
 40
6.99999999999992
100
AcDbArc
 50
270.2359156769
 51
0.0
  0
ARC
  5
2BB
330
1F
100
AcDbEntity
  8
0
  6
Continuous
 62
     7
370
    15
100
AcDbCircle
 10
959.6241170062
 20
214.0361331949
 30
0.0
 40
6.999999999999991
100
AcDbArc
 50
270.2359156769
 51
0.0
  0
ARC
  5
2BC
330
1F
100
AcDbEntity
  8
0
  6
Continuous
 62
     7
370
    15
100
AcDbCircle
 10
959.6241170062
 20
331.8694665282
 30
0.0
 40
7.000000000000048
100
AcDbArc
 50
270.2359156769
 51
0.0
  0
LINE
  5
2BD
330
1F
100
AcDbEntity
  8
0
  6
Continuous
 62
     7
370
    15
100
AcDbLine
 10
916.1275509585
 20
442.523652542
 30
0.0
 11
959.6529487361
 21
442.7028539065
 31
0.0
  0
ARC
  5
2BE
330
1F
100
AcDbEntity
  8
0
  6
Continuous
 62
     7
370
    15
100
AcDbCircle
 10
916.1201613176
 20
304.5061661122
 30
0.0
 40
1.800000000000118
100
AcDbArc
 50
89.7640843231
 51
125.5246999765
  0
LINE
  5
2BF
330
1F
100
AcDbEntity
  8
0
  6
Continuous
 62
     7
370
    15
100
AcDbLine
 10
959.6529487361
 20
306.1269464377
 30
0.0
 11
916.1275509585
 21
306.3061478022
 31
0.0
  0
LINE
  5
2C0
330
1F
100
AcDbEntity
  8
0
  6
Continuous
 62
     7
370
    15
100
AcDbLine
 10
916.1275509585
 20
324.6903064135
 30
0.0
 11
959.6529487361
 21
324.8695375804
 31
0.0
  0
ARC
  5
2C1
330
1F
100
AcDbEntity
  8
0
  6
Continuous
 62
     7
370
    15
100
AcDbCircle
 10
916.1201613176
 20
326.4902936666
 30
0.0
 40
1.800000000000025
100
AcDbArc
 50
234.4753000235
 51
270.2359156769
  0
ARC
  5
2C2
330
1F
100
AcDbEntity
  8
0
  6
Continuous
 62
     7
370
    15
100
AcDbCircle
 10
913.1306391893
 20
322.3029577063
 30
0.0
 40
3.344999999999959
100
AcDbArc
 50
54.4753000235
 51
215.9454043733
  0
ARC
  5
2C3
330
1F
100
AcDbEntity
  8
0
  6
Continuous
 62
     7
370
    15
100
AcDbCircle
 10
908.9653670062
 20
319.2827701888
 30
0.0
 40
1.800000000000182
100
AcDbArc
 50
0.0
 51
35.9454043733
  0
LINE
  5
2C4
330
1F
100
AcDbEntity
  8
0
  6
Continuous
 62
     7
370
    15
100
AcDbLine
 10
910.7653383006
 20
193.8803585652
 30
0.0
 11
910.7653383006
 21
201.4494331959
 31
0.0
  0
ARC
  5
2C5
330
1F
100
AcDbEntity
  8
0
  6
Continuous
 62
     7
370
    15
100
AcDbCircle
 10
908.9653670062
 20
193.8803562567
 30
0.0
 40
1.800000000000182
100
AcDbArc
 50
324.0545956267
 51
0.0
  0
ARC
  5
2C6
330
1F
100
AcDbEntity
  8
0
  6
Continuous
 62
     7
370
    15
100
AcDbCircle
 10
913.1306391893
 20
190.8601687392
 30
0.0
 40
3.344999999999975
100
AcDbArc
 50
144.0545956267
 51
305.5246999765
  0
ARC
  5
2C7
330
1F
100
AcDbEntity
  8
0
  6
Continuous
 62
     7
370
    15
100
AcDbCircle
 10
916.1201613176
 20
186.6728327789
 30
0.0
 40
1.800000000000013
100
AcDbArc
 50
89.7640843231
 51
125.5246999765
  0
LINE
  5
2C8
330
1F
100
AcDbEntity
  8
0
  6
Continuous
 62
     7
370
    15
100
AcDbLine
 10
959.6529487361
 20
188.2936003092
 30
0.0
 11
916.1275509585
 21
188.4728165749
 31
0.0
  0
LINE
  5
2C9
330
1F
100
AcDbEntity
  8
0
  6
Continuous
 62
     7
370
    15
100
AcDbLine
 10
916.1275509585
 20
206.8569751862
 30
0.0
 11
959.6529487361
 21
207.0361914519
 31
0.0
  0
ARC
  5
2CA
330
1F
100
AcDbEntity
  8
0
  6
Continuous
 62
     7
370
    15
100
AcDbCircle
 10
916.1201613176
 20
208.6569603333
 30
0.0
 40
1.800000000000025
100
AcDbArc
 50
234.4753000235
 51
270.2359156769
  0
ARC
  5
2CB
330
1F
100
AcDbEntity
  8
0
  6
Continuous
 62
     7
370
    15
100
AcDbCircle
 10
913.1306391893
 20
204.469624373
 30
0.0
 40
3.345000000000022
100
AcDbArc
 50
54.4753000235
 51
215.9454043733
  0
ARC
  5
2CC
330
1F
100
AcDbEntity
  8
0
  6
Continuous
 62
     7
370
    15
100
AcDbCircle
 10
908.9653670062
 20
201.4494368555
 30
0.0
 40
1.800000000000296
100
AcDbArc
 50
0.0
 51
35.9454043733
  0
LINE
  5
2CD
330
1F
100
AcDbEntity
  8
0
  6
Continuous
 62
     7
370
    15
100
AcDbLine
 10
910.7653383006
 20
76.0470198873
 30
0.0
 11
910.7653383006
 21
83.6161019686
 31
0.0
  0
ARC
  5
2CE
330
1F
100
AcDbEntity
  8
0
  6
Continuous
 62
     7
370
    15
100
AcDbCircle
 10
908.9653670062
 20
76.0470229233
 30
0.0
 40
1.800000000000182
100
AcDbArc
 50
324.0545956267
 51
0.0
  0
ARC
  5
2CF
330
1F
100
AcDbEntity
  8
0
  6
Continuous
 62
     7
370
    15
100
AcDbCircle
 10
913.1306391893
 20
73.0268354058
 30
0.0
 40
3.345000000000033
100
AcDbArc
 50
144.0545956267
 51
305.5246999765
  0
ARC
  5
2D0
330
1F
100
AcDbEntity
  8
0
  6
Continuous
 62
     7
370
    15
100
AcDbCircle
 10
916.1201613176
 20
68.8394994455
 30
0.0
 40
1.800000000000002
100
AcDbArc
 50
89.7640843231
 51
125.5246999765
  0
LINE
  5
2D1
330
1F
100
AcDbEntity
  8
0
  6
Continuous
 62
     7
370
    15
100
AcDbLine
 10
959.6529487361
 20
70.4602690819
 30
0.0
 11
916.1275509585
 21
70.6394853476
 31
0.0
  0
LINE
  5
2D2
330
1F
100
AcDbEntity
  8
0
  6
Continuous
 62
     7
370
    15
100
AcDbLine
 10
916.1275509585
 20
89.0236439589
 30
0.0
 11
959.6529487361
 21
89.2028602246
 31
0.0
  0
ARC
  5
2D3
330
1F
100
AcDbEntity
  8
0
  6
Continuous
 62
     7
370
    15
100
AcDbCircle
 10
916.1201613176
 20
90.823627
 30
0.0
 40
1.800000000000002
100
AcDbArc
 50
234.4753000235
 51
270.2359156769
  0
ARC
  5
2D4
330
1F
100
AcDbEntity
  8
0
  6
Continuous
 62
     7
370
    15
100
AcDbCircle
 10
913.1306391893
 20
86.6362910397
 30
0.0
 40
3.345000000000022
100
AcDbArc
 50
54.4753000235
 51
215.9454043733
  0
ARC
  5
2D5
330
1F
100
AcDbEntity
  8
0
  6
Continuous
 62
     7
370
    15
100
AcDbCircle
 10
908.9653670062
 20
83.6161035222
 30
0.0
 40
1.800000000000296
100
AcDbArc
 50
0.0
 51
35.9454043733
  0
LINE
  5
2D6
330
1F
100
AcDbEntity
  8
0
  6
Continuous
 62
     7
370
    15
100
AcDbLine
 10
638.4619954814
 20
89.2219709638
 30
0.0
 11
793.6701658954
 21
89.0089439634
 31
0.0
  0
ARC
  5
2D7
330
1F
100
AcDbEntity
  8
0
  6
Continuous
 62
     7
370
    15
100
AcDbCircle
 10
793.6726106508
 20
90.8089425087
 30
0.0
 40
1.799999999999977
100
AcDbArc
 50
269.921361046
 51
305.8051756194
  0
ARC
  5
2D8
330
1F
100
AcDbEntity
  8
0
  6
Continuous
 62
     7
370
    15
100
AcDbCircle
 10
796.6825948231
 20
86.6362910397
 30
0.0
 40
3.34500000000003
100
AcDbArc
 50
324.0545956267
 51
125.8051756194
  0
ARC
  5
2D9
330
1F
100
AcDbEntity
  8
0
  6
Continuous
 62
     7
370
    15
100
AcDbCircle
 10
800.8478670062
 20
83.6161035222
 30
0.0
 40
1.800000000000028
100
AcDbArc
 50
144.0545956267
 51
180.0
  0
LINE
  5
2DA
330
1F
100
AcDbEntity
  8
0
  6
Continuous
 62
     7
370
    15
100
AcDbLine
 10
799.0478757609
 20
83.6161019686
 30
0.0
 11
799.0478757609
 21
76.0470198873
 31
0.0
  0
ARC
  5
2DB
330
1F
100
AcDbEntity
  8
0
  6
Continuous
 62
     7
370
    15
100
AcDbCircle
 10
800.8478670062
 20
76.0470229233
 30
0.0
 40
1.799999999999962
100
AcDbArc
 50
180.0
 51
215.9454043733
  0
ARC
  5
2DC
330
1F
100
AcDbEntity
  8
0
  6
Continuous
 62
     7
370
    15
100
AcDbCircle
 10
796.6825948231
 20
73.0268354058
 30
0.0
 40
3.345000000000041
100
AcDbArc
 50
234.1948243806
 51
35.9454043733
  0
ARC
  5
2DD
330
1F
100
AcDbEntity
  8
0
  6
Continuous
 62
     7
370
    15
100
AcDbCircle
 10
793.6726106508
 20
68.8541839368
 30
0.0
 40
1.799999999999977
100
AcDbArc
 50
54.1948243806
 51
90.078638954
  0
LINE
  5
2DE
330
1F
100
AcDbEntity
  8
0
  6
Continuous
 62
     7
370
    15
100
AcDbLine
 10
793.6701658954
 20
70.6541853431
 30
0.0
 11
638.4619954814
 21
70.4411583427
 31
0.0
  0
LINE
  5
2DF
330
1F
100
AcDbEntity
  8
0
  6
Continuous
 62
     7
370
    15
100
AcDbLine
 10
631.4716223468
 20
96.221962798
 30
0.0
 11
631.4716223468
 21
1123.9412071589
 31
0.0
  0
LINE
  5
2E0
330
1F
100
AcDbEntity
  8
0
  6
Continuous
 62
     7
370
    15
100
AcDbLine
 10
910.7653383006
 20
1026.2828113917
 30
0.0
 11
910.7653383006
 21
1018.713736761
 31
0.0
  0
ARC
  5
2E1
330
1F
100
AcDbEntity
  8
0
  6
Continuous
 62
     7
370
    15
100
AcDbCircle
 10
796.6825948231
 20
1133.5268354058
 30
0.0
 40
3.345000000000085
100
AcDbArc
 50
234.1948243806
 51
35.9454043733
  0
ARC
  5
2E2
330
1F
100
AcDbEntity
  8
0
  6
Continuous
 62
     7
370
    15
100
AcDbCircle
 10
908.9653670062
 20
1018.71368959
 30
0.0
 40
1.800000000000068
100
AcDbArc
 50
324.0545956267
 51
0.0
  0
ARC
  5
2E3
330
1F
100
AcDbEntity
  8
0
  6
Continuous
 62
     7
370
    15
100
AcDbCircle
 10
2342.7753803674
 20
236.2665632228
 30
0.0
 40
7.0
100
AcDbArc
 50
0.2359156769
 51
90.0
  0
LINE
  5
2E4
330
1F
100
AcDbEntity
  8
0
  6
Continuous
 62
     7
370
    15
100
AcDbLine
 10
2349.7753027667
 20
236.2953814152
 30
0.0
 11
2349.9545935382
 21
192.77001344
 31
0.0
  0
ARC
  5
2E5
330
1F
100
AcDbEntity
  8
0
  6
Continuous
 62
     7
370
    15
100
AcDbCircle
 10
2348.154553229
 20
192.7626075341
 30
0.0
 40
1.800000000000212
100
AcDbArc
 50
324.4753000235
 51
0.2359156769
  0
ARC
  5
2E6
330
1F
100
AcDbEntity
  8
0
  6
Continuous
 62
     7
370
    15
100
AcDbCircle
 10
2352.3418891893
 20
189.7730854058
 30
0.0
 40
3.344999999999993
100
AcDbArc
 50
144.4753000235
 51
305.9454043733
  0
ARC
  5
2E7
330
1F
100
AcDbEntity
  8
0
  6
Continuous
 62
     7
370
    15
100
AcDbCircle
 10
2355.3620767068
 20
185.6078132228
 30
0.0
 40
1.800000000000085
100
AcDbArc
 50
90.0
 51
125.9454043733
  0
LINE
  5
2E8
330
1F
100
AcDbEntity
  8
0
  6
Continuous
 62
     7
370
    15
100
AcDbLine
 10
2355.3621653308
 20
187.4078156832
 30
0.0
 11
2362.9312399615
 21
187.4078156832
 31
0.0
  0
ARC
  5
2E9
330
1F
100
AcDbEntity
  8
0
  6
Continuous
 62
     7
370
    15
100
AcDbCircle
 10
2362.9311573056
 20
185.6078132228
 30
0.0
 40
1.800000000000085
100
AcDbArc
 50
54.0545956267
 51
90.0
  0
ARC
  5
2EA
330
1F
100
AcDbEntity
  8
0
  6
Continuous
 62
     7
370
    15
100
AcDbCircle
 10
2365.9513448231
 20
189.7730854058
 30
0.0
 40
3.344999999999993
100
AcDbArc
 50
234.0545956267
 51
35.5246999765
  0
ARC
  5
2EB
330
1F
100
AcDbEntity
  8
0
  6
Continuous
 62
     7
370
    15
100
AcDbCircle
 10
2370.1386807834
 20
192.7626075341
 30
0.0
 40
1.800000000000269
100
AcDbArc
 50
179.7640843231
 51
215.5246999765
  0
LINE
  5
2EC
330
1F
100
AcDbEntity
  8
0
  6
Continuous
 62
     7
370
    15
100
AcDbLine
 10
2368.3388117541
 20
192.77001344
 30
0.0
 11
2368.517864107
 21
236.2953814152
 31
0.0
  0
ARC
  5
2ED
330
1F
100
AcDbEntity
  8
0
  6
Continuous
 62
     7
370
    15
100
AcDbCircle
 10
2375.517853645
 20
236.2665632228
 30
0.0
 40
7.0
100
AcDbArc
 50
90.0
 51
179.7640843231
  0
LINE
  5
2EE
330
1F
100
AcDbEntity
  8
0
  6
Continuous
 62
     7
370
    15
100
AcDbLine
 10
2402.1465662707
 20
243.2665618542
 30
0.0
 11
2375.5178335895
 21
243.2665618542
 31
0.0
  0
ARC
  5
2EF
330
1F
100
AcDbEntity
  8
0
  6
Continuous
 62
     7
370
    15
100
AcDbCircle
 10
2402.1466170062
 20
236.2665632228
 30
0.0
 40
7.0
100
AcDbArc
 50
0.0
 51
90.0
  0
LINE
  5
2F0
330
1F
100
AcDbEntity
  8
0
  6
Continuous
 62
     7
370
    15
100
AcDbLine
 10
2409.1465357532
 20
26.8315634165
 30
0.0
 11
2409.1465357532
 21
236.2665625695
 31
0.0
  0
ARC
  5
2F1
330
1F
100
AcDbEntity
  8
0
  6
Continuous
 62
     7
370
    15
100
AcDbCircle
 10
2402.1466170062
 20
26.8315632228
 30
0.0
 40
7.0
100
AcDbArc
 50
270.0
 51
0.0
  0
ARC
  5
2F2
330
1F
100
AcDbEntity
  8
0
  6
Continuous
 62
     7
370
    15
100
AcDbCircle
 10
1861.6466170062
 20
26.8315632228
 30
0.0
 40
7.0
100
AcDbArc
 50
180.0
 51
270.0
  0
LINE
  5
2F3
330
1F
100
AcDbEntity
  8
0
  6
Continuous
 62
     7
370
    15
100
AcDbLine
 10
1854.6466711749
 20
26.8315634165
 30
0.0
 11
1854.6466711749
 21
236.2665625695
 31
0.0
  0
ARC
  5
2F4
330
1F
100
AcDbEntity
  8
0
  6
Continuous
 62
     7
370
    15
100
AcDbCircle
 10
1861.6466170062
 20
236.2665632228
 30
0.0
 40
7.0
100
AcDbArc
 50
90.0
 51
180.0
  0
LINE
  5
2F5
330
1F
100
AcDbEntity
  8
0
  6
Continuous
 62
     7
370
    15
100
AcDbLine
 10
1861.6466406573
 20
243.2665618542
 30
0.0
 11
1888.2753733386
 21
243.2665618542
 31
0.0
  0
ARC
  5
2F6
330
1F
100
AcDbEntity
  8
0
  6
Continuous
 62
     7
370
    15
100
AcDbCircle
 10
1888.2753803674
 20
236.2665632228
 30
0.0
 40
7.0
100
AcDbArc
 50
0.2359156769
 51
90.0
  0
LINE
  5
2F7
330
1F
100
AcDbEntity
  8
0
  6
Continuous
 62
     7
370
    15
100
AcDbLine
 10
1895.4545143832
 20
192.77001344
 30
0.0
 11
1895.275342821
 21
236.2953814152
 31
0.0
  0
ARC
  5
2F8
330
1F
100
AcDbEntity
  8
0
  6
Continuous
 62
     7
370
    15
100
AcDbCircle
 10
1893.654553229
 20
192.7626075341
 30
0.0
 40
1.800000000000212
100
AcDbArc
 50
324.4753000235
 51
0.2359156769
  0
ARC
  5
2F9
330
1F
100
AcDbEntity
  8
0
  6
Continuous
 62
     7
370
    15
100
AcDbCircle
 10
1897.8418891893
 20
189.7730854058
 30
0.0
 40
3.345000000000107
100
AcDbArc
 50
144.4753000235
 51
305.9454043733
  0
ARC
  5
2FA
330
1F
100
AcDbEntity
  8
0
  6
Continuous
 62
     7
370
    15
100
AcDbCircle
 10
1900.8620767068
 20
185.6078132228
 30
0.0
 40
1.800000000000011
100
AcDbArc
 50
90.0
 51
125.9454043733
  0
LINE
  5
2FB
330
1F
100
AcDbEntity
  8
0
  6
Continuous
 62
     7
370
    15
100
AcDbLine
 10
1908.4311608066
 20
187.4078156832
 30
0.0
 11
1900.8620861758
 21
187.4078156832
 31
0.0
  0
ARC
  5
2FC
330
1F
100
AcDbEntity
  8
0
  6
Continuous
 62
     7
370
    15
100
AcDbCircle
 10
1908.4311573056
 20
185.6078132228
 30
0.0
 40
1.800000000000011
100
AcDbArc
 50
54.0545956267
 51
90.0
  0
ARC
  5
2FD
330
1F
100
AcDbEntity
  8
0
  6
Continuous
 62
     7
370
    15
100
AcDbCircle
 10
1911.4513448231
 20
189.7730854058
 30
0.0
 40
3.345000000000107
100
AcDbArc
 50
234.0545956267
 51
35.5246999765
  0
ARC
  5
2FE
330
1F
100
AcDbEntity
  8
0
  6
Continuous
 62
     7
370
    15
100
AcDbCircle
 10
1915.6386807834
 20
192.7626075341
 30
0.0
 40
1.799999999999985
100
AcDbArc
 50
179.7640843231
 51
215.5246999765
  0
LINE
  5
2FF
330
1F
100
AcDbEntity
  8
0
  6
Continuous
 62
     7
370
    15
100
AcDbLine
 10
1914.0179041614
 20
236.2953814152
 30
0.0
 11
1913.8387325992
 21
192.77001344
 31
0.0
  0
ARC
  5
300
330
1F
100
AcDbEntity
  8
0
  6
Continuous
 62
     7
370
    15
100
AcDbCircle
 10
1921.017853645
 20
236.2665632228
 30
0.0
 40
7.000000000000218
100
AcDbArc
 50
90.0
 51
179.7640843231
  0
LINE
  5
301
330
1F
100
AcDbEntity
  8
0
  6
Continuous
 62
     7
370
    15
100
AcDbLine
 10
2402.1465662707
 20
19.8315641317
 30
0.0
 11
1861.6466406573
 21
19.8315641317
 31
0.0
  0
LINE
  5
302
330
1F
100
AcDbEntity
  8
0
  6
Continuous
 62
     7
370
    15
100
AcDbLine
 10
1921.0178736438
 20
243.2665618542
 30
0.0
 11
2342.7753332843
 21
243.2665618542
 31
0.0
  0
ARC
  5
303
330
1F
100
AcDbEntity
  8
0
  6
Continuous
 62
     7
370
    15
100
AcDbCircle
 10
1888.2753803674
 20
466.4515632228
 30
0.0
 40
7.0
100
AcDbArc
 50
0.2359156769
 51
90.0
  0
LINE
  5
304
330
1F
100
AcDbEntity
  8
0
  6
Continuous
 62
     7
370
    15
100
AcDbLine
 10
1895.4545143832
 20
422.9550304297
 30
0.0
 11
1895.275342821
 21
466.4803984049
 31
0.0
  0
ARC
  5
305
330
1F
100
AcDbEntity
  8
0
  6
Continuous
 62
     7
370
    15
100
AcDbCircle
 10
1893.654553229
 20
422.9476075341
 30
0.0
 40
1.800000000000212
100
AcDbArc
 50
324.4753000235
 51
0.2359156769
  0
ARC
  5
306
330
1F
100
AcDbEntity
  8
0
  6
Continuous
 62
     7
370
    15
100
AcDbCircle
 10
1897.8418891893
 20
419.9580854058
 30
0.0
 40
3.345000000000124
100
AcDbArc
 50
144.4753000235
 51
305.9454043733
  0
ARC
  5
307
330
1F
100
AcDbEntity
  8
0
  6
Continuous
 62
     7
370
    15
100
AcDbCircle
 10
1900.8620767068
 20
415.7928132228
 30
0.0
 40
1.800000000000011
100
AcDbArc
 50
90.0
 51
125.9454043733
  0
LINE
  5
308
330
1F
100
AcDbEntity
  8
0
  6
Continuous
 62
     7
370
    15
100
AcDbLine
 10
1908.4311608066
 20
417.5928177718
 30
0.0
 11
1900.8620861758
 21
417.5928177718
 31
0.0
  0
ARC
  5
309
330
1F
100
AcDbEntity
  8
0
  6
Continuous
 62
     7
370
    15
100
AcDbCircle
 10
1908.4311573056
 20
415.7928132228
 30
0.0
 40
1.800000000000011
100
AcDbArc
 50
54.0545956267
 51
90.0
  0
ARC
  5
30A
330
1F
100
AcDbEntity
  8
0
  6
Continuous
 62
     7
370
    15
100
AcDbCircle
 10
1911.4513448231
 20
419.9580854058
 30
0.0
 40
3.345000000000124
100
AcDbArc
 50
234.0545956267
 51
35.5246999765
  0
ARC
  5
30B
330
1F
100
AcDbEntity
  8
0
  6
Continuous
 62
     7
370
    15
100
AcDbCircle
 10
1915.6386807834
 20
422.9476075341
 30
0.0
 40
1.799999999999985
100
AcDbArc
 50
179.7640843231
 51
215.5246999765
  0
LINE
  5
30C
330
1F
100
AcDbEntity
  8
0
  6
Continuous
 62
     7
370
    15
100
AcDbLine
 10
1914.0179041614
 20
466.4803984049
 30
0.0
 11
1913.8387325992
 21
422.9550304297
 31
0.0
  0
ARC
  5
30D
330
1F
100
AcDbEntity
  8
0
  6
Continuous
 62
     7
370
    15
100
AcDbCircle
 10
1921.017853645
 20
466.4515632228
 30
0.0
 40
7.000000000000218
100
AcDbArc
 50
90.0
 51
179.7640843231
  0
LINE
  5
30E
330
1F
100
AcDbEntity
  8
0
  6
Continuous
 62
     7
370
    15
100
AcDbLine
 10
2402.1465662707
 20
250.0165643576
 30
0.0
 11
1861.6466406573
 21
250.0165643576
 31
0.0
  0
LINE
  5
30F
330
1F
100
AcDbEntity
  8
0
  6
Continuous
 62
     7
370
    15
100
AcDbLine
 10
1921.0178736438
 20
473.4515490416
 30
0.0
 11
2342.7753332843
 21
473.4515490416
 31
0.0
  0
LINE
  5
310
330
1F
100
AcDbEntity
  8
0
  6
Continuous
 62
     7
370
    15
100
AcDbLine
 10
1854.6466711749
 20
257.0165636424
 30
0.0
 11
1854.6466711749
 21
466.4515497569
 31
0.0
  0
LINE
  5
311
330
1F
100
AcDbEntity
  8
0
  6
Continuous
 62
     7
370
    15
100
AcDbLine
 10
1861.6466406573
 20
473.4515490416
 30
0.0
 11
1888.2753733386
 21
473.4515490416
 31
0.0
  0
ARC
  5
312
330
1F
100
AcDbEntity
  8
0
  6
Continuous
 62
     7
370
    15
100
AcDbCircle
 10
2402.1466170062
 20
257.0165632228
 30
0.0
 40
7.0
100
AcDbArc
 50
270.0
 51
0.0
  0
ARC
  5
313
330
1F
100
AcDbEntity
  8
0
  6
Continuous
 62
     7
370
    15
100
AcDbCircle
 10
2402.1466170062
 20
466.4515632228
 30
0.0
 40
7.0
100
AcDbArc
 50
0.0
 51
90.0
  0
ARC
  5
314
330
1F
100
AcDbEntity
  8
0
  6
Continuous
 62
     7
370
    15
100
AcDbCircle
 10
2375.517853645
 20
466.4515632228
 30
0.0
 40
7.0
100
AcDbArc
 50
90.0
 51
179.7640843231
  0
ARC
  5
315
330
1F
100
AcDbEntity
  8
0
  6
Continuous
 62
     7
370
    15
100
AcDbCircle
 10
2342.7753803674
 20
466.4515632228
 30
0.0
 40
7.0
100
AcDbArc
 50
0.2359156769
 51
90.0
  0
LINE
  5
316
330
1F
100
AcDbEntity
  8
0
  6
Continuous
 62
     7
370
    15
100
AcDbLine
 10
2349.7753027667
 20
466.4803984049
 30
0.0
 11
2349.9545935382
 21
422.9550304297
 31
0.0
  0
ARC
  5
317
330
1F
100
AcDbEntity
  8
0
  6
Continuous
 62
     7
370
    15
100
AcDbCircle
 10
2348.154553229
 20
422.9476075341
 30
0.0
 40
1.800000000000212
100
AcDbArc
 50
324.4753000235
 51
0.2359156769
  0
ARC
  5
318
330
1F
100
AcDbEntity
  8
0
  6
Continuous
 62
     7
370
    15
100
AcDbCircle
 10
2352.3418891893
 20
419.9580854058
 30
0.0
 40
3.345000000000038
100
AcDbArc
 50
144.4753000235
 51
305.9454043733
  0
ARC
  5
319
330
1F
100
AcDbEntity
  8
0
  6
Continuous
 62
     7
370
    15
100
AcDbCircle
 10
2355.3620767068
 20
415.7928132228
 30
0.0
 40
1.800000000000062
100
AcDbArc
 50
90.0
 51
125.9454043733
  0
LINE
  5
31A
330
1F
100
AcDbEntity
  8
0
  6
Continuous
 62
     7
370
    15
100
AcDbLine
 10
2355.3621653308
 20
417.5928177718
 30
0.0
 11
2362.9312399615
 21
417.5928177718
 31
0.0
  0
ARC
  5
31B
330
1F
100
AcDbEntity
  8
0
  6
Continuous
 62
     7
370
    15
100
AcDbCircle
 10
2362.9311573056
 20
415.7928132228
 30
0.0
 40
1.800000000000062
100
AcDbArc
 50
54.0545956267
 51
90.0
  0
ARC
  5
31C
330
1F
100
AcDbEntity
  8
0
  6
Continuous
 62
     7
370
    15
100
AcDbCircle
 10
2365.9513448231
 20
419.9580854058
 30
0.0
 40
3.345000000000038
100
AcDbArc
 50
234.0545956267
 51
35.5246999765
  0
ARC
  5
31D
330
1F
100
AcDbEntity
  8
0
  6
Continuous
 62
     7
370
    15
100
AcDbCircle
 10
2370.1386807834
 20
422.9476075341
 30
0.0
 40
1.800000000000203
100
AcDbArc
 50
179.7640843231
 51
215.5246999765
  0
LINE
  5
31E
330
1F
100
AcDbEntity
  8
0
  6
Continuous
 62
     7
370
    15
100
AcDbLine
 10
2368.3388117541
 20
422.9550304297
 30
0.0
 11
2368.517864107
 21
466.4803984049
 31
0.0
  0
LINE
  5
31F
330
1F
100
AcDbEntity
  8
0
  6
Continuous
 62
     7
370
    15
100
AcDbLine
 10
2409.1465357532
 20
257.0165636424
 30
0.0
 11
2409.1465357532
 21
466.4515497569
 31
0.0
  0
ARC
  5
320
330
1F
100
AcDbEntity
  8
0
  6
Continuous
 62
     7
370
    15
100
AcDbCircle
 10
1861.6466170062
 20
257.0165632228
 30
0.0
 40
7.0
100
AcDbArc
 50
180.0
 51
270.0
  0
ARC
  5
321
330
1F
100
AcDbEntity
  8
0
  6
Continuous
 62
     7
370
    15
100
AcDbCircle
 10
1861.6466170062
 20
466.4515632228
 30
0.0
 40
7.0
100
AcDbArc
 50
90.0
 51
180.0
  0
LINE
  5
322
330
1F
100
AcDbEntity
  8
0
  6
Continuous
 62
     7
370
    15
100
AcDbLine
 10
2402.1465662707
 20
473.4515490416
 30
0.0
 11
2375.5178335895
 21
473.4515490416
 31
0.0
  0
ARC
  5
323
330
1F
100
AcDbEntity
  8
0
  6
Continuous
 62
     7
370
    15
100
AcDbCircle
 10
2247.4530726949
 20
893.6728327789
 30
0.0
 40
1.799999999999959
100
AcDbArc
 50
54.4753000235
 51
90.2359156769
  0
ARC
  5
324
330
1F
100
AcDbEntity
  8
0
  6
Continuous
 62
     7
370
    15
100
AcDbCircle
 10
2250.4425948231
 20
897.8601687392
 30
0.0
 40
3.345000000000151
100
AcDbArc
 50
234.4753000235
 51
35.9454043733
  0
ARC
  5
325
330
1F
100
AcDbEntity
  8
0
  6
Continuous
 62
     7
370
    15
100
AcDbCircle
 10
2254.6078670062
 20
900.8803562567
 30
0.0
 40
1.799999999999284
100
AcDbArc
 50
180.0
 51
215.9454043733
  0
LINE
  5
326
330
1F
100
AcDbEntity
  8
0
  6
Continuous
 62
     7
370
    15
100
AcDbLine
 10
2252.8078440417
 20
900.8803608302
 30
0.0
 11
2252.8078440417
 21
908.4494354609
 31
0.0
  0
ARC
  5
327
330
1F
100
AcDbEntity
  8
0
  6
Continuous
 62
     7
370
    15
100
AcDbCircle
 10
2254.6078670062
 20
908.4494368555
 30
0.0
 40
1.799999999999417
100
AcDbArc
 50
144.0545956267
 51
180.0
  0
ARC
  5
328
330
1F
100
AcDbEntity
  8
0
  6
Continuous
 62
     7
370
    15
100
AcDbCircle
 10
2250.4425948231
 20
911.469624373
 30
0.0
 40
3.345000000000065
100
AcDbArc
 50
324.0545956267
 51
125.5246999765
  0
ARC
  5
329
330
1F
100
AcDbEntity
  8
0
  6
Continuous
 62
     7
370
    15
100
AcDbCircle
 10
2247.4530726949
 20
915.6569603333
 30
0.0
 40
1.800000000000098
100
AcDbArc
 50
269.7640843231
 51
305.5246999765
  0
LINE
  5
32A
330
1F
100
AcDbEntity
  8
0
  6
Continuous
 62
     7
370
    15
100
AcDbLine
 10
2247.4455717792
 20
913.8569476489
 30
0.0
 11
2203.9203528155
 21
914.0361788157
 31
0.0
  0
ARC
  5
32B
330
1F
100
AcDbEntity
  8
0
  6
Continuous
 62
     7
370
    15
100
AcDbCircle
 10
2203.9491170062
 20
921.0361331949
 30
0.0
 40
7.000000000000455
100
AcDbArc
 50
180.0
 51
269.7640843231
  0
LINE
  5
32C
330
1F
100
AcDbEntity
  8
0
  6
Continuous
 62
     7
370
    15
100
AcDbLine
 10
2196.9492319812
 20
1006.1270239237
 30
0.0
 11
2196.9492319812
 21
921.0361482981
 31
0.0
  0
ARC
  5
32D
330
1F
100
AcDbEntity
  8
0
  6
Continuous
 62
     7
370
    15
100
AcDbCircle
 10
2203.9491170062
 20
1006.1269932506
 30
0.0
 40
7.000000000000455
100
AcDbArc
 50
90.2359156769
 51
180.0
  0
LINE
  5
32E
330
1F
100
AcDbEntity
  8
0
  6
Continuous
 62
     7
370
    15
100
AcDbLine
 10
2203.9203528155
 20
1013.1269934062
 30
0.0
 11
2247.4455717792
 21
1013.3061649684
 31
0.0
  0
ARC
  5
32F
330
1F
100
AcDbEntity
  8
0
  6
Continuous
 62
     7
370
    15
100
AcDbCircle
 10
2247.4530726949
 20
1011.5061661122
 30
0.0
 40
1.800000000000325
100
AcDbArc
 50
54.4753000235
 51
90.2359156769
  0
ARC
  5
330
330
1F
100
AcDbEntity
  8
0
  6
Continuous
 62
     7
370
    15
100
AcDbCircle
 10
2250.4425948231
 20
1015.6935020725
 30
0.0
 40
3.345000000000085
100
AcDbArc
 50
234.4753000235
 51
35.9454043733
  0
ARC
  5
331
330
1F
100
AcDbEntity
  8
0
  6
Continuous
 62
     7
370
    15
100
AcDbCircle
 10
2254.6078670062
 20
1018.71368959
 30
0.0
 40
1.799999999999284
100
AcDbArc
 50
180.0
 51
215.9454043733
  0
LINE
  5
332
330
1F
100
AcDbEntity
  8
0
  6
Continuous
 62
     7
370
    15
100
AcDbLine
 10
2252.8078440417
 20
1018.713736761
 30
0.0
 11
2252.8078440417
 21
1026.2828113917
 31
0.0
  0
ARC
  5
333
330
1F
100
AcDbEntity
  8
0
  6
Continuous
 62
     7
370
    15
100
AcDbCircle
 10
2254.6078670062
 20
1026.2827701888
 30
0.0
 40
1.799999999999417
100
AcDbArc
 50
144.0545956267
 51
180.0
  0
ARC
  5
334
330
1F
100
AcDbEntity
  8
0
  6
Continuous
 62
     7
370
    15
100
AcDbCircle
 10
2250.4425948231
 20
1029.3029577063
 30
0.0
 40
3.345000000000157
100
AcDbArc
 50
324.0545956267
 51
125.5246999765
  0
ARC
  5
335
330
1F
100
AcDbEntity
  8
0
  6
Continuous
 62
     7
370
    15
100
AcDbCircle
 10
2247.4530726949
 20
1033.4902936666
 30
0.0
 40
1.799999999999866
100
AcDbArc
 50
269.7640843231
 51
305.5246999765
  0
LINE
  5
336
330
1F
100
AcDbEntity
  8
0
  6
Continuous
 62
     7
370
    15
100
AcDbLine
 10
2247.4455717792
 20
1031.690263975
 30
0.0
 11
2203.9203528155
 21
1031.8695547465
 31
0.0
  0
ARC
  5
337
330
1F
100
AcDbEntity
  8
0
  6
Continuous
 62
     7
370
    15
100
AcDbCircle
 10
2203.9491170062
 20
1038.8694665282
 30
0.0
 40
7.000000000000455
100
AcDbArc
 50
180.0
 51
269.7640843231
  0
LINE
  5
338
330
1F
100
AcDbEntity
  8
0
  6
Continuous
 62
     7
370
    15
100
AcDbLine
 10
2196.9492319812
 20
1123.9602806452
 30
0.0
 11
2196.9492319812
 21
1038.8695242289
 31
0.0
  0
ARC
  5
339
330
1F
100
AcDbEntity
  8
0
  6
Continuous
 62
     7
370
    15
100
AcDbCircle
 10
2203.9491170062
 20
1123.960326584
 30
0.0
 40
7.000000000000455
100
AcDbArc
 50
90.2359156769
 51
180.0
  0
LINE
  5
33A
330
1F
100
AcDbEntity
  8
0
  6
Continuous
 62
     7
370
    15
100
AcDbLine
 10
2203.9203528155
 20
1130.9602501277
 30
0.0
 11
2247.4455717792
 21
1131.1395408991
 31
0.0
  0
ARC
  5
33B
330
1F
100
AcDbEntity
  8
0
  6
Continuous
 62
     7
370
    15
100
AcDbCircle
 10
2247.4530726949
 20
1129.3394994455
 30
0.0
 40
1.799999999999866
100
AcDbArc
 50
54.4753000235
 51
90.2359156769
  0
ARC
  5
33C
330
1F
100
AcDbEntity
  8
0
  6
Continuous
 62
     7
370
    15
100
AcDbCircle
 10
2250.4425948231
 20
1133.5268354058
 30
0.0
 40
3.345000000000157
100
AcDbArc
 50
234.4753000235
 51
35.9454043733
  0
ARC
  5
33D
330
1F
100
AcDbEntity
  8
0
  6
Continuous
 62
     7
370
    15
100
AcDbCircle
 10
2254.6078670062
 20
1136.5470229233
 30
0.0
 40
1.799999999999284
100
AcDbArc
 50
180.0
 51
215.9454043733
  0
LINE
  5
33E
330
1F
100
AcDbEntity
  8
0
  6
Continuous
 62
     7
370
    15
100
AcDbLine
 10
2252.8078440417
 20
1136.5469934825
 30
0.0
 11
2252.8078440417
 21
1144.1160681132
 31
0.0
  0
ARC
  5
33F
330
1F
100
AcDbEntity
  8
0
  6
Continuous
 62
     7
370
    15
100
AcDbCircle
 10
2254.6078670062
 20
1144.1161035222
 30
0.0
 40
1.799999999999417
100
AcDbArc
 50
144.0545956267
 51
180.0
  0
ARC
  5
340
330
1F
100
AcDbEntity
  8
0
  6
Continuous
 62
     7
370
    15
100
AcDbCircle
 10
2250.4425948231
 20
1147.1362910397
 30
0.0
 40
3.345000000000085
100
AcDbArc
 50
324.0545956267
 51
125.5246999765
  0
ARC
  5
341
330
1F
100
AcDbEntity
  8
0
  6
Continuous
 62
     7
370
    15
100
AcDbCircle
 10
2247.4530726949
 20
1151.323627
 30
0.0
 40
1.800000000000237
100
AcDbArc
 50
269.7640843231
 51
305.5246999765
  0
LINE
  5
342
330
1F
100
AcDbEntity
  8
0
  6
Continuous
 62
     7
370
    15
100
AcDbLine
 10
2247.4455717792
 20
1149.5236399058
 30
0.0
 11
2203.9203528155
 21
1149.702811468
 31
0.0
  0
ARC
  5
343
330
1F
100
AcDbEntity
  8
0
  6
Continuous
 62
     7
370
    15
100
AcDbCircle
 10
2203.9491170062
 20
1156.7027998615
 30
0.0
 40
7.000000000000455
100
AcDbArc
 50
180.0
 51
269.7640843231
  0
LINE
  5
344
330
1F
100
AcDbEntity
  8
0
  6
Continuous
 62
     7
370
    15
100
AcDbLine
 10
2196.9492319812
 20
1193.3315040949
 30
0.0
 11
2196.9492319812
 21
1156.7027809504
 31
0.0
  0
LINE
  5
345
330
1F
100
AcDbEntity
  8
0
  6
Continuous
 62
     7
370
    15
100
AcDbLine
 10
2413.3841875781
 20
1200.3315927867
 30
0.0
 11
2203.9492014636
 21
1200.3315927867
 31
0.0
  0
ARC
  5
346
330
1F
100
AcDbEntity
  8
0
  6
Continuous
 62
     7
370
    15
100
AcDbCircle
 10
2413.3841170062
 20
1193.3315632228
 30
0.0
 40
7.0
100
AcDbArc
 50
0.0
 51
90.0
  0
LINE
  5
347
330
1F
100
AcDbEntity
  8
0
  6
Continuous
 62
     7
370
    15
100
AcDbLine
 10
2420.3841570605
 20
1156.7027809504
 30
0.0
 11
2420.3841570605
 21
1193.3315040949
 31
0.0
  0
ARC
  5
348
330
1F
100
AcDbEntity
  8
0
  6
Continuous
 62
     7
370
    15
100
AcDbCircle
 10
2413.3841170062
 20
1156.7027998615
 30
0.0
 40
6.999999999999764
100
AcDbArc
 50
270.2359156769
 51
0.0
  0
LINE
  5
349
330
1F
100
AcDbEntity
  8
0
  6
Continuous
 62
     7
370
    15
100
AcDbLine
 10
2369.887578844
 20
1149.5236399058
 30
0.0
 11
2413.4130362262
 21
1149.702811468
 31
0.0
  0
ARC
  5
34A
330
1F
100
AcDbEntity
  8
0
  6
Continuous
 62
     7
370
    15
100
AcDbCircle
 10
2369.8801613176
 20
1151.323627
 30
0.0
 40
1.800000000000765
100
AcDbArc
 50
234.4753000235
 51
270.2359156769
  0
ARC
  5
34B
330
1F
100
AcDbEntity
  8
0
  6
Continuous
 62
     7
370
    15
100
AcDbCircle
 10
2366.8906391893
 20
1147.1362910397
 30
0.0
 40
3.345000000000085
100
AcDbArc
 50
54.4753000235
 51
215.9454043733
  0
ARC
  5
34C
330
1F
100
AcDbEntity
  8
0
  6
Continuous
 62
     7
370
    15
100
AcDbCircle
 10
2362.7253670062
 20
1144.1161035222
 30
0.0
 40
1.800000000000182
100
AcDbArc
 50
0.0
 51
35.9454043733
  0
LINE
  5
34D
330
1F
100
AcDbEntity
  8
0
  6
Continuous
 62
     7
370
    15
100
AcDbLine
 10
2364.5253065814
 20
1136.5469934825
 30
0.0
 11
2364.5253065814
 21
1144.1160681132
 31
0.0
  0
ARC
  5
34E
330
1F
100
AcDbEntity
  8
0
  6
Continuous
 62
     7
370
    15
100
AcDbCircle
 10
2362.7253670062
 20
1136.5470229233
 30
0.0
 40
1.800000000000182
100
AcDbArc
 50
324.0545956267
 51
0.0
  0
ARC
  5
34F
330
1F
100
AcDbEntity
  8
0
  6
Continuous
 62
     7
370
    15
100
AcDbCircle
 10
2366.8906391893
 20
1133.5268354058
 30
0.0
 40
3.345000000000085
100
AcDbArc
 50
144.0545956267
 51
305.5246999765
  0
ARC
  5
350
330
1F
100
AcDbEntity
  8
0
  6
Continuous
 62
     7
370
    15
100
AcDbCircle
 10
2369.8801613176
 20
1129.3394994455
 30
0.0
 40
1.800000000000765
100
AcDbArc
 50
89.7640843231
 51
125.5246999765
  0
LINE
  5
351
330
1F
100
AcDbEntity
  8
0
  6
Continuous
 62
     7
370
    15
100
AcDbLine
 10
2413.4130362262
 20
1130.9602501277
 30
0.0
 11
2369.887578844
 21
1131.1395408991
 31
0.0
  0
ARC
  5
352
330
1F
100
AcDbEntity
  8
0
  6
Continuous
 62
     7
370
    15
100
AcDbCircle
 10
2413.3841170062
 20
1123.960326584
 30
0.0
 40
6.999999999999991
100
AcDbArc
 50
0.0
 51
89.7640843231
  0
LINE
  5
353
330
1F
100
AcDbEntity
  8
0
  6
Continuous
 62
     7
370
    15
100
AcDbLine
 10
2420.3841570605
 20
567.5361397151
 30
0.0
 11
2420.3841570605
 21
1123.9602806452
 31
0.0
  0
ARC
  5
354
330
1F
100
AcDbEntity
  8
0
  6
Continuous
 62
     7
370
    15
100
AcDbCircle
 10
2413.3841170062
 20
567.5361331949
 30
0.0
 40
6.999999999999991
100
AcDbArc
 50
270.2359156769
 51
0.0
  0
LINE
  5
355
330
1F
100
AcDbEntity
  8
0
  6
Continuous
 62
     7
370
    15
100
AcDbLine
 10
2413.4130362262
 20
560.5361702326
 30
0.0
 11
2369.887578844
 21
560.3569986704
 31
0.0
  0
ARC
  5
356
330
1F
100
AcDbEntity
  8
0
  6
Continuous
 62
     7
370
    15
100
AcDbCircle
 10
2369.8801613176
 20
562.1569603333
 30
0.0
 40
1.80000000000058
100
AcDbArc
 50
234.4753000235
 51
270.2359156769
  0
ARC
  5
357
330
1F
100
AcDbEntity
  8
0
  6
Continuous
 62
     7
370
    15
100
AcDbCircle
 10
2366.8906391893
 20
557.969624373
 30
0.0
 40
3.344999999999972
100
AcDbArc
 50
54.4753000235
 51
215.9454043733
  0
ARC
  5
358
330
1F
100
AcDbEntity
  8
0
  6
Continuous
 62
     7
370
    15
100
AcDbCircle
 10
2362.7253670062
 20
554.9494368555
 30
0.0
 40
1.800000000000182
100
AcDbArc
 50
0.0
 51
35.9454043733
  0
LINE
  5
359
330
1F
100
AcDbEntity
  8
0
  6
Continuous
 62
     7
370
    15
100
AcDbLine
 10
2364.5253065814
 20
554.9494268778
 30
0.0
 11
2364.5253065814
 21
547.3803522471
 31
0.0
  0
ARC
  5
35A
330
1F
100
AcDbEntity
  8
0
  6
Continuous
 62
     7
370
    15
100
AcDbCircle
 10
2362.7253670062
 20
547.3803562567
 30
0.0
 40
1.800000000000182
100
AcDbArc
 50
324.0545956267
 51
0.0
  0
ARC
  5
35B
330
1F
100
AcDbEntity
  8
0
  6
Continuous
 62
     7
370
    15
100
AcDbCircle
 10
2366.8906391893
 20
544.3601687392
 30
0.0
 40
3.345000000000065
100
AcDbArc
 50
144.0545956267
 51
305.5246999765
  0
ARC
  5
35C
330
1F
100
AcDbEntity
  8
0
  6
Continuous
 62
     7
370
    15
100
AcDbCircle
 10
2369.8801613176
 20
540.1728327789
 30
0.0
 40
1.800000000000487
100
AcDbArc
 50
89.7640843231
 51
125.5246999765
  0
LINE
  5
35D
330
1F
100
AcDbEntity
  8
0
  6
Continuous
 62
     7
370
    15
100
AcDbLine
 10
2369.887578844
 20
541.9728400591
 30
0.0
 11
2413.4130362262
 21
541.7936088923
 31
0.0
  0
ARC
  5
35E
330
1F
100
AcDbEntity
  8
0
  6
Continuous
 62
     7
370
    15
100
AcDbCircle
 10
2413.3841170062
 20
534.7936599173
 30
0.0
 40
6.999999999999991
100
AcDbArc
 50
0.0
 51
89.7640843231
  0
LINE
  5
35F
330
1F
100
AcDbEntity
  8
0
  6
Continuous
 62
     7
370
    15
100
AcDbLine
 10
2420.3841570605
 20
534.7936394099
 30
0.0
 11
2420.3841570605
 21
498.164886463
 31
0.0
  0
ARC
  5
360
330
1F
100
AcDbEntity
  8
0
  6
Continuous
 62
     7
370
    15
100
AcDbCircle
 10
2413.3841170062
 20
498.1648965561
 30
0.0
 40
7.0
100
AcDbArc
 50
270.0
 51
0.0
  0
LINE
  5
361
330
1F
100
AcDbEntity
  8
0
  6
Continuous
 62
     7
370
    15
100
AcDbLine
 10
2413.3841875781
 20
491.1648871783
 30
0.0
 11
2203.9492014636
 21
491.1648871783
 31
0.0
  0
ARC
  5
362
330
1F
100
AcDbEntity
  8
0
  6
Continuous
 62
     7
370
    15
100
AcDbCircle
 10
2203.9491170062
 20
498.1648965561
 30
0.0
 40
7.000000000000455
100
AcDbArc
 50
180.0
 51
270.0
  0
LINE
  5
363
330
1F
100
AcDbEntity
  8
0
  6
Continuous
 62
     7
370
    15
100
AcDbLine
 10
2196.9492319812
 20
498.164886463
 30
0.0
 11
2196.9492319812
 21
534.7936394099
 31
0.0
  0
ARC
  5
364
330
1F
100
AcDbEntity
  8
0
  6
Continuous
 62
     7
370
    15
100
AcDbCircle
 10
2203.9491170062
 20
534.7936599173
 30
0.0
 40
7.000000000000455
100
AcDbArc
 50
90.2359156769
 51
180.0
  0
LINE
  5
365
330
1F
100
AcDbEntity
  8
0
  6
Continuous
 62
     7
370
    15
100
AcDbLine
 10
2247.4455717792
 20
541.9728400591
 30
0.0
 11
2203.9203528155
 21
541.7936088923
 31
0.0
  0
ARC
  5
366
330
1F
100
AcDbEntity
  8
0
  6
Continuous
 62
     7
370
    15
100
AcDbCircle
 10
2247.4530726949
 20
540.1728327789
 30
0.0
 40
1.799999999999984
100
AcDbArc
 50
54.4753000235
 51
90.2359156769
  0
ARC
  5
367
330
1F
100
AcDbEntity
  8
0
  6
Continuous
 62
     7
370
    15
100
AcDbCircle
 10
2250.4425948231
 20
544.3601687392
 30
0.0
 40
3.345000000000065
100
AcDbArc
 50
234.4753000235
 51
35.9454043733
  0
ARC
  5
368
330
1F
100
AcDbEntity
  8
0
  6
Continuous
 62
     7
370
    15
100
AcDbCircle
 10
2254.6078670062
 20
547.3803562567
 30
0.0
 40
1.800000000000182
100
AcDbArc
 50
180.0
 51
215.9454043733
  0
LINE
  5
369
330
1F
100
AcDbEntity
  8
0
  6
Continuous
 62
     7
370
    15
100
AcDbLine
 10
2252.8078440417
 20
554.9494268778
 30
0.0
 11
2252.8078440417
 21
547.3803522471
 31
0.0
  0
ARC
  5
36A
330
1F
100
AcDbEntity
  8
0
  6
Continuous
 62
     7
370
    15
100
AcDbCircle
 10
2254.6078670062
 20
554.9494368555
 30
0.0
 40
1.800000000000182
100
AcDbArc
 50
144.0545956267
 51
180.0
  0
ARC
  5
36B
330
1F
100
AcDbEntity
  8
0
  6
Continuous
 62
     7
370
    15
100
AcDbCircle
 10
2250.4425948231
 20
557.969624373
 30
0.0
 40
3.345000000000151
100
AcDbArc
 50
324.0545956267
 51
125.5246999765
  0
ARC
  5
36C
330
1F
100
AcDbEntity
  8
0
  6
Continuous
 62
     7
370
    15
100
AcDbCircle
 10
2247.4530726949
 20
562.1569603333
 30
0.0
 40
1.800000000000051
100
AcDbArc
 50
269.7640843231
 51
305.5246999765
  0
LINE
  5
36D
330
1F
100
AcDbEntity
  8
0
  6
Continuous
 62
     7
370
    15
100
AcDbLine
 10
2203.9203528155
 20
560.5361702326
 30
0.0
 11
2247.4455717792
 21
560.3569986704
 31
0.0
  0
ARC
  5
36E
330
1F
100
AcDbEntity
  8
0
  6
Continuous
 62
     7
370
    15
100
AcDbCircle
 10
2203.9491170062
 20
567.5361331949
 30
0.0
 40
7.000000000000455
100
AcDbArc
 50
180.0
 51
269.7640843231
  0
LINE
  5
36F
330
1F
100
AcDbEntity
  8
0
  6
Continuous
 62
     7
370
    15
100
AcDbLine
 10
2196.9492319812
 20
567.5361397151
 30
0.0
 11
2196.9492319812
 21
652.6270153407
 31
0.0
  0
ARC
  5
370
330
1F
100
AcDbEntity
  8
0
  6
Continuous
 62
     7
370
    15
100
AcDbCircle
 10
2203.9491170062
 20
652.6269932506
 30
0.0
 40
7.000000000000455
100
AcDbArc
 50
90.2359156769
 51
180.0
  0
LINE
  5
371
330
1F
100
AcDbEntity
  8
0
  6
Continuous
 62
     7
370
    15
100
AcDbLine
 10
2247.4455717792
 20
659.8061563853
 30
0.0
 11
2203.9203528155
 21
659.6269252184
 31
0.0
  0
ARC
  5
372
330
1F
100
AcDbEntity
  8
0
  6
Continuous
 62
     7
370
    15
100
AcDbCircle
 10
2247.4530726949
 20
658.0061661122
 30
0.0
 40
1.800000000000051
100
AcDbArc
 50
54.4753000235
 51
90.2359156769
  0
ARC
  5
373
330
1F
100
AcDbEntity
  8
0
  6
Continuous
 62
     7
370
    15
100
AcDbCircle
 10
2250.4425948231
 20
662.1935020725
 30
0.0
 40
3.345000000000151
100
AcDbArc
 50
234.4753000235
 51
35.9454043733
  0
ARC
  5
374
330
1F
100
AcDbEntity
  8
0
  6
Continuous
 62
     7
370
    15
100
AcDbCircle
 10
2254.6078670062
 20
665.21368959
 30
0.0
 40
1.799999999999351
100
AcDbArc
 50
180.0
 51
215.9454043733
  0
LINE
  5
375
330
1F
100
AcDbEntity
  8
0
  6
Continuous
 62
     7
370
    15
100
AcDbLine
 10
2252.8078440417
 20
672.782743204
 30
0.0
 11
2252.8078440417
 21
665.2136685732
 31
0.0
  0
ARC
  5
376
330
1F
100
AcDbEntity
  8
0
  6
Continuous
 62
     7
370
    15
100
AcDbCircle
 10
2254.6078670062
 20
672.7827701888
 30
0.0
 40
1.799999999999351
100
AcDbArc
 50
144.0545956267
 51
180.0
  0
ARC
  5
377
330
1F
100
AcDbEntity
  8
0
  6
Continuous
 62
     7
370
    15
100
AcDbCircle
 10
2250.4425948231
 20
675.8029577063
 30
0.0
 40
3.345000000000085
100
AcDbArc
 50
324.0545956267
 51
125.5246999765
  0
ARC
  5
378
330
1F
100
AcDbEntity
  8
0
  6
Continuous
 62
     7
370
    15
100
AcDbCircle
 10
2247.4530726949
 20
679.9902936666
 30
0.0
 40
1.799999999999959
100
AcDbArc
 50
269.7640843231
 51
305.5246999765
  0
LINE
  5
379
330
1F
100
AcDbEntity
  8
0
  6
Continuous
 62
     7
370
    15
100
AcDbLine
 10
2203.9203528155
 20
678.3695461634
 30
0.0
 11
2247.4455717792
 21
678.1903149966
 31
0.0
  0
ARC
  5
37A
330
1F
100
AcDbEntity
  8
0
  6
Continuous
 62
     7
370
    15
100
AcDbCircle
 10
2203.9491170062
 20
685.3694665282
 30
0.0
 40
7.000000000000455
100
AcDbArc
 50
180.0
 51
269.7640843231
  0
LINE
  5
37B
330
1F
100
AcDbEntity
  8
0
  6
Continuous
 62
     7
370
    15
100
AcDbLine
 10
2196.9492319812
 20
685.3694560412
 30
0.0
 11
2196.9492319812
 21
770.4603316668
 31
0.0
  0
ARC
  5
37C
330
1F
100
AcDbEntity
  8
0
  6
Continuous
 62
     7
370
    15
100
AcDbCircle
 10
2203.9491170062
 20
770.460326584
 30
0.0
 40
7.000000000000455
100
AcDbArc
 50
90.2359156769
 51
180.0
  0
LINE
  5
37D
330
1F
100
AcDbEntity
  8
0
  6
Continuous
 62
     7
370
    15
100
AcDbLine
 10
2247.4455717792
 20
777.6394727114
 30
0.0
 11
2203.9203528155
 21
777.4602415446
 31
0.0
  0
ARC
  5
37E
330
1F
100
AcDbEntity
  8
0
  6
Continuous
 62
     7
370
    15
100
AcDbCircle
 10
2247.4530726949
 20
775.8394994455
 30
0.0
 40
1.799999999999984
100
AcDbArc
 50
54.4753000235
 51
90.2359156769
  0
ARC
  5
37F
330
1F
100
AcDbEntity
  8
0
  6
Continuous
 62
     7
370
    15
100
AcDbCircle
 10
2250.4425948231
 20
780.0268354058
 30
0.0
 40
3.345000000000085
100
AcDbArc
 50
234.4753000235
 51
35.9454043733
  0
ARC
  5
380
330
1F
100
AcDbEntity
  8
0
  6
Continuous
 62
     7
370
    15
100
AcDbCircle
 10
2254.6078670062
 20
783.0470229233
 30
0.0
 40
1.799999999999351
100
AcDbArc
 50
180.0
 51
215.9454043733
  0
LINE
  5
381
330
1F
100
AcDbEntity
  8
0
  6
Continuous
 62
     7
370
    15
100
AcDbLine
 10
2252.8078440417
 20
790.6161191348
 30
0.0
 11
2252.8078440417
 21
783.047044504
 31
0.0
  0
ARC
  5
382
330
1F
100
AcDbEntity
  8
0
  6
Continuous
 62
     7
370
    15
100
AcDbCircle
 10
2254.6078670062
 20
790.6161035222
 30
0.0
 40
1.799999999999351
100
AcDbArc
 50
144.0545956267
 51
180.0
  0
ARC
  5
383
330
1F
100
AcDbEntity
  8
0
  6
Continuous
 62
     7
370
    15
100
AcDbCircle
 10
2250.4425948231
 20
793.6362910397
 30
0.0
 40
3.345000000000085
100
AcDbArc
 50
324.0545956267
 51
125.5246999765
  0
ARC
  5
384
330
1F
100
AcDbEntity
  8
0
  6
Continuous
 62
     7
370
    15
100
AcDbCircle
 10
2247.4530726949
 20
797.823627
 30
0.0
 40
1.800000000000098
100
AcDbArc
 50
269.7640843231
 51
305.5246999765
  0
LINE
  5
385
330
1F
100
AcDbEntity
  8
0
  6
Continuous
 62
     7
370
    15
100
AcDbLine
 10
2203.9203528155
 20
796.2028624896
 30
0.0
 11
2247.4455717792
 21
796.0236313227
 31
0.0
  0
ARC
  5
386
330
1F
100
AcDbEntity
  8
0
  6
Continuous
 62
     7
370
    15
100
AcDbCircle
 10
2203.9491170062
 20
803.2027998615
 30
0.0
 40
7.000000000000455
100
AcDbArc
 50
180.0
 51
269.7640843231
  0
LINE
  5
387
330
1F
100
AcDbEntity
  8
0
  6
Continuous
 62
     7
370
    15
100
AcDbLine
 10
2196.9492319812
 20
888.293647993
 30
0.0
 11
2196.9492319812
 21
803.2027723673
 31
0.0
  0
ARC
  5
388
330
1F
100
AcDbEntity
  8
0
  6
Continuous
 62
     7
370
    15
100
AcDbCircle
 10
2203.9491170062
 20
888.2936599173
 30
0.0
 40
7.000000000000455
100
AcDbArc
 50
90.2359156769
 51
180.0
  0
LINE
  5
389
330
1F
100
AcDbEntity
  8
0
  6
Continuous
 62
     7
370
    15
100
AcDbLine
 10
2203.9203528155
 20
895.2936174754
 30
0.0
 11
2247.4455717792
 21
895.4727890376
 31
0.0
  0
ARC
  5
38A
330
1F
100
AcDbEntity
  8
0
  6
Continuous
 62
     7
370
    15
100
AcDbCircle
 10
2203.9491170062
 20
1193.3315632228
 30
0.0
 40
7.000000000000455
100
AcDbArc
 50
90.0
 51
180.0
  0
ARC
  5
38B
330
1F
100
AcDbEntity
  8
0
  6
Continuous
 62
     7
370
    15
100
AcDbCircle
 10
2027.5776613176
 20
797.823627
 30
0.0
 40
1.800000000000098
100
AcDbArc
 50
234.4753000235
 51
270.2359156769
  0
ARC
  5
38C
330
1F
100
AcDbEntity
  8
0
  6
Continuous
 62
     7
370
    15
100
AcDbCircle
 10
2024.5881391893
 20
793.6362910397
 30
0.0
 40
3.345000000000085
100
AcDbArc
 50
54.4753000235
 51
215.9454043733
  0
ARC
  5
38D
330
1F
100
AcDbEntity
  8
0
  6
Continuous
 62
     7
370
    15
100
AcDbCircle
 10
2020.4228670062
 20
790.6161035222
 30
0.0
 40
1.799999999999535
100
AcDbArc
 50
0.0
 51
35.9454043733
  0
LINE
  5
38E
330
1F
100
AcDbEntity
  8
0
  6
Continuous
 62
     7
370
    15
100
AcDbLine
 10
2022.2229841937
 20
790.6161191348
 30
0.0
 11
2022.2229841937
 21
783.047044504
 31
0.0
  0
ARC
  5
38F
330
1F
100
AcDbEntity
  8
0
  6
Continuous
 62
     7
370
    15
100
AcDbCircle
 10
2020.4228670062
 20
783.0470229233
 30
0.0
 40
1.799999999999535
100
AcDbArc
 50
324.0545956267
 51
0.0
  0
ARC
  5
390
330
1F
100
AcDbEntity
  8
0
  6
Continuous
 62
     7
370
    15
100
AcDbCircle
 10
2024.5881391893
 20
780.0268354058
 30
0.0
 40
3.345000000000085
100
AcDbArc
 50
144.0545956267
 51
305.5246999765
  0
ARC
  5
391
330
1F
100
AcDbEntity
  8
0
  6
Continuous
 62
     7
370
    15
100
AcDbCircle
 10
2027.5776613176
 20
775.8394994455
 30
0.0
 40
1.799999999999985
100
AcDbArc
 50
89.7640843231
 51
125.5246999765
  0
LINE
  5
392
330
1F
100
AcDbEntity
  8
0
  6
Continuous
 62
     7
370
    15
100
AcDbLine
 10
2027.5850180377
 20
777.6394727114
 30
0.0
 11
2071.1104754199
 21
777.4602415446
 31
0.0
  0
ARC
  5
393
330
1F
100
AcDbEntity
  8
0
  6
Continuous
 62
     7
370
    15
100
AcDbCircle
 10
2071.0816170062
 20
770.460326584
 30
0.0
 40
7.000000000000455
100
AcDbArc
 50
0.0
 51
89.7640843231
  0
ARC
  5
394
330
1F
100
AcDbEntity
  8
0
  6
Continuous
 62
     7
370
    15
100
AcDbCircle
 10
2071.0816170062
 20
685.3694665282
 30
0.0
 40
7.000000000000455
100
AcDbArc
 50
270.2359156769
 51
0.0
  0
LINE
  5
395
330
1F
100
AcDbEntity
  8
0
  6
Continuous
 62
     7
370
    15
100
AcDbLine
 10
2071.1104754199
 20
678.3695461634
 30
0.0
 11
2027.5850180377
 21
678.1903149966
 31
0.0
  0
ARC
  5
396
330
1F
100
AcDbEntity
  8
0
  6
Continuous
 62
     7
370
    15
100
AcDbCircle
 10
2027.5776613176
 20
679.9902936666
 30
0.0
 40
1.799999999999871
100
AcDbArc
 50
234.4753000235
 51
270.2359156769
  0
ARC
  5
397
330
1F
100
AcDbEntity
  8
0
  6
Continuous
 62
     7
370
    15
100
AcDbCircle
 10
2024.5881391893
 20
675.8029577063
 30
0.0
 40
3.345000000000085
100
AcDbArc
 50
54.4753000235
 51
215.9454043733
  0
ARC
  5
398
330
1F
100
AcDbEntity
  8
0
  6
Continuous
 62
     7
370
    15
100
AcDbCircle
 10
2020.4228670062
 20
672.7827701888
 30
0.0
 40
1.799999999999535
100
AcDbArc
 50
0.0
 51
35.9454043733
  0
LINE
  5
399
330
1F
100
AcDbEntity
  8
0
  6
Continuous
 62
     7
370
    15
100
AcDbLine
 10
2022.2229841937
 20
672.782743204
 30
0.0
 11
2022.2229841937
 21
665.2136685732
 31
0.0
  0
ARC
  5
39A
330
1F
100
AcDbEntity
  8
0
  6
Continuous
 62
     7
370
    15
100
AcDbCircle
 10
2020.4228670062
 20
665.21368959
 30
0.0
 40
1.799999999999535
100
AcDbArc
 50
324.0545956267
 51
0.0
  0
ARC
  5
39B
330
1F
100
AcDbEntity
  8
0
  6
Continuous
 62
     7
370
    15
100
AcDbCircle
 10
2024.5881391893
 20
662.1935020725
 30
0.0
 40
3.345000000000151
100
AcDbArc
 50
144.0545956267
 51
305.5246999765
  0
ARC
  5
39C
330
1F
100
AcDbEntity
  8
0
  6
Continuous
 62
     7
370
    15
100
AcDbCircle
 10
2027.5776613176
 20
658.0061661122
 30
0.0
 40
1.799999999999985
100
AcDbArc
 50
89.7640843231
 51
125.5246999765
  0
LINE
  5
39D
330
1F
100
AcDbEntity
  8
0
  6
Continuous
 62
     7
370
    15
100
AcDbLine
 10
2027.5850180377
 20
659.8061563853
 30
0.0
 11
2071.1104754199
 21
659.6269252184
 31
0.0
  0
ARC
  5
39E
330
1F
100
AcDbEntity
  8
0
  6
Continuous
 62
     7
370
    15
100
AcDbCircle
 10
2071.0816170062
 20
652.6269932506
 30
0.0
 40
7.000000000000455
100
AcDbArc
 50
0.0
 51
89.7640843231
  0
ARC
  5
39F
330
1F
100
AcDbEntity
  8
0
  6
Continuous
 62
     7
370
    15
100
AcDbCircle
 10
2071.0816170062
 20
567.5361331949
 30
0.0
 40
7.000000000000455
100
AcDbArc
 50
270.2359156769
 51
0.0
  0
LINE
  5
3A0
330
1F
100
AcDbEntity
  8
0
  6
Continuous
 62
     7
370
    15
100
AcDbLine
 10
2071.1104754199
 20
560.5361702326
 30
0.0
 11
2027.5850180377
 21
560.3569986704
 31
0.0
  0
ARC
  5
3A1
330
1F
100
AcDbEntity
  8
0
  6
Continuous
 62
     7
370
    15
100
AcDbCircle
 10
2027.5776613176
 20
562.1569603333
 30
0.0
 40
1.799999999999985
100
AcDbArc
 50
234.4753000235
 51
270.2359156769
  0
ARC
  5
3A2
330
1F
100
AcDbEntity
  8
0
  6
Continuous
 62
     7
370
    15
100
AcDbCircle
 10
2024.5881391893
 20
557.969624373
 30
0.0
 40
3.345000000000151
100
AcDbArc
 50
54.4753000235
 51
215.9454043733
  0
ARC
  5
3A3
330
1F
100
AcDbEntity
  8
0
  6
Continuous
 62
     7
370
    15
100
AcDbCircle
 10
2020.4228670062
 20
554.9494368555
 30
0.0
 40
1.799999999999468
100
AcDbArc
 50
0.0
 51
35.9454043733
  0
LINE
  5
3A4
330
1F
100
AcDbEntity
  8
0
  6
Continuous
 62
     7
370
    15
100
AcDbLine
 10
2022.2229841937
 20
554.9494268778
 30
0.0
 11
2022.2229841937
 21
547.3803522471
 31
0.0
  0
ARC
  5
3A5
330
1F
100
AcDbEntity
  8
0
  6
Continuous
 62
     7
370
    15
100
AcDbCircle
 10
2020.4228670062
 20
547.3803562567
 30
0.0
 40
1.799999999999601
100
AcDbArc
 50
324.0545956267
 51
0.0
  0
ARC
  5
3A6
330
1F
100
AcDbEntity
  8
0
  6
Continuous
 62
     7
370
    15
100
AcDbCircle
 10
2024.5881391893
 20
544.3601687392
 30
0.0
 40
3.345000000000065
100
AcDbArc
 50
144.0545956267
 51
305.5246999765
  0
ARC
  5
3A7
330
1F
100
AcDbEntity
  8
0
  6
Continuous
 62
     7
370
    15
100
AcDbCircle
 10
2027.5776613176
 20
540.1728327789
 30
0.0
 40
1.799999999999985
100
AcDbArc
 50
89.7640843231
 51
125.5246999765
  0
LINE
  5
3A8
330
1F
100
AcDbEntity
  8
0
  6
Continuous
 62
     7
370
    15
100
AcDbLine
 10
2027.5850180377
 20
541.9728400591
 30
0.0
 11
2071.1104754199
 21
541.7936088923
 31
0.0
  0
ARC
  5
3A9
330
1F
100
AcDbEntity
  8
0
  6
Continuous
 62
     7
370
    15
100
AcDbCircle
 10
2071.0816170062
 20
534.7936599173
 30
0.0
 40
7.000000000000455
100
AcDbArc
 50
0.0
 51
89.7640843231
  0
LINE
  5
3AA
330
1F
100
AcDbEntity
  8
0
  6
Continuous
 62
     7
370
    15
100
AcDbLine
 10
2078.0815962543
 20
498.164886463
 30
0.0
 11
2078.0815962543
 21
534.7936394099
 31
0.0
  0
ARC
  5
3AB
330
1F
100
AcDbEntity
  8
0
  6
Continuous
 62
     7
370
    15
100
AcDbCircle
 10
2071.0816170062
 20
498.1648965561
 30
0.0
 40
7.000000000000455
100
AcDbArc
 50
270.0
 51
0.0
  0
LINE
  5
3AC
330
1F
100
AcDbEntity
  8
0
  6
Continuous
 62
     7
370
    15
100
AcDbLine
 10
1861.6466406573
 20
491.1648871783
 30
0.0
 11
2071.0816267718
 21
491.1648871783
 31
0.0
  0
ARC
  5
3AD
330
1F
100
AcDbEntity
  8
0
  6
Continuous
 62
     7
370
    15
100
AcDbCircle
 10
1861.6466170062
 20
498.1648965561
 30
0.0
 40
7.000000000000227
100
AcDbArc
 50
180.0
 51
270.0
  0
ARC
  5
3AE
330
1F
100
AcDbEntity
  8
0
  6
Continuous
 62
     7
370
    15
100
AcDbCircle
 10
1861.6466170062
 20
534.7936599173
 30
0.0
 40
7.000000000000227
100
AcDbArc
 50
90.2359156769
 51
180.0
  0
LINE
  5
3AF
330
1F
100
AcDbEntity
  8
0
  6
Continuous
 62
     7
370
    15
100
AcDbLine
 10
1905.1431301822
 20
541.9728400591
 30
0.0
 11
1861.6177920093
 21
541.7936088923
 31
0.0
  0
ARC
  5
3B0
330
1F
100
AcDbEntity
  8
0
  6
Continuous
 62
     7
370
    15
100
AcDbCircle
 10
1905.1505726948
 20
540.1728327789
 30
0.0
 40
1.799999999999985
100
AcDbArc
 50
54.4753000235
 51
90.2359156769
  0
ARC
  5
3B1
330
1F
100
AcDbEntity
  8
0
  6
Continuous
 62
     7
370
    15
100
AcDbCircle
 10
1908.1400948231
 20
544.3601687392
 30
0.0
 40
3.345000000000289
100
AcDbArc
 50
234.4753000235
 51
35.9454043733
  0
ARC
  5
3B2
330
1F
100
AcDbEntity
  8
0
  6
Continuous
 62
     7
370
    15
100
AcDbCircle
 10
1912.3053670062
 20
547.3803562567
 30
0.0
 40
1.800000000000271
100
AcDbArc
 50
180.0
 51
215.9454043733
  0
LINE
  5
3B3
330
1F
100
AcDbEntity
  8
0
  6
Continuous
 62
     7
370
    15
100
AcDbLine
 10
1910.5054024448
 20
554.9494268778
 30
0.0
 11
1910.5054024448
 21
547.3803522471
 31
0.0
  0
ARC
  5
3B4
330
1F
100
AcDbEntity
  8
0
  6
Continuous
 62
     7
370
    15
100
AcDbCircle
 10
1912.3053670062
 20
554.9494368555
 30
0.0
 40
1.800000000000204
100
AcDbArc
 50
144.0545956267
 51
180.0
  0
ARC
  5
3B5
330
1F
100
AcDbEntity
  8
0
  6
Continuous
 62
     7
370
    15
100
AcDbCircle
 10
1908.1400948231
 20
557.969624373
 30
0.0
 40
3.345000000000196
100
AcDbArc
 50
324.0545956267
 51
125.5246999765
  0
ARC
  5
3B6
330
1F
100
AcDbEntity
  8
0
  6
Continuous
 62
     7
370
    15
100
AcDbCircle
 10
1905.1505726948
 20
562.1569603333
 30
0.0
 40
1.800000000000098
100
AcDbArc
 50
269.7640843231
 51
305.5246999765
  0
LINE
  5
3B7
330
1F
100
AcDbEntity
  8
0
  6
Continuous
 62
     7
370
    15
100
AcDbLine
 10
1861.6177920093
 20
560.5361702326
 30
0.0
 11
1905.1431301822
 21
560.3569986704
 31
0.0
  0
ARC
  5
3B8
330
1F
100
AcDbEntity
  8
0
  6
Continuous
 62
     7
370
    15
100
AcDbCircle
 10
1861.6466170062
 20
567.5361331949
 30
0.0
 40
7.000000000000227
100
AcDbArc
 50
180.0
 51
269.7640843231
  0
ARC
  5
3B9
330
1F
100
AcDbEntity
  8
0
  6
Continuous
 62
     7
370
    15
100
AcDbCircle
 10
1861.6466170062
 20
1123.960326584
 30
0.0
 40
7.0
100
AcDbArc
 50
90.2359156769
 51
180.0
  0
LINE
  5
3BA
330
1F
100
AcDbEntity
  8
0
  6
Continuous
 62
     7
370
    15
100
AcDbLine
 10
1861.6177920093
 20
1130.9602501277
 30
0.0
 11
1905.1431301822
 21
1131.1395408991
 31
0.0
  0
ARC
  5
3BB
330
1F
100
AcDbEntity
  8
0
  6
Continuous
 62
     7
370
    15
100
AcDbCircle
 10
1905.1505726948
 20
1129.3394994455
 30
0.0
 40
1.800000000000237
100
AcDbArc
 50
54.4753000235
 51
90.2359156769
  0
ARC
  5
3BC
330
1F
100
AcDbEntity
  8
0
  6
Continuous
 62
     7
370
    15
100
AcDbCircle
 10
1908.1400948231
 20
1133.5268354058
 30
0.0
 40
3.344999999999901
100
AcDbArc
 50
234.4753000235
 51
35.9454043733
  0
ARC
  5
3BD
330
1F
100
AcDbEntity
  8
0
  6
Continuous
 62
     7
370
    15
100
AcDbCircle
 10
1912.3053670062
 20
1136.5470229233
 30
0.0
 40
1.800000000000182
100
AcDbArc
 50
180.0
 51
215.9454043733
  0
LINE
  5
3BE
330
1F
100
AcDbEntity
  8
0
  6
Continuous
 62
     7
370
    15
100
AcDbLine
 10
1910.5054024448
 20
1136.5469934825
 30
0.0
 11
1910.5054024448
 21
1144.1160681132
 31
0.0
  0
ARC
  5
3BF
330
1F
100
AcDbEntity
  8
0
  6
Continuous
 62
     7
370
    15
100
AcDbCircle
 10
1912.3053670062
 20
1144.1161035222
 30
0.0
 40
1.800000000000182
100
AcDbArc
 50
144.0545956267
 51
180.0
  0
ARC
  5
3C0
330
1F
100
AcDbEntity
  8
0
  6
Continuous
 62
     7
370
    15
100
AcDbCircle
 10
1908.1400948231
 20
1147.1362910397
 30
0.0
 40
3.344999999999901
100
AcDbArc
 50
324.0545956267
 51
125.5246999765
  0
ARC
  5
3C1
330
1F
100
AcDbEntity
  8
0
  6
Continuous
 62
     7
370
    15
100
AcDbCircle
 10
1905.1505726948
 20
1151.323627
 30
0.0
 40
1.800000000000237
100
AcDbArc
 50
269.7640843231
 51
305.5246999765
  0
LINE
  5
3C2
330
1F
100
AcDbEntity
  8
0
  6
Continuous
 62
     7
370
    15
100
AcDbLine
 10
1905.1431301822
 20
1149.5236399058
 30
0.0
 11
1861.6177920093
 21
1149.702811468
 31
0.0
  0
ARC
  5
3C3
330
1F
100
AcDbEntity
  8
0
  6
Continuous
 62
     7
370
    15
100
AcDbCircle
 10
1861.6466170062
 20
1156.7027998615
 30
0.0
 40
7.0
100
AcDbArc
 50
180.0
 51
269.7640843231
  0
LINE
  5
3C4
330
1F
100
AcDbEntity
  8
0
  6
Continuous
 62
     7
370
    15
100
AcDbLine
 10
1854.6466711749
 20
1156.7027809504
 30
0.0
 11
1854.6466711749
 21
1193.3315040949
 31
0.0
  0
ARC
  5
3C5
330
1F
100
AcDbEntity
  8
0
  6
Continuous
 62
     7
370
    15
100
AcDbCircle
 10
1861.6466170062
 20
1193.3315632228
 30
0.0
 40
7.0
100
AcDbArc
 50
90.0
 51
180.0
  0
LINE
  5
3C6
330
1F
100
AcDbEntity
  8
0
  6
Continuous
 62
     7
370
    15
100
AcDbLine
 10
1861.6466406573
 20
1200.3315927867
 30
0.0
 11
2071.0816267718
 21
1200.3315927867
 31
0.0
  0
ARC
  5
3C7
330
1F
100
AcDbEntity
  8
0
  6
Continuous
 62
     7
370
    15
100
AcDbCircle
 10
2071.0816170062
 20
1193.3315632228
 30
0.0
 40
7.000000000000455
100
AcDbArc
 50
0.0
 51
90.0
  0
LINE
  5
3C8
330
1F
100
AcDbEntity
  8
0
  6
Continuous
 62
     7
370
    15
100
AcDbLine
 10
2078.0815962543
 20
1193.3315040949
 30
0.0
 11
2078.0815962543
 21
1156.7027809504
 31
0.0
  0
ARC
  5
3C9
330
1F
100
AcDbEntity
  8
0
  6
Continuous
 62
     7
370
    15
100
AcDbCircle
 10
2071.0816170062
 20
1156.7027998615
 30
0.0
 40
7.000000000000455
100
AcDbArc
 50
270.2359156769
 51
0.0
  0
LINE
  5
3CA
330
1F
100
AcDbEntity
  8
0
  6
Continuous
 62
     7
370
    15
100
AcDbLine
 10
2027.5850180377
 20
1149.5236399058
 30
0.0
 11
2071.1104754199
 21
1149.702811468
 31
0.0
  0
ARC
  5
3CB
330
1F
100
AcDbEntity
  8
0
  6
Continuous
 62
     7
370
    15
100
AcDbCircle
 10
2027.5776613176
 20
1151.323627
 30
0.0
 40
1.799999999999985
100
AcDbArc
 50
234.4753000235
 51
270.2359156769
  0
ARC
  5
3CC
330
1F
100
AcDbEntity
  8
0
  6
Continuous
 62
     7
370
    15
100
AcDbCircle
 10
2024.5881391893
 20
1147.1362910397
 30
0.0
 40
3.345000000000085
100
AcDbArc
 50
54.4753000235
 51
215.9454043733
  0
ARC
  5
3CD
330
1F
100
AcDbEntity
  8
0
  6
Continuous
 62
     7
370
    15
100
AcDbCircle
 10
2020.4228670062
 20
1144.1161035222
 30
0.0
 40
1.800000000000338
100
AcDbArc
 50
0.0
 51
35.9454043733
  0
LINE
  5
3CE
330
1F
100
AcDbEntity
  8
0
  6
Continuous
 62
     7
370
    15
100
AcDbLine
 10
2022.2229841937
 20
1136.5469934825
 30
0.0
 11
2022.2229841937
 21
1144.1160681132
 31
0.0
  0
ARC
  5
3CF
330
1F
100
AcDbEntity
  8
0
  6
Continuous
 62
     7
370
    15
100
AcDbCircle
 10
2020.4228670062
 20
1136.5470229233
 30
0.0
 40
1.800000000000204
100
AcDbArc
 50
324.0545956267
 51
0.0
  0
ARC
  5
3D0
330
1F
100
AcDbEntity
  8
0
  6
Continuous
 62
     7
370
    15
100
AcDbCircle
 10
2024.5881391893
 20
1133.5268354058
 30
0.0
 40
3.345000000000085
100
AcDbArc
 50
144.0545956267
 51
305.5246999765
  0
ARC
  5
3D1
330
1F
100
AcDbEntity
  8
0
  6
Continuous
 62
     7
370
    15
100
AcDbCircle
 10
2027.5776613176
 20
1129.3394994455
 30
0.0
 40
1.799999999999972
100
AcDbArc
 50
89.7640843231
 51
125.5246999765
  0
LINE
  5
3D2
330
1F
100
AcDbEntity
  8
0
  6
Continuous
 62
     7
370
    15
100
AcDbLine
 10
2071.1104754199
 20
1130.9602501277
 30
0.0
 11
2027.5850180377
 21
1131.1395408991
 31
0.0
  0
ARC
  5
3D3
330
1F
100
AcDbEntity
  8
0
  6
Continuous
 62
     7
370
    15
100
AcDbCircle
 10
2071.0816170062
 20
1123.960326584
 30
0.0
 40
7.000000000000455
100
AcDbArc
 50
0.0
 51
89.7640843231
  0
LINE
  5
3D4
330
1F
100
AcDbEntity
  8
0
  6
Continuous
 62
     7
370
    15
100
AcDbLine
 10
2078.0815962543
 20
1123.9602806452
 30
0.0
 11
2078.0815962543
 21
1038.8695242289
 31
0.0
  0
ARC
  5
3D5
330
1F
100
AcDbEntity
  8
0
  6
Continuous
 62
     7
370
    15
100
AcDbCircle
 10
2071.0816170062
 20
1038.8694665282
 30
0.0
 40
7.000000000000455
100
AcDbArc
 50
270.2359156769
 51
0.0
  0
LINE
  5
3D6
330
1F
100
AcDbEntity
  8
0
  6
Continuous
 62
     7
370
    15
100
AcDbLine
 10
2027.5850180377
 20
1031.690263975
 30
0.0
 11
2071.1104754199
 21
1031.8695547465
 31
0.0
  0
ARC
  5
3D7
330
1F
100
AcDbEntity
  8
0
  6
Continuous
 62
     7
370
    15
100
AcDbCircle
 10
2027.5776613176
 20
1033.4902936666
 30
0.0
 40
1.799999999999757
100
AcDbArc
 50
234.4753000235
 51
270.2359156769
  0
ARC
  5
3D8
330
1F
100
AcDbEntity
  8
0
  6
Continuous
 62
     7
370
    15
100
AcDbCircle
 10
2024.5881391893
 20
1029.3029577063
 30
0.0
 40
3.345000000000157
100
AcDbArc
 50
54.4753000235
 51
215.9454043733
  0
ARC
  5
3D9
330
1F
100
AcDbEntity
  8
0
  6
Continuous
 62
     7
370
    15
100
AcDbCircle
 10
2020.4228670062
 20
1026.2827701888
 30
0.0
 40
1.799999999999601
100
AcDbArc
 50
0.0
 51
35.9454043733
  0
LINE
  5
3DA
330
1F
100
AcDbEntity
  8
0
  6
Continuous
 62
     7
370
    15
100
AcDbLine
 10
2022.2229841937
 20
1018.713736761
 30
0.0
 11
2022.2229841937
 21
1026.2828113917
 31
0.0
  0
ARC
  5
3DB
330
1F
100
AcDbEntity
  8
0
  6
Continuous
 62
     7
370
    15
100
AcDbCircle
 10
2020.4228670062
 20
1018.71368959
 30
0.0
 40
1.799999999999468
100
AcDbArc
 50
324.0545956267
 51
0.0
  0
ARC
  5
3DC
330
1F
100
AcDbEntity
  8
0
  6
Continuous
 62
     7
370
    15
100
AcDbCircle
 10
2024.5881391893
 20
1015.6935020725
 30
0.0
 40
3.345000000000085
100
AcDbArc
 50
144.0545956267
 51
305.5246999765
  0
ARC
  5
3DD
330
1F
100
AcDbEntity
  8
0
  6
Continuous
 62
     7
370
    15
100
AcDbCircle
 10
2027.5776613176
 20
1011.5061661122
 30
0.0
 40
1.799999999999871
100
AcDbArc
 50
89.7640843231
 51
125.5246999765
  0
LINE
  5
3DE
330
1F
100
AcDbEntity
  8
0
  6
Continuous
 62
     7
370
    15
100
AcDbLine
 10
2071.1104754199
 20
1013.1269934062
 30
0.0
 11
2027.5850180377
 21
1013.3061649684
 31
0.0
  0
ARC
  5
3DF
330
1F
100
AcDbEntity
  8
0
  6
Continuous
 62
     7
370
    15
100
AcDbCircle
 10
2071.0816170062
 20
1006.1269932506
 30
0.0
 40
7.000000000000455
100
AcDbArc
 50
0.0
 51
89.7640843231
  0
LINE
  5
3E0
330
1F
100
AcDbEntity
  8
0
  6
Continuous
 62
     7
370
    15
100
AcDbLine
 10
2078.0815962543
 20
1006.1270239237
 30
0.0
 11
2078.0815962543
 21
921.0361482981
 31
0.0
  0
ARC
  5
3E1
330
1F
100
AcDbEntity
  8
0
  6
Continuous
 62
     7
370
    15
100
AcDbCircle
 10
2071.0816170062
 20
921.0361331949
 30
0.0
 40
7.000000000000455
100
AcDbArc
 50
270.2359156769
 51
0.0
  0
LINE
  5
3E2
330
1F
100
AcDbEntity
  8
0
  6
Continuous
 62
     7
370
    15
100
AcDbLine
 10
2027.5850180377
 20
913.8569476489
 30
0.0
 11
2071.1104754199
 21
914.0361788157
 31
0.0
  0
ARC
  5
3E3
330
1F
100
AcDbEntity
  8
0
  6
Continuous
 62
     7
370
    15
100
AcDbCircle
 10
2027.5776613176
 20
915.6569603333
 30
0.0
 40
1.800000000000098
100
AcDbArc
 50
234.4753000235
 51
270.2359156769
  0
ARC
  5
3E4
330
1F
100
AcDbEntity
  8
0
  6
Continuous
 62
     7
370
    15
100
AcDbCircle
 10
2024.5881391893
 20
911.469624373
 30
0.0
 40
3.345000000000065
100
AcDbArc
 50
54.4753000235
 51
215.9454043733
  0
ARC
  5
3E5
330
1F
100
AcDbEntity
  8
0
  6
Continuous
 62
     7
370
    15
100
AcDbCircle
 10
2020.4228670062
 20
908.4494368555
 30
0.0
 40
1.799999999999601
100
AcDbArc
 50
0.0
 51
35.9454043733
  0
LINE
  5
3E6
330
1F
100
AcDbEntity
  8
0
  6
Continuous
 62
     7
370
    15
100
AcDbLine
 10
2022.2229841937
 20
900.8803608302
 30
0.0
 11
2022.2229841937
 21
908.4494354609
 31
0.0
  0
ARC
  5
3E7
330
1F
100
AcDbEntity
  8
0
  6
Continuous
 62
     7
370
    15
100
AcDbCircle
 10
2020.4228670062
 20
900.8803562567
 30
0.0
 40
1.799999999999468
100
AcDbArc
 50
324.0545956267
 51
0.0
  0
ARC
  5
3E8
330
1F
100
AcDbEntity
  8
0
  6
Continuous
 62
     7
370
    15
100
AcDbCircle
 10
2024.5881391893
 20
897.8601687392
 30
0.0
 40
3.345000000000151
100
AcDbArc
 50
144.0545956267
 51
305.5246999765
  0
ARC
  5
3E9
330
1F
100
AcDbEntity
  8
0
  6
Continuous
 62
     7
370
    15
100
AcDbCircle
 10
2027.5776613176
 20
893.6728327789
 30
0.0
 40
1.799999999999871
100
AcDbArc
 50
89.7640843231
 51
125.5246999765
  0
LINE
  5
3EA
330
1F
100
AcDbEntity
  8
0
  6
Continuous
 62
     7
370
    15
100
AcDbLine
 10
2071.1104754199
 20
895.2936174754
 30
0.0
 11
2027.5850180377
 21
895.4727890376
 31
0.0
  0
ARC
  5
3EB
330
1F
100
AcDbEntity
  8
0
  6
Continuous
 62
     7
370
    15
100
AcDbCircle
 10
2071.0816170062
 20
888.2936599173
 30
0.0
 40
7.000000000000455
100
AcDbArc
 50
0.0
 51
89.7640843231
  0
LINE
  5
3EC
330
1F
100
AcDbEntity
  8
0
  6
Continuous
 62
     7
370
    15
100
AcDbLine
 10
2078.0815962543
 20
803.2027723673
 30
0.0
 11
2078.0815962543
 21
888.293647993
 31
0.0
  0
ARC
  5
3ED
330
1F
100
AcDbEntity
  8
0
  6
Continuous
 62
     7
370
    15
100
AcDbCircle
 10
2071.0816170062
 20
803.2027998615
 30
0.0
 40
7.000000000000455
100
AcDbArc
 50
270.2359156769
 51
0.0
  0
LINE
  5
3EE
330
1F
100
AcDbEntity
  8
0
  6
Continuous
 62
     7
370
    15
100
AcDbLine
 10
2071.1104754199
 20
796.2028624896
 30
0.0
 11
2027.5850180377
 21
796.0236313227
 31
0.0
  0
LINE
  5
3EF
330
1F
100
AcDbEntity
  8
0
  6
Continuous
 62
     7
370
    15
100
AcDbLine
 10
1854.6466711749
 20
534.7936394099
 30
0.0
 11
1854.6466711749
 21
498.164886463
 31
0.0
  0
LINE
  5
3F0
330
1F
100
AcDbEntity
  8
0
  6
Continuous
 62
     7
370
    15
100
AcDbLine
 10
1854.6466711749
 20
1123.9602806452
 30
0.0
 11
1854.6466711749
 21
567.5361397151
 31
0.0
  0
LINE
  5
3F1
330
1F
100
AcDbEntity
  8
0
  6
Continuous
 62
     7
370
    15
100
AcDbLine
 10
2078.0815962543
 20
567.5361397151
 30
0.0
 11
2078.0815962543
 21
652.6270153407
 31
0.0
  0
LINE
  5
3F2
330
1F
100
AcDbEntity
  8
0
  6
Continuous
 62
     7
370
    15
100
AcDbLine
 10
2078.0815962543
 20
685.3694560412
 30
0.0
 11
2078.0815962543
 21
770.4603316668
 31
0.0
  0
ENDSEC
  0
SECTION
  2
OBJECTS
  0
DICTIONARY
  5
C
330
0
100
AcDbDictionary
281
     1
  3
ACAD_GROUP
350
D
  3
ACAD_LAYOUT
350
1A
  3
ACAD_MLINESTYLE
350
17
  3
ACAD_PLOTSETTINGS
350
19
  3
ACAD_PLOTSTYLENAME
350
E
  3
ACAD_SCALELIST
350
47
  0
DICTIONARY
  5
D
102
{ACAD_REACTORS
330
C
102
}
330
C
100
AcDbDictionary
281
     1
  0
DICTIONARY
  5
1A
102
{ACAD_REACTORS
330
C
102
}
330
C
100
AcDbDictionary
281
     1
  3
Layout1
350
1E
  3
Layout2
350
26
  3
Model
350
22
  0
DICTIONARY
  5
17
102
{ACAD_REACTORS
330
C
102
}
330
C
100
AcDbDictionary
281
     1
  3
Standard
350
18
  0
DICTIONARY
  5
19
102
{ACAD_REACTORS
330
C
102
}
330
C
100
AcDbDictionary
281
     1
  0
ACDBDICTIONARYWDFLT
  5
E
102
{ACAD_REACTORS
330
C
102
}
330
C
100
AcDbDictionary
281
     1
  3
Normal
350
F
100
AcDbDictionaryWithDefault
340
F
  0
DICTIONARY
  5
47
102
{ACAD_REACTORS
330
C
102
}
330
C
100
AcDbDictionary
281
     1
  3
A0
350
48
  3
A1
350
49
  3
A2
350
4A
  3
A3
350
4B
  3
A4
350
4C
  3
A5
350
4D
  3
A6
350
4E
  3
A7
350
4F
  3
A8
350
50
  3
A9
350
51
  3
B0
350
52
  3
B1
350
53
  3
B2
350
54
  3
B3
350
55
  3
B4
350
56
  3
B5
350
57
  3
B6
350
58
  3
B7
350
59
  3
B8
350
5A
  3
B9
350
5B
  3
C0
350
5C
  3
C1
350
5D
  3
C2
350
5E
  3
C3
350
5F
  3
C4
350
60
  3
C5
350
61
  3
C6
350
62
  3
C7
350
63
  3
C8
350
64
  3
C9
350
65
  3
D0
350
66
  3
D1
350
67
  3
D2
350
68
  0
LAYOUT
  5
1E
102
{ACAD_REACTORS
330
1A
102
}
330
1A
100
AcDbPlotSettings
  1

  2
none_device
  4

  6

 40
0.0
 41
0.0
 42
0.0
 43
0.0
 44
0.0
 45
0.0
 46
0.0
 47
0.0
 48
0.0
 49
0.0
140
0.0
141
0.0
142
1.0
143
1.0
 70
   688
 72
     1
 73
     0
 74
     5
  7

 75
    16
147
1.0
148
0.0
149
0.0
100
AcDbLayout
  1
Layout1
 70
     1
 71
     1
 10
0.0
 20
0.0
 11
420.0
 21
297.0
 12
0.0
 22
0.0
 32
0.0
 14
1.0000000000E+20
 24
1.0000000000E+20
 34
1.0000000000E+20
 15
-1.0000000000E+20
 25
-1.0000000000E+20
 35
-1.0000000000E+20
146
0.0
 13
0.0
 23
0.0
 33
0.0
 16
1.0
 26
0.0
 36
0.0
 17
0.0
 27
1.0
 37
0.0
 76
     0
330
1B
  0
LAYOUT
  5
26
102
{ACAD_REACTORS
330
1A
102
}
330
1A
100
AcDbPlotSettings
  1

  2
none_device
  4

  6

 40
0.0
 41
0.0
 42
0.0
 43
0.0
 44
0.0
 45
0.0
 46
0.0
 47
0.0
 48
0.0
 49
0.0
140
0.0
141
0.0
142
1.0
143
1.0
 70
   688
 72
     1
 73
     0
 74
     5
  7

 75
    16
147
1.0
148
0.0
149
0.0
100
AcDbLayout
  1
Layout2
 70
     1
 71
     2
 10
0.0
 20
0.0
 11
0.0
 21
0.0
 12
0.0
 22
0.0
 32
0.0
 14
0.0
 24
0.0
 34
0.0
 15
0.0
 25
0.0
 35
0.0
146
0.0
 13
0.0
 23
0.0
 33
0.0
 16
1.0
 26
0.0
 36
0.0
 17
0.0
 27
1.0
 37
0.0
 76
     0
330
23
  0
LAYOUT
  5
22
102
{ACAD_REACTORS
330
1A
102
}
330
1A
100
AcDbPlotSettings
  1

  2
none_device
  4
Letter_(8.50_x_11.00_Inches)
  6

 40
6.35
 41
6.35
 42
6.35000508
 43
6.35000508
 44
215.9
 45
279.4
 46
0.0
 47
0.0
 48
0.0
 49
0.0
140
0.0
141
0.0
142
1.0
143
1.0
 70
  1712
 72
     1
 73
     0
 74
     0
  7

 75
     0
147
1.0
148
0.0
149
0.0
100
AcDbLayout
  1
Model
 70
     1
 71
     0
 10
0.0
 20
0.0
 11
2440.0
 21
1220.0
 12
0.0
 22
0.0
 32
0.0
 14
0.0
 24
0.0
 34
0.0
 15
2440.0
 25
1220.0
 35
0.0
146
0.0
 13
0.0
 23
0.0
 33
0.0
 16
1.0
 26
0.0
 36
0.0
 17
0.0
 27
1.0
 37
0.0
 76
     0
330
1F
331
29
  0
MLINESTYLE
  5
18
102
{ACAD_REACTORS
330
17
102
}
330
17
100
AcDbMlineStyle
  2
Standard
 70
     0
  3

 62
   256
 51
90.0
 52
90.0
 71
     2
 49
0.5
 62
   256
  6
BYLAYER
 49
-0.5
 62
   256
  6
BYLAYER
  0
ACDBPLACEHOLDER
  5
F
102
{ACAD_REACTORS
330
E
102
}
330
E
  0
SCALE
  5
48
102
{ACAD_REACTORS
330
47
102
}
330
47
100
AcDbScale
 70
     0
300
1:1
140
1.0
141
1.0
290
     1
  0
SCALE
  5
49
102
{ACAD_REACTORS
330
47
102
}
330
47
100
AcDbScale
 70
     0
300
1:2
140
1.0
141
2.0
290
     0
  0
SCALE
  5
4A
102
{ACAD_REACTORS
330
47
102
}
330
47
100
AcDbScale
 70
     0
300
1:4
140
1.0
141
4.0
290
     0
  0
SCALE
  5
4B
102
{ACAD_REACTORS
330
47
102
}
330
47
100
AcDbScale
 70
     0
300
1:5
140
1.0
141
5.0
290
     0
  0
SCALE
  5
4C
102
{ACAD_REACTORS
330
47
102
}
330
47
100
AcDbScale
 70
     0
300
1:8
140
1.0
141
8.0
290
     0
  0
SCALE
  5
4D
102
{ACAD_REACTORS
330
47
102
}
330
47
100
AcDbScale
 70
     0
300
1:10
140
1.0
141
10.0
290
     0
  0
SCALE
  5
4E
102
{ACAD_REACTORS
330
47
102
}
330
47
100
AcDbScale
 70
     0
300
1:16
140
1.0
141
16.0
290
     0
  0
SCALE
  5
4F
102
{ACAD_REACTORS
330
47
102
}
330
47
100
AcDbScale
 70
     0
300
1:20
140
1.0
141
20.0
290
     0
  0
SCALE
  5
50
102
{ACAD_REACTORS
330
47
102
}
330
47
100
AcDbScale
 70
     0
300
1:30
140
1.0
141
30.0
290
     0
  0
SCALE
  5
51
102
{ACAD_REACTORS
330
47
102
}
330
47
100
AcDbScale
 70
     0
300
1:40
140
1.0
141
40.0
290
     0
  0
SCALE
  5
52
102
{ACAD_REACTORS
330
47
102
}
330
47
100
AcDbScale
 70
     0
300
1:50
140
1.0
141
50.0
290
     0
  0
SCALE
  5
53
102
{ACAD_REACTORS
330
47
102
}
330
47
100
AcDbScale
 70
     0
300
1:100
140
1.0
141
100.0
290
     0
  0
SCALE
  5
54
102
{ACAD_REACTORS
330
47
102
}
330
47
100
AcDbScale
 70
     0
300
2:1
140
2.0
141
1.0
290
     0
  0
SCALE
  5
55
102
{ACAD_REACTORS
330
47
102
}
330
47
100
AcDbScale
 70
     0
300
4:1
140
4.0
141
1.0
290
     0
  0
SCALE
  5
56
102
{ACAD_REACTORS
330
47
102
}
330
47
100
AcDbScale
 70
     0
300
8:1
140
8.0
141
1.0
290
     0
  0
SCALE
  5
57
102
{ACAD_REACTORS
330
47
102
}
330
47
100
AcDbScale
 70
     0
300
10:1
140
10.0
141
1.0
290
     0
  0
SCALE
  5
58
102
{ACAD_REACTORS
330
47
102
}
330
47
100
AcDbScale
 70
     0
300
100:1
140
100.0
141
1.0
290
     0
  0
SCALE
  5
59
102
{ACAD_REACTORS
330
47
102
}
330
47
100
AcDbScale
 70
     0
300
1/128" = 1'-0"
140
0.0078125
141
12.0
290
     0
  0
SCALE
  5
5A
102
{ACAD_REACTORS
330
47
102
}
330
47
100
AcDbScale
 70
     0
300
1/64" = 1'-0"
140
0.015625
141
12.0
290
     0
  0
SCALE
  5
5B
102
{ACAD_REACTORS
330
47
102
}
330
47
100
AcDbScale
 70
     0
300
1/32" = 1'-0"
140
0.03125
141
12.0
290
     0
  0
SCALE
  5
5C
102
{ACAD_REACTORS
330
47
102
}
330
47
100
AcDbScale
 70
     0
300
1/16" = 1'-0"
140
0.0625
141
12.0
290
     0
  0
SCALE
  5
5D
102
{ACAD_REACTORS
330
47
102
}
330
47
100
AcDbScale
 70
     0
300
3/32" = 1'-0"
140
0.09375
141
12.0
290
     0
  0
SCALE
  5
5E
102
{ACAD_REACTORS
330
47
102
}
330
47
100
AcDbScale
 70
     0
300
1/8" = 1'-0"
140
0.125
141
12.0
290
     0
  0
SCALE
  5
5F
102
{ACAD_REACTORS
330
47
102
}
330
47
100
AcDbScale
 70
     0
300
3/16" = 1'-0"
140
0.1875
141
12.0
290
     0
  0
SCALE
  5
60
102
{ACAD_REACTORS
330
47
102
}
330
47
100
AcDbScale
 70
     0
300
1/4" = 1'-0"
140
0.25
141
12.0
290
     0
  0
SCALE
  5
61
102
{ACAD_REACTORS
330
47
102
}
330
47
100
AcDbScale
 70
     0
300
3/8" = 1'-0"
140
0.375
141
12.0
290
     0
  0
SCALE
  5
62
102
{ACAD_REACTORS
330
47
102
}
330
47
100
AcDbScale
 70
     0
300
1/2" = 1'-0"
140
0.5
141
12.0
290
     0
  0
SCALE
  5
63
102
{ACAD_REACTORS
330
47
102
}
330
47
100
AcDbScale
 70
     0
300
3/4" = 1'-0"
140
0.75
141
12.0
290
     0
  0
SCALE
  5
64
102
{ACAD_REACTORS
330
47
102
}
330
47
100
AcDbScale
 70
     0
300
1" = 1'-0"
140
1.0
141
12.0
290
     0
  0
SCALE
  5
65
102
{ACAD_REACTORS
330
47
102
}
330
47
100
AcDbScale
 70
     0
300
1-1/2" = 1'-0"
140
1.5
141
12.0
290
     0
  0
SCALE
  5
66
102
{ACAD_REACTORS
330
47
102
}
330
47
100
AcDbScale
 70
     0
300
3" = 1'-0"
140
3.0
141
12.0
290
     0
  0
SCALE
  5
67
102
{ACAD_REACTORS
330
47
102
}
330
47
100
AcDbScale
 70
     0
300
6" = 1'-0"
140
6.0
141
12.0
290
     0
  0
SCALE
  5
68
102
{ACAD_REACTORS
330
47
102
}
330
47
100
AcDbScale
 70
     0
300
1'-0" = 1'-0"
140
12.0
141
12.0
290
     0
  0
ENDSEC
  0
EOF
