  0
SECTION
  2
HEADER
  9
$ACADVER
  1
AC1015
  9
$ACADMAINTVER
 70
     6
  9
$DWGCODEPAGE
  3
ANSI_1252
  9
$INSBASE
 10
0.0
 20
0.0
 30
0.0
  9
$EXTMIN
 10
0.0
 20
0.0
 30
0.0
  9
$EXTMAX
 10
2440.0
 20
1220.0
 30
0.0
  9
$LIMMIN
 10
0.0
 20
0.0
  9
$LIMMAX
 10
2440.0
 20
1220.0
  9
$ORTHOMODE
 70
     0
  9
$REGENMODE
 70
     1
  9
$FILLMODE
 70
     1
  9
$QTEXTMODE
 70
     0
  9
$MIRRTEXT
 70
     1
  9
$LTSCALE
 40
1.0
  9
$ATTMODE
 70
     1
  9
$TEXTSIZE
 40
3.5
  9
$TRACEWID
 40
1.0
  9
$TEXTSTYLE
  7
Standard
  9
$CLAYER
  8
0
  9
$CELTYPE
  6
ByLayer
  9
$CECOLOR
 62
   256
  9
$CELTSCALE
 40
1.0
  9
$DISPSILH
 70
     0
  9
$DIMSCALE
 40
1.0
  9
$DIMASZ
 40
3.556
  9
$DIMEXO
 40
1.0
  9
$DIMDLI
 40
3.75
  9
$DIMRND
 40
0.0
  9
$DIMDLE
 40
0.0
  9
$DIMEXE
 40
1.0
  9
$DIMTP
 40
0.0
  9
$DIMTM
 40
0.0
  9
$DIMTXT
 40
3.5
  9
$DIMCEN
 40
2.5
  9
$DIMTSZ
 40
0.0
  9
$DIMTOL
 70
     0
  9
$DIMLIM
 70
     0
  9
$DIMTIH
 70
     1
  9
$DIMTOH
 70
     1
  9
$DIMSE1
 70
     0
  9
$DIMSE2
 70
     0
  9
$DIMTAD
 70
     1
  9
$DIMZIN
 70
     0
  9
$DIMBLK
  1

  9
$DIMASO
 70
     1
  9
$DIMSHO
 70
     1
  9
$DIMPOST
  1

  9
$DIMAPOST
  1

  9
$DIMALT
 70
     0
  9
$DIMALTD
 70
     3
  9
$DIMALTF
 40
0.0393700787
  9
$DIMLFAC
 40
1.0
  9
$DIMTOFL
 70
     1
  9
$DIMTVP
 40
0.0
  9
$DIMTIX
 70
     0
  9
$DIMSOXD
 70
     0
  9
$DIMSAH
 70
     0
  9
$DIMBLK1
  1

  9
$DIMBLK2
  1

  9
$DIMSTYLE
  2
ISO-25
  9
$DIMCLRD
 70
     0
  9
$DIMCLRE
 70
     0
  9
$DIMCLRT
 70
     0
  9
$DIMTFAC
 40
1.0
  9
$DIMGAP
 40
1.524
  9
$DIMJUST
 70
     0
  9
$DIMSD1
 70
     0
  9
$DIMSD2
 70
     0
  9
$DIMTOLJ
 70
     0
  9
$DIMTZIN
 70
     0
  9
$DIMALTZ
 70
     0
  9
$DIMALTTZ
 70
     0
  9
$DIMUPT
 70
     0
  9
$DIMDEC
 70
     2
  9
$DIMTDEC
 70
     2
  9
$DIMALTU
 70
     2
  9
$DIMALTTD
 70
     3
  9
$DIMTXSTY
  7
Standard
  9
$DIMAUNIT
 70
     0
  9
$DIMADEC
 70
     2
  9
$DIMALTRND
 40
0.0
  9
$DIMAZIN
 70
     0
  9
$DIMDSEP
 70
    44
  9
$DIMATFIT
 70
     3
  9
$DIMFRAC
 70
     0
  9
$DIMLDRBLK
  1

  9
$DIMLUNIT
 70
     2
  9
$DIMLWD
 70
    -2
  9
$DIMLWE
 70
    -2
  9
$DIMTMOVE
 70
     0
  9
$LUNITS
 70
     2
  9
$LUPREC
 70
     2
  9
$SKETCHINC
 40
1.0
  9
$FILLETRAD
 40
10.0
  9
$AUNITS
 70
     0
  9
$AUPREC
 70
     2
  9
$MENU
  1
.
  9
$ELEVATION
 40
0.0
  9
$PELEVATION
 40
0.0
  9
$THICKNESS
 40
0.0
  9
$LIMCHECK
 70
     0
  9
$CHAMFERA
 40
0.0
  9
$CHAMFERB
 40
0.0
  9
$CHAMFERC
 40
0.0
  9
$CHAMFERD
 40
0.0
  9
$SKPOLY
 70
     0
  9
$TDCREATE
 40
2457720.680795174
  9
$TDUCREATE
 40
2457720.97246184
  9
$TDUPDATE
 40
2457720.680795718
  9
$TDUUPDATE
 40
2457720.972462384
  9
$TDINDWG
 40
0.0000000116
  9
$TDUSRTIMER
 40
0.0000000116
  9
$USRTIMER
 70
     1
  9
$ANGBASE
 50
0.0
  9
$ANGDIR
 70
     0
  9
$PDMODE
 70
     0
  9
$PDSIZE
 40
-1.0
  9
$PLINEWID
 40
0.0
  9
$SPLFRAME
 70
     0
  9
$SPLINETYPE
 70
     6
  9
$SPLINESEGS
 70
     8
  9
$HANDSEED
  5
3F3
  9
$SURFTAB1
 70
     6
  9
$SURFTAB2
 70
     6
  9
$SURFTYPE
 70
     6
  9
$SURFU
 70
     6
  9
$SURFV
 70
     6
  9
$UCSBASE
  2

  9
$UCSNAME
  2

  9
$UCSORG
 10
0.0
 20
0.0
 30
0.0
  9
$UCSXDIR
 10
1.0
 20
0.0
 30
0.0
  9
$UCSYDIR
 10
0.0
 20
1.0
 30
0.0
  9
$UCSORTHOREF
  2

  9
$UCSORTHOVIEW
 70
     0
  9
$UCSORGTOP
 10
0.0
 20
0.0
 30
0.0
  9
$UCSORGBOTTOM
 10
0.0
 20
0.0
 30
0.0
  9
$UCSORGLEFT
 10
0.0
 20
0.0
 30
0.0
  9
$UCSORGRIGHT
 10
0.0
 20
0.0
 30
0.0
  9
$UCSORGFRONT
 10
0.0
 20
0.0
 30
0.0
  9
$UCSORGBACK
 10
0.0
 20
0.0
 30
0.0
  9
$PUCSBASE
  2

  9
$PUCSNAME
  2

  9
$PUCSORG
 10
0.0
 20
0.0
 30
0.0
  9
$PUCSXDIR
 10
1.0
 20
0.0
 30
0.0
  9
$PUCSYDIR
 10
0.0
 20
1.0
 30
0.0
  9
$PUCSORTHOREF
  2

  9
$PUCSORTHOVIEW
 70
     0
  9
$PUCSORGTOP
 10
0.0
 20
0.0
 30
0.0
  9
$PUCSORGBOTTOM
 10
0.0
 20
0.0
 30
0.0
  9
$PUCSORGLEFT
 10
0.0
 20
0.0
 30
0.0
  9
$PUCSORGRIGHT
 10
0.0
 20
0.0
 30
0.0
  9
$PUCSORGFRONT
 10
0.0
 20
0.0
 30
0.0
  9
$PUCSORGBACK
 10
0.0
 20
0.0
 30
0.0
  9
$USERI1
 70
     0
  9
$USERI2
 70
     0
  9
$USERI3
 70
     0
  9
$USERI4
 70
     0
  9
$USERI5
 70
     0
  9
$USERR1
 40
0.0
  9
$USERR2
 40
0.0
  9
$USERR3
 40
0.0
  9
$USERR4
 40
0.0
  9
$USERR5
 40
0.0
  9
$WORLDVIEW
 70
     1
  9
$SHADEDGE
 70
     3
  9
$SHADEDIF
 70
    70
  9
$TILEMODE
 70
     1
  9
$MAXACTVP
 70
    64
  9
$PINSBASE
 10
0.0
 20
0.0
 30
0.0
  9
$PLIMCHECK
 70
     0
  9
$PEXTMIN
 10
1.0000000000E+20
 20
1.0000000000E+20
 30
1.0000000000E+20
  9
$PEXTMAX
 10
-1.0000000000E+20
 20
-1.0000000000E+20
 30
-1.0000000000E+20
  9
$PLIMMIN
 10
0.0
 20
0.0
  9
$PLIMMAX
 10
420.0
 20
297.0
  9
$UNITMODE
 70
     0
  9
$VISRETAIN
 70
     1
  9
$PLINEGEN
 70
     0
  9
$PSLTSCALE
 70
     1
  9
$TREEDEPTH
 70
  3020
  9
$CMLSTYLE
  2
Standard
  9
$CMLJUST
 70
     0
  9
$CMLSCALE
 40
20.0
  9
$PROXYGRAPHICS
 70
     1
  9
$MEASUREMENT
 70
     1
  9
$CELWEIGHT
370
    -1
  9
$ENDCAPS
280
     0
  9
$JOINSTYLE
280
     0
  9
$LWDISPLAY
290
     1
  9
$INSUNITS
 70
     4
  9
$HYPERLINKBASE
  1

  9
$STYLESHEET
  1

  9
$XEDIT
290
     1
  9
$CEPSNTYPE
380
     0
  9
$PSTYLEMODE
290
     1
  9
$FINGERPRINTGUID
  2
{411698E9-FD00-4722-88F4-2DCFE962DCA9}
  9
$VERSIONGUID
  2
{FAEB1C32-E019-11D5-929B-00C0DF256EC4}
  9
$EXTNAMES
290
     1
  9
$PSVPSCALE
 40
0.0
  9
$OLESTARTUP
290
     0
  0
ENDSEC
  0
SECTION
  2
CLASSES
  0
CLASS
  1
ACDBDICTIONARYWDFLT
  2
AcDbDictionaryWithDefault
  3
ObjectDBX Classes
 90
        0
280
     0
281
     0
  0
CLASS
  1
VISUALSTYLE
  2
AcDbVisualStyle
  3
ObjectDBX Classes
 90
     4095
280
     0
281
     0
  0
CLASS
  1
MATERIAL
  2
AcDbMaterial
  3
ObjectDBX Classes
 90
     1153
280
     0
281
     0
  0
CLASS
  1
SCALE
  2
AcDbScale
  3
ObjectDBX Classes
 90
     1153
280
     0
281
     0
  0
CLASS
  1
TABLESTYLE
  2
AcDbTableStyle
  3
ObjectDBX Classes
 90
     4095
280
     0
281
     0
  0
CLASS
  1
MLEADERSTYLE
  2
AcDbMLeaderStyle
  3
ACDB_MLEADERSTYLE_CLASS
 90
     4095
280
     0
281
     0
  0
CLASS
  1
SUN
  2
AcDbSun
  3
SCENEOE
 90
     1153
280
     0
281
     0
  0
CLASS
  1
ACDBPLACEHOLDER
  2
AcDbPlaceHolder
  3
ObjectDBX Classes
 90
        0
280
     0
281
     0
  0
CLASS
  1
LAYOUT
  2
AcDbLayout
  3
ObjectDBX Classes
 90
        0
280
     0
281
     0
  0
ENDSEC
  0
SECTION
  2
TABLES
  0
TABLE
  2
VPORT
  5
8
330
0
100
AcDbSymbolTable
 70
     1
  0
VPORT
  5
29
330
8
100
AcDbSymbolTableRecord
100
AcDbViewportTableRecord
  2
*Active
 70
     0
 10
0.0
 20
0.0
 11
1.0
 21
1.0
 12
1220.0
 22
610.0
 13
0.0
 23
0.0
 14
10.0
 24
10.0
 15
10.0
 25
10.0
 16
0.0
 26
0.0
 36
1.0
 17
0.0
 27
0.0
 37
0.0
 40
1220.0
 41
2.0
 42
50.0
 43
0.0
 44
0.0
 50
0.0
 51
0.0
 71
     0
 72
  2000
 73
     1
 74
     3
 75
     0
 76
     0
 77
     0
 78
     0
281
     0
 65
     1
110
0.0
120
0.0
130
0.0
111
1.0
121
0.0
131
0.0
112
0.0
122
1.0
132
0.0
 79
     0
146
0.0
  0
ENDTAB
  0
TABLE
  2
LTYPE
  5
5
330
0
100
AcDbSymbolTable
 70
     6
  0
LTYPE
  5
14
330
5
100
AcDbSymbolTableRecord
100
AcDbLinetypeTableRecord
  2
ByBlock
 70
     0
  3

 72
    65
 73
     0
 40
0.0
  0
LTYPE
  5
15
330
5
100
AcDbSymbolTableRecord
100
AcDbLinetypeTableRecord
  2
ByLayer
 70
     0
  3

 72
    65
 73
     0
 40
0.0
  0
LTYPE
  5
16
330
5
100
AcDbSymbolTableRecord
100
AcDbLinetypeTableRecord
  2
Continuous
 70
     0
  3
Solid line
 72
    65
 73
     0
 40
0.0
  0
LTYPE
  5
6E
330
5
100
AcDbSymbolTableRecord
100
AcDbLinetypeTableRecord
  2
HIDDEN
 70
     0
  3
Hidden __ __ __ __ __ __ __ __ __ __ __ __ __ __
 72
    65
 73
     2
 40
1.905
 49
1.27
 74
     0
 49
-0.635
 74
     0
  0
LTYPE
  5
6F
330
5
100
AcDbSymbolTableRecord
100
AcDbLinetypeTableRecord
  2
PHANTOM
 70
     0
  3
Phantom ______  __  __  ______  __  __  ______
 72
    65
 73
     6
 40
12.7
 49
6.35
 74
     0
 49
-1.27
 74
     0
 49
1.27
 74
     0
 49
-1.27
 74
     0
 49
1.27
 74
     0
 49
-1.27
 74
     0
  0
LTYPE
  5
70
330
5
100
AcDbSymbolTableRecord
100
AcDbLinetypeTableRecord
  2
CENTER
 70
     0
  3
Center ____ _ ____ _ ____ _ ____ _ ____ _ ____
 72
    65
 73
     4
 40
10.16
 49
6.35
 74
     0
 49
-1.27
 74
     0
 49
1.27
 74
     0
 49
-1.27
 74
     0
  0
LTYPE
  5
71
330
5
100
AcDbSymbolTableRecord
100
AcDbLinetypeTableRecord
  2
CENTERX2
 70
     0
  3
Center (2x) ________  __  ________  __  _____
 72
    65
 73
     4
 40
20.32
 49
12.7
 74
     0
 49
-2.54
 74
     0
 49
2.54
 74
     0
 49
-2.54
 74
     0
  0
LTYPE
  5
72
330
5
100
AcDbSymbolTableRecord
100
AcDbLinetypeTableRecord
  2
DOT2
 70
     0
  3
Dot (.5x) ........................................
 72
    65
 73
     2
 40
0.635
 49
0.0
 74
     0
 49
-0.635
 74
     0
  0
ENDTAB
  0
TABLE
  2
LAYER
  5
2
330
0
100
AcDbSymbolTable
 70
     1
  0
LAYER
  5
10
330
2
100
AcDbSymbolTableRecord
100
AcDbLayerTableRecord
  2
0
 70
     0
 62
     7
  6
Continuous
370
    -3
390
F
  0
ENDTAB
  0
TABLE
  2
STYLE
  5
3
330
0
100
AcDbSymbolTable
 70
     1
  0
STYLE
  5
11
330
3
100
AcDbSymbolTableRecord
100
AcDbTextStyleTableRecord
  2
Standard
 70
     0
 40
0.0
 41
1.0
 50
0.0
 71
     0
 42
3.5
  3
txt
  4

  0
ENDTAB
  0
TABLE
  2
VIEW
  5
6
330
0
100
AcDbSymbolTable
 70
     0
  0
ENDTAB
  0
TABLE
  2
UCS
  5
7
330
0
100
AcDbSymbolTable
 70
     0
  0
ENDTAB
  0
TABLE
  2
APPID
  5
9
330
0
100
AcDbSymbolTable
 70
     1
  0
APPID
  5
12
330
9
100
AcDbSymbolTableRecord
100
AcDbRegAppTableRecord
  2
ACAD
 70
     0
  0
ENDTAB
  0
TABLE
  2
DIMSTYLE
  5
A
330
0
100
AcDbSymbolTable
 70
     1
100
AcDbDimStyleTable
  0
DIMSTYLE
105
27
330
A
100
AcDbSymbolTableRecord
100
AcDbDimStyleTableRecord
  2
ISO-25
 70
     0
 41
2.5
 42
0.625
 43
3.75
 44
1.25
 73
     0
 74
     0
 77
     1
 78
     8
140
2.5
141
2.5
143
0.0393700787
147
0.625
171
     3
172
     1
178
     0
271
     2
272
     2
274
     3
278
    44
283
     0
284
     8
340
11
  0
ENDTAB
  0
TABLE
  2
BLOCK_RECORD
  5
1
330
0
100
AcDbSymbolTable
 70
     1
  0
BLOCK_RECORD
  5
1F
330
1
100
AcDbSymbolTableRecord
100
AcDbBlockTableRecord
  2
*Model_Space
340
22
  0
BLOCK_RECORD
  5
1B
330
1
100
AcDbSymbolTableRecord
100
AcDbBlockTableRecord
  2
*Paper_Space
340
1E
  0
BLOCK_RECORD
  5
23
330
1
100
AcDbSymbolTableRecord
100
AcDbBlockTableRecord
  2
*Paper_Space0
340
26
  0
ENDTAB
  0
ENDSEC
  0
SECTION
  2
BLOCKS
  0
BLOCK
  5
20
330
1F
100
AcDbEntity
  8
0
100
AcDbBlockBegin
  2
*Model_Space
 70
     0
 10
0.0
 20
0.0
 30
0.0
  3
*Model_Space
  1

  0
ENDBLK
  5
21
330
1F
100
AcDbEntity
  8
0
100
AcDbBlockEnd
  0
BLOCK
  5
1C
330
1B
100
AcDbEntity
 67
     1
  8
0
100
AcDbBlockBegin
  2
*Paper_Space
 70
     0
 10
0.0
 20
0.0
 30
0.0
  3
*Paper_Space
  1

  0
ENDBLK
  5
1D
330
1B
100
AcDbEntity
 67
     1
  8
0
100
AcDbBlockEnd
  0
BLOCK
  5
24
330
23
100
AcDbEntity
  8
0
100
AcDbBlockBegin
  2
*Paper_Space0
 70
     0
 10
0.0
 20
0.0
 30
0.0
  3
*Paper_Space0
  1

  0
ENDBLK
  5
25
330
23
100
AcDbEntity
  8
0
100
AcDbBlockEnd
  0
ENDSEC
  0
SECTION
  2
ENTITIES
  0
ARC
  5
73
330
1F
100
AcDbEntity
  8
0
  6
Continuous
 62
     7
370
    15
100
AcDbCircle
 10
1190.2091170062
 20
26.8315632228
 30
0.0
 40
7.0
100
AcDbArc
 50
270.0
 51
0.0
  0
LINE
  5
74
330
1F
100
AcDbEntity
  8
0
  6
Continuous
 62
     7
370
    15
100
AcDbLine
 10
1190.20913875
 20
19.8315641317
 30
0.0
 11
980.7740930308
 21
19.8315641317
 31
0.0
  0
ARC
  5
75
330
1F
100
AcDbEntity
  8
0
  6
Continuous
 62
     7
370
    15
100
AcDbCircle
 10
980.7741170062
 20
26.8315632228
 30
0.0
 40
7.0
100
AcDbArc
 50
180.0
 51
270.0
  0
LINE
  5
76
330
1F
100
AcDbEntity
  8
0
  6
Continuous
 62
     7
370
    15
100
AcDbLine
 10
973.7741235484
 20
26.8315634165
 30
0.0
 11
973.7741235484
 21
66.1103295568
 31
0.0
  0
ARC
  5
77
330
1F
100
AcDbEntity
  8
0
  6
Continuous
 62
     7
370
    15
100
AcDbCircle
 10
980.7741170062
 20
66.110326584
 30
0.0
 40
7.0
100
AcDbArc
 50
90.2359156769
 51
180.0
  0
LINE
  5
78
330
1F
100
AcDbEntity
  8
0
  6
Continuous
 62
     7
370
    15
100
AcDbLine
 10
1024.4468334903
 20
73.2902082089
 30
0.0
 11
980.7453039874
 21
73.1102692369
 31
0.0
  0
ARC
  5
79
330
1F
100
AcDbEntity
  8
0
  6
Continuous
 62
     7
370
    15
100
AcDbCircle
 10
1027.2675948231
 20
75.6768354058
 30
0.0
 40
3.344999999999996
100
AcDbArc
 50
232.4040387857
 51
38.0281713073
  0
ARC
  5
7A
330
1F
100
AcDbEntity
  8
0
  6
Continuous
 62
     7
370
    15
100
AcDbCircle
 10
1030.9028670062
 20
78.5199008562
 30
0.0
 40
1.270000000000209
100
AcDbArc
 50
180.0
 51
218.0281713073
  0
LINE
  5
7B
330
1F
100
AcDbEntity
  8
0
  6
Continuous
 62
     7
370
    15
100
AcDbLine
 10
1029.6329144229
 20
81.1432244662
 30
0.0
 11
1029.6329144229
 21
78.5198973898
 31
0.0
  0
ARC
  5
7C
330
1F
100
AcDbEntity
  8
0
  6
Continuous
 62
     7
370
    15
100
AcDbCircle
 10
1030.9028670062
 20
81.1432255893
 30
0.0
 40
1.270000000000209
100
AcDbArc
 50
141.9718286927
 51
180.0
  0
ARC
  5
7D
330
1F
100
AcDbEntity
  8
0
  6
Continuous
 62
     7
370
    15
100
AcDbCircle
 10
1027.2675948231
 20
83.9862910397
 30
0.0
 40
3.344999999999996
100
AcDbArc
 50
321.9718286927
 51
127.5959612143
  0
ARC
  5
7E
330
1F
100
AcDbEntity
  8
0
  6
Continuous
 62
     7
370
    15
100
AcDbCircle
 10
1024.4520326399
 20
87.6429062221
 30
0.0
 40
1.270000000000054
100
AcDbArc
 50
269.7640843231
 51
307.5959612143
  0
LINE
  5
7F
330
1F
100
AcDbEntity
  8
0
  6
Continuous
 62
     7
370
    15
100
AcDbLine
 10
980.7453039874
 20
86.5528600696
 30
0.0
 11
1024.4468334903
 21
86.372913647
 31
0.0
  0
ARC
  5
80
330
1F
100
AcDbEntity
  8
0
  6
Continuous
 62
     7
370
    15
100
AcDbCircle
 10
980.7741170062
 20
93.5527998615
 30
0.0
 40
7.000000000000133
100
AcDbArc
 50
180.0
 51
269.7640843231
  0
LINE
  5
81
330
1F
100
AcDbEntity
  8
0
  6
Continuous
 62
     7
370
    15
100
AcDbLine
 10
973.7741235484
 20
1126.6103031519
 30
0.0
 11
973.7741235484
 21
93.5527997497
 31
0.0
  0
LINE
  5
82
330
1F
100
AcDbEntity
  8
0
  6
Continuous
 62
     7
370
    15
100
AcDbLine
 10
980.7453039874
 20
1133.6102726344
 30
0.0
 11
1024.4468334903
 21
1133.7901594523
 31
0.0
  0
ARC
  5
83
330
1F
100
AcDbEntity
  8
0
  6
Continuous
 62
     7
370
    15
100
AcDbCircle
 10
1024.4520326399
 20
1132.5202202234
 30
0.0
 40
1.270000000000234
100
AcDbArc
 50
52.4040387857
 51
90.2359156769
  0
ARC
  5
84
330
1F
100
AcDbEntity
  8
0
  6
Continuous
 62
     7
370
    15
100
AcDbCircle
 10
1024.4520326399
 20
1148.1429062221
 30
0.0
 40
1.270000000000089
100
AcDbArc
 50
269.7640843231
 51
307.5959612143
  0
LINE
  5
85
330
1F
100
AcDbEntity
  8
0
  6
Continuous
 62
     7
370
    15
100
AcDbLine
 10
1024.4468334903
 20
1146.8729021433
 30
0.0
 11
980.7453039874
 21
1147.0529081706
 31
0.0
  0
ARC
  5
86
330
1F
100
AcDbEntity
  8
0
  6
Continuous
 62
     7
370
    15
100
AcDbCircle
 10
980.7741170062
 20
1154.0527998615
 30
0.0
 40
7.0
100
AcDbArc
 50
180.0
 51
269.7640843231
  0
LINE
  5
87
330
1F
100
AcDbEntity
  8
0
  6
Continuous
 62
     7
370
    15
100
AcDbLine
 10
973.7741235484
 20
1193.3315040949
 30
0.0
 11
973.7741235484
 21
1154.0527584437
 31
0.0
  0
ARC
  5
88
330
1F
100
AcDbEntity
  8
0
  6
Continuous
 62
     7
370
    15
100
AcDbCircle
 10
980.7741170062
 20
1193.3315632228
 30
0.0
 40
7.0
100
AcDbArc
 50
90.0
 51
180.0
  0
LINE
  5
89
330
1F
100
AcDbEntity
  8
0
  6
Continuous
 62
     7
370
    15
100
AcDbLine
 10
1197.2091082324
 20
26.8315634165
 30
0.0
 11
1197.2091082324
 21
1193.3315040949
 31
0.0
  0
ARC
  5
8A
330
1F
100
AcDbEntity
  8
0
  6
Continuous
 62
     7
370
    15
100
AcDbCircle
 10
1030.9028670062
 20
1139.0199008562
 30
0.0
 40
1.270000000000209
100
AcDbArc
 50
180.0
 51
218.0281713073
  0
LINE
  5
8B
330
1F
100
AcDbEntity
  8
0
  6
Continuous
 62
     7
370
    15
100
AcDbLine
 10
1029.6329144229
 20
1139.0198709849
 30
0.0
 11
1029.6329144229
 21
1141.6431906108
 31
0.0
  0
ARC
  5
8C
330
1F
100
AcDbEntity
  8
0
  6
Continuous
 62
     7
370
    15
100
AcDbCircle
 10
1027.2675948231
 20
1136.1768354058
 30
0.0
 40
3.345000000000019
100
AcDbArc
 50
232.4040387857
 51
38.0281713073
  0
ARC
  5
8D
330
1F
100
AcDbEntity
  8
0
  6
Continuous
 62
     7
370
    15
100
AcDbCircle
 10
1027.2675948231
 20
1144.4862910397
 30
0.0
 40
3.345000000000065
100
AcDbArc
 50
321.9718286927
 51
127.5959612143
  0
ARC
  5
8E
330
1F
100
AcDbEntity
  8
0
  6
Continuous
 62
     7
370
    15
100
AcDbCircle
 10
980.7741170062
 20
1126.610326584
 30
0.0
 40
7.000000000000446
100
AcDbArc
 50
90.2359156769
 51
180.0
  0
ARC
  5
8F
330
1F
100
AcDbEntity
  8
0
  6
Continuous
 62
     7
370
    15
100
AcDbCircle
 10
1030.9028670062
 20
1141.6432255893
 30
0.0
 40
1.270000000000209
100
AcDbArc
 50
141.9718286927
 51
180.0
  0
LINE
  5
90
330
1F
100
AcDbEntity
  8
0
  6
Continuous
 62
     7
370
    15
100
AcDbLine
 10
1190.20913875
 20
1200.3315927867
 30
0.0
 11
980.7740930308
 21
1200.3315927867
 31
0.0
  0
ARC
  5
91
330
1F
100
AcDbEntity
  8
0
  6
Continuous
 62
     7
370
    15
100
AcDbCircle
 10
1024.4520326399
 20
72.0202202234
 30
0.0
 40
1.26999999999999
100
AcDbArc
 50
52.4040387857
 51
90.2359156769
  0
ARC
  5
92
330
1F
100
AcDbEntity
  8
0
  6
Continuous
 62
     7
370
    15
100
AcDbCircle
 10
1190.2091170062
 20
1193.3315632228
 30
0.0
 40
7.0
100
AcDbArc
 50
0.0
 51
90.0
  0
ARC
  5
93
330
1F
100
AcDbEntity
  8
0
  6
Continuous
 62
     7
370
    15
100
AcDbCircle
 10
578.6216170062
 20
1193.3315632228
 30
0.0
 40
7.0
100
AcDbArc
 50
0.0
 51
90.0
  0
ARC
  5
94
330
1F
100
AcDbEntity
  8
0
  6
Continuous
 62
     7
370
    15
100
AcDbCircle
 10
578.6216170062
 20
26.8315632228
 30
0.0
 40
7.0
100
AcDbArc
 50
270.0
 51
0.0
  0
LINE
  5
95
330
1F
100
AcDbEntity
  8
0
  6
Continuous
 62
     7
370
    15
100
AcDbLine
 10
578.6216143359
 20
19.8315641317
 30
0.0
 11
369.1866282214
 21
19.8315641317
 31
0.0
  0
ARC
  5
96
330
1F
100
AcDbEntity
  8
0
  6
Continuous
 62
     7
370
    15
100
AcDbCircle
 10
369.1866170062
 20
26.8315632228
 30
0.0
 40
7.0
100
AcDbArc
 50
180.0
 51
270.0
  0
LINE
  5
97
330
1F
100
AcDbEntity
  8
0
  6
Continuous
 62
     7
370
    15
100
AcDbLine
 10
362.1866289367
 20
26.8315634165
 30
0.0
 11
362.1866289367
 21
66.1103295568
 31
0.0
  0
ARC
  5
98
330
1F
100
AcDbEntity
  8
0
  6
Continuous
 62
     7
370
    15
100
AcDbCircle
 10
369.1866170062
 20
66.110326584
 30
0.0
 40
7.0
100
AcDbArc
 50
90.2359156769
 51
180.0
  0
LINE
  5
99
330
1F
100
AcDbEntity
  8
0
  6
Continuous
 62
     7
370
    15
100
AcDbLine
 10
412.8593090762
 20
73.2902082089
 30
0.0
 11
369.1578093757
 21
73.1102692369
 31
0.0
  0
ARC
  5
9A
330
1F
100
AcDbEntity
  8
0
  6
Continuous
 62
     7
370
    15
100
AcDbCircle
 10
412.8645326399
 20
72.0202202234
 30
0.0
 40
1.26999999999999
100
AcDbArc
 50
52.4040387857
 51
90.2359156769
  0
ARC
  5
9B
330
1F
100
AcDbEntity
  8
0
  6
Continuous
 62
     7
370
    15
100
AcDbCircle
 10
415.6800948231
 20
75.6768354058
 30
0.0
 40
3.345000000000121
100
AcDbArc
 50
232.4040387857
 51
38.0281713073
  0
ARC
  5
9C
330
1F
100
AcDbEntity
  8
0
  6
Continuous
 62
     7
370
    15
100
AcDbCircle
 10
419.3153670062
 20
78.5199008562
 30
0.0
 40
1.269999999999875
100
AcDbArc
 50
180.0
 51
218.0281713073
  0
ARC
  5
9D
330
1F
100
AcDbEntity
  8
0
  6
Continuous
 62
     7
370
    15
100
AcDbCircle
 10
419.3153670062
 20
81.1432255893
 30
0.0
 40
1.270000000000015
100
AcDbArc
 50
141.9718286927
 51
180.0
  0
ARC
  5
9E
330
1F
100
AcDbEntity
  8
0
  6
Continuous
 62
     7
370
    15
100
AcDbCircle
 10
415.6800948231
 20
83.9862910397
 30
0.0
 40
3.344999999999981
100
AcDbArc
 50
321.9718286927
 51
127.5959612143
  0
ARC
  5
9F
330
1F
100
AcDbEntity
  8
0
  6
Continuous
 62
     7
370
    15
100
AcDbCircle
 10
412.8645326399
 20
87.6429062221
 30
0.0
 40
1.270000000000054
100
AcDbArc
 50
269.7640843231
 51
307.5959612143
  0
LINE
  5
A0
330
1F
100
AcDbEntity
  8
0
  6
Continuous
 62
     7
370
    15
100
AcDbLine
 10
369.1578093757
 20
86.5528600696
 30
0.0
 11
412.8593090762
 21
86.372913647
 31
0.0
  0
ARC
  5
A1
330
1F
100
AcDbEntity
  8
0
  6
Continuous
 62
     7
370
    15
100
AcDbCircle
 10
369.1866170062
 20
93.5527998615
 30
0.0
 40
7.000000000000134
100
AcDbArc
 50
180.0
 51
269.7640843231
  0
LINE
  5
A2
330
1F
100
AcDbEntity
  8
0
  6
Continuous
 62
     7
370
    15
100
AcDbLine
 10
362.1866289367
 20
1126.6103031519
 30
0.0
 11
362.1866289367
 21
93.5527997497
 31
0.0
  0
ARC
  5
A3
330
1F
100
AcDbEntity
  8
0
  6
Continuous
 62
     7
370
    15
100
AcDbCircle
 10
369.1866170062
 20
1126.610326584
 30
0.0
 40
7.000000000000446
100
AcDbArc
 50
90.2359156769
 51
180.0
  0
LINE
  5
A4
330
1F
100
AcDbEntity
  8
0
  6
Continuous
 62
     7
370
    15
100
AcDbLine
 10
369.1578093757
 20
1133.6102726344
 30
0.0
 11
412.8593090762
 21
1133.7901594523
 31
0.0
  0
ARC
  5
A5
330
1F
100
AcDbEntity
  8
0
  6
Continuous
 62
     7
370
    15
100
AcDbCircle
 10
412.8645326399
 20
1132.5202202234
 30
0.0
 40
1.270000000000234
100
AcDbArc
 50
52.4040387857
 51
90.2359156769
  0
ARC
  5
A6
330
1F
100
AcDbEntity
  8
0
  6
Continuous
 62
     7
370
    15
100
AcDbCircle
 10
415.6800948231
 20
1136.1768354058
 30
0.0
 40
3.345000000000009
100
AcDbArc
 50
232.4040387857
 51
38.0281713073
  0
ARC
  5
A7
330
1F
100
AcDbEntity
  8
0
  6
Continuous
 62
     7
370
    15
100
AcDbCircle
 10
419.3153670062
 20
1139.0199008562
 30
0.0
 40
1.269999999999883
100
AcDbArc
 50
180.0
 51
218.0281713073
  0
LINE
  5
A8
330
1F
100
AcDbEntity
  8
0
  6
Continuous
 62
     7
370
    15
100
AcDbLine
 10
418.0453602065
 20
1139.0198709849
 30
0.0
 11
418.0453602065
 21
1141.6431906108
 31
0.0
  0
ARC
  5
A9
330
1F
100
AcDbEntity
  8
0
  6
Continuous
 62
     7
370
    15
100
AcDbCircle
 10
419.3153670062
 20
1141.6432255893
 30
0.0
 40
1.269999999999868
100
AcDbArc
 50
141.9718286927
 51
180.0
  0
ARC
  5
AA
330
1F
100
AcDbEntity
  8
0
  6
Continuous
 62
     7
370
    15
100
AcDbCircle
 10
415.6800948231
 20
1144.4862910397
 30
0.0
 40
3.345000000000289
100
AcDbArc
 50
321.9718286927
 51
127.5959612143
  0
ARC
  5
AB
330
1F
100
AcDbEntity
  8
0
  6
Continuous
 62
     7
370
    15
100
AcDbCircle
 10
412.8645326399
 20
1148.1429062221
 30
0.0
 40
1.270000000000089
100
AcDbArc
 50
269.7640843231
 51
307.5959612143
  0
LINE
  5
AC
330
1F
100
AcDbEntity
  8
0
  6
Continuous
 62
     7
370
    15
100
AcDbLine
 10
412.8593090762
 20
1146.8729021433
 30
0.0
 11
369.1578093757
 21
1147.0529081706
 31
0.0
  0
ARC
  5
AD
330
1F
100
AcDbEntity
  8
0
  6
Continuous
 62
     7
370
    15
100
AcDbCircle
 10
369.1866170062
 20
1154.0527998615
 30
0.0
 40
7.0
100
AcDbArc
 50
180.0
 51
269.7640843231
  0
LINE
  5
AE
330
1F
100
AcDbEntity
  8
0
  6
Continuous
 62
     7
370
    15
100
AcDbLine
 10
362.1866289367
 20
1193.3315040949
 30
0.0
 11
362.1866289367
 21
1154.0527584437
 31
0.0
  0
ARC
  5
AF
330
1F
100
AcDbEntity
  8
0
  6
Continuous
 62
     7
370
    15
100
AcDbCircle
 10
369.1866170062
 20
1193.3315632228
 30
0.0
 40
7.0
100
AcDbArc
 50
90.0
 51
180.0
  0
LINE
  5
B0
330
1F
100
AcDbEntity
  8
0
  6
Continuous
 62
     7
370
    15
100
AcDbLine
 10
578.6216143359
 20
1200.3315927867
 30
0.0
 11
369.1866282214
 21
1200.3315927867
 31
0.0
  0
LINE
  5
B1
330
1F
100
AcDbEntity
  8
0
  6
Continuous
 62
     7
370
    15
100
AcDbLine
 10
585.621643423
 20
26.8315634165
 30
0.0
 11
585.621643423
 21
1193.3315040949
 31
0.0
  0
LINE
  5
B2
330
1F
100
AcDbEntity
  8
0
  6
Continuous
 62
     7
370
    15
100
AcDbLine
 10
418.0453602065
 20
81.1432244662
 30
0.0
 11
418.0453602065
 21
78.5198973898
 31
0.0
  0
LINE
  5
B3
330
1F
100
AcDbEntity
  8
0
  6
Continuous
 62
     7
370
    15
100
AcDbLine
 10
1466.4940718402
 20
548.0528118495
 30
0.0
 11
1466.4940718402
 21
672.1103432063
 31
0.0
  0
ARC
  5
B4
330
1F
100
AcDbEntity
  8
0
  6
Continuous
 62
     7
370
    15
100
AcDbCircle
 10
1413.0006391893
 20
227.1768354058
 30
0.0
 40
3.345000000000069
100
AcDbArc
 50
141.9718286927
 51
307.5959612143
  0
ARC
  5
B5
330
1F
100
AcDbEntity
  8
0
  6
Continuous
 62
     7
370
    15
100
AcDbCircle
 10
1415.8162013725
 20
223.5202202234
 30
0.0
 40
1.270000000000005
100
AcDbArc
 50
89.7640843231
 51
127.5959612143
  0
LINE
  5
B6
330
1F
100
AcDbEntity
  8
0
  6
Continuous
 62
     7
370
    15
100
AcDbLine
 10
1415.821421503
 20
224.7902097586
 30
0.0
 11
1459.5229510058
 21
224.610263336
 31
0.0
  0
LINE
  5
B7
330
1F
100
AcDbEntity
  8
0
  6
Continuous
 62
     7
370
    15
100
AcDbLine
 10
1459.5229510058
 20
86.5528600696
 30
0.0
 11
1415.821421503
 21
86.372913647
 31
0.0
  0
ARC
  5
B8
330
1F
100
AcDbEntity
  8
0
  6
Continuous
 62
     7
370
    15
100
AcDbCircle
 10
1415.8162013725
 20
87.6429062221
 30
0.0
 40
1.270000000000104
100
AcDbArc
 50
232.4040387857
 51
270.2359156769
  0
ARC
  5
B9
330
1F
100
AcDbEntity
  8
0
  6
Continuous
 62
     7
370
    15
100
AcDbCircle
 10
1413.0006391893
 20
83.9862910397
 30
0.0
 40
3.345000000000096
100
AcDbArc
 50
52.4040387857
 51
218.0281713073
  0
ARC
  5
BA
330
1F
100
AcDbEntity
  8
0
  6
Continuous
 62
     7
370
    15
100
AcDbCircle
 10
1409.3653670062
 20
81.1432255893
 30
0.0
 40
1.269999999999982
100
AcDbArc
 50
0.0
 51
38.0281713073
  0
LINE
  5
BB
330
1F
100
AcDbEntity
  8
0
  6
Continuous
 62
     7
370
    15
100
AcDbLine
 10
1410.6353405704
 20
81.1432244662
 30
0.0
 11
1410.6353405704
 21
78.5198973898
 31
0.0
  0
ARC
  5
BC
330
1F
100
AcDbEntity
  8
0
  6
Continuous
 62
     7
370
    15
100
AcDbCircle
 10
1409.3653670062
 20
78.5199008562
 30
0.0
 40
1.269999999999982
100
AcDbArc
 50
321.9718286927
 51
0.0
  0
ARC
  5
BD
330
1F
100
AcDbEntity
  8
0
  6
Continuous
 62
     7
370
    15
100
AcDbCircle
 10
1413.0006391893
 20
75.6768354058
 30
0.0
 40
3.345000000000096
100
AcDbArc
 50
141.9718286927
 51
307.5959612143
  0
LINE
  5
BE
330
1F
100
AcDbEntity
  8
0
  6
Continuous
 62
     7
370
    15
100
AcDbLine
 10
1415.821421503
 20
73.2902082089
 30
0.0
 11
1459.5229510058
 21
73.1102692369
 31
0.0
  0
LINE
  5
BF
330
1F
100
AcDbEntity
  8
0
  6
Continuous
 62
     7
370
    15
100
AcDbLine
 10
1466.4940718402
 20
26.8315634165
 30
0.0
 11
1466.4940718402
 21
66.1103295568
 31
0.0
  0
LINE
  5
C0
330
1F
100
AcDbEntity
  8
0
  6
Continuous
 62
     7
370
    15
100
AcDbLine
 10
1250.0591162433
 20
19.8315641317
 30
0.0
 11
1459.4941023578
 21
19.8315641317
 31
0.0
  0
LINE
  5
C1
330
1F
100
AcDbEntity
  8
0
  6
Continuous
 62
     7
370
    15
100
AcDbLine
 10
1293.7317970981
 20
73.2902082089
 30
0.0
 11
1250.0302675952
 21
73.1102692369
 31
0.0
  0
ARC
  5
C2
330
1F
100
AcDbEntity
  8
0
  6
Continuous
 62
     7
370
    15
100
AcDbCircle
 10
1293.7370326399
 20
72.0202202234
 30
0.0
 40
1.270000000000103
100
AcDbArc
 50
52.4040387857
 51
90.2359156769
  0
ARC
  5
C3
330
1F
100
AcDbEntity
  8
0
  6
Continuous
 62
     7
370
    15
100
AcDbCircle
 10
1300.1878670062
 20
78.5199008562
 30
0.0
 40
1.269999999999766
100
AcDbArc
 50
180.0
 51
218.0281713073
  0
LINE
  5
C4
330
1F
100
AcDbEntity
  8
0
  6
Continuous
 62
     7
370
    15
100
AcDbLine
 10
1298.9178780307
 20
81.1432244662
 30
0.0
 11
1298.9178780307
 21
78.5198973898
 31
0.0
  0
ARC
  5
C5
330
1F
100
AcDbEntity
  8
0
  6
Continuous
 62
     7
370
    15
100
AcDbCircle
 10
1300.1878670062
 20
81.1432255893
 30
0.0
 40
1.269999999999754
100
AcDbArc
 50
141.9718286927
 51
180.0
  0
ARC
  5
C6
330
1F
100
AcDbEntity
  8
0
  6
Continuous
 62
     7
370
    15
100
AcDbCircle
 10
1296.5525948231
 20
83.9862910397
 30
0.0
 40
3.345000000000275
100
AcDbArc
 50
321.9718286927
 51
127.5959612143
  0
ARC
  5
C7
330
1F
100
AcDbEntity
  8
0
  6
Continuous
 62
     7
370
    15
100
AcDbCircle
 10
1293.7370326399
 20
87.6429062221
 30
0.0
 40
1.26999999999999
100
AcDbArc
 50
269.7640843231
 51
307.5959612143
  0
LINE
  5
C8
330
1F
100
AcDbEntity
  8
0
  6
Continuous
 62
     7
370
    15
100
AcDbLine
 10
1243.0591467609
 20
66.1103295568
 30
0.0
 11
1243.0591467609
 21
26.8315634165
 31
0.0
  0
LINE
  5
C9
330
1F
100
AcDbEntity
  8
0
  6
Continuous
 62
     7
370
    15
100
AcDbLine
 10
1243.0591467609
 20
1126.6103031519
 30
0.0
 11
1243.0591467609
 21
93.5527997497
 31
0.0
  0
LINE
  5
CA
330
1F
100
AcDbEntity
  8
0
  6
Continuous
 62
     7
370
    15
100
AcDbLine
 10
1466.4940718402
 20
245.0527938489
 30
0.0
 11
1466.4940718402
 21
369.1103401068
 31
0.0
  0
LINE
  5
CB
330
1F
100
AcDbEntity
  8
0
  6
Continuous
 62
     7
370
    15
100
AcDbLine
 10
1466.4940718402
 20
396.5527953986
 30
0.0
 11
1466.4940718402
 21
520.6102969531
 31
0.0
  0
LINE
  5
CC
330
1F
100
AcDbEntity
  8
0
  6
Continuous
 62
     7
370
    15
100
AcDbLine
 10
1250.0302675952
 20
86.5528600696
 30
0.0
 11
1293.7317970981
 21
86.372913647
 31
0.0
  0
ARC
  5
CD
330
1F
100
AcDbEntity
  8
0
  6
Continuous
 62
     7
370
    15
100
AcDbCircle
 10
1296.5525948231
 20
75.6768354058
 30
0.0
 40
3.345000000000275
100
AcDbArc
 50
232.4040387857
 51
38.0281713073
  0
ARC
  5
CE
330
1F
100
AcDbEntity
  8
0
  6
Continuous
 62
     7
370
    15
100
AcDbCircle
 10
1415.8162013725
 20
72.0202202234
 30
0.0
 40
1.270000000000104
100
AcDbArc
 50
89.7640843231
 51
127.5959612143
  0
LINE
  5
CF
330
1F
100
AcDbEntity
  8
0
  6
Continuous
 62
     7
370
    15
100
AcDbLine
 10
1466.4940718402
 20
93.5527997497
 30
0.0
 11
1466.4940718402
 21
217.6103236559
 31
0.0
  0
LINE
  5
D0
330
1F
100
AcDbEntity
  8
0
  6
Continuous
 62
     7
370
    15
100
AcDbLine
 10
1459.5229510058
 20
1133.6102726344
 30
0.0
 11
1415.821421503
 21
1133.7901594523
 31
0.0
  0
ARC
  5
D1
330
1F
100
AcDbEntity
  8
0
  6
Continuous
 62
     7
370
    15
100
AcDbCircle
 10
1415.8162013725
 20
1132.5202202234
 30
0.0
 40
1.270000000000095
100
AcDbArc
 50
89.7640843231
 51
127.5959612143
  0
ARC
  5
D2
330
1F
100
AcDbEntity
  8
0
  6
Continuous
 62
     7
370
    15
100
AcDbCircle
 10
1413.0006391893
 20
1136.1768354058
 30
0.0
 40
3.345000000000019
100
AcDbArc
 50
141.9718286927
 51
307.5959612143
  0
ARC
  5
D3
330
1F
100
AcDbEntity
  8
0
  6
Continuous
 62
     7
370
    15
100
AcDbCircle
 10
1409.3653670062
 20
1139.0199008562
 30
0.0
 40
1.269999999999982
100
AcDbArc
 50
321.9718286927
 51
0.0
  0
LINE
  5
D4
330
1F
100
AcDbEntity
  8
0
  6
Continuous
 62
     7
370
    15
100
AcDbLine
 10
1410.6353405704
 20
1139.0198709849
 30
0.0
 11
1410.6353405704
 21
1141.6431906108
 31
0.0
  0
ARC
  5
D5
330
1F
100
AcDbEntity
  8
0
  6
Continuous
 62
     7
370
    15
100
AcDbCircle
 10
1409.3653670062
 20
1141.6432255893
 30
0.0
 40
1.269999999999982
100
AcDbArc
 50
0.0
 51
38.0281713073
  0
ARC
  5
D6
330
1F
100
AcDbEntity
  8
0
  6
Continuous
 62
     7
370
    15
100
AcDbCircle
 10
1413.0006391893
 20
1144.4862910397
 30
0.0
 40
3.345000000000244
100
AcDbArc
 50
52.4040387857
 51
218.0281713073
  0
ARC
  5
D7
330
1F
100
AcDbEntity
  8
0
  6
Continuous
 62
     7
370
    15
100
AcDbCircle
 10
1415.8162013725
 20
1148.1429062221
 30
0.0
 40
1.27000000000009
100
AcDbArc
 50
232.4040387857
 51
270.2359156769
  0
LINE
  5
D8
330
1F
100
AcDbEntity
  8
0
  6
Continuous
 62
     7
370
    15
100
AcDbLine
 10
1415.821421503
 20
1146.8729021433
 30
0.0
 11
1459.5229510058
 21
1147.0529081706
 31
0.0
  0
LINE
  5
D9
330
1F
100
AcDbEntity
  8
0
  6
Continuous
 62
     7
370
    15
100
AcDbLine
 10
1250.0591162433
 20
1200.3315927867
 30
0.0
 11
1459.4941023578
 21
1200.3315927867
 31
0.0
  0
LINE
  5
DA
330
1F
100
AcDbEntity
  8
0
  6
Continuous
 62
     7
370
    15
100
AcDbLine
 10
1466.4940718402
 20
1193.3315040949
 30
0.0
 11
1466.4940718402
 21
1154.0527584437
 31
0.0
  0
LINE
  5
DB
330
1F
100
AcDbEntity
  8
0
  6
Continuous
 62
     7
370
    15
100
AcDbLine
 10
1466.4940718402
 20
1126.6103031519
 30
0.0
 11
1466.4940718402
 21
1002.5527717951
 31
0.0
  0
LINE
  5
DC
330
1F
100
AcDbEntity
  8
0
  6
Continuous
 62
     7
370
    15
100
AcDbLine
 10
1466.4940718402
 20
975.1103165034
 30
0.0
 11
1466.4940718402
 21
851.0527851466
 31
0.0
  0
LINE
  5
DD
330
1F
100
AcDbEntity
  8
0
  6
Continuous
 62
     7
370
    15
100
AcDbLine
 10
1466.4940718402
 20
823.6103298548
 30
0.0
 11
1466.4940718402
 21
699.552798498
 31
0.0
  0
ARC
  5
DE
330
1F
100
AcDbEntity
  8
0
  6
Continuous
 62
     7
370
    15
100
AcDbCircle
 10
1459.4941170062
 20
26.8315632228
 30
0.0
 40
7.000000000000007
100
AcDbArc
 50
270.0
 51
0.0
  0
ARC
  5
DF
330
1F
100
AcDbEntity
  8
0
  6
Continuous
 62
     7
370
    15
100
AcDbCircle
 10
1459.4941170062
 20
66.110326584
 30
0.0
 40
7.000000000000133
100
AcDbArc
 50
0.0
 51
89.7640843231
  0
LINE
  5
E0
330
1F
100
AcDbEntity
  8
0
  6
Continuous
 62
     7
370
    15
100
AcDbLine
 10
1459.5229510058
 20
541.052842367
 30
0.0
 11
1415.821421503
 21
540.8728959445
 31
0.0
  0
ARC
  5
E1
330
1F
100
AcDbEntity
  8
0
  6
Continuous
 62
     7
370
    15
100
AcDbCircle
 10
1415.8162013725
 20
542.1429062221
 30
0.0
 40
1.269999999999976
100
AcDbArc
 50
232.4040387857
 51
270.2359156769
  0
ARC
  5
E2
330
1F
100
AcDbEntity
  8
0
  6
Continuous
 62
     7
370
    15
100
AcDbCircle
 10
1413.0006391893
 20
538.4862910397
 30
0.0
 40
3.345000000000104
100
AcDbArc
 50
52.4040387857
 51
218.0281713073
  0
ARC
  5
E3
330
1F
100
AcDbEntity
  8
0
  6
Continuous
 62
     7
370
    15
100
AcDbCircle
 10
1409.3653670062
 20
535.6432255893
 30
0.0
 40
1.269999999999982
100
AcDbArc
 50
0.0
 51
38.0281713073
  0
LINE
  5
E4
330
1F
100
AcDbEntity
  8
0
  6
Continuous
 62
     7
370
    15
100
AcDbLine
 10
1410.6353405704
 20
535.6432440165
 30
0.0
 11
1410.6353405704
 21
533.0199243907
 31
0.0
  0
ARC
  5
E5
330
1F
100
AcDbEntity
  8
0
  6
Continuous
 62
     7
370
    15
100
AcDbCircle
 10
1409.3653670062
 20
533.0199008562
 30
0.0
 40
1.269999999999982
100
AcDbArc
 50
321.9718286927
 51
0.0
  0
ARC
  5
E6
330
1F
100
AcDbEntity
  8
0
  6
Continuous
 62
     7
370
    15
100
AcDbCircle
 10
1413.0006391893
 20
530.1768354058
 30
0.0
 40
3.345000000000104
100
AcDbArc
 50
141.9718286927
 51
307.5959612143
  0
ARC
  5
E7
330
1F
100
AcDbEntity
  8
0
  6
Continuous
 62
     7
370
    15
100
AcDbCircle
 10
1415.8162013725
 20
526.5202202234
 30
0.0
 40
1.269999999999976
100
AcDbArc
 50
89.7640843231
 51
127.5959612143
  0
LINE
  5
E8
330
1F
100
AcDbEntity
  8
0
  6
Continuous
 62
     7
370
    15
100
AcDbLine
 10
1415.821421503
 20
527.7902128581
 30
0.0
 11
1459.5229510058
 21
527.6102664355
 31
0.0
  0
LINE
  5
E9
330
1F
100
AcDbEntity
  8
0
  6
Continuous
 62
     7
370
    15
100
AcDbLine
 10
1459.5229510058
 20
389.5528557185
 30
0.0
 11
1415.821421503
 21
389.3729092959
 31
0.0
  0
ARC
  5
EA
330
1F
100
AcDbEntity
  8
0
  6
Continuous
 62
     7
370
    15
100
AcDbCircle
 10
1415.8162013725
 20
390.6429062221
 30
0.0
 40
1.269999999999976
100
AcDbArc
 50
232.4040387857
 51
270.2359156769
  0
ARC
  5
EB
330
1F
100
AcDbEntity
  8
0
  6
Continuous
 62
     7
370
    15
100
AcDbCircle
 10
1413.0006391893
 20
386.9862910397
 30
0.0
 40
3.345000000000069
100
AcDbArc
 50
52.4040387857
 51
218.0281713073
  0
ARC
  5
EC
330
1F
100
AcDbEntity
  8
0
  6
Continuous
 62
     7
370
    15
100
AcDbCircle
 10
1409.3653670062
 20
384.1432255893
 30
0.0
 40
1.269999999999982
100
AcDbArc
 50
0.0
 51
38.0281713073
  0
LINE
  5
ED
330
1F
100
AcDbEntity
  8
0
  6
Continuous
 62
     7
370
    15
100
AcDbLine
 10
1410.6353405704
 20
384.1432275656
 30
0.0
 11
1410.6353405704
 21
381.5199079398
 31
0.0
  0
ARC
  5
EE
330
1F
100
AcDbEntity
  8
0
  6
Continuous
 62
     7
370
    15
100
AcDbCircle
 10
1409.3653670062
 20
381.5199008562
 30
0.0
 40
1.269999999999982
100
AcDbArc
 50
321.9718286927
 51
0.0
  0
ARC
  5
EF
330
1F
100
AcDbEntity
  8
0
  6
Continuous
 62
     7
370
    15
100
AcDbCircle
 10
1413.0006391893
 20
378.6768354058
 30
0.0
 40
3.345000000000069
100
AcDbArc
 50
141.9718286927
 51
307.5959612143
  0
ARC
  5
F0
330
1F
100
AcDbEntity
  8
0
  6
Continuous
 62
     7
370
    15
100
AcDbCircle
 10
1415.8162013725
 20
375.0202202234
 30
0.0
 40
1.269999999999976
100
AcDbArc
 50
89.7640843231
 51
127.5959612143
  0
LINE
  5
F1
330
1F
100
AcDbEntity
  8
0
  6
Continuous
 62
     7
370
    15
100
AcDbLine
 10
1415.821421503
 20
376.2901964072
 30
0.0
 11
1459.5229510058
 21
376.1102797869
 31
0.0
  0
LINE
  5
F2
330
1F
100
AcDbEntity
  8
0
  6
Continuous
 62
     7
370
    15
100
AcDbLine
 10
1459.5229510058
 20
238.0528541688
 30
0.0
 11
1415.821421503
 21
237.8729226473
 31
0.0
  0
ARC
  5
F3
330
1F
100
AcDbEntity
  8
0
  6
Continuous
 62
     7
370
    15
100
AcDbCircle
 10
1415.8162013725
 20
239.1429062221
 30
0.0
 40
1.270000000000005
100
AcDbArc
 50
232.4040387857
 51
270.2359156769
  0
ARC
  5
F4
330
1F
100
AcDbEntity
  8
0
  6
Continuous
 62
     7
370
    15
100
AcDbCircle
 10
1413.0006391893
 20
235.4862910397
 30
0.0
 40
3.345000000000069
100
AcDbArc
 50
52.4040387857
 51
218.0281713073
  0
ARC
  5
F5
330
1F
100
AcDbEntity
  8
0
  6
Continuous
 62
     7
370
    15
100
AcDbCircle
 10
1409.3653670062
 20
232.6432255893
 30
0.0
 40
1.269999999999982
100
AcDbArc
 50
0.0
 51
38.0281713073
  0
LINE
  5
F6
330
1F
100
AcDbEntity
  8
0
  6
Continuous
 62
     7
370
    15
100
AcDbLine
 10
1410.6353405704
 20
232.6432260159
 30
0.0
 11
1410.6353405704
 21
230.0199063901
 31
0.0
  0
ARC
  5
F7
330
1F
100
AcDbEntity
  8
0
  6
Continuous
 62
     7
370
    15
100
AcDbCircle
 10
1409.3653670062
 20
230.0199008562
 30
0.0
 40
1.269999999999982
100
AcDbArc
 50
321.9718286927
 51
0.0
  0
ARC
  5
F8
330
1F
100
AcDbEntity
  8
0
  6
Continuous
 62
     7
370
    15
100
AcDbCircle
 10
1296.5525948231
 20
1144.4862910397
 30
0.0
 40
3.345000000000424
100
AcDbArc
 50
321.9718286927
 51
127.5959612143
  0
ARC
  5
F9
330
1F
100
AcDbEntity
  8
0
  6
Continuous
 62
     7
370
    15
100
AcDbCircle
 10
1300.1878670062
 20
1141.6432255893
 30
0.0
 40
1.269999999999754
100
AcDbArc
 50
141.9718286927
 51
180.0
  0
LINE
  5
FA
330
1F
100
AcDbEntity
  8
0
  6
Continuous
 62
     7
370
    15
100
AcDbLine
 10
1298.9178780307
 20
1139.0198709849
 30
0.0
 11
1298.9178780307
 21
1141.6431906108
 31
0.0
  0
ARC
  5
FB
330
1F
100
AcDbEntity
  8
0
  6
Continuous
 62
     7
370
    15
100
AcDbCircle
 10
1300.1878670062
 20
1139.0199008562
 30
0.0
 40
1.269999999999754
100
AcDbArc
 50
180.0
 51
218.0281713073
  0
ARC
  5
FC
330
1F
100
AcDbEntity
  8
0
  6
Continuous
 62
     7
370
    15
100
AcDbCircle
 10
1296.5525948231
 20
1136.1768354058
 30
0.0
 40
3.345000000000144
100
AcDbArc
 50
232.4040387857
 51
38.0281713073
  0
ARC
  5
FD
330
1F
100
AcDbEntity
  8
0
  6
Continuous
 62
     7
370
    15
100
AcDbCircle
 10
1293.7370326399
 20
1132.5202202234
 30
0.0
 40
1.270000000000234
100
AcDbArc
 50
52.4040387857
 51
90.2359156769
  0
LINE
  5
FE
330
1F
100
AcDbEntity
  8
0
  6
Continuous
 62
     7
370
    15
100
AcDbLine
 10
1250.0302675952
 20
1133.6102726344
 30
0.0
 11
1293.7317970981
 21
1133.7901594523
 31
0.0
  0
ARC
  5
FF
330
1F
100
AcDbEntity
  8
0
  6
Continuous
 62
     7
370
    15
100
AcDbCircle
 10
1415.8162013725
 20
693.6429062221
 30
0.0
 40
1.269999999999976
100
AcDbArc
 50
232.4040387857
 51
270.2359156769
  0
LINE
  5
100
330
1F
100
AcDbEntity
  8
0
  6
Continuous
 62
     7
370
    15
100
AcDbLine
 10
1415.821421503
 20
692.3729421977
 30
0.0
 11
1459.5229510058
 21
692.5528886202
 31
0.0
  0
ARC
  5
101
330
1F
100
AcDbEntity
  8
0
  6
Continuous
 62
     7
370
    15
100
AcDbCircle
 10
1415.8162013725
 20
829.5202202234
 30
0.0
 40
1.269999999999976
100
AcDbArc
 50
89.7640843231
 51
127.5959612143
  0
ARC
  5
102
330
1F
100
AcDbEntity
  8
0
  6
Continuous
 62
     7
370
    15
100
AcDbCircle
 10
1413.0006391893
 20
833.1768354058
 30
0.0
 40
3.345000000000109
100
AcDbArc
 50
141.9718286927
 51
307.5959612143
  0
ARC
  5
103
330
1F
100
AcDbEntity
  8
0
  6
Continuous
 62
     7
370
    15
100
AcDbCircle
 10
1409.3653670062
 20
836.0199008562
 30
0.0
 40
1.269999999999982
100
AcDbArc
 50
321.9718286927
 51
0.0
  0
LINE
  5
104
330
1F
100
AcDbEntity
  8
0
  6
Continuous
 62
     7
370
    15
100
AcDbLine
 10
1410.6353405704
 20
836.0198976878
 30
0.0
 11
1410.6353405704
 21
838.6432173136
 31
0.0
  0
ARC
  5
105
330
1F
100
AcDbEntity
  8
0
  6
Continuous
 62
     7
370
    15
100
AcDbCircle
 10
1409.3653670062
 20
838.6432255893
 30
0.0
 40
1.270000000000024
100
AcDbArc
 50
0.0
 51
38.0281713073
  0
ARC
  5
106
330
1F
100
AcDbEntity
  8
0
  6
Continuous
 62
     7
370
    15
100
AcDbCircle
 10
1413.0006391893
 20
841.4862910397
 30
0.0
 40
3.345000000000034
100
AcDbArc
 50
52.4040387857
 51
218.0281713073
  0
ARC
  5
107
330
1F
100
AcDbEntity
  8
0
  6
Continuous
 62
     7
370
    15
100
AcDbCircle
 10
1459.4941170062
 20
1193.3315632228
 30
0.0
 40
7.0
100
AcDbArc
 50
0.0
 51
90.0
  0
ARC
  5
108
330
1F
100
AcDbEntity
  8
0
  6
Continuous
 62
     7
370
    15
100
AcDbCircle
 10
1459.4941170062
 20
1154.0527998615
 30
0.0
 40
7.0
100
AcDbArc
 50
270.2359156769
 51
0.0
  0
ARC
  5
109
330
1F
100
AcDbEntity
  8
0
  6
Continuous
 62
     7
370
    15
100
AcDbCircle
 10
1459.4941170062
 20
1002.5527998615
 30
0.0
 40
7.0
100
AcDbArc
 50
270.2359156769
 51
0.0
  0
ARC
  5
10A
330
1F
100
AcDbEntity
  8
0
  6
Continuous
 62
     7
370
    15
100
AcDbCircle
 10
1459.4941170062
 20
851.0527998615
 30
0.0
 40
7.000000000000105
100
AcDbArc
 50
270.2359156769
 51
0.0
  0
ARC
  5
10B
330
1F
100
AcDbEntity
  8
0
  6
Continuous
 62
     7
370
    15
100
AcDbCircle
 10
1459.4941170062
 20
699.5527998615
 30
0.0
 40
7.0
100
AcDbArc
 50
270.2359156769
 51
0.0
  0
ARC
  5
10C
330
1F
100
AcDbEntity
  8
0
  6
Continuous
 62
     7
370
    15
100
AcDbCircle
 10
1250.0591170062
 20
1154.0527998615
 30
0.0
 40
7.000000000000227
100
AcDbArc
 50
180.0
 51
269.7640843231
  0
ARC
  5
10D
330
1F
100
AcDbEntity
  8
0
  6
Continuous
 62
     7
370
    15
100
AcDbCircle
 10
1250.0591170062
 20
1193.3315632228
 30
0.0
 40
7.000000000000227
100
AcDbArc
 50
90.0
 51
180.0
  0
ARC
  5
10E
330
1F
100
AcDbEntity
  8
0
  6
Continuous
 62
     7
370
    15
100
AcDbCircle
 10
1459.4941170062
 20
975.110326584
 30
0.0
 40
7.0
100
AcDbArc
 50
0.0
 51
89.7640843231
  0
ARC
  5
10F
330
1F
100
AcDbEntity
  8
0
  6
Continuous
 62
     7
370
    15
100
AcDbCircle
 10
1459.4941170062
 20
823.610326584
 30
0.0
 40
7.0
100
AcDbArc
 50
0.0
 51
89.7640843231
  0
ARC
  5
110
330
1F
100
AcDbEntity
  8
0
  6
Continuous
 62
     7
370
    15
100
AcDbCircle
 10
1459.4941170062
 20
672.110326584
 30
0.0
 40
7.000000000000105
100
AcDbArc
 50
0.0
 51
89.7640843231
  0
ARC
  5
111
330
1F
100
AcDbEntity
  8
0
  6
Continuous
 62
     7
370
    15
100
AcDbCircle
 10
1459.4941170062
 20
1126.610326584
 30
0.0
 40
7.000000000000446
100
AcDbArc
 50
0.0
 51
89.7640843231
  0
ARC
  5
112
330
1F
100
AcDbEntity
  8
0
  6
Continuous
 62
     7
370
    15
100
AcDbCircle
 10
1250.0591170062
 20
1126.610326584
 30
0.0
 40
7.000000000000447
100
AcDbArc
 50
90.2359156769
 51
180.0
  0
LINE
  5
113
330
1F
100
AcDbEntity
  8
0
  6
Continuous
 62
     7
370
    15
100
AcDbLine
 10
1459.5229510058
 20
679.110253084
 30
0.0
 11
1415.821421503
 21
679.2901995066
 31
0.0
  0
ARC
  5
114
330
1F
100
AcDbEntity
  8
0
  6
Continuous
 62
     7
370
    15
100
AcDbCircle
 10
1415.8162013725
 20
678.0202202234
 30
0.0
 40
1.269999999999976
100
AcDbArc
 50
89.7640843231
 51
127.5959612143
  0
ARC
  5
115
330
1F
100
AcDbEntity
  8
0
  6
Continuous
 62
     7
370
    15
100
AcDbCircle
 10
1413.0006391893
 20
681.6768354058
 30
0.0
 40
3.345000000000104
100
AcDbArc
 50
141.9718286927
 51
307.5959612143
  0
ARC
  5
116
330
1F
100
AcDbEntity
  8
0
  6
Continuous
 62
     7
370
    15
100
AcDbCircle
 10
1409.3653670062
 20
684.5199008562
 30
0.0
 40
1.269999999999982
100
AcDbArc
 50
321.9718286927
 51
0.0
  0
LINE
  5
117
330
1F
100
AcDbEntity
  8
0
  6
Continuous
 62
     7
370
    15
100
AcDbLine
 10
1410.6353405704
 20
684.5199110392
 30
0.0
 11
1410.6353405704
 21
687.1432306651
 31
0.0
  0
ARC
  5
118
330
1F
100
AcDbEntity
  8
0
  6
Continuous
 62
     7
370
    15
100
AcDbCircle
 10
1409.3653670062
 20
687.1432255893
 30
0.0
 40
1.269999999999982
100
AcDbArc
 50
0.0
 51
38.0281713073
  0
ARC
  5
119
330
1F
100
AcDbEntity
  8
0
  6
Continuous
 62
     7
370
    15
100
AcDbCircle
 10
1413.0006391893
 20
689.9862910397
 30
0.0
 40
3.345000000000104
100
AcDbArc
 50
52.4040387857
 51
218.0281713073
  0
ARC
  5
11A
330
1F
100
AcDbEntity
  8
0
  6
Continuous
 62
     7
370
    15
100
AcDbCircle
 10
1409.3653670062
 20
987.5199008562
 30
0.0
 40
1.269999999999982
100
AcDbArc
 50
321.9718286927
 51
0.0
  0
LINE
  5
11B
330
1F
100
AcDbEntity
  8
0
  6
Continuous
 62
     7
370
    15
100
AcDbLine
 10
1410.6353405704
 20
987.5198843363
 30
0.0
 11
1410.6353405704
 21
990.1432039622
 31
0.0
  0
LINE
  5
11C
330
1F
100
AcDbEntity
  8
0
  6
Continuous
 62
     7
370
    15
100
AcDbLine
 10
1459.5229510058
 20
830.6102397326
 30
0.0
 11
1415.821421503
 21
830.7901861552
 31
0.0
  0
ARC
  5
11D
330
1F
100
AcDbEntity
  8
0
  6
Continuous
 62
     7
370
    15
100
AcDbCircle
 10
1413.0006391893
 20
992.9862910397
 30
0.0
 40
3.345000000000109
100
AcDbArc
 50
52.4040387857
 51
218.0281713073
  0
ARC
  5
11E
330
1F
100
AcDbEntity
  8
0
  6
Continuous
 62
     7
370
    15
100
AcDbCircle
 10
1415.8162013725
 20
996.6429062221
 30
0.0
 40
1.27000000000009
100
AcDbArc
 50
232.4040387857
 51
270.2359156769
  0
LINE
  5
11F
330
1F
100
AcDbEntity
  8
0
  6
Continuous
 62
     7
370
    15
100
AcDbLine
 10
1293.7317970981
 20
1146.8729021433
 30
0.0
 11
1250.0302675952
 21
1147.0529081706
 31
0.0
  0
ARC
  5
120
330
1F
100
AcDbEntity
  8
0
  6
Continuous
 62
     7
370
    15
100
AcDbCircle
 10
1293.7370326399
 20
1148.1429062221
 30
0.0
 40
1.270000000000089
100
AcDbArc
 50
269.7640843231
 51
307.5959612143
  0
ARC
  5
121
330
1F
100
AcDbEntity
  8
0
  6
Continuous
 62
     7
370
    15
100
AcDbCircle
 10
1250.0591170062
 20
26.8315632228
 30
0.0
 40
7.000000000000227
100
AcDbArc
 50
180.0
 51
270.0
  0
ARC
  5
122
330
1F
100
AcDbEntity
  8
0
  6
Continuous
 62
     7
370
    15
100
AcDbCircle
 10
1415.8162013725
 20
845.1429062221
 30
0.0
 40
1.269999999999976
100
AcDbArc
 50
232.4040387857
 51
270.2359156769
  0
LINE
  5
123
330
1F
100
AcDbEntity
  8
0
  6
Continuous
 62
     7
370
    15
100
AcDbLine
 10
1415.821421503
 20
843.8729288462
 30
0.0
 11
1459.5229510058
 21
844.0528752688
 31
0.0
  0
LINE
  5
124
330
1F
100
AcDbEntity
  8
0
  6
Continuous
 62
     7
370
    15
100
AcDbLine
 10
1459.5229510058
 20
982.1102859858
 30
0.0
 11
1415.821421503
 21
982.2902324084
 31
0.0
  0
ARC
  5
125
330
1F
100
AcDbEntity
  8
0
  6
Continuous
 62
     7
370
    15
100
AcDbCircle
 10
1415.8162013725
 20
981.0202202234
 30
0.0
 40
1.269999999999976
100
AcDbArc
 50
89.7640843231
 51
127.5959612143
  0
ARC
  5
126
330
1F
100
AcDbEntity
  8
0
  6
Continuous
 62
     7
370
    15
100
AcDbCircle
 10
1413.0006391893
 20
984.6768354058
 30
0.0
 40
3.345000000000034
100
AcDbArc
 50
141.9718286927
 51
307.5959612143
  0
ARC
  5
127
330
1F
100
AcDbEntity
  8
0
  6
Continuous
 62
     7
370
    15
100
AcDbCircle
 10
1250.0591170062
 20
66.110326584
 30
0.0
 40
7.000000000000227
100
AcDbArc
 50
90.2359156769
 51
180.0
  0
ARC
  5
128
330
1F
100
AcDbEntity
  8
0
  6
Continuous
 62
     7
370
    15
100
AcDbCircle
 10
1459.4941170062
 20
217.610326584
 30
0.0
 40
7.000000000000048
100
AcDbArc
 50
0.0
 51
89.7640843231
  0
ARC
  5
129
330
1F
100
AcDbEntity
  8
0
  6
Continuous
 62
     7
370
    15
100
AcDbCircle
 10
1409.3653670062
 20
990.1432255893
 30
0.0
 40
1.269999999999982
100
AcDbArc
 50
0.0
 51
38.0281713073
  0
ARC
  5
12A
330
1F
100
AcDbEntity
  8
0
  6
Continuous
 62
     7
370
    15
100
AcDbCircle
 10
1459.4941170062
 20
396.5527998615
 30
0.0
 40
7.0
100
AcDbArc
 50
270.2359156769
 51
0.0
  0
ARC
  5
12B
330
1F
100
AcDbEntity
  8
0
  6
Continuous
 62
     7
370
    15
100
AcDbCircle
 10
1250.0591170062
 20
93.5527998615
 30
0.0
 40
7.000000000000227
100
AcDbArc
 50
180.0
 51
269.7640843231
  0
LINE
  5
12C
330
1F
100
AcDbEntity
  8
0
  6
Continuous
 62
     7
370
    15
100
AcDbLine
 10
1415.821421503
 20
995.3729154948
 30
0.0
 11
1459.5229510058
 21
995.5528619174
 31
0.0
  0
ARC
  5
12D
330
1F
100
AcDbEntity
  8
0
  6
Continuous
 62
     7
370
    15
100
AcDbCircle
 10
1459.4941170062
 20
520.610326584
 30
0.0
 40
7.0
100
AcDbArc
 50
0.0
 51
89.7640843231
  0
ARC
  5
12E
330
1F
100
AcDbEntity
  8
0
  6
Continuous
 62
     7
370
    15
100
AcDbCircle
 10
1459.4941170062
 20
369.110326584
 30
0.0
 40
7.000000000000048
100
AcDbArc
 50
0.0
 51
89.7640843231
  0
ARC
  5
12F
330
1F
100
AcDbEntity
  8
0
  6
Continuous
 62
     7
370
    15
100
AcDbCircle
 10
1459.4941170062
 20
548.0527998615
 30
0.0
 40
7.0
100
AcDbArc
 50
270.2359156769
 51
0.0
  0
ARC
  5
130
330
1F
100
AcDbEntity
  8
0
  6
Continuous
 62
     7
370
    15
100
AcDbCircle
 10
1459.4941170062
 20
245.0527998615
 30
0.0
 40
7.00000000000002
100
AcDbArc
 50
270.2359156769
 51
0.0
  0
LINE
  5
131
330
1F
100
AcDbEntity
  8
0
  6
Continuous
 62
     7
370
    15
100
AcDbLine
 10
1243.0591467609
 20
1154.0527584437
 30
0.0
 11
1243.0591467609
 21
1193.3315040949
 31
0.0
  0
ARC
  5
132
330
1F
100
AcDbEntity
  8
0
  6
Continuous
 62
     7
370
    15
100
AcDbCircle
 10
1459.4941170062
 20
93.5527998615
 30
0.0
 40
7.0
100
AcDbArc
 50
270.2359156769
 51
0.0
  0
ARC
  5
133
330
1F
100
AcDbEntity
  8
0
  6
Continuous
 62
     7
370
    15
100
AcDbCircle
 10
1801.7966170062
 20
93.5527998615
 30
0.0
 40
7.000000000000133
100
AcDbArc
 50
270.2359156769
 51
0.0
  0
ARC
  5
134
330
1F
100
AcDbEntity
  8
0
  6
Continuous
 62
     7
370
    15
100
AcDbCircle
 10
1801.7966170062
 20
66.110326584
 30
0.0
 40
6.999999999999906
100
AcDbArc
 50
0.0
 51
89.7640843231
  0
ARC
  5
135
330
1F
100
AcDbEntity
  8
0
  6
Continuous
 62
     7
370
    15
100
AcDbCircle
 10
1801.7966170062
 20
26.8315632228
 30
0.0
 40
6.999999999999897
100
AcDbArc
 50
270.0
 51
0.0
  0
ARC
  5
136
330
1F
100
AcDbEntity
  8
0
  6
Continuous
 62
     7
370
    15
100
AcDbCircle
 10
1592.3616170062
 20
26.8315632228
 30
0.0
 40
6.999999999999897
100
AcDbArc
 50
180.0
 51
270.0
  0
ARC
  5
137
330
1F
100
AcDbEntity
  8
0
  6
Continuous
 62
     7
370
    15
100
AcDbCircle
 10
1592.3616170062
 20
66.110326584
 30
0.0
 40
6.999999999999906
100
AcDbArc
 50
90.2359156769
 51
180.0
  0
ARC
  5
138
330
1F
100
AcDbEntity
  8
0
  6
Continuous
 62
     7
370
    15
100
AcDbCircle
 10
1592.3616170062
 20
93.5527998615
 30
0.0
 40
7.000000000000133
100
AcDbArc
 50
180.0
 51
269.7640843231
  0
ARC
  5
139
330
1F
100
AcDbEntity
  8
0
  6
Continuous
 62
     7
370
    15
100
AcDbCircle
 10
1592.3616170062
 20
217.610326584
 30
0.0
 40
7.000000000000048
100
AcDbArc
 50
90.2359156769
 51
180.0
  0
ARC
  5
13A
330
1F
100
AcDbEntity
  8
0
  6
Continuous
 62
     7
370
    15
100
AcDbCircle
 10
1592.3616170062
 20
245.0527998615
 30
0.0
 40
7.00000000000002
100
AcDbArc
 50
180.0
 51
269.7640843231
  0
ARC
  5
13B
330
1F
100
AcDbEntity
  8
0
  6
Continuous
 62
     7
370
    15
100
AcDbCircle
 10
1592.3616170062
 20
369.110326584
 30
0.0
 40
7.000000000000105
100
AcDbArc
 50
90.2359156769
 51
180.0
  0
ARC
  5
13C
330
1F
100
AcDbEntity
  8
0
  6
Continuous
 62
     7
370
    15
100
AcDbCircle
 10
1592.3616170062
 20
396.5527998615
 30
0.0
 40
7.0
100
AcDbArc
 50
180.0
 51
269.7640843231
  0
ARC
  5
13D
330
1F
100
AcDbEntity
  8
0
  6
Continuous
 62
     7
370
    15
100
AcDbCircle
 10
1592.3616170062
 20
520.610326584
 30
0.0
 40
6.999999999999991
100
AcDbArc
 50
90.2359156769
 51
180.0
  0
ARC
  5
13E
330
1F
100
AcDbEntity
  8
0
  6
Continuous
 62
     7
370
    15
100
AcDbCircle
 10
1642.4903670062
 20
535.6432255893
 30
0.0
 40
1.269999999999953
100
AcDbArc
 50
141.9718286927
 51
180.0
  0
ARC
  5
13F
330
1F
100
AcDbEntity
  8
0
  6
Continuous
 62
     7
370
    15
100
AcDbCircle
 10
1638.8550948231
 20
538.4862910397
 30
0.0
 40
3.345000000000104
100
AcDbArc
 50
321.9718286927
 51
127.5959612143
  0
ARC
  5
140
330
1F
100
AcDbEntity
  8
0
  6
Continuous
 62
     7
370
    15
100
AcDbCircle
 10
1636.0395326399
 20
542.1429062221
 30
0.0
 40
1.269999999999976
100
AcDbArc
 50
269.7640843231
 51
307.5959612143
  0
LINE
  5
141
330
1F
100
AcDbEntity
  8
0
  6
Continuous
 62
     7
370
    15
100
AcDbLine
 10
1592.3328284015
 20
541.052842367
 30
0.0
 11
1636.0343579043
 21
540.8728959445
 31
0.0
  0
ARC
  5
142
330
1F
100
AcDbEntity
  8
0
  6
Continuous
 62
     7
370
    15
100
AcDbCircle
 10
1592.3616170062
 20
548.0527998615
 30
0.0
 40
7.0
100
AcDbArc
 50
180.0
 51
269.7640843231
  0
LINE
  5
143
330
1F
100
AcDbEntity
  8
0
  6
Continuous
 62
     7
370
    15
100
AcDbLine
 10
1585.3615883578
 20
672.1103432063
 30
0.0
 11
1585.3615883578
 21
548.0528118495
 31
0.0
  0
ARC
  5
144
330
1F
100
AcDbEntity
  8
0
  6
Continuous
 62
     7
370
    15
100
AcDbCircle
 10
1638.8550948231
 20
992.9862910397
 30
0.0
 40
3.345000000000034
100
AcDbArc
 50
321.9718286927
 51
127.5959612143
  0
ARC
  5
145
330
1F
100
AcDbEntity
  8
0
  6
Continuous
 62
     7
370
    15
100
AcDbCircle
 10
1636.0395326399
 20
996.6429062221
 30
0.0
 40
1.270000000000089
100
AcDbArc
 50
269.7640843231
 51
307.5959612143
  0
LINE
  5
146
330
1F
100
AcDbEntity
  8
0
  6
Continuous
 62
     7
370
    15
100
AcDbLine
 10
1636.0343579043
 20
995.3729154948
 30
0.0
 11
1592.3328284015
 21
995.5528619174
 31
0.0
  0
LINE
  5
147
330
1F
100
AcDbEntity
  8
0
  6
Continuous
 62
     7
370
    15
100
AcDbLine
 10
1585.3615883578
 20
1193.3315040949
 30
0.0
 11
1585.3615883578
 21
1154.0527584437
 31
0.0
  0
LINE
  5
148
330
1F
100
AcDbEntity
  8
0
  6
Continuous
 62
     7
370
    15
100
AcDbLine
 10
1801.7966631641
 20
1200.3315927867
 30
0.0
 11
1592.3615578403
 21
1200.3315927867
 31
0.0
  0
LINE
  5
149
330
1F
100
AcDbEntity
  8
0
  6
Continuous
 62
     7
370
    15
100
AcDbLine
 10
1758.1239823093
 20
1146.8729021433
 30
0.0
 11
1801.8253926028
 21
1147.0529081706
 31
0.0
  0
ARC
  5
14A
330
1F
100
AcDbEntity
  8
0
  6
Continuous
 62
     7
370
    15
100
AcDbCircle
 10
1758.1187013725
 20
1148.1429062221
 30
0.0
 40
1.270000000000089
100
AcDbArc
 50
232.4040387857
 51
270.2359156769
  0
ARC
  5
14B
330
1F
100
AcDbEntity
  8
0
  6
Continuous
 62
     7
370
    15
100
AcDbCircle
 10
1755.3031391893
 20
1144.4862910397
 30
0.0
 40
3.345000000000244
100
AcDbArc
 50
52.4040387857
 51
218.0281713073
  0
LINE
  5
14C
330
1F
100
AcDbEntity
  8
0
  6
Continuous
 62
     7
370
    15
100
AcDbLine
 10
1752.9379013766
 20
1139.0198709849
 30
0.0
 11
1752.9379013766
 21
1141.6431906108
 31
0.0
  0
ARC
  5
14D
330
1F
100
AcDbEntity
  8
0
  6
Continuous
 62
     7
370
    15
100
AcDbCircle
 10
1751.6678670062
 20
1139.0199008562
 30
0.0
 40
1.269999999999883
100
AcDbArc
 50
321.9718286927
 51
0.0
  0
ARC
  5
14E
330
1F
100
AcDbEntity
  8
0
  6
Continuous
 62
     7
370
    15
100
AcDbCircle
 10
1755.3031391893
 20
1136.1768354058
 30
0.0
 40
3.345000000000019
100
AcDbArc
 50
141.9718286927
 51
307.5959612143
  0
ARC
  5
14F
330
1F
100
AcDbEntity
  8
0
  6
Continuous
 62
     7
370
    15
100
AcDbCircle
 10
1758.1187013725
 20
1132.5202202234
 30
0.0
 40
1.270000000000095
100
AcDbArc
 50
89.7640843231
 51
127.5959612143
  0
LINE
  5
150
330
1F
100
AcDbEntity
  8
0
  6
Continuous
 62
     7
370
    15
100
AcDbLine
 10
1801.8253926028
 20
1133.6102726344
 30
0.0
 11
1758.1239823093
 21
1133.7901594523
 31
0.0
  0
LINE
  5
151
330
1F
100
AcDbEntity
  8
0
  6
Continuous
 62
     7
370
    15
100
AcDbLine
 10
1808.7966326465
 20
1154.0527584437
 30
0.0
 11
1808.7966326465
 21
1193.3315040949
 31
0.0
  0
LINE
  5
152
330
1F
100
AcDbEntity
  8
0
  6
Continuous
 62
     7
370
    15
100
AcDbLine
 10
1808.7966326465
 20
93.5527997497
 30
0.0
 11
1808.7966326465
 21
1126.6103031519
 31
0.0
  0
LINE
  5
153
330
1F
100
AcDbEntity
  8
0
  6
Continuous
 62
     7
370
    15
100
AcDbLine
 10
1585.3615883578
 20
1126.6103031519
 30
0.0
 11
1585.3615883578
 21
1002.5527717951
 31
0.0
  0
LINE
  5
154
330
1F
100
AcDbEntity
  8
0
  6
Continuous
 62
     7
370
    15
100
AcDbLine
 10
1585.3615883578
 20
975.1103165034
 30
0.0
 11
1585.3615883578
 21
851.0527851466
 31
0.0
  0
LINE
  5
155
330
1F
100
AcDbEntity
  8
0
  6
Continuous
 62
     7
370
    15
100
AcDbLine
 10
1585.3615883578
 20
823.6103298548
 30
0.0
 11
1585.3615883578
 21
699.552798498
 31
0.0
  0
LINE
  5
156
330
1F
100
AcDbEntity
  8
0
  6
Continuous
 62
     7
370
    15
100
AcDbLine
 10
1641.2203196277
 20
535.6432440165
 30
0.0
 11
1641.2203196277
 21
533.0199243907
 31
0.0
  0
ARC
  5
157
330
1F
100
AcDbEntity
  8
0
  6
Continuous
 62
     7
370
    15
100
AcDbCircle
 10
1642.4903670062
 20
533.0199008562
 30
0.0
 40
1.269999999999953
100
AcDbArc
 50
180.0
 51
218.0281713073
  0
ARC
  5
158
330
1F
100
AcDbEntity
  8
0
  6
Continuous
 62
     7
370
    15
100
AcDbCircle
 10
1638.8550948231
 20
530.1768354058
 30
0.0
 40
3.345000000000104
100
AcDbArc
 50
232.4040387857
 51
38.0281713073
  0
ARC
  5
159
330
1F
100
AcDbEntity
  8
0
  6
Continuous
 62
     7
370
    15
100
AcDbCircle
 10
1751.6678670062
 20
1141.6432255893
 30
0.0
 40
1.269999999999754
100
AcDbArc
 50
0.0
 51
38.0281713073
  0
LINE
  5
15A
330
1F
100
AcDbEntity
  8
0
  6
Continuous
 62
     7
370
    15
100
AcDbLine
 10
1636.0343579043
 20
527.7902128581
 30
0.0
 11
1592.3328284015
 21
527.6102664355
 31
0.0
  0
LINE
  5
15B
330
1F
100
AcDbEntity
  8
0
  6
Continuous
 62
     7
370
    15
100
AcDbLine
 10
1592.3328284015
 20
389.5528557185
 30
0.0
 11
1636.0343579043
 21
389.3729092959
 31
0.0
  0
ARC
  5
15C
330
1F
100
AcDbEntity
  8
0
  6
Continuous
 62
     7
370
    15
100
AcDbCircle
 10
1638.8550948231
 20
386.9862910397
 30
0.0
 40
3.345000000000104
100
AcDbArc
 50
321.9718286927
 51
127.5959612143
  0
ARC
  5
15D
330
1F
100
AcDbEntity
  8
0
  6
Continuous
 62
     7
370
    15
100
AcDbCircle
 10
1642.4903670062
 20
384.1432255893
 30
0.0
 40
1.269999999999883
100
AcDbArc
 50
141.9718286927
 51
180.0
  0
LINE
  5
15E
330
1F
100
AcDbEntity
  8
0
  6
Continuous
 62
     7
370
    15
100
AcDbLine
 10
1592.3328284015
 20
1133.6102726344
 30
0.0
 11
1636.0343579043
 21
1133.7901594523
 31
0.0
  0
ARC
  5
15F
330
1F
100
AcDbEntity
  8
0
  6
Continuous
 62
     7
370
    15
100
AcDbCircle
 10
1636.0395326399
 20
1132.5202202234
 30
0.0
 40
1.270000000000234
100
AcDbArc
 50
52.4040387857
 51
90.2359156769
  0
ARC
  5
160
330
1F
100
AcDbEntity
  8
0
  6
Continuous
 62
     7
370
    15
100
AcDbCircle
 10
1638.8550948231
 20
1136.1768354058
 30
0.0
 40
3.344999999999964
100
AcDbArc
 50
232.4040387857
 51
38.0281713073
  0
ARC
  5
161
330
1F
100
AcDbEntity
  8
0
  6
Continuous
 62
     7
370
    15
100
AcDbCircle
 10
1642.4903670062
 20
1139.0199008562
 30
0.0
 40
1.269999999999883
100
AcDbArc
 50
180.0
 51
218.0281713073
  0
LINE
  5
162
330
1F
100
AcDbEntity
  8
0
  6
Continuous
 62
     7
370
    15
100
AcDbLine
 10
1641.2203196277
 20
1139.0198709849
 30
0.0
 11
1641.2203196277
 21
1141.6431906108
 31
0.0
  0
ARC
  5
163
330
1F
100
AcDbEntity
  8
0
  6
Continuous
 62
     7
370
    15
100
AcDbCircle
 10
1642.4903670062
 20
1141.6432255893
 30
0.0
 40
1.269999999999754
100
AcDbArc
 50
141.9718286927
 51
180.0
  0
ARC
  5
164
330
1F
100
AcDbEntity
  8
0
  6
Continuous
 62
     7
370
    15
100
AcDbCircle
 10
1638.8550948231
 20
1144.4862910397
 30
0.0
 40
3.345000000000244
100
AcDbArc
 50
321.9718286927
 51
127.5959612143
  0
ARC
  5
165
330
1F
100
AcDbEntity
  8
0
  6
Continuous
 62
     7
370
    15
100
AcDbCircle
 10
1636.0395326399
 20
1148.1429062221
 30
0.0
 40
1.270000000000089
100
AcDbArc
 50
269.7640843231
 51
307.5959612143
  0
LINE
  5
166
330
1F
100
AcDbEntity
  8
0
  6
Continuous
 62
     7
370
    15
100
AcDbLine
 10
1636.0343579043
 20
1146.8729021433
 30
0.0
 11
1592.3328284015
 21
1147.0529081706
 31
0.0
  0
LINE
  5
167
330
1F
100
AcDbEntity
  8
0
  6
Continuous
 62
     7
370
    15
100
AcDbLine
 10
1641.2203196277
 20
232.6432260159
 30
0.0
 11
1641.2203196277
 21
230.0199063901
 31
0.0
  0
ARC
  5
168
330
1F
100
AcDbEntity
  8
0
  6
Continuous
 62
     7
370
    15
100
AcDbCircle
 10
1642.4903670062
 20
230.0199008562
 30
0.0
 40
1.269999999999936
100
AcDbArc
 50
180.0
 51
218.0281713073
  0
ARC
  5
169
330
1F
100
AcDbEntity
  8
0
  6
Continuous
 62
     7
370
    15
100
AcDbCircle
 10
1638.8550948231
 20
227.1768354058
 30
0.0
 40
3.345000000000034
100
AcDbArc
 50
232.4040387857
 51
38.0281713073
  0
ARC
  5
16A
330
1F
100
AcDbEntity
  8
0
  6
Continuous
 62
     7
370
    15
100
AcDbCircle
 10
1636.0395326399
 20
223.5202202234
 30
0.0
 40
1.270000000000004
100
AcDbArc
 50
52.4040387857
 51
90.2359156769
  0
LINE
  5
16B
330
1F
100
AcDbEntity
  8
0
  6
Continuous
 62
     7
370
    15
100
AcDbLine
 10
1636.0343579043
 20
224.7902097586
 30
0.0
 11
1592.3328284015
 21
224.610263336
 31
0.0
  0
LINE
  5
16C
330
1F
100
AcDbEntity
  8
0
  6
Continuous
 62
     7
370
    15
100
AcDbLine
 10
1758.1239823093
 20
73.2902082089
 30
0.0
 11
1801.8253926028
 21
73.1102692369
 31
0.0
  0
ARC
  5
16D
330
1F
100
AcDbEntity
  8
0
  6
Continuous
 62
     7
370
    15
100
AcDbCircle
 10
1758.1187013725
 20
72.0202202234
 30
0.0
 40
1.26999999999999
100
AcDbArc
 50
89.7640843231
 51
127.5959612143
  0
ARC
  5
16E
330
1F
100
AcDbEntity
  8
0
  6
Continuous
 62
     7
370
    15
100
AcDbCircle
 10
1755.3031391893
 20
75.6768354058
 30
0.0
 40
3.345000000000166
100
AcDbArc
 50
141.9718286927
 51
307.5959612143
  0
ARC
  5
16F
330
1F
100
AcDbEntity
  8
0
  6
Continuous
 62
     7
370
    15
100
AcDbCircle
 10
1751.6678670062
 20
78.5199008562
 30
0.0
 40
1.269999999999875
100
AcDbArc
 50
321.9718286927
 51
0.0
  0
LINE
  5
170
330
1F
100
AcDbEntity
  8
0
  6
Continuous
 62
     7
370
    15
100
AcDbLine
 10
1752.9379013766
 20
81.1432244662
 30
0.0
 11
1752.9379013766
 21
78.5198973898
 31
0.0
  0
ARC
  5
171
330
1F
100
AcDbEntity
  8
0
  6
Continuous
 62
     7
370
    15
100
AcDbCircle
 10
1751.6678670062
 20
81.1432255893
 30
0.0
 40
1.270000000000015
100
AcDbArc
 50
0.0
 51
38.0281713073
  0
ARC
  5
172
330
1F
100
AcDbEntity
  8
0
  6
Continuous
 62
     7
370
    15
100
AcDbCircle
 10
1755.3031391893
 20
83.9862910397
 30
0.0
 40
3.345000000000026
100
AcDbArc
 50
52.4040387857
 51
218.0281713073
  0
ARC
  5
173
330
1F
100
AcDbEntity
  8
0
  6
Continuous
 62
     7
370
    15
100
AcDbCircle
 10
1758.1187013725
 20
87.6429062221
 30
0.0
 40
1.26999999999999
100
AcDbArc
 50
232.4040387857
 51
270.2359156769
  0
LINE
  5
174
330
1F
100
AcDbEntity
  8
0
  6
Continuous
 62
     7
370
    15
100
AcDbLine
 10
1801.8253926028
 20
86.5528600696
 30
0.0
 11
1758.1239823093
 21
86.372913647
 31
0.0
  0
LINE
  5
175
330
1F
100
AcDbEntity
  8
0
  6
Continuous
 62
     7
370
    15
100
AcDbLine
 10
1592.3328284015
 20
86.5528600696
 30
0.0
 11
1636.0343579043
 21
86.372913647
 31
0.0
  0
ARC
  5
176
330
1F
100
AcDbEntity
  8
0
  6
Continuous
 62
     7
370
    15
100
AcDbCircle
 10
1636.0395326399
 20
87.6429062221
 30
0.0
 40
1.270000000000054
100
AcDbArc
 50
269.7640843231
 51
307.5959612143
  0
ARC
  5
177
330
1F
100
AcDbEntity
  8
0
  6
Continuous
 62
     7
370
    15
100
AcDbCircle
 10
1638.8550948231
 20
83.9862910397
 30
0.0
 40
3.345000000000026
100
AcDbArc
 50
321.9718286927
 51
127.5959612143
  0
ARC
  5
178
330
1F
100
AcDbEntity
  8
0
  6
Continuous
 62
     7
370
    15
100
AcDbCircle
 10
1642.4903670062
 20
81.1432255893
 30
0.0
 40
1.270000000000015
100
AcDbArc
 50
141.9718286927
 51
180.0
  0
LINE
  5
179
330
1F
100
AcDbEntity
  8
0
  6
Continuous
 62
     7
370
    15
100
AcDbLine
 10
1641.2203196277
 20
81.1432244662
 30
0.0
 11
1641.2203196277
 21
78.5198973898
 31
0.0
  0
ARC
  5
17A
330
1F
100
AcDbEntity
  8
0
  6
Continuous
 62
     7
370
    15
100
AcDbCircle
 10
1642.4903670062
 20
78.5199008562
 30
0.0
 40
1.269999999999875
100
AcDbArc
 50
180.0
 51
218.0281713073
  0
ARC
  5
17B
330
1F
100
AcDbEntity
  8
0
  6
Continuous
 62
     7
370
    15
100
AcDbCircle
 10
1638.8550948231
 20
75.6768354058
 30
0.0
 40
3.345000000000166
100
AcDbArc
 50
232.4040387857
 51
38.0281713073
  0
ARC
  5
17C
330
1F
100
AcDbEntity
  8
0
  6
Continuous
 62
     7
370
    15
100
AcDbCircle
 10
1636.0395326399
 20
72.0202202234
 30
0.0
 40
1.26999999999999
100
AcDbArc
 50
52.4040387857
 51
90.2359156769
  0
LINE
  5
17D
330
1F
100
AcDbEntity
  8
0
  6
Continuous
 62
     7
370
    15
100
AcDbLine
 10
1636.0343579043
 20
73.2902082089
 30
0.0
 11
1592.3328284015
 21
73.1102692369
 31
0.0
  0
LINE
  5
17E
330
1F
100
AcDbEntity
  8
0
  6
Continuous
 62
     7
370
    15
100
AcDbLine
 10
1801.7966631641
 20
19.8315641317
 30
0.0
 11
1592.3615578403
 21
19.8315641317
 31
0.0
  0
LINE
  5
17F
330
1F
100
AcDbEntity
  8
0
  6
Continuous
 62
     7
370
    15
100
AcDbLine
 10
1585.3615883578
 20
26.8315634165
 30
0.0
 11
1585.3615883578
 21
66.1103295568
 31
0.0
  0
LINE
  5
180
330
1F
100
AcDbEntity
  8
0
  6
Continuous
 62
     7
370
    15
100
AcDbLine
 10
1808.7966326465
 20
66.1103295568
 30
0.0
 11
1808.7966326465
 21
26.8315634165
 31
0.0
  0
LINE
  5
181
330
1F
100
AcDbEntity
  8
0
  6
Continuous
 62
     7
370
    15
100
AcDbLine
 10
1585.3615883578
 20
93.5527997497
 30
0.0
 11
1585.3615883578
 21
217.6103236559
 31
0.0
  0
LINE
  5
182
330
1F
100
AcDbEntity
  8
0
  6
Continuous
 62
     7
370
    15
100
AcDbLine
 10
1585.3615883578
 20
245.0527938489
 30
0.0
 11
1585.3615883578
 21
369.1103401068
 31
0.0
  0
LINE
  5
183
330
1F
100
AcDbEntity
  8
0
  6
Continuous
 62
     7
370
    15
100
AcDbLine
 10
1585.3615883578
 20
396.5527953986
 30
0.0
 11
1585.3615883578
 21
520.6102969531
 31
0.0
  0
ARC
  5
184
330
1F
100
AcDbEntity
  8
0
  6
Continuous
 62
     7
370
    15
100
AcDbCircle
 10
1592.3616170062
 20
1193.3315632228
 30
0.0
 40
7.0
100
AcDbArc
 50
90.0
 51
180.0
  0
ARC
  5
185
330
1F
100
AcDbEntity
  8
0
  6
Continuous
 62
     7
370
    15
100
AcDbCircle
 10
1592.3616170062
 20
1154.0527998615
 30
0.0
 40
6.999999999999991
100
AcDbArc
 50
180.0
 51
269.7640843231
  0
ARC
  5
186
330
1F
100
AcDbEntity
  8
0
  6
Continuous
 62
     7
370
    15
100
AcDbCircle
 10
1592.3616170062
 20
1002.5527998615
 30
0.0
 40
6.999999999999991
100
AcDbArc
 50
180.0
 51
269.7640843231
  0
ARC
  5
187
330
1F
100
AcDbEntity
  8
0
  6
Continuous
 62
     7
370
    15
100
AcDbCircle
 10
1592.3616170062
 20
851.0527998615
 30
0.0
 40
7.000000000000105
100
AcDbArc
 50
180.0
 51
269.7640843231
  0
ARC
  5
188
330
1F
100
AcDbEntity
  8
0
  6
Continuous
 62
     7
370
    15
100
AcDbCircle
 10
1592.3616170062
 20
699.5527998615
 30
0.0
 40
6.999999999999991
100
AcDbArc
 50
180.0
 51
269.7640843231
  0
ARC
  5
189
330
1F
100
AcDbEntity
  8
0
  6
Continuous
 62
     7
370
    15
100
AcDbCircle
 10
1801.7966170062
 20
1154.0527998615
 30
0.0
 40
6.999999999999991
100
AcDbArc
 50
270.2359156769
 51
0.0
  0
ARC
  5
18A
330
1F
100
AcDbEntity
  8
0
  6
Continuous
 62
     7
370
    15
100
AcDbCircle
 10
1801.7966170062
 20
1193.3315632228
 30
0.0
 40
7.0
100
AcDbArc
 50
0.0
 51
90.0
  0
ARC
  5
18B
330
1F
100
AcDbEntity
  8
0
  6
Continuous
 62
     7
370
    15
100
AcDbCircle
 10
1592.3616170062
 20
975.110326584
 30
0.0
 40
7.0
100
AcDbArc
 50
90.2359156769
 51
180.0
  0
ARC
  5
18C
330
1F
100
AcDbEntity
  8
0
  6
Continuous
 62
     7
370
    15
100
AcDbCircle
 10
1592.3616170062
 20
823.610326584
 30
0.0
 40
7.0
100
AcDbArc
 50
90.2359156769
 51
180.0
  0
ARC
  5
18D
330
1F
100
AcDbEntity
  8
0
  6
Continuous
 62
     7
370
    15
100
AcDbCircle
 10
1592.3616170062
 20
672.110326584
 30
0.0
 40
7.000000000000105
100
AcDbArc
 50
90.2359156769
 51
180.0
  0
ARC
  5
18E
330
1F
100
AcDbEntity
  8
0
  6
Continuous
 62
     7
370
    15
100
AcDbCircle
 10
1592.3616170062
 20
1126.610326584
 30
0.0
 40
7.000000000000446
100
AcDbArc
 50
90.2359156769
 51
180.0
  0
ARC
  5
18F
330
1F
100
AcDbEntity
  8
0
  6
Continuous
 62
     7
370
    15
100
AcDbCircle
 10
1801.7966170062
 20
1126.610326584
 30
0.0
 40
7.000000000000446
100
AcDbArc
 50
0.0
 51
89.7640843231
  0
LINE
  5
190
330
1F
100
AcDbEntity
  8
0
  6
Continuous
 62
     7
370
    15
100
AcDbLine
 10
1592.3328284015
 20
679.110253084
 30
0.0
 11
1636.0343579043
 21
679.2901995066
 31
0.0
  0
ARC
  5
191
330
1F
100
AcDbEntity
  8
0
  6
Continuous
 62
     7
370
    15
100
AcDbCircle
 10
1636.0395326399
 20
526.5202202234
 30
0.0
 40
1.269999999999976
100
AcDbArc
 50
52.4040387857
 51
90.2359156769
  0
ARC
  5
192
330
1F
100
AcDbEntity
  8
0
  6
Continuous
 62
     7
370
    15
100
AcDbCircle
 10
1638.8550948231
 20
681.6768354058
 30
0.0
 40
3.345000000000104
100
AcDbArc
 50
232.4040387857
 51
38.0281713073
  0
ARC
  5
193
330
1F
100
AcDbEntity
  8
0
  6
Continuous
 62
     7
370
    15
100
AcDbCircle
 10
1642.4903670062
 20
684.5199008562
 30
0.0
 40
1.269999999999953
100
AcDbArc
 50
180.0
 51
218.0281713073
  0
LINE
  5
194
330
1F
100
AcDbEntity
  8
0
  6
Continuous
 62
     7
370
    15
100
AcDbLine
 10
1641.2203196277
 20
684.5199110392
 30
0.0
 11
1641.2203196277
 21
687.1432306651
 31
0.0
  0
ARC
  5
195
330
1F
100
AcDbEntity
  8
0
  6
Continuous
 62
     7
370
    15
100
AcDbCircle
 10
1642.4903670062
 20
687.1432255893
 30
0.0
 40
1.269999999999883
100
AcDbArc
 50
141.9718286927
 51
180.0
  0
ARC
  5
196
330
1F
100
AcDbEntity
  8
0
  6
Continuous
 62
     7
370
    15
100
AcDbCircle
 10
1638.8550948231
 20
689.9862910397
 30
0.0
 40
3.345000000000104
100
AcDbArc
 50
321.9718286927
 51
127.5959612143
  0
LINE
  5
197
330
1F
100
AcDbEntity
  8
0
  6
Continuous
 62
     7
370
    15
100
AcDbLine
 10
1641.2203196277
 20
384.1432275656
 30
0.0
 11
1641.2203196277
 21
381.5199079398
 31
0.0
  0
ARC
  5
198
330
1F
100
AcDbEntity
  8
0
  6
Continuous
 62
     7
370
    15
100
AcDbCircle
 10
1642.4903670062
 20
381.5199008562
 30
0.0
 40
1.270000000000024
100
AcDbArc
 50
180.0
 51
218.0281713073
  0
ARC
  5
199
330
1F
100
AcDbEntity
  8
0
  6
Continuous
 62
     7
370
    15
100
AcDbCircle
 10
1638.8550948231
 20
378.6768354058
 30
0.0
 40
3.345000000000034
100
AcDbArc
 50
232.4040387857
 51
38.0281713073
  0
ARC
  5
19A
330
1F
100
AcDbEntity
  8
0
  6
Continuous
 62
     7
370
    15
100
AcDbCircle
 10
1636.0395326399
 20
375.0202202234
 30
0.0
 40
1.270000000000054
100
AcDbArc
 50
52.4040387857
 51
90.2359156769
  0
LINE
  5
19B
330
1F
100
AcDbEntity
  8
0
  6
Continuous
 62
     7
370
    15
100
AcDbLine
 10
1636.0343579043
 20
376.2901964072
 30
0.0
 11
1592.3328284015
 21
376.1102797869
 31
0.0
  0
LINE
  5
19C
330
1F
100
AcDbEntity
  8
0
  6
Continuous
 62
     7
370
    15
100
AcDbLine
 10
1592.3328284015
 20
238.0528541688
 30
0.0
 11
1636.0343579043
 21
237.8729226473
 31
0.0
  0
ARC
  5
19D
330
1F
100
AcDbEntity
  8
0
  6
Continuous
 62
     7
370
    15
100
AcDbCircle
 10
1636.0395326399
 20
239.1429062221
 30
0.0
 40
1.270000000000004
100
AcDbArc
 50
269.7640843231
 51
307.5959612143
  0
ARC
  5
19E
330
1F
100
AcDbEntity
  8
0
  6
Continuous
 62
     7
370
    15
100
AcDbCircle
 10
1638.8550948231
 20
235.4862910397
 30
0.0
 40
3.345000000000034
100
AcDbArc
 50
321.9718286927
 51
127.5959612143
  0
ARC
  5
19F
330
1F
100
AcDbEntity
  8
0
  6
Continuous
 62
     7
370
    15
100
AcDbCircle
 10
1642.4903670062
 20
232.6432255893
 30
0.0
 40
1.269999999999936
100
AcDbArc
 50
141.9718286927
 51
180.0
  0
ARC
  5
1A0
330
1F
100
AcDbEntity
  8
0
  6
Continuous
 62
     7
370
    15
100
AcDbCircle
 10
1636.0395326399
 20
845.1429062221
 30
0.0
 40
1.270000000000054
100
AcDbArc
 50
269.7640843231
 51
307.5959612143
  0
LINE
  5
1A1
330
1F
100
AcDbEntity
  8
0
  6
Continuous
 62
     7
370
    15
100
AcDbLine
 10
1636.0343579043
 20
843.8729288462
 30
0.0
 11
1592.3328284015
 21
844.0528752688
 31
0.0
  0
LINE
  5
1A2
330
1F
100
AcDbEntity
  8
0
  6
Continuous
 62
     7
370
    15
100
AcDbLine
 10
1592.3328284015
 20
982.1102859858
 30
0.0
 11
1636.0343579043
 21
982.2902324084
 31
0.0
  0
ARC
  5
1A3
330
1F
100
AcDbEntity
  8
0
  6
Continuous
 62
     7
370
    15
100
AcDbCircle
 10
1636.0395326399
 20
981.0202202234
 30
0.0
 40
1.269999999999976
100
AcDbArc
 50
52.4040387857
 51
90.2359156769
  0
ARC
  5
1A4
330
1F
100
AcDbEntity
  8
0
  6
Continuous
 62
     7
370
    15
100
AcDbCircle
 10
1642.4903670062
 20
987.5199008562
 30
0.0
 40
1.269999999999953
100
AcDbArc
 50
180.0
 51
218.0281713073
  0
LINE
  5
1A5
330
1F
100
AcDbEntity
  8
0
  6
Continuous
 62
     7
370
    15
100
AcDbLine
 10
1641.2203196277
 20
987.5198843363
 30
0.0
 11
1641.2203196277
 21
990.1432039622
 31
0.0
  0
ARC
  5
1A6
330
1F
100
AcDbEntity
  8
0
  6
Continuous
 62
     7
370
    15
100
AcDbCircle
 10
1642.4903670062
 20
990.1432255893
 30
0.0
 40
1.269999999999953
100
AcDbArc
 50
141.9718286927
 51
180.0
  0
LINE
  5
1A7
330
1F
100
AcDbEntity
  8
0
  6
Continuous
 62
     7
370
    15
100
AcDbLine
 10
1592.3328284015
 20
830.6102397326
 30
0.0
 11
1636.0343579043
 21
830.7901861552
 31
0.0
  0
ARC
  5
1A8
330
1F
100
AcDbEntity
  8
0
  6
Continuous
 62
     7
370
    15
100
AcDbCircle
 10
1636.0395326399
 20
829.5202202234
 30
0.0
 40
1.269999999999976
100
AcDbArc
 50
52.4040387857
 51
90.2359156769
  0
ARC
  5
1A9
330
1F
100
AcDbEntity
  8
0
  6
Continuous
 62
     7
370
    15
100
AcDbCircle
 10
1638.8550948231
 20
833.1768354058
 30
0.0
 40
3.345000000000104
100
AcDbArc
 50
232.4040387857
 51
38.0281713073
  0
ARC
  5
1AA
330
1F
100
AcDbEntity
  8
0
  6
Continuous
 62
     7
370
    15
100
AcDbCircle
 10
1642.4903670062
 20
836.0199008562
 30
0.0
 40
1.269999999999814
100
AcDbArc
 50
180.0
 51
218.0281713073
  0
LINE
  5
1AB
330
1F
100
AcDbEntity
  8
0
  6
Continuous
 62
     7
370
    15
100
AcDbLine
 10
1641.2203196277
 20
836.0198976878
 30
0.0
 11
1641.2203196277
 21
838.6432173136
 31
0.0
  0
ARC
  5
1AC
330
1F
100
AcDbEntity
  8
0
  6
Continuous
 62
     7
370
    15
100
AcDbCircle
 10
1642.4903670062
 20
838.6432255893
 30
0.0
 40
1.270000000000024
100
AcDbArc
 50
141.9718286927
 51
180.0
  0
ARC
  5
1AD
330
1F
100
AcDbEntity
  8
0
  6
Continuous
 62
     7
370
    15
100
AcDbCircle
 10
1636.0395326399
 20
678.0202202234
 30
0.0
 40
1.269999999999976
100
AcDbArc
 50
52.4040387857
 51
90.2359156769
  0
LINE
  5
1AE
330
1F
100
AcDbEntity
  8
0
  6
Continuous
 62
     7
370
    15
100
AcDbLine
 10
1636.0343579043
 20
692.3729421977
 30
0.0
 11
1592.3328284015
 21
692.5528886202
 31
0.0
  0
ARC
  5
1AF
330
1F
100
AcDbEntity
  8
0
  6
Continuous
 62
     7
370
    15
100
AcDbCircle
 10
1638.8550948231
 20
984.6768354058
 30
0.0
 40
3.345000000000034
100
AcDbArc
 50
232.4040387857
 51
38.0281713073
  0
ARC
  5
1B0
330
1F
100
AcDbEntity
  8
0
  6
Continuous
 62
     7
370
    15
100
AcDbCircle
 10
1636.0395326399
 20
390.6429062221
 30
0.0
 40
1.269999999999976
100
AcDbArc
 50
269.7640843231
 51
307.5959612143
  0
ARC
  5
1B1
330
1F
100
AcDbEntity
  8
0
  6
Continuous
 62
     7
370
    15
100
AcDbCircle
 10
1638.8550948231
 20
841.4862910397
 30
0.0
 40
3.345000000000034
100
AcDbArc
 50
321.9718286927
 51
127.5959612143
  0
ARC
  5
1B2
330
1F
100
AcDbEntity
  8
0
  6
Continuous
 62
     7
370
    15
100
AcDbCircle
 10
1636.0395326399
 20
693.6429062221
 30
0.0
 40
1.269999999999976
100
AcDbArc
 50
269.7640843231
 51
307.5959612143
  0
ARC
  5
1B3
330
1F
100
AcDbEntity
  8
0
  6
Continuous
 62
     7
370
    15
100
AcDbCircle
 10
348.0366170062
 20
447.0527998615
 30
0.0
 40
7.0
100
AcDbArc
 50
270.2359156769
 51
0.0
  0
LINE
  5
1B4
330
1F
100
AcDbEntity
  8
0
  6
Continuous
 62
     7
370
    15
100
AcDbLine
 10
304.3639246215
 20
439.8729147795
 30
0.0
 11
348.0654541244
 21
440.0528612021
 31
0.0
  0
ARC
  5
1B5
330
1F
100
AcDbEntity
  8
0
  6
Continuous
 62
     7
370
    15
100
AcDbCircle
 10
304.3587013725
 20
441.1429062221
 30
0.0
 40
1.270000000000023
100
AcDbArc
 50
232.4040387857
 51
270.2359156769
  0
ARC
  5
1B6
330
1F
100
AcDbEntity
  8
0
  6
Continuous
 62
     7
370
    15
100
AcDbCircle
 10
301.5431391893
 20
437.4862910397
 30
0.0
 40
3.34499999999999
100
AcDbArc
 50
52.4040387857
 51
218.0281713073
  0
ARC
  5
1B7
330
1F
100
AcDbEntity
  8
0
  6
Continuous
 62
     7
370
    15
100
AcDbCircle
 10
297.9078670062
 20
434.6432255893
 30
0.0
 40
1.270000000000152
100
AcDbArc
 50
0.0
 51
38.0281713073
  0
LINE
  5
1B8
330
1F
100
AcDbEntity
  8
0
  6
Continuous
 62
     7
370
    15
100
AcDbLine
 10
299.1778734912
 20
432.0199134234
 30
0.0
 11
299.1778734912
 21
434.6432330493
 31
0.0
  0
ARC
  5
1B9
330
1F
100
AcDbEntity
  8
0
  6
Continuous
 62
     7
370
    15
100
AcDbCircle
 10
297.9078670062
 20
432.0199008562
 30
0.0
 40
1.270000000000152
100
AcDbArc
 50
321.9718286927
 51
0.0
  0
ARC
  5
1BA
330
1F
100
AcDbEntity
  8
0
  6
Continuous
 62
     7
370
    15
100
AcDbCircle
 10
301.5431391893
 20
429.1768354058
 30
0.0
 40
3.344999999999994
100
AcDbArc
 50
141.9718286927
 51
307.5959612143
  0
ARC
  5
1BB
330
1F
100
AcDbEntity
  8
0
  6
Continuous
 62
     7
370
    15
100
AcDbCircle
 10
304.3587013725
 20
425.5202202234
 30
0.0
 40
1.270000000000068
100
AcDbArc
 50
89.7640843231
 51
127.5959612143
  0
ARC
  5
1BC
330
1F
100
AcDbEntity
  8
0
  6
Continuous
 62
     7
370
    15
100
AcDbCircle
 10
348.0366170062
 20
419.610326584
 30
0.0
 40
7.000000000000048
100
AcDbArc
 50
0.0
 51
89.7640843231
  0
LINE
  5
1BD
330
1F
100
AcDbEntity
  8
0
  6
Continuous
 62
     7
370
    15
100
AcDbLine
 10
355.036604761
 20
419.6103157881
 30
0.0
 11
355.036604761
 21
329.2194547537
 31
0.0
  0
ARC
  5
1BE
330
1F
100
AcDbEntity
  8
0
  6
Continuous
 62
     7
370
    15
100
AcDbCircle
 10
348.0366170062
 20
329.2194665282
 30
0.0
 40
7.000000000000048
100
AcDbArc
 50
270.2359156769
 51
0.0
  0
ARC
  5
1BF
330
1F
100
AcDbEntity
  8
0
  6
Continuous
 62
     7
370
    15
100
AcDbCircle
 10
304.3587013725
 20
323.3095728888
 30
0.0
 40
1.270000000000032
100
AcDbArc
 50
232.4040387857
 51
270.2359156769
  0
ARC
  5
1C0
330
1F
100
AcDbEntity
  8
0
  6
Continuous
 62
     7
370
    15
100
AcDbCircle
 10
301.5431391893
 20
319.6529577063
 30
0.0
 40
3.345000000000039
100
AcDbArc
 50
52.4040387857
 51
218.0281713073
  0
ARC
  5
1C1
330
1F
100
AcDbEntity
  8
0
  6
Continuous
 62
     7
370
    15
100
AcDbCircle
 10
297.9078670062
 20
316.809892256
 30
0.0
 40
1.270000000000152
100
AcDbArc
 50
0.0
 51
38.0281713073
  0
LINE
  5
1C2
330
1F
100
AcDbEntity
  8
0
  6
Continuous
 62
     7
370
    15
100
AcDbLine
 10
299.1778734912
 20
314.1865672949
 30
0.0
 11
299.1778734912
 21
316.8098869208
 31
0.0
  0
ARC
  5
1C3
330
1F
100
AcDbEntity
  8
0
  6
Continuous
 62
     7
370
    15
100
AcDbCircle
 10
297.9078670062
 20
314.1865675228
 30
0.0
 40
1.270000000000152
100
AcDbArc
 50
321.9718286927
 51
0.0
  0
ARC
  5
1C4
330
1F
100
AcDbEntity
  8
0
  6
Continuous
 62
     7
370
    15
100
AcDbCircle
 10
301.5431391893
 20
311.3435020725
 30
0.0
 40
3.344999999999954
100
AcDbArc
 50
141.9718286927
 51
307.5959612143
  0
ARC
  5
1C5
330
1F
100
AcDbEntity
  8
0
  6
Continuous
 62
     7
370
    15
100
AcDbCircle
 10
304.3587013725
 20
307.68688689
 30
0.0
 40
1.270000000000068
100
AcDbArc
 50
89.7640843231
 51
127.5959612143
  0
LINE
  5
1C6
330
1F
100
AcDbEntity
  8
0
  6
Continuous
 62
     7
370
    15
100
AcDbLine
 10
348.0654541244
 20
308.7769391421
 30
0.0
 11
304.3639246215
 21
308.9568855647
 31
0.0
  0
ARC
  5
1C7
330
1F
100
AcDbEntity
  8
0
  6
Continuous
 62
     7
370
    15
100
AcDbCircle
 10
348.0366170062
 20
301.7769932506
 30
0.0
 40
7.0
100
AcDbArc
 50
0.0
 51
89.7640843231
  0
LINE
  5
1C8
330
1F
100
AcDbEntity
  8
0
  6
Continuous
 62
     7
370
    15
100
AcDbLine
 10
355.036604761
 20
301.776999462
 30
0.0
 11
355.036604761
 21
211.3861384276
 31
0.0
  0
ARC
  5
1C9
330
1F
100
AcDbEntity
  8
0
  6
Continuous
 62
     7
370
    15
100
AcDbCircle
 10
348.0366170062
 20
211.3861331949
 30
0.0
 40
7.000000000000114
100
AcDbArc
 50
270.2359156769
 51
0.0
  0
LINE
  5
1CA
330
1F
100
AcDbEntity
  8
0
  6
Continuous
 62
     7
370
    15
100
AcDbLine
 10
304.3639246215
 20
204.2062523249
 30
0.0
 11
348.0654541244
 21
204.3861987475
 31
0.0
  0
ARC
  5
1CB
330
1F
100
AcDbEntity
  8
0
  6
Continuous
 62
     7
370
    15
100
AcDbCircle
 10
304.3587013725
 20
205.4762395555
 30
0.0
 40
1.269999999999998
100
AcDbArc
 50
232.4040387857
 51
270.2359156769
  0
ARC
  5
1CC
330
1F
100
AcDbEntity
  8
0
  6
Continuous
 62
     7
370
    15
100
AcDbCircle
 10
301.5431391893
 20
201.819624373
 30
0.0
 40
3.344999999999972
100
AcDbArc
 50
52.4040387857
 51
218.0281713073
  0
ARC
  5
1CD
330
1F
100
AcDbEntity
  8
0
  6
Continuous
 62
     7
370
    15
100
AcDbCircle
 10
297.9078670062
 20
196.3532341895
 30
0.0
 40
1.270000000000152
100
AcDbArc
 50
321.9718286927
 51
0.0
  0
ARC
  5
1CE
330
1F
100
AcDbEntity
  8
0
  6
Continuous
 62
     7
370
    15
100
AcDbCircle
 10
301.5431391893
 20
193.5101687392
 30
0.0
 40
3.344999999999972
100
AcDbArc
 50
141.9718286927
 51
307.5959612143
  0
ARC
  5
1CF
330
1F
100
AcDbEntity
  8
0
  6
Continuous
 62
     7
370
    15
100
AcDbCircle
 10
304.3587013725
 20
189.8535535567
 30
0.0
 40
1.269999999999998
100
AcDbArc
 50
89.7640843231
 51
127.5959612143
  0
LINE
  5
1D0
330
1F
100
AcDbEntity
  8
0
  6
Continuous
 62
     7
370
    15
100
AcDbLine
 10
348.0654541244
 20
190.9436079148
 30
0.0
 11
304.3639246215
 21
191.1235394362
 31
0.0
  0
ARC
  5
1D1
330
1F
100
AcDbEntity
  8
0
  6
Continuous
 62
     7
370
    15
100
AcDbCircle
 10
348.0366170062
 20
183.9436599173
 30
0.0
 40
7.000000000000114
100
AcDbArc
 50
0.0
 51
89.7640843231
  0
LINE
  5
1D2
330
1F
100
AcDbEntity
  8
0
  6
Continuous
 62
     7
370
    15
100
AcDbLine
 10
355.036604761
 20
183.9436533335
 30
0.0
 11
355.036604761
 21
93.5527997497
 31
0.0
  0
ARC
  5
1D3
330
1F
100
AcDbEntity
  8
0
  6
Continuous
 62
     7
370
    15
100
AcDbCircle
 10
348.0366170062
 20
93.5527998615
 30
0.0
 40
7.000000000000114
100
AcDbArc
 50
270.2359156769
 51
0.0
  0
LINE
  5
1D4
330
1F
100
AcDbEntity
  8
0
  6
Continuous
 62
     7
370
    15
100
AcDbLine
 10
304.3639246215
 20
86.372913647
 30
0.0
 11
348.0654541244
 21
86.5528600696
 31
0.0
  0
ARC
  5
1D5
330
1F
100
AcDbEntity
  8
0
  6
Continuous
 62
     7
370
    15
100
AcDbCircle
 10
304.3587013725
 20
87.6429062221
 30
0.0
 40
1.269999999999998
100
AcDbArc
 50
232.4040387857
 51
270.2359156769
  0
ARC
  5
1D6
330
1F
100
AcDbEntity
  8
0
  6
Continuous
 62
     7
370
    15
100
AcDbCircle
 10
301.5431391893
 20
83.9862910397
 30
0.0
 40
3.34499999999999
100
AcDbArc
 50
52.4040387857
 51
218.0281713073
  0
ARC
  5
1D7
330
1F
100
AcDbEntity
  8
0
  6
Continuous
 62
     7
370
    15
100
AcDbCircle
 10
297.9078670062
 20
81.1432255893
 30
0.0
 40
1.270000000000152
100
AcDbArc
 50
0.0
 51
38.0281713073
  0
LINE
  5
1D8
330
1F
100
AcDbEntity
  8
0
  6
Continuous
 62
     7
370
    15
100
AcDbLine
 10
299.1778734912
 20
78.5198973898
 30
0.0
 11
299.1778734912
 21
81.1432244662
 31
0.0
  0
ARC
  5
1D9
330
1F
100
AcDbEntity
  8
0
  6
Continuous
 62
     7
370
    15
100
AcDbCircle
 10
297.9078670062
 20
78.5199008562
 30
0.0
 40
1.270000000000152
100
AcDbArc
 50
321.9718286927
 51
0.0
  0
ARC
  5
1DA
330
1F
100
AcDbEntity
  8
0
  6
Continuous
 62
     7
370
    15
100
AcDbCircle
 10
301.5431391893
 20
75.6768354058
 30
0.0
 40
3.34499999999999
100
AcDbArc
 50
141.9718286927
 51
307.5959612143
  0
ARC
  5
1DB
330
1F
100
AcDbEntity
  8
0
  6
Continuous
 62
     7
370
    15
100
AcDbCircle
 10
304.3587013725
 20
72.0202202234
 30
0.0
 40
1.269999999999998
100
AcDbArc
 50
89.7640843231
 51
127.5959612143
  0
LINE
  5
1DC
330
1F
100
AcDbEntity
  8
0
  6
Continuous
 62
     7
370
    15
100
AcDbLine
 10
348.0654541244
 20
73.1102692369
 30
0.0
 11
304.3639246215
 21
73.2902082089
 31
0.0
  0
ARC
  5
1DD
330
1F
100
AcDbEntity
  8
0
  6
Continuous
 62
     7
370
    15
100
AcDbCircle
 10
348.0366170062
 20
66.110326584
 30
0.0
 40
7.000000000000114
100
AcDbArc
 50
0.0
 51
89.7640843231
  0
LINE
  5
1DE
330
1F
100
AcDbEntity
  8
0
  6
Continuous
 62
     7
370
    15
100
AcDbLine
 10
355.036604761
 20
66.1103295568
 30
0.0
 11
355.036604761
 21
26.8315634165
 31
0.0
  0
ARC
  5
1DF
330
1F
100
AcDbEntity
  8
0
  6
Continuous
 62
     7
370
    15
100
AcDbCircle
 10
348.0366170062
 20
26.8315632228
 30
0.0
 40
7.000000000000114
100
AcDbArc
 50
270.0
 51
0.0
  0
LINE
  5
1E0
330
1F
100
AcDbEntity
  8
0
  6
Continuous
 62
     7
370
    15
100
AcDbLine
 10
348.0366054763
 20
19.8315641317
 30
0.0
 11
26.8841177066
 21
19.8315641317
 31
0.0
  0
ARC
  5
1E1
330
1F
100
AcDbEntity
  8
0
  6
Continuous
 62
     7
370
    15
100
AcDbCircle
 10
26.8841170062
 20
26.8315632228
 30
0.0
 40
7.000000000000007
100
AcDbArc
 50
180.0
 51
270.0
  0
LINE
  5
1E2
330
1F
100
AcDbEntity
  8
0
  6
Continuous
 62
     7
370
    15
100
AcDbLine
 10
19.8841165592
 20
26.8315634165
 30
0.0
 11
19.8841165592
 21
66.0911666635
 31
0.0
  0
ARC
  5
1E3
330
1F
100
AcDbEntity
  8
0
  6
Continuous
 62
     7
370
    15
100
AcDbCircle
 10
26.8841170062
 20
66.0911641962
 30
0.0
 40
7.000000000000038
100
AcDbArc
 50
90.078638954
 51
180.0
  0
LINE
  5
1E4
330
1F
100
AcDbEntity
  8
0
  6
Continuous
 62
     7
370
    15
100
AcDbLine
 10
182.2594288577
 20
73.3044239167
 30
0.0
 11
26.8745101829
 21
73.0911584977
 31
0.0
  0
ARC
  5
1E5
330
1F
100
AcDbEntity
  8
0
  6
Continuous
 62
     7
370
    15
100
AcDbCircle
 10
182.261178913
 20
72.0344260913
 30
0.0
 40
1.269999999999993
100
AcDbArc
 50
52.1158937392
 51
90.078638954
  0
ARC
  5
1E6
330
1F
100
AcDbEntity
  8
0
  6
Continuous
 62
     7
370
    15
100
AcDbCircle
 10
185.0950948231
 20
75.6768354058
 30
0.0
 40
3.345000000000118
100
AcDbArc
 50
232.1158937392
 51
38.0281713073
  0
ARC
  5
1E7
330
1F
100
AcDbEntity
  8
0
  6
Continuous
 62
     7
370
    15
100
AcDbCircle
 10
188.7303670062
 20
78.5199008562
 30
0.0
 40
1.269999999999945
100
AcDbArc
 50
180.0
 51
218.0281713073
  0
LINE
  5
1E8
330
1F
100
AcDbEntity
  8
0
  6
Continuous
 62
     7
370
    15
100
AcDbLine
 10
187.460366248
 20
81.1432244662
 30
0.0
 11
187.460366248
 21
78.5198973898
 31
0.0
  0
ARC
  5
1E9
330
1F
100
AcDbEntity
  8
0
  6
Continuous
 62
     7
370
    15
100
AcDbCircle
 10
188.7303670062
 20
81.1432255893
 30
0.0
 40
1.269999999999897
100
AcDbArc
 50
141.9718286927
 51
180.0
  0
ARC
  5
1EA
330
1F
100
AcDbEntity
  8
0
  6
Continuous
 62
     7
370
    15
100
AcDbCircle
 10
182.261178913
 20
87.6287003542
 30
0.0
 40
1.270000000000083
100
AcDbArc
 50
269.921361046
 51
307.8841062608
  0
LINE
  5
1EB
330
1F
100
AcDbEntity
  8
0
  6
Continuous
 62
     7
370
    15
100
AcDbLine
 10
26.8745101829
 20
86.5719708088
 30
0.0
 11
182.2594288577
 21
86.3586979393
 31
0.0
  0
ARC
  5
1EC
330
1F
100
AcDbEntity
  8
0
  6
Continuous
 62
     7
370
    15
100
AcDbCircle
 10
26.8841170062
 20
93.5719622493
 30
0.0
 40
6.999999999999939
100
AcDbArc
 50
180.0
 51
269.921361046
  0
LINE
  5
1ED
330
1F
100
AcDbEntity
  8
0
  6
Continuous
 62
     7
370
    15
100
AcDbLine
 10
19.8841165592
 20
93.571962643
 30
0.0
 11
19.8841165592
 21
1126.5911104563
 31
0.0
  0
LINE
  5
1EE
330
1F
100
AcDbEntity
  8
0
  6
Continuous
 62
     7
370
    15
100
AcDbLine
 10
26.8745101829
 20
1133.591199148
 30
0.0
 11
182.2594288577
 21
1133.804464567
 31
0.0
  0
ARC
  5
1EF
330
1F
100
AcDbEntity
  8
0
  6
Continuous
 62
     7
370
    15
100
AcDbCircle
 10
182.261178913
 20
1132.5344260913
 30
0.0
 40
1.269999999999947
100
AcDbArc
 50
52.1158937392
 51
90.078638954
  0
ARC
  5
1F0
330
1F
100
AcDbEntity
  8
0
  6
Continuous
 62
     7
370
    15
100
AcDbCircle
 10
185.0950948231
 20
1136.1768354058
 30
0.0
 40
3.3450000000003
100
AcDbArc
 50
232.1158937392
 51
38.0281713073
  0
ARC
  5
1F1
330
1F
100
AcDbEntity
  8
0
  6
Continuous
 62
     7
370
    15
100
AcDbCircle
 10
188.7303670062
 20
1139.0199008562
 30
0.0
 40
1.270000000000095
100
AcDbArc
 50
180.0
 51
218.0281713073
  0
LINE
  5
1F2
330
1F
100
AcDbEntity
  8
0
  6
Continuous
 62
     7
370
    15
100
AcDbLine
 10
187.460366248
 20
1139.0198709849
 30
0.0
 11
187.460366248
 21
1141.6431906108
 31
0.0
  0
ARC
  5
1F3
330
1F
100
AcDbEntity
  8
0
  6
Continuous
 62
     7
370
    15
100
AcDbCircle
 10
185.0950948231
 20
1144.4862910397
 30
0.0
 40
3.345000000000088
100
AcDbArc
 50
321.9718286927
 51
127.8841062608
  0
ARC
  5
1F4
330
1F
100
AcDbEntity
  8
0
  6
Continuous
 62
     7
370
    15
100
AcDbCircle
 10
182.261178913
 20
1148.1287003542
 30
0.0
 40
1.270000000000195
100
AcDbArc
 50
269.921361046
 51
307.8841062608
  0
LINE
  5
1F5
330
1F
100
AcDbEntity
  8
0
  6
Continuous
 62
     7
370
    15
100
AcDbLine
 10
182.2594288577
 20
1146.8587162379
 30
0.0
 11
26.8745101829
 21
1147.0719816569
 31
0.0
  0
LINE
  5
1F6
330
1F
100
AcDbEntity
  8
0
  6
Continuous
 62
     7
370
    15
100
AcDbLine
 10
19.8841165592
 20
1193.3315040949
 30
0.0
 11
19.8841165592
 21
1154.0719511393
 31
0.0
  0
LINE
  5
1F7
330
1F
100
AcDbEntity
  8
0
  6
Continuous
 62
     7
370
    15
100
AcDbLine
 10
348.0366054763
 20
1200.3315927867
 30
0.0
 11
26.8841177066
 21
1200.3315927867
 31
0.0
  0
LINE
  5
1F8
330
1F
100
AcDbEntity
  8
0
  6
Continuous
 62
     7
370
    15
100
AcDbLine
 10
348.0654541244
 20
1147.0529081706
 30
0.0
 11
304.3639246215
 21
1146.8729021433
 31
0.0
  0
ARC
  5
1F9
330
1F
100
AcDbEntity
  8
0
  6
Continuous
 62
     7
370
    15
100
AcDbCircle
 10
304.3587013725
 20
1148.1429062221
 30
0.0
 40
1.270000000000089
100
AcDbArc
 50
232.4040387857
 51
270.2359156769
  0
ARC
  5
1FA
330
1F
100
AcDbEntity
  8
0
  6
Continuous
 62
     7
370
    15
100
AcDbCircle
 10
301.5431391893
 20
1144.4862910397
 30
0.0
 40
3.345000000000009
100
AcDbArc
 50
52.4040387857
 51
218.0281713073
  0
ARC
  5
1FB
330
1F
100
AcDbEntity
  8
0
  6
Continuous
 62
     7
370
    15
100
AcDbCircle
 10
297.9078670062
 20
1141.6432255893
 30
0.0
 40
1.270000000000039
100
AcDbArc
 50
0.0
 51
38.0281713073
  0
LINE
  5
1FC
330
1F
100
AcDbEntity
  8
0
  6
Continuous
 62
     7
370
    15
100
AcDbLine
 10
299.1778734912
 20
1141.6431906108
 30
0.0
 11
299.1778734912
 21
1139.0198709849
 31
0.0
  0
ARC
  5
1FD
330
1F
100
AcDbEntity
  8
0
  6
Continuous
 62
     7
370
    15
100
AcDbCircle
 10
297.9078670062
 20
1139.0199008562
 30
0.0
 40
1.270000000000152
100
AcDbArc
 50
321.9718286927
 51
0.0
  0
ARC
  5
1FE
330
1F
100
AcDbEntity
  8
0
  6
Continuous
 62
     7
370
    15
100
AcDbCircle
 10
301.5431391893
 20
1136.1768354058
 30
0.0
 40
3.34500000000031
100
AcDbArc
 50
141.9718286927
 51
307.5959612143
  0
ARC
  5
1FF
330
1F
100
AcDbEntity
  8
0
  6
Continuous
 62
     7
370
    15
100
AcDbCircle
 10
304.3587013725
 20
1132.5202202234
 30
0.0
 40
1.270000000000089
100
AcDbArc
 50
89.7640843231
 51
127.5959612143
  0
LINE
  5
200
330
1F
100
AcDbEntity
  8
0
  6
Continuous
 62
     7
370
    15
100
AcDbLine
 10
304.3639246215
 20
1133.7901594523
 30
0.0
 11
348.0654541244
 21
1133.6102726344
 31
0.0
  0
LINE
  5
201
330
1F
100
AcDbEntity
  8
0
  6
Continuous
 62
     7
370
    15
100
AcDbLine
 10
355.036604761
 20
1036.2195017222
 30
0.0
 11
355.036604761
 21
1126.6103031519
 31
0.0
  0
LINE
  5
202
330
1F
100
AcDbEntity
  8
0
  6
Continuous
 62
     7
370
    15
100
AcDbLine
 10
348.0654541244
 20
1029.2195322398
 30
0.0
 11
304.3639246215
 21
1029.0395262126
 31
0.0
  0
ARC
  5
203
330
1F
100
AcDbEntity
  8
0
  6
Continuous
 62
     7
370
    15
100
AcDbCircle
 10
304.3587013725
 20
1030.3095728888
 30
0.0
 40
1.270000000000338
100
AcDbArc
 50
232.4040387857
 51
270.2359156769
  0
ARC
  5
204
330
1F
100
AcDbEntity
  8
0
  6
Continuous
 62
     7
370
    15
100
AcDbCircle
 10
301.5431391893
 20
1026.6529577063
 30
0.0
 40
3.345000000000009
100
AcDbArc
 50
52.4040387857
 51
218.0281713073
  0
ARC
  5
205
330
1F
100
AcDbEntity
  8
0
  6
Continuous
 62
     7
370
    15
100
AcDbCircle
 10
297.9078670062
 20
1023.809892256
 30
0.0
 40
1.270000000000039
100
AcDbArc
 50
0.0
 51
38.0281713073
  0
LINE
  5
206
330
1F
100
AcDbEntity
  8
0
  6
Continuous
 62
     7
370
    15
100
AcDbLine
 10
299.1778734912
 20
1023.8099338893
 30
0.0
 11
299.1778734912
 21
1021.1866142634
 31
0.0
  0
ARC
  5
207
330
1F
100
AcDbEntity
  8
0
  6
Continuous
 62
     7
370
    15
100
AcDbCircle
 10
297.9078670062
 20
1021.1865675228
 30
0.0
 40
1.270000000000152
100
AcDbArc
 50
321.9718286927
 51
0.0
  0
ARC
  5
208
330
1F
100
AcDbEntity
  8
0
  6
Continuous
 62
     7
370
    15
100
AcDbCircle
 10
304.3587013725
 20
1014.68688689
 30
0.0
 40
1.269999999999978
100
AcDbArc
 50
89.7640843231
 51
127.5959612143
  0
LINE
  5
209
330
1F
100
AcDbEntity
  8
0
  6
Continuous
 62
     7
370
    15
100
AcDbLine
 10
304.3639246215
 20
1015.9569027308
 30
0.0
 11
348.0654541244
 21
1015.7768967036
 31
0.0
  0
LINE
  5
20A
330
1F
100
AcDbEntity
  8
0
  6
Continuous
 62
     7
370
    15
100
AcDbLine
 10
355.036604761
 20
918.3861257914
 30
0.0
 11
355.036604761
 21
1008.7770464305
 31
0.0
  0
ARC
  5
20B
330
1F
100
AcDbEntity
  8
0
  6
Continuous
 62
     7
370
    15
100
AcDbCircle
 10
304.3587013725
 20
912.4762395555
 30
0.0
 40
1.269999999999978
100
AcDbArc
 50
232.4040387857
 51
270.2359156769
  0
ARC
  5
20C
330
1F
100
AcDbEntity
  8
0
  6
Continuous
 62
     7
370
    15
100
AcDbCircle
 10
301.5431391893
 20
908.819624373
 30
0.0
 40
3.345000000000039
100
AcDbArc
 50
52.4040387857
 51
218.0281713073
  0
ARC
  5
20D
330
1F
100
AcDbEntity
  8
0
  6
Continuous
 62
     7
370
    15
100
AcDbCircle
 10
297.9078670062
 20
905.9765589227
 30
0.0
 40
1.270000000000039
100
AcDbArc
 50
0.0
 51
38.0281713073
  0
LINE
  5
20E
330
1F
100
AcDbEntity
  8
0
  6
Continuous
 62
     7
370
    15
100
AcDbLine
 10
299.1778734912
 20
905.9765579585
 30
0.0
 11
299.1778734912
 21
903.3532383326
 31
0.0
  0
ARC
  5
20F
330
1F
100
AcDbEntity
  8
0
  6
Continuous
 62
     7
370
    15
100
AcDbCircle
 10
297.9078670062
 20
903.3532341895
 30
0.0
 40
1.270000000000152
100
AcDbArc
 50
321.9718286927
 51
0.0
  0
ARC
  5
210
330
1F
100
AcDbEntity
  8
0
  6
Continuous
 62
     7
370
    15
100
AcDbCircle
 10
301.5431391893
 20
900.5101687392
 30
0.0
 40
3.345000000000039
100
AcDbArc
 50
141.9718286927
 51
307.5959612143
  0
ARC
  5
211
330
1F
100
AcDbEntity
  8
0
  6
Continuous
 62
     7
370
    15
100
AcDbCircle
 10
304.3587013725
 20
896.8535535567
 30
0.0
 40
1.270000000000068
100
AcDbArc
 50
89.7640843231
 51
127.5959612143
  0
LINE
  5
212
330
1F
100
AcDbEntity
  8
0
  6
Continuous
 62
     7
370
    15
100
AcDbLine
 10
355.036604761
 20
800.5528094653
 30
0.0
 11
355.036604761
 21
890.9436704997
 31
0.0
  0
LINE
  5
213
330
1F
100
AcDbEntity
  8
0
  6
Continuous
 62
     7
370
    15
100
AcDbLine
 10
348.0654541244
 20
793.5528399829
 30
0.0
 11
304.3639246215
 21
793.3728935603
 31
0.0
  0
ARC
  5
214
330
1F
100
AcDbEntity
  8
0
  6
Continuous
 62
     7
370
    15
100
AcDbCircle
 10
304.3587013725
 20
794.6429062221
 30
0.0
 40
1.270000000000068
100
AcDbArc
 50
232.4040387857
 51
270.2359156769
  0
ARC
  5
215
330
1F
100
AcDbEntity
  8
0
  6
Continuous
 62
     7
370
    15
100
AcDbCircle
 10
301.5431391893
 20
790.9862910397
 30
0.0
 40
3.345000000000079
100
AcDbArc
 50
52.4040387857
 51
218.0281713073
  0
ARC
  5
216
330
1F
100
AcDbEntity
  8
0
  6
Continuous
 62
     7
370
    15
100
AcDbCircle
 10
297.9078670062
 20
788.1432255893
 30
0.0
 40
1.270000000000039
100
AcDbArc
 50
0.0
 51
38.0281713073
  0
ARC
  5
217
330
1F
100
AcDbEntity
  8
0
  6
Continuous
 62
     7
370
    15
100
AcDbCircle
 10
297.9078670062
 20
785.5199008562
 30
0.0
 40
1.270000000000152
100
AcDbArc
 50
321.9718286927
 51
0.0
  0
ARC
  5
218
330
1F
100
AcDbEntity
  8
0
  6
Continuous
 62
     7
370
    15
100
AcDbCircle
 10
301.5431391893
 20
782.6768354058
 30
0.0
 40
3.345000000000079
100
AcDbArc
 50
141.9718286927
 51
307.5959612143
  0
ARC
  5
219
330
1F
100
AcDbEntity
  8
0
  6
Continuous
 62
     7
370
    15
100
AcDbCircle
 10
304.3587013725
 20
779.0202202234
 30
0.0
 40
1.269999999999978
100
AcDbArc
 50
89.7640843231
 51
127.5959612143
  0
LINE
  5
21A
330
1F
100
AcDbEntity
  8
0
  6
Continuous
 62
     7
370
    15
100
AcDbLine
 10
304.3639246215
 20
780.2902104739
 30
0.0
 11
348.0654541244
 21
780.1102640513
 31
0.0
  0
LINE
  5
21B
330
1F
100
AcDbEntity
  8
0
  6
Continuous
 62
     7
370
    15
100
AcDbLine
 10
355.036604761
 20
682.7194931391
 30
0.0
 11
355.036604761
 21
773.1103541735
 31
0.0
  0
ARC
  5
21C
330
1F
100
AcDbEntity
  8
0
  6
Continuous
 62
     7
370
    15
100
AcDbCircle
 10
348.0366170062
 20
564.8861331949
 30
0.0
 40
7.0
100
AcDbArc
 50
270.2359156769
 51
0.0
  0
LINE
  5
21D
330
1F
100
AcDbEntity
  8
0
  6
Continuous
 62
     7
370
    15
100
AcDbLine
 10
304.3639246215
 20
557.706260908
 30
0.0
 11
348.0654541244
 21
557.8862073306
 31
0.0
  0
ARC
  5
21E
330
1F
100
AcDbEntity
  8
0
  6
Continuous
 62
     7
370
    15
100
AcDbCircle
 10
304.3587013725
 20
558.9762395555
 30
0.0
 40
1.269999999999978
100
AcDbArc
 50
232.4040387857
 51
270.2359156769
  0
ARC
  5
21F
330
1F
100
AcDbEntity
  8
0
  6
Continuous
 62
     7
370
    15
100
AcDbCircle
 10
301.5431391893
 20
555.319624373
 30
0.0
 40
3.34499999999999
100
AcDbArc
 50
52.4040387857
 51
218.0281713073
  0
ARC
  5
220
330
1F
100
AcDbEntity
  8
0
  6
Continuous
 62
     7
370
    15
100
AcDbCircle
 10
297.9078670062
 20
552.4765589227
 30
0.0
 40
1.270000000000152
100
AcDbArc
 50
0.0
 51
38.0281713073
  0
LINE
  5
221
330
1F
100
AcDbEntity
  8
0
  6
Continuous
 62
     7
370
    15
100
AcDbLine
 10
299.1778734912
 20
549.8532297495
 30
0.0
 11
299.1778734912
 21
552.4765493754
 31
0.0
  0
ARC
  5
222
330
1F
100
AcDbEntity
  8
0
  6
Continuous
 62
     7
370
    15
100
AcDbCircle
 10
297.9078670062
 20
549.8532341895
 30
0.0
 40
1.270000000000152
100
AcDbArc
 50
321.9718286927
 51
0.0
  0
ARC
  5
223
330
1F
100
AcDbEntity
  8
0
  6
Continuous
 62
     7
370
    15
100
AcDbCircle
 10
301.5431391893
 20
547.0101687392
 30
0.0
 40
3.34499999999999
100
AcDbArc
 50
141.9718286927
 51
307.5959612143
  0
ARC
  5
224
330
1F
100
AcDbEntity
  8
0
  6
Continuous
 62
     7
370
    15
100
AcDbCircle
 10
304.3587013725
 20
543.3535535567
 30
0.0
 40
1.270000000000089
100
AcDbArc
 50
89.7640843231
 51
127.5959612143
  0
LINE
  5
225
330
1F
100
AcDbEntity
  8
0
  6
Continuous
 62
     7
370
    15
100
AcDbLine
 10
348.0654541244
 20
544.4435717944
 30
0.0
 11
304.3639246215
 21
544.623518217
 31
0.0
  0
ARC
  5
226
330
1F
100
AcDbEntity
  8
0
  6
Continuous
 62
     7
370
    15
100
AcDbCircle
 10
348.0366170062
 20
537.4436599173
 30
0.0
 40
7.000000000000218
100
AcDbArc
 50
0.0
 51
89.7640843231
  0
LINE
  5
227
330
1F
100
AcDbEntity
  8
0
  6
Continuous
 62
     7
370
    15
100
AcDbLine
 10
304.3639246215
 20
898.1235268
 30
0.0
 11
348.0654541244
 21
897.9435803774
 31
0.0
  0
LINE
  5
228
330
1F
100
AcDbEntity
  8
0
  6
Continuous
 62
     7
370
    15
100
AcDbLine
 10
355.036604761
 20
537.4436619166
 30
0.0
 11
355.036604761
 21
447.0528008822
 31
0.0
  0
LINE
  5
229
330
1F
100
AcDbEntity
  8
0
  6
Continuous
 62
     7
370
    15
100
AcDbLine
 10
355.036604761
 20
655.2769782427
 30
0.0
 11
355.036604761
 21
564.8861172083
 31
0.0
  0
ARC
  5
22A
330
1F
100
AcDbEntity
  8
0
  6
Continuous
 62
     7
370
    15
100
AcDbCircle
 10
188.7303670062
 20
1141.6432255893
 30
0.0
 40
1.270000000000095
100
AcDbArc
 50
141.9718286927
 51
180.0
  0
LINE
  5
22B
330
1F
100
AcDbEntity
  8
0
  6
Continuous
 62
     7
370
    15
100
AcDbLine
 10
348.0654541244
 20
426.6102554682
 30
0.0
 11
304.3639246215
 21
426.7902018908
 31
0.0
  0
LINE
  5
22C
330
1F
100
AcDbEntity
  8
0
  6
Continuous
 62
     7
370
    15
100
AcDbLine
 10
304.3639246215
 20
322.0395984534
 30
0.0
 11
348.0654541244
 21
322.2195150736
 31
0.0
  0
ARC
  5
22D
330
1F
100
AcDbEntity
  8
0
  6
Continuous
 62
     7
370
    15
100
AcDbCircle
 10
348.0366170062
 20
1193.3315632228
 30
0.0
 40
7.0
100
AcDbArc
 50
0.0
 51
90.0
  0
LINE
  5
22E
330
1F
100
AcDbEntity
  8
0
  6
Continuous
 62
     7
370
    15
100
AcDbLine
 10
299.1778734912
 20
196.3532360676
 30
0.0
 11
299.1778734912
 21
198.9765556935
 31
0.0
  0
ARC
  5
22F
330
1F
100
AcDbEntity
  8
0
  6
Continuous
 62
     7
370
    15
100
AcDbCircle
 10
348.0366170062
 20
1008.7769932506
 30
0.0
 40
6.999999999999886
100
AcDbArc
 50
0.0
 51
89.7640843231
  0
ARC
  5
230
330
1F
100
AcDbEntity
  8
0
  6
Continuous
 62
     7
370
    15
100
AcDbCircle
 10
348.0366170062
 20
890.9436599173
 30
0.0
 40
7.000000000000105
100
AcDbArc
 50
0.0
 51
89.7640843231
  0
ARC
  5
231
330
1F
100
AcDbEntity
  8
0
  6
Continuous
 62
     7
370
    15
100
AcDbCircle
 10
348.0366170062
 20
773.110326584
 30
0.0
 40
6.999999999999991
100
AcDbArc
 50
0.0
 51
89.7640843231
  0
ARC
  5
232
330
1F
100
AcDbEntity
  8
0
  6
Continuous
 62
     7
370
    15
100
AcDbCircle
 10
348.0366170062
 20
655.2769932506
 30
0.0
 40
7.000000000000105
100
AcDbArc
 50
0.0
 51
89.7640843231
  0
ARC
  5
233
330
1F
100
AcDbEntity
  8
0
  6
Continuous
 62
     7
370
    15
100
AcDbCircle
 10
26.8841170062
 20
1193.3315632228
 30
0.0
 40
7.0
100
AcDbArc
 50
90.0
 51
180.0
  0
ARC
  5
234
330
1F
100
AcDbEntity
  8
0
  6
Continuous
 62
     7
370
    15
100
AcDbCircle
 10
26.8841170062
 20
1126.5911641962
 30
0.0
 40
7.000000000000294
100
AcDbArc
 50
90.078638954
 51
180.0
  0
ARC
  5
235
330
1F
100
AcDbEntity
  8
0
  6
Continuous
 62
     7
370
    15
100
AcDbCircle
 10
26.8841170062
 20
1154.0719622493
 30
0.0
 40
6.999999999999893
100
AcDbArc
 50
180.0
 51
269.921361046
  0
ARC
  5
236
330
1F
100
AcDbEntity
  8
0
  6
Continuous
 62
     7
370
    15
100
AcDbCircle
 10
348.0366170062
 20
1154.0527998615
 30
0.0
 40
6.999999999999991
100
AcDbArc
 50
270.2359156769
 51
0.0
  0
ARC
  5
237
330
1F
100
AcDbEntity
  8
0
  6
Continuous
 62
     7
370
    15
100
AcDbCircle
 10
348.0366170062
 20
1036.2194665282
 30
0.0
 40
7.000000000000446
100
AcDbArc
 50
270.2359156769
 51
0.0
  0
ARC
  5
238
330
1F
100
AcDbEntity
  8
0
  6
Continuous
 62
     7
370
    15
100
AcDbCircle
 10
348.0366170062
 20
918.3861331949
 30
0.0
 40
7.000000000000105
100
AcDbArc
 50
270.2359156769
 51
0.0
  0
ARC
  5
239
330
1F
100
AcDbEntity
  8
0
  6
Continuous
 62
     7
370
    15
100
AcDbCircle
 10
348.0366170062
 20
800.5527998615
 30
0.0
 40
6.999999999999886
100
AcDbArc
 50
270.2359156769
 51
0.0
  0
ARC
  5
23A
330
1F
100
AcDbEntity
  8
0
  6
Continuous
 62
     7
370
    15
100
AcDbCircle
 10
348.0366170062
 20
682.7194665282
 30
0.0
 40
7.000000000000218
100
AcDbArc
 50
270.2359156769
 51
0.0
  0
LINE
  5
23B
330
1F
100
AcDbEntity
  8
0
  6
Continuous
 62
     7
370
    15
100
AcDbLine
 10
299.1778734912
 20
670.3098657015
 30
0.0
 11
299.1778734912
 21
667.6865460757
 31
0.0
  0
ARC
  5
23C
330
1F
100
AcDbEntity
  8
0
  6
Continuous
 62
     7
370
    15
100
AcDbCircle
 10
297.9078670062
 20
670.309892256
 30
0.0
 40
1.270000000000152
100
AcDbArc
 50
0.0
 51
38.0281713073
  0
ARC
  5
23D
330
1F
100
AcDbEntity
  8
0
  6
Continuous
 62
     7
370
    15
100
AcDbCircle
 10
301.5431391893
 20
673.1529577063
 30
0.0
 40
3.34499999999999
100
AcDbArc
 50
52.4040387857
 51
218.0281713073
  0
ARC
  5
23E
330
1F
100
AcDbEntity
  8
0
  6
Continuous
 62
     7
370
    15
100
AcDbCircle
 10
304.3587013725
 20
676.8095728888
 30
0.0
 40
1.270000000000068
100
AcDbArc
 50
232.4040387857
 51
270.2359156769
  0
LINE
  5
23F
330
1F
100
AcDbEntity
  8
0
  6
Continuous
 62
     7
370
    15
100
AcDbLine
 10
348.0654541244
 20
675.7195236567
 30
0.0
 11
304.3639246215
 21
675.5395772341
 31
0.0
  0
LINE
  5
240
330
1F
100
AcDbEntity
  8
0
  6
Continuous
 62
     7
370
    15
100
AcDbLine
 10
304.3639246215
 20
662.4568941477
 30
0.0
 11
348.0654541244
 21
662.2769477252
 31
0.0
  0
ARC
  5
241
330
1F
100
AcDbEntity
  8
0
  6
Continuous
 62
     7
370
    15
100
AcDbCircle
 10
304.3587013725
 20
661.18688689
 30
0.0
 40
1.269999999999978
100
AcDbArc
 50
89.7640843231
 51
127.5959612143
  0
ARC
  5
242
330
1F
100
AcDbEntity
  8
0
  6
Continuous
 62
     7
370
    15
100
AcDbCircle
 10
185.0950948231
 20
83.9862910397
 30
0.0
 40
3.345000000000118
100
AcDbArc
 50
321.9718286927
 51
127.8841062608
  0
ARC
  5
243
330
1F
100
AcDbEntity
  8
0
  6
Continuous
 62
     7
370
    15
100
AcDbCircle
 10
297.9078670062
 20
667.6865675228
 30
0.0
 40
1.270000000000152
100
AcDbArc
 50
321.9718286927
 51
0.0
  0
LINE
  5
244
330
1F
100
AcDbEntity
  8
0
  6
Continuous
 62
     7
370
    15
100
AcDbLine
 10
299.1778734912
 20
788.1432416323
 30
0.0
 11
299.1778734912
 21
785.5199220065
 31
0.0
  0
LINE
  5
245
330
1F
100
AcDbEntity
  8
0
  6
Continuous
 62
     7
370
    15
100
AcDbLine
 10
348.0654541244
 20
911.3862159136
 30
0.0
 11
304.3639246215
 21
911.2062694911
 31
0.0
  0
ARC
  5
246
330
1F
100
AcDbEntity
  8
0
  6
Continuous
 62
     7
370
    15
100
AcDbCircle
 10
301.5431391893
 20
1018.3435020725
 30
0.0
 40
3.344999999999939
100
AcDbArc
 50
141.9718286927
 51
307.5959612143
  0
LINE
  5
247
330
1F
100
AcDbEntity
  8
0
  6
Continuous
 62
     7
370
    15
100
AcDbLine
 10
355.036604761
 20
1154.0527584437
 30
0.0
 11
355.036604761
 21
1193.3315040949
 31
0.0
  0
ARC
  5
248
330
1F
100
AcDbEntity
  8
0
  6
Continuous
 62
     7
370
    15
100
AcDbCircle
 10
297.9078670062
 20
198.9765589227
 30
0.0
 40
1.270000000000152
100
AcDbArc
 50
0.0
 51
38.0281713073
  0
ARC
  5
249
330
1F
100
AcDbEntity
  8
0
  6
Continuous
 62
     7
370
    15
100
AcDbCircle
 10
348.0366170062
 20
1126.610326584
 30
0.0
 40
7.000000000000446
100
AcDbArc
 50
0.0
 51
89.7640843231
  0
ARC
  5
24A
330
1F
100
AcDbEntity
  8
0
  6
Continuous
 62
     7
370
    15
100
AcDbCircle
 10
301.5431391893
 20
664.8435020725
 30
0.0
 40
3.345000000000039
100
AcDbArc
 50
141.9718286927
 51
307.5959612143
  0
ARC
  5
24B
330
1F
100
AcDbEntity
  8
0
  6
Continuous
 62
     7
370
    15
100
AcDbCircle
 10
959.6241170062
 20
447.0527998615
 30
0.0
 40
7.0
100
AcDbArc
 50
270.2359156769
 51
0.0
  0
ARC
  5
24C
330
1F
100
AcDbEntity
  8
0
  6
Continuous
 62
     7
370
    15
100
AcDbCircle
 10
915.9462013725
 20
441.1429062221
 30
0.0
 40
1.270000000000057
100
AcDbArc
 50
232.4040387857
 51
270.2359156769
  0
ARC
  5
24D
330
1F
100
AcDbEntity
  8
0
  6
Continuous
 62
     7
370
    15
100
AcDbCircle
 10
913.1306391893
 20
437.4862910397
 30
0.0
 40
3.344999999999949
100
AcDbArc
 50
52.4040387857
 51
218.0281713073
  0
ARC
  5
24E
330
1F
100
AcDbEntity
  8
0
  6
Continuous
 62
     7
370
    15
100
AcDbCircle
 10
909.4953670062
 20
434.6432255893
 30
0.0
 40
1.270000000000095
100
AcDbArc
 50
0.0
 51
38.0281713073
  0
LINE
  5
24F
330
1F
100
AcDbEntity
  8
0
  6
Continuous
 62
     7
370
    15
100
AcDbLine
 10
910.7653383006
 20
432.0199134234
 30
0.0
 11
910.7653383006
 21
434.6432330493
 31
0.0
  0
ARC
  5
250
330
1F
100
AcDbEntity
  8
0
  6
Continuous
 62
     7
370
    15
100
AcDbCircle
 10
909.4953670062
 20
432.0199008562
 30
0.0
 40
1.270000000000095
100
AcDbArc
 50
321.9718286927
 51
0.0
  0
ARC
  5
251
330
1F
100
AcDbEntity
  8
0
  6
Continuous
 62
     7
370
    15
100
AcDbCircle
 10
913.1306391893
 20
429.1768354058
 30
0.0
 40
3.344999999999994
100
AcDbArc
 50
141.9718286927
 51
307.5959612143
  0
ARC
  5
252
330
1F
100
AcDbEntity
  8
0
  6
Continuous
 62
     7
370
    15
100
AcDbCircle
 10
915.9462013725
 20
425.5202202234
 30
0.0
 40
1.270000000000102
100
AcDbArc
 50
89.7640843231
 51
127.5959612143
  0
LINE
  5
253
330
1F
100
AcDbEntity
  8
0
  6
Continuous
 62
     7
370
    15
100
AcDbLine
 10
959.6529487361
 20
426.6102554682
 30
0.0
 11
915.9514192332
 21
426.7902018908
 31
0.0
  0
ARC
  5
254
330
1F
100
AcDbEntity
  8
0
  6
Continuous
 62
     7
370
    15
100
AcDbCircle
 10
959.6241170062
 20
419.610326584
 30
0.0
 40
7.000000000000048
100
AcDbArc
 50
0.0
 51
89.7640843231
  0
LINE
  5
255
330
1F
100
AcDbEntity
  8
0
  6
Continuous
 62
     7
370
    15
100
AcDbLine
 10
966.6241291751
 20
419.6103157881
 30
0.0
 11
966.6241291751
 21
329.2194547537
 31
0.0
  0
LINE
  5
256
330
1F
100
AcDbEntity
  8
0
  6
Continuous
 62
     7
370
    15
100
AcDbLine
 10
915.9514192332
 20
322.0395984534
 30
0.0
 11
959.6529487361
 21
322.2195150736
 31
0.0
  0
ARC
  5
257
330
1F
100
AcDbEntity
  8
0
  6
Continuous
 62
     7
370
    15
100
AcDbCircle
 10
915.9462013725
 20
323.3095728888
 30
0.0
 40
1.270000000000057
100
AcDbArc
 50
232.4040387857
 51
270.2359156769
  0
ARC
  5
258
330
1F
100
AcDbEntity
  8
0
  6
Continuous
 62
     7
370
    15
100
AcDbCircle
 10
913.1306391893
 20
319.6529577063
 30
0.0
 40
3.345000000000039
100
AcDbArc
 50
52.4040387857
 51
218.0281713073
  0
ARC
  5
259
330
1F
100
AcDbEntity
  8
0
  6
Continuous
 62
     7
370
    15
100
AcDbCircle
 10
909.4953670062
 20
316.809892256
 30
0.0
 40
1.270000000000095
100
AcDbArc
 50
0.0
 51
38.0281713073
  0
LINE
  5
25A
330
1F
100
AcDbEntity
  8
0
  6
Continuous
 62
     7
370
    15
100
AcDbLine
 10
910.7653383006
 20
314.1865672949
 30
0.0
 11
910.7653383006
 21
316.8098869208
 31
0.0
  0
ARC
  5
25B
330
1F
100
AcDbEntity
  8
0
  6
Continuous
 62
     7
370
    15
100
AcDbCircle
 10
909.4953670062
 20
314.1865675228
 30
0.0
 40
1.270000000000095
100
AcDbArc
 50
321.9718286927
 51
0.0
  0
ARC
  5
25C
330
1F
100
AcDbEntity
  8
0
  6
Continuous
 62
     7
370
    15
100
AcDbCircle
 10
913.1306391893
 20
311.3435020725
 30
0.0
 40
3.344999999999949
100
AcDbArc
 50
141.9718286927
 51
307.5959612143
  0
ARC
  5
25D
330
1F
100
AcDbEntity
  8
0
  6
Continuous
 62
     7
370
    15
100
AcDbCircle
 10
915.9462013725
 20
307.68688689
 30
0.0
 40
1.270000000000102
100
AcDbArc
 50
89.7640843231
 51
127.5959612143
  0
LINE
  5
25E
330
1F
100
AcDbEntity
  8
0
  6
Continuous
 62
     7
370
    15
100
AcDbLine
 10
959.6529487361
 20
308.7769391421
 30
0.0
 11
915.9514192332
 21
308.9568855647
 31
0.0
  0
ARC
  5
25F
330
1F
100
AcDbEntity
  8
0
  6
Continuous
 62
     7
370
    15
100
AcDbCircle
 10
959.6241170062
 20
301.7769932506
 30
0.0
 40
7.0
100
AcDbArc
 50
0.0
 51
89.7640843231
  0
LINE
  5
260
330
1F
100
AcDbEntity
  8
0
  6
Continuous
 62
     7
370
    15
100
AcDbLine
 10
966.6241291751
 20
301.776999462
 30
0.0
 11
966.6241291751
 21
211.3861384276
 31
0.0
  0
LINE
  5
261
330
1F
100
AcDbEntity
  8
0
  6
Continuous
 62
     7
370
    15
100
AcDbLine
 10
915.9514192332
 20
204.2062523249
 30
0.0
 11
959.6529487361
 21
204.3861987475
 31
0.0
  0
ARC
  5
262
330
1F
100
AcDbEntity
  8
0
  6
Continuous
 62
     7
370
    15
100
AcDbCircle
 10
915.9462013725
 20
205.4762395555
 30
0.0
 40
1.270000000000033
100
AcDbArc
 50
232.4040387857
 51
270.2359156769
  0
ARC
  5
263
330
1F
100
AcDbEntity
  8
0
  6
Continuous
 62
     7
370
    15
100
AcDbCircle
 10
913.1306391893
 20
201.819624373
 30
0.0
 40
3.344999999999972
100
AcDbArc
 50
52.4040387857
 51
218.0281713073
  0
ARC
  5
264
330
1F
100
AcDbEntity
  8
0
  6
Continuous
 62
     7
370
    15
100
AcDbCircle
 10
909.4953670062
 20
198.9765589227
 30
0.0
 40
1.270000000000115
100
AcDbArc
 50
0.0
 51
38.0281713073
  0
LINE
  5
265
330
1F
100
AcDbEntity
  8
0
  6
Continuous
 62
     7
370
    15
100
AcDbLine
 10
910.7653383006
 20
196.3532360676
 30
0.0
 11
910.7653383006
 21
198.9765556935
 31
0.0
  0
ARC
  5
266
330
1F
100
AcDbEntity
  8
0
  6
Continuous
 62
     7
370
    15
100
AcDbCircle
 10
909.4953670062
 20
196.3532341895
 30
0.0
 40
1.270000000000098
100
AcDbArc
 50
321.9718286927
 51
0.0
  0
ARC
  5
267
330
1F
100
AcDbEntity
  8
0
  6
Continuous
 62
     7
370
    15
100
AcDbCircle
 10
913.1306391893
 20
193.5101687392
 30
0.0
 40
3.344999999999927
100
AcDbArc
 50
141.9718286927
 51
307.5959612143
  0
ARC
  5
268
330
1F
100
AcDbEntity
  8
0
  6
Continuous
 62
     7
370
    15
100
AcDbCircle
 10
915.9462013725
 20
189.8535535567
 30
0.0
 40
1.270000000000033
100
AcDbArc
 50
89.7640843231
 51
127.5959612143
  0
LINE
  5
269
330
1F
100
AcDbEntity
  8
0
  6
Continuous
 62
     7
370
    15
100
AcDbLine
 10
959.6529487361
 20
190.9436079148
 30
0.0
 11
915.9514192332
 21
191.1235394362
 31
0.0
  0
ARC
  5
26A
330
1F
100
AcDbEntity
  8
0
  6
Continuous
 62
     7
370
    15
100
AcDbCircle
 10
959.6241170062
 20
183.9436599173
 30
0.0
 40
7.000000000000114
100
AcDbArc
 50
0.0
 51
89.7640843231
  0
LINE
  5
26B
330
1F
100
AcDbEntity
  8
0
  6
Continuous
 62
     7
370
    15
100
AcDbLine
 10
966.6241291751
 20
183.9436533335
 30
0.0
 11
966.6241291751
 21
93.5527997497
 31
0.0
  0
LINE
  5
26C
330
1F
100
AcDbEntity
  8
0
  6
Continuous
 62
     7
370
    15
100
AcDbLine
 10
915.9514192332
 20
86.372913647
 30
0.0
 11
959.6529487361
 21
86.5528600696
 31
0.0
  0
ARC
  5
26D
330
1F
100
AcDbEntity
  8
0
  6
Continuous
 62
     7
370
    15
100
AcDbCircle
 10
915.9462013725
 20
87.6429062221
 30
0.0
 40
1.270000000000033
100
AcDbArc
 50
232.4040387857
 51
270.2359156769
  0
ARC
  5
26E
330
1F
100
AcDbEntity
  8
0
  6
Continuous
 62
     7
370
    15
100
AcDbCircle
 10
913.1306391893
 20
83.9862910397
 30
0.0
 40
3.344999999999945
100
AcDbArc
 50
52.4040387857
 51
218.0281713073
  0
ARC
  5
26F
330
1F
100
AcDbEntity
  8
0
  6
Continuous
 62
     7
370
    15
100
AcDbCircle
 10
909.4953670062
 20
81.1432255893
 30
0.0
 40
1.270000000000115
100
AcDbArc
 50
0.0
 51
38.0281713073
  0
LINE
  5
270
330
1F
100
AcDbEntity
  8
0
  6
Continuous
 62
     7
370
    15
100
AcDbLine
 10
910.7653383006
 20
78.5198973898
 30
0.0
 11
910.7653383006
 21
81.1432244662
 31
0.0
  0
ARC
  5
271
330
1F
100
AcDbEntity
  8
0
  6
Continuous
 62
     7
370
    15
100
AcDbCircle
 10
909.4953670062
 20
78.5199008562
 30
0.0
 40
1.270000000000095
100
AcDbArc
 50
321.9718286927
 51
0.0
  0
ARC
  5
272
330
1F
100
AcDbEntity
  8
0
  6
Continuous
 62
     7
370
    15
100
AcDbCircle
 10
913.1306391893
 20
75.6768354058
 30
0.0
 40
3.344999999999945
100
AcDbArc
 50
141.9718286927
 51
307.5959612143
  0
ARC
  5
273
330
1F
100
AcDbEntity
  8
0
  6
Continuous
 62
     7
370
    15
100
AcDbCircle
 10
915.9462013725
 20
72.0202202234
 30
0.0
 40
1.270000000000033
100
AcDbArc
 50
89.7640843231
 51
127.5959612143
  0
LINE
  5
274
330
1F
100
AcDbEntity
  8
0
  6
Continuous
 62
     7
370
    15
100
AcDbLine
 10
959.6529487361
 20
73.1102692369
 30
0.0
 11
915.9514192332
 21
73.2902082089
 31
0.0
  0
ARC
  5
275
330
1F
100
AcDbEntity
  8
0
  6
Continuous
 62
     7
370
    15
100
AcDbCircle
 10
959.6241170062
 20
66.110326584
 30
0.0
 40
7.000000000000114
100
AcDbArc
 50
0.0
 51
89.7640843231
  0
LINE
  5
276
330
1F
100
AcDbEntity
  8
0
  6
Continuous
 62
     7
370
    15
100
AcDbLine
 10
966.6241291751
 20
66.1103295568
 30
0.0
 11
966.6241291751
 21
26.8315634165
 31
0.0
  0
LINE
  5
277
330
1F
100
AcDbEntity
  8
0
  6
Continuous
 62
     7
370
    15
100
AcDbLine
 10
959.624100088
 20
19.8315641317
 30
0.0
 11
638.4715918292
 21
19.8315641317
 31
0.0
  0
ARC
  5
278
330
1F
100
AcDbEntity
  8
0
  6
Continuous
 62
     7
370
    15
100
AcDbCircle
 10
638.4716170062
 20
26.8315632228
 30
0.0
 40
7.000000000000007
100
AcDbArc
 50
180.0
 51
270.0
  0
LINE
  5
279
330
1F
100
AcDbEntity
  8
0
  6
Continuous
 62
     7
370
    15
100
AcDbLine
 10
631.4716223468
 20
26.8315634165
 30
0.0
 11
631.4716223468
 21
66.0911666635
 31
0.0
  0
ARC
  5
27A
330
1F
100
AcDbEntity
  8
0
  6
Continuous
 62
     7
370
    15
100
AcDbCircle
 10
638.4716170062
 20
66.0911641962
 30
0.0
 40
7.000000000000038
100
AcDbArc
 50
90.078638954
 51
180.0
  0
LINE
  5
27B
330
1F
100
AcDbEntity
  8
0
  6
Continuous
 62
     7
370
    15
100
AcDbLine
 10
793.8469532718
 20
73.3044239167
 30
0.0
 11
638.4619954814
 21
73.0911584977
 31
0.0
  0
ARC
  5
27C
330
1F
100
AcDbEntity
  8
0
  6
Continuous
 62
     7
370
    15
100
AcDbCircle
 10
796.6825948231
 20
75.6768354058
 30
0.0
 40
3.345000000000019
100
AcDbArc
 50
232.1158937392
 51
38.0281713073
  0
ARC
  5
27D
330
1F
100
AcDbEntity
  8
0
  6
Continuous
 62
     7
370
    15
100
AcDbCircle
 10
800.3178670062
 20
78.5199008562
 30
0.0
 40
1.270000000000034
100
AcDbArc
 50
180.0
 51
218.0281713073
  0
LINE
  5
27E
330
1F
100
AcDbEntity
  8
0
  6
Continuous
 62
     7
370
    15
100
AcDbLine
 10
799.0478757609
 20
81.1432244662
 30
0.0
 11
799.0478757609
 21
78.5198973898
 31
0.0
  0
ARC
  5
27F
330
1F
100
AcDbEntity
  8
0
  6
Continuous
 62
     7
370
    15
100
AcDbCircle
 10
800.3178670062
 20
81.1432255893
 30
0.0
 40
1.269999999999964
100
AcDbArc
 50
141.9718286927
 51
180.0
  0
ARC
  5
280
330
1F
100
AcDbEntity
  8
0
  6
Continuous
 62
     7
370
    15
100
AcDbCircle
 10
796.6825948231
 20
83.9862910397
 30
0.0
 40
3.345000000000019
100
AcDbArc
 50
321.9718286927
 51
127.8841062608
  0
ARC
  5
281
330
1F
100
AcDbEntity
  8
0
  6
Continuous
 62
     7
370
    15
100
AcDbCircle
 10
793.848678913
 20
87.6287003542
 30
0.0
 40
1.26999999999999
100
AcDbArc
 50
269.921361046
 51
307.8841062608
  0
LINE
  5
282
330
1F
100
AcDbEntity
  8
0
  6
Continuous
 62
     7
370
    15
100
AcDbLine
 10
638.4619954814
 20
86.5719708088
 30
0.0
 11
793.8469532718
 21
86.3586979393
 31
0.0
  0
ARC
  5
283
330
1F
100
AcDbEntity
  8
0
  6
Continuous
 62
     7
370
    15
100
AcDbCircle
 10
638.4716170062
 20
93.5719622493
 30
0.0
 40
7.0
100
AcDbArc
 50
180.0
 51
269.921361046
  0
LINE
  5
284
330
1F
100
AcDbEntity
  8
0
  6
Continuous
 62
     7
370
    15
100
AcDbLine
 10
631.4716223468
 20
93.571962643
 30
0.0
 11
631.4716223468
 21
1126.5911104563
 31
0.0
  0
ARC
  5
285
330
1F
100
AcDbEntity
  8
0
  6
Continuous
 62
     7
370
    15
100
AcDbCircle
 10
959.6241170062
 20
564.8861331949
 30
0.0
 40
7.0
100
AcDbArc
 50
270.2359156769
 51
0.0
  0
LINE
  5
286
330
1F
100
AcDbEntity
  8
0
  6
Continuous
 62
     7
370
    15
100
AcDbLine
 10
915.9514192332
 20
557.706260908
 30
0.0
 11
959.6529487361
 21
557.8862073306
 31
0.0
  0
ARC
  5
287
330
1F
100
AcDbEntity
  8
0
  6
Continuous
 62
     7
370
    15
100
AcDbCircle
 10
915.9462013725
 20
558.9762395555
 30
0.0
 40
1.270000000000012
100
AcDbArc
 50
232.4040387857
 51
270.2359156769
  0
ARC
  5
288
330
1F
100
AcDbEntity
  8
0
  6
Continuous
 62
     7
370
    15
100
AcDbCircle
 10
913.1306391893
 20
555.319624373
 30
0.0
 40
3.344999999999949
100
AcDbArc
 50
52.4040387857
 51
218.0281713073
  0
ARC
  5
289
330
1F
100
AcDbEntity
  8
0
  6
Continuous
 62
     7
370
    15
100
AcDbCircle
 10
909.4953670062
 20
552.4765589227
 30
0.0
 40
1.270000000000095
100
AcDbArc
 50
0.0
 51
38.0281713073
  0
LINE
  5
28A
330
1F
100
AcDbEntity
  8
0
  6
Continuous
 62
     7
370
    15
100
AcDbLine
 10
910.7653383006
 20
549.8532297495
 30
0.0
 11
910.7653383006
 21
552.4765493754
 31
0.0
  0
ARC
  5
28B
330
1F
100
AcDbEntity
  8
0
  6
Continuous
 62
     7
370
    15
100
AcDbCircle
 10
909.4953670062
 20
549.8532341895
 30
0.0
 40
1.270000000000095
100
AcDbArc
 50
321.9718286927
 51
0.0
  0
ARC
  5
28C
330
1F
100
AcDbEntity
  8
0
  6
Continuous
 62
     7
370
    15
100
AcDbCircle
 10
913.1306391893
 20
547.0101687392
 30
0.0
 40
3.344999999999949
100
AcDbArc
 50
141.9718286927
 51
307.5959612143
  0
ARC
  5
28D
330
1F
100
AcDbEntity
  8
0
  6
Continuous
 62
     7
370
    15
100
AcDbCircle
 10
915.9462013725
 20
543.3535535567
 30
0.0
 40
1.270000000000102
100
AcDbArc
 50
89.7640843231
 51
127.5959612143
  0
LINE
  5
28E
330
1F
100
AcDbEntity
  8
0
  6
Continuous
 62
     7
370
    15
100
AcDbLine
 10
959.6529487361
 20
544.4435717944
 30
0.0
 11
915.9514192332
 21
544.623518217
 31
0.0
  0
ARC
  5
28F
330
1F
100
AcDbEntity
  8
0
  6
Continuous
 62
     7
370
    15
100
AcDbCircle
 10
959.6241170062
 20
537.4436599173
 30
0.0
 40
7.000000000000218
100
AcDbArc
 50
0.0
 51
89.7640843231
  0
LINE
  5
290
330
1F
100
AcDbEntity
  8
0
  6
Continuous
 62
     7
370
    15
100
AcDbLine
 10
966.6241291751
 20
537.4436619166
 30
0.0
 11
966.6241291751
 21
447.0528008822
 31
0.0
  0
LINE
  5
291
330
1F
100
AcDbEntity
  8
0
  6
Continuous
 62
     7
370
    15
100
AcDbLine
 10
966.6241291751
 20
655.2769782427
 30
0.0
 11
966.6241291751
 21
564.8861172083
 31
0.0
  0
LINE
  5
292
330
1F
100
AcDbEntity
  8
0
  6
Continuous
 62
     7
370
    15
100
AcDbLine
 10
799.0478757609
 20
1139.0198709849
 30
0.0
 11
799.0478757609
 21
1141.6431906108
 31
0.0
  0
ARC
  5
293
330
1F
100
AcDbEntity
  8
0
  6
Continuous
 62
     7
370
    15
100
AcDbCircle
 10
800.3178670062
 20
1141.6432255893
 30
0.0
 40
1.269999999999982
100
AcDbArc
 50
141.9718286927
 51
180.0
  0
ARC
  5
294
330
1F
100
AcDbEntity
  8
0
  6
Continuous
 62
     7
370
    15
100
AcDbCircle
 10
796.6825948231
 20
1144.4862910397
 30
0.0
 40
3.345000000000155
100
AcDbArc
 50
321.9718286927
 51
127.8841062608
  0
ARC
  5
295
330
1F
100
AcDbEntity
  8
0
  6
Continuous
 62
     7
370
    15
100
AcDbCircle
 10
793.848678913
 20
1148.1287003542
 30
0.0
 40
1.27000000000009
100
AcDbArc
 50
269.921361046
 51
307.8841062608
  0
LINE
  5
296
330
1F
100
AcDbEntity
  8
0
  6
Continuous
 62
     7
370
    15
100
AcDbLine
 10
793.8469532718
 20
1146.8587162379
 30
0.0
 11
638.4619954814
 21
1147.0719816569
 31
0.0
  0
LINE
  5
297
330
1F
100
AcDbEntity
  8
0
  6
Continuous
 62
     7
370
    15
100
AcDbLine
 10
959.624100088
 20
1200.3315927867
 30
0.0
 11
638.4715918292
 21
1200.3315927867
 31
0.0
  0
LINE
  5
298
330
1F
100
AcDbEntity
  8
0
  6
Continuous
 62
     7
370
    15
100
AcDbLine
 10
631.4716223468
 20
1193.3315040949
 30
0.0
 11
631.4716223468
 21
1154.0719511393
 31
0.0
  0
LINE
  5
299
330
1F
100
AcDbEntity
  8
0
  6
Continuous
 62
     7
370
    15
100
AcDbLine
 10
966.6241291751
 20
1154.0527584437
 30
0.0
 11
966.6241291751
 21
1193.3315040949
 31
0.0
  0
LINE
  5
29A
330
1F
100
AcDbEntity
  8
0
  6
Continuous
 62
     7
370
    15
100
AcDbLine
 10
966.6241291751
 20
1036.2195017222
 30
0.0
 11
966.6241291751
 21
1126.6103031519
 31
0.0
  0
LINE
  5
29B
330
1F
100
AcDbEntity
  8
0
  6
Continuous
 62
     7
370
    15
100
AcDbLine
 10
966.6241291751
 20
918.3861257914
 30
0.0
 11
966.6241291751
 21
1008.7770464305
 31
0.0
  0
LINE
  5
29C
330
1F
100
AcDbEntity
  8
0
  6
Continuous
 62
     7
370
    15
100
AcDbLine
 10
966.6241291751
 20
800.5528094653
 30
0.0
 11
966.6241291751
 21
890.9436704997
 31
0.0
  0
LINE
  5
29D
330
1F
100
AcDbEntity
  8
0
  6
Continuous
 62
     7
370
    15
100
AcDbLine
 10
966.6241291751
 20
682.7194931391
 30
0.0
 11
966.6241291751
 21
773.1103541735
 31
0.0
  0
ARC
  5
29E
330
1F
100
AcDbEntity
  8
0
  6
Continuous
 62
     7
370
    15
100
AcDbCircle
 10
959.6241170062
 20
93.5527998615
 30
0.0
 40
7.000000000000114
100
AcDbArc
 50
270.2359156769
 51
0.0
  0
ARC
  5
29F
330
1F
100
AcDbEntity
  8
0
  6
Continuous
 62
     7
370
    15
100
AcDbCircle
 10
959.6241170062
 20
211.3861331949
 30
0.0
 40
7.000000000000114
100
AcDbArc
 50
270.2359156769
 51
0.0
  0
ARC
  5
2A0
330
1F
100
AcDbEntity
  8
0
  6
Continuous
 62
     7
370
    15
100
AcDbCircle
 10
959.6241170062
 20
329.2194665282
 30
0.0
 40
7.000000000000048
100
AcDbArc
 50
270.2359156769
 51
0.0
  0
ARC
  5
2A1
330
1F
100
AcDbEntity
  8
0
  6
Continuous
 62
     7
370
    15
100
AcDbCircle
 10
909.4953670062
 20
667.6865675228
 30
0.0
 40
1.270000000000095
100
AcDbArc
 50
321.9718286927
 51
0.0
  0
LINE
  5
2A2
330
1F
100
AcDbEntity
  8
0
  6
Continuous
 62
     7
370
    15
100
AcDbLine
 10
910.7653383006
 20
788.1432416323
 30
0.0
 11
910.7653383006
 21
785.5199220065
 31
0.0
  0
ARC
  5
2A3
330
1F
100
AcDbEntity
  8
0
  6
Continuous
 62
     7
370
    15
100
AcDbCircle
 10
909.4953670062
 20
788.1432255893
 30
0.0
 40
1.269999999999982
100
AcDbArc
 50
0.0
 51
38.0281713073
  0
ARC
  5
2A4
330
1F
100
AcDbEntity
  8
0
  6
Continuous
 62
     7
370
    15
100
AcDbCircle
 10
913.1306391893
 20
790.9862910397
 30
0.0
 40
3.345000000000039
100
AcDbArc
 50
52.4040387857
 51
218.0281713073
  0
ARC
  5
2A5
330
1F
100
AcDbEntity
  8
0
  6
Continuous
 62
     7
370
    15
100
AcDbCircle
 10
915.9462013725
 20
794.6429062221
 30
0.0
 40
1.270000000000102
100
AcDbArc
 50
232.4040387857
 51
270.2359156769
  0
LINE
  5
2A6
330
1F
100
AcDbEntity
  8
0
  6
Continuous
 62
     7
370
    15
100
AcDbLine
 10
959.6529487361
 20
793.5528399829
 30
0.0
 11
915.9514192332
 21
793.3728935603
 31
0.0
  0
LINE
  5
2A7
330
1F
100
AcDbEntity
  8
0
  6
Continuous
 62
     7
370
    15
100
AcDbLine
 10
915.9514192332
 20
780.2902104739
 30
0.0
 11
959.6529487361
 21
780.1102640513
 31
0.0
  0
ARC
  5
2A8
330
1F
100
AcDbEntity
  8
0
  6
Continuous
 62
     7
370
    15
100
AcDbCircle
 10
915.9462013725
 20
779.0202202234
 30
0.0
 40
1.270000000000012
100
AcDbArc
 50
89.7640843231
 51
127.5959612143
  0
ARC
  5
2A9
330
1F
100
AcDbEntity
  8
0
  6
Continuous
 62
     7
370
    15
100
AcDbCircle
 10
909.4953670062
 20
785.5199008562
 30
0.0
 40
1.270000000000095
100
AcDbArc
 50
321.9718286927
 51
0.0
  0
LINE
  5
2AA
330
1F
100
AcDbEntity
  8
0
  6
Continuous
 62
     7
370
    15
100
AcDbLine
 10
910.7653383006
 20
905.9765579585
 30
0.0
 11
910.7653383006
 21
903.3532383326
 31
0.0
  0
ARC
  5
2AB
330
1F
100
AcDbEntity
  8
0
  6
Continuous
 62
     7
370
    15
100
AcDbCircle
 10
909.4953670062
 20
905.9765589227
 30
0.0
 40
1.269999999999982
100
AcDbArc
 50
0.0
 51
38.0281713073
  0
ARC
  5
2AC
330
1F
100
AcDbEntity
  8
0
  6
Continuous
 62
     7
370
    15
100
AcDbCircle
 10
913.1306391893
 20
908.819624373
 30
0.0
 40
3.345000000000039
100
AcDbArc
 50
52.4040387857
 51
218.0281713073
  0
ARC
  5
2AD
330
1F
100
AcDbEntity
  8
0
  6
Continuous
 62
     7
370
    15
100
AcDbCircle
 10
915.9462013725
 20
912.4762395555
 30
0.0
 40
1.270000000000012
100
AcDbArc
 50
232.4040387857
 51
270.2359156769
  0
LINE
  5
2AE
330
1F
100
AcDbEntity
  8
0
  6
Continuous
 62
     7
370
    15
100
AcDbLine
 10
959.6529487361
 20
911.3862159136
 30
0.0
 11
915.9514192332
 21
911.2062694911
 31
0.0
  0
LINE
  5
2AF
330
1F
100
AcDbEntity
  8
0
  6
Continuous
 62
     7
370
    15
100
AcDbLine
 10
915.9514192332
 20
898.1235268
 30
0.0
 11
959.6529487361
 21
897.9435803774
 31
0.0
  0
ARC
  5
2B0
330
1F
100
AcDbEntity
  8
0
  6
Continuous
 62
     7
370
    15
100
AcDbCircle
 10
915.9462013725
 20
896.8535535567
 30
0.0
 40
1.270000000000102
100
AcDbArc
 50
89.7640843231
 51
127.5959612143
  0
ARC
  5
2B1
330
1F
100
AcDbEntity
  8
0
  6
Continuous
 62
     7
370
    15
100
AcDbCircle
 10
913.1306391893
 20
900.5101687392
 30
0.0
 40
3.345000000000039
100
AcDbArc
 50
141.9718286927
 51
307.5959612143
  0
ARC
  5
2B2
330
1F
100
AcDbEntity
  8
0
  6
Continuous
 62
     7
370
    15
100
AcDbCircle
 10
909.4953670062
 20
903.3532341895
 30
0.0
 40
1.270000000000095
100
AcDbArc
 50
321.9718286927
 51
0.0
  0
LINE
  5
2B3
330
1F
100
AcDbEntity
  8
0
  6
Continuous
 62
     7
370
    15
100
AcDbLine
 10
910.7653383006
 20
1023.8099338893
 30
0.0
 11
910.7653383006
 21
1021.1866142634
 31
0.0
  0
ARC
  5
2B4
330
1F
100
AcDbEntity
  8
0
  6
Continuous
 62
     7
370
    15
100
AcDbCircle
 10
909.4953670062
 20
1023.809892256
 30
0.0
 40
1.269999999999982
100
AcDbArc
 50
0.0
 51
38.0281713073
  0
ARC
  5
2B5
330
1F
100
AcDbEntity
  8
0
  6
Continuous
 62
     7
370
    15
100
AcDbCircle
 10
913.1306391893
 20
1026.6529577063
 30
0.0
 40
3.344999999999964
100
AcDbArc
 50
52.4040387857
 51
218.0281713073
  0
ARC
  5
2B6
330
1F
100
AcDbEntity
  8
0
  6
Continuous
 62
     7
370
    15
100
AcDbCircle
 10
915.9462013725
 20
1030.3095728888
 30
0.0
 40
1.270000000000373
100
AcDbArc
 50
232.4040387857
 51
270.2359156769
  0
LINE
  5
2B7
330
1F
100
AcDbEntity
  8
0
  6
Continuous
 62
     7
370
    15
100
AcDbLine
 10
959.6529487361
 20
1029.2195322398
 30
0.0
 11
915.9514192332
 21
1029.0395262126
 31
0.0
  0
LINE
  5
2B8
330
1F
100
AcDbEntity
  8
0
  6
Continuous
 62
     7
370
    15
100
AcDbLine
 10
915.9514192332
 20
439.8729147795
 30
0.0
 11
959.6529487361
 21
440.0528612021
 31
0.0
  0
ARC
  5
2B9
330
1F
100
AcDbEntity
  8
0
  6
Continuous
 62
     7
370
    15
100
AcDbCircle
 10
915.9462013725
 20
1014.68688689
 30
0.0
 40
1.270000000000012
100
AcDbArc
 50
89.7640843231
 51
127.5959612143
  0
ARC
  5
2BA
330
1F
100
AcDbEntity
  8
0
  6
Continuous
 62
     7
370
    15
100
AcDbCircle
 10
913.1306391893
 20
1018.3435020725
 30
0.0
 40
3.344999999999895
100
AcDbArc
 50
141.9718286927
 51
307.5959612143
  0
ARC
  5
2BB
330
1F
100
AcDbEntity
  8
0
  6
Continuous
 62
     7
370
    15
100
AcDbCircle
 10
909.4953670062
 20
1021.1865675228
 30
0.0
 40
1.270000000000095
100
AcDbArc
 50
321.9718286927
 51
0.0
  0
LINE
  5
2BC
330
1F
100
AcDbEntity
  8
0
  6
Continuous
 62
     7
370
    15
100
AcDbLine
 10
910.7653383006
 20
1141.6431906108
 30
0.0
 11
910.7653383006
 21
1139.0198709849
 31
0.0
  0
ARC
  5
2BD
330
1F
100
AcDbEntity
  8
0
  6
Continuous
 62
     7
370
    15
100
AcDbCircle
 10
909.4953670062
 20
1141.6432255893
 30
0.0
 40
1.270000000000024
100
AcDbArc
 50
0.0
 51
38.0281713073
  0
ARC
  5
2BE
330
1F
100
AcDbEntity
  8
0
  6
Continuous
 62
     7
370
    15
100
AcDbCircle
 10
915.9462013725
 20
1148.1429062221
 30
0.0
 40
1.270000000000088
100
AcDbArc
 50
232.4040387857
 51
270.2359156769
  0
LINE
  5
2BF
330
1F
100
AcDbEntity
  8
0
  6
Continuous
 62
     7
370
    15
100
AcDbLine
 10
959.6529487361
 20
1147.0529081706
 30
0.0
 11
915.9514192332
 21
1146.8729021433
 31
0.0
  0
LINE
  5
2C0
330
1F
100
AcDbEntity
  8
0
  6
Continuous
 62
     7
370
    15
100
AcDbLine
 10
915.9514192332
 20
1133.7901594523
 30
0.0
 11
959.6529487361
 21
1133.6102726344
 31
0.0
  0
ARC
  5
2C1
330
1F
100
AcDbEntity
  8
0
  6
Continuous
 62
     7
370
    15
100
AcDbCircle
 10
915.9462013725
 20
1132.5202202234
 30
0.0
 40
1.270000000000088
100
AcDbArc
 50
89.7640843231
 51
127.5959612143
  0
ARC
  5
2C2
330
1F
100
AcDbEntity
  8
0
  6
Continuous
 62
     7
370
    15
100
AcDbCircle
 10
959.6241170062
 20
1193.3315632228
 30
0.0
 40
7.0
100
AcDbArc
 50
0.0
 51
90.0
  0
ARC
  5
2C3
330
1F
100
AcDbEntity
  8
0
  6
Continuous
 62
     7
370
    15
100
AcDbCircle
 10
959.6241170062
 20
1126.610326584
 30
0.0
 40
7.000000000000446
100
AcDbArc
 50
0.0
 51
89.7640843231
  0
ARC
  5
2C4
330
1F
100
AcDbEntity
  8
0
  6
Continuous
 62
     7
370
    15
100
AcDbCircle
 10
959.6241170062
 20
1008.7769932506
 30
0.0
 40
6.999999999999886
100
AcDbArc
 50
0.0
 51
89.7640843231
  0
ARC
  5
2C5
330
1F
100
AcDbEntity
  8
0
  6
Continuous
 62
     7
370
    15
100
AcDbCircle
 10
959.6241170062
 20
890.9436599173
 30
0.0
 40
7.000000000000105
100
AcDbArc
 50
0.0
 51
89.7640843231
  0
ARC
  5
2C6
330
1F
100
AcDbEntity
  8
0
  6
Continuous
 62
     7
370
    15
100
AcDbCircle
 10
959.6241170062
 20
773.110326584
 30
0.0
 40
6.999999999999991
100
AcDbArc
 50
0.0
 51
89.7640843231
  0
ARC
  5
2C7
330
1F
100
AcDbEntity
  8
0
  6
Continuous
 62
     7
370
    15
100
AcDbCircle
 10
959.6241170062
 20
655.2769932506
 30
0.0
 40
7.000000000000105
100
AcDbArc
 50
0.0
 51
89.7640843231
  0
ARC
  5
2C8
330
1F
100
AcDbEntity
  8
0
  6
Continuous
 62
     7
370
    15
100
AcDbCircle
 10
638.4716170062
 20
1193.3315632228
 30
0.0
 40
7.0
100
AcDbArc
 50
90.0
 51
180.0
  0
ARC
  5
2C9
330
1F
100
AcDbEntity
  8
0
  6
Continuous
 62
     7
370
    15
100
AcDbCircle
 10
638.4716170062
 20
1126.5911641962
 30
0.0
 40
7.000000000000294
100
AcDbArc
 50
90.078638954
 51
180.0
  0
ARC
  5
2CA
330
1F
100
AcDbEntity
  8
0
  6
Continuous
 62
     7
370
    15
100
AcDbCircle
 10
638.4716170062
 20
1154.0719622493
 30
0.0
 40
7.0
100
AcDbArc
 50
180.0
 51
269.921361046
  0
ARC
  5
2CB
330
1F
100
AcDbEntity
  8
0
  6
Continuous
 62
     7
370
    15
100
AcDbCircle
 10
959.6241170062
 20
1154.0527998615
 30
0.0
 40
6.999999999999991
100
AcDbArc
 50
270.2359156769
 51
0.0
  0
ARC
  5
2CC
330
1F
100
AcDbEntity
  8
0
  6
Continuous
 62
     7
370
    15
100
AcDbCircle
 10
959.6241170062
 20
1036.2194665282
 30
0.0
 40
7.000000000000446
100
AcDbArc
 50
270.2359156769
 51
0.0
  0
ARC
  5
2CD
330
1F
100
AcDbEntity
  8
0
  6
Continuous
 62
     7
370
    15
100
AcDbCircle
 10
959.6241170062
 20
918.3861331949
 30
0.0
 40
7.000000000000105
100
AcDbArc
 50
270.2359156769
 51
0.0
  0
ARC
  5
2CE
330
1F
100
AcDbEntity
  8
0
  6
Continuous
 62
     7
370
    15
100
AcDbCircle
 10
959.6241170062
 20
800.5527998615
 30
0.0
 40
6.999999999999886
100
AcDbArc
 50
270.2359156769
 51
0.0
  0
ARC
  5
2CF
330
1F
100
AcDbEntity
  8
0
  6
Continuous
 62
     7
370
    15
100
AcDbCircle
 10
959.6241170062
 20
682.7194665282
 30
0.0
 40
7.000000000000218
100
AcDbArc
 50
270.2359156769
 51
0.0
  0
LINE
  5
2D0
330
1F
100
AcDbEntity
  8
0
  6
Continuous
 62
     7
370
    15
100
AcDbLine
 10
910.7653383006
 20
670.3098657015
 30
0.0
 11
910.7653383006
 21
667.6865460757
 31
0.0
  0
ARC
  5
2D1
330
1F
100
AcDbEntity
  8
0
  6
Continuous
 62
     7
370
    15
100
AcDbCircle
 10
909.4953670062
 20
670.309892256
 30
0.0
 40
1.270000000000095
100
AcDbArc
 50
0.0
 51
38.0281713073
  0
ARC
  5
2D2
330
1F
100
AcDbEntity
  8
0
  6
Continuous
 62
     7
370
    15
100
AcDbCircle
 10
913.1306391893
 20
673.1529577063
 30
0.0
 40
3.344999999999949
100
AcDbArc
 50
52.4040387857
 51
218.0281713073
  0
ARC
  5
2D3
330
1F
100
AcDbEntity
  8
0
  6
Continuous
 62
     7
370
    15
100
AcDbCircle
 10
915.9462013725
 20
676.8095728888
 30
0.0
 40
1.270000000000102
100
AcDbArc
 50
232.4040387857
 51
270.2359156769
  0
LINE
  5
2D4
330
1F
100
AcDbEntity
  8
0
  6
Continuous
 62
     7
370
    15
100
AcDbLine
 10
959.6529487361
 20
675.7195236567
 30
0.0
 11
915.9514192332
 21
675.5395772341
 31
0.0
  0
LINE
  5
2D5
330
1F
100
AcDbEntity
  8
0
  6
Continuous
 62
     7
370
    15
100
AcDbLine
 10
915.9514192332
 20
662.4568941477
 30
0.0
 11
959.6529487361
 21
662.2769477252
 31
0.0
  0
ARC
  5
2D6
330
1F
100
AcDbEntity
  8
0
  6
Continuous
 62
     7
370
    15
100
AcDbCircle
 10
915.9462013725
 20
661.18688689
 30
0.0
 40
1.270000000000012
100
AcDbArc
 50
89.7640843231
 51
127.5959612143
  0
ARC
  5
2D7
330
1F
100
AcDbEntity
  8
0
  6
Continuous
 62
     7
370
    15
100
AcDbCircle
 10
913.1306391893
 20
664.8435020725
 30
0.0
 40
3.345000000000039
100
AcDbArc
 50
141.9718286927
 51
307.5959612143
  0
ARC
  5
2D8
330
1F
100
AcDbEntity
  8
0
  6
Continuous
 62
     7
370
    15
100
AcDbCircle
 10
913.1306391893
 20
782.6768354058
 30
0.0
 40
3.345000000000039
100
AcDbArc
 50
141.9718286927
 51
307.5959612143
  0
ARC
  5
2D9
330
1F
100
AcDbEntity
  8
0
  6
Continuous
 62
     7
370
    15
100
AcDbCircle
 10
913.1306391893
 20
1144.4862910397
 30
0.0
 40
3.344999999999964
100
AcDbArc
 50
52.4040387857
 51
218.0281713073
  0
ARC
  5
2DA
330
1F
100
AcDbEntity
  8
0
  6
Continuous
 62
     7
370
    15
100
AcDbCircle
 10
793.848678913
 20
1132.5344260913
 30
0.0
 40
1.269999999999947
100
AcDbArc
 50
52.1158937392
 51
90.078638954
  0
ARC
  5
2DB
330
1F
100
AcDbEntity
  8
0
  6
Continuous
 62
     7
370
    15
100
AcDbCircle
 10
796.6825948231
 20
1136.1768354058
 30
0.0
 40
3.3450000000003
100
AcDbArc
 50
232.1158937392
 51
38.0281713073
  0
ARC
  5
2DC
330
1F
100
AcDbEntity
  8
0
  6
Continuous
 62
     7
370
    15
100
AcDbCircle
 10
793.848678913
 20
72.0344260913
 30
0.0
 40
1.26999999999999
100
AcDbArc
 50
52.1158937392
 51
90.078638954
  0
LINE
  5
2DD
330
1F
100
AcDbEntity
  8
0
  6
Continuous
 62
     7
370
    15
100
AcDbLine
 10
638.4619954814
 20
1133.591199148
 30
0.0
 11
793.8469532718
 21
1133.804464567
 31
0.0
  0
ARC
  5
2DE
330
1F
100
AcDbEntity
  8
0
  6
Continuous
 62
     7
370
    15
100
AcDbCircle
 10
913.1306391893
 20
1136.1768354058
 30
0.0
 40
3.34500000000031
100
AcDbArc
 50
141.9718286927
 51
307.5959612143
  0
ARC
  5
2DF
330
1F
100
AcDbEntity
  8
0
  6
Continuous
 62
     7
370
    15
100
AcDbCircle
 10
909.4953670062
 20
1139.0199008562
 30
0.0
 40
1.270000000000095
100
AcDbArc
 50
321.9718286927
 51
0.0
  0
ARC
  5
2E0
330
1F
100
AcDbEntity
  8
0
  6
Continuous
 62
     7
370
    15
100
AcDbCircle
 10
800.3178670062
 20
1139.0199008562
 30
0.0
 40
1.269999999999982
100
AcDbArc
 50
180.0
 51
218.0281713073
  0
LINE
  5
2E1
330
1F
100
AcDbEntity
  8
0
  6
Continuous
 62
     7
370
    15
100
AcDbLine
 10
915.9514192332
 20
1015.9569027308
 30
0.0
 11
959.6529487361
 21
1015.7768967036
 31
0.0
  0
ARC
  5
2E2
330
1F
100
AcDbEntity
  8
0
  6
Continuous
 62
     7
370
    15
100
AcDbCircle
 10
959.6241170062
 20
26.8315632228
 30
0.0
 40
7.000000000000114
100
AcDbArc
 50
270.0
 51
0.0
  0
ARC
  5
2E3
330
1F
100
AcDbEntity
  8
0
  6
Continuous
 62
     7
370
    15
100
AcDbCircle
 10
2345.4253803674
 20
236.2665632228
 30
0.0
 40
7.0
100
AcDbArc
 50
0.2359156769
 51
90.0
  0
ARC
  5
2E4
330
1F
100
AcDbEntity
  8
0
  6
Continuous
 62
     7
370
    15
100
AcDbCircle
 10
2351.3352740068
 20
192.588647589
 30
0.0
 40
1.269999999999531
100
AcDbArc
 50
322.4040387857
 51
0.2359156769
  0
LINE
  5
2E5
330
1F
100
AcDbEntity
  8
0
  6
Continuous
 62
     7
370
    15
100
AcDbLine
 10
2365.6880739917
 20
192.5938817147
 30
0.0
 11
2365.8678416003
 21
236.2953814152
 31
0.0
  0
ARC
  5
2E6
330
1F
100
AcDbEntity
  8
0
  6
Continuous
 62
     7
370
    15
100
AcDbCircle
 10
2372.867853645
 20
236.2665632228
 30
0.0
 40
7.0
100
AcDbArc
 50
90.0
 51
179.7640843231
  0
LINE
  5
2E7
330
1F
100
AcDbEntity
  8
0
  6
Continuous
 62
     7
370
    15
100
AcDbLine
 10
2402.1465662707
 20
243.2665618542
 30
0.0
 11
2372.8678110828
 21
243.2665618542
 31
0.0
  0
LINE
  5
2E8
330
1F
100
AcDbEntity
  8
0
  6
Continuous
 62
     7
370
    15
100
AcDbLine
 10
2409.1465357532
 20
26.8315634165
 30
0.0
 11
2409.1465357532
 21
236.2665625695
 31
0.0
  0
ARC
  5
2E9
330
1F
100
AcDbEntity
  8
0
  6
Continuous
 62
     7
370
    15
100
AcDbCircle
 10
2402.1466170062
 20
26.8315632228
 30
0.0
 40
7.0
100
AcDbArc
 50
270.0
 51
0.0
  0
ARC
  5
2EA
330
1F
100
AcDbEntity
  8
0
  6
Continuous
 62
     7
370
    15
100
AcDbCircle
 10
1861.6466170062
 20
26.8315632228
 30
0.0
 40
7.0
100
AcDbArc
 50
180.0
 51
270.0
  0
ARC
  5
2EB
330
1F
100
AcDbEntity
  8
0
  6
Continuous
 62
     7
370
    15
100
AcDbCircle
 10
1861.6466170062
 20
236.2665632228
 30
0.0
 40
7.0
100
AcDbArc
 50
90.0
 51
180.0
  0
ARC
  5
2EC
330
1F
100
AcDbEntity
  8
0
  6
Continuous
 62
     7
370
    15
100
AcDbCircle
 10
1890.9253803674
 20
236.2665632228
 30
0.0
 40
7.0
100
AcDbArc
 50
0.2359156769
 51
90.0
  0
ARC
  5
2ED
330
1F
100
AcDbEntity
  8
0
  6
Continuous
 62
     7
370
    15
100
AcDbCircle
 10
1896.8352740068
 20
192.588647589
 30
0.0
 40
1.269999999999891
100
AcDbArc
 50
322.4040387857
 51
0.2359156769
  0
ARC
  5
2EE
330
1F
100
AcDbEntity
  8
0
  6
Continuous
 62
     7
370
    15
100
AcDbCircle
 10
1905.9582793728
 20
186.1378132228
 30
0.0
 40
1.270000000000091
100
AcDbArc
 50
51.9718286927
 51
90.0
  0
ARC
  5
2EF
330
1F
100
AcDbEntity
  8
0
  6
Continuous
 62
     7
370
    15
100
AcDbCircle
 10
1912.4579600056
 20
192.588647589
 30
0.0
 40
1.270000000000071
100
AcDbArc
 50
179.7640843231
 51
217.5959612143
  0
LINE
  5
2F0
330
1F
100
AcDbEntity
  8
0
  6
Continuous
 62
     7
370
    15
100
AcDbLine
 10
1911.3678816547
 20
236.2953814152
 30
0.0
 11
1911.1879948367
 21
192.5938817147
 31
0.0
  0
ARC
  5
2F1
330
1F
100
AcDbEntity
  8
0
  6
Continuous
 62
     7
370
    15
100
AcDbCircle
 10
2402.1466170062
 20
236.2665632228
 30
0.0
 40
7.0
100
AcDbArc
 50
0.0
 51
90.0
  0
LINE
  5
2F2
330
1F
100
AcDbEntity
  8
0
  6
Continuous
 62
     7
370
    15
100
AcDbLine
 10
2402.1465662707
 20
19.8315641317
 30
0.0
 11
1861.6466406573
 21
19.8315641317
 31
0.0
  0
LINE
  5
2F3
330
1F
100
AcDbEntity
  8
0
  6
Continuous
 62
     7
370
    15
100
AcDbLine
 10
1918.3678511371
 20
243.2665618542
 30
0.0
 11
2345.425355791
 21
243.2665618542
 31
0.0
  0
LINE
  5
2F4
330
1F
100
AcDbEntity
  8
0
  6
Continuous
 62
     7
370
    15
100
AcDbLine
 10
1854.6466711749
 20
26.8315634165
 30
0.0
 11
1854.6466711749
 21
236.2665625695
 31
0.0
  0
LINE
  5
2F5
330
1F
100
AcDbEntity
  8
0
  6
Continuous
 62
     7
370
    15
100
AcDbLine
 10
1861.6466406573
 20
243.2665618542
 30
0.0
 11
1890.9253958453
 21
243.2665618542
 31
0.0
  0
ARC
  5
2F6
330
1F
100
AcDbEntity
  8
0
  6
Continuous
 62
     7
370
    15
100
AcDbCircle
 10
2354.9918891893
 20
189.7730854058
 30
0.0
 40
3.345000000000164
100
AcDbArc
 50
142.4040387857
 51
308.0281713073
  0
ARC
  5
2F7
330
1F
100
AcDbEntity
  8
0
  6
Continuous
 62
     7
370
    15
100
AcDbCircle
 10
1908.8013448231
 20
189.7730854058
 30
0.0
 40
3.344999999999984
100
AcDbArc
 50
231.9718286927
 51
37.5959612143
  0
LINE
  5
2F8
330
1F
100
AcDbEntity
  8
0
  6
Continuous
 62
     7
370
    15
100
AcDbLine
 10
2357.8350428332
 20
187.4078156832
 30
0.0
 11
2360.4583624591
 21
187.4078156832
 31
0.0
  0
ARC
  5
2F9
330
1F
100
AcDbEntity
  8
0
  6
Continuous
 62
     7
370
    15
100
AcDbCircle
 10
2360.4582793728
 20
186.1378132228
 30
0.0
 40
1.270000000000231
100
AcDbArc
 50
51.9718286927
 51
90.0
  0
ARC
  5
2FA
330
1F
100
AcDbEntity
  8
0
  6
Continuous
 62
     7
370
    15
100
AcDbCircle
 10
2363.3013448231
 20
189.7730854058
 30
0.0
 40
3.345000000000164
100
AcDbArc
 50
231.9718286927
 51
37.5959612143
  0
ARC
  5
2FB
330
1F
100
AcDbEntity
  8
0
  6
Continuous
 62
     7
370
    15
100
AcDbCircle
 10
1900.4918891893
 20
189.7730854058
 30
0.0
 40
3.345000000000164
100
AcDbArc
 50
142.4040387857
 51
308.0281713073
  0
ARC
  5
2FC
330
1F
100
AcDbEntity
  8
0
  6
Continuous
 62
     7
370
    15
100
AcDbCircle
 10
1903.3349546396
 20
186.1378132228
 30
0.0
 40
1.269999999999982
100
AcDbArc
 50
90.0
 51
128.0281713073
  0
LINE
  5
2FD
330
1F
100
AcDbEntity
  8
0
  6
Continuous
 62
     7
370
    15
100
AcDbLine
 10
2352.4253252734
 20
236.2953814152
 30
0.0
 11
2352.6053313006
 21
192.5938817147
 31
0.0
  0
ARC
  5
2FE
330
1F
100
AcDbEntity
  8
0
  6
Continuous
 62
     7
370
    15
100
AcDbCircle
 10
2366.9579600056
 20
192.588647589
 30
0.0
 40
1.269999999999531
100
AcDbArc
 50
179.7640843231
 51
217.5959612143
  0
ARC
  5
2FF
330
1F
100
AcDbEntity
  8
0
  6
Continuous
 62
     7
370
    15
100
AcDbCircle
 10
1918.367853645
 20
236.2665632228
 30
0.0
 40
7.0
100
AcDbArc
 50
90.0
 51
179.7640843231
  0
LINE
  5
300
330
1F
100
AcDbEntity
  8
0
  6
Continuous
 62
     7
370
    15
100
AcDbLine
 10
1905.9582833041
 20
187.4078156832
 30
0.0
 11
1903.3349636783
 21
187.4078156832
 31
0.0
  0
LINE
  5
301
330
1F
100
AcDbEntity
  8
0
  6
Continuous
 62
     7
370
    15
100
AcDbLine
 10
1898.1052521457
 20
192.5938817147
 30
0.0
 11
1897.9253653277
 21
236.2953814152
 31
0.0
  0
ARC
  5
302
330
1F
100
AcDbEntity
  8
0
  6
Continuous
 62
     7
370
    15
100
AcDbCircle
 10
2357.8349546396
 20
186.1378132228
 30
0.0
 40
1.270000000000231
100
AcDbArc
 50
90.0
 51
128.0281713073
  0
LINE
  5
303
330
1F
100
AcDbEntity
  8
0
  6
Continuous
 62
     7
370
    15
100
AcDbLine
 10
1861.6466406573
 20
473.4515490416
 30
0.0
 11
1890.9253958453
 21
473.4515490416
 31
0.0
  0
ARC
  5
304
330
1F
100
AcDbEntity
  8
0
  6
Continuous
 62
     7
370
    15
100
AcDbCircle
 10
1890.9253803674
 20
466.4515632228
 30
0.0
 40
7.0
100
AcDbArc
 50
0.2359156769
 51
90.0
  0
LINE
  5
305
330
1F
100
AcDbEntity
  8
0
  6
Continuous
 62
     7
370
    15
100
AcDbLine
 10
1898.1052521457
 20
422.7788689021
 30
0.0
 11
1897.9253653277
 21
466.4803984049
 31
0.0
  0
ARC
  5
306
330
1F
100
AcDbEntity
  8
0
  6
Continuous
 62
     7
370
    15
100
AcDbCircle
 10
1896.8352740068
 20
422.773647589
 30
0.0
 40
1.269999999999908
100
AcDbArc
 50
322.4040387857
 51
0.2359156769
  0
ARC
  5
307
330
1F
100
AcDbEntity
  8
0
  6
Continuous
 62
     7
370
    15
100
AcDbCircle
 10
1900.4918891893
 20
419.9580854058
 30
0.0
 40
3.345000000000129
100
AcDbArc
 50
142.4040387857
 51
308.0281713073
  0
ARC
  5
308
330
1F
100
AcDbEntity
  8
0
  6
Continuous
 62
     7
370
    15
100
AcDbCircle
 10
1903.3349546396
 20
416.3228132228
 30
0.0
 40
1.270000000000039
100
AcDbArc
 50
90.0
 51
128.0281713073
  0
LINE
  5
309
330
1F
100
AcDbEntity
  8
0
  6
Continuous
 62
     7
370
    15
100
AcDbLine
 10
1905.9582833041
 20
417.5928177718
 30
0.0
 11
1903.3349636783
 21
417.5928177718
 31
0.0
  0
ARC
  5
30A
330
1F
100
AcDbEntity
  8
0
  6
Continuous
 62
     7
370
    15
100
AcDbCircle
 10
1905.9582793728
 20
416.3228132228
 30
0.0
 40
1.270000000000113
100
AcDbArc
 50
51.9718286927
 51
90.0
  0
ARC
  5
30B
330
1F
100
AcDbEntity
  8
0
  6
Continuous
 62
     7
370
    15
100
AcDbCircle
 10
1908.8013448231
 20
419.9580854058
 30
0.0
 40
3.344999999999949
100
AcDbArc
 50
231.9718286927
 51
37.5959612143
  0
ARC
  5
30C
330
1F
100
AcDbEntity
  8
0
  6
Continuous
 62
     7
370
    15
100
AcDbCircle
 10
1912.4579600056
 20
422.773647589
 30
0.0
 40
1.270000000000088
100
AcDbArc
 50
179.7640843231
 51
217.5959612143
  0
LINE
  5
30D
330
1F
100
AcDbEntity
  8
0
  6
Continuous
 62
     7
370
    15
100
AcDbLine
 10
1911.3678816547
 20
466.4803984049
 30
0.0
 11
1911.1879948367
 21
422.7788689021
 31
0.0
  0
ARC
  5
30E
330
1F
100
AcDbEntity
  8
0
  6
Continuous
 62
     7
370
    15
100
AcDbCircle
 10
1918.367853645
 20
466.4515632228
 30
0.0
 40
7.0
100
AcDbArc
 50
90.0
 51
179.7640843231
  0
LINE
  5
30F
330
1F
100
AcDbEntity
  8
0
  6
Continuous
 62
     7
370
    15
100
AcDbLine
 10
2402.1465662707
 20
250.0165643576
 30
0.0
 11
1861.6466406573
 21
250.0165643576
 31
0.0
  0
LINE
  5
310
330
1F
100
AcDbEntity
  8
0
  6
Continuous
 62
     7
370
    15
100
AcDbLine
 10
1918.3678511371
 20
473.4515490416
 30
0.0
 11
2345.425355791
 21
473.4515490416
 31
0.0
  0
LINE
  5
311
330
1F
100
AcDbEntity
  8
0
  6
Continuous
 62
     7
370
    15
100
AcDbLine
 10
1854.6466711749
 20
257.0165636424
 30
0.0
 11
1854.6466711749
 21
466.4515497569
 31
0.0
  0
ARC
  5
312
330
1F
100
AcDbEntity
  8
0
  6
Continuous
 62
     7
370
    15
100
AcDbCircle
 10
2402.1466170062
 20
257.0165632228
 30
0.0
 40
7.0
100
AcDbArc
 50
270.0
 51
0.0
  0
ARC
  5
313
330
1F
100
AcDbEntity
  8
0
  6
Continuous
 62
     7
370
    15
100
AcDbCircle
 10
2402.1466170062
 20
466.4515632228
 30
0.0
 40
7.0
100
AcDbArc
 50
0.0
 51
90.0
  0
ARC
  5
314
330
1F
100
AcDbEntity
  8
0
  6
Continuous
 62
     7
370
    15
100
AcDbCircle
 10
2372.867853645
 20
466.4515632228
 30
0.0
 40
7.0
100
AcDbArc
 50
90.0
 51
179.7640843231
  0
LINE
  5
315
330
1F
100
AcDbEntity
  8
0
  6
Continuous
 62
     7
370
    15
100
AcDbLine
 10
2352.4253252734
 20
466.4803984049
 30
0.0
 11
2352.6053313006
 21
422.7788689021
 31
0.0
  0
ARC
  5
316
330
1F
100
AcDbEntity
  8
0
  6
Continuous
 62
     7
370
    15
100
AcDbCircle
 10
2351.3352740068
 20
422.773647589
 30
0.0
 40
1.270000000000268
100
AcDbArc
 50
322.4040387857
 51
0.2359156769
  0
ARC
  5
317
330
1F
100
AcDbEntity
  8
0
  6
Continuous
 62
     7
370
    15
100
AcDbCircle
 10
2354.9918891893
 20
419.9580854058
 30
0.0
 40
3.34500000000006
100
AcDbArc
 50
142.4040387857
 51
308.0281713073
  0
ARC
  5
318
330
1F
100
AcDbEntity
  8
0
  6
Continuous
 62
     7
370
    15
100
AcDbCircle
 10
2357.8349546396
 20
416.3228132228
 30
0.0
 40
1.270000000000253
100
AcDbArc
 50
90.0
 51
128.0281713073
  0
LINE
  5
319
330
1F
100
AcDbEntity
  8
0
  6
Continuous
 62
     7
370
    15
100
AcDbLine
 10
2357.8350428332
 20
417.5928177718
 30
0.0
 11
2360.4583624591
 21
417.5928177718
 31
0.0
  0
ARC
  5
31A
330
1F
100
AcDbEntity
  8
0
  6
Continuous
 62
     7
370
    15
100
AcDbCircle
 10
2360.4582793728
 20
416.3228132228
 30
0.0
 40
1.270000000000039
100
AcDbArc
 50
51.9718286927
 51
90.0
  0
ARC
  5
31B
330
1F
100
AcDbEntity
  8
0
  6
Continuous
 62
     7
370
    15
100
AcDbCircle
 10
2363.3013448231
 20
419.9580854058
 30
0.0
 40
3.345000000000129
100
AcDbArc
 50
231.9718286927
 51
37.5959612143
  0
ARC
  5
31C
330
1F
100
AcDbEntity
  8
0
  6
Continuous
 62
     7
370
    15
100
AcDbCircle
 10
2366.9579600056
 20
422.773647589
 30
0.0
 40
1.270000000000317
100
AcDbArc
 50
179.7640843231
 51
217.5959612143
  0
LINE
  5
31D
330
1F
100
AcDbEntity
  8
0
  6
Continuous
 62
     7
370
    15
100
AcDbLine
 10
2365.6880739917
 20
422.7788689021
 30
0.0
 11
2365.8678416003
 21
466.4803984049
 31
0.0
  0
LINE
  5
31E
330
1F
100
AcDbEntity
  8
0
  6
Continuous
 62
     7
370
    15
100
AcDbLine
 10
2409.1465357532
 20
257.0165636424
 30
0.0
 11
2409.1465357532
 21
466.4515497569
 31
0.0
  0
ARC
  5
31F
330
1F
100
AcDbEntity
  8
0
  6
Continuous
 62
     7
370
    15
100
AcDbCircle
 10
1861.6466170062
 20
257.0165632228
 30
0.0
 40
7.0
100
AcDbArc
 50
180.0
 51
270.0
  0
ARC
  5
320
330
1F
100
AcDbEntity
  8
0
  6
Continuous
 62
     7
370
    15
100
AcDbCircle
 10
1861.6466170062
 20
466.4515632228
 30
0.0
 40
7.0
100
AcDbArc
 50
90.0
 51
180.0
  0
ARC
  5
321
330
1F
100
AcDbEntity
  8
0
  6
Continuous
 62
     7
370
    15
100
AcDbCircle
 10
2345.4253803674
 20
466.4515632228
 30
0.0
 40
7.0
100
AcDbArc
 50
0.2359156769
 51
90.0
  0
LINE
  5
322
330
1F
100
AcDbEntity
  8
0
  6
Continuous
 62
     7
370
    15
100
AcDbLine
 10
2402.1465662707
 20
473.4515490416
 30
0.0
 11
2372.8678110828
 21
473.4515490416
 31
0.0
  0
ARC
  5
323
330
1F
100
AcDbEntity
  8
0
  6
Continuous
 62
     7
370
    15
100
AcDbCircle
 10
2247.6270326399
 20
896.8535535567
 30
0.0
 40
1.270000000000192
100
AcDbArc
 50
52.4040387857
 51
90.2359156769
  0
ARC
  5
324
330
1F
100
AcDbEntity
  8
0
  6
Continuous
 62
     7
370
    15
100
AcDbCircle
 10
2250.4425948231
 20
900.5101687392
 30
0.0
 40
3.345000000000157
100
AcDbArc
 50
232.4040387857
 51
38.0281713073
  0
ARC
  5
325
330
1F
100
AcDbEntity
  8
0
  6
Continuous
 62
     7
370
    15
100
AcDbCircle
 10
2254.0778670062
 20
903.3532341895
 30
0.0
 40
1.270000000000491
100
AcDbArc
 50
180.0
 51
218.0281713073
  0
LINE
  5
326
330
1F
100
AcDbEntity
  8
0
  6
Continuous
 62
     7
370
    15
100
AcDbLine
 10
2252.8078440417
 20
903.3532383326
 30
0.0
 11
2252.8078440417
 21
905.9765579585
 31
0.0
  0
ARC
  5
327
330
1F
100
AcDbEntity
  8
0
  6
Continuous
 62
     7
370
    15
100
AcDbCircle
 10
2254.0778670062
 20
905.9765589227
 30
0.0
 40
1.270000000000421
100
AcDbArc
 50
141.9718286927
 51
180.0
  0
ARC
  5
328
330
1F
100
AcDbEntity
  8
0
  6
Continuous
 62
     7
370
    15
100
AcDbCircle
 10
2250.4425948231
 20
908.819624373
 30
0.0
 40
3.345000000000157
100
AcDbArc
 50
321.9718286927
 51
127.5959612143
  0
ARC
  5
329
330
1F
100
AcDbEntity
  8
0
  6
Continuous
 62
     7
370
    15
100
AcDbCircle
 10
2247.6270326399
 20
912.4762395555
 30
0.0
 40
1.270000000000102
100
AcDbArc
 50
269.7640843231
 51
307.5959612143
  0
LINE
  5
32A
330
1F
100
AcDbEntity
  8
0
  6
Continuous
 62
     7
370
    15
100
AcDbLine
 10
2247.6217631091
 20
911.2062694911
 30
0.0
 11
2203.9203528155
 21
911.3862159136
 31
0.0
  0
ARC
  5
32B
330
1F
100
AcDbEntity
  8
0
  6
Continuous
 62
     7
370
    15
100
AcDbCircle
 10
2203.9491170062
 20
918.3861331949
 30
0.0
 40
7.000000000000455
100
AcDbArc
 50
180.0
 51
269.7640843231
  0
LINE
  5
32C
330
1F
100
AcDbEntity
  8
0
  6
Continuous
 62
     7
370
    15
100
AcDbLine
 10
2196.9492319812
 20
1008.7770464305
 30
0.0
 11
2196.9492319812
 21
918.3861257914
 31
0.0
  0
ARC
  5
32D
330
1F
100
AcDbEntity
  8
0
  6
Continuous
 62
     7
370
    15
100
AcDbCircle
 10
2203.9491170062
 20
1008.7769932506
 30
0.0
 40
7.000000000000455
100
AcDbArc
 50
90.2359156769
 51
180.0
  0
LINE
  5
32E
330
1F
100
AcDbEntity
  8
0
  6
Continuous
 62
     7
370
    15
100
AcDbLine
 10
2203.9203528155
 20
1015.7768967036
 30
0.0
 11
2247.6217631091
 21
1015.9569027308
 31
0.0
  0
ARC
  5
32F
330
1F
100
AcDbEntity
  8
0
  6
Continuous
 62
     7
370
    15
100
AcDbCircle
 10
2247.6270326399
 20
1014.68688689
 30
0.0
 40
1.270000000000012
100
AcDbArc
 50
52.4040387857
 51
90.2359156769
  0
ARC
  5
330
330
1F
100
AcDbEntity
  8
0
  6
Continuous
 62
     7
370
    15
100
AcDbCircle
 10
2250.4425948231
 20
1018.3435020725
 30
0.0
 40
3.345000000000067
100
AcDbArc
 50
232.4040387857
 51
38.0281713073
  0
ARC
  5
331
330
1F
100
AcDbEntity
  8
0
  6
Continuous
 62
     7
370
    15
100
AcDbCircle
 10
2254.0778670062
 20
1021.1865675228
 30
0.0
 40
1.270000000000281
100
AcDbArc
 50
180.0
 51
218.0281713073
  0
LINE
  5
332
330
1F
100
AcDbEntity
  8
0
  6
Continuous
 62
     7
370
    15
100
AcDbLine
 10
2252.8078440417
 20
1021.1866142634
 30
0.0
 11
2252.8078440417
 21
1023.8099338893
 31
0.0
  0
ARC
  5
333
330
1F
100
AcDbEntity
  8
0
  6
Continuous
 62
     7
370
    15
100
AcDbCircle
 10
2254.0778670062
 20
1023.809892256
 30
0.0
 40
1.270000000000491
100
AcDbArc
 50
141.9718286927
 51
180.0
  0
ARC
  5
334
330
1F
100
AcDbEntity
  8
0
  6
Continuous
 62
     7
370
    15
100
AcDbCircle
 10
2250.4425948231
 20
1026.6529577063
 30
0.0
 40
3.345000000000157
100
AcDbArc
 50
321.9718286927
 51
127.5959612143
  0
ARC
  5
335
330
1F
100
AcDbEntity
  8
0
  6
Continuous
 62
     7
370
    15
100
AcDbCircle
 10
2247.6270326399
 20
1030.3095728888
 30
0.0
 40
1.270000000000373
100
AcDbArc
 50
269.7640843231
 51
307.5959612143
  0
LINE
  5
336
330
1F
100
AcDbEntity
  8
0
  6
Continuous
 62
     7
370
    15
100
AcDbLine
 10
2247.6217631091
 20
1029.0395262126
 30
0.0
 11
2203.9203528155
 21
1029.2195322398
 31
0.0
  0
ARC
  5
337
330
1F
100
AcDbEntity
  8
0
  6
Continuous
 62
     7
370
    15
100
AcDbCircle
 10
2203.9491170062
 20
1036.2194665282
 30
0.0
 40
7.000000000000455
100
AcDbArc
 50
180.0
 51
269.7640843231
  0
LINE
  5
338
330
1F
100
AcDbEntity
  8
0
  6
Continuous
 62
     7
370
    15
100
AcDbLine
 10
2196.9492319812
 20
1126.6103031519
 30
0.0
 11
2196.9492319812
 21
1036.2195017222
 31
0.0
  0
ARC
  5
339
330
1F
100
AcDbEntity
  8
0
  6
Continuous
 62
     7
370
    15
100
AcDbCircle
 10
2203.9491170062
 20
1126.610326584
 30
0.0
 40
7.000000000000455
100
AcDbArc
 50
90.2359156769
 51
180.0
  0
LINE
  5
33A
330
1F
100
AcDbEntity
  8
0
  6
Continuous
 62
     7
370
    15
100
AcDbLine
 10
2203.9203528155
 20
1133.6102726344
 30
0.0
 11
2247.6217631091
 21
1133.7901594523
 31
0.0
  0
ARC
  5
33B
330
1F
100
AcDbEntity
  8
0
  6
Continuous
 62
     7
370
    15
100
AcDbCircle
 10
2247.6270326399
 20
1132.5202202234
 30
0.0
 40
1.270000000000373
100
AcDbArc
 50
52.4040387857
 51
90.2359156769
  0
ARC
  5
33C
330
1F
100
AcDbEntity
  8
0
  6
Continuous
 62
     7
370
    15
100
AcDbCircle
 10
2250.4425948231
 20
1136.1768354058
 30
0.0
 40
3.345000000000157
100
AcDbArc
 50
232.4040387857
 51
38.0281713073
  0
ARC
  5
33D
330
1F
100
AcDbEntity
  8
0
  6
Continuous
 62
     7
370
    15
100
AcDbCircle
 10
2254.0778670062
 20
1139.0199008562
 30
0.0
 40
1.270000000000421
100
AcDbArc
 50
180.0
 51
218.0281713073
  0
LINE
  5
33E
330
1F
100
AcDbEntity
  8
0
  6
Continuous
 62
     7
370
    15
100
AcDbLine
 10
2252.8078440417
 20
1139.0198709849
 30
0.0
 11
2252.8078440417
 21
1141.6431906108
 31
0.0
  0
ARC
  5
33F
330
1F
100
AcDbEntity
  8
0
  6
Continuous
 62
     7
370
    15
100
AcDbCircle
 10
2254.0778670062
 20
1141.6432255893
 30
0.0
 40
1.270000000000281
100
AcDbArc
 50
141.9718286927
 51
180.0
  0
ARC
  5
340
330
1F
100
AcDbEntity
  8
0
  6
Continuous
 62
     7
370
    15
100
AcDbCircle
 10
2250.4425948231
 20
1144.4862910397
 30
0.0
 40
3.345000000000157
100
AcDbArc
 50
321.9718286927
 51
127.5959612143
  0
ARC
  5
341
330
1F
100
AcDbEntity
  8
0
  6
Continuous
 62
     7
370
    15
100
AcDbCircle
 10
2247.6270326399
 20
1148.1429062221
 30
0.0
 40
1.270000000000089
100
AcDbArc
 50
269.7640843231
 51
307.5959612143
  0
LINE
  5
342
330
1F
100
AcDbEntity
  8
0
  6
Continuous
 62
     7
370
    15
100
AcDbLine
 10
2247.6217631091
 20
1146.8729021433
 30
0.0
 11
2203.9203528155
 21
1147.0529081706
 31
0.0
  0
ARC
  5
343
330
1F
100
AcDbEntity
  8
0
  6
Continuous
 62
     7
370
    15
100
AcDbCircle
 10
2203.9491170062
 20
1154.0527998615
 30
0.0
 40
7.000000000000455
100
AcDbArc
 50
180.0
 51
269.7640843231
  0
LINE
  5
344
330
1F
100
AcDbEntity
  8
0
  6
Continuous
 62
     7
370
    15
100
AcDbLine
 10
2196.9492319812
 20
1193.3315040949
 30
0.0
 11
2196.9492319812
 21
1154.0527584437
 31
0.0
  0
LINE
  5
345
330
1F
100
AcDbEntity
  8
0
  6
Continuous
 62
     7
370
    15
100
AcDbLine
 10
2413.3841875781
 20
1200.3315927867
 30
0.0
 11
2203.9492014636
 21
1200.3315927867
 31
0.0
  0
ARC
  5
346
330
1F
100
AcDbEntity
  8
0
  6
Continuous
 62
     7
370
    15
100
AcDbCircle
 10
2413.3841170062
 20
1193.3315632228
 30
0.0
 40
7.0
100
AcDbArc
 50
0.0
 51
90.0
  0
LINE
  5
347
330
1F
100
AcDbEntity
  8
0
  6
Continuous
 62
     7
370
    15
100
AcDbLine
 10
2420.3841570605
 20
1154.0527584437
 30
0.0
 11
2420.3841570605
 21
1193.3315040949
 31
0.0
  0
ARC
  5
348
330
1F
100
AcDbEntity
  8
0
  6
Continuous
 62
     7
370
    15
100
AcDbCircle
 10
2413.3841170062
 20
1154.0527998615
 30
0.0
 40
6.999999999999991
100
AcDbArc
 50
270.2359156769
 51
0.0
  0
LINE
  5
349
330
1F
100
AcDbEntity
  8
0
  6
Continuous
 62
     7
370
    15
100
AcDbLine
 10
2369.711387514
 20
1146.8729021433
 30
0.0
 11
2413.4130362262
 21
1147.0529081706
 31
0.0
  0
ARC
  5
34A
330
1F
100
AcDbEntity
  8
0
  6
Continuous
 62
     7
370
    15
100
AcDbCircle
 10
2369.7062013725
 20
1148.1429062221
 30
0.0
 40
1.270000000000089
100
AcDbArc
 50
232.4040387857
 51
270.2359156769
  0
ARC
  5
34B
330
1F
100
AcDbEntity
  8
0
  6
Continuous
 62
     7
370
    15
100
AcDbCircle
 10
2366.8906391893
 20
1144.4862910397
 30
0.0
 40
3.345000000000157
100
AcDbArc
 50
52.4040387857
 51
218.0281713073
  0
ARC
  5
34C
330
1F
100
AcDbEntity
  8
0
  6
Continuous
 62
     7
370
    15
100
AcDbCircle
 10
2363.2553670062
 20
1141.6432255893
 30
0.0
 40
1.270000000000891
100
AcDbArc
 50
0.0
 51
38.0281713073
  0
LINE
  5
34D
330
1F
100
AcDbEntity
  8
0
  6
Continuous
 62
     7
370
    15
100
AcDbLine
 10
2364.5253065814
 20
1139.0198709849
 30
0.0
 11
2364.5253065814
 21
1141.6431906108
 31
0.0
  0
ARC
  5
34E
330
1F
100
AcDbEntity
  8
0
  6
Continuous
 62
     7
370
    15
100
AcDbCircle
 10
2363.2553670062
 20
1139.0199008562
 30
0.0
 40
1.270000000000891
100
AcDbArc
 50
321.9718286927
 51
0.0
  0
ARC
  5
34F
330
1F
100
AcDbEntity
  8
0
  6
Continuous
 62
     7
370
    15
100
AcDbCircle
 10
2366.8906391893
 20
1136.1768354058
 30
0.0
 40
3.345000000000157
100
AcDbArc
 50
141.9718286927
 51
307.5959612143
  0
ARC
  5
350
330
1F
100
AcDbEntity
  8
0
  6
Continuous
 62
     7
370
    15
100
AcDbCircle
 10
2369.7062013725
 20
1132.5202202234
 30
0.0
 40
1.270000000000373
100
AcDbArc
 50
89.7640843231
 51
127.5959612143
  0
LINE
  5
351
330
1F
100
AcDbEntity
  8
0
  6
Continuous
 62
     7
370
    15
100
AcDbLine
 10
2413.4130362262
 20
1133.6102726344
 30
0.0
 11
2369.711387514
 21
1133.7901594523
 31
0.0
  0
ARC
  5
352
330
1F
100
AcDbEntity
  8
0
  6
Continuous
 62
     7
370
    15
100
AcDbCircle
 10
2413.3841170062
 20
1126.610326584
 30
0.0
 40
7.000000000000446
100
AcDbArc
 50
0.0
 51
89.7640843231
  0
LINE
  5
353
330
1F
100
AcDbEntity
  8
0
  6
Continuous
 62
     7
370
    15
100
AcDbLine
 10
2420.3841570605
 20
564.8861172083
 30
0.0
 11
2420.3841570605
 21
1126.6103031519
 31
0.0
  0
ARC
  5
354
330
1F
100
AcDbEntity
  8
0
  6
Continuous
 62
     7
370
    15
100
AcDbCircle
 10
2413.3841170062
 20
564.8861331949
 30
0.0
 40
6.999999999999877
100
AcDbArc
 50
270.2359156769
 51
0.0
  0
LINE
  5
355
330
1F
100
AcDbEntity
  8
0
  6
Continuous
 62
     7
370
    15
100
AcDbLine
 10
2413.4130362262
 20
557.8862073306
 30
0.0
 11
2369.711387514
 21
557.706260908
 31
0.0
  0
ARC
  5
356
330
1F
100
AcDbEntity
  8
0
  6
Continuous
 62
     7
370
    15
100
AcDbCircle
 10
2369.7062013725
 20
558.9762395555
 30
0.0
 40
1.270000000000102
100
AcDbArc
 50
232.4040387857
 51
270.2359156769
  0
ARC
  5
357
330
1F
100
AcDbEntity
  8
0
  6
Continuous
 62
     7
370
    15
100
AcDbCircle
 10
2366.8906391893
 20
555.319624373
 30
0.0
 40
3.345000000000157
100
AcDbArc
 50
52.4040387857
 51
218.0281713073
  0
ARC
  5
358
330
1F
100
AcDbEntity
  8
0
  6
Continuous
 62
     7
370
    15
100
AcDbCircle
 10
2363.2553670062
 20
552.4765589227
 30
0.0
 40
1.269999999999982
100
AcDbArc
 50
0.0
 51
38.0281713073
  0
LINE
  5
359
330
1F
100
AcDbEntity
  8
0
  6
Continuous
 62
     7
370
    15
100
AcDbLine
 10
2364.5253065814
 20
552.4765493754
 30
0.0
 11
2364.5253065814
 21
549.8532297495
 31
0.0
  0
ARC
  5
35A
330
1F
100
AcDbEntity
  8
0
  6
Continuous
 62
     7
370
    15
100
AcDbCircle
 10
2363.2553670062
 20
549.8532341895
 30
0.0
 40
1.269999999999982
100
AcDbArc
 50
321.9718286927
 51
0.0
  0
ARC
  5
35B
330
1F
100
AcDbEntity
  8
0
  6
Continuous
 62
     7
370
    15
100
AcDbCircle
 10
2366.8906391893
 20
547.0101687392
 30
0.0
 40
3.345000000000248
100
AcDbArc
 50
141.9718286927
 51
307.5959612143
  0
ARC
  5
35C
330
1F
100
AcDbEntity
  8
0
  6
Continuous
 62
     7
370
    15
100
AcDbCircle
 10
2369.7062013725
 20
543.3535535567
 30
0.0
 40
1.270000000000102
100
AcDbArc
 50
89.7640843231
 51
127.5959612143
  0
LINE
  5
35D
330
1F
100
AcDbEntity
  8
0
  6
Continuous
 62
     7
370
    15
100
AcDbLine
 10
2369.711387514
 20
544.623518217
 30
0.0
 11
2413.4130362262
 21
544.4435717944
 31
0.0
  0
ARC
  5
35E
330
1F
100
AcDbEntity
  8
0
  6
Continuous
 62
     7
370
    15
100
AcDbCircle
 10
2413.3841170062
 20
537.4436599173
 30
0.0
 40
6.999999999999991
100
AcDbArc
 50
0.0
 51
89.7640843231
  0
LINE
  5
35F
330
1F
100
AcDbEntity
  8
0
  6
Continuous
 62
     7
370
    15
100
AcDbLine
 10
2420.3841570605
 20
537.4436619166
 30
0.0
 11
2420.3841570605
 21
498.164886463
 31
0.0
  0
ARC
  5
360
330
1F
100
AcDbEntity
  8
0
  6
Continuous
 62
     7
370
    15
100
AcDbCircle
 10
2413.3841170062
 20
498.1648965561
 30
0.0
 40
7.0
100
AcDbArc
 50
270.0
 51
0.0
  0
LINE
  5
361
330
1F
100
AcDbEntity
  8
0
  6
Continuous
 62
     7
370
    15
100
AcDbLine
 10
2413.3841875781
 20
491.1648871783
 30
0.0
 11
2203.9492014636
 21
491.1648871783
 31
0.0
  0
ARC
  5
362
330
1F
100
AcDbEntity
  8
0
  6
Continuous
 62
     7
370
    15
100
AcDbCircle
 10
2203.9491170062
 20
498.1648965561
 30
0.0
 40
7.000000000000455
100
AcDbArc
 50
180.0
 51
270.0
  0
LINE
  5
363
330
1F
100
AcDbEntity
  8
0
  6
Continuous
 62
     7
370
    15
100
AcDbLine
 10
2196.9492319812
 20
498.164886463
 30
0.0
 11
2196.9492319812
 21
537.4436619166
 31
0.0
  0
ARC
  5
364
330
1F
100
AcDbEntity
  8
0
  6
Continuous
 62
     7
370
    15
100
AcDbCircle
 10
2203.9491170062
 20
537.4436599173
 30
0.0
 40
7.000000000000455
100
AcDbArc
 50
90.2359156769
 51
180.0
  0
LINE
  5
365
330
1F
100
AcDbEntity
  8
0
  6
Continuous
 62
     7
370
    15
100
AcDbLine
 10
2247.6217631091
 20
544.623518217
 30
0.0
 11
2203.9203528155
 21
544.4435717944
 31
0.0
  0
ARC
  5
366
330
1F
100
AcDbEntity
  8
0
  6
Continuous
 62
     7
370
    15
100
AcDbCircle
 10
2247.6270326399
 20
543.3535535567
 30
0.0
 40
1.270000000000102
100
AcDbArc
 50
52.4040387857
 51
90.2359156769
  0
ARC
  5
367
330
1F
100
AcDbEntity
  8
0
  6
Continuous
 62
     7
370
    15
100
AcDbCircle
 10
2250.4425948231
 20
547.0101687392
 30
0.0
 40
3.345000000000248
100
AcDbArc
 50
232.4040387857
 51
38.0281713073
  0
ARC
  5
368
330
1F
100
AcDbEntity
  8
0
  6
Continuous
 62
     7
370
    15
100
AcDbCircle
 10
2254.0778670062
 20
549.8532341895
 30
0.0
 40
1.270000000000421
100
AcDbArc
 50
180.0
 51
218.0281713073
  0
LINE
  5
369
330
1F
100
AcDbEntity
  8
0
  6
Continuous
 62
     7
370
    15
100
AcDbLine
 10
2252.8078440417
 20
552.4765493754
 30
0.0
 11
2252.8078440417
 21
549.8532297495
 31
0.0
  0
ARC
  5
36A
330
1F
100
AcDbEntity
  8
0
  6
Continuous
 62
     7
370
    15
100
AcDbCircle
 10
2254.0778670062
 20
552.4765589227
 30
0.0
 40
1.270000000000421
100
AcDbArc
 50
141.9718286927
 51
180.0
  0
ARC
  5
36B
330
1F
100
AcDbEntity
  8
0
  6
Continuous
 62
     7
370
    15
100
AcDbCircle
 10
2250.4425948231
 20
555.319624373
 30
0.0
 40
3.345000000000157
100
AcDbArc
 50
321.9718286927
 51
127.5959612143
  0
ARC
  5
36C
330
1F
100
AcDbEntity
  8
0
  6
Continuous
 62
     7
370
    15
100
AcDbCircle
 10
2247.6270326399
 20
558.9762395555
 30
0.0
 40
1.270000000000102
100
AcDbArc
 50
269.7640843231
 51
307.5959612143
  0
LINE
  5
36D
330
1F
100
AcDbEntity
  8
0
  6
Continuous
 62
     7
370
    15
100
AcDbLine
 10
2203.9203528155
 20
557.8862073306
 30
0.0
 11
2247.6217631091
 21
557.706260908
 31
0.0
  0
ARC
  5
36E
330
1F
100
AcDbEntity
  8
0
  6
Continuous
 62
     7
370
    15
100
AcDbCircle
 10
2203.9491170062
 20
564.8861331949
 30
0.0
 40
7.000000000000455
100
AcDbArc
 50
180.0
 51
269.7640843231
  0
LINE
  5
36F
330
1F
100
AcDbEntity
  8
0
  6
Continuous
 62
     7
370
    15
100
AcDbLine
 10
2196.9492319812
 20
564.8861172083
 30
0.0
 11
2196.9492319812
 21
655.2769782427
 31
0.0
  0
ARC
  5
370
330
1F
100
AcDbEntity
  8
0
  6
Continuous
 62
     7
370
    15
100
AcDbCircle
 10
2203.9491170062
 20
655.2769932506
 30
0.0
 40
7.000000000000455
100
AcDbArc
 50
90.2359156769
 51
180.0
  0
LINE
  5
371
330
1F
100
AcDbEntity
  8
0
  6
Continuous
 62
     7
370
    15
100
AcDbLine
 10
2247.6217631091
 20
662.4568941477
 30
0.0
 11
2203.9203528155
 21
662.2769477252
 31
0.0
  0
ARC
  5
372
330
1F
100
AcDbEntity
  8
0
  6
Continuous
 62
     7
370
    15
100
AcDbCircle
 10
2247.6270326399
 20
661.18688689
 30
0.0
 40
1.270000000000102
100
AcDbArc
 50
52.4040387857
 51
90.2359156769
  0
ARC
  5
373
330
1F
100
AcDbEntity
  8
0
  6
Continuous
 62
     7
370
    15
100
AcDbCircle
 10
2250.4425948231
 20
664.8435020725
 30
0.0
 40
3.345000000000248
100
AcDbArc
 50
232.4040387857
 51
38.0281713073
  0
ARC
  5
374
330
1F
100
AcDbEntity
  8
0
  6
Continuous
 62
     7
370
    15
100
AcDbCircle
 10
2254.0778670062
 20
667.6865675228
 30
0.0
 40
1.270000000000421
100
AcDbArc
 50
180.0
 51
218.0281713073
  0
LINE
  5
375
330
1F
100
AcDbEntity
  8
0
  6
Continuous
 62
     7
370
    15
100
AcDbLine
 10
2252.8078440417
 20
670.3098657015
 30
0.0
 11
2252.8078440417
 21
667.6865460757
 31
0.0
  0
ARC
  5
376
330
1F
100
AcDbEntity
  8
0
  6
Continuous
 62
     7
370
    15
100
AcDbCircle
 10
2254.0778670062
 20
670.309892256
 30
0.0
 40
1.270000000000421
100
AcDbArc
 50
141.9718286927
 51
180.0
  0
ARC
  5
377
330
1F
100
AcDbEntity
  8
0
  6
Continuous
 62
     7
370
    15
100
AcDbCircle
 10
2250.4425948231
 20
673.1529577063
 30
0.0
 40
3.345000000000157
100
AcDbArc
 50
321.9718286927
 51
127.5959612143
  0
ARC
  5
378
330
1F
100
AcDbEntity
  8
0
  6
Continuous
 62
     7
370
    15
100
AcDbCircle
 10
2247.6270326399
 20
676.8095728888
 30
0.0
 40
1.270000000000192
100
AcDbArc
 50
269.7640843231
 51
307.5959612143
  0
LINE
  5
379
330
1F
100
AcDbEntity
  8
0
  6
Continuous
 62
     7
370
    15
100
AcDbLine
 10
2203.9203528155
 20
675.7195236567
 30
0.0
 11
2247.6217631091
 21
675.5395772341
 31
0.0
  0
ARC
  5
37A
330
1F
100
AcDbEntity
  8
0
  6
Continuous
 62
     7
370
    15
100
AcDbCircle
 10
2203.9491170062
 20
682.7194665282
 30
0.0
 40
7.000000000000455
100
AcDbArc
 50
180.0
 51
269.7640843231
  0
LINE
  5
37B
330
1F
100
AcDbEntity
  8
0
  6
Continuous
 62
     7
370
    15
100
AcDbLine
 10
2196.9492319812
 20
682.7194931391
 30
0.0
 11
2196.9492319812
 21
773.1103541735
 31
0.0
  0
ARC
  5
37C
330
1F
100
AcDbEntity
  8
0
  6
Continuous
 62
     7
370
    15
100
AcDbCircle
 10
2203.9491170062
 20
773.110326584
 30
0.0
 40
7.000000000000455
100
AcDbArc
 50
90.2359156769
 51
180.0
  0
LINE
  5
37D
330
1F
100
AcDbEntity
  8
0
  6
Continuous
 62
     7
370
    15
100
AcDbLine
 10
2247.6217631091
 20
780.2902104739
 30
0.0
 11
2203.9203528155
 21
780.1102640513
 31
0.0
  0
ARC
  5
37E
330
1F
100
AcDbEntity
  8
0
  6
Continuous
 62
     7
370
    15
100
AcDbCircle
 10
2247.6270326399
 20
779.0202202234
 30
0.0
 40
1.270000000000102
100
AcDbArc
 50
52.4040387857
 51
90.2359156769
  0
ARC
  5
37F
330
1F
100
AcDbEntity
  8
0
  6
Continuous
 62
     7
370
    15
100
AcDbCircle
 10
2250.4425948231
 20
782.6768354058
 30
0.0
 40
3.345000000000248
100
AcDbArc
 50
232.4040387857
 51
38.0281713073
  0
ARC
  5
380
330
1F
100
AcDbEntity
  8
0
  6
Continuous
 62
     7
370
    15
100
AcDbCircle
 10
2254.0778670062
 20
785.5199008562
 30
0.0
 40
1.270000000000491
100
AcDbArc
 50
180.0
 51
218.0281713073
  0
LINE
  5
381
330
1F
100
AcDbEntity
  8
0
  6
Continuous
 62
     7
370
    15
100
AcDbLine
 10
2252.8078440417
 20
788.1432416323
 30
0.0
 11
2252.8078440417
 21
785.5199220065
 31
0.0
  0
ARC
  5
382
330
1F
100
AcDbEntity
  8
0
  6
Continuous
 62
     7
370
    15
100
AcDbCircle
 10
2254.0778670062
 20
788.1432255893
 30
0.0
 40
1.270000000000421
100
AcDbArc
 50
141.9718286927
 51
180.0
  0
ARC
  5
383
330
1F
100
AcDbEntity
  8
0
  6
Continuous
 62
     7
370
    15
100
AcDbCircle
 10
2250.4425948231
 20
790.9862910397
 30
0.0
 40
3.345000000000248
100
AcDbArc
 50
321.9718286927
 51
127.5959612143
  0
ARC
  5
384
330
1F
100
AcDbEntity
  8
0
  6
Continuous
 62
     7
370
    15
100
AcDbCircle
 10
2247.6270326399
 20
794.6429062221
 30
0.0
 40
1.270000000000012
100
AcDbArc
 50
269.7640843231
 51
307.5959612143
  0
LINE
  5
385
330
1F
100
AcDbEntity
  8
0
  6
Continuous
 62
     7
370
    15
100
AcDbLine
 10
2203.9203528155
 20
793.5528399829
 30
0.0
 11
2247.6217631091
 21
793.3728935603
 31
0.0
  0
ARC
  5
386
330
1F
100
AcDbEntity
  8
0
  6
Continuous
 62
     7
370
    15
100
AcDbCircle
 10
2203.9491170062
 20
800.5527998615
 30
0.0
 40
7.000000000000455
100
AcDbArc
 50
180.0
 51
269.7640843231
  0
LINE
  5
387
330
1F
100
AcDbEntity
  8
0
  6
Continuous
 62
     7
370
    15
100
AcDbLine
 10
2196.9492319812
 20
890.9436704997
 30
0.0
 11
2196.9492319812
 21
800.5528094653
 31
0.0
  0
ARC
  5
388
330
1F
100
AcDbEntity
  8
0
  6
Continuous
 62
     7
370
    15
100
AcDbCircle
 10
2203.9491170062
 20
890.9436599173
 30
0.0
 40
7.000000000000455
100
AcDbArc
 50
90.2359156769
 51
180.0
  0
LINE
  5
389
330
1F
100
AcDbEntity
  8
0
  6
Continuous
 62
     7
370
    15
100
AcDbLine
 10
2203.9203528155
 20
897.9435803774
 30
0.0
 11
2247.6217631091
 21
898.1235268
 31
0.0
  0
ARC
  5
38A
330
1F
100
AcDbEntity
  8
0
  6
Continuous
 62
     7
370
    15
100
AcDbCircle
 10
2203.9491170062
 20
1193.3315632228
 30
0.0
 40
7.000000000000455
100
AcDbArc
 50
90.0
 51
180.0
  0
ARC
  5
38B
330
1F
100
AcDbEntity
  8
0
  6
Continuous
 62
     7
370
    15
100
AcDbCircle
 10
2027.4037013725
 20
794.6429062221
 30
0.0
 40
1.270000000000012
100
AcDbArc
 50
232.4040387857
 51
270.2359156769
  0
ARC
  5
38C
330
1F
100
AcDbEntity
  8
0
  6
Continuous
 62
     7
370
    15
100
AcDbCircle
 10
2024.5881391893
 20
790.9862910397
 30
0.0
 40
3.345000000000109
100
AcDbArc
 50
52.4040387857
 51
218.0281713073
  0
ARC
  5
38D
330
1F
100
AcDbEntity
  8
0
  6
Continuous
 62
     7
370
    15
100
AcDbCircle
 10
2020.9528670062
 20
788.1432255893
 30
0.0
 40
1.270000000000242
100
AcDbArc
 50
0.0
 51
38.0281713073
  0
LINE
  5
38E
330
1F
100
AcDbEntity
  8
0
  6
Continuous
 62
     7
370
    15
100
AcDbLine
 10
2022.2229841937
 20
788.1432416323
 30
0.0
 11
2022.2229841937
 21
785.5199220065
 31
0.0
  0
ARC
  5
38F
330
1F
100
AcDbEntity
  8
0
  6
Continuous
 62
     7
370
    15
100
AcDbCircle
 10
2020.9528670062
 20
785.5199008562
 30
0.0
 40
1.270000000000312
100
AcDbArc
 50
321.9718286927
 51
0.0
  0
ARC
  5
390
330
1F
100
AcDbEntity
  8
0
  6
Continuous
 62
     7
370
    15
100
AcDbCircle
 10
2024.5881391893
 20
782.6768354058
 30
0.0
 40
3.345000000000109
100
AcDbArc
 50
141.9718286927
 51
307.5959612143
  0
ARC
  5
391
330
1F
100
AcDbEntity
  8
0
  6
Continuous
 62
     7
370
    15
100
AcDbCircle
 10
2027.4037013725
 20
779.0202202234
 30
0.0
 40
1.270000000000102
100
AcDbArc
 50
89.7640843231
 51
127.5959612143
  0
LINE
  5
392
330
1F
100
AcDbEntity
  8
0
  6
Continuous
 62
     7
370
    15
100
AcDbLine
 10
2027.4088267078
 20
780.2902104739
 30
0.0
 11
2071.1104754199
 21
780.1102640513
 31
0.0
  0
ARC
  5
393
330
1F
100
AcDbEntity
  8
0
  6
Continuous
 62
     7
370
    15
100
AcDbCircle
 10
2071.0816170062
 20
773.110326584
 30
0.0
 40
7.000000000000455
100
AcDbArc
 50
0.0
 51
89.7640843231
  0
ARC
  5
394
330
1F
100
AcDbEntity
  8
0
  6
Continuous
 62
     7
370
    15
100
AcDbCircle
 10
2071.0816170062
 20
682.7194665282
 30
0.0
 40
7.000000000000455
100
AcDbArc
 50
270.2359156769
 51
0.0
  0
LINE
  5
395
330
1F
100
AcDbEntity
  8
0
  6
Continuous
 62
     7
370
    15
100
AcDbLine
 10
2071.1104754199
 20
675.7195236567
 30
0.0
 11
2027.4088267078
 21
675.5395772341
 31
0.0
  0
ARC
  5
396
330
1F
100
AcDbEntity
  8
0
  6
Continuous
 62
     7
370
    15
100
AcDbCircle
 10
2027.4037013725
 20
676.8095728888
 30
0.0
 40
1.270000000000192
100
AcDbArc
 50
232.4040387857
 51
270.2359156769
  0
ARC
  5
397
330
1F
100
AcDbEntity
  8
0
  6
Continuous
 62
     7
370
    15
100
AcDbCircle
 10
2024.5881391893
 20
673.1529577063
 30
0.0
 40
3.345000000000019
100
AcDbArc
 50
52.4040387857
 51
218.0281713073
  0
ARC
  5
398
330
1F
100
AcDbEntity
  8
0
  6
Continuous
 62
     7
370
    15
100
AcDbCircle
 10
2020.9528670062
 20
670.309892256
 30
0.0
 40
1.270000000000242
100
AcDbArc
 50
0.0
 51
38.0281713073
  0
LINE
  5
399
330
1F
100
AcDbEntity
  8
0
  6
Continuous
 62
     7
370
    15
100
AcDbLine
 10
2022.2229841937
 20
670.3098657015
 30
0.0
 11
2022.2229841937
 21
667.6865460757
 31
0.0
  0
ARC
  5
39A
330
1F
100
AcDbEntity
  8
0
  6
Continuous
 62
     7
370
    15
100
AcDbCircle
 10
2020.9528670062
 20
667.6865675228
 30
0.0
 40
1.270000000000242
100
AcDbArc
 50
321.9718286927
 51
0.0
  0
ARC
  5
39B
330
1F
100
AcDbEntity
  8
0
  6
Continuous
 62
     7
370
    15
100
AcDbCircle
 10
2024.5881391893
 20
664.8435020725
 30
0.0
 40
3.345000000000109
100
AcDbArc
 50
141.9718286927
 51
307.5959612143
  0
ARC
  5
39C
330
1F
100
AcDbEntity
  8
0
  6
Continuous
 62
     7
370
    15
100
AcDbCircle
 10
2027.4037013725
 20
661.18688689
 30
0.0
 40
1.270000000000102
100
AcDbArc
 50
89.7640843231
 51
127.5959612143
  0
LINE
  5
39D
330
1F
100
AcDbEntity
  8
0
  6
Continuous
 62
     7
370
    15
100
AcDbLine
 10
2027.4088267078
 20
662.4568941477
 30
0.0
 11
2071.1104754199
 21
662.2769477252
 31
0.0
  0
ARC
  5
39E
330
1F
100
AcDbEntity
  8
0
  6
Continuous
 62
     7
370
    15
100
AcDbCircle
 10
2071.0816170062
 20
655.2769932506
 30
0.0
 40
7.000000000000455
100
AcDbArc
 50
0.0
 51
89.7640843231
  0
ARC
  5
39F
330
1F
100
AcDbEntity
  8
0
  6
Continuous
 62
     7
370
    15
100
AcDbCircle
 10
2071.0816170062
 20
564.8861331949
 30
0.0
 40
7.000000000000455
100
AcDbArc
 50
270.2359156769
 51
0.0
  0
LINE
  5
3A0
330
1F
100
AcDbEntity
  8
0
  6
Continuous
 62
     7
370
    15
100
AcDbLine
 10
2071.1104754199
 20
557.8862073306
 30
0.0
 11
2027.4088267078
 21
557.706260908
 31
0.0
  0
ARC
  5
3A1
330
1F
100
AcDbEntity
  8
0
  6
Continuous
 62
     7
370
    15
100
AcDbCircle
 10
2027.4037013725
 20
558.9762395555
 30
0.0
 40
1.270000000000102
100
AcDbArc
 50
232.4040387857
 51
270.2359156769
  0
ARC
  5
3A2
330
1F
100
AcDbEntity
  8
0
  6
Continuous
 62
     7
370
    15
100
AcDbCircle
 10
2024.5881391893
 20
555.319624373
 30
0.0
 40
3.345000000000019
100
AcDbArc
 50
52.4040387857
 51
218.0281713073
  0
ARC
  5
3A3
330
1F
100
AcDbEntity
  8
0
  6
Continuous
 62
     7
370
    15
100
AcDbCircle
 10
2020.9528670062
 20
552.4765589227
 30
0.0
 40
1.270000000000242
100
AcDbArc
 50
0.0
 51
38.0281713073
  0
LINE
  5
3A4
330
1F
100
AcDbEntity
  8
0
  6
Continuous
 62
     7
370
    15
100
AcDbLine
 10
2022.2229841937
 20
552.4765493754
 30
0.0
 11
2022.2229841937
 21
549.8532297495
 31
0.0
  0
ARC
  5
3A5
330
1F
100
AcDbEntity
  8
0
  6
Continuous
 62
     7
370
    15
100
AcDbCircle
 10
2020.9528670062
 20
549.8532341895
 30
0.0
 40
1.270000000000242
100
AcDbArc
 50
321.9718286927
 51
0.0
  0
ARC
  5
3A6
330
1F
100
AcDbEntity
  8
0
  6
Continuous
 62
     7
370
    15
100
AcDbCircle
 10
2024.5881391893
 20
547.0101687392
 30
0.0
 40
3.345000000000109
100
AcDbArc
 50
141.9718286927
 51
307.5959612143
  0
ARC
  5
3A7
330
1F
100
AcDbEntity
  8
0
  6
Continuous
 62
     7
370
    15
100
AcDbCircle
 10
2027.4037013725
 20
543.3535535567
 30
0.0
 40
1.270000000000102
100
AcDbArc
 50
89.7640843231
 51
127.5959612143
  0
LINE
  5
3A8
330
1F
100
AcDbEntity
  8
0
  6
Continuous
 62
     7
370
    15
100
AcDbLine
 10
2027.4088267078
 20
544.623518217
 30
0.0
 11
2071.1104754199
 21
544.4435717944
 31
0.0
  0
ARC
  5
3A9
330
1F
100
AcDbEntity
  8
0
  6
Continuous
 62
     7
370
    15
100
AcDbCircle
 10
2071.0816170062
 20
537.4436599173
 30
0.0
 40
7.000000000000455
100
AcDbArc
 50
0.0
 51
89.7640843231
  0
LINE
  5
3AA
330
1F
100
AcDbEntity
  8
0
  6
Continuous
 62
     7
370
    15
100
AcDbLine
 10
2078.0815962543
 20
498.164886463
 30
0.0
 11
2078.0815962543
 21
537.4436619166
 31
0.0
  0
ARC
  5
3AB
330
1F
100
AcDbEntity
  8
0
  6
Continuous
 62
     7
370
    15
100
AcDbCircle
 10
2071.0816170062
 20
498.1648965561
 30
0.0
 40
7.000000000000455
100
AcDbArc
 50
270.0
 51
0.0
  0
LINE
  5
3AC
330
1F
100
AcDbEntity
  8
0
  6
Continuous
 62
     7
370
    15
100
AcDbLine
 10
1861.6466406573
 20
491.1648871783
 30
0.0
 11
2071.0816267718
 21
491.1648871783
 31
0.0
  0
ARC
  5
3AD
330
1F
100
AcDbEntity
  8
0
  6
Continuous
 62
     7
370
    15
100
AcDbCircle
 10
1861.6466170062
 20
498.1648965561
 30
0.0
 40
7.000000000000227
100
AcDbArc
 50
180.0
 51
270.0
  0
ARC
  5
3AE
330
1F
100
AcDbEntity
  8
0
  6
Continuous
 62
     7
370
    15
100
AcDbCircle
 10
1861.6466170062
 20
537.4436599173
 30
0.0
 40
7.000000000000227
100
AcDbArc
 50
90.2359156769
 51
180.0
  0
LINE
  5
3AF
330
1F
100
AcDbEntity
  8
0
  6
Continuous
 62
     7
370
    15
100
AcDbLine
 10
1905.3193215121
 20
544.623518217
 30
0.0
 11
1861.6177920093
 21
544.4435717944
 31
0.0
  0
ARC
  5
3B0
330
1F
100
AcDbEntity
  8
0
  6
Continuous
 62
     7
370
    15
100
AcDbCircle
 10
1905.3245326399
 20
543.3535535567
 30
0.0
 40
1.27000000000009
100
AcDbArc
 50
52.4040387857
 51
90.2359156769
  0
ARC
  5
3B1
330
1F
100
AcDbEntity
  8
0
  6
Continuous
 62
     7
370
    15
100
AcDbCircle
 10
1908.1400948231
 20
547.0101687392
 30
0.0
 40
3.345000000000248
100
AcDbArc
 50
232.4040387857
 51
38.0281713073
  0
ARC
  5
3B2
330
1F
100
AcDbEntity
  8
0
  6
Continuous
 62
     7
370
    15
100
AcDbCircle
 10
1911.7753670062
 20
549.8532341895
 30
0.0
 40
1.269999999999982
100
AcDbArc
 50
180.0
 51
218.0281713073
  0
LINE
  5
3B3
330
1F
100
AcDbEntity
  8
0
  6
Continuous
 62
     7
370
    15
100
AcDbLine
 10
1910.5054024448
 20
552.4765493754
 30
0.0
 11
1910.5054024448
 21
549.8532297495
 31
0.0
  0
ARC
  5
3B4
330
1F
100
AcDbEntity
  8
0
  6
Continuous
 62
     7
370
    15
100
AcDbCircle
 10
1911.7753670062
 20
552.4765589227
 30
0.0
 40
1.269999999999982
100
AcDbArc
 50
141.9718286927
 51
180.0
  0
ARC
  5
3B5
330
1F
100
AcDbEntity
  8
0
  6
Continuous
 62
     7
370
    15
100
AcDbCircle
 10
1908.1400948231
 20
555.319624373
 30
0.0
 40
3.345000000000067
100
AcDbArc
 50
321.9718286927
 51
127.5959612143
  0
ARC
  5
3B6
330
1F
100
AcDbEntity
  8
0
  6
Continuous
 62
     7
370
    15
100
AcDbCircle
 10
1905.3245326399
 20
558.9762395555
 30
0.0
 40
1.269999999999976
100
AcDbArc
 50
269.7640843231
 51
307.5959612143
  0
LINE
  5
3B7
330
1F
100
AcDbEntity
  8
0
  6
Continuous
 62
     7
370
    15
100
AcDbLine
 10
1861.6177920093
 20
557.8862073306
 30
0.0
 11
1905.3193215121
 21
557.706260908
 31
0.0
  0
ARC
  5
3B8
330
1F
100
AcDbEntity
  8
0
  6
Continuous
 62
     7
370
    15
100
AcDbCircle
 10
1861.6466170062
 20
564.8861331949
 30
0.0
 40
7.000000000000227
100
AcDbArc
 50
180.0
 51
269.7640843231
  0
ARC
  5
3B9
330
1F
100
AcDbEntity
  8
0
  6
Continuous
 62
     7
370
    15
100
AcDbCircle
 10
1861.6466170062
 20
1126.610326584
 30
0.0
 40
7.0
100
AcDbArc
 50
90.2359156769
 51
180.0
  0
LINE
  5
3BA
330
1F
100
AcDbEntity
  8
0
  6
Continuous
 62
     7
370
    15
100
AcDbLine
 10
1861.6177920093
 20
1133.6102726344
 30
0.0
 11
1905.3193215121
 21
1133.7901594523
 31
0.0
  0
ARC
  5
3BB
330
1F
100
AcDbEntity
  8
0
  6
Continuous
 62
     7
370
    15
100
AcDbCircle
 10
1905.3245326399
 20
1132.5202202234
 30
0.0
 40
1.270000000000234
100
AcDbArc
 50
52.4040387857
 51
90.2359156769
  0
ARC
  5
3BC
330
1F
100
AcDbEntity
  8
0
  6
Continuous
 62
     7
370
    15
100
AcDbCircle
 10
1908.1400948231
 20
1136.1768354058
 30
0.0
 40
3.345000000000019
100
AcDbArc
 50
232.4040387857
 51
38.0281713073
  0
ARC
  5
3BD
330
1F
100
AcDbEntity
  8
0
  6
Continuous
 62
     7
370
    15
100
AcDbCircle
 10
1911.7753670062
 20
1139.0199008562
 30
0.0
 40
1.270000000000209
100
AcDbArc
 50
180.0
 51
218.0281713073
  0
LINE
  5
3BE
330
1F
100
AcDbEntity
  8
0
  6
Continuous
 62
     7
370
    15
100
AcDbLine
 10
1910.5054024448
 20
1139.0198709849
 30
0.0
 11
1910.5054024448
 21
1141.6431906108
 31
0.0
  0
ARC
  5
3BF
330
1F
100
AcDbEntity
  8
0
  6
Continuous
 62
     7
370
    15
100
AcDbCircle
 10
1911.7753670062
 20
1141.6432255893
 30
0.0
 40
1.270000000000209
100
AcDbArc
 50
141.9718286927
 51
180.0
  0
ARC
  5
3C0
330
1F
100
AcDbEntity
  8
0
  6
Continuous
 62
     7
370
    15
100
AcDbCircle
 10
1908.1400948231
 20
1144.4862910397
 30
0.0
 40
3.345000000000065
100
AcDbArc
 50
321.9718286927
 51
127.5959612143
  0
ARC
  5
3C1
330
1F
100
AcDbEntity
  8
0
  6
Continuous
 62
     7
370
    15
100
AcDbCircle
 10
1905.3245326399
 20
1148.1429062221
 30
0.0
 40
1.270000000000234
100
AcDbArc
 50
269.7640843231
 51
307.5959612143
  0
LINE
  5
3C2
330
1F
100
AcDbEntity
  8
0
  6
Continuous
 62
     7
370
    15
100
AcDbLine
 10
1905.3193215121
 20
1146.8729021433
 30
0.0
 11
1861.6177920093
 21
1147.0529081706
 31
0.0
  0
ARC
  5
3C3
330
1F
100
AcDbEntity
  8
0
  6
Continuous
 62
     7
370
    15
100
AcDbCircle
 10
1861.6466170062
 20
1154.0527998615
 30
0.0
 40
7.0
100
AcDbArc
 50
180.0
 51
269.7640843231
  0
LINE
  5
3C4
330
1F
100
AcDbEntity
  8
0
  6
Continuous
 62
     7
370
    15
100
AcDbLine
 10
1854.6466711749
 20
1154.0527584437
 30
0.0
 11
1854.6466711749
 21
1193.3315040949
 31
0.0
  0
ARC
  5
3C5
330
1F
100
AcDbEntity
  8
0
  6
Continuous
 62
     7
370
    15
100
AcDbCircle
 10
1861.6466170062
 20
1193.3315632228
 30
0.0
 40
7.0
100
AcDbArc
 50
90.0
 51
180.0
  0
LINE
  5
3C6
330
1F
100
AcDbEntity
  8
0
  6
Continuous
 62
     7
370
    15
100
AcDbLine
 10
1861.6466406573
 20
1200.3315927867
 30
0.0
 11
2071.0816267718
 21
1200.3315927867
 31
0.0
  0
ARC
  5
3C7
330
1F
100
AcDbEntity
  8
0
  6
Continuous
 62
     7
370
    15
100
AcDbCircle
 10
2071.0816170062
 20
1193.3315632228
 30
0.0
 40
7.000000000000455
100
AcDbArc
 50
0.0
 51
90.0
  0
LINE
  5
3C8
330
1F
100
AcDbEntity
  8
0
  6
Continuous
 62
     7
370
    15
100
AcDbLine
 10
2078.0815962543
 20
1193.3315040949
 30
0.0
 11
2078.0815962543
 21
1154.0527584437
 31
0.0
  0
ARC
  5
3C9
330
1F
100
AcDbEntity
  8
0
  6
Continuous
 62
     7
370
    15
100
AcDbCircle
 10
2071.0816170062
 20
1154.0527998615
 30
0.0
 40
7.000000000000455
100
AcDbArc
 50
270.2359156769
 51
0.0
  0
LINE
  5
3CA
330
1F
100
AcDbEntity
  8
0
  6
Continuous
 62
     7
370
    15
100
AcDbLine
 10
2027.4088267078
 20
1146.8729021433
 30
0.0
 11
2071.1104754199
 21
1147.0529081706
 31
0.0
  0
ARC
  5
3CB
330
1F
100
AcDbEntity
  8
0
  6
Continuous
 62
     7
370
    15
100
AcDbCircle
 10
2027.4037013725
 20
1148.1429062221
 30
0.0
 40
1.270000000000373
100
AcDbArc
 50
232.4040387857
 51
270.2359156769
  0
ARC
  5
3CC
330
1F
100
AcDbEntity
  8
0
  6
Continuous
 62
     7
370
    15
100
AcDbCircle
 10
2024.5881391893
 20
1144.4862910397
 30
0.0
 40
3.345000000000065
100
AcDbArc
 50
52.4040387857
 51
218.0281713073
  0
ARC
  5
3CD
330
1F
100
AcDbEntity
  8
0
  6
Continuous
 62
     7
370
    15
100
AcDbCircle
 10
2020.9528670062
 20
1141.6432255893
 30
0.0
 40
1.270000000000102
100
AcDbArc
 50
0.0
 51
38.0281713073
  0
LINE
  5
3CE
330
1F
100
AcDbEntity
  8
0
  6
Continuous
 62
     7
370
    15
100
AcDbLine
 10
2022.2229841937
 20
1139.0198709849
 30
0.0
 11
2022.2229841937
 21
1141.6431906108
 31
0.0
  0
ARC
  5
3CF
330
1F
100
AcDbEntity
  8
0
  6
Continuous
 62
     7
370
    15
100
AcDbCircle
 10
2020.9528670062
 20
1139.0199008562
 30
0.0
 40
1.270000000000102
100
AcDbArc
 50
321.9718286927
 51
0.0
  0
ARC
  5
3D0
330
1F
100
AcDbEntity
  8
0
  6
Continuous
 62
     7
370
    15
100
AcDbCircle
 10
2024.5881391893
 20
1136.1768354058
 30
0.0
 40
3.345000000000019
100
AcDbArc
 50
141.9718286927
 51
307.5959612143
  0
ARC
  5
3D1
330
1F
100
AcDbEntity
  8
0
  6
Continuous
 62
     7
370
    15
100
AcDbCircle
 10
2027.4037013725
 20
1132.5202202234
 30
0.0
 40
1.270000000000373
100
AcDbArc
 50
89.7640843231
 51
127.5959612143
  0
LINE
  5
3D2
330
1F
100
AcDbEntity
  8
0
  6
Continuous
 62
     7
370
    15
100
AcDbLine
 10
2071.1104754199
 20
1133.6102726344
 30
0.0
 11
2027.4088267078
 21
1133.7901594523
 31
0.0
  0
ARC
  5
3D3
330
1F
100
AcDbEntity
  8
0
  6
Continuous
 62
     7
370
    15
100
AcDbCircle
 10
2071.0816170062
 20
1126.610326584
 30
0.0
 40
7.000000000000455
100
AcDbArc
 50
0.0
 51
89.7640843231
  0
LINE
  5
3D4
330
1F
100
AcDbEntity
  8
0
  6
Continuous
 62
     7
370
    15
100
AcDbLine
 10
2078.0815962543
 20
1126.6103031519
 30
0.0
 11
2078.0815962543
 21
1036.2195017222
 31
0.0
  0
ARC
  5
3D5
330
1F
100
AcDbEntity
  8
0
  6
Continuous
 62
     7
370
    15
100
AcDbCircle
 10
2071.0816170062
 20
1036.2194665282
 30
0.0
 40
7.000000000000455
100
AcDbArc
 50
270.2359156769
 51
0.0
  0
LINE
  5
3D6
330
1F
100
AcDbEntity
  8
0
  6
Continuous
 62
     7
370
    15
100
AcDbLine
 10
2027.4088267078
 20
1029.0395262126
 30
0.0
 11
2071.1104754199
 21
1029.2195322398
 31
0.0
  0
ARC
  5
3D7
330
1F
100
AcDbEntity
  8
0
  6
Continuous
 62
     7
370
    15
100
AcDbCircle
 10
2027.4037013725
 20
1030.3095728888
 30
0.0
 40
1.270000000000089
100
AcDbArc
 50
232.4040387857
 51
270.2359156769
  0
ARC
  5
3D8
330
1F
100
AcDbEntity
  8
0
  6
Continuous
 62
     7
370
    15
100
AcDbCircle
 10
2024.5881391893
 20
1026.6529577063
 30
0.0
 40
3.345000000000379
100
AcDbArc
 50
52.4040387857
 51
218.0281713073
  0
ARC
  5
3D9
330
1F
100
AcDbEntity
  8
0
  6
Continuous
 62
     7
370
    15
100
AcDbCircle
 10
2020.9528670062
 20
1023.809892256
 30
0.0
 40
1.270000000000312
100
AcDbArc
 50
0.0
 51
38.0281713073
  0
LINE
  5
3DA
330
1F
100
AcDbEntity
  8
0
  6
Continuous
 62
     7
370
    15
100
AcDbLine
 10
2022.2229841937
 20
1021.1866142634
 30
0.0
 11
2022.2229841937
 21
1023.8099338893
 31
0.0
  0
ARC
  5
3DB
330
1F
100
AcDbEntity
  8
0
  6
Continuous
 62
     7
370
    15
100
AcDbCircle
 10
2020.9528670062
 20
1021.1865675228
 30
0.0
 40
1.270000000000382
100
AcDbArc
 50
321.9718286927
 51
0.0
  0
ARC
  5
3DC
330
1F
100
AcDbEntity
  8
0
  6
Continuous
 62
     7
370
    15
100
AcDbCircle
 10
2024.5881391893
 20
1018.3435020725
 30
0.0
 40
3.344999999999995
100
AcDbArc
 50
141.9718286927
 51
307.5959612143
  0
ARC
  5
3DD
330
1F
100
AcDbEntity
  8
0
  6
Continuous
 62
     7
370
    15
100
AcDbCircle
 10
2027.4037013725
 20
1014.68688689
 30
0.0
 40
1.270000000000012
100
AcDbArc
 50
89.7640843231
 51
127.5959612143
  0
LINE
  5
3DE
330
1F
100
AcDbEntity
  8
0
  6
Continuous
 62
     7
370
    15
100
AcDbLine
 10
2071.1104754199
 20
1015.7768967036
 30
0.0
 11
2027.4088267078
 21
1015.9569027308
 31
0.0
  0
ARC
  5
3DF
330
1F
100
AcDbEntity
  8
0
  6
Continuous
 62
     7
370
    15
100
AcDbCircle
 10
2071.0816170062
 20
1008.7769932506
 30
0.0
 40
7.000000000000455
100
AcDbArc
 50
0.0
 51
89.7640843231
  0
LINE
  5
3E0
330
1F
100
AcDbEntity
  8
0
  6
Continuous
 62
     7
370
    15
100
AcDbLine
 10
2078.0815962543
 20
1008.7770464305
 30
0.0
 11
2078.0815962543
 21
918.3861257914
 31
0.0
  0
ARC
  5
3E1
330
1F
100
AcDbEntity
  8
0
  6
Continuous
 62
     7
370
    15
100
AcDbCircle
 10
2071.0816170062
 20
918.3861331949
 30
0.0
 40
7.000000000000455
100
AcDbArc
 50
270.2359156769
 51
0.0
  0
LINE
  5
3E2
330
1F
100
AcDbEntity
  8
0
  6
Continuous
 62
     7
370
    15
100
AcDbLine
 10
2027.4088267078
 20
911.2062694911
 30
0.0
 11
2071.1104754199
 21
911.3862159136
 31
0.0
  0
ARC
  5
3E3
330
1F
100
AcDbEntity
  8
0
  6
Continuous
 62
     7
370
    15
100
AcDbCircle
 10
2027.4037013725
 20
912.4762395555
 30
0.0
 40
1.270000000000102
100
AcDbArc
 50
232.4040387857
 51
270.2359156769
  0
ARC
  5
3E4
330
1F
100
AcDbEntity
  8
0
  6
Continuous
 62
     7
370
    15
100
AcDbCircle
 10
2024.5881391893
 20
908.819624373
 30
0.0
 40
3.345000000000019
100
AcDbArc
 50
52.4040387857
 51
218.0281713073
  0
ARC
  5
3E5
330
1F
100
AcDbEntity
  8
0
  6
Continuous
 62
     7
370
    15
100
AcDbCircle
 10
2020.9528670062
 20
905.9765589227
 30
0.0
 40
1.270000000000242
100
AcDbArc
 50
0.0
 51
38.0281713073
  0
LINE
  5
3E6
330
1F
100
AcDbEntity
  8
0
  6
Continuous
 62
     7
370
    15
100
AcDbLine
 10
2022.2229841937
 20
903.3532383326
 30
0.0
 11
2022.2229841937
 21
905.9765579585
 31
0.0
  0
ARC
  5
3E7
330
1F
100
AcDbEntity
  8
0
  6
Continuous
 62
     7
370
    15
100
AcDbCircle
 10
2020.9528670062
 20
903.3532341895
 30
0.0
 40
1.270000000000312
100
AcDbArc
 50
321.9718286927
 51
0.0
  0
ARC
  5
3E8
330
1F
100
AcDbEntity
  8
0
  6
Continuous
 62
     7
370
    15
100
AcDbCircle
 10
2024.5881391893
 20
900.5101687392
 30
0.0
 40
3.345000000000019
100
AcDbArc
 50
141.9718286927
 51
307.5959612143
  0
ARC
  5
3E9
330
1F
100
AcDbEntity
  8
0
  6
Continuous
 62
     7
370
    15
100
AcDbCircle
 10
2027.4037013725
 20
896.8535535567
 30
0.0
 40
1.270000000000192
100
AcDbArc
 50
89.7640843231
 51
127.5959612143
  0
LINE
  5
3EA
330
1F
100
AcDbEntity
  8
0
  6
Continuous
 62
     7
370
    15
100
AcDbLine
 10
2071.1104754199
 20
897.9435803774
 30
0.0
 11
2027.4088267078
 21
898.1235268
 31
0.0
  0
ARC
  5
3EB
330
1F
100
AcDbEntity
  8
0
  6
Continuous
 62
     7
370
    15
100
AcDbCircle
 10
2071.0816170062
 20
890.9436599173
 30
0.0
 40
7.000000000000455
100
AcDbArc
 50
0.0
 51
89.7640843231
  0
LINE
  5
3EC
330
1F
100
AcDbEntity
  8
0
  6
Continuous
 62
     7
370
    15
100
AcDbLine
 10
2078.0815962543
 20
800.5528094653
 30
0.0
 11
2078.0815962543
 21
890.9436704997
 31
0.0
  0
ARC
  5
3ED
330
1F
100
AcDbEntity
  8
0
  6
Continuous
 62
     7
370
    15
100
AcDbCircle
 10
2071.0816170062
 20
800.5527998615
 30
0.0
 40
7.000000000000455
100
AcDbArc
 50
270.2359156769
 51
0.0
  0
LINE
  5
3EE
330
1F
100
AcDbEntity
  8
0
  6
Continuous
 62
     7
370
    15
100
AcDbLine
 10
2071.1104754199
 20
793.5528399829
 30
0.0
 11
2027.4088267078
 21
793.3728935603
 31
0.0
  0
LINE
  5
3EF
330
1F
100
AcDbEntity
  8
0
  6
Continuous
 62
     7
370
    15
100
AcDbLine
 10
1854.6466711749
 20
537.4436619166
 30
0.0
 11
1854.6466711749
 21
498.164886463
 31
0.0
  0
LINE
  5
3F0
330
1F
100
AcDbEntity
  8
0
  6
Continuous
 62
     7
370
    15
100
AcDbLine
 10
1854.6466711749
 20
1126.6103031519
 30
0.0
 11
1854.6466711749
 21
564.8861172083
 31
0.0
  0
LINE
  5
3F1
330
1F
100
AcDbEntity
  8
0
  6
Continuous
 62
     7
370
    15
100
AcDbLine
 10
2078.0815962543
 20
564.8861172083
 30
0.0
 11
2078.0815962543
 21
655.2769782427
 31
0.0
  0
LINE
  5
3F2
330
1F
100
AcDbEntity
  8
0
  6
Continuous
 62
     7
370
    15
100
AcDbLine
 10
2078.0815962543
 20
682.7194931391
 30
0.0
 11
2078.0815962543
 21
773.1103541735
 31
0.0
  0
ENDSEC
  0
SECTION
  2
OBJECTS
  0
DICTIONARY
  5
C
330
0
100
AcDbDictionary
281
     1
  3
ACAD_GROUP
350
D
  3
ACAD_LAYOUT
350
1A
  3
ACAD_MLINESTYLE
350
17
  3
ACAD_PLOTSETTINGS
350
19
  3
ACAD_PLOTSTYLENAME
350
E
  3
ACAD_SCALELIST
350
47
  0
DICTIONARY
  5
D
102
{ACAD_REACTORS
330
C
102
}
330
C
100
AcDbDictionary
281
     1
  0
DICTIONARY
  5
1A
102
{ACAD_REACTORS
330
C
102
}
330
C
100
AcDbDictionary
281
     1
  3
Layout1
350
1E
  3
Layout2
350
26
  3
Model
350
22
  0
DICTIONARY
  5
17
102
{ACAD_REACTORS
330
C
102
}
330
C
100
AcDbDictionary
281
     1
  3
Standard
350
18
  0
DICTIONARY
  5
19
102
{ACAD_REACTORS
330
C
102
}
330
C
100
AcDbDictionary
281
     1
  0
ACDBDICTIONARYWDFLT
  5
E
102
{ACAD_REACTORS
330
C
102
}
330
C
100
AcDbDictionary
281
     1
  3
Normal
350
F
100
AcDbDictionaryWithDefault
340
F
  0
DICTIONARY
  5
47
102
{ACAD_REACTORS
330
C
102
}
330
C
100
AcDbDictionary
281
     1
  3
A0
350
48
  3
A1
350
49
  3
A2
350
4A
  3
A3
350
4B
  3
A4
350
4C
  3
A5
350
4D
  3
A6
350
4E
  3
A7
350
4F
  3
A8
350
50
  3
A9
350
51
  3
B0
350
52
  3
B1
350
53
  3
B2
350
54
  3
B3
350
55
  3
B4
350
56
  3
B5
350
57
  3
B6
350
58
  3
B7
350
59
  3
B8
350
5A
  3
B9
350
5B
  3
C0
350
5C
  3
C1
350
5D
  3
C2
350
5E
  3
C3
350
5F
  3
C4
350
60
  3
C5
350
61
  3
C6
350
62
  3
C7
350
63
  3
C8
350
64
  3
C9
350
65
  3
D0
350
66
  3
D1
350
67
  3
D2
350
68
  0
LAYOUT
  5
1E
102
{ACAD_REACTORS
330
1A
102
}
330
1A
100
AcDbPlotSettings
  1

  2
none_device
  4

  6

 40
0.0
 41
0.0
 42
0.0
 43
0.0
 44
0.0
 45
0.0
 46
0.0
 47
0.0
 48
0.0
 49
0.0
140
0.0
141
0.0
142
1.0
143
1.0
 70
   688
 72
     1
 73
     0
 74
     5
  7

 75
    16
147
1.0
148
0.0
149
0.0
100
AcDbLayout
  1
Layout1
 70
     1
 71
     1
 10
0.0
 20
0.0
 11
420.0
 21
297.0
 12
0.0
 22
0.0
 32
0.0
 14
1.0000000000E+20
 24
1.0000000000E+20
 34
1.0000000000E+20
 15
-1.0000000000E+20
 25
-1.0000000000E+20
 35
-1.0000000000E+20
146
0.0
 13
0.0
 23
0.0
 33
0.0
 16
1.0
 26
0.0
 36
0.0
 17
0.0
 27
1.0
 37
0.0
 76
     0
330
1B
  0
LAYOUT
  5
26
102
{ACAD_REACTORS
330
1A
102
}
330
1A
100
AcDbPlotSettings
  1

  2
none_device
  4

  6

 40
0.0
 41
0.0
 42
0.0
 43
0.0
 44
0.0
 45
0.0
 46
0.0
 47
0.0
 48
0.0
 49
0.0
140
0.0
141
0.0
142
1.0
143
1.0
 70
   688
 72
     1
 73
     0
 74
     5
  7

 75
    16
147
1.0
148
0.0
149
0.0
100
AcDbLayout
  1
Layout2
 70
     1
 71
     2
 10
0.0
 20
0.0
 11
0.0
 21
0.0
 12
0.0
 22
0.0
 32
0.0
 14
0.0
 24
0.0
 34
0.0
 15
0.0
 25
0.0
 35
0.0
146
0.0
 13
0.0
 23
0.0
 33
0.0
 16
1.0
 26
0.0
 36
0.0
 17
0.0
 27
1.0
 37
0.0
 76
     0
330
23
  0
LAYOUT
  5
22
102
{ACAD_REACTORS
330
1A
102
}
330
1A
100
AcDbPlotSettings
  1

  2
none_device
  4
Letter_(8.50_x_11.00_Inches)
  6

 40
6.35
 41
6.35
 42
6.35000508
 43
6.35000508
 44
215.9
 45
279.4
 46
0.0
 47
0.0
 48
0.0
 49
0.0
140
0.0
141
0.0
142
1.0
143
1.0
 70
  1712
 72
     1
 73
     0
 74
     0
  7

 75
     0
147
1.0
148
0.0
149
0.0
100
AcDbLayout
  1
Model
 70
     1
 71
     0
 10
0.0
 20
0.0
 11
2440.0
 21
1220.0
 12
0.0
 22
0.0
 32
0.0
 14
0.0
 24
0.0
 34
0.0
 15
2440.0
 25
1220.0
 35
0.0
146
0.0
 13
0.0
 23
0.0
 33
0.0
 16
1.0
 26
0.0
 36
0.0
 17
0.0
 27
1.0
 37
0.0
 76
     0
330
1F
331
29
  0
MLINESTYLE
  5
18
102
{ACAD_REACTORS
330
17
102
}
330
17
100
AcDbMlineStyle
  2
Standard
 70
     0
  3

 62
   256
 51
90.0
 52
90.0
 71
     2
 49
0.5
 62
   256
  6
BYLAYER
 49
-0.5
 62
   256
  6
BYLAYER
  0
ACDBPLACEHOLDER
  5
F
102
{ACAD_REACTORS
330
E
102
}
330
E
  0
SCALE
  5
48
102
{ACAD_REACTORS
330
47
102
}
330
47
100
AcDbScale
 70
     0
300
1:1
140
1.0
141
1.0
290
     1
  0
SCALE
  5
49
102
{ACAD_REACTORS
330
47
102
}
330
47
100
AcDbScale
 70
     0
300
1:2
140
1.0
141
2.0
290
     0
  0
SCALE
  5
4A
102
{ACAD_REACTORS
330
47
102
}
330
47
100
AcDbScale
 70
     0
300
1:4
140
1.0
141
4.0
290
     0
  0
SCALE
  5
4B
102
{ACAD_REACTORS
330
47
102
}
330
47
100
AcDbScale
 70
     0
300
1:5
140
1.0
141
5.0
290
     0
  0
SCALE
  5
4C
102
{ACAD_REACTORS
330
47
102
}
330
47
100
AcDbScale
 70
     0
300
1:8
140
1.0
141
8.0
290
     0
  0
SCALE
  5
4D
102
{ACAD_REACTORS
330
47
102
}
330
47
100
AcDbScale
 70
     0
300
1:10
140
1.0
141
10.0
290
     0
  0
SCALE
  5
4E
102
{ACAD_REACTORS
330
47
102
}
330
47
100
AcDbScale
 70
     0
300
1:16
140
1.0
141
16.0
290
     0
  0
SCALE
  5
4F
102
{ACAD_REACTORS
330
47
102
}
330
47
100
AcDbScale
 70
     0
300
1:20
140
1.0
141
20.0
290
     0
  0
SCALE
  5
50
102
{ACAD_REACTORS
330
47
102
}
330
47
100
AcDbScale
 70
     0
300
1:30
140
1.0
141
30.0
290
     0
  0
SCALE
  5
51
102
{ACAD_REACTORS
330
47
102
}
330
47
100
AcDbScale
 70
     0
300
1:40
140
1.0
141
40.0
290
     0
  0
SCALE
  5
52
102
{ACAD_REACTORS
330
47
102
}
330
47
100
AcDbScale
 70
     0
300
1:50
140
1.0
141
50.0
290
     0
  0
SCALE
  5
53
102
{ACAD_REACTORS
330
47
102
}
330
47
100
AcDbScale
 70
     0
300
1:100
140
1.0
141
100.0
290
     0
  0
SCALE
  5
54
102
{ACAD_REACTORS
330
47
102
}
330
47
100
AcDbScale
 70
     0
300
2:1
140
2.0
141
1.0
290
     0
  0
SCALE
  5
55
102
{ACAD_REACTORS
330
47
102
}
330
47
100
AcDbScale
 70
     0
300
4:1
140
4.0
141
1.0
290
     0
  0
SCALE
  5
56
102
{ACAD_REACTORS
330
47
102
}
330
47
100
AcDbScale
 70
     0
300
8:1
140
8.0
141
1.0
290
     0
  0
SCALE
  5
57
102
{ACAD_REACTORS
330
47
102
}
330
47
100
AcDbScale
 70
     0
300
10:1
140
10.0
141
1.0
290
     0
  0
SCALE
  5
58
102
{ACAD_REACTORS
330
47
102
}
330
47
100
AcDbScale
 70
     0
300
100:1
140
100.0
141
1.0
290
     0
  0
SCALE
  5
59
102
{ACAD_REACTORS
330
47
102
}
330
47
100
AcDbScale
 70
     0
300
1/128" = 1'-0"
140
0.0078125
141
12.0
290
     0
  0
SCALE
  5
5A
102
{ACAD_REACTORS
330
47
102
}
330
47
100
AcDbScale
 70
     0
300
1/64" = 1'-0"
140
0.015625
141
12.0
290
     0
  0
SCALE
  5
5B
102
{ACAD_REACTORS
330
47
102
}
330
47
100
AcDbScale
 70
     0
300
1/32" = 1'-0"
140
0.03125
141
12.0
290
     0
  0
SCALE
  5
5C
102
{ACAD_REACTORS
330
47
102
}
330
47
100
AcDbScale
 70
     0
300
1/16" = 1'-0"
140
0.0625
141
12.0
290
     0
  0
SCALE
  5
5D
102
{ACAD_REACTORS
330
47
102
}
330
47
100
AcDbScale
 70
     0
300
3/32" = 1'-0"
140
0.09375
141
12.0
290
     0
  0
SCALE
  5
5E
102
{ACAD_REACTORS
330
47
102
}
330
47
100
AcDbScale
 70
     0
300
1/8" = 1'-0"
140
0.125
141
12.0
290
     0
  0
SCALE
  5
5F
102
{ACAD_REACTORS
330
47
102
}
330
47
100
AcDbScale
 70
     0
300
3/16" = 1'-0"
140
0.1875
141
12.0
290
     0
  0
SCALE
  5
60
102
{ACAD_REACTORS
330
47
102
}
330
47
100
AcDbScale
 70
     0
300
1/4" = 1'-0"
140
0.25
141
12.0
290
     0
  0
SCALE
  5
61
102
{ACAD_REACTORS
330
47
102
}
330
47
100
AcDbScale
 70
     0
300
3/8" = 1'-0"
140
0.375
141
12.0
290
     0
  0
SCALE
  5
62
102
{ACAD_REACTORS
330
47
102
}
330
47
100
AcDbScale
 70
     0
300
1/2" = 1'-0"
140
0.5
141
12.0
290
     0
  0
SCALE
  5
63
102
{ACAD_REACTORS
330
47
102
}
330
47
100
AcDbScale
 70
     0
300
3/4" = 1'-0"
140
0.75
141
12.0
290
     0
  0
SCALE
  5
64
102
{ACAD_REACTORS
330
47
102
}
330
47
100
AcDbScale
 70
     0
300
1" = 1'-0"
140
1.0
141
12.0
290
     0
  0
SCALE
  5
65
102
{ACAD_REACTORS
330
47
102
}
330
47
100
AcDbScale
 70
     0
300
1-1/2" = 1'-0"
140
1.5
141
12.0
290
     0
  0
SCALE
  5
66
102
{ACAD_REACTORS
330
47
102
}
330
47
100
AcDbScale
 70
     0
300
3" = 1'-0"
140
3.0
141
12.0
290
     0
  0
SCALE
  5
67
102
{ACAD_REACTORS
330
47
102
}
330
47
100
AcDbScale
 70
     0
300
6" = 1'-0"
140
6.0
141
12.0
290
     0
  0
SCALE
  5
68
102
{ACAD_REACTORS
330
47
102
}
330
47
100
AcDbScale
 70
     0
300
1'-0" = 1'-0"
140
12.0
141
12.0
290
     0
  0
ENDSEC
  0
EOF
